# Blender 5.0.1
# www.blender.org
mtllib Book_Pile_1_Alt.mtl
o Book_Pile_1_Alt
v 0.163373 -0.012209 0.030287
v 0.067256 0.153123 0.038958
v 0.163373 -0.012209 0.007277
v 0.067256 0.153123 -0.001395
v -0.163513 0.018963 0.030287
v -0.067396 -0.146369 0.030287
v -0.163513 0.018963 0.007277
v -0.067396 -0.146369 0.007277
v 0.067256 0.153123 0.007277
v 0.166889 -0.018255 -0.001395
v 0.067256 0.153123 0.030287
v 0.166889 -0.018255 0.038958
v -0.163513 0.018963 0.038958
v -0.163513 0.018963 -0.001395
v -0.063880 -0.152416 -0.001395
v -0.063880 -0.152416 0.038958
v 0.059210 0.141327 0.029176
v 0.059210 0.141327 0.008387
v -0.149281 0.020118 0.029176
v -0.149281 0.020118 0.008387
v 0.146049 -0.008044 0.008387
v 0.146049 -0.008044 0.029176
v -0.062443 -0.129253 0.008387
v -0.062443 -0.129253 0.029176
v 0.160267 0.038532 0.070527
v 0.018163 0.166515 0.079198
v 0.160267 0.038532 0.047517
v 0.018163 0.166515 0.038846
v -0.160475 -0.031832 0.070527
v -0.018371 -0.159816 0.070527
v -0.160475 -0.031832 0.047517
v -0.018371 -0.159816 0.047517
v 0.018163 0.166515 0.047517
v 0.165464 0.033851 0.038846
v 0.018163 0.166515 0.070527
v 0.165464 0.033851 0.079198
v -0.160475 -0.031832 0.079198
v -0.160475 -0.031832 0.038846
v -0.013174 -0.164496 0.038846
v -0.013174 -0.164496 0.079198
v 0.014113 0.152823 0.069416
v 0.014113 0.152823 0.048627
v -0.147280 -0.026377 0.069416
v -0.147280 -0.026377 0.048627
v 0.142499 0.037195 0.048627
v 0.142499 0.037195 0.069416
v -0.018894 -0.142005 0.048627
v -0.018894 -0.142005 0.069416
v 0.052388 -0.125888 0.116546
v 0.086184 0.030285 0.126555
v 0.052388 -0.125888 0.089986
v 0.086184 0.030285 0.079977
v -0.131801 0.077456 0.116546
v -0.165597 -0.078717 0.116546
v -0.131801 0.077456 0.089986
v -0.165597 -0.078717 0.089986
v 0.086184 0.030285 0.089986
v 0.051152 -0.131600 0.079977
v 0.086184 0.030285 0.116546
v 0.051152 -0.131600 0.126555
v -0.131801 0.077456 0.126555
v -0.131801 0.077456 0.079977
v -0.166833 -0.084428 0.079977
v -0.166833 -0.084428 0.126555
v 0.074575 0.027536 0.115264
v 0.074575 0.027536 0.091268
v -0.122367 0.070154 0.115264
v -0.122367 0.070154 0.091268
v 0.044042 -0.113561 0.091268
v 0.044042 -0.113561 0.115264
v -0.152900 -0.070943 0.091268
v -0.152900 -0.070943 0.115264
v -0.208227 0.017886 0.157664
v -0.180060 -0.156201 0.166100
v -0.208227 0.017886 0.135278
v -0.180060 -0.156201 0.126843
v 0.062929 -0.116885 0.157664
v 0.034762 0.057202 0.157664
v 0.062929 -0.116885 0.135278
v 0.034762 0.057202 0.135278
v -0.180060 -0.156201 0.135278
v -0.209257 0.024253 0.126843
v -0.180060 -0.156201 0.157664
v -0.209257 0.024253 0.166100
v 0.062929 -0.116885 0.166100
v 0.062929 -0.116885 0.126843
v 0.033732 0.063568 0.126843
v 0.033732 0.063568 0.166100
v -0.169238 -0.148701 0.156583
v -0.169238 -0.148701 0.136359
v 0.050294 -0.113181 0.156583
v 0.050294 -0.113181 0.136359
v -0.194686 0.008580 0.136359
v -0.194686 0.008580 0.156583
v 0.024846 0.044100 0.136359
v 0.024846 0.044100 0.156583
v 0.075880 -0.076564 0.198603
v 0.007497 0.074697 0.207274
v 0.075880 -0.076564 0.175593
v 0.007497 0.074697 0.166922
v -0.203631 -0.020751 0.198603
v -0.135249 -0.172012 0.198603
v -0.203631 -0.020751 0.175593
v -0.135249 -0.172012 0.175593
v 0.007497 0.074697 0.175593
v 0.078381 -0.082096 0.166922
v 0.007497 0.074697 0.198603
v 0.078381 -0.082096 0.207274
v -0.203631 -0.020751 0.207274
v -0.203631 -0.020751 0.166922
v -0.132748 -0.177544 0.166922
v -0.132748 -0.177544 0.207274
v -0.000493 0.065222 0.197492
v -0.000493 0.065222 0.176703
v -0.191240 -0.021012 0.197492
v -0.191240 -0.021012 0.176703
v 0.061288 -0.071436 0.176703
v 0.061288 -0.071436 0.197492
v -0.129459 -0.157670 0.176703
v -0.129459 -0.157670 0.197492
v -0.006230 0.055217 0.182983
v -0.173366 0.041921 0.182983
v -0.163492 -0.082201 0.182983
v 0.035230 -0.053631 0.142784
v -0.000934 -0.172778 0.142784
v -0.161371 -0.124081 0.142784
v 0.071987 0.029642 0.059971
v -0.017798 -0.047458 0.059971
v -0.031833 0.150542 0.059971
v -0.121618 0.073442 0.059971
v -0.026733 -0.123572 0.059260
v -0.107977 -0.139530 0.059260
v -0.129466 -0.030131 0.059260
v 0.039966 0.021448 0.097686
v 0.106645 -0.029764 0.097686
v 0.033365 -0.116347 0.097686
vn 0.5026 -0.8645 -0.0000
vn 0.0742 0.0432 0.9963
vn -0.0000 -0.0000 -1.0000
vn -0.0000 -0.0000 1.0000
vn 0.2337 0.9723 -0.0000
vn -0.0893 0.1535 0.9841
vn 0.8645 0.5026 -0.0000
vn -0.5026 0.8645 -0.0000
vn -0.8645 -0.5026 -0.0000
vn -0.9606 0.2780 -0.0000
vn -0.0742 -0.0432 0.9963
vn -0.0893 0.1535 -0.9841
vn 0.0742 0.0432 -0.9963
vn -0.0742 -0.0432 -0.9963
vn 0.7431 -0.6692 -0.0000
vn 0.0575 0.0638 0.9963
vn -0.0750 0.9972 -0.0000
vn -0.1320 0.1189 0.9841
vn 0.6692 0.7431 -0.0000
vn -0.7431 0.6692 -0.0000
vn -0.6692 -0.7431 -0.0000
vn -0.9996 -0.0293 -0.0000
vn -0.0575 -0.0638 0.9963
vn -0.1320 0.1189 -0.9841
vn 0.0575 0.0638 -0.9963
vn -0.0575 -0.0638 -0.9963
vn -0.2115 -0.9774 -0.0000
vn 0.1156 -0.0250 0.9930
vn 0.8281 0.5606 -0.0000
vn 0.0512 0.2365 0.9703
vn 0.9774 -0.2115 -0.0000
vn 0.2115 0.9774 -0.0000
vn -0.9774 0.2115 -0.0000
vn -0.5222 0.8528 -0.0000
vn -0.1156 0.0250 0.9930
vn 0.0512 0.2365 -0.9703
vn 0.1156 -0.0250 -0.9930
vn -0.1156 0.0250 -0.9930
vn -0.1597 0.9872 -0.0000
vn -0.0894 -0.0145 0.9959
vn -0.5664 -0.8241 -0.0000
vn 0.0299 -0.1846 0.9824
vn -0.9872 -0.1597 -0.0000
vn 0.1597 -0.9872 -0.0000
vn 0.9872 0.1597 -0.0000
vn 0.7974 -0.6035 -0.0000
vn 0.0894 0.0145 0.9959
vn 0.0299 -0.1846 -0.9824
vn -0.0894 -0.0145 -0.9959
vn 0.0894 0.0145 -0.9959
vn 0.4119 -0.9112 -0.0000
vn 0.0900 0.0407 0.9951
vn 0.3315 0.9434 -0.0000
vn -0.0839 0.1855 0.9791
vn 0.9112 0.4119 -0.0000
vn -0.4119 0.9112 -0.0000
vn -0.9112 -0.4119 -0.0000
vn -0.9273 0.3743 -0.0000
vn -0.0900 -0.0407 0.9951
vn -0.0839 0.1855 -0.9791
vn 0.0900 0.0407 -0.9951
vn -0.0900 -0.0407 -0.9951
vn 0.0901 0.0407 0.9951
vn -0.0901 -0.0407 0.9951
vn 0.0901 0.0407 -0.9951
vt 0.543359 0.883998
vt 0.543359 0.867610
vt 0.543359 0.883420
vt 0.216640 0.782561
vt 0.216640 0.798371
vt 0.478887 0.885811
vt 0.478887 0.869423
vt 0.478887 0.885233
vt 0.624982 0.886266
vt 0.624982 0.886266
vt 0.624982 0.869878
vt 0.624982 0.885688
vt 0.635399 0.881058
vt 0.635399 0.881058
vt 0.635399 0.864670
vt 0.635399 0.880480
vt 0.234813 0.785253
vt 0.234813 0.801641
vt 0.216640 0.798371
s 0
usemtl Palette
f 15/1/1 12/1/1 16/1/1
f 9/2/2 21/3/2 3/3/2
f 14/2/3 10/1/3 15/1/3
f 16/1/4 2/2/4 13/2/4
f 1/3/5 21/3/5 22/3/5
f 7/2/6 18/2/6 9/2/6
f 3/3/7 4/2/7 9/2/7
f 1/3/7 2/2/7 12/1/7
f 1/3/7 10/1/7 3/3/7
f 5/2/8 2/2/8 11/2/8
f 9/2/8 14/2/8 7/2/8
f 8/3/9 14/2/9 15/1/9
f 6/3/9 13/2/9 5/2/9
f 8/3/9 16/1/9 6/3/9
f 17/4/7 21/5/7 18/4/7
f 19/4/8 18/4/8 20/4/8
f 23/5/9 19/4/9 20/4/9
f 6/3/10 23/3/10 8/3/10
f 7/2/11 23/3/11 20/2/11
f 5/2/12 17/2/12 19/2/12
f 11/2/13 22/3/13 17/2/13
f 5/2/14 24/3/14 6/3/14
f 39/1/15 36/1/15 40/1/15
f 33/2/16 45/3/16 27/3/16
f 38/2/3 34/1/3 39/1/3
f 40/1/4 26/2/4 37/2/4
f 25/3/17 45/3/17 46/3/17
f 31/2/18 42/2/18 33/2/18
f 27/3/19 28/2/19 33/2/19
f 25/3/19 26/2/19 36/1/19
f 27/3/19 36/1/19 34/1/19
f 29/2/20 26/2/20 35/2/20
f 33/2/20 38/2/20 31/2/20
f 32/3/21 38/2/21 39/1/21
f 30/3/21 37/2/21 29/2/21
f 32/3/21 40/1/21 30/3/21
f 41/4/19 45/5/19 42/4/19
f 43/4/20 42/4/20 44/4/20
f 47/5/21 43/4/21 44/4/21
f 30/3/22 47/3/22 32/3/22
f 31/2/23 47/3/23 44/2/23
f 35/2/24 43/2/24 29/2/24
f 35/2/25 46/3/25 41/2/25
f 29/2/26 48/3/26 30/3/26
f 63/6/27 60/6/27 64/6/27
f 57/7/28 69/8/28 51/8/28
f 62/7/3 58/6/3 63/6/3
f 61/7/4 60/6/4 50/7/4
f 49/8/29 69/8/29 70/8/29
f 55/7/30 66/7/30 57/7/30
f 51/8/31 52/7/31 57/7/31
f 49/8/31 50/7/31 60/6/31
f 49/8/31 58/6/31 51/8/31
f 59/7/32 61/7/32 50/7/32
f 57/7/32 62/7/32 55/7/32
f 56/8/33 62/7/33 63/6/33
f 54/8/33 61/7/33 53/7/33
f 56/8/33 64/6/33 54/8/33
f 65/4/31 69/5/31 66/4/31
f 67/4/32 66/4/32 68/4/32
f 71/5/33 67/4/33 68/4/33
f 54/8/34 71/8/34 56/8/34
f 55/7/35 71/8/35 68/7/35
f 59/7/36 67/7/36 53/7/36
f 59/7/37 70/8/37 65/7/37
f 53/7/38 72/8/38 54/8/38
f 87/9/39 84/10/39 88/10/39
f 81/11/40 93/12/40 75/12/40
f 86/11/3 82/9/3 87/9/3
f 85/11/4 84/10/4 74/11/4
f 75/12/41 94/12/41 73/12/41
f 81/11/42 92/11/42 90/11/42
f 75/12/43 76/11/43 81/11/43
f 73/12/43 74/11/43 84/10/43
f 73/12/43 82/9/43 75/12/43
f 77/11/44 74/11/44 83/11/44
f 81/11/44 86/11/44 79/11/44
f 80/12/45 86/11/45 87/9/45
f 78/12/45 85/11/45 77/11/45
f 80/12/45 88/10/45 78/12/45
f 89/4/43 93/5/43 90/4/43
f 91/4/44 90/4/44 92/4/44
f 95/5/45 91/4/45 92/4/45
f 78/12/46 95/12/46 80/12/46
f 79/11/47 95/12/47 92/11/47
f 83/11/48 91/11/48 77/11/48
f 83/11/49 94/12/49 89/11/49
f 77/11/50 96/12/50 78/12/50
f 111/13/51 108/14/51 112/14/51
f 105/15/52 117/16/52 99/16/52
f 110/15/3 106/13/3 111/13/3
f 112/14/4 98/15/4 109/15/4
f 97/16/53 117/16/53 118/16/53
f 103/15/54 114/15/54 105/15/54
f 99/16/55 100/15/55 105/15/55
f 97/16/55 98/15/55 108/14/55
f 97/16/55 106/13/55 99/16/55
f 101/15/56 98/15/56 107/15/56
f 105/15/56 110/15/56 103/15/56
f 104/16/57 110/15/57 111/13/57
f 102/16/57 109/15/57 101/15/57
f 102/16/57 111/13/57 112/14/57
f 113/4/55 117/5/55 114/4/55
f 115/4/56 114/4/56 116/4/56
f 119/5/57 115/4/57 116/4/57
f 102/16/58 119/16/58 104/16/58
f 103/15/59 119/16/59 116/15/59
f 107/15/60 115/15/60 101/15/60
f 107/15/61 118/16/61 113/15/61
f 101/15/62 120/16/62 102/16/62
f 122/17/4 123/18/4 121/17/4
f 124/17/4 126/18/4 125/18/4
f 129/17/4 128/18/4 127/17/4
f 131/17/4 133/18/4 132/18/4
f 134/17/4 136/18/4 135/18/4
f 15/1/1 10/1/1 12/1/1
f 9/2/2 18/2/2 21/3/2
f 14/2/3 4/2/3 10/1/3
f 16/1/4 12/1/4 2/2/4
f 1/3/5 3/3/5 21/3/5
f 7/2/6 20/2/6 18/2/6
f 3/3/7 10/1/7 4/2/7
f 1/3/7 11/2/7 2/2/7
f 1/3/7 12/1/7 10/1/7
f 5/2/8 13/2/8 2/2/8
f 9/2/8 4/2/8 14/2/8
f 8/3/9 7/2/9 14/2/9
f 6/3/9 16/1/9 13/2/9
f 8/3/9 15/1/9 16/1/9
f 17/4/7 22/5/7 21/5/7
f 19/4/8 17/4/8 18/4/8
f 23/5/9 24/19/9 19/4/9
f 6/3/10 24/3/10 23/3/10
f 7/2/11 8/3/11 23/3/11
f 5/2/12 11/2/12 17/2/12
f 11/2/13 1/3/13 22/3/13
f 5/2/14 19/2/14 24/3/14
f 39/1/15 34/1/15 36/1/15
f 33/2/16 42/2/16 45/3/16
f 38/2/3 28/2/3 34/1/3
f 40/1/4 36/1/4 26/2/4
f 25/3/17 27/3/17 45/3/17
f 31/2/18 44/2/18 42/2/18
f 27/3/19 34/1/19 28/2/19
f 25/3/19 35/2/19 26/2/19
f 27/3/19 25/3/19 36/1/19
f 29/2/20 37/2/20 26/2/20
f 33/2/20 28/2/20 38/2/20
f 32/3/21 31/2/21 38/2/21
f 30/3/21 40/1/21 37/2/21
f 32/3/21 39/1/21 40/1/21
f 41/4/19 46/5/19 45/5/19
f 43/4/20 41/4/20 42/4/20
f 47/5/21 48/19/21 43/4/21
f 30/3/22 48/3/22 47/3/22
f 31/2/23 32/3/23 47/3/23
f 35/2/24 41/2/24 43/2/24
f 35/2/25 25/3/25 46/3/25
f 29/2/26 43/2/26 48/3/26
f 63/6/27 58/6/27 60/6/27
f 57/7/28 66/7/28 69/8/28
f 62/7/3 52/7/3 58/6/3
f 61/7/4 64/6/4 60/6/4
f 49/8/29 51/8/29 69/8/29
f 55/7/30 68/7/30 66/7/30
f 51/8/31 58/6/31 52/7/31
f 49/8/31 59/7/31 50/7/31
f 49/8/31 60/6/31 58/6/31
f 59/7/32 53/7/32 61/7/32
f 57/7/32 52/7/32 62/7/32
f 56/8/33 55/7/33 62/7/33
f 54/8/33 64/6/33 61/7/33
f 56/8/33 63/6/33 64/6/33
f 65/4/31 70/5/31 69/5/31
f 67/4/32 65/4/32 66/4/32
f 71/5/33 72/19/33 67/4/33
f 54/8/34 72/8/34 71/8/34
f 55/7/35 56/8/35 71/8/35
f 59/7/36 65/7/36 67/7/36
f 59/7/37 49/8/37 70/8/37
f 53/7/38 67/7/38 72/8/38
f 87/9/39 82/9/39 84/10/39
f 81/11/40 90/11/40 93/12/40
f 86/11/3 76/11/3 82/9/3
f 85/11/4 88/10/4 84/10/4
f 75/12/41 93/12/41 94/12/41
f 81/11/42 79/11/42 92/11/42
f 75/12/43 82/9/43 76/11/43
f 73/12/43 83/11/43 74/11/43
f 73/12/43 84/10/43 82/9/43
f 77/11/44 85/11/44 74/11/44
f 81/11/44 76/11/44 86/11/44
f 80/12/45 79/11/45 86/11/45
f 78/12/45 88/10/45 85/11/45
f 80/12/45 87/9/45 88/10/45
f 89/4/43 94/5/43 93/5/43
f 91/4/44 89/4/44 90/4/44
f 95/5/45 96/19/45 91/4/45
f 78/12/46 96/12/46 95/12/46
f 79/11/47 80/12/47 95/12/47
f 83/11/48 89/11/48 91/11/48
f 83/11/49 73/12/49 94/12/49
f 77/11/50 91/11/50 96/12/50
f 111/13/51 106/13/51 108/14/51
f 105/15/63 114/15/63 117/16/63
f 110/15/3 100/15/3 106/13/3
f 112/14/4 108/14/4 98/15/4
f 97/16/53 99/16/53 117/16/53
f 103/15/54 116/15/54 114/15/54
f 99/16/55 106/13/55 100/15/55
f 97/16/55 107/15/55 98/15/55
f 97/16/55 108/14/55 106/13/55
f 101/15/56 109/15/56 98/15/56
f 105/15/56 100/15/56 110/15/56
f 104/16/57 103/15/57 110/15/57
f 102/16/57 112/14/57 109/15/57
f 102/16/57 104/16/57 111/13/57
f 113/4/55 118/5/55 117/5/55
f 115/4/56 113/4/56 114/4/56
f 119/5/57 120/19/57 115/4/57
f 102/16/58 120/16/58 119/16/58
f 103/15/64 104/16/64 119/16/64
f 107/15/60 113/15/60 115/15/60
f 107/15/65 97/16/65 118/16/65
f 101/15/62 115/15/62 120/16/62
f 129/17/4 130/18/4 128/18/4
