# Blender 5.0.1
# www.blender.org
mtllib Book_Pile_1.mtl
o Book_Pile_1
v 0.163373 -0.012209 0.030287
v 0.067256 0.153123 0.038958
v 0.163373 -0.012209 0.007277
v 0.067256 0.153123 -0.001395
v -0.163513 0.018963 0.030287
v -0.067396 -0.146369 0.030287
v -0.163513 0.018963 0.007277
v -0.067396 -0.146369 0.007277
v 0.067256 0.153123 0.007277
v 0.166889 -0.018255 -0.001395
v 0.067256 0.153123 0.030287
v 0.166889 -0.018255 0.038958
v -0.163513 0.018963 0.038958
v -0.163513 0.018963 -0.001395
v -0.063880 -0.152416 -0.001395
v -0.063880 -0.152416 0.038958
v 0.059210 0.141327 0.029176
v 0.059210 0.141327 0.008387
v -0.149281 0.020118 0.029176
v -0.149281 0.020118 0.008387
v 0.146049 -0.008044 0.008387
v 0.146049 -0.008044 0.029176
v -0.062443 -0.129253 0.008387
v -0.062443 -0.129253 0.029176
v 0.160267 0.038532 0.070527
v 0.018163 0.166515 0.079198
v 0.160267 0.038532 0.047517
v 0.018163 0.166515 0.038846
v -0.160475 -0.031832 0.070527
v -0.018371 -0.159816 0.070527
v -0.160475 -0.031832 0.047517
v -0.018371 -0.159816 0.047517
v 0.018163 0.166515 0.047517
v 0.165464 0.033851 0.038846
v 0.018163 0.166515 0.070527
v 0.165464 0.033851 0.079198
v -0.160475 -0.031832 0.079198
v -0.160475 -0.031832 0.038846
v -0.013174 -0.164496 0.038846
v -0.013174 -0.164496 0.079198
v 0.014113 0.152823 0.069416
v 0.014113 0.152823 0.048627
v -0.147280 -0.026377 0.069416
v -0.147280 -0.026377 0.048627
v 0.142499 0.037195 0.048627
v 0.142499 0.037195 0.069416
v -0.018894 -0.142005 0.048627
v -0.018894 -0.142005 0.069416
v 0.052388 -0.125888 0.116546
v 0.086184 0.030285 0.126555
v 0.052388 -0.125888 0.089986
v 0.086184 0.030285 0.079977
v -0.131801 0.077456 0.116546
v -0.165597 -0.078717 0.116546
v -0.131801 0.077456 0.089986
v -0.165597 -0.078717 0.089986
v 0.086184 0.030285 0.089986
v 0.051152 -0.131600 0.079977
v 0.086184 0.030285 0.116546
v 0.051152 -0.131600 0.126555
v -0.131801 0.077456 0.126555
v -0.131801 0.077456 0.079977
v -0.166833 -0.084428 0.079977
v -0.166833 -0.084428 0.126555
v 0.074575 0.027536 0.115264
v 0.074575 0.027536 0.091268
v -0.122367 0.070154 0.115264
v -0.122367 0.070154 0.091268
v 0.044042 -0.113561 0.091268
v 0.044042 -0.113561 0.115264
v -0.152900 -0.070943 0.091268
v -0.152900 -0.070943 0.115264
v -0.208227 0.017886 0.157664
v -0.180060 -0.156201 0.166100
v -0.208227 0.017886 0.135278
v -0.180060 -0.156201 0.126843
v 0.062929 -0.116885 0.157664
v 0.034762 0.057202 0.157664
v 0.062929 -0.116885 0.135278
v 0.034762 0.057202 0.135278
v -0.180060 -0.156201 0.135278
v -0.209257 0.024253 0.126843
v -0.180060 -0.156201 0.157664
v -0.209257 0.024253 0.166100
v 0.062929 -0.116885 0.166100
v 0.062929 -0.116885 0.126843
v 0.033732 0.063568 0.126843
v 0.033732 0.063568 0.166100
v -0.169238 -0.148701 0.156583
v -0.169238 -0.148701 0.136359
v 0.050294 -0.113181 0.156583
v 0.050294 -0.113181 0.136359
v -0.194686 0.008580 0.136359
v -0.194686 0.008580 0.156583
v 0.024846 0.044100 0.136359
v 0.024846 0.044100 0.156583
v 0.075880 -0.076564 0.198603
v 0.007497 0.074697 0.207274
v 0.075880 -0.076564 0.175593
v 0.007497 0.074697 0.166922
v -0.203631 -0.020751 0.198603
v -0.135249 -0.172012 0.198603
v -0.203631 -0.020751 0.175593
v -0.135249 -0.172012 0.175593
v 0.007497 0.074697 0.175593
v 0.078381 -0.082096 0.166922
v 0.007497 0.074697 0.198603
v 0.078381 -0.082096 0.207274
v -0.203631 -0.020751 0.207274
v -0.203631 -0.020751 0.166922
v -0.132748 -0.177544 0.166922
v -0.132748 -0.177544 0.207274
v -0.000493 0.065222 0.197492
v -0.000493 0.065222 0.176703
v -0.191240 -0.021012 0.197492
v -0.191240 -0.021012 0.176703
v 0.061288 -0.071436 0.176703
v 0.061288 -0.071436 0.197492
v -0.129459 -0.157670 0.176703
v -0.129459 -0.157670 0.197492
v -0.006230 0.055217 0.182983
v -0.173366 0.041921 0.182983
v -0.163492 -0.082201 0.182983
v 0.035230 -0.053631 0.142784
v -0.000934 -0.172778 0.142784
v -0.161371 -0.124081 0.142784
v 0.071987 0.029642 0.059971
v -0.017798 -0.047458 0.059971
v -0.031833 0.150542 0.059971
v -0.121618 0.073442 0.059971
v -0.026733 -0.123572 0.059260
v -0.107977 -0.139530 0.059260
v -0.129466 -0.030131 0.059260
v 0.039966 0.021448 0.097686
v 0.106645 -0.029764 0.097686
v 0.033365 -0.116347 0.097686
vn 0.5026 -0.8645 -0.0000
vn 0.0742 0.0432 0.9963
vn -0.0000 -0.0000 -1.0000
vn -0.0000 -0.0000 1.0000
vn 0.2337 0.9723 -0.0000
vn -0.0893 0.1535 0.9841
vn 0.8645 0.5026 -0.0000
vn -0.5026 0.8645 -0.0000
vn -0.8645 -0.5026 -0.0000
vn -0.9606 0.2780 -0.0000
vn -0.0742 -0.0432 0.9963
vn -0.0893 0.1535 -0.9841
vn 0.0742 0.0432 -0.9963
vn -0.0742 -0.0432 -0.9963
vn 0.7431 -0.6692 -0.0000
vn 0.0575 0.0638 0.9963
vn -0.0750 0.9972 -0.0000
vn -0.1320 0.1189 0.9841
vn 0.6692 0.7431 -0.0000
vn -0.7431 0.6692 -0.0000
vn -0.6692 -0.7431 -0.0000
vn -0.9996 -0.0293 -0.0000
vn -0.0575 -0.0638 0.9963
vn -0.1320 0.1189 -0.9841
vn 0.0575 0.0638 -0.9963
vn -0.0575 -0.0638 -0.9963
vn -0.2115 -0.9774 -0.0000
vn 0.1156 -0.0250 0.9930
vn 0.8281 0.5606 -0.0000
vn 0.0512 0.2365 0.9703
vn 0.9774 -0.2115 -0.0000
vn 0.2115 0.9774 -0.0000
vn -0.9774 0.2115 -0.0000
vn -0.5222 0.8528 -0.0000
vn -0.1156 0.0250 0.9930
vn 0.0512 0.2365 -0.9703
vn 0.1156 -0.0250 -0.9930
vn -0.1156 0.0250 -0.9930
vn -0.1597 0.9872 -0.0000
vn -0.0894 -0.0145 0.9959
vn -0.5664 -0.8241 -0.0000
vn 0.0299 -0.1846 0.9824
vn -0.9872 -0.1597 -0.0000
vn 0.1597 -0.9872 -0.0000
vn 0.9872 0.1597 -0.0000
vn 0.7974 -0.6035 -0.0000
vn 0.0894 0.0145 0.9959
vn 0.0299 -0.1846 -0.9824
vn -0.0894 -0.0145 -0.9959
vn 0.0894 0.0145 -0.9959
vn 0.4119 -0.9112 -0.0000
vn 0.0900 0.0407 0.9951
vn 0.3315 0.9434 -0.0000
vn -0.0839 0.1855 0.9791
vn 0.9112 0.4119 -0.0000
vn -0.4119 0.9112 -0.0000
vn -0.9112 -0.4119 -0.0000
vn -0.9273 0.3743 -0.0000
vn -0.0900 -0.0407 0.9951
vn -0.0839 0.1855 -0.9791
vn 0.0900 0.0407 -0.9951
vn -0.0900 -0.0407 -0.9951
vn 0.0901 0.0407 0.9951
vn -0.0901 -0.0407 0.9951
vn 0.0901 0.0407 -0.9951
vt 0.543359 0.883998
vt 0.543359 0.867610
vt 0.543359 0.883420
vt 0.216640 0.782561
vt 0.216640 0.798371
vt 0.624088 0.886602
vt 0.624088 0.886602
vt 0.624088 0.870214
vt 0.624088 0.886024
vt 0.234813 0.785253
vt 0.234813 0.801641
vt 0.216640 0.798371
s 0
usemtl Palette
f 15/1/1 12/1/1 16/1/1
f 9/2/2 21/3/2 3/3/2
f 14/2/3 10/1/3 15/1/3
f 16/1/4 2/2/4 13/2/4
f 1/3/5 21/3/5 22/3/5
f 7/2/6 18/2/6 9/2/6
f 3/3/7 4/2/7 9/2/7
f 1/3/7 2/2/7 12/1/7
f 1/3/7 10/1/7 3/3/7
f 5/2/8 2/2/8 11/2/8
f 9/2/8 14/2/8 7/2/8
f 8/3/9 14/2/9 15/1/9
f 6/3/9 13/2/9 5/2/9
f 8/3/9 16/1/9 6/3/9
f 17/4/7 21/5/7 18/4/7
f 19/4/8 18/4/8 20/4/8
f 23/5/9 19/4/9 20/4/9
f 6/3/10 23/3/10 8/3/10
f 7/2/11 23/3/11 20/2/11
f 5/2/12 17/2/12 19/2/12
f 11/2/13 22/3/13 17/2/13
f 5/2/14 24/3/14 6/3/14
f 39/6/15 36/7/15 40/7/15
f 33/8/16 45/9/16 27/9/16
f 38/8/3 34/6/3 39/6/3
f 40/7/4 26/8/4 37/8/4
f 25/9/17 45/9/17 46/9/17
f 31/8/18 42/8/18 33/8/18
f 27/9/19 28/8/19 33/8/19
f 25/9/19 26/8/19 36/7/19
f 27/9/19 36/7/19 34/6/19
f 29/8/20 26/8/20 35/8/20
f 33/8/20 38/8/20 31/8/20
f 32/9/21 38/8/21 39/6/21
f 30/9/21 37/8/21 29/8/21
f 32/9/21 40/7/21 30/9/21
f 41/4/19 45/5/19 42/4/19
f 43/4/20 42/4/20 44/4/20
f 47/5/21 43/4/21 44/4/21
f 30/9/22 47/9/22 32/9/22
f 31/8/23 47/9/23 44/8/23
f 35/8/24 43/8/24 29/8/24
f 35/8/25 46/9/25 41/8/25
f 29/8/26 48/9/26 30/9/26
f 63/1/27 60/1/27 64/1/27
f 57/2/28 69/3/28 51/3/28
f 62/2/3 58/1/3 63/1/3
f 61/2/4 60/1/4 50/2/4
f 49/3/29 69/3/29 70/3/29
f 55/2/30 66/2/30 57/2/30
f 51/3/31 52/2/31 57/2/31
f 49/3/31 50/2/31 60/1/31
f 49/3/31 58/1/31 51/3/31
f 59/2/32 61/2/32 50/2/32
f 57/2/32 62/2/32 55/2/32
f 56/3/33 62/2/33 63/1/33
f 54/3/33 61/2/33 53/2/33
f 56/3/33 64/1/33 54/3/33
f 65/4/31 69/5/31 66/4/31
f 67/4/32 66/4/32 68/4/32
f 71/5/33 67/4/33 68/4/33
f 54/3/34 71/3/34 56/3/34
f 55/2/35 71/3/35 68/2/35
f 59/2/36 67/2/36 53/2/36
f 59/2/37 70/3/37 65/2/37
f 53/2/38 72/3/38 54/3/38
f 87/1/39 84/1/39 88/1/39
f 81/2/40 93/3/40 75/3/40
f 86/2/3 82/1/3 87/1/3
f 85/2/4 84/1/4 74/2/4
f 75/3/41 94/3/41 73/3/41
f 81/2/42 92/2/42 90/2/42
f 75/3/43 76/2/43 81/2/43
f 73/3/43 74/2/43 84/1/43
f 73/3/43 82/1/43 75/3/43
f 77/2/44 74/2/44 83/2/44
f 81/2/44 86/2/44 79/2/44
f 80/3/45 86/2/45 87/1/45
f 78/3/45 85/2/45 77/2/45
f 80/3/45 88/1/45 78/3/45
f 89/4/43 93/5/43 90/4/43
f 91/4/44 90/4/44 92/4/44
f 95/5/45 91/4/45 92/4/45
f 78/3/46 95/3/46 80/3/46
f 79/2/47 95/3/47 92/2/47
f 83/2/48 91/2/48 77/2/48
f 83/2/49 94/3/49 89/2/49
f 77/2/50 96/3/50 78/3/50
f 111/1/51 108/1/51 112/1/51
f 105/2/52 117/3/52 99/3/52
f 110/2/3 106/1/3 111/1/3
f 112/1/4 98/2/4 109/2/4
f 97/3/53 117/3/53 118/3/53
f 103/2/54 114/2/54 105/2/54
f 99/3/55 100/2/55 105/2/55
f 97/3/55 98/2/55 108/1/55
f 97/3/55 106/1/55 99/3/55
f 101/2/56 98/2/56 107/2/56
f 105/2/56 110/2/56 103/2/56
f 104/3/57 110/2/57 111/1/57
f 102/3/57 109/2/57 101/2/57
f 102/3/57 111/1/57 112/1/57
f 113/4/55 117/5/55 114/4/55
f 115/4/56 114/4/56 116/4/56
f 119/5/57 115/4/57 116/4/57
f 102/3/58 119/3/58 104/3/58
f 103/2/59 119/3/59 116/2/59
f 107/2/60 115/2/60 101/2/60
f 107/2/61 118/3/61 113/2/61
f 101/2/62 120/3/62 102/3/62
f 122/10/4 123/11/4 121/10/4
f 124/10/4 126/11/4 125/11/4
f 129/10/4 128/11/4 127/10/4
f 131/10/4 133/11/4 132/11/4
f 134/10/4 136/11/4 135/11/4
f 15/1/1 10/1/1 12/1/1
f 9/2/2 18/2/2 21/3/2
f 14/2/3 4/2/3 10/1/3
f 16/1/4 12/1/4 2/2/4
f 1/3/5 3/3/5 21/3/5
f 7/2/6 20/2/6 18/2/6
f 3/3/7 10/1/7 4/2/7
f 1/3/7 11/2/7 2/2/7
f 1/3/7 12/1/7 10/1/7
f 5/2/8 13/2/8 2/2/8
f 9/2/8 4/2/8 14/2/8
f 8/3/9 7/2/9 14/2/9
f 6/3/9 16/1/9 13/2/9
f 8/3/9 15/1/9 16/1/9
f 17/4/7 22/5/7 21/5/7
f 19/4/8 17/4/8 18/4/8
f 23/5/9 24/12/9 19/4/9
f 6/3/10 24/3/10 23/3/10
f 7/2/11 8/3/11 23/3/11
f 5/2/12 11/2/12 17/2/12
f 11/2/13 1/3/13 22/3/13
f 5/2/14 19/2/14 24/3/14
f 39/6/15 34/6/15 36/7/15
f 33/8/16 42/8/16 45/9/16
f 38/8/3 28/8/3 34/6/3
f 40/7/4 36/7/4 26/8/4
f 25/9/17 27/9/17 45/9/17
f 31/8/18 44/8/18 42/8/18
f 27/9/19 34/6/19 28/8/19
f 25/9/19 35/8/19 26/8/19
f 27/9/19 25/9/19 36/7/19
f 29/8/20 37/8/20 26/8/20
f 33/8/20 28/8/20 38/8/20
f 32/9/21 31/8/21 38/8/21
f 30/9/21 40/7/21 37/8/21
f 32/9/21 39/6/21 40/7/21
f 41/4/19 46/5/19 45/5/19
f 43/4/20 41/4/20 42/4/20
f 47/5/21 48/12/21 43/4/21
f 30/9/22 48/9/22 47/9/22
f 31/8/23 32/9/23 47/9/23
f 35/8/24 41/8/24 43/8/24
f 35/8/25 25/9/25 46/9/25
f 29/8/26 43/8/26 48/9/26
f 63/1/27 58/1/27 60/1/27
f 57/2/28 66/2/28 69/3/28
f 62/2/3 52/2/3 58/1/3
f 61/2/4 64/1/4 60/1/4
f 49/3/29 51/3/29 69/3/29
f 55/2/30 68/2/30 66/2/30
f 51/3/31 58/1/31 52/2/31
f 49/3/31 59/2/31 50/2/31
f 49/3/31 60/1/31 58/1/31
f 59/2/32 53/2/32 61/2/32
f 57/2/32 52/2/32 62/2/32
f 56/3/33 55/2/33 62/2/33
f 54/3/33 64/1/33 61/2/33
f 56/3/33 63/1/33 64/1/33
f 65/4/31 70/5/31 69/5/31
f 67/4/32 65/4/32 66/4/32
f 71/5/33 72/12/33 67/4/33
f 54/3/34 72/3/34 71/3/34
f 55/2/35 56/3/35 71/3/35
f 59/2/36 65/2/36 67/2/36
f 59/2/37 49/3/37 70/3/37
f 53/2/38 67/2/38 72/3/38
f 87/1/39 82/1/39 84/1/39
f 81/2/40 90/2/40 93/3/40
f 86/2/3 76/2/3 82/1/3
f 85/2/4 88/1/4 84/1/4
f 75/3/41 93/3/41 94/3/41
f 81/2/42 79/2/42 92/2/42
f 75/3/43 82/1/43 76/2/43
f 73/3/43 83/2/43 74/2/43
f 73/3/43 84/1/43 82/1/43
f 77/2/44 85/2/44 74/2/44
f 81/2/44 76/2/44 86/2/44
f 80/3/45 79/2/45 86/2/45
f 78/3/45 88/1/45 85/2/45
f 80/3/45 87/1/45 88/1/45
f 89/4/43 94/5/43 93/5/43
f 91/4/44 89/4/44 90/4/44
f 95/5/45 96/12/45 91/4/45
f 78/3/46 96/3/46 95/3/46
f 79/2/47 80/3/47 95/3/47
f 83/2/48 89/2/48 91/2/48
f 83/2/49 73/3/49 94/3/49
f 77/2/50 91/2/50 96/3/50
f 111/1/51 106/1/51 108/1/51
f 105/2/63 114/2/63 117/3/63
f 110/2/3 100/2/3 106/1/3
f 112/1/4 108/1/4 98/2/4
f 97/3/53 99/3/53 117/3/53
f 103/2/54 116/2/54 114/2/54
f 99/3/55 106/1/55 100/2/55
f 97/3/55 107/2/55 98/2/55
f 97/3/55 108/1/55 106/1/55
f 101/2/56 109/2/56 98/2/56
f 105/2/56 100/2/56 110/2/56
f 104/3/57 103/2/57 110/2/57
f 102/3/57 112/1/57 109/2/57
f 102/3/57 104/3/57 111/1/57
f 113/4/55 118/5/55 117/5/55
f 115/4/56 113/4/56 114/4/56
f 119/5/57 120/12/57 115/4/57
f 102/3/58 120/3/58 119/3/58
f 103/2/64 104/3/64 119/3/64
f 107/2/60 113/2/60 115/2/60
f 107/2/65 97/3/65 118/3/65
f 101/2/62 115/2/62 120/3/62
f 129/10/4 130/11/4 128/11/4
