# Blender 5.0.1
# www.blender.org
mtllib Book_Pile_2.mtl
o Book_Pile_2
v 0.126199 -0.110948 0.030287
v 0.139163 0.079853 0.038958
v 0.126199 -0.110948 0.007277
v 0.139163 0.079853 -0.001395
v -0.127156 0.097948 0.030287
v -0.140120 -0.092854 0.030287
v -0.127156 0.097948 0.007277
v -0.140120 -0.092854 0.007277
v 0.139163 0.079853 0.007277
v 0.125725 -0.117926 -0.001395
v 0.139163 0.079853 0.030287
v 0.125725 -0.117926 0.038958
v -0.127156 0.097948 0.038958
v -0.127156 0.097948 -0.001395
v -0.140594 -0.099832 -0.001395
v -0.140594 -0.099832 0.038958
v 0.125891 0.074587 0.029176
v 0.125891 0.074587 0.008387
v -0.114719 0.090934 0.029176
v -0.114719 0.090934 0.008387
v 0.114179 -0.097795 0.008387
v 0.114179 -0.097795 0.029176
v -0.126431 -0.081447 0.008387
v -0.126431 -0.081447 0.029176
v 0.110981 -0.138652 0.070527
v 0.160375 0.046100 0.079198
v 0.110981 -0.138652 0.047517
v 0.160375 0.046100 0.038846
v -0.097501 0.115044 0.070527
v -0.146895 -0.069708 0.070527
v -0.097501 0.115044 0.047517
v -0.146895 -0.069708 0.047517
v 0.160375 0.046100 0.047517
v 0.109174 -0.145409 0.038846
v 0.160375 0.046100 0.070527
v 0.109174 -0.145409 0.079198
v -0.097501 0.115044 0.079198
v -0.097501 0.115044 0.038846
v -0.148701 -0.076465 0.038846
v -0.148701 -0.076465 0.079198
v 0.146338 0.043483 0.069416
v 0.146338 0.043483 0.048627
v -0.086643 0.105771 0.069416
v -0.086643 0.105771 0.048627
v 0.101713 -0.123434 0.048627
v 0.101713 -0.123434 0.069416
v -0.131269 -0.061146 0.048627
v -0.131269 -0.061146 0.069416
v -0.117614 0.076366 0.116546
v -0.128877 -0.103177 0.126555
v -0.117614 0.076366 0.089986
v -0.128877 -0.103177 0.079977
v 0.121728 -0.118897 0.116546
v 0.132991 0.060646 0.116546
v 0.121728 -0.118897 0.089986
v 0.132991 0.060646 0.089986
v -0.128877 -0.103177 0.089986
v -0.117202 0.082933 0.079977
v -0.128877 -0.103177 0.116546
v -0.117202 0.082933 0.126555
v 0.121728 -0.118897 0.126555
v 0.121728 -0.118897 0.079977
v 0.133403 0.067212 0.079977
v 0.133403 0.067212 0.126555
v -0.116418 -0.098158 0.115264
v -0.116418 -0.098158 0.091268
v 0.109994 -0.112361 0.115264
v 0.109994 -0.112361 0.091268
v -0.106243 0.064053 0.091268
v -0.106243 0.064053 0.115264
v 0.120170 0.049850 0.091268
v 0.120170 0.049850 0.115264
v -0.077620 0.082097 0.157664
v -0.128438 -0.061080 0.166100
v -0.077620 0.082097 0.135278
v -0.128438 -0.061080 0.126843
v 0.071408 -0.132012 0.157664
v 0.122226 0.011165 0.157664
v 0.071408 -0.132012 0.135278
v 0.122226 0.011165 0.135278
v -0.128438 -0.061080 0.135278
v -0.075761 0.087333 0.126843
v -0.128438 -0.061080 0.157664
v -0.075761 0.087333 0.166100
v 0.071408 -0.132012 0.166100
v 0.071408 -0.132012 0.126843
v 0.124084 0.016401 0.126843
v 0.124084 0.016401 0.166100
v -0.117156 -0.059897 0.156583
v -0.117156 -0.059897 0.136359
v 0.063397 -0.123981 0.156583
v 0.063397 -0.123981 0.136359
v -0.071244 0.069458 0.136359
v -0.071244 0.069458 0.156583
v 0.109309 0.005374 0.136359
v 0.109309 0.005374 0.156583
v 0.111848 -0.097524 0.202148
v 0.124440 0.053789 0.211951
v 0.111848 -0.097524 0.176132
v 0.124440 0.053789 0.166328
v -0.086763 0.071365 0.202148
v -0.099355 -0.079949 0.202148
v -0.086763 0.071365 0.176132
v -0.099355 -0.079949 0.176132
v 0.124440 0.053789 0.176132
v 0.111387 -0.103058 0.166328
v 0.124440 0.053789 0.202148
v 0.111387 -0.103058 0.211951
v -0.086763 0.071365 0.211951
v -0.086763 0.071365 0.166328
v -0.099815 -0.085482 0.166328
v -0.099815 -0.085482 0.211951
v 0.113840 0.049769 0.200892
v 0.113840 0.049769 0.177388
v -0.076974 0.065648 0.200892
v -0.076974 0.065648 0.177388
v 0.102464 -0.086938 0.177388
v 0.102464 -0.086938 0.200892
v -0.088350 -0.071059 0.177388
v -0.088350 -0.071059 0.200892
v 0.104806 0.044322 0.184487
v -0.034705 0.108006 0.184487
v -0.081999 0.004399 0.184487
v 0.081032 -0.002787 0.147576
v 0.097370 -0.127451 0.147576
v 0.151234 -0.075316 0.147576
v 0.078066 -0.059121 0.057500
v -0.030208 -0.011344 0.057500
v 0.142399 0.086675 0.057500
v 0.034125 0.134452 0.057500
v -0.137791 -0.055216 0.059260
v -0.163518 -0.022466 0.059260
v -0.119419 0.012177 0.059260
v -0.078922 -0.085541 0.097686
v -0.161786 -0.039788 0.097686
v -0.094829 0.068956 0.097686
v 0.027168 -0.054921 0.147576
v -0.095493 0.003160 0.240720
v -0.061733 -0.118570 0.248184
v -0.095493 0.003160 0.220911
v -0.061733 -0.118570 0.213446
v 0.108177 -0.071449 0.240720
v 0.074418 0.050282 0.240720
v 0.108177 -0.071449 0.220911
v 0.074418 0.050282 0.220911
v -0.061733 -0.118570 0.220911
v -0.096727 0.007612 0.213446
v -0.061733 -0.118570 0.240720
v -0.096727 0.007612 0.248184
v 0.108177 -0.071449 0.248184
v 0.108177 -0.071449 0.213446
v 0.073183 0.054734 0.213446
v 0.073183 0.054734 0.248184
v -0.054618 -0.112378 0.239764
v -0.054618 -0.112378 0.221867
v 0.098889 -0.069806 0.239764
v 0.098889 -0.069806 0.221867
v -0.085119 -0.002399 0.221867
v -0.085119 -0.002399 0.239764
v 0.068389 0.040173 0.221867
v 0.068389 0.040173 0.239764
v -0.109430 -0.017615 0.232012
v 0.004065 -0.057785 0.232012
v -0.017051 0.010819 0.232012
v -0.088313 -0.086219 0.232012
vn -0.0678 -0.9977 -0.0000
vn 0.0857 -0.0058 0.9963
vn -0.0000 -0.0000 -1.0000
vn -0.0000 -0.0000 1.0000
vn 0.7382 0.6746 -0.0000
vn 0.0120 0.1772 0.9841
vn 0.9977 -0.0678 -0.0000
vn 0.0678 0.9977 -0.0000
vn -0.9977 0.0678 -0.0000
vn -0.6401 0.7683 -0.0000
vn -0.0857 0.0058 0.9963
vn 0.0120 0.1772 -0.9841
vn 0.0857 -0.0058 -0.9963
vn -0.0857 0.0058 -0.9963
vn -0.2583 -0.9661 -0.0000
vn 0.0830 -0.0222 0.9963
vn 0.8541 0.5202 -0.0000
vn 0.0459 0.1716 0.9841
vn 0.9661 -0.2583 -0.0000
vn 0.2583 0.9661 -0.0000
vn -0.9661 0.2583 -0.0000
vn -0.4805 0.8770 -0.0000
vn -0.0830 0.0222 0.9963
vn 0.0459 0.1716 -0.9841
vn 0.0830 -0.0222 -0.9963
vn -0.0830 0.0222 -0.9963
vn 0.0626 0.9980 -0.0000
vn -0.1050 0.0066 0.9945
vn -0.7347 -0.6784 -0.0000
vn -0.0135 -0.2158 0.9763
vn -0.9980 0.0626 -0.0000
vn -0.0626 -0.9980 -0.0000
vn 0.9980 -0.0626 -0.0000
vn 0.6441 -0.7649 -0.0000
vn 0.1050 -0.0066 0.9945
vn -0.0135 -0.2158 -0.9763
vn -0.1050 0.0066 -0.9945
vn 0.1050 -0.0066 -0.9945
vn 0.3345 0.9424 -0.0000
vn -0.0989 0.0351 0.9945
vn -0.8928 -0.4504 -0.0000
vn -0.0722 -0.2034 0.9764
vn -0.9424 0.3345 -0.0000
vn -0.3345 -0.9424 -0.0000
vn 0.9424 -0.3345 -0.0000
vn 0.4091 -0.9125 -0.0000
vn 0.0989 -0.0351 0.9945
vn -0.0722 -0.2034 -0.9764
vn -0.0989 0.0351 -0.9945
vn 0.0989 -0.0351 -0.9945
vn -0.0829 -0.9966 -0.0000
vn 0.1214 -0.0101 0.9925
vn 0.7483 0.6633 -0.0000
vn 0.0206 0.2481 0.9685
vn 0.9966 -0.0829 -0.0000
vn 0.0829 0.9966 -0.0000
vn -0.9966 0.0829 -0.0000
vn -0.6284 0.7779 -0.0000
vn -0.1214 0.0101 0.9925
vn 0.0206 0.2481 -0.9685
vn 0.1214 -0.0101 -0.9925
vn -0.1214 0.0101 -0.9925
vn -0.2672 0.9636 -0.0000
vn -0.1076 -0.0298 0.9937
vn -0.4724 -0.8814 -0.0000
vn 0.0612 -0.2206 0.9734
vn -0.9636 -0.2672 -0.0000
vn 0.2672 -0.9636 -0.0000
vn 0.9636 0.2672 -0.0000
vn 0.8589 -0.5122 -0.0000
vn 0.1076 0.0298 0.9937
vn 0.0612 -0.2206 -0.9734
vn -0.1076 -0.0298 -0.9937
vn 0.1076 0.0298 -0.9937
vt 0.624088 0.886602
vt 0.624088 0.886602
vt 0.624088 0.870214
vt 0.624088 0.886024
vt 0.216640 0.782561
vt 0.216640 0.798371
vt 0.543359 0.883998
vt 0.543359 0.867610
vt 0.543359 0.883420
vt 0.234813 0.785253
vt 0.234813 0.801641
vt 0.208771 0.819870
vt 0.208771 0.803482
vt 0.216640 0.798371
s 0
usemtl Palette
f 15/1/1 12/2/1 16/2/1
f 9/3/2 21/4/2 3/4/2
f 14/3/3 10/1/3 15/1/3
f 16/2/4 2/3/4 13/3/4
f 1/4/5 21/4/5 22/4/5
f 7/3/6 18/3/6 9/3/6
f 3/4/7 4/3/7 9/3/7
f 1/4/7 2/3/7 12/2/7
f 3/4/7 12/2/7 10/1/7
f 5/3/8 2/3/8 11/3/8
f 9/3/8 14/3/8 7/3/8
f 8/4/9 14/3/9 15/1/9
f 6/4/9 13/3/9 5/3/9
f 8/4/9 16/2/9 6/4/9
f 17/5/7 21/6/7 18/5/7
f 19/5/8 18/5/8 20/5/8
f 23/6/9 19/5/9 20/5/9
f 8/4/10 24/4/10 23/4/10
f 7/3/11 23/4/11 20/3/11
f 5/3/12 17/3/12 19/3/12
f 11/3/13 22/4/13 17/3/13
f 5/3/14 24/4/14 6/4/14
f 39/7/15 36/7/15 40/7/15
f 33/8/16 45/9/16 27/9/16
f 38/8/3 34/7/3 39/7/3
f 40/7/4 26/8/4 37/8/4
f 25/9/17 45/9/17 46/9/17
f 31/8/18 42/8/18 33/8/18
f 27/9/19 28/8/19 33/8/19
f 25/9/19 26/8/19 36/7/19
f 27/9/19 36/7/19 34/7/19
f 29/8/20 26/8/20 35/8/20
f 33/8/20 38/8/20 31/8/20
f 32/9/21 38/8/21 39/7/21
f 30/9/21 37/8/21 29/8/21
f 32/9/21 40/7/21 30/9/21
f 41/5/19 45/6/19 42/5/19
f 43/5/20 42/5/20 44/5/20
f 47/6/21 43/5/21 44/5/21
f 30/9/22 47/9/22 32/9/22
f 31/8/23 47/9/23 44/8/23
f 29/8/24 41/8/24 43/8/24
f 35/8/25 46/9/25 41/8/25
f 29/8/26 48/9/26 30/9/26
f 63/7/27 60/7/27 64/7/27
f 57/8/28 69/9/28 51/9/28
f 62/8/3 58/7/3 63/7/3
f 61/8/4 60/7/4 50/8/4
f 49/9/29 69/9/29 70/9/29
f 55/8/30 66/8/30 57/8/30
f 51/9/31 52/8/31 57/8/31
f 49/9/31 50/8/31 60/7/31
f 49/9/31 58/7/31 51/9/31
f 53/8/32 50/8/32 59/8/32
f 57/8/32 62/8/32 55/8/32
f 56/9/33 62/8/33 63/7/33
f 54/9/33 61/8/33 53/8/33
f 56/9/33 64/7/33 54/9/33
f 65/5/31 69/6/31 66/5/31
f 67/5/32 66/5/32 68/5/32
f 71/6/33 67/5/33 68/5/33
f 54/9/34 71/9/34 56/9/34
f 55/8/35 71/9/35 68/8/35
f 59/8/36 67/8/36 53/8/36
f 59/8/37 70/9/37 65/8/37
f 53/8/38 72/9/38 54/9/38
f 87/7/39 84/7/39 88/7/39
f 81/8/40 93/9/40 75/9/40
f 86/8/3 82/7/3 87/7/3
f 88/7/4 74/8/4 85/8/4
f 75/9/41 94/9/41 73/9/41
f 79/8/42 90/8/42 81/8/42
f 75/9/43 76/8/43 81/8/43
f 73/9/43 74/8/43 84/7/43
f 73/9/43 82/7/43 75/9/43
f 77/8/44 74/8/44 83/8/44
f 81/8/44 86/8/44 79/8/44
f 80/9/45 86/8/45 87/7/45
f 78/9/45 85/8/45 77/8/45
f 80/9/45 88/7/45 78/9/45
f 89/5/43 93/6/43 90/5/43
f 91/5/44 90/5/44 92/5/44
f 95/6/45 91/5/45 92/5/45
f 78/9/46 95/9/46 80/9/46
f 79/8/47 95/9/47 92/8/47
f 83/8/48 91/8/48 77/8/48
f 83/8/49 94/9/49 89/8/49
f 77/8/50 96/9/50 78/9/50
f 111/1/51 108/2/51 112/2/51
f 105/3/52 117/4/52 99/4/52
f 111/1/3 100/3/3 106/1/3
f 112/2/4 98/3/4 109/3/4
f 97/4/53 117/4/53 118/4/53
f 105/3/54 116/3/54 114/3/54
f 99/4/55 100/3/55 105/3/55
f 97/4/55 98/3/55 108/2/55
f 97/4/55 106/1/55 99/4/55
f 101/3/56 98/3/56 107/3/56
f 105/3/56 110/3/56 103/3/56
f 104/4/57 110/3/57 111/1/57
f 102/4/57 109/3/57 101/3/57
f 102/4/57 111/1/57 112/2/57
f 113/5/55 117/6/55 114/5/55
f 115/5/56 114/5/56 116/5/56
f 119/6/57 115/5/57 116/5/57
f 102/4/58 119/4/58 104/4/58
f 103/3/59 119/4/59 116/3/59
f 107/3/60 115/3/60 101/3/60
f 107/3/61 118/4/61 113/3/61
f 101/3/62 120/4/62 102/4/62
f 122/10/4 123/11/4 121/10/4
f 137/12/4 126/13/4 124/13/4
f 129/10/4 128/11/4 127/10/4
f 131/10/4 133/11/4 132/11/4
f 134/10/4 136/11/4 135/11/4
f 152/7/63 149/7/63 153/7/63
f 146/8/64 158/9/64 140/9/64
f 151/8/3 147/7/3 152/7/3
f 153/7/4 139/8/4 150/8/4
f 140/9/65 159/9/65 138/9/65
f 144/8/66 155/8/66 146/8/66
f 140/9/67 141/8/67 146/8/67
f 138/9/67 139/8/67 149/7/67
f 138/9/67 147/7/67 140/9/67
f 142/8/68 139/8/68 148/8/68
f 146/8/68 151/8/68 144/8/68
f 145/9/69 151/8/69 152/7/69
f 143/9/69 150/8/69 142/8/69
f 145/9/69 153/7/69 143/9/69
f 154/5/67 158/6/67 155/5/67
f 156/5/68 155/5/68 157/5/68
f 160/6/69 156/5/69 157/5/69
f 145/9/70 161/9/70 160/9/70
f 144/8/71 160/9/71 157/8/71
f 142/8/72 154/8/72 156/8/72
f 148/8/73 159/9/73 154/8/73
f 142/8/74 161/9/74 143/9/74
f 165/12/4 164/13/4 162/13/4
f 15/1/1 10/1/1 12/2/1
f 9/3/2 18/3/2 21/4/2
f 14/3/3 4/3/3 10/1/3
f 16/2/4 12/2/4 2/3/4
f 1/4/5 3/4/5 21/4/5
f 7/3/6 20/3/6 18/3/6
f 3/4/7 10/1/7 4/3/7
f 1/4/7 11/3/7 2/3/7
f 3/4/7 1/4/7 12/2/7
f 5/3/8 13/3/8 2/3/8
f 9/3/8 4/3/8 14/3/8
f 8/4/9 7/3/9 14/3/9
f 6/4/9 16/2/9 13/3/9
f 8/4/9 15/1/9 16/2/9
f 17/5/7 22/6/7 21/6/7
f 19/5/8 17/5/8 18/5/8
f 23/6/9 24/14/9 19/5/9
f 8/4/10 6/4/10 24/4/10
f 7/3/11 8/4/11 23/4/11
f 5/3/12 11/3/12 17/3/12
f 11/3/13 1/4/13 22/4/13
f 5/3/14 19/3/14 24/4/14
f 39/7/15 34/7/15 36/7/15
f 33/8/16 42/8/16 45/9/16
f 38/8/3 28/8/3 34/7/3
f 40/7/4 36/7/4 26/8/4
f 25/9/17 27/9/17 45/9/17
f 31/8/18 44/8/18 42/8/18
f 27/9/19 34/7/19 28/8/19
f 25/9/19 35/8/19 26/8/19
f 27/9/19 25/9/19 36/7/19
f 29/8/20 37/8/20 26/8/20
f 33/8/20 28/8/20 38/8/20
f 32/9/21 31/8/21 38/8/21
f 30/9/21 40/7/21 37/8/21
f 32/9/21 39/7/21 40/7/21
f 41/5/19 46/6/19 45/6/19
f 43/5/20 41/5/20 42/5/20
f 47/6/21 48/14/21 43/5/21
f 30/9/22 48/9/22 47/9/22
f 31/8/23 32/9/23 47/9/23
f 29/8/24 35/8/24 41/8/24
f 35/8/25 25/9/25 46/9/25
f 29/8/26 43/8/26 48/9/26
f 63/7/27 58/7/27 60/7/27
f 57/8/28 66/8/28 69/9/28
f 62/8/3 52/8/3 58/7/3
f 61/8/4 64/7/4 60/7/4
f 49/9/29 51/9/29 69/9/29
f 55/8/30 68/8/30 66/8/30
f 51/9/31 58/7/31 52/8/31
f 49/9/31 59/8/31 50/8/31
f 49/9/31 60/7/31 58/7/31
f 53/8/32 61/8/32 50/8/32
f 57/8/32 52/8/32 62/8/32
f 56/9/33 55/8/33 62/8/33
f 54/9/33 64/7/33 61/8/33
f 56/9/33 63/7/33 64/7/33
f 65/5/31 70/6/31 69/6/31
f 67/5/32 65/5/32 66/5/32
f 71/6/33 72/14/33 67/5/33
f 54/9/34 72/9/34 71/9/34
f 55/8/35 56/9/35 71/9/35
f 59/8/36 65/8/36 67/8/36
f 59/8/37 49/9/37 70/9/37
f 53/8/38 67/8/38 72/9/38
f 87/7/39 82/7/39 84/7/39
f 81/8/40 90/8/40 93/9/40
f 86/8/3 76/8/3 82/7/3
f 88/7/4 84/7/4 74/8/4
f 75/9/41 93/9/41 94/9/41
f 79/8/42 92/8/42 90/8/42
f 75/9/43 82/7/43 76/8/43
f 73/9/43 83/8/43 74/8/43
f 73/9/43 84/7/43 82/7/43
f 77/8/44 85/8/44 74/8/44
f 81/8/44 76/8/44 86/8/44
f 80/9/45 79/8/45 86/8/45
f 78/9/45 88/7/45 85/8/45
f 80/9/45 87/7/45 88/7/45
f 89/5/43 94/6/43 93/6/43
f 91/5/44 89/5/44 90/5/44
f 95/6/45 96/14/45 91/5/45
f 78/9/46 96/9/46 95/9/46
f 79/8/47 80/9/47 95/9/47
f 83/8/48 89/8/48 91/8/48
f 83/8/49 73/9/49 94/9/49
f 77/8/50 91/8/50 96/9/50
f 111/1/51 106/1/51 108/2/51
f 105/3/52 114/3/52 117/4/52
f 111/1/3 110/3/3 100/3/3
f 112/2/4 108/2/4 98/3/4
f 97/4/53 99/4/53 117/4/53
f 105/3/54 103/3/54 116/3/54
f 99/4/55 106/1/55 100/3/55
f 97/4/55 107/3/55 98/3/55
f 97/4/55 108/2/55 106/1/55
f 101/3/56 109/3/56 98/3/56
f 105/3/56 100/3/56 110/3/56
f 104/4/57 103/3/57 110/3/57
f 102/4/57 112/2/57 109/3/57
f 102/4/57 104/4/57 111/1/57
f 113/5/55 118/6/55 117/6/55
f 115/5/56 113/5/56 114/5/56
f 119/6/57 120/14/57 115/5/57
f 102/4/58 120/4/58 119/4/58
f 103/3/59 104/4/59 119/4/59
f 107/3/60 113/3/60 115/3/60
f 107/3/61 97/4/61 118/4/61
f 101/3/62 115/3/62 120/4/62
f 137/12/4 125/12/4 126/13/4
f 129/10/4 130/11/4 128/11/4
f 152/7/63 147/7/63 149/7/63
f 146/8/64 155/8/64 158/9/64
f 151/8/3 141/8/3 147/7/3
f 153/7/4 149/7/4 139/8/4
f 140/9/65 158/9/65 159/9/65
f 144/8/66 157/8/66 155/8/66
f 140/9/67 147/7/67 141/8/67
f 138/9/67 148/8/67 139/8/67
f 138/9/67 149/7/67 147/7/67
f 142/8/68 150/8/68 139/8/68
f 146/8/68 141/8/68 151/8/68
f 145/9/69 144/8/69 151/8/69
f 143/9/69 153/7/69 150/8/69
f 145/9/69 152/7/69 153/7/69
f 154/5/67 159/6/67 158/6/67
f 156/5/68 154/5/68 155/5/68
f 160/6/69 161/14/69 156/5/69
f 145/9/70 143/9/70 161/9/70
f 144/8/71 145/9/71 160/9/71
f 142/8/72 148/8/72 154/8/72
f 148/8/73 138/9/73 159/9/73
f 142/8/74 156/8/74 161/9/74
f 165/12/4 163/12/4 164/13/4
