# Blender 5.0.1
# www.blender.org
mtllib Ceiling_Lamp_2.mtl
o Ceiling_Lamp_2
v -0.546361 -0.092668 0.026508
v 0.546361 -0.092668 0.026508
v -0.546361 0.092215 0.026508
v 0.546361 0.092215 0.026508
v 0.530484 0.076763 -0.037918
v -0.530484 0.076763 -0.037918
v 0.530484 -0.077216 -0.037918
v -0.530484 -0.077216 -0.037918
v 0.539028 0.085614 -0.037918
v -0.539028 0.085614 -0.037918
v 0.539028 -0.086067 -0.037918
v -0.539028 -0.086067 -0.037918
v 0.530484 0.076763 -0.028019
v -0.530484 0.076763 -0.028019
v 0.530484 -0.077216 -0.028019
v -0.530484 -0.077216 -0.028019
v 0.517829 -0.010132 -0.024962
v 0.517829 0.059577 -0.024962
v 0.517829 0.010584 -0.024962
v -0.517829 0.010584 -0.024962
v 0.517829 -0.026588 -0.044050
v 0.517829 -0.014952 -0.038459
v -0.517829 -0.026588 -0.044050
v -0.517829 -0.010132 -0.024962
v -0.517829 -0.014952 -0.038459
v 0.517829 -0.042667 -0.044050
v 0.517829 -0.059124 -0.024962
v 0.517829 -0.054304 -0.038459
v -0.517829 -0.059124 -0.024962
v -0.517829 -0.042667 -0.044050
v -0.517829 -0.054304 -0.038459
v 0.517829 0.043120 -0.044050
v 0.517829 0.054757 -0.038459
v -0.517829 0.043120 -0.044050
v -0.517829 0.059577 -0.024962
v -0.517829 0.054757 -0.038459
v 0.517829 0.027041 -0.044050
v 0.517829 0.015405 -0.038459
v -0.517829 0.027041 -0.044050
v -0.517829 0.015405 -0.038459
v -0.454687 -0.042413 0.066954
v 0.454687 -0.042413 0.066954
v -0.454687 0.041960 0.066954
v 0.454687 0.041960 0.066954
v -0.454687 0.041960 0.018482
v -0.454687 -0.042413 0.018482
v 0.454687 -0.042413 0.018482
v 0.454687 0.041960 0.018482
vn 0.9936 -0.0000 -0.1131
vn -0.0000 0.9948 -0.1019
vn -0.0000 1.0000 -0.0000
vn -0.0000 -0.9948 -0.1019
vn -0.9936 -0.0000 -0.1131
vn -0.0000 -0.0000 -1.0000
vn -0.0000 -1.0000 -0.0000
vn 1.0000 -0.0000 -0.0000
vn -1.0000 -0.0000 -0.0000
vn 0.6604 -0.1668 -0.7322
vn 0.6604 0.1668 -0.7322
vn 0.6158 0.7420 -0.2650
vn -0.6604 0.1668 -0.7322
vn -0.6604 -0.1668 -0.7322
vn -0.6158 -0.7420 -0.2650
vn 0.6307 0.5767 -0.5192
vn -0.6158 0.7420 -0.2650
vn -0.6307 0.5767 -0.5192
vn -0.6307 -0.5767 -0.5192
vn 0.6158 -0.7420 -0.2650
vn 0.6307 -0.5767 -0.5192
vn -0.0000 -0.0000 1.0000
vt 0.153080 0.988357
vt 0.153080 0.938357
vt 0.103080 0.988357
vt 0.103476 0.940935
vt 0.152684 0.940935
vt 0.103080 0.938357
vt 0.103476 0.985780
vt 0.152684 0.985780
vt 0.151806 0.788040
vt 0.151806 0.802758
vt 0.151806 0.817821
vt 0.102598 0.802758
vt 0.102598 0.788040
vt 0.102598 0.772977
vt 0.151806 0.816350
vt 0.102598 0.817821
vt 0.102598 0.816350
vt 0.102598 0.774447
vt 0.151806 0.772977
vt 0.151806 0.774447
vt 0.233875 0.900472
vt 0.183875 0.900472
vt 0.183875 0.850472
vt 0.233875 0.850472
s 0
usemtl Palette
f 9/1/1 2/2/1 11/2/1
f 10/3/2 4/1/2 9/1/2
f 8/4/3 15/5/3 7/5/3
f 11/2/4 1/6/4 12/6/4
f 10/3/5 1/6/5 3/3/5
f 6/7/6 9/1/6 5/8/6
f 5/8/6 11/2/6 7/5/6
f 7/5/6 12/6/6 8/4/6
f 8/4/6 10/3/6 6/7/6
f 14/7/6 15/5/6 16/4/6
f 5/8/7 14/7/7 6/7/7
f 6/7/8 16/4/8 8/4/8
f 7/5/9 13/8/9 5/8/9
f 1/6/22 4/1/22 3/3/22
f 48/21/3 43/22/3 44/21/3
f 46/23/7 42/24/7 41/23/7
f 47/24/8 44/21/8 42/24/8
f 45/22/9 41/23/9 43/22/9
f 9/1/1 4/1/1 2/2/1
f 10/3/2 3/3/2 4/1/2
f 8/4/3 16/4/3 15/5/3
f 11/2/4 2/2/4 1/6/4
f 10/3/5 12/6/5 1/6/5
f 6/7/6 10/3/6 9/1/6
f 5/8/6 9/1/6 11/2/6
f 7/5/6 11/2/6 12/6/6
f 8/4/6 12/6/6 10/3/6
f 14/7/6 13/8/6 15/5/6
f 5/8/7 13/8/7 14/7/7
f 6/7/8 14/7/8 16/4/8
f 7/5/9 15/5/9 13/8/9
f 1/6/22 2/2/22 4/1/22
f 48/21/3 45/22/3 43/22/3
f 46/23/7 47/24/7 42/24/7
f 47/24/8 48/21/8 44/21/8
f 45/22/9 46/23/9 41/23/9
s 14
usemtl Light
f 26/9/10 21/10/11 17/11/12
f 23/12/13 26/9/10 30/13/14
f 23/12/13 30/13/14 29/14/15
s 15
f 37/9/10 32/10/11 18/11/12
f 34/12/13 37/9/10 39/13/14
f 34/12/13 39/13/14 20/14/15
s 14
f 22/15/16 24/16/17 17/11/12
f 21/10/11 25/17/18 22/15/16
f 31/18/19 27/19/20 29/14/15
f 30/13/14 28/20/21 31/18/19
s 15
f 33/15/16 35/16/17 18/11/12
f 33/15/16 34/12/13 36/17/18
f 40/18/19 19/19/20 20/14/15
f 39/13/14 38/20/21 40/18/19
s 14
f 22/15/16 17/11/12 21/10/11
f 17/11/12 27/19/20 26/9/10
f 27/19/20 28/20/21 26/9/10
f 23/12/13 21/10/11 26/9/10
f 31/18/19 29/14/15 30/13/14
f 29/14/15 24/16/17 23/12/13
f 24/16/17 25/17/18 23/12/13
s 15
f 33/15/16 18/11/12 32/10/11
f 18/11/12 19/19/20 37/9/10
f 19/19/20 38/20/21 37/9/10
f 34/12/13 32/10/11 37/9/10
f 40/18/19 20/14/15 39/13/14
f 20/14/15 35/16/17 34/12/13
f 35/16/17 36/17/18 34/12/13
s 14
f 22/15/16 25/17/18 24/16/17
f 21/10/11 23/12/13 25/17/18
f 31/18/19 28/20/21 27/19/20
f 30/13/14 26/9/10 28/20/21
s 15
f 33/15/16 36/17/18 35/16/17
f 33/15/16 32/10/11 34/12/13
f 40/18/19 38/20/21 19/19/20
f 39/13/14 37/9/10 38/20/21
