# Blender 5.0.1
# www.blender.org
mtllib Ceiling_Lamp_1_B.mtl
o Ceiling_Lamp_1_B
v 0.001598 0.003857 0.022835
v 0.003858 0.001598 0.022835
v 0.003858 -0.001598 0.022835
v 0.001598 -0.003858 0.022835
v -0.001598 -0.003858 0.022835
v -0.003858 -0.001598 0.022835
v -0.003858 0.001598 0.022835
v -0.001598 0.003857 0.022835
v 0.001598 0.003857 -0.453297
v 0.003858 0.001598 -0.453297
v 0.003858 -0.001598 -0.453297
v 0.001598 -0.003858 -0.453297
v -0.001598 -0.003858 -0.453297
v -0.003858 -0.001598 -0.453297
v -0.003858 0.001598 -0.453297
v -0.001598 0.003857 -0.453297
v -0.013257 0.008999 -0.545412
v 0.007117 -0.015139 -0.574556
v 0.013257 -0.008999 -0.567143
v -0.015669 0.000000 -0.556277
v 0.015669 -0.000000 -0.556277
v -0.013257 -0.008999 -0.567143
v 0.013257 0.008999 -0.545412
v 0.000000 0.017046 -0.535696
v -0.007117 -0.015139 -0.574556
v 0.007117 0.015139 -0.537998
v -0.000000 -0.017046 -0.576859
v -0.007117 0.015139 -0.537998
v -0.010000 0.017321 -0.535365
v 0.000000 0.020000 -0.532129
v -0.020000 0.000000 -0.556277
v -0.017321 0.010000 -0.544203
v -0.010000 -0.017321 -0.577190
v -0.017321 -0.010000 -0.568351
v -0.000000 -0.020000 -0.580426
v 0.010000 -0.017321 -0.577190
v 0.017321 -0.010000 -0.568351
v 0.020000 -0.000000 -0.556277
v 0.017321 0.010000 -0.544203
v 0.010000 0.017321 -0.535365
v -0.007117 0.015139 -0.525332
v 0.000000 0.017046 -0.523030
v -0.015669 0.000000 -0.543611
v -0.013257 0.008999 -0.532745
v -0.007117 -0.015139 -0.561890
v -0.013257 -0.008999 -0.554476
v -0.000000 -0.017046 -0.564193
v 0.007117 -0.015139 -0.561890
v 0.013257 -0.008999 -0.554476
v 0.015669 -0.000000 -0.543611
v 0.013257 0.008999 -0.532745
v 0.007117 0.015139 -0.525332
v 0.000000 0.008132 -0.287385
v 0.000000 0.020000 -0.298849
v 0.000000 0.016524 -0.290743
v 0.004066 0.007042 -0.287385
v 0.010000 0.017321 -0.298849
v 0.008262 0.014310 -0.290743
v 0.007042 0.004066 -0.287385
v 0.017321 0.010000 -0.298849
v 0.014310 0.008262 -0.290743
v 0.008132 -0.000000 -0.287385
v 0.020000 -0.000000 -0.298849
v 0.016524 -0.000000 -0.290743
v 0.007042 -0.004066 -0.287385
v 0.017321 -0.010000 -0.298849
v 0.014310 -0.008262 -0.290743
v 0.004066 -0.007042 -0.287385
v 0.010000 -0.017321 -0.298849
v 0.008262 -0.014310 -0.290743
v 0.000000 -0.008132 -0.287385
v -0.000000 -0.020000 -0.298849
v -0.000000 -0.016524 -0.290743
v -0.004066 -0.007042 -0.287385
v -0.010000 -0.017321 -0.298849
v -0.008262 -0.014310 -0.290743
v -0.007042 -0.004066 -0.287385
v -0.017321 -0.010000 -0.298849
v -0.014310 -0.008262 -0.290743
v -0.008132 0.000000 -0.287385
v -0.020000 0.000000 -0.298849
v -0.016524 0.000000 -0.290743
v -0.007042 0.004066 -0.287385
v -0.017321 0.010000 -0.298849
v -0.014310 0.008262 -0.290743
v -0.004066 0.007042 -0.287385
v -0.010000 0.017321 -0.298849
v -0.008262 0.014310 -0.290743
vn -0.3827 0.9239 -0.0000
vn 0.3827 0.9239 -0.0000
vn 0.3827 -0.9239 -0.0000
vn -0.3827 -0.9239 -0.0000
vn 0.9239 0.3827 -0.0000
vn -0.9239 -0.3827 -0.0000
vn 0.9239 -0.3827 -0.0000
vn -0.9239 0.3827 -0.0000
vn -0.9894 -0.1455 -0.0000
vn -0.8494 -0.4904 0.1949
vn -0.9808 -0.0000 0.1949
vn -0.4124 -0.9110 -0.0000
vn -0.0000 -0.9808 0.1949
vn -0.4904 -0.8494 0.1949
vn 0.7879 -0.6158 -0.0000
vn 0.4904 -0.8494 0.1949
vn 0.4124 -0.9110 -0.0000
vn 0.9223 0.3865 -0.0000
vn 0.9808 -0.0000 0.1949
vn 0.9894 -0.1455 -0.0000
vn -0.9223 0.3865 -0.0000
vn -0.8494 0.4904 0.1949
vn -0.7879 -0.6158 -0.0000
vn -0.0000 -1.0000 -0.0000
vn 0.8494 -0.4904 0.1949
vn 0.5644 0.8255 -0.0000
vn 0.8494 0.4904 0.1949
vn -0.0000 1.0000 -0.0000
vn -0.4904 0.8494 0.1949
vn -0.0000 0.9808 0.1949
vn 0.4904 0.8494 0.1949
vn -0.9223 -0.3865 -0.0000
vn -0.5644 0.8255 -0.0000
vn -0.0000 0.7701 -0.6379
vn -0.0000 0.7702 -0.6379
vn -0.0000 0.7702 -0.6378
vn 0.5644 -0.8255 -0.0000
vn 0.9894 0.1455 -0.0000
vn 0.7879 0.6158 -0.0000
vn -0.9894 0.1455 -0.0000
vn 0.9223 -0.3865 -0.0000
vn 0.4124 0.9110 -0.0000
vn -0.5644 -0.8255 -0.0000
vn -0.7879 0.6158 -0.0000
vn -0.4124 0.9110 -0.0000
vn 0.4595 0.7959 0.3941
vn 0.0990 0.3696 0.9239
vn 0.7959 0.4595 0.3941
vn 0.2706 0.2706 0.9239
vn 0.9191 -0.0000 0.3941
vn 0.3696 0.0990 0.9239
vn 0.7959 -0.4595 0.3941
vn 0.3696 -0.0990 0.9239
vn 0.4595 -0.7959 0.3941
vn 0.2706 -0.2706 0.9239
vn -0.0000 -0.9191 0.3941
vn 0.0991 -0.3696 0.9239
vn -0.4595 -0.7959 0.3941
vn -0.0990 -0.3696 0.9239
vn -0.7959 -0.4595 0.3941
vn -0.2706 -0.2706 0.9239
vn -0.9191 -0.0000 0.3941
vn -0.3696 -0.0990 0.9239
vn -0.7959 0.4595 0.3941
vn -0.3696 0.0990 0.9239
vn -0.4595 0.7959 0.3941
vn -0.2706 0.2706 0.9239
vn -0.0000 0.9191 0.3941
vn -0.0990 0.3696 0.9239
vn -0.0000 -0.0000 1.0000
vn 0.0990 -0.3696 0.9239
vn -0.0001 -0.0000 1.0000
vt 0.032413 0.972820
vt 0.038363 0.972820
vt 0.038363 0.958455
vt 0.032413 0.958455
vt 0.042571 0.968612
vt 0.028206 0.962662
vt 0.042571 0.962662
vt 0.028206 0.968612
vt 0.196375 0.881767
vt 0.200542 0.898662
vt 0.196375 0.898693
vt 0.204708 0.878570
vt 0.208875 0.898636
vt 0.204708 0.898643
vt 0.217208 0.879921
vt 0.213042 0.898643
vt 0.213042 0.878570
vt 0.225542 0.883614
vt 0.221375 0.898693
vt 0.221375 0.881767
vt 0.192208 0.883614
vt 0.192208 0.898729
vt 0.200542 0.879921
vt 0.208875 0.878075
vt 0.217208 0.898662
vt 0.229708 0.884965
vt 0.225542 0.898729
vt 0.183875 0.885460
vt 0.188042 0.898759
vt 0.183875 0.898771
vt 0.233875 0.885460
vt 0.229708 0.898759
vt 0.222853 0.883429
vt 0.219296 0.881767
vt 0.188042 0.884965
vt 0.222565 0.884915
vt 0.196337 0.883429
vt 0.205913 0.878972
vt 0.202479 0.880106
vt 0.208980 0.878620
vt 0.215620 0.880106
vt 0.225711 0.884563
vt 0.200123 0.884563
vt 0.199073 0.881767
vt 0.212077 0.878972
vt 0.864657 0.876776
vt 0.861921 0.878438
vt 0.884879 0.876776
vt 0.233875 0.898771
vt 0.230070 0.900014
vt 0.201854 0.873046
vt 0.196375 0.867393
vt 0.198815 0.866739
vt 0.229346 0.900014
vt 0.225904 0.900014
vt 0.202757 0.872524
vt 0.200600 0.864953
vt 0.206386 0.868895
vt 0.221737 0.900014
vt 0.206907 0.867992
vt 0.201254 0.862514
vt 0.208235 0.863035
vt 0.221013 0.900014
vt 0.217570 0.900014
vt 0.208235 0.861992
vt 0.200600 0.860074
vt 0.206907 0.857035
vt 0.213404 0.900014
vt 0.206386 0.856132
vt 0.198815 0.858288
vt 0.202757 0.852503
vt 0.209237 0.900014
vt 0.196896 0.850653
vt 0.196375 0.857635
vt 0.205070 0.900014
vt 0.190896 0.851982
vt 0.193936 0.858288
vt 0.204346 0.900014
vt 0.200904 0.900014
vt 0.189993 0.852503
vt 0.192150 0.860074
vt 0.186364 0.856132
vt 0.196737 0.900014
vt 0.185843 0.857035
vt 0.191496 0.862513
vt 0.184515 0.861992
vt 0.192570 0.900014
vt 0.185843 0.867992
vt 0.192150 0.864953
vt 0.188404 0.900014
vt 0.186364 0.868895
vt 0.193936 0.866739
vt 0.189993 0.872524
vt 0.184237 0.900014
vt 0.190896 0.873046
vt 0.195854 0.874374
vt 0.865707 0.879572
vt 0.888149 0.879924
vt 0.891295 0.879572
vt 0.888436 0.878438
vt 0.881203 0.875115
vt 0.868063 0.875115
vt 0.877661 0.873981
vt 0.871496 0.873981
vt 0.874563 0.873629
vt 0.233513 0.900014
vt 0.196896 0.874374
vt 0.225180 0.900014
vt 0.216846 0.900014
vt 0.212680 0.900014
vt 0.201854 0.851982
vt 0.208513 0.900014
vt 0.195854 0.850653
vt 0.200180 0.900014
vt 0.196013 0.900014
vt 0.184515 0.863035
vt 0.191846 0.900014
vt 0.187680 0.900014
s 1
usemtl Palette
f 8/1/1 9/2/2 16/1/1
f 12/3/3 5/4/4 13/4/4
f 9/2/2 2/5/5 10/5/5
f 13/4/4 6/6/6 14/6/6
f 10/5/5 3/7/7 11/7/7
f 14/6/6 7/8/8 15/8/8
f 15/8/8 8/1/1 16/1/1
f 11/7/7 4/3/3 12/3/3
s 2
f 31/9/9 78/10/10 81/11/11
f 33/12/12 72/13/13 75/14/14
f 37/15/15 69/16/16 36/17/17
f 39/18/18 63/19/19 38/20/20
f 32/21/21 81/11/11 84/22/22
f 34/23/23 75/14/14 78/10/10
f 36/17/17 72/13/13 35/24/24
f 38/20/20 66/25/25 37/15/15
f 40/26/26 60/27/27 39/18/18
f 30/28/28 87/29/29 54/30/30
f 30/31/28 57/32/31 40/26/26
s 3
f 23/33/32 50/34/9 51/33/23
s 2
f 29/35/33 84/22/22 87/29/29
s 0
f 24/36/34 29/35/34 30/31/34
f 17/37/35 31/9/35 32/21/35
f 25/38/35 34/23/35 22/39/35
f 27/40/35 36/17/35 35/24/35
f 19/41/35 38/20/35 37/15/35
f 26/42/35 39/18/35 23/33/35
f 28/43/35 32/21/35 29/35/35
f 22/39/34 31/9/34 20/44/34
f 27/40/36 33/12/36 25/38/36
f 18/45/35 37/15/35 36/17/35
f 23/33/35 38/20/35 21/34/35
f 24/36/34 40/26/34 26/42/34
s 3
f 24/36/24 41/43/17 28/43/37
f 20/44/38 46/39/18 22/39/39
f 21/34/40 49/41/21 50/34/9
f 24/36/24 52/42/12 42/36/24
f 17/37/41 43/44/20 20/44/38
f 25/38/42 47/40/28 27/40/28
f 26/42/43 51/33/23 52/42/12
f 22/39/39 45/38/26 25/38/42
f 19/41/44 48/45/33 49/41/21
f 28/43/37 44/37/15 17/37/41
f 18/45/45 47/40/28 48/45/33
s 2
f 54/49/30 58/50/46 57/32/31
s 0
f 58/51/47 53/52/47 56/53/47
s 2
f 60/27/27 58/54/46 61/55/48
s 0
f 58/56/49 59/57/49 61/58/49
s 2
f 60/27/27 64/59/50 63/19/19
s 0
f 61/60/51 62/61/51 64/62/51
s 2
f 66/25/25 64/63/50 67/64/52
s 0
f 64/65/53 65/66/53 67/67/53
s 2
f 66/25/25 70/68/54 69/16/16
s 0
f 67/69/55 68/70/55 70/71/55
s 2
f 69/16/16 73/72/56 72/13/13
s 0
f 73/73/57 68/70/57 71/74/57
s 2
f 72/13/13 76/75/58 75/14/14
s 0
f 76/76/59 71/74/59 74/77/59
s 2
f 78/10/10 76/78/58 79/79/60
s 0
f 76/80/61 77/81/61 79/82/61
s 2
f 78/10/10 82/83/62 81/11/11
s 0
f 79/84/63 80/85/63 82/86/63
s 2
f 81/11/11 85/87/64 84/22/22
s 0
f 85/88/65 80/85/65 83/89/65
s 2
f 84/22/22 88/90/66 87/29/29
s 0
f 85/91/67 86/92/67 88/93/67
s 2
f 87/29/29 55/94/68 54/30/30
s 0
f 88/95/69 53/52/69 55/96/69
f 83/89/70 71/74/70 59/57/70
s 1
f 8/1/1 1/2/2 9/2/2
f 12/3/3 4/3/3 5/4/4
f 9/2/2 1/2/2 2/5/5
f 13/4/4 5/4/4 6/6/6
f 10/5/5 2/5/5 3/7/7
f 14/6/6 6/6/6 7/8/8
f 15/8/8 7/8/8 8/1/1
f 11/7/7 3/7/7 4/3/3
s 2
f 31/9/9 34/23/23 78/10/10
f 33/12/12 35/24/24 72/13/13
f 37/15/15 66/25/25 69/16/16
f 39/18/18 60/27/27 63/19/19
f 32/21/21 31/9/9 81/11/11
f 34/23/23 33/12/12 75/14/14
f 36/17/17 69/16/16 72/13/13
f 38/20/20 63/19/19 66/25/25
f 40/26/26 57/32/31 60/27/27
f 30/28/28 29/35/33 87/29/29
f 30/31/28 54/49/30 57/32/31
s 3
f 23/33/32 21/34/40 50/34/9
s 2
f 29/35/33 32/21/21 84/22/22
s 0
f 24/36/34 28/43/34 29/35/34
f 17/37/35 20/44/35 31/9/35
f 25/38/35 33/12/35 34/23/35
f 27/40/36 18/45/36 36/17/36
f 19/41/34 21/34/34 38/20/34
f 26/42/35 40/26/35 39/18/35
f 28/43/35 17/37/35 32/21/35
f 22/39/34 34/23/34 31/9/34
f 27/40/35 35/24/35 33/12/35
f 18/45/36 19/41/36 37/15/36
f 23/33/35 39/18/35 38/20/35
f 24/36/34 30/31/34 40/26/34
s 3
f 24/36/24 42/36/24 41/43/17
f 20/44/38 43/44/20 46/39/18
f 21/34/40 19/41/44 49/41/21
f 24/36/24 26/42/43 52/42/12
f 17/37/41 44/37/15 43/44/20
f 25/38/42 45/38/26 47/40/28
f 26/42/43 23/33/32 51/33/23
f 22/39/39 46/39/18 45/38/26
f 19/41/44 18/45/45 48/45/33
f 28/43/37 41/43/17 44/37/15
f 18/45/45 27/40/28 47/40/28
s 2
f 54/49/30 55/106/68 58/50/46
s 0
f 58/51/47 55/107/47 53/52/47
s 2
f 60/27/27 57/32/31 58/54/46
s 0
f 58/56/49 56/53/49 59/57/49
s 2
f 60/27/27 61/108/48 64/59/50
s 0
f 61/60/51 59/57/51 62/61/51
s 2
f 66/25/25 63/19/19 64/63/50
s 0
f 64/65/53 62/61/53 65/66/53
s 2
f 66/25/25 67/109/52 70/68/54
s 0
f 67/69/55 65/66/55 68/70/55
s 2
f 69/16/16 70/110/54 73/72/56
s 0
f 73/73/71 70/111/71 68/70/71
s 2
f 72/13/13 73/112/56 76/75/58
s 0
f 76/76/59 73/113/59 71/74/59
s 2
f 78/10/10 75/14/14 76/78/58
s 0
f 76/80/61 74/77/61 77/81/61
s 2
f 78/10/10 79/114/60 82/83/62
s 0
f 79/84/63 77/81/63 80/85/63
s 2
f 81/11/11 82/115/62 85/87/64
s 0
f 85/88/65 82/116/65 80/85/65
s 2
f 84/22/22 85/117/64 88/90/66
s 0
f 85/91/67 83/89/67 86/92/67
s 2
f 87/29/29 88/118/66 55/94/68
s 0
f 88/95/69 86/92/69 53/52/69
f 59/57/70 56/53/70 53/52/70
f 53/52/70 86/92/70 83/89/70
f 83/89/72 80/85/72 77/81/72
f 77/81/70 74/77/70 71/74/70
f 71/74/70 68/70/70 65/66/70
f 65/66/70 62/61/70 59/57/70
f 59/57/70 53/52/70 83/89/70
f 83/89/70 77/81/70 71/74/70
f 71/74/70 65/66/70 59/57/70
usemtl Light
f 43/46/35 44/47/35 50/48/35
f 41/97/34 42/98/34 52/99/34
f 52/99/35 51/100/35 41/97/35
f 51/100/35 50/48/35 44/47/35
f 41/97/35 51/100/35 44/47/35
f 50/48/34 49/101/34 46/102/34
f 49/101/35 48/103/35 45/104/35
f 48/103/36 47/105/36 45/104/36
f 45/104/35 46/102/35 49/101/35
f 46/102/34 43/46/34 50/48/34
