# Blender 5.0.1
# www.blender.org
mtllib Ceiling_Lamp_3.mtl
o Ceiling_Lamp_3
v -0.515995 -0.062185 0.043630
v 0.515995 -0.062185 0.043630
v -0.515995 0.062185 0.043630
v 0.515995 0.062185 0.043630
v 0.530484 0.074319 -0.020796
v -0.530484 0.074319 -0.020796
v 0.530484 -0.074320 -0.020796
v -0.530484 -0.074320 -0.020796
v 0.539028 0.082863 -0.020796
v -0.539028 0.082863 -0.020796
v 0.539028 -0.082864 -0.020796
v -0.539028 -0.082864 -0.020796
v 0.530484 0.074319 -0.010898
v -0.530484 0.074319 -0.010898
v 0.530484 -0.074320 -0.010898
v -0.530484 -0.074320 -0.010898
v 0.517829 0.040498 -0.026928
v -0.517829 0.040498 -0.026928
v 0.517829 -0.040498 -0.026928
v -0.517829 -0.040498 -0.026928
v 0.517829 0.040498 -0.007840
v -0.517829 0.040498 -0.007840
v 0.517829 -0.040498 -0.007840
v -0.517829 -0.040498 -0.007840
v 0.404382 0.010716 0.302640
v 0.381467 0.010716 0.302640
v 0.404382 -0.010716 0.302640
v 0.381467 -0.010716 0.302640
v 0.404382 0.010716 0.033248
v 0.381467 0.010716 0.033248
v 0.404382 -0.010716 0.033248
v 0.381467 -0.010716 0.033248
v -0.381467 0.010716 0.302640
v -0.404382 0.010716 0.302640
v -0.381467 -0.010716 0.302640
v -0.404382 -0.010716 0.302640
v -0.381467 0.010716 0.033248
v -0.404382 0.010716 0.033248
v -0.381467 -0.010716 0.033248
v -0.404382 -0.010716 0.033248
vn 0.9416 -0.0000 0.3366
vn -0.0000 0.9522 0.3056
vn -0.0000 1.0000 -0.0000
vn -0.0000 -0.9522 0.3056
vn -0.9416 -0.0000 0.3366
vn -0.0000 -0.0000 -1.0000
vn -0.0000 -1.0000 -0.0000
vn 1.0000 -0.0000 -0.0000
vn -1.0000 -0.0000 -0.0000
vn -0.0000 -0.0000 1.0000
vt 0.153080 0.988357
vt 0.153080 0.938357
vt 0.103080 0.988357
vt 0.103476 0.940935
vt 0.152684 0.940935
vt 0.103080 0.938357
vt 0.103476 0.985780
vt 0.152684 0.985780
vt 0.102598 0.817821
vt 0.151806 0.772977
vt 0.102598 0.772977
vt 0.151806 0.817821
s 0
usemtl Palette
f 9/1/1 2/2/1 11/2/1
f 9/1/2 3/3/2 4/1/2
f 8/4/3 15/5/3 7/5/3
f 11/2/4 1/6/4 12/6/4
f 12/6/5 3/3/5 10/3/5
f 6/7/6 9/1/6 5/8/6
f 5/8/6 11/2/6 7/5/6
f 7/5/6 12/6/6 8/4/6
f 8/4/6 10/3/6 6/7/6
f 14/7/6 15/5/6 16/4/6
f 5/8/7 14/7/7 6/7/7
f 6/7/8 16/4/8 8/4/8
f 7/5/9 13/8/9 5/8/9
f 1/6/10 4/1/10 3/3/10
f 31/2/8 25/1/8 27/2/8
f 32/6/7 27/2/7 28/6/7
f 30/3/9 28/6/9 26/3/9
f 29/1/3 26/3/3 25/1/3
f 39/2/8 33/1/8 35/2/8
f 40/6/7 35/2/7 36/6/7
f 38/3/9 36/6/9 34/3/9
f 37/1/3 34/3/3 33/1/3
f 9/1/1 4/1/1 2/2/1
f 9/1/2 10/3/2 3/3/2
f 8/4/3 16/4/3 15/5/3
f 11/2/4 2/2/4 1/6/4
f 12/6/5 1/6/5 3/3/5
f 6/7/6 10/3/6 9/1/6
f 5/8/6 9/1/6 11/2/6
f 7/5/6 11/2/6 12/6/6
f 8/4/6 12/6/6 10/3/6
f 14/7/6 13/8/6 15/5/6
f 5/8/7 13/8/7 14/7/7
f 6/7/8 14/7/8 16/4/8
f 7/5/9 15/5/9 13/8/9
f 1/6/10 2/2/10 4/1/10
f 31/2/8 29/1/8 25/1/8
f 32/6/7 31/2/7 27/2/7
f 30/3/9 32/6/9 28/6/9
f 29/1/3 30/3/3 26/3/3
f 39/2/8 37/1/8 33/1/8
f 40/6/7 39/2/7 35/2/7
f 38/3/9 40/6/9 36/6/9
f 37/1/3 38/3/3 34/3/3
usemtl Light
f 18/9/6 19/10/6 20/11/6
f 22/9/3 17/12/3 18/9/3
f 24/11/9 18/9/9 20/11/9
f 21/12/8 19/10/8 17/12/8
f 23/10/7 20/11/7 19/10/7
f 18/9/6 17/12/6 19/10/6
f 22/9/3 21/12/3 17/12/3
f 24/11/9 22/9/9 18/9/9
f 21/12/8 23/10/8 19/10/8
f 23/10/7 24/11/7 20/11/7
