# Blender 5.0.1
# www.blender.org
mtllib Ceiling_Lamp_4.mtl
o Ceiling_Lamp_4
v 0.000000 0.083359 -0.734582
v -0.041680 0.072191 -0.734582
v -0.072191 0.041680 -0.734582
v -0.083360 0.000000 -0.734582
v -0.072191 -0.041680 -0.734582
v -0.041680 -0.072191 -0.734582
v 0.000000 -0.083359 -0.734582
v 0.041680 -0.072191 -0.734582
v 0.072191 -0.041680 -0.734582
v 0.083360 0.000000 -0.734582
v 0.072191 0.041680 -0.734582
v 0.041680 0.072191 -0.734582
v -0.052204 0.090419 -0.430658
v 0.000000 0.104407 -0.430658
v -0.090420 0.052204 -0.430658
v -0.104408 0.000000 -0.430658
v -0.090420 -0.052204 -0.430658
v -0.052204 -0.090419 -0.430658
v 0.000000 -0.104407 -0.430658
v 0.052204 -0.090419 -0.430658
v 0.090420 -0.052204 -0.430658
v 0.104408 0.000000 -0.430658
v 0.090420 0.052204 -0.430658
v 0.052204 0.090419 -0.430658
v -0.052204 0.090419 -0.734582
v 0.000000 0.104407 -0.734582
v -0.090420 0.052204 -0.734582
v -0.104408 0.000000 -0.734582
v -0.090420 -0.052204 -0.734582
v -0.052204 -0.090419 -0.734582
v 0.000000 -0.104407 -0.734582
v 0.052204 -0.090419 -0.734582
v 0.090420 -0.052204 -0.734582
v 0.104408 0.000000 -0.734582
v 0.090420 0.052204 -0.734582
v 0.052204 0.090419 -0.734582
v -0.041680 0.072191 -0.722282
v 0.000000 0.083359 -0.722282
v -0.072191 0.041680 -0.722282
v -0.083360 0.000000 -0.722282
v -0.072191 -0.041680 -0.722282
v -0.041680 -0.072191 -0.722282
v 0.000000 -0.083359 -0.722282
v 0.041680 -0.072191 -0.722282
v 0.072191 -0.041680 -0.722282
v 0.083360 0.000000 -0.722282
v 0.072191 0.041680 -0.722282
v 0.041680 0.072191 -0.722282
v 0.000000 0.072380 -0.693213
v -0.036190 0.062683 -0.693213
v -0.036190 -0.062683 -0.693213
v 0.000000 -0.072381 -0.693213
v 0.036190 0.062683 -0.741717
v 0.062683 0.036190 -0.741717
v 0.072381 -0.000000 -0.741717
v 0.062683 -0.036190 -0.741717
v 0.036190 -0.062683 -0.741717
v 0.000000 -0.072381 -0.741717
v -0.036190 -0.062683 -0.741717
v -0.062683 -0.036190 -0.741717
v -0.072381 -0.000000 -0.741717
v -0.062683 0.036190 -0.741717
v 0.000000 0.072380 -0.741717
v -0.036190 0.062683 -0.741717
v -0.062683 0.036190 -0.693213
v -0.072381 -0.000000 -0.693213
v -0.062683 -0.036190 -0.693213
v 0.036190 0.062683 -0.693213
v 0.062683 0.036190 -0.693213
v 0.072381 -0.000000 -0.693213
v 0.062683 -0.036190 -0.693213
v 0.036190 -0.062683 -0.693213
v -0.008776 0.002851 -0.430658
v 0.000000 0.009227 0.013085
v -0.008776 0.002851 0.013085
v -0.005424 -0.007465 0.013085
v 0.005424 -0.007465 0.013085
v 0.008776 0.002851 0.013085
v 0.000000 0.009227 -0.430658
v -0.005424 -0.007465 -0.430658
v 0.005424 -0.007465 -0.430658
v 0.008776 0.002851 -0.430658
vn 0.8660 0.5000 -0.0000
vn 0.3788 0.6554 -0.6534
vn 0.5000 0.8660 -0.0000
vn -0.0417 -0.0025 0.9991
vn -0.0187 -0.0374 0.9991
vn 0.0230 -0.0349 0.9991
vn -0.4995 0.8652 0.0443
vn -0.0299 0.9989 -0.0355
vn 0.0340 0.9990 0.0285
vn 0.8652 -0.4995 0.0443
vn 0.5253 -0.8502 -0.0355
vn 0.4701 -0.8822 0.0285
vn -0.4995 -0.8652 0.0444
vn -0.8502 -0.5253 -0.0355
vn -0.8822 -0.4701 0.0285
vn 0.4736 0.8800 -0.0355
vn 0.5289 0.8482 0.0285
vn -0.8652 0.4995 0.0443
vn -0.5253 0.8502 -0.0355
vn 0.9990 -0.0000 0.0443
vn 0.8800 -0.4736 -0.0355
vn -0.0000 -0.9990 0.0443
vn -0.4736 -0.8800 -0.0355
vn -0.9990 -0.0000 0.0443
vn -0.8800 0.4736 -0.0355
vn 0.8652 0.4995 0.0443
vn 0.9989 0.0299 -0.0355
vn 0.0299 -0.9989 -0.0355
vn -0.9989 -0.0299 -0.0355
vn 0.8502 0.5253 -0.0355
vn -0.0000 -0.0000 -1.0000
vn -0.0265 -0.0298 -0.9992
vn 0.0200 -0.0346 -0.9992
vn 0.0346 -0.0200 -0.9992
vn 0.0399 -0.0000 -0.9992
vn 0.0391 -0.0081 -0.9992
vn -0.0000 0.0399 -0.9992
vn 0.0200 0.0346 -0.9992
vn 0.0081 0.0391 -0.9992
vn -0.0346 0.0200 -0.9992
vn -0.0399 -0.0000 -0.9992
vn -0.0346 -0.0200 -0.9992
vn -0.0379 -0.0126 -0.9992
vn -0.0000 -0.7181 -0.6959
vn -0.6219 -0.3590 -0.6959
vn 0.0001 0.7181 -0.6959
vn -0.5000 -0.8660 -0.0000
vn -0.0000 -0.7570 -0.6534
vn -0.0000 -1.0000 -0.0000
vn 0.8660 -0.5000 -0.0000
vn 0.3785 -0.6556 -0.6534
vn 0.6557 -0.3783 -0.6534
vn -0.8660 0.5000 -0.0000
vn -0.7570 -0.0001 -0.6534
vn -1.0000 -0.0000 -0.0000
vn -0.0001 0.7570 -0.6534
vn -0.0000 1.0000 -0.0000
vn 0.7570 -0.0000 -0.6534
vn 1.0000 -0.0000 -0.0000
vn -0.6556 -0.3785 -0.6534
vn -0.8660 -0.5000 -0.0000
vn -0.5000 0.8660 -0.0000
vn -0.3785 0.6556 -0.6534
vn 0.6556 0.3785 -0.6534
vn -0.3784 -0.6556 -0.6534
vn 0.5000 -0.8660 -0.0000
vn -0.6556 0.3785 -0.6534
vn -0.9924 0.0001 -0.1232
vn -0.5449 0.3148 0.7771
vn -0.6293 -0.0000 0.7771
vn 0.0001 0.9924 -0.1232
vn 0.3147 0.5450 0.7771
vn -0.0000 0.6293 0.7771
vn -0.4961 0.8595 -0.1232
vn -0.3145 0.5452 0.7771
vn 0.8595 -0.4960 -0.1232
vn 0.3146 -0.5450 0.7771
vn 0.5451 -0.3145 0.7771
vn -0.0000 0.7181 -0.6959
vn 0.6219 0.3590 -0.6959
vn 0.6218 -0.3592 -0.6959
vn 0.7235 0.0300 -0.6897
vn -0.0000 -0.6293 0.7771
vn -0.7234 0.0301 -0.6898
vn -0.5450 -0.3146 0.7771
vn -0.3148 -0.5449 0.7771
vn 0.3354 -0.6414 -0.6900
vn 0.6293 -0.0001 0.7771
vn -0.6111 -0.3878 -0.6901
vn -0.3877 0.6113 -0.6899
vn 0.5452 0.3145 0.7771
vn 0.6112 -0.3878 -0.6900
vn -0.6414 -0.3354 -0.6900
vn -0.6112 0.3878 -0.6900
vn -0.9511 -0.3090 -0.0000
vn -0.5878 0.8090 -0.0000
vn 0.9511 -0.3090 -0.0000
vn 0.5878 0.8090 -0.0000
vn 0.0374 -0.0187 0.9991
vn 0.0187 0.0374 0.9991
vn 0.0417 0.0025 0.9991
vn 0.0349 0.0230 0.9991
vn -0.0025 0.0417 0.9991
vn -0.0230 0.0349 0.9991
vn -0.0374 0.0187 0.9991
vn -0.0349 -0.0230 0.9991
vn 0.0025 -0.0417 0.9991
vn 0.3590 -0.6219 -0.6959
vn -0.3591 -0.6219 -0.6959
vn -0.7181 0.0001 -0.6959
vn -0.6218 0.3592 -0.6959
vn -0.3589 0.6220 -0.6959
vn 0.3589 0.6220 -0.6959
vn 0.6220 0.3589 -0.6959
vn 0.7181 -0.0000 -0.6959
vn 0.3589 -0.6220 -0.6959
vn -0.6220 -0.3589 -0.6959
vn -0.6220 0.3589 -0.6959
vn -0.3590 0.6219 -0.6959
vn 0.3592 0.6218 -0.6959
vt 0.294009 0.877017
vt 0.294970 0.876055
vt 0.299133 0.876685
vt 0.299133 0.879976
vt 0.296284 0.881621
vt 0.294638 0.873331
vt 0.296284 0.883331
vt 0.296284 0.873331
vt 0.293434 0.883331
vt 0.293434 0.873331
vt 0.297929 0.883331
vt 0.297929 0.873331
vt 0.294638 0.883331
vt 0.299133 0.873331
vt 0.294970 0.880606
vt 0.296284 0.880958
vt 0.294009 0.879644
vt 0.294638 0.881180
vt 0.293657 0.878331
vt 0.293434 0.879976
vt 0.292993 0.878331
vt 0.293434 0.876685
vt 0.296284 0.875040
vt 0.294638 0.875481
vt 0.297597 0.876056
vt 0.296284 0.875704
vt 0.298559 0.877017
vt 0.297929 0.875481
vt 0.298911 0.878331
vt 0.298559 0.879644
vt 0.299574 0.878331
vt 0.297597 0.880606
vt 0.297929 0.881180
vt 0.132252 0.955036
vt 0.134527 0.953723
vt 0.132252 0.949782
vt 0.029607 0.956246
vt 0.031423 0.950656
vt 0.034362 0.959701
vt 0.037301 0.950656
vt 0.039118 0.956246
vt 0.299133 0.883331
vt 0.129977 0.953723
vt 0.130939 0.954684
vt 0.133566 0.954684
vt 0.134879 0.952409
vt 0.134527 0.951096
vt 0.133566 0.950134
vt 0.130939 0.950134
vt 0.129977 0.951096
vt 0.129625 0.952409
s 1
usemtl Palette
f 5/1/1 42/2/2 6/2/3
s 2
f 21/3/4 23/4/5 14/5/6
s 3
f 25/6/7 14/7/8 26/8/9
f 33/6/10 20/9/11 32/10/12
f 30/6/13 17/9/14 29/10/15
f 26/8/9 24/11/16 36/12/17
f 27/10/18 13/13/19 25/6/7
f 34/8/20 21/13/21 33/6/10
f 31/8/22 18/13/23 30/6/13
f 28/8/24 15/11/25 27/12/18
f 35/12/26 22/7/27 34/8/20
f 32/12/12 19/7/28 31/8/22
f 29/6/15 16/7/29 28/8/24
f 36/14/17 23/11/30 35/12/26
s 4
f 2/15/31 26/5/32 1/16/31
f 3/17/31 25/18/33 2/15/31
f 4/19/31 27/20/34 3/17/31
f 5/1/31 28/21/35 4/19/31
f 6/2/31 29/22/36 5/1/31
f 6/2/31 31/23/37 30/24/38
f 8/25/31 31/23/37 7/26/31
f 9/27/31 32/28/39 8/25/31
f 10/29/31 33/3/40 9/27/31
f 11/30/31 34/31/41 10/29/31
f 12/32/31 35/4/42 11/30/31
f 12/32/31 26/5/32 36/33/43
s 5
f 38/34/44 47/35/45 43/36/46
s 1
f 12/32/47 38/16/48 1/16/49
f 3/17/50 37/15/51 39/17/52
f 9/27/53 46/29/54 10/29/55
f 6/2/3 43/26/56 7/26/57
f 3/17/50 40/19/58 4/19/59
f 10/29/55 47/30/60 11/30/61
f 8/25/62 43/26/56 44/25/63
f 5/1/1 40/19/58 41/1/64
f 11/30/61 48/32/65 12/32/47
f 2/15/66 38/16/48 37/15/51
f 8/25/62 45/27/67 9/27/53
s 8
f 73/37/95 76/38/95 75/37/95
s 9
f 79/39/96 75/37/96 74/39/96
s 10
f 81/40/97 78/41/97 77/40/97
s 11
f 80/38/49 77/40/49 76/38/49
s 12
f 82/41/98 74/39/98 78/41/98
s 1
f 5/1/1 41/1/64 42/2/2
s 2
f 14/5/6 13/18/99 17/22/100
f 13/18/99 15/20/101 17/22/100
f 15/20/101 16/21/102 17/22/100
f 17/22/100 18/24/103 19/23/104
f 19/23/104 20/28/105 21/3/4
f 21/3/4 22/31/106 23/4/5
f 23/4/5 24/33/107 14/5/6
f 17/22/100 19/23/104 14/5/6
f 19/23/104 21/3/4 14/5/6
s 3
f 25/6/7 13/13/19 14/7/8
f 33/6/10 21/13/21 20/9/11
f 30/6/13 18/13/23 17/9/14
f 26/8/9 14/7/8 24/11/16
f 27/10/18 15/9/25 13/13/19
f 34/8/20 22/7/27 21/13/21
f 31/8/22 19/7/28 18/13/23
f 28/8/24 16/7/29 15/11/25
f 35/12/26 23/11/30 22/7/27
f 32/12/12 20/11/11 19/7/28
f 29/6/15 17/13/14 16/7/29
f 36/14/17 24/42/16 23/11/30
s 4
f 2/15/31 25/18/33 26/5/32
f 3/17/31 27/20/34 25/18/33
f 4/19/31 28/21/35 27/20/34
f 5/1/31 29/22/36 28/21/35
f 6/2/31 30/24/38 29/22/36
f 6/2/31 7/26/31 31/23/37
f 8/25/31 32/28/39 31/23/37
f 9/27/31 33/3/40 32/28/39
f 10/29/31 34/31/41 33/3/40
f 11/30/31 35/4/42 34/31/41
f 12/32/31 36/33/43 35/4/42
f 12/32/31 1/16/31 26/5/32
s 5
f 39/43/81 37/44/108 38/34/44
f 38/34/44 48/45/109 47/35/45
f 47/35/45 46/46/110 43/36/46
f 46/46/110 45/47/111 43/36/46
f 45/47/111 44/48/112 43/36/46
f 43/36/46 42/49/113 41/50/114
f 41/50/114 40/51/115 43/36/46
f 40/51/115 39/43/81 43/36/46
f 39/43/81 38/34/44 43/36/46
s 1
f 12/32/47 48/32/65 38/16/48
f 3/17/50 2/15/66 37/15/51
f 9/27/53 45/27/67 46/29/54
f 6/2/3 42/2/2 43/26/56
f 3/17/50 39/17/52 40/19/58
f 10/29/55 46/29/54 47/30/60
f 8/25/62 7/26/57 43/26/56
f 5/1/1 4/19/59 40/19/58
f 11/30/61 47/30/60 48/32/65
f 2/15/66 1/16/49 38/16/48
f 8/25/62 44/25/63 45/27/67
s 8
f 73/37/95 80/38/95 76/38/95
s 9
f 79/39/96 73/37/96 75/37/96
s 10
f 81/40/97 82/41/97 78/41/97
s 11
f 80/38/49 81/40/49 77/40/49
s 12
f 82/41/98 79/39/98 74/39/98
s 6
usemtl Light
f 66/19/68 62/17/69 61/19/70
f 49/16/71 53/32/72 63/16/73
f 50/15/74 63/16/73 64/15/75
f 71/27/76 57/25/77 56/27/78
s 7
f 58/26/79 60/1/80 62/17/81
s 6
f 72/25/82 58/26/83 57/25/77
f 51/2/84 60/1/85 59/2/86
f 70/29/87 56/27/78 55/29/88
f 65/17/89 64/15/75 62/17/69
f 68/32/90 54/30/91 53/32/72
f 69/30/92 55/29/88 54/30/91
f 52/26/93 59/2/86 58/26/83
f 67/1/94 61/19/70 60/1/85
f 66/19/68 65/17/89 62/17/69
f 49/16/71 68/32/90 53/32/72
f 50/15/74 49/16/71 63/16/73
f 71/27/76 72/25/82 57/25/77
s 7
f 62/17/81 64/15/116 63/16/44
f 63/16/44 53/32/109 54/30/117
f 54/30/117 55/29/110 56/27/118
f 56/27/118 57/25/119 58/26/79
f 58/26/79 59/2/120 60/1/80
f 60/1/80 61/19/115 62/17/81
f 62/17/81 63/16/44 58/26/79
f 63/16/44 54/30/117 58/26/79
f 54/30/117 56/27/118 58/26/79
s 6
f 72/25/82 52/26/93 58/26/83
f 51/2/84 67/1/94 60/1/85
f 70/29/87 71/27/76 56/27/78
f 65/17/89 50/15/74 64/15/75
f 68/32/90 69/30/92 54/30/91
f 69/30/92 70/29/87 55/29/88
f 52/26/93 51/2/84 59/2/86
f 67/1/94 66/19/68 61/19/70
