# Blender 5.0.1
# www.blender.org
mtllib Ceiling_Lamp_1.mtl
o Ceiling_Lamp_1
v -0.539028 -0.082864 0.026508
v 0.539028 -0.082864 0.026508
v -0.539028 0.082863 0.026508
v 0.539028 0.082863 0.026508
v 0.530484 0.074319 -0.037918
v -0.530484 0.074319 -0.037918
v 0.530484 -0.074320 -0.037918
v -0.530484 -0.074320 -0.037918
v 0.539028 0.082863 -0.037918
v -0.539028 0.082863 -0.037918
v 0.539028 -0.082864 -0.037918
v -0.539028 -0.082864 -0.037918
v 0.530484 0.074319 -0.028019
v -0.530484 0.074319 -0.028019
v 0.530484 -0.074320 -0.028019
v -0.530484 -0.074320 -0.028019
v 0.517829 0.040498 -0.044050
v -0.517829 0.040498 -0.044050
v 0.517829 -0.040498 -0.044050
v -0.517829 -0.040498 -0.044050
v 0.517829 0.040498 -0.024962
v -0.517829 0.040498 -0.024962
v 0.517829 -0.040498 -0.024962
v -0.517829 -0.040498 -0.024962
v -0.448584 -0.037816 0.066954
v 0.448584 -0.037816 0.066954
v -0.448584 0.037816 0.066954
v 0.448584 0.037816 0.066954
v -0.448584 0.037816 0.018482
v -0.448584 -0.037816 0.018482
v 0.448584 -0.037816 0.018482
v 0.448584 0.037816 0.018482
vn 1.0000 -0.0000 -0.0000
vn -0.0000 1.0000 -0.0000
vn -0.0000 -1.0000 -0.0000
vn -1.0000 -0.0000 -0.0000
vn -0.0000 -0.0000 -1.0000
vn -0.0000 -0.0000 1.0000
vt 0.153080 0.988357
vt 0.153080 0.938357
vt 0.103080 0.988357
vt 0.103476 0.940935
vt 0.152684 0.940935
vt 0.103080 0.938357
vt 0.103476 0.985780
vt 0.152684 0.985780
vt 0.102598 0.817821
vt 0.151806 0.772977
vt 0.102598 0.772977
vt 0.151806 0.817821
vt 0.233875 0.850472
vt 0.233875 0.900472
vt 0.183875 0.900472
vt 0.183875 0.850472
s 0
usemtl Palette
f 9/1/1 2/2/1 11/2/1
f 10/3/2 4/1/2 9/1/2
f 8/4/2 15/5/2 7/5/2
f 11/2/3 1/6/3 12/6/3
f 12/6/4 3/3/4 10/3/4
f 6/7/5 9/1/5 5/8/5
f 5/8/5 11/2/5 7/5/5
f 7/5/5 12/6/5 8/4/5
f 8/4/5 10/3/5 6/7/5
f 14/7/5 15/5/5 16/4/5
f 5/8/3 14/7/3 6/7/3
f 6/7/1 16/4/1 8/4/1
f 7/5/4 13/8/4 5/8/4
f 1/6/6 4/1/6 3/3/6
f 31/13/1 28/14/1 26/13/1
f 29/15/4 25/16/4 27/15/4
f 32/14/2 27/15/2 28/14/2
f 30/16/3 26/13/3 25/16/3
f 9/1/1 4/1/1 2/2/1
f 10/3/2 3/3/2 4/1/2
f 8/4/2 16/4/2 15/5/2
f 11/2/3 2/2/3 1/6/3
f 12/6/4 1/6/4 3/3/4
f 6/7/5 10/3/5 9/1/5
f 5/8/5 9/1/5 11/2/5
f 7/5/5 11/2/5 12/6/5
f 8/4/5 12/6/5 10/3/5
f 14/7/5 13/8/5 15/5/5
f 5/8/3 13/8/3 14/7/3
f 6/7/1 14/7/1 16/4/1
f 7/5/4 15/5/4 13/8/4
f 1/6/6 2/2/6 4/1/6
f 31/13/1 32/14/1 28/14/1
f 29/15/4 30/16/4 25/16/4
f 32/14/2 29/15/2 27/15/2
f 30/16/3 31/13/3 26/13/3
usemtl Light
f 18/9/5 19/10/5 20/11/5
f 22/9/2 17/12/2 18/9/2
f 24/11/4 18/9/4 20/11/4
f 21/12/1 19/10/1 17/12/1
f 23/10/3 20/11/3 19/10/3
f 18/9/5 17/12/5 19/10/5
f 22/9/2 21/12/2 17/12/2
f 24/11/4 22/9/4 18/9/4
f 21/12/1 23/10/1 19/10/1
f 23/10/3 24/11/3 20/11/3
