# Blender 5.0.1
# www.blender.org
mtllib Chair_Base.mtl
o Chair_Base
v -0.014449 -0.016915 0.359016
v -0.020182 -0.003075 0.359016
v -0.014449 0.010765 0.359016
v -0.025093 -0.027382 0.359016
v -0.035162 -0.003074 0.359016
v -0.025093 0.021233 0.359016
v -0.025093 -0.027382 0.244347
v -0.035162 -0.003075 0.244347
v -0.025093 0.021233 0.244347
v -0.038222 -0.040363 0.244347
v -0.053667 -0.003075 0.244347
v -0.038222 0.034213 0.244347
v -0.038222 -0.040363 0.184101
v -0.053667 -0.003075 0.184101
v -0.038222 0.034213 0.184101
v 0.000000 -0.022648 0.359016
v 0.014449 -0.016915 0.359016
v 0.020182 -0.003075 0.359016
v 0.014449 0.010765 0.359016
v -0.000000 0.016498 0.359016
v 0.000000 -0.037451 0.359016
v 0.025093 -0.027382 0.359016
v 0.035162 -0.003074 0.359016
v 0.025093 0.021233 0.359016
v -0.000000 0.031302 0.359016
v 0.000000 -0.037451 0.244347
v 0.025093 -0.027382 0.244347
v 0.035162 -0.003074 0.244347
v 0.025093 0.021233 0.244347
v -0.000000 0.031302 0.244347
v 0.000000 -0.055808 0.244347
v 0.038222 -0.040363 0.244347
v 0.053667 -0.003075 0.244347
v 0.038222 0.034213 0.244347
v -0.000000 0.049658 0.244347
v 0.000000 -0.055808 0.184101
v 0.038222 -0.040363 0.184101
v 0.053667 -0.003075 0.184101
v 0.038222 0.034213 0.184101
v -0.000000 0.049658 0.184101
v -0.023553 0.029719 0.232324
v -0.023553 0.029719 0.199404
v -0.011047 0.367353 0.096141
v -0.011047 0.367353 0.119888
v -0.005974 0.353725 0.108016
v -0.005975 0.364470 0.108016
v -0.005974 0.353725 0.072816
v -0.005975 0.364470 0.072816
v 0.023553 0.029719 0.232324
v 0.023553 0.029719 0.199404
v 0.011047 0.367353 0.096141
v 0.011047 0.367353 0.119888
v -0.000000 0.353725 0.108016
v 0.005974 0.353725 0.108016
v 0.005974 0.364470 0.108016
v -0.000000 0.353725 0.072816
v 0.005974 0.353725 0.072816
v 0.005974 0.364470 0.072816
v -0.029719 -0.023553 0.232324
v -0.029719 -0.023553 0.199404
v -0.367353 -0.011047 0.096141
v -0.367353 -0.011047 0.119888
v -0.353725 -0.005975 0.108016
v -0.364470 -0.005975 0.108016
v -0.353725 -0.005975 0.072816
v -0.364470 -0.005975 0.072816
v -0.029719 0.023553 0.232324
v -0.029719 0.023553 0.199404
v -0.367353 0.011047 0.096141
v -0.367353 0.011047 0.119888
v -0.353725 -0.000000 0.108016
v -0.353725 0.005974 0.108016
v -0.364470 0.005974 0.108016
v -0.353725 -0.000000 0.072816
v -0.353725 0.005974 0.072816
v -0.364470 0.005974 0.072816
v 0.023553 -0.029719 0.232324
v 0.023553 -0.029719 0.199404
v 0.011047 -0.367353 0.096141
v 0.011047 -0.367353 0.119888
v 0.005975 -0.353725 0.108016
v 0.005975 -0.364470 0.108016
v 0.005975 -0.353725 0.072816
v 0.005975 -0.364470 0.072816
v -0.023553 -0.029719 0.232324
v -0.023553 -0.029719 0.199404
v -0.011047 -0.367353 0.096141
v -0.011047 -0.367353 0.119888
v 0.000000 -0.353725 0.108016
v -0.005974 -0.353725 0.108016
v -0.005974 -0.364470 0.108016
v 0.000000 -0.353725 0.072816
v -0.005974 -0.353725 0.072816
v -0.005974 -0.364470 0.072816
v 0.029719 0.023553 0.232324
v 0.029719 0.023553 0.199404
v 0.367353 0.011047 0.096141
v 0.367353 0.011047 0.119888
v 0.353725 0.005975 0.108016
v 0.364470 0.005975 0.108016
v 0.353725 0.005975 0.072816
v 0.364470 0.005975 0.072816
v 0.029719 -0.023553 0.232324
v 0.029719 -0.023553 0.199404
v 0.367353 -0.011047 0.096141
v 0.367353 -0.011047 0.119888
v 0.353725 0.000000 0.108016
v 0.353725 -0.005974 0.108016
v 0.364470 -0.005974 0.108016
v 0.353725 0.000000 0.072816
v 0.353725 -0.005974 0.072816
v 0.364470 -0.005974 0.072816
vn -0.0000 -0.0000 1.0000
vn -0.3734 0.6552 0.6567
vn -0.3299 0.3455 0.8785
vn -0.3298 -0.3455 0.8785
vn -0.0000 -0.4716 0.8818
vn -0.6561 -0.3708 0.6573
vn -0.3169 0.8940 0.3169
vn -0.8544 0.4100 0.3192
vn -0.4005 -0.8589 0.3193
vn -0.8929 -0.3184 0.3185
vn 0.3169 -0.8940 0.3169
vn -0.0382 0.3879 0.9209
vn -0.2859 0.0277 0.9579
vn 0.0836 -0.2756 0.9576
vn -0.1138 -0.3730 0.9208
vn 0.2770 0.0847 0.9571
vn -0.3871 -0.0414 0.9211
vn 0.2495 0.2997 0.9208
vn -0.1823 0.2251 0.9571
vn -0.1348 -0.2536 0.9579
vn -0.3437 -0.1837 0.9209
vn 0.2527 -0.1365 0.9579
vn -0.3011 0.2478 0.9208
vn -0.8425 0.4683 0.2661
vn -0.8551 0.3540 -0.3787
vn -1.0000 0.0031 -0.0000
vn -0.6049 -0.7887 -0.1099
vn -0.1104 -0.9877 0.1108
vn -0.4614 -0.8459 0.2676
vn -0.1104 0.9877 -0.1109
vn -0.6979 0.7162 0.0001
vn -0.2569 0.9293 0.2653
vn -0.9270 -0.2650 0.2653
vn -0.8546 -0.3540 -0.3798
vn -0.7101 -0.7041 -0.0000
vn -0.3013 0.2312 -0.9251
vn -0.0472 0.3758 -0.9255
vn 0.2770 -0.0847 -0.9571
vn 0.7244 -0.2070 0.6576
vn 0.1989 0.7266 0.6576
vn 0.4004 0.8589 0.3192
vn 0.8544 -0.4100 0.3192
vn 0.4756 -0.0001 0.8797
vn 0.8928 0.3185 0.3185
vn 0.3437 0.1837 0.9209
vn -0.2528 0.1364 0.9579
vn 0.3011 -0.2478 0.9208
vn 0.1823 -0.2251 0.9571
vn -0.2495 -0.2998 0.9208
vn 0.1826 -0.3439 0.9211
vn 0.1138 0.3730 0.9208
vn -0.2770 -0.0847 0.9571
vn 0.3871 0.0414 0.9211
vn 0.2859 -0.0277 0.9579
vn 0.0382 -0.3879 0.9209
vn 0.3737 -0.1116 0.9208
vn 0.9866 0.1206 -0.1102
vn 0.7101 0.7041 -0.0000
vn 0.9270 0.2650 0.2653
vn 0.4614 -0.8459 -0.2677
vn 0.2569 -0.9293 0.2653
vn 0.1104 -0.9877 -0.1109
vn 0.3467 0.8581 -0.3787
vn 0.4614 0.8459 0.2676
vn 0.6049 0.7887 -0.1099
vn 0.7834 -0.6117 -0.1099
vn 1.0000 -0.0031 -0.0000
vn 0.8425 -0.4683 0.2661
vn -0.2770 0.0847 -0.9571
vn 0.1823 0.2251 -0.9571
vn 0.3754 0.0505 -0.9255
vn -0.0000 0.3160 0.9488
vn -0.0000 -0.2925 -0.9563
vn -0.0000 1.0000 -0.0000
vn -0.9993 0.0370 -0.0000
vn -0.0000 -1.0000 -0.0000
vn -1.0000 -0.0000 -0.0000
vn 0.9993 0.0370 -0.0000
vn 1.0000 -0.0000 -0.0000
vn -0.3160 -0.0000 0.9488
vn 0.2925 -0.0000 -0.9563
vn -0.0370 -0.9993 -0.0000
vn -0.0370 0.9993 -0.0000
vn -0.0000 -0.3160 0.9488
vn -0.0000 0.2925 -0.9563
vn 0.9993 -0.0370 -0.0000
vn -0.9993 -0.0370 -0.0000
vn 0.3160 -0.0000 0.9488
vn -0.2925 -0.0000 -0.9563
vn 0.0370 0.9993 -0.0000
vn 0.0370 -0.9993 -0.0000
vn -0.3737 0.1116 0.9208
vn -0.1137 -0.3730 0.9208
vn -0.0267 -0.2860 0.9579
vn 0.2495 0.2998 0.9208
vn -0.1826 0.3439 0.9211
vn -0.2227 -0.1827 0.9576
vn -0.7834 0.6117 -0.1100
vn -0.8551 0.3541 -0.3787
vn -0.3467 -0.8581 -0.3787
vn -0.1104 -0.9877 0.1109
vn -0.1104 0.9877 -0.1108
vn -0.4614 0.8459 -0.2676
vn -0.9866 -0.1206 -0.1102
vn -0.1823 -0.2251 -0.9571
vn -0.3754 -0.0505 -0.9255
vn 0.2227 0.1827 0.9576
vn -0.2527 0.1365 0.9579
vn 0.1349 0.2536 0.9579
vn -0.2495 -0.2997 0.9208
vn 0.0267 0.2860 0.9579
vn 0.2859 -0.0278 0.9579
vn -0.0836 0.2756 0.9576
vn 0.8546 0.3540 -0.3798
vn 0.4614 -0.8459 -0.2676
vn 0.6979 -0.7162 -0.0000
vn 0.2570 -0.9293 0.2654
vn 0.1104 0.9877 0.1109
vn 0.4614 0.8459 0.2677
vn 0.8551 -0.3542 -0.3787
vn 0.3013 -0.2312 -0.9251
vn 0.0472 -0.3758 -0.9255
vt 0.111101 0.965232
vt 0.104851 0.965232
vt 0.117351 0.965232
vt 0.123601 0.965232
vt 0.129851 0.965232
vt 0.134223 0.970610
vt 0.149856 0.970610
vt 0.201205 0.973045
vt 0.219955 0.973045
vt 0.207455 0.973045
vt 0.213705 0.973045
vt 0.226205 0.973045
s 1
usemtl Palette
f 3/1/1 25/2/2 6/1/3
f 2/3/1 4/4/4 1/4/1
f 1/4/1 21/5/5 16/5/1
f 2/3/1 6/1/3 5/3/6
f 6/1/3 30/2/7 9/1/8
f 5/3/6 7/4/9 4/4/4
f 6/1/3 8/3/10 5/3/6
f 4/4/4 26/5/11 21/5/5
s 0
f 8/3/12 12/1/13 11/3/14
f 7/4/15 31/5/16 26/5/17
f 9/1/18 35/2/19 12/1/20
f 8/3/21 10/4/22 7/4/23
f 11/3/24 15/1/25 14/3/26
f 10/4/27 36/5/28 31/5/29
f 35/2/30 15/1/31 12/1/32
f 10/4/33 14/3/34 13/4/35
f 14/3/36 15/1/37 40/2/38
s 1
f 19/1/1 25/2/2 20/2/1
f 22/4/39 18/3/1 17/4/1
f 21/5/5 17/4/1 16/5/1
f 18/3/1 24/1/40 19/1/1
f 29/1/41 25/2/2 24/1/40
f 27/4/42 23/3/43 22/4/39
f 28/3/44 24/1/40 23/3/43
f 26/5/11 22/4/39 21/5/5
s 0
f 28/3/45 34/1/46 29/1/47
f 31/5/48 27/4/49 26/5/50
f 29/1/51 35/2/52 30/2/53
f 32/4/54 28/3/55 27/4/56
f 33/3/57 39/1/58 34/1/59
f 36/5/60 32/4/61 31/5/62
f 39/1/63 35/2/64 34/1/65
f 32/4/66 38/3/67 33/3/68
f 36/5/69 40/2/70 39/1/71
f 52/6/72 41/6/72 49/6/72
f 51/6/73 42/6/73 43/6/73
f 58/6/74 46/6/74 55/6/74
f 42/6/75 44/6/75 43/6/75
f 45/6/76 56/7/76 53/7/76
f 45/6/77 48/6/77 47/6/77
f 50/6/78 52/6/78 49/6/78
f 56/7/76 54/6/76 53/7/76
f 54/6/79 58/6/79 55/6/79
f 52/6/74 43/6/74 44/6/74
f 70/6/80 59/6/80 67/6/80
f 69/6/81 60/6/81 61/6/81
f 76/6/77 64/6/77 73/6/77
f 60/6/82 62/6/82 61/6/82
f 63/6/79 74/7/79 71/7/79
f 63/6/76 66/6/76 65/6/76
f 68/6/83 70/6/83 67/6/83
f 74/7/79 72/6/79 71/7/79
f 72/6/74 76/6/74 73/6/74
f 70/6/77 61/6/77 62/6/77
f 88/6/84 77/6/84 85/6/84
f 87/6/85 78/6/85 79/6/85
f 94/6/76 82/6/76 91/6/76
f 78/6/86 80/6/86 79/6/86
f 81/6/74 92/7/74 89/7/74
f 81/6/79 84/6/79 83/6/79
f 86/6/87 88/6/87 85/6/87
f 92/7/74 90/6/74 89/7/74
f 90/6/77 94/6/77 91/6/77
f 88/6/76 79/6/76 80/6/76
f 106/6/88 95/6/88 103/6/88
f 105/6/89 96/6/89 97/6/89
f 112/6/79 100/6/79 109/6/79
f 96/6/90 98/6/90 97/6/90
f 99/6/77 110/7/77 107/7/77
f 99/6/74 102/6/74 101/6/74
f 104/6/91 106/6/91 103/6/91
f 110/7/77 108/6/77 107/7/77
f 108/6/76 112/6/76 109/6/76
f 106/6/79 97/6/79 98/6/79
s 1
f 20/8/1 17/9/1 19/10/1
f 20/8/1 3/10/1 1/9/1
f 3/10/1 2/11/1 1/9/1
f 1/9/1 16/12/1 20/8/1
f 16/12/1 17/9/1 20/8/1
f 17/9/1 18/11/1 19/10/1
f 3/1/1 20/2/1 25/2/2
f 2/3/1 5/3/6 4/4/4
f 1/4/1 4/4/4 21/5/5
f 2/3/1 3/1/1 6/1/3
f 6/1/3 25/2/2 30/2/7
f 5/3/6 8/3/10 7/4/9
f 6/1/3 9/1/8 8/3/10
f 4/4/4 7/4/9 26/5/11
s 0
f 8/3/12 9/1/92 12/1/13
f 7/4/93 10/4/94 31/5/16
f 9/1/95 30/2/96 35/2/19
f 8/3/21 11/3/97 10/4/22
f 11/3/24 12/1/98 15/1/99
f 10/4/27 13/4/100 36/5/101
f 35/2/102 40/2/103 15/1/31
f 10/4/33 11/3/104 14/3/34
f 36/5/105 13/4/106 40/2/38
f 13/4/106 14/3/36 40/2/38
s 1
f 19/1/1 24/1/40 25/2/2
f 22/4/39 23/3/43 18/3/1
f 21/5/5 22/4/39 17/4/1
f 18/3/1 23/3/43 24/1/40
f 29/1/41 30/2/7 25/2/2
f 27/4/42 28/3/44 23/3/43
f 28/3/44 29/1/41 24/1/40
f 26/5/11 27/4/42 22/4/39
s 0
f 28/3/45 33/3/107 34/1/108
f 31/5/48 32/4/109 27/4/110
f 29/1/51 34/1/111 35/2/52
f 32/4/112 33/3/113 28/3/55
f 33/3/57 38/3/114 39/1/58
f 36/5/115 37/4/116 32/4/117
f 39/1/63 40/2/118 35/2/119
f 32/4/66 37/4/120 38/3/67
f 38/3/121 37/4/122 39/1/71
f 37/4/122 36/5/69 39/1/71
f 52/6/72 44/6/72 41/6/72
f 51/6/73 50/6/73 42/6/73
f 58/6/74 48/6/74 46/6/74
f 42/6/75 41/6/75 44/6/75
f 45/6/76 47/6/76 56/7/76
f 45/6/77 46/6/77 48/6/77
f 50/6/78 51/6/78 52/6/78
f 56/7/76 57/6/76 54/6/76
f 54/6/79 57/6/79 58/6/79
f 52/6/74 51/6/74 43/6/74
f 70/6/80 62/6/80 59/6/80
f 69/6/81 68/6/81 60/6/81
f 76/6/77 66/6/77 64/6/77
f 60/6/82 59/6/82 62/6/82
f 63/6/79 65/6/79 74/7/79
f 63/6/76 64/6/76 66/6/76
f 68/6/83 69/6/83 70/6/83
f 74/7/79 75/6/79 72/6/79
f 72/6/74 75/6/74 76/6/74
f 70/6/77 69/6/77 61/6/77
f 88/6/84 80/6/84 77/6/84
f 87/6/85 86/6/85 78/6/85
f 94/6/76 84/6/76 82/6/76
f 78/6/86 77/6/86 80/6/86
f 81/6/74 83/6/74 92/7/74
f 81/6/79 82/6/79 84/6/79
f 86/6/87 87/6/87 88/6/87
f 92/7/74 93/6/74 90/6/74
f 90/6/77 93/6/77 94/6/77
f 88/6/76 87/6/76 79/6/76
f 106/6/88 98/6/88 95/6/88
f 105/6/89 104/6/89 96/6/89
f 112/6/79 102/6/79 100/6/79
f 96/6/90 95/6/90 98/6/90
f 99/6/77 101/6/77 110/7/77
f 99/6/74 100/6/74 102/6/74
f 104/6/91 105/6/91 106/6/91
f 110/7/77 111/6/77 108/6/77
f 108/6/76 111/6/76 112/6/76
f 106/6/79 105/6/79 97/6/79
