# Blender 5.0.1
# www.blender.org
mtllib Chair_3.mtl
o Chair_3
v -0.274033 0.218921 0.632282
v -0.274033 0.064626 0.638677
v -0.274033 0.158059 0.634464
v -0.274033 0.257365 0.637560
v -0.274033 0.271219 0.664256
v -0.274033 0.293601 0.753785
v -0.258784 0.309588 0.952916
v -0.274033 0.221907 0.597099
v -0.274033 0.063374 0.603677
v -0.274033 0.155976 0.599524
v -0.274033 0.280889 0.606905
v -0.274033 0.304177 0.651781
v -0.274033 0.328395 0.748651
v -0.258784 0.344503 0.950308
v -0.088930 0.104418 0.610345
v -0.228094 0.265044 0.000000
v -0.218794 0.268896 0.000000
v -0.214942 0.278196 0.000000
v -0.218794 0.287496 0.000000
v -0.228094 0.291348 0.000000
v -0.237394 0.287496 0.000000
v -0.241247 0.278196 0.000000
v -0.237394 0.268896 0.000000
v -0.098041 0.100644 0.610345
v -0.085156 0.113529 0.610345
v -0.088930 0.122640 0.610345
v -0.098041 0.126414 0.610345
v -0.107152 0.122640 0.610345
v -0.110926 0.113529 0.610345
v -0.107152 0.104418 0.610345
v -0.088930 -0.095570 0.610345
v -0.228094 -0.264534 0.000000
v -0.218794 -0.260682 0.000000
v -0.214942 -0.251382 0.000000
v -0.218794 -0.242082 0.000000
v -0.228094 -0.238229 0.000000
v -0.237394 -0.242082 0.000000
v -0.241246 -0.251382 0.000000
v -0.237394 -0.260682 0.000000
v -0.098041 -0.099344 0.610345
v -0.085156 -0.086459 0.610345
v -0.088930 -0.077348 0.610345
v -0.098041 -0.073574 0.610345
v -0.107152 -0.077348 0.610345
v -0.110926 -0.086459 0.610345
v -0.107152 -0.095570 0.610345
v -0.274034 -0.213639 0.638677
v -0.202863 -0.284809 0.638677
v -0.264499 -0.249224 0.638677
v -0.238448 -0.275274 0.638677
v -0.202863 -0.284809 0.603677
v -0.274034 -0.213639 0.603677
v -0.238448 -0.275274 0.603677
v -0.264499 -0.249224 0.603677
v -0.165500 -0.168177 0.324734
v -0.108291 0.118860 0.583381
v -0.164955 -0.160926 0.318922
v -0.107874 0.124568 0.578806
v -0.159708 -0.161302 0.318922
v -0.160253 -0.168553 0.324734
v -0.103872 0.124273 0.578806
v -0.104289 0.118565 0.583381
v -0.164919 -0.157288 0.327715
v 0.103905 -0.090384 0.585719
v -0.158020 -0.156395 0.321903
v 0.109189 -0.089681 0.581143
v -0.157377 -0.161614 0.321903
v -0.164276 -0.162507 0.327715
v 0.109680 -0.093772 0.581143
v 0.104396 -0.094475 0.585719
v -0.106289 0.335446 1.207914
v -0.246971 0.318810 1.043855
v -0.149762 0.334632 1.199885
v -0.188979 0.332269 1.176582
v -0.220103 0.328588 1.140287
v -0.240085 0.323951 1.094552
v -0.246971 0.353631 1.040324
v -0.106289 0.370268 1.204384
v -0.240085 0.358772 1.091021
v -0.220103 0.363410 1.136756
v -0.188979 0.367090 1.173051
v -0.149762 0.369454 1.196354
v 0.274033 0.218921 0.632282
v 0.274033 0.064626 0.638677
v 0.274033 0.158059 0.634464
v 0.274033 0.257365 0.637560
v 0.274033 0.271219 0.664256
v 0.274033 0.293601 0.753785
v 0.258784 0.309588 0.952916
v 0.274033 0.221907 0.597099
v 0.274033 0.063374 0.603677
v 0.274033 0.155976 0.599524
v 0.274033 0.280889 0.606905
v 0.274033 0.304177 0.651781
v 0.274033 0.328395 0.748651
v 0.258784 0.344503 0.950308
v 0.088930 0.104418 0.610345
v 0.228094 0.265044 0.000000
v 0.218794 0.268896 0.000000
v 0.214942 0.278196 0.000000
v 0.218794 0.287496 0.000000
v 0.228094 0.291348 0.000000
v 0.237394 0.287496 0.000000
v 0.241247 0.278196 0.000000
v 0.237394 0.268896 0.000000
v 0.098041 0.100644 0.610345
v 0.085156 0.113529 0.610345
v 0.088930 0.122640 0.610345
v 0.098041 0.126414 0.610345
v 0.107152 0.122640 0.610345
v 0.110926 0.113529 0.610345
v 0.107152 0.104418 0.610345
v 0.088930 -0.095570 0.610345
v 0.228094 -0.264534 0.000000
v 0.218794 -0.260682 0.000000
v 0.214942 -0.251382 0.000000
v 0.218794 -0.242082 0.000000
v 0.228094 -0.238229 0.000000
v 0.237394 -0.242082 0.000000
v 0.241246 -0.251382 0.000000
v 0.237394 -0.260682 0.000000
v 0.098041 -0.099344 0.610345
v 0.085156 -0.086459 0.610345
v 0.088930 -0.077348 0.610345
v 0.098041 -0.073574 0.610345
v 0.107152 -0.077348 0.610345
v 0.110926 -0.086459 0.610345
v 0.107152 -0.095570 0.610345
v 0.274034 -0.213639 0.638677
v 0.202863 -0.284809 0.638677
v 0.264499 -0.249224 0.638677
v 0.238448 -0.275274 0.638677
v 0.202863 -0.284809 0.603677
v 0.274034 -0.213639 0.603677
v 0.238448 -0.275274 0.603677
v 0.264499 -0.249224 0.603677
v 0.106289 0.335446 1.207914
v 0.246971 0.318810 1.043855
v 0.149762 0.334632 1.199885
v 0.188979 0.332269 1.176582
v 0.220103 0.328588 1.140287
v 0.240085 0.323951 1.094552
v 0.246971 0.353631 1.040324
v 0.106289 0.370268 1.204384
v 0.240085 0.358772 1.091021
v 0.220103 0.363410 1.136756
v 0.188979 0.367090 1.173051
v 0.149762 0.369454 1.196354
v 0.163737 0.198584 0.324734
v 0.106528 -0.090340 0.583381
v 0.163192 0.191333 0.318922
v 0.106111 -0.096049 0.578806
v 0.157945 0.191709 0.318922
v 0.158490 0.198960 0.324734
v 0.102109 -0.095754 0.578806
v 0.102526 -0.090046 0.583381
v 0.163156 0.187696 0.327715
v -0.105669 0.118904 0.585719
v 0.156257 0.186803 0.321903
v -0.110953 0.118201 0.581143
v 0.155614 0.192021 0.321903
v 0.162513 0.192914 0.327715
v -0.111443 0.122292 0.581143
v -0.106159 0.122995 0.585719
v 0.165941 -0.166964 0.324734
v -0.101610 -0.099743 0.583381
v 0.159344 -0.166361 0.318922
v -0.107107 -0.099300 0.578806
v 0.159686 -0.160555 0.318922
v 0.166283 -0.161157 0.324734
v -0.106824 -0.095053 0.578806
v -0.101327 -0.095495 0.583381
v 0.156035 -0.166321 0.327715
v 0.099890 0.125479 0.585719
v 0.155223 -0.158687 0.321903
v 0.099213 0.131088 0.581143
v 0.159970 -0.157975 0.321903
v 0.160782 -0.165609 0.327715
v 0.103152 0.131608 0.581143
v 0.103829 0.126000 0.585719
v -0.167704 0.197371 0.324734
v 0.099847 0.128263 0.583381
v -0.161107 0.196768 0.318922
v 0.105345 0.127820 0.578806
v -0.161449 0.190962 0.318922
v -0.168045 0.191565 0.324734
v 0.105061 0.123572 0.578806
v 0.099564 0.124015 0.583381
v -0.157798 0.196729 0.327715
v -0.101653 -0.096960 0.585719
v -0.156986 0.189094 0.321903
v -0.100976 -0.102568 0.581143
v -0.161733 0.188382 0.321903
v -0.162545 0.196017 0.327715
v -0.104915 -0.103089 0.581143
v -0.105592 -0.097481 0.585719
v -0.192067 -0.206671 0.661370
v 0.192407 -0.207076 0.661348
v 0.005177 0.224675 0.656092
v -0.204105 -0.033910 0.652278
v 0.202068 -0.039930 0.652483
v 0.197602 0.101526 0.655610
v 0.032133 0.117096 0.652829
v -0.136732 -0.077968 0.654780
v 0.214621 -0.236960 0.636091
v -0.214621 -0.236960 0.635202
v -0.214621 0.237103 0.645721
v 0.214621 0.237103 0.645721
v -0.190264 0.211977 0.662834
v 0.189985 0.212285 0.662869
v 0.151905 -0.217565 0.661932
v -0.205614 -0.227393 0.652725
v -0.205614 0.227624 0.657810
v 0.205614 0.227624 0.657810
v -0.148186 -0.217735 0.661244
v 0.022385 -0.221302 0.656585
v 0.152980 0.261269 0.631018
v -0.156219 0.260201 0.630799
v 0.137750 -0.040430 0.653413
v -0.141760 0.041965 0.653160
v 0.000001 -0.052251 0.651267
v 0.239346 0.182226 0.628621
v -0.239339 0.182311 0.628857
v -0.197543 0.101667 0.655616
v 0.205614 -0.227393 0.652725
v -0.215432 0.238408 0.630831
v 0.215432 0.238408 0.630832
v 0.150031 0.247376 0.657831
v -0.152821 0.247593 0.657440
v -0.149737 -0.247357 0.652018
v 0.151799 -0.247535 0.651608
v 0.226921 -0.175143 0.650958
v 0.227201 0.179397 0.653100
v -0.231614 0.044740 0.645276
v -0.227380 -0.178315 0.650275
v -0.240051 0.179688 0.640140
v 0.240140 -0.177929 0.637122
v -0.151457 -0.260167 0.634782
v 0.151303 0.260345 0.646585
v 0.239488 0.180609 0.641024
v -0.153624 0.259794 0.646268
v -0.239523 -0.179826 0.637223
v 0.153796 -0.259645 0.635284
v -0.227302 0.177177 0.653557
v 0.230443 0.000126 0.645604
v -0.000000 -0.250013 0.648053
v -0.000000 0.250242 0.653952
vn 0.0666 0.7565 0.6506
vn -0.0666 -0.6105 0.7892
vn 0.0666 -0.6105 0.7892
vn 0.0958 -0.7280 -0.6789
vn -0.0958 -0.7280 0.6789
vn -0.0958 -0.7280 -0.6789
vn -0.0000 -0.9960 0.0898
vn -0.0000 -0.9865 0.1639
vn -0.0000 -0.9352 0.3540
vn -0.0000 -0.5764 0.8172
vn -0.0000 -0.0503 0.9987
vn -0.0000 -0.9949 0.1009
vn -0.0000 0.0404 0.9992
vn -0.0000 0.9865 -0.1636
vn -0.0000 0.9960 -0.0896
vn -0.0000 0.5879 -0.8090
vn -0.0000 0.9352 -0.3540
vn -0.0000 0.0640 -0.9980
vn -0.0000 0.9949 -0.1009
vn -0.0000 -0.0408 -0.9992
vn -0.0000 0.0225 0.9997
vn -1.0000 -0.0000 -0.0000
vn -0.9971 0.0084 0.0752
vn -0.0000 -0.0224 -0.9997
vn 0.6479 0.7587 0.0671
vn 0.0526 0.9668 0.2500
vn 0.7619 0.6476 0.0128
vn 0.9795 0.0664 -0.1904
vn 0.9733 -0.0569 -0.2223
vn 0.6763 -0.6623 -0.3224
vn 0.0435 -0.9623 -0.2685
vn -0.0526 -0.9670 -0.2493
vn -0.9731 0.0569 0.2231
vn -0.6761 0.6621 0.3231
vn -0.6635 0.6745 0.3238
vn -0.7618 -0.6477 -0.0120
vn -0.9793 -0.0664 0.1912
vn -0.6480 -0.7588 -0.0662
vn 0.6763 0.6622 -0.3226
vn 0.0435 0.9622 -0.2688
vn 0.6635 0.6747 -0.3233
vn -0.0435 0.9621 0.2693
vn -0.0000 -0.0000 -1.0000
vn 0.6636 -0.6747 -0.3230
vn 0.9733 0.0570 -0.2224
vn 0.9795 -0.0665 -0.1903
vn 0.6479 -0.7588 0.0674
vn 0.0526 -0.9667 0.2504
vn -0.0435 -0.9620 0.2696
vn -0.7619 0.6476 -0.0122
vn -0.9793 0.0665 0.1911
vn -0.6479 0.7588 -0.0666
vn -0.9731 -0.0570 0.2232
vn -0.6761 -0.6620 0.3234
vn -0.6633 -0.6745 0.3240
vn -0.0526 0.9669 -0.2496
vn 0.7619 -0.6476 0.0131
vn -0.9659 -0.2588 -0.0000
vn -0.7071 -0.7071 -0.0000
vn -0.1332 -0.4970 -0.8575
vn -0.1332 -0.4970 0.8575
vn 0.9886 -0.1316 -0.0726
vn -0.9891 0.1296 0.0702
vn -0.1848 0.9805 -0.0661
vn 0.1830 -0.9810 0.0638
vn 0.0480 0.6634 -0.7468
vn -0.0484 -0.6671 0.7434
vn 0.6793 0.0828 -0.7292
vn -0.6831 -0.0833 0.7255
vn -0.2624 0.7361 0.6239
vn -0.2624 -0.5959 0.7590
vn -0.4777 0.7259 0.4948
vn -0.4777 -0.6118 0.6304
vn -0.3677 0.9026 0.2238
vn -0.3677 -0.8393 0.4004
vn -0.9171 0.0402 0.3966
vn -0.9910 0.0135 0.1332
vn -0.9917 0.0113 0.1283
vn 1.0000 -0.0000 -0.0000
vn 0.9971 0.0083 0.0752
vn -0.6479 0.7587 0.0671
vn -0.0526 0.9668 0.2500
vn 0.0435 0.9621 0.2693
vn -0.9795 0.0664 -0.1904
vn -0.7618 0.6476 0.0128
vn -0.0435 -0.9623 -0.2685
vn -0.6763 -0.6623 -0.3224
vn 0.0526 -0.9670 -0.2493
vn 0.6761 0.6621 0.3231
vn 0.9731 0.0569 0.2231
vn 0.6635 0.6745 0.3238
vn 0.9793 -0.0664 0.1912
vn 0.7618 -0.6476 -0.0120
vn 0.6480 -0.7588 -0.0662
vn -0.6763 0.6622 -0.3226
vn -0.0435 0.9622 -0.2688
vn 0.0526 0.9669 -0.2496
vn -0.9733 -0.0569 -0.2223
vn -0.9733 0.0570 -0.2224
vn -0.9795 -0.0665 -0.1903
vn -0.0526 -0.9667 0.2504
vn -0.6479 -0.7588 0.0674
vn 0.0435 -0.9620 0.2696
vn 0.7619 0.6476 -0.0122
vn 0.9793 0.0665 0.1911
vn 0.9731 -0.0570 0.2232
vn 0.6761 -0.6620 0.3234
vn 0.6633 -0.6745 0.3240
vn 0.6479 0.7588 -0.0666
vn -0.7619 -0.6476 0.0131
vn 0.9659 -0.2588 -0.0000
vn 0.7071 -0.7071 -0.0000
vn 0.0958 -0.7280 0.6789
vn 0.1332 -0.4970 -0.8575
vn 0.1332 -0.4970 0.8575
vn 0.2624 0.7361 0.6239
vn 0.2624 -0.5959 0.7590
vn 0.4777 0.7259 0.4948
vn 0.4777 -0.6118 0.6304
vn 0.3677 0.9026 0.2238
vn 0.9171 0.0402 0.3966
vn 0.9910 0.0135 0.1332
vn 0.9917 0.0113 0.1283
vn -0.0000 -0.0000 1.0000
vn -0.9887 0.1312 -0.0721
vn 0.9892 -0.1292 0.0697
vn 0.1879 -0.9797 -0.0699
vn -0.1860 0.9802 0.0676
vn -0.0479 -0.6609 -0.7489
vn 0.0484 0.6646 0.7456
vn -0.6790 -0.0827 -0.7295
vn 0.6828 0.0833 0.7258
vn 0.1611 0.9829 -0.0886
vn -0.1585 -0.9836 0.0856
vn -0.9875 -0.1496 -0.0492
vn 0.9878 0.1483 0.0474
vn -0.6888 0.0428 -0.7236
vn 0.6920 -0.0431 0.7206
vn -0.0922 0.6496 -0.7547
vn 0.0928 -0.6539 0.7509
vn -0.1642 -0.9821 -0.0923
vn 0.1616 0.9828 0.0893
vn 0.9876 0.1491 -0.0486
vn -0.9879 -0.1479 0.0468
vn 0.6887 -0.0428 -0.7238
vn -0.6919 0.0430 0.7207
vn 0.0918 -0.6473 -0.7567
vn -0.0925 0.6516 0.7529
vn 0.0033 0.0497 0.9988
vn -0.0181 0.0290 0.9994
vn 0.0230 0.0145 0.9996
vn 0.0064 -0.0104 0.9999
vn -0.0393 -0.0401 0.9984
vn -0.0176 -0.0081 0.9998
vn -0.9980 -0.0010 -0.0632
vn 0.0374 -0.0461 0.9982
vn -0.2759 0.0377 0.9604
vn 0.2009 0.0259 0.9793
vn 0.3941 -0.1299 0.9098
vn -0.0243 0.0785 0.9966
vn 0.0836 0.2343 0.9686
vn 0.2126 -0.0493 0.9759
vn 0.0263 0.1226 0.9921
vn -0.2767 0.0313 0.9605
vn -0.0296 -0.3255 0.9451
vn -0.3459 0.9338 0.0915
vn 0.9172 0.3931 0.0646
vn 0.3433 0.9343 0.0964
vn -0.0027 0.9991 0.0429
vn 0.0092 0.0506 0.9987
vn 0.0238 0.0390 0.9990
vn -0.0425 0.0446 0.9981
vn 0.0135 -0.0269 0.9995
vn -0.0150 -0.0064 0.9999
vn -0.0231 -0.0670 0.9975
vn 0.0146 -0.0216 0.9997
vn 0.9999 0.0019 -0.0113
vn -0.9168 0.3943 0.0627
vn -0.6726 -0.0029 0.7400
vn -0.0242 -0.0637 0.9977
vn -0.0291 0.0123 0.9995
vn 0.0168 -0.0254 0.9995
vn -0.2744 -0.0104 0.9616
vn -0.1974 0.0182 0.9802
vn -0.2017 -0.0528 0.9780
vn -0.6822 0.2348 0.6924
vn -0.7266 -0.0193 0.6868
vn 0.2135 -0.0272 0.9766
vn 0.6303 -0.0119 0.7763
vn 0.7111 -0.2950 0.6382
vn 0.7237 0.0065 0.6901
vn 0.2571 0.0364 0.9657
vn 0.0199 -0.2987 0.9541
vn -0.0001 -0.7989 0.6014
vn -0.0181 -0.2718 0.9622
vn -0.0884 -0.3096 0.9468
vn 0.0016 -0.8027 0.5964
vn -0.2731 -0.7683 0.5789
vn 0.0009 0.6356 0.7720
vn 0.0212 0.0876 0.9959
vn 0.2387 0.6452 0.7258
vn -0.0070 0.6555 0.7552
vn -0.0291 0.1095 0.9936
vn 0.6747 0.2365 0.6992
vn 0.2797 0.0315 0.9596
vn -0.2466 0.6549 0.7144
vn -0.0809 0.2319 0.9694
vn -0.7232 -0.3152 0.6145
vn -0.7232 -0.3153 0.6145
vn -0.3885 -0.1268 0.9127
vn 0.1011 -0.3276 0.9394
vn 0.2737 -0.7591 0.5906
vn -0.0666 0.7565 0.6506
vn 0.3677 -0.8393 0.4004
vn -0.9971 0.0083 0.0752
vn 0.9886 -0.1317 -0.0725
vn -0.9891 0.1296 0.0701
vn 0.0481 0.6633 -0.7468
vn -0.0482 -0.6671 0.7434
vn 0.6793 0.0829 -0.7292
vn -0.6832 -0.0831 0.7255
vn 0.9971 0.0084 0.0752
vn -0.6636 -0.6747 -0.3230
vn -0.6635 0.6747 -0.3233
vn 0.9892 -0.1292 0.0696
vn 0.1880 -0.9797 -0.0698
vn -0.0481 -0.6609 -0.7489
vn 0.0481 0.6647 0.7456
vn 0.6829 0.0831 0.7258
vn -0.1585 -0.9836 0.0855
vn -0.9875 -0.1496 -0.0491
vn -0.6888 0.0429 -0.7236
vn -0.1642 -0.9821 -0.0924
vn 0.9876 0.1492 -0.0485
vn -0.9879 -0.1479 0.0469
vn -0.6919 0.0431 0.7207
vn 0.0919 -0.6473 -0.7567
vn 0.9172 0.3931 0.0645
vn -0.0027 0.9991 0.0430
vn 0.0091 0.0505 0.9987
vn -0.6726 -0.0028 0.7400
vn -0.6823 0.2350 0.6923
vn 0.6303 -0.0119 0.7762
vn 0.7111 -0.2950 0.6383
vn 0.0199 -0.2986 0.9542
vn 0.2387 0.6451 0.7258
vn -0.2466 0.6549 0.7143
vt 0.301681 0.881336
vt 0.449379 0.943711
vt 0.467056 0.936389
vt 0.442056 0.961389
vt 0.449379 0.979066
vt 0.467056 0.986389
vt 0.492056 0.961389
vt 0.484734 0.943711
vt 0.484734 0.979066
vt 0.128080 0.958149
vt 0.128080 0.958149
vt 0.035503 0.870264
vt 0.035503 0.870264
vt 0.035503 0.870264
vt 0.035503 0.870264
vt 0.035503 0.870264
s 1
usemtl Palette
f 144/1/1 71/1/2 137/1/3
f 133/1/4 48/1/5 51/1/6
f 7/1/7 88/1/8 89/1/7
f 5/1/9 86/1/10 87/1/9
f 4/1/10 83/1/11 86/1/10
f 137/1/3 72/1/12 138/1/12
f 6/1/8 87/1/9 88/1/8
f 1/1/11 85/1/13 83/1/11
f 95/1/14 14/1/15 96/1/15
f 93/1/16 12/1/17 94/1/17
f 93/1/16 8/1/18 11/1/16
f 143/1/19 77/1/19 144/1/1
f 94/1/17 13/1/14 95/1/14
f 92/1/20 8/1/18 90/1/18
f 3/1/13 84/1/21 85/1/13
s 0
f 2/1/22 10/1/22 9/1/22
f 4/1/22 8/1/22 1/1/22
f 1/1/22 10/1/22 3/1/22
f 4/1/22 12/1/22 11/1/22
f 5/1/22 13/1/22 12/1/22
f 6/1/23 14/1/23 13/1/23
s 1
f 91/1/24 10/1/20 92/1/20
s 8
f 19/2/25 27/3/26 26/2/27
f 18/4/28 26/2/27 25/4/29
f 17/5/30 24/6/31 16/6/32
f 22/7/33 28/8/34 21/8/35
f 23/9/36 29/7/37 22/7/33
f 16/6/32 30/9/38 23/9/36
s 9
f 35/2/39 43/3/40 42/2/41
s 8
f 20/3/42 28/8/34 27/3/26
s 0
f 18/4/43 17/5/43 21/8/43
s 8
f 17/5/30 25/4/29 15/5/44
s 9
f 35/2/39 41/4/45 34/4/46
f 33/5/47 40/6/48 32/6/49
f 37/8/50 45/7/51 44/8/52
f 38/7/53 46/9/54 45/7/51
f 32/6/49 46/9/54 39/9/55
f 36/3/56 44/8/52 43/3/40
s 0
f 33/5/43 39/9/43 37/8/43
s 9
f 34/4/46 31/5/57 33/5/47
s 0
f 52/1/58 49/1/58 47/1/58
f 54/1/59 50/1/59 49/1/59
s 1
f 53/1/60 48/1/5 50/1/61
s 0
f 47/1/22 9/1/22 52/1/22
s 1
f 52/1/43 9/1/24 51/1/6
s 0
f 56/10/62 57/10/62 58/11/62
f 62/10/63 59/10/63 60/10/63
f 70/10/64 67/10/64 68/10/64
f 64/10/65 65/10/65 66/11/65
f 56/10/66 60/10/66 55/10/66
f 58/11/67 59/10/67 61/11/67
f 63/10/68 70/10/68 68/10/68
f 65/10/69 69/11/69 66/11/69
s 1
f 71/1/2 82/1/70 73/1/71
f 73/1/71 81/1/72 74/1/73
f 74/1/73 80/1/74 75/1/75
s 0
f 75/1/76 79/1/76 76/1/76
f 76/1/77 77/1/77 72/1/77
f 14/1/78 72/1/78 77/1/78
f 84/1/79 92/1/79 85/1/79
f 90/1/79 86/1/79 83/1/79
f 92/1/79 83/1/79 85/1/79
f 86/1/79 94/1/79 87/1/79
f 87/1/79 95/1/79 88/1/79
f 88/1/80 96/1/80 89/1/80
s 32
f 101/2/81 109/3/82 102/3/83
f 100/4/84 108/2/85 101/2/81
f 106/6/86 99/5/87 98/6/88
f 110/8/89 104/7/90 103/8/91
f 111/7/92 105/9/93 104/7/90
f 112/9/94 98/6/88 105/9/93
s 33
f 117/2/95 125/3/96 118/3/97
s 32
f 102/3/83 110/8/89 103/8/91
s 0
f 104/7/43 105/9/43 101/2/43
s 32
f 99/5/87 107/4/98 100/4/84
s 33
f 123/4/99 117/2/95 116/4/100
f 122/6/101 115/5/102 114/6/103
f 119/8/104 127/7/105 120/7/106
f 120/7/106 128/9/107 121/9/108
f 128/9/107 114/6/103 121/9/108
f 118/3/97 126/8/109 119/8/104
s 0
f 117/2/43 119/8/43 121/9/43
s 33
f 113/5/110 116/4/100 115/5/102
s 0
f 131/1/111 134/1/111 129/1/111
f 132/1/112 136/1/112 131/1/112
s 1
f 130/1/113 135/1/114 132/1/115
s 0
f 129/1/79 91/1/79 84/1/79
s 1
f 137/1/3 148/1/116 144/1/1
f 139/1/117 147/1/118 148/1/116
f 140/1/119 146/1/120 147/1/118
s 0
f 141/1/121 145/1/121 146/1/121
f 142/1/122 143/1/122 145/1/122
f 138/1/123 96/1/123 143/1/123
s 1
f 132/1/115 131/1/124 129/1/124
s 0
f 150/10/125 151/10/125 152/11/125
f 156/10/126 153/10/126 154/10/126
f 164/10/127 161/10/127 162/10/127
f 158/10/128 159/10/128 160/11/128
f 150/10/129 154/10/129 149/10/129
f 152/11/130 153/10/130 155/11/130
f 157/10/131 164/10/131 162/10/131
f 159/10/132 163/11/132 160/11/132
f 166/10/133 167/10/133 168/11/133
f 172/10/134 169/10/134 170/10/134
f 180/10/135 177/10/135 178/10/135
f 174/10/136 175/10/136 176/11/136
f 166/10/137 170/10/137 165/10/137
f 168/11/138 169/10/138 171/11/138
f 173/10/139 180/10/139 178/10/139
f 175/10/140 179/11/140 176/11/140
f 182/10/141 183/10/141 184/11/141
f 188/10/142 185/10/142 186/10/142
f 196/10/143 193/10/143 194/10/143
f 190/10/144 191/10/144 192/11/144
f 182/10/145 186/10/145 181/10/145
f 184/11/146 185/10/146 187/11/146
f 189/10/147 196/10/147 194/10/147
f 191/10/148 195/11/148 192/11/148
f 197/12/149 204/13/149 200/14/149
f 216/15/150 219/14/150 221/14/150
f 221/14/151 220/12/151 204/13/151
f 221/14/152 203/14/152 220/12/152
f 210/12/153 199/12/153 203/14/153
f 202/12/154 203/14/154 219/14/154
f 236/12/155 223/12/155 242/13/155
f 220/12/156 199/12/156 209/12/156
f 209/12/157 213/12/157 244/12/157
f 201/12/158 232/14/158 245/14/158
f 198/12/159 225/14/159 232/14/159
f 199/12/160 228/14/160 247/14/160
f 210/12/161 214/14/161 228/14/161
f 210/12/162 202/12/162 233/14/162
f 209/12/163 199/12/163 229/14/163
f 197/12/164 200/14/164 235/14/164
f 211/14/165 216/15/165 231/14/165
f 218/13/166 207/12/166 241/16/166
f 222/13/167 208/12/167 240/12/167
f 217/14/168 208/12/168 227/12/168
f 217/14/169 241/16/169 239/12/169
f 219/14/170 198/12/170 201/12/170
f 216/15/171 204/13/171 215/15/171
f 211/14/172 219/14/172 216/15/172
f 203/14/173 199/12/173 220/12/173
f 203/14/174 221/14/174 219/14/174
f 210/12/175 203/14/175 202/12/175
f 202/12/176 219/14/176 201/12/176
f 237/12/177 222/13/177 240/12/177
f 223/12/178 207/12/178 226/12/178
f 242/12/179 234/14/179 236/12/179
f 220/12/180 209/12/180 224/12/180
f 220/12/181 200/14/181 204/13/181
f 220/12/182 224/12/182 200/14/182
f 224/12/183 234/14/183 200/14/183
f 200/14/184 234/14/184 235/14/184
f 224/12/185 244/12/185 234/14/185
f 236/12/186 213/12/186 207/12/186
f 244/12/187 236/12/187 234/14/187
f 245/14/188 202/12/188 201/12/188
f 240/12/189 245/14/189 237/12/189
f 237/12/190 225/14/190 205/12/190
f 232/14/191 237/12/191 245/14/191
f 198/12/192 232/14/192 201/12/192
f 246/14/193 215/15/193 230/14/193
f 243/12/194 246/14/194 238/12/194
f 216/15/195 246/14/195 231/14/195
f 230/14/196 197/12/196 212/14/196
f 230/14/197 238/12/197 246/14/197
f 238/12/198 212/14/198 206/12/198
f 241/16/199 247/14/199 239/12/199
f 199/12/200 247/14/200 229/14/200
f 239/12/201 214/14/201 208/12/201
f 228/14/202 239/12/202 247/14/202
f 210/12/203 228/14/203 199/12/203
f 208/12/204 233/14/204 240/12/204
f 210/12/205 233/14/205 214/14/205
f 241/16/206 213/12/206 229/14/206
f 209/12/207 229/14/207 213/12/207
f 242/12/208 212/14/209 235/14/209
f 197/12/210 235/14/210 212/14/210
f 225/14/211 211/14/211 231/14/211
f 243/12/212 225/14/212 231/14/212
s 1
f 144/1/1 78/1/213 71/1/2
f 133/1/4 130/1/113 48/1/5
f 7/1/7 6/1/8 88/1/8
f 5/1/9 4/1/10 86/1/10
f 4/1/10 1/1/11 83/1/11
f 139/1/117 137/1/3 140/1/119
f 137/1/3 71/1/2 72/1/12
f 71/1/2 73/1/71 74/1/73
f 74/1/73 75/1/75 71/1/2
f 75/1/75 76/1/12 71/1/2
f 76/1/12 72/1/12 71/1/2
f 72/1/12 7/1/7 138/1/12
f 7/1/7 89/1/7 138/1/12
f 138/1/12 142/1/12 137/1/3
f 142/1/12 141/1/214 137/1/3
f 141/1/214 140/1/119 137/1/3
f 6/1/8 5/1/9 87/1/9
f 1/1/11 3/1/13 85/1/13
f 95/1/14 13/1/14 14/1/15
f 93/1/16 11/1/16 12/1/17
f 93/1/16 90/1/18 8/1/18
f 145/1/19 143/1/19 144/1/1
f 143/1/19 96/1/15 77/1/19
f 96/1/15 14/1/15 77/1/19
f 77/1/19 79/1/19 78/1/213
f 79/1/19 80/1/74 78/1/213
f 80/1/74 81/1/72 78/1/213
f 81/1/72 82/1/70 78/1/213
f 78/1/213 144/1/1 77/1/19
f 144/1/1 148/1/116 147/1/118
f 147/1/118 146/1/120 144/1/1
f 146/1/120 145/1/19 144/1/1
f 94/1/17 12/1/17 13/1/14
f 92/1/20 10/1/20 8/1/18
f 3/1/13 2/1/21 84/1/21
s 0
f 2/1/22 3/1/22 10/1/22
f 4/1/22 11/1/22 8/1/22
f 1/1/22 8/1/22 10/1/22
f 4/1/22 5/1/22 12/1/22
f 5/1/22 6/1/22 13/1/22
f 6/1/215 7/1/215 14/1/215
s 1
f 91/1/24 9/1/24 10/1/20
s 8
f 19/2/25 20/3/42 27/3/26
f 18/4/28 19/2/25 26/2/27
f 17/5/30 15/5/44 24/6/31
f 22/7/33 29/7/37 28/8/34
f 23/9/36 30/9/38 29/7/37
f 16/6/32 24/6/31 30/9/38
s 9
f 35/2/39 36/3/56 43/3/40
s 8
f 20/3/42 21/8/35 28/8/34
s 0
f 17/5/43 16/6/43 23/9/43
f 23/9/43 22/7/43 17/5/43
f 22/7/43 21/8/43 17/5/43
f 21/8/43 20/3/43 19/2/43
f 19/2/43 18/4/43 21/8/43
s 8
f 17/5/30 18/4/28 25/4/29
s 9
f 35/2/39 42/2/41 41/4/45
f 33/5/47 31/5/57 40/6/48
f 37/8/50 38/7/53 45/7/51
f 38/7/53 39/9/55 46/9/54
f 32/6/49 40/6/48 46/9/54
f 36/3/56 37/8/50 44/8/52
s 0
f 33/5/43 32/6/43 39/9/43
f 39/9/43 38/7/43 37/8/43
f 37/8/43 36/3/43 35/2/43
f 35/2/43 34/4/43 37/8/43
f 34/4/43 33/5/43 37/8/43
s 9
f 34/4/46 41/4/45 31/5/57
s 0
f 52/1/58 54/1/58 49/1/58
f 54/1/59 53/1/59 50/1/59
s 1
f 53/1/60 51/1/6 48/1/5
s 0
f 47/1/22 2/1/22 9/1/22
s 1
f 9/1/24 91/1/24 133/1/4
f 91/1/24 134/1/43 133/1/4
f 134/1/43 136/1/43 135/1/114
f 135/1/114 133/1/4 134/1/43
f 133/1/4 51/1/6 9/1/24
f 51/1/6 53/1/60 54/1/43
f 54/1/43 52/1/43 51/1/6
s 0
f 56/10/216 55/10/216 57/10/216
f 62/10/217 61/11/217 59/10/217
f 70/10/64 69/11/64 67/10/64
f 64/10/65 63/10/65 65/10/65
f 56/10/218 62/10/218 60/10/218
f 58/11/219 57/10/219 59/10/219
f 63/10/220 64/10/220 70/10/220
f 65/10/221 67/10/221 69/11/221
s 1
f 71/1/2 78/1/213 82/1/70
f 73/1/71 82/1/70 81/1/72
f 74/1/73 81/1/72 80/1/74
s 0
f 75/1/76 80/1/76 79/1/76
f 76/1/77 79/1/77 77/1/77
f 14/1/78 7/1/78 72/1/78
f 84/1/79 91/1/79 92/1/79
f 90/1/79 93/1/79 86/1/79
f 92/1/79 90/1/79 83/1/79
f 86/1/79 93/1/79 94/1/79
f 87/1/79 94/1/79 95/1/79
f 88/1/222 95/1/222 96/1/222
s 32
f 101/2/81 108/2/85 109/3/82
f 100/4/84 107/4/98 108/2/85
f 106/6/86 97/5/223 99/5/87
f 110/8/89 111/7/92 104/7/90
f 111/7/92 112/9/94 105/9/93
f 112/9/94 106/6/86 98/6/88
s 33
f 117/2/95 124/2/224 125/3/96
s 32
f 102/3/83 109/3/82 110/8/89
s 0
f 105/9/43 98/6/43 99/5/43
f 99/5/43 100/4/43 105/9/43
f 100/4/43 101/2/43 105/9/43
f 101/2/43 102/3/43 103/8/43
f 103/8/43 104/7/43 101/2/43
s 32
f 99/5/87 97/5/223 107/4/98
s 33
f 123/4/99 124/2/224 117/2/95
f 122/6/101 113/5/110 115/5/102
f 119/8/104 126/8/109 127/7/105
f 120/7/106 127/7/105 128/9/107
f 128/9/107 122/6/101 114/6/103
f 118/3/97 125/3/96 126/8/109
s 0
f 121/9/43 114/6/43 115/5/43
f 115/5/43 116/4/43 121/9/43
f 116/4/43 117/2/43 121/9/43
f 117/2/43 118/3/43 119/8/43
f 119/8/43 120/7/43 121/9/43
s 33
f 113/5/110 123/4/99 116/4/100
s 0
f 131/1/111 136/1/111 134/1/111
f 132/1/112 135/1/112 136/1/112
s 1
f 130/1/113 133/1/4 135/1/114
s 0
f 129/1/79 134/1/79 91/1/79
s 1
f 137/1/3 139/1/117 148/1/116
f 139/1/117 140/1/119 147/1/118
f 140/1/119 141/1/214 146/1/120
s 0
f 141/1/121 142/1/121 145/1/121
f 142/1/122 138/1/122 143/1/122
f 138/1/123 89/1/123 96/1/123
s 1
f 129/1/124 84/1/21 130/1/113
f 84/1/21 2/1/21 130/1/113
f 2/1/21 47/1/124 48/1/5
f 47/1/124 49/1/124 48/1/5
f 2/1/21 48/1/5 130/1/113
f 49/1/124 50/1/61 48/1/5
f 130/1/113 132/1/115 129/1/124
s 0
f 150/10/125 149/10/125 151/10/125
f 156/10/225 155/11/225 153/10/225
f 164/10/226 163/11/226 161/10/226
f 158/10/128 157/10/128 159/10/128
f 150/10/227 156/10/227 154/10/227
f 152/11/228 151/10/228 153/10/228
f 157/10/131 158/10/131 164/10/131
f 159/10/229 161/10/229 163/11/229
f 166/10/133 165/10/133 167/10/133
f 172/10/230 171/11/230 169/10/230
f 180/10/231 179/11/231 177/10/231
f 174/10/136 173/10/136 175/10/136
f 166/10/232 172/10/232 170/10/232
f 168/11/138 167/10/138 169/10/138
f 173/10/139 174/10/139 180/10/139
f 175/10/140 177/10/140 179/11/140
f 182/10/233 181/10/233 183/10/233
f 188/10/142 187/11/142 185/10/142
f 196/10/234 195/11/234 193/10/234
f 190/10/235 189/10/235 191/10/235
f 182/10/145 188/10/145 186/10/145
f 184/11/236 183/10/236 185/10/236
f 189/10/237 190/10/237 196/10/237
f 191/10/148 193/10/148 195/11/148
f 197/12/149 215/15/149 204/13/149
f 218/13/166 226/12/166 207/12/166
f 222/13/238 227/12/238 208/12/238
f 217/14/168 239/12/168 208/12/168
f 217/14/239 218/13/239 241/16/239
f 219/14/240 211/14/240 198/12/240
f 216/15/171 221/14/171 204/13/171
f 223/12/178 236/12/178 207/12/178
f 242/12/179 235/14/241 234/14/241
f 224/12/185 209/12/185 244/12/185
f 236/12/242 244/12/242 213/12/242
f 245/14/188 233/14/188 202/12/188
f 240/12/243 233/14/243 245/14/243
f 237/12/190 232/14/244 225/14/244
f 246/14/245 216/15/245 215/15/245
f 243/12/194 231/14/194 246/14/194
f 230/14/196 215/15/196 197/12/196
f 238/12/198 230/14/198 212/14/198
f 241/16/199 229/14/199 247/14/199
f 239/12/246 228/14/246 214/14/246
f 208/12/204 214/14/204 233/14/204
f 241/16/247 207/12/247 213/12/247
f 242/12/209 206/12/209 212/14/209
f 225/14/211 198/12/211 211/14/211
f 243/12/212 205/12/212 225/14/212
