# Blender 5.0.1
# www.blender.org
mtllib Chair_1.mtl
o Chair_1
v -0.274033 0.218921 0.632282
v -0.274033 0.064626 0.638677
v -0.274033 0.158059 0.634464
v -0.274034 -0.284810 0.638677
v -0.274033 0.257365 0.637560
v -0.274033 0.271219 0.664256
v -0.274033 0.293601 0.753785
v -0.274033 0.309588 1.086319
v -0.274033 0.335446 1.341318
v -0.274033 0.221907 0.597099
v -0.274033 0.063374 0.603677
v -0.274033 0.155976 0.599524
v -0.274034 -0.284810 0.603677
v -0.274033 0.280889 0.606905
v -0.274033 0.304177 0.651781
v -0.274033 0.328395 0.748651
v -0.274033 0.344503 1.083712
v -0.274033 0.370268 1.337787
v -0.116696 0.124193 0.610345
v -0.243522 0.281313 0.000001
v -0.229622 0.287070 0.000001
v -0.223864 0.300970 0.000001
v -0.229622 0.314870 0.000001
v -0.243522 0.320628 0.000001
v -0.257422 0.314870 0.000001
v -0.263179 0.300970 0.000001
v -0.257422 0.287070 0.000001
v -0.138629 0.115108 0.610345
v -0.107610 0.146127 0.610345
v -0.116696 0.168060 0.610345
v -0.138629 0.177145 0.610345
v -0.160563 0.168060 0.610345
v -0.169648 0.146127 0.610345
v -0.160563 0.124193 0.610345
v -0.116696 -0.140920 0.610345
v -0.243522 -0.293870 0.000001
v -0.229622 -0.288112 0.000001
v -0.223864 -0.274212 0.000001
v -0.229622 -0.260312 0.000001
v -0.243522 -0.254555 0.000001
v -0.257422 -0.260312 0.000001
v -0.263179 -0.274212 0.000001
v -0.257422 -0.288112 0.000001
v -0.138629 -0.150005 0.610345
v -0.107610 -0.118986 0.610345
v -0.116696 -0.097052 0.610345
v -0.138629 -0.087967 0.610345
v -0.160563 -0.097053 0.610345
v -0.169648 -0.118986 0.610345
v -0.160563 -0.140920 0.610345
v 0.274033 0.218921 0.632282
v 0.274033 0.064626 0.638677
v 0.274033 0.158059 0.634464
v 0.274034 -0.284810 0.638677
v 0.274033 0.257365 0.637560
v 0.274033 0.271219 0.664256
v 0.274033 0.293601 0.753785
v 0.274033 0.309588 1.086319
v 0.274033 0.335446 1.341318
v 0.274033 0.221907 0.597099
v 0.274033 0.063374 0.603677
v 0.274033 0.155976 0.599524
v 0.274034 -0.284810 0.603677
v 0.274033 0.280889 0.606905
v 0.274033 0.304177 0.651781
v 0.274033 0.328395 0.748651
v 0.274033 0.344503 1.083712
v 0.274033 0.370268 1.337787
v 0.116696 0.124193 0.610345
v 0.243522 0.281313 0.000001
v 0.229622 0.287070 0.000001
v 0.223864 0.300970 0.000001
v 0.229622 0.314870 0.000001
v 0.243522 0.320628 0.000001
v 0.257422 0.314870 0.000001
v 0.263179 0.300970 0.000001
v 0.257422 0.287070 0.000001
v 0.138629 0.115108 0.610345
v 0.107610 0.146127 0.610345
v 0.116696 0.168060 0.610345
v 0.138629 0.177145 0.610345
v 0.160563 0.168060 0.610345
v 0.169648 0.146127 0.610345
v 0.160563 0.124193 0.610345
v 0.116696 -0.140920 0.610345
v 0.243522 -0.293870 0.000001
v 0.229622 -0.288112 0.000001
v 0.223864 -0.274212 0.000001
v 0.229622 -0.260312 0.000001
v 0.243522 -0.254555 0.000001
v 0.257422 -0.260312 0.000001
v 0.263179 -0.274212 0.000001
v 0.257422 -0.288112 0.000001
v 0.138629 -0.150005 0.610345
v 0.107610 -0.118986 0.610345
v 0.116696 -0.097052 0.610345
v 0.138629 -0.087967 0.610345
v 0.160563 -0.097053 0.610345
v 0.169648 -0.118986 0.610345
v 0.160563 -0.140920 0.610345
vn -0.0000 0.0404 0.9992
vn -0.0000 0.0225 0.9997
vn -0.0000 -0.0000 -1.0000
vn -0.0000 -0.0224 -0.9997
vn -0.0000 -0.9972 0.0745
vn -0.0000 -0.9893 0.1460
vn -0.0000 -0.9352 0.3540
vn -0.0000 -0.8876 0.4606
vn -0.0000 -0.1360 0.9907
vn -0.0000 -0.0503 0.9987
vn -0.0000 -0.9949 0.1009
vn -0.0000 -0.0408 -0.9992
vn -0.0000 -1.0000 -0.0000
vn -0.0000 0.9893 -0.1460
vn -0.0000 0.9972 -0.0745
vn -0.0000 0.8876 -0.4606
vn -0.0000 0.9352 -0.3540
vn -0.0000 0.1640 -0.9865
vn -0.0000 0.0640 -0.9980
vn -0.0000 0.9949 -0.1009
vn -1.0000 -0.0000 -0.0000
vn -0.0000 0.1009 0.9949
vn 0.3784 0.9135 0.1497
vn 0.9210 0.3815 -0.0786
vn 0.3648 -0.8806 -0.3025
vn -0.8986 0.3722 0.2321
vn -0.9230 -0.3823 0.0444
vn -0.3762 -0.9083 -0.1827
vn 0.3647 0.8805 -0.3030
vn -0.3682 0.8890 0.2723
vn 0.8913 -0.3692 -0.2634
vn 0.8912 0.3691 -0.2636
vn 0.3783 -0.9134 0.1503
vn -0.9230 0.3823 0.0442
vn -0.8986 -0.3722 0.2324
vn -0.3682 -0.8888 0.2728
vn -0.3762 0.9082 -0.1832
vn 0.9210 -0.3815 -0.0784
vn 1.0000 -0.0000 -0.0000
vn -0.3784 0.9135 0.1497
vn -0.9210 0.3815 -0.0786
vn -0.3648 -0.8806 -0.3025
vn 0.8986 0.3722 0.2321
vn 0.9230 -0.3823 0.0444
vn 0.3762 -0.9083 -0.1827
vn -0.3647 0.8805 -0.3030
vn 0.3682 0.8890 0.2723
vn -0.8913 -0.3692 -0.2634
vn -0.8912 0.3691 -0.2636
vn -0.3783 -0.9134 0.1503
vn 0.9230 0.3823 0.0442
vn 0.8986 -0.3722 0.2324
vn 0.3682 -0.8888 0.2728
vn 0.3762 0.9082 -0.1832
vn -0.9210 -0.3815 -0.0784
vn -0.0000 -0.0000 1.0000
vt 0.278244 0.870920
vt 0.530108 0.941107
vt 0.547785 0.933785
vt 0.522785 0.958785
vt 0.530108 0.976462
vt 0.547785 0.983785
vt 0.572785 0.958785
vt 0.565463 0.941107
vt 0.565463 0.976462
s 1
usemtl Palette
f 3/1/1 52/1/2 53/1/1
s 2
f 63/1/3 11/1/4 61/1/4
s 3
f 8/1/5 57/1/6 58/1/5
f 6/1/7 55/1/8 56/1/7
s 1
f 5/1/9 51/1/10 55/1/9
s 3
f 9/1/11 58/1/5 59/1/11
f 7/1/6 56/1/7 57/1/6
s 1
f 1/1/10 53/1/1 51/1/10
s 2
f 61/1/4 12/1/12 62/1/12
s 4
f 63/1/13 4/1/13 13/1/13
s 5
f 66/1/14 17/1/15 67/1/15
f 64/1/16 15/1/17 65/1/17
s 2
f 64/1/18 10/1/19 14/1/18
s 5
f 67/1/15 18/1/20 68/1/20
f 65/1/17 16/1/14 66/1/14
s 2
f 62/1/12 10/1/19 60/1/19
s 6
f 4/1/21 11/1/21 13/1/21
s 7
f 2/1/21 12/1/21 11/1/21
s 8
f 5/1/21 10/1/21 1/1/21
s 9
f 1/1/21 12/1/21 3/1/21
s 10
f 5/1/21 15/1/21 14/1/21
s 11
f 6/1/21 16/1/21 15/1/21
s 12
f 7/1/21 17/1/21 16/1/21
s 13
f 9/1/21 17/1/21 8/1/21
s 14
f 68/1/22 9/1/22 59/1/22
s 15
f 23/2/23 31/3/23 30/2/23
s 16
f 22/4/24 30/2/24 29/4/24
s 17
f 21/5/25 28/6/25 20/6/25
s 18
f 26/7/26 32/8/26 25/8/26
s 19
f 27/9/27 33/7/27 26/7/27
s 20
f 20/6/28 34/9/28 27/9/28
s 21
f 39/2/29 47/3/29 46/2/29
s 22
f 24/3/30 32/8/30 31/3/30
s 23
f 27/9/3 25/8/3 23/2/3
s 24
f 21/5/31 29/4/31 19/5/31
s 25
f 39/2/32 45/4/32 38/4/32
s 26
f 37/5/33 44/6/33 36/6/33
s 27
f 41/8/34 49/7/34 48/8/34
s 28
f 42/7/35 50/9/35 49/7/35
s 29
f 36/6/36 50/9/36 43/9/36
s 30
f 40/3/37 48/8/37 47/3/37
s 31
f 37/5/3 43/9/3 41/8/3
s 32
f 38/4/38 35/5/38 37/5/38
s 33
f 54/1/39 61/1/39 52/1/39
s 34
f 52/1/39 62/1/39 53/1/39
s 35
f 60/1/39 55/1/39 51/1/39
s 36
f 62/1/39 51/1/39 53/1/39
s 37
f 55/1/39 65/1/39 56/1/39
s 38
f 56/1/39 66/1/39 57/1/39
s 39
f 57/1/39 67/1/39 58/1/39
s 40
f 67/1/39 59/1/39 58/1/39
s 41
f 73/2/40 81/3/40 74/3/40
s 42
f 72/4/41 80/2/41 73/2/41
s 43
f 78/6/42 71/5/42 70/6/42
s 44
f 82/8/43 76/7/43 75/8/43
s 45
f 83/7/44 77/9/44 76/7/44
s 46
f 84/9/45 70/6/45 77/9/45
s 47
f 89/2/46 97/3/46 90/3/46
s 48
f 74/3/47 82/8/47 75/8/47
s 49
f 75/8/3 76/7/3 77/9/3
s 50
f 71/5/48 79/4/48 72/4/48
s 51
f 95/4/49 89/2/49 88/4/49
s 52
f 94/6/50 87/5/50 86/6/50
s 53
f 91/8/51 99/7/51 92/7/51
s 54
f 92/7/52 100/9/52 93/9/52
s 55
f 100/9/53 86/6/53 93/9/53
s 56
f 90/3/54 98/8/54 91/8/54
s 57
f 93/9/3 87/5/3 89/2/3
s 58
f 85/5/55 88/4/55 87/5/55
s 1
f 2/1/2 54/1/56 52/1/2
f 3/1/1 2/1/2 52/1/2
s 2
f 63/1/3 13/1/3 11/1/4
s 3
f 8/1/5 7/1/6 57/1/6
f 6/1/7 5/1/8 55/1/8
s 1
f 5/1/9 1/1/10 51/1/10
s 3
f 9/1/11 8/1/5 58/1/5
f 7/1/6 6/1/7 56/1/7
s 1
f 1/1/10 3/1/1 53/1/1
s 2
f 61/1/4 11/1/4 12/1/12
s 4
f 63/1/13 54/1/13 4/1/13
s 5
f 66/1/14 16/1/14 17/1/15
f 64/1/16 14/1/16 15/1/17
s 2
f 64/1/18 60/1/19 10/1/19
s 5
f 67/1/15 17/1/15 18/1/20
f 65/1/17 15/1/17 16/1/14
s 2
f 62/1/12 12/1/12 10/1/19
s 6
f 4/1/21 2/1/21 11/1/21
s 7
f 2/1/21 3/1/21 12/1/21
s 8
f 5/1/21 14/1/21 10/1/21
s 9
f 1/1/21 10/1/21 12/1/21
s 10
f 5/1/21 6/1/21 15/1/21
s 11
f 6/1/21 7/1/21 16/1/21
s 12
f 7/1/21 8/1/21 17/1/21
s 13
f 9/1/21 18/1/21 17/1/21
s 14
f 68/1/22 18/1/22 9/1/22
s 15
f 23/2/23 24/3/23 31/3/23
s 16
f 22/4/24 23/2/24 30/2/24
s 17
f 21/5/25 19/5/25 28/6/25
s 18
f 26/7/26 33/7/26 32/8/26
s 19
f 27/9/27 34/9/27 33/7/27
s 20
f 20/6/28 28/6/28 34/9/28
s 21
f 39/2/29 40/3/29 47/3/29
s 22
f 24/3/30 25/8/30 32/8/30
s 23
f 21/5/3 20/6/3 27/9/3
f 27/9/3 26/7/3 25/8/3
f 25/8/3 24/3/3 23/2/3
f 23/2/3 22/4/3 21/5/3
f 21/5/3 27/9/3 23/2/3
s 24
f 21/5/31 22/4/31 29/4/31
s 25
f 39/2/32 46/2/32 45/4/32
s 26
f 37/5/33 35/5/33 44/6/33
s 27
f 41/8/34 42/7/34 49/7/34
s 28
f 42/7/35 43/9/35 50/9/35
s 29
f 36/6/36 44/6/36 50/9/36
s 30
f 40/3/37 41/8/37 48/8/37
s 31
f 37/5/3 36/6/3 43/9/3
f 43/9/3 42/7/3 41/8/3
f 41/8/3 40/3/3 37/5/3
f 40/3/3 39/2/3 37/5/3
f 39/2/3 38/4/3 37/5/3
s 32
f 38/4/38 45/4/38 35/5/38
s 33
f 54/1/39 63/1/39 61/1/39
s 34
f 52/1/39 61/1/39 62/1/39
s 35
f 60/1/39 64/1/39 55/1/39
s 36
f 62/1/39 60/1/39 51/1/39
s 37
f 55/1/39 64/1/39 65/1/39
s 38
f 56/1/39 65/1/39 66/1/39
s 39
f 57/1/39 66/1/39 67/1/39
s 40
f 67/1/39 68/1/39 59/1/39
s 41
f 73/2/40 80/2/40 81/3/40
s 42
f 72/4/41 79/4/41 80/2/41
s 43
f 78/6/42 69/5/42 71/5/42
s 44
f 82/8/43 83/7/43 76/7/43
s 45
f 83/7/44 84/9/44 77/9/44
s 46
f 84/9/45 78/6/45 70/6/45
s 47
f 89/2/46 96/2/46 97/3/46
s 48
f 74/3/47 81/3/47 82/8/47
s 49
f 77/9/3 70/6/3 71/5/3
f 71/5/3 72/4/3 77/9/3
f 72/4/3 73/2/3 77/9/3
f 73/2/3 74/3/3 77/9/3
f 74/3/3 75/8/3 77/9/3
s 50
f 71/5/48 69/5/48 79/4/48
s 51
f 95/4/49 96/2/49 89/2/49
s 52
f 94/6/50 85/5/50 87/5/50
s 53
f 91/8/51 98/8/51 99/7/51
s 54
f 92/7/52 99/7/52 100/9/52
s 55
f 100/9/53 94/6/53 86/6/53
s 56
f 90/3/54 97/3/54 98/8/54
s 57
f 93/9/3 86/6/3 87/5/3
f 87/5/3 88/4/3 89/2/3
f 89/2/3 90/3/3 93/9/3
f 90/3/3 91/8/3 93/9/3
f 91/8/3 92/7/3 93/9/3
s 58
f 85/5/55 95/4/55 88/4/55
s 1
f 2/1/2 4/1/56 54/1/56
