# Blender 5.0.1
# www.blender.org
mtllib Chair_Wheel.mtl
o Chair_Wheel
v 0.021189 -0.043619 -0.012018
v -0.021189 -0.043619 -0.012018
v 0.021189 -0.030844 -0.042862
v -0.021189 -0.030844 -0.042862
v 0.021189 0.000000 -0.055638
v -0.021189 0.000000 -0.055638
v 0.021189 0.030844 -0.042862
v -0.021189 0.030844 -0.042862
v 0.021189 0.043620 -0.012018
v -0.021189 0.043620 -0.012018
v 0.021189 0.030844 0.018825
v -0.021189 0.030844 0.018825
v 0.021189 0.000000 0.031601
v -0.021189 0.000000 0.031601
v 0.021189 -0.030844 0.018825
v -0.021189 -0.030844 0.018825
v 0.021189 -0.043619 -0.017388
v -0.021189 -0.043619 -0.017388
v 0.021189 0.043620 -0.017388
v -0.021189 0.043620 -0.017388
v 0.021189 0.030844 0.013455
v -0.021189 0.030844 0.013455
v 0.021189 0.000000 0.026231
v -0.021189 0.000000 0.026231
v 0.021189 -0.030844 0.013455
v -0.021189 -0.030844 0.013455
v 0.030568 0.030844 0.013455
v 0.030568 0.043620 -0.017388
v -0.030569 0.043620 -0.017388
v -0.030569 0.030844 0.013455
v 0.030568 0.053892 -0.013791
v 0.030568 0.000000 0.026231
v -0.030569 0.000000 0.026231
v -0.030569 -0.038108 0.023809
v -0.030569 -0.030844 0.013455
v 0.030569 -0.030844 0.013455
v -0.030569 -0.043619 -0.017388
v -0.030569 -0.053893 -0.013791
v 0.030569 -0.043619 -0.017388
v 0.030568 0.038107 0.023809
v -0.030569 0.053892 -0.013791
v -0.030569 0.038107 0.023809
v 0.030568 -0.000000 0.039383
v -0.030569 -0.000000 0.039383
v 0.030569 -0.038108 0.023809
v 0.030569 -0.053893 -0.013791
vn -0.3336 -0.6869 -0.6457
vn 0.3798 -0.8547 -0.3540
vn -0.0000 -0.9951 0.0985
vn -0.3798 -0.3540 -0.8546
vn 0.3798 -0.3540 -0.8546
vn -0.0000 -0.7049 -0.7093
vn -0.3798 0.3540 -0.8546
vn 0.3798 0.3540 -0.8547
vn -0.0000 0.0031 -1.0000
vn -0.3798 0.8546 -0.3540
vn 0.3336 0.6869 -0.6456
vn -0.0000 0.7093 -0.7049
vn -0.9251 0.0495 -0.3766
vn -0.9251 -0.2312 -0.3013
vn -0.9251 -0.3766 -0.0495
vn 0.8817 0.1221 0.4558
vn 1.0000 -0.0000 -0.0000
vn 0.8817 -0.3743 -0.2873
vn -0.0814 0.4458 -0.8914
vn 0.1350 0.1320 -0.9820
vn -0.2161 0.1081 -0.9704
vn 0.0659 -0.8618 -0.5029
vn -0.0000 -0.9239 -0.3827
vn 0.2115 -0.9397 0.2686
vn -0.0000 -0.9220 0.3871
vn -0.0000 0.3827 -0.9239
vn -0.0000 0.9220 0.3871
vn -0.1510 0.8219 0.5492
vn -0.0000 0.3783 0.9257
vn -0.0000 -0.3783 0.9257
vn 0.1300 -0.2560 -0.9579
vn 0.2160 -0.5209 -0.8258
vn -0.2409 -0.3070 -0.9207
vn 0.2409 0.3070 -0.9207
vn -0.1300 0.2560 -0.9579
vn -0.2160 0.5209 -0.8258
vn 0.0814 -0.4458 -0.8914
vn -0.1350 -0.1319 -0.9820
vn 0.2161 -0.1081 -0.9704
vn -1.0000 -0.0000 -0.0000
vn 0.9704 0.0267 0.2398
vn -0.9704 -0.0267 0.2398
vn -0.9704 -0.1260 -0.2058
vn -0.9516 -0.2822 0.1220
vn 0.9704 0.1260 -0.2058
vn 0.9516 0.2822 0.1220
vn -0.0321 0.0950 -0.9950
vn -0.1336 0.3913 -0.9105
vn 0.1719 0.4806 -0.8599
vn 0.2187 -0.7965 -0.5637
vn 0.0659 -0.9650 -0.2538
vn -0.0659 0.9650 -0.2538
vn -0.0000 0.9239 -0.3827
vn -0.2187 0.7965 -0.5638
vn -0.2187 0.9618 -0.1646
vn -0.0000 -0.3827 -0.9239
vn -0.1719 -0.4806 -0.8599
vn 0.0876 -0.2118 -0.9734
vn 0.1336 -0.3913 -0.9105
vn -0.3336 -0.6869 -0.6456
vn -0.0000 -0.7093 -0.7049
vn 0.3798 -0.8546 -0.3540
vn -0.3798 -0.3540 -0.8547
vn -0.0000 -0.0031 -1.0000
vn -0.0000 0.7049 -0.7093
vn 0.3798 0.3540 -0.8546
vn -0.3798 0.8547 -0.3540
vn -0.0000 0.9951 0.0985
vn 0.3336 0.6869 -0.6457
vn -0.8817 -0.1221 0.4558
vn -0.9251 -0.3766 -0.0496
vn -0.8817 0.3743 -0.2872
vn -0.8817 0.3743 -0.2873
vn -0.9251 0.0496 -0.3766
vn 0.9251 -0.0496 -0.3766
vn 0.9251 0.2313 -0.3013
vn 0.9251 0.2312 -0.3013
vn 0.9251 0.3766 -0.0496
vn 0.8817 0.1221 0.4557
vn 0.8817 -0.3743 -0.2872
vn 0.2187 -0.9618 -0.1645
vn 0.2115 -0.9398 0.2686
vn 0.1510 -0.8219 0.5492
vn -0.2115 0.9397 0.2686
vn 0.9516 0.2774 -0.1324
vn 0.9704 0.0268 0.2398
vn -0.9516 -0.2774 -0.1324
vn -0.9704 -0.0268 0.2398
vn -0.0876 0.2118 -0.9734
vn -0.0659 0.8618 -0.5029
vn -0.2187 0.9618 -0.1645
vn 0.0321 -0.0950 -0.9950
vt 0.067106 0.981716
vt 0.063167 0.950208
vt 0.067106 0.950208
vt 0.063167 0.981716
vt 0.059229 0.950208
vt 0.059229 0.981716
vt 0.055290 0.950208
vt 0.055290 0.981716
vt 0.051352 0.950208
vt 0.043475 0.950208
vt 0.035598 0.950208
vt 0.127100 0.947603
vt 0.123162 0.947603
vt 0.111346 0.979111
vt 0.115285 0.947603
vt 0.115285 0.979111
vt 0.119223 0.979111
vt 0.127100 0.979111
vt 0.123162 0.979111
vt 0.119223 0.947603
vt 0.142854 0.947603
vt 0.142854 0.979111
vt 0.111346 0.947603
vt 0.051352 0.981716
vt 0.035598 0.981716
vt 0.039536 0.981716
vt 0.043475 0.981716
vt 0.047413 0.981716
vt 0.047413 0.950208
vt 0.039536 0.950208
s 0
usemtl Palette
f 2/1/1 3/2/2 1/3/3
f 4/4/4 5/5/5 3/2/6
f 6/6/7 7/7/8 5/5/9
f 8/8/10 9/9/11 7/7/12
f 8/8/13 6/6/14 4/4/15
f 9/9/16 13/10/17 1/11/18
f 19/12/19 31/12/20 28/12/21
f 19/12/22 27/13/23 21/13/23
f 38/14/24 45/15/25 34/16/25
f 26/16/26 33/17/26 24/17/26
f 40/13/27 41/18/28 42/19/27
f 43/20/29 42/19/29 44/17/29
f 34/16/30 43/20/30 44/17/30
f 17/21/31 39/21/32 46/21/33
f 23/20/26 36/15/26 25/15/26
f 41/18/34 20/18/35 29/18/36
f 18/22/37 38/22/38 37/22/39
f 33/17/40 42/19/40 30/19/40
f 33/17/40 34/16/40 44/17/40
f 27/13/17 31/12/41 40/13/17
f 35/16/40 38/14/42 34/16/40
f 30/19/40 41/18/43 29/18/44
f 36/15/17 46/23/45 39/23/46
f 32/20/17 45/15/17 36/15/17
f 32/20/17 40/13/17 43/20/17
f 31/12/47 20/18/48 41/18/49
f 22/19/23 29/18/50 20/18/51
f 17/23/52 36/15/53 39/23/54
f 26/16/53 37/14/55 35/16/53
f 21/13/56 32/20/56 23/20/56
f 24/17/56 30/19/56 22/19/56
f 46/21/57 18/22/58 17/21/59
f 2/1/60 4/4/61 3/2/62
f 4/4/63 6/6/64 5/5/5
f 6/6/7 8/8/65 7/7/66
f 8/8/67 10/24/68 9/9/69
f 4/4/15 2/25/70 16/26/40
f 16/26/40 14/27/40 4/4/71
f 14/27/40 12/28/40 4/4/15
f 12/28/40 10/24/72 4/4/71
f 10/24/73 8/8/74 4/4/71
f 1/11/18 3/2/75 5/5/76
f 5/5/77 7/7/78 9/9/16
f 9/9/79 11/29/17 13/10/17
f 13/10/17 15/30/17 1/11/18
f 1/11/80 5/5/77 9/9/16
f 19/12/22 28/12/81 27/13/23
f 38/14/82 46/23/83 45/15/25
f 26/16/26 35/16/26 33/17/26
f 40/13/27 31/12/84 41/18/28
f 43/20/29 40/13/29 42/19/29
f 34/16/30 45/15/30 43/20/30
f 23/20/26 32/20/26 36/15/26
f 33/17/40 44/17/40 42/19/40
f 33/17/40 35/16/40 34/16/40
f 27/13/17 28/12/85 31/12/86
f 35/16/40 37/14/87 38/14/88
f 30/19/40 42/19/40 41/18/43
f 36/15/17 45/15/17 46/23/45
f 32/20/17 43/20/17 45/15/17
f 32/20/17 27/13/17 40/13/17
f 31/12/47 19/12/89 20/18/48
f 22/19/23 30/19/23 29/18/50
f 17/23/52 25/15/53 36/15/53
f 26/16/53 18/14/90 37/14/91
f 21/13/56 27/13/56 32/20/56
f 24/17/56 33/17/56 30/19/56
f 46/21/57 38/22/92 18/22/58
