# Blender 5.0.1
# www.blender.org
mtllib Chair_2.mtl
o Chair_2
v -0.274033 0.170138 0.649907
v -0.274033 0.056051 0.653081
v -0.274033 0.232787 0.655631
v -0.274033 0.264068 0.683920
v -0.274033 0.286451 0.773448
v 0.000000 0.331064 1.279785
v -0.274033 0.331865 1.287445
v 0.000000 0.177288 0.637767
v 0.000000 0.063202 0.640942
v 0.000000 -0.299167 0.646201
v 0.000000 0.239937 0.643492
v 0.000000 0.271219 0.664256
v 0.000000 0.293601 0.753785
v -0.274033 0.323913 1.261944
v 0.000000 0.339016 1.305287
v -0.274033 0.350794 1.307536
v 0.000000 0.357944 1.325378
v -0.274033 0.375700 1.318328
v 0.000000 0.382850 1.336170
v -0.274033 0.171246 0.614862
v -0.274033 0.055300 0.618089
v -0.274033 0.247601 0.621839
v -0.274033 0.295441 0.665102
v -0.274033 0.321146 0.767920
v 0.000000 0.365687 1.273246
v -0.274033 0.362876 1.269320
v 0.000000 0.178397 0.602723
v 0.000000 0.062451 0.605949
v 0.000000 -0.299696 0.611205
v 0.000000 0.254752 0.609700
v 0.000000 0.302592 0.645438
v 0.000000 0.328296 0.748256
v -0.274033 0.358536 1.255405
v 0.000000 0.370026 1.287162
v -0.274033 0.371325 1.278288
v 0.000000 0.378475 1.296130
v -0.274033 0.389616 1.286214
v 0.000000 0.396766 1.304056
v -0.274034 -0.192845 0.656843
v -0.174939 -0.294566 0.651230
v -0.174939 -0.295095 0.616234
v -0.274034 -0.193373 0.621847
v -0.253258 -0.243559 0.656110
v -0.225096 -0.272467 0.654515
v -0.225096 -0.272996 0.619519
v -0.253258 -0.244087 0.621114
v -0.222775 0.251179 -0.000001
v -0.267528 0.251179 -0.000001
v -0.222775 0.206426 -0.000001
v -0.267528 0.206426 -0.000001
v -0.162205 0.094431 0.623008
v -0.162205 0.139184 0.623008
v -0.206958 0.139184 0.623008
v -0.206958 0.094431 0.623008
v -0.222775 -0.227669 -0.000001
v -0.267528 -0.227669 -0.000001
v -0.222775 -0.272422 -0.000001
v -0.267528 -0.272422 -0.000001
v -0.162205 -0.136378 0.623008
v -0.162205 -0.091625 0.623008
v -0.206958 -0.091625 0.623008
v -0.206958 -0.136378 0.623008
v 0.274033 0.170138 0.649907
v 0.274033 0.056051 0.653081
v 0.274033 0.232787 0.655631
v 0.274033 0.264068 0.683920
v 0.274033 0.286451 0.773448
v 0.274033 0.331865 1.287445
v 0.274033 0.323913 1.261944
v 0.274033 0.350794 1.307536
v 0.274033 0.375700 1.318328
v 0.274033 0.171246 0.614862
v 0.274033 0.055300 0.618089
v 0.274033 0.247601 0.621839
v 0.274033 0.295441 0.665102
v 0.274033 0.321146 0.767920
v 0.274033 0.362876 1.269320
v 0.274033 0.358536 1.255405
v 0.274033 0.371325 1.278288
v 0.274033 0.389616 1.286214
v 0.274034 -0.192845 0.656843
v 0.174939 -0.294566 0.651230
v 0.174939 -0.295095 0.616234
v 0.274034 -0.193373 0.621847
v 0.253258 -0.243559 0.656110
v 0.225096 -0.272467 0.654515
v 0.225096 -0.272996 0.619519
v 0.253258 -0.244087 0.621114
v 0.222775 0.251179 -0.000001
v 0.267528 0.251179 -0.000001
v 0.222775 0.206426 -0.000001
v 0.267528 0.206426 -0.000001
v 0.162205 0.094431 0.623008
v 0.162205 0.139184 0.623008
v 0.206958 0.139184 0.623008
v 0.206958 0.094431 0.623008
v 0.222775 -0.227669 -0.000001
v 0.267528 -0.227669 -0.000001
v 0.222775 -0.272422 -0.000001
v 0.267528 -0.272422 -0.000001
v 0.162205 -0.136378 0.623008
v 0.162205 -0.091625 0.623008
v 0.206958 -0.091625 0.623008
v 0.206958 -0.136378 0.623008
vn -0.7147 -0.6910 0.1085
vn -0.0000 -0.9814 0.1918
vn -0.6766 -0.7241 0.1340
vn -0.7653 -0.5435 0.3448
vn -0.0000 -0.9868 0.1622
vn -0.7049 -0.0218 0.7089
vn -0.0000 0.0198 0.9998
vn -0.0000 -0.0326 0.9995
vn -0.0000 -0.8583 0.5131
vn -0.6783 -0.4267 0.5982
vn -0.6634 -0.6497 0.3712
vn -0.7653 -0.2369 0.5985
vn -0.0000 -0.8341 0.5515
vn -0.0000 -0.3706 0.9288
vn -0.0000 -0.5684 0.8227
vn -0.6033 0.2931 0.7417
vn -0.0000 -0.7104 0.7038
vn -0.1861 -0.7305 -0.6571
vn -0.0000 -0.7157 -0.6984
vn -0.7010 0.7046 -0.1106
vn -0.0000 0.9814 -0.1920
vn -0.0000 0.9867 -0.1623
vn -0.6694 0.6321 -0.3902
vn -0.7100 0.0216 -0.7039
vn -0.0000 -0.0195 -0.9998
vn -0.7237 -0.0133 -0.6900
vn -0.7431 0.3886 -0.5448
vn -0.0000 0.8583 -0.5131
vn -0.7583 0.5661 -0.3234
vn -0.0000 0.8410 -0.5410
vn -0.6611 0.2849 -0.6941
vn -0.0000 0.0326 -0.9995
vn -0.7389 0.6625 -0.1226
vn -0.5765 0.7500 -0.3242
vn -0.0000 0.5684 -0.8228
vn -0.7479 -0.1500 -0.6467
vn -0.6901 0.0139 0.7235
vn -0.0000 0.9411 -0.3382
vn -0.4453 -0.6178 -0.6481
vn -0.1397 -0.7255 0.6739
vn -0.4034 -0.6074 0.6843
vn -0.7153 -0.1380 0.6850
vn -0.6413 -0.4136 -0.6462
vn -0.6045 -0.4043 0.6864
vn -0.0000 -0.0000 -1.0000
vn -0.0000 -0.9842 -0.1769
vn -0.0000 0.9842 0.1769
vn -0.9953 -0.0000 0.0968
vn 0.9953 -0.0000 -0.0968
vn -0.0000 -0.9770 0.2133
vn -0.0000 0.9770 -0.2133
vn 0.7148 -0.6908 0.1086
vn 0.7653 -0.5435 0.3448
vn 0.7049 -0.0218 0.7089
vn 0.6902 0.0138 0.7235
vn 0.6783 -0.4267 0.5982
vn 0.6634 -0.6497 0.3712
vn 0.7653 -0.2369 0.5985
vn 0.6766 -0.7240 0.1340
vn 0.6033 0.2931 0.7417
vn 0.1861 -0.7305 -0.6571
vn 0.1397 -0.7255 0.6739
vn 0.7011 0.7044 -0.1104
vn 0.7389 0.6625 -0.1226
vn 0.6694 0.6321 -0.3902
vn 0.7100 0.0216 -0.7039
vn 0.7431 0.3886 -0.5448
vn 0.7583 0.5661 -0.3234
vn 0.6611 0.2849 -0.6941
vn -0.0000 0.3822 -0.9241
vn 0.5765 0.7500 -0.3242
vn 0.7479 -0.1500 -0.6467
vn 0.7237 -0.0133 -0.6900
vn -0.0000 0.3678 0.9299
vn 0.4453 -0.6178 -0.6481
vn 0.4034 -0.6074 0.6843
vn 0.7153 -0.1380 0.6850
vn 0.6413 -0.4136 -0.6462
vn 0.6045 -0.4043 0.6864
vn 0.9953 -0.0000 0.0968
vn -0.9953 -0.0000 -0.0968
vt 0.278244 0.870920
vt 0.534887 0.976892
vt 0.565892 0.945886
vt 0.534887 0.945886
vt 0.565892 0.976892
s 1
usemtl Palette
f 5/1/1 6/1/2 14/1/3
f 4/1/4 13/1/5 5/1/1
f 1/1/6 9/1/7 8/1/8
f 15/1/9 16/1/10 7/1/11
f 3/1/12 12/1/13 4/1/4
f 3/1/12 8/1/8 11/1/14
f 6/1/2 7/1/11 14/1/3
f 17/1/15 18/1/16 16/1/10
f 10/1/17 41/1/18 29/1/19
f 24/1/20 25/1/21 32/1/22
f 32/1/22 23/1/23 24/1/20
f 20/1/24 28/1/25 21/1/26
f 35/1/27 34/1/28 26/1/29
f 31/1/30 22/1/31 23/1/23
f 22/1/31 27/1/32 20/1/24
f 26/1/29 25/1/21 33/1/33
f 37/1/34 36/1/35 35/1/27
f 42/1/36 28/1/25 41/1/18
f 3/1/12 20/1/24 1/1/6
f 1/1/6 21/1/26 2/1/37
f 3/1/12 23/1/23 22/1/31
f 4/1/4 24/1/20 23/1/23
f 14/1/3 26/1/29 33/1/33
f 5/1/1 33/1/33 24/1/20
f 16/1/10 26/1/29 7/1/11
f 18/1/16 38/1/38 37/1/34
f 18/1/16 35/1/27 16/1/10
f 45/1/39 40/1/40 44/1/41
f 39/1/42 40/1/40 9/1/7
f 39/1/42 21/1/26 42/1/36
f 44/1/41 46/1/43 45/1/39
f 42/1/36 43/1/44 39/1/42
s 0
f 49/2/45 48/3/45 47/4/45
f 57/2/45 56/3/45 55/4/45
f 49/2/46 54/5/46 50/5/46
f 47/4/47 53/3/47 52/4/47
f 50/5/48 53/3/48 48/3/48
f 49/2/49 52/4/49 51/2/49
f 57/2/50 62/5/50 58/5/50
f 55/4/51 61/3/51 60/4/51
f 56/3/48 62/5/48 61/3/48
f 55/4/49 59/2/49 57/2/49
s 1
f 67/1/52 6/1/2 13/1/5
f 13/1/5 66/1/53 67/1/52
f 63/1/54 9/1/7 64/1/55
f 70/1/56 15/1/9 68/1/57
f 12/1/13 65/1/58 66/1/53
f 65/1/58 8/1/8 63/1/54
f 68/1/57 6/1/2 69/1/59
f 71/1/60 17/1/15 70/1/56
f 10/1/17 83/1/61 82/1/62
f 76/1/63 25/1/21 78/1/64
f 75/1/65 32/1/22 76/1/63
f 72/1/66 28/1/25 27/1/32
f 34/1/28 79/1/67 77/1/68
f 74/1/69 31/1/30 75/1/65
f 74/1/69 27/1/32 30/1/70
f 25/1/21 77/1/68 78/1/64
f 36/1/35 80/1/71 79/1/67
f 84/1/72 83/1/61 28/1/25
f 72/1/66 65/1/58 63/1/54
f 73/1/73 63/1/54 64/1/55
f 65/1/58 75/1/65 66/1/53
f 66/1/53 76/1/63 67/1/52
f 69/1/59 77/1/68 68/1/57
f 67/1/52 78/1/64 69/1/59
f 77/1/68 70/1/56 68/1/57
f 71/1/60 38/1/38 19/1/74
f 79/1/67 71/1/60 70/1/56
f 82/1/62 87/1/75 86/1/76
f 81/1/77 9/1/7 82/1/62
f 81/1/77 73/1/73 64/1/55
f 88/1/78 86/1/76 87/1/75
f 85/1/79 84/1/72 81/1/77
s 0
f 90/3/45 91/2/45 89/4/45
f 98/3/45 99/2/45 97/4/45
f 96/5/46 91/2/46 92/5/46
f 89/4/47 95/3/47 90/3/47
f 95/3/80 92/5/80 90/3/80
f 91/2/81 94/4/81 89/4/81
f 104/5/50 99/2/50 100/5/50
f 97/4/51 103/3/51 98/3/51
f 98/3/80 104/5/80 100/5/80
f 101/2/81 97/4/81 99/2/81
s 1
f 5/1/1 13/1/5 6/1/2
f 4/1/4 12/1/13 13/1/5
f 1/1/6 2/1/37 9/1/7
f 15/1/9 17/1/15 16/1/10
f 3/1/12 11/1/14 12/1/13
f 3/1/12 1/1/6 8/1/8
f 6/1/2 15/1/9 7/1/11
f 17/1/15 19/1/74 18/1/16
f 10/1/17 40/1/40 41/1/18
f 24/1/20 33/1/33 25/1/21
f 32/1/22 31/1/30 23/1/23
f 20/1/24 27/1/32 28/1/25
f 35/1/27 36/1/35 34/1/28
f 31/1/30 30/1/70 22/1/31
f 22/1/31 30/1/70 27/1/32
f 26/1/29 34/1/28 25/1/21
f 37/1/34 38/1/38 36/1/35
f 42/1/36 21/1/26 28/1/25
f 28/1/25 29/1/19 41/1/18
f 41/1/18 45/1/39 42/1/36
f 45/1/39 46/1/43 42/1/36
f 3/1/12 22/1/31 20/1/24
f 1/1/6 20/1/24 21/1/26
f 3/1/12 4/1/4 23/1/23
f 4/1/4 5/1/1 24/1/20
f 14/1/3 7/1/11 26/1/29
f 5/1/1 14/1/3 33/1/33
f 16/1/10 35/1/27 26/1/29
f 18/1/16 19/1/74 38/1/38
f 18/1/16 37/1/34 35/1/27
f 45/1/39 41/1/18 40/1/40
f 9/1/7 2/1/37 39/1/42
f 39/1/42 43/1/44 44/1/41
f 44/1/41 40/1/40 39/1/42
f 40/1/40 10/1/17 9/1/7
f 39/1/42 2/1/37 21/1/26
f 44/1/41 43/1/44 46/1/43
f 42/1/36 46/1/43 43/1/44
s 0
f 49/2/45 50/5/45 48/3/45
f 57/2/45 58/5/45 56/3/45
f 49/2/46 51/2/46 54/5/46
f 47/4/47 48/3/47 53/3/47
f 50/5/48 54/5/48 53/3/48
f 49/2/49 47/4/49 52/4/49
f 57/2/50 59/2/50 62/5/50
f 55/4/51 56/3/51 61/3/51
f 56/3/48 58/5/48 62/5/48
f 55/4/49 60/4/49 59/2/49
s 1
f 67/1/52 69/1/59 6/1/2
f 13/1/5 12/1/13 66/1/53
f 63/1/54 8/1/8 9/1/7
f 70/1/56 17/1/15 15/1/9
f 12/1/13 11/1/14 65/1/58
f 65/1/58 11/1/14 8/1/8
f 68/1/57 15/1/9 6/1/2
f 71/1/60 19/1/74 17/1/15
f 10/1/17 29/1/19 83/1/61
f 76/1/63 32/1/22 25/1/21
f 75/1/65 31/1/30 32/1/22
f 72/1/66 73/1/73 28/1/25
f 34/1/28 36/1/35 79/1/67
f 74/1/69 30/1/70 31/1/30
f 74/1/69 72/1/66 27/1/32
f 25/1/21 34/1/28 77/1/68
f 36/1/35 38/1/38 80/1/71
f 28/1/25 73/1/73 84/1/72
f 84/1/72 88/1/78 87/1/75
f 87/1/75 83/1/61 84/1/72
f 83/1/61 29/1/19 28/1/25
f 72/1/66 74/1/69 65/1/58
f 73/1/73 72/1/66 63/1/54
f 65/1/58 74/1/69 75/1/65
f 66/1/53 75/1/65 76/1/63
f 69/1/59 78/1/64 77/1/68
f 67/1/52 76/1/63 78/1/64
f 77/1/68 79/1/67 70/1/56
f 71/1/60 80/1/71 38/1/38
f 79/1/67 80/1/71 71/1/60
f 82/1/62 83/1/61 87/1/75
f 81/1/77 64/1/55 9/1/7
f 9/1/7 10/1/17 82/1/62
f 82/1/62 86/1/76 81/1/77
f 86/1/76 85/1/79 81/1/77
f 81/1/77 84/1/72 73/1/73
f 88/1/78 85/1/79 86/1/76
f 85/1/79 88/1/78 84/1/72
s 0
f 90/3/45 92/5/45 91/2/45
f 98/3/45 100/5/45 99/2/45
f 96/5/46 93/2/46 91/2/46
f 89/4/47 94/4/47 95/3/47
f 95/3/80 96/5/80 92/5/80
f 91/2/81 93/2/81 94/4/81
f 104/5/50 101/2/50 99/2/50
f 97/4/51 102/4/51 103/3/51
f 98/3/80 103/3/80 104/5/80
f 101/2/81 102/4/81 97/4/81
