# Blender 5.0.1
# www.blender.org
mtllib Chair_Body_Ac.mtl
o Chair_Body_Ac
v -0.270552 0.087036 0.827157
v -0.269916 -0.093988 0.828922
v -0.321009 0.087036 0.827157
v -0.321644 -0.093988 0.828922
v -0.277458 -0.067582 0.817485
v -0.277908 0.060656 0.814429
v -0.313653 0.060656 0.814429
v -0.314102 -0.067582 0.817485
v -0.276406 0.081356 0.849474
v -0.267579 0.090592 0.840269
v -0.315155 0.081356 0.849474
v -0.323982 0.090591 0.840269
v -0.275918 -0.088302 0.849268
v -0.266869 -0.097547 0.840610
v -0.315643 -0.088302 0.849268
v -0.324692 -0.097547 0.840610
v -0.331541 -0.036623 0.825146
v -0.331541 0.029759 0.825146
v -0.321113 -0.026944 0.813927
v -0.321113 0.020080 0.813927
v -0.260020 -0.036623 0.825146
v -0.260020 0.029759 0.825146
v -0.270448 -0.026944 0.813927
v -0.270448 0.020080 0.813927
v -0.335754 -0.037927 0.840924
v -0.335754 0.031063 0.840924
v -0.323242 0.027675 0.852148
v -0.323242 -0.034539 0.852148
v -0.268318 -0.034539 0.852148
v -0.268318 0.027675 0.852148
v -0.255807 0.031063 0.840924
v -0.255807 -0.037927 0.840924
v -0.295780 -0.073969 0.816096
v -0.295780 0.096140 0.825551
v -0.295780 -0.103004 0.827983
v -0.295780 0.067105 0.812138
v -0.295780 -0.096753 0.849469
v -0.295780 -0.106918 0.840472
v -0.295780 0.089889 0.849775
v -0.295780 0.100054 0.840006
v -0.295780 -0.026944 0.807608
v -0.295780 0.020080 0.807608
v -0.295780 -0.034539 0.853882
v -0.295780 0.027675 0.853882
v -0.301818 0.012171 0.595990
v -0.301818 -0.019035 0.595990
v -0.282393 -0.019035 0.599942
v -0.282393 0.012171 0.599942
v -0.306515 0.012171 0.823720
v -0.306515 -0.019035 0.823720
v -0.287808 -0.019035 0.823720
v -0.287808 0.012171 0.823720
v -0.298034 0.012171 0.583737
v -0.298034 -0.019035 0.583737
v -0.281107 -0.019035 0.593071
v -0.281107 0.012171 0.593071
v -0.286040 0.012171 0.563783
v -0.286040 -0.019035 0.563783
v -0.277051 -0.019035 0.582773
v -0.277051 0.012171 0.582773
v -0.266467 0.012171 0.559464
v -0.266467 -0.019035 0.559464
v -0.263193 -0.019035 0.578137
v -0.263193 0.012171 0.578137
v -0.164546 0.012171 0.552953
v -0.164546 -0.019035 0.552953
v -0.138150 -0.019035 0.570109
v -0.138150 0.012171 0.570109
v -0.307252 0.014584 0.788141
v -0.307252 -0.021448 0.788141
v -0.283052 -0.021470 0.788541
v -0.283052 0.014606 0.788541
v -0.308946 0.016118 0.812113
v -0.308946 -0.022982 0.812113
v -0.283710 -0.023057 0.812166
v -0.283710 0.016193 0.812166
v -0.283777 -0.020859 0.792833
v -0.282880 -0.022695 0.797163
v -0.283458 -0.022382 0.802478
v -0.282687 -0.024132 0.807735
v -0.282687 0.017268 0.807735
v -0.283458 0.015518 0.802478
v -0.282880 0.015831 0.797163
v -0.283777 0.013995 0.792833
v -0.306940 -0.020805 0.792526
v -0.308307 -0.022689 0.796910
v -0.308248 -0.022348 0.802311
v -0.309547 -0.024094 0.807626
v -0.309547 0.017230 0.807626
v -0.308248 0.015484 0.802311
v -0.308307 0.015825 0.796910
v -0.306940 0.013941 0.792526
v 0.270552 0.087036 0.827157
v 0.269916 -0.093988 0.828922
v 0.321009 0.087036 0.827157
v 0.321644 -0.093988 0.828922
v 0.277458 -0.067582 0.817485
v 0.277908 0.060656 0.814429
v 0.313653 0.060656 0.814429
v 0.314102 -0.067582 0.817485
v 0.276406 0.081356 0.849474
v 0.267579 0.090592 0.840269
v 0.315155 0.081356 0.849474
v 0.323982 0.090591 0.840269
v 0.275918 -0.088302 0.849268
v 0.266869 -0.097547 0.840610
v 0.315643 -0.088302 0.849268
v 0.324692 -0.097547 0.840610
v 0.331541 -0.036623 0.825146
v 0.331541 0.029759 0.825146
v 0.321113 -0.026944 0.813927
v 0.321113 0.020080 0.813927
v 0.260020 -0.036623 0.825146
v 0.260020 0.029759 0.825146
v 0.270448 -0.026944 0.813927
v 0.270448 0.020080 0.813927
v 0.335754 -0.037927 0.840924
v 0.335754 0.031063 0.840924
v 0.323242 0.027675 0.852148
v 0.323242 -0.034539 0.852148
v 0.268318 -0.034539 0.852148
v 0.268318 0.027675 0.852148
v 0.255807 0.031063 0.840924
v 0.255807 -0.037927 0.840924
v 0.295780 -0.073969 0.816096
v 0.295780 0.096140 0.825551
v 0.295780 -0.103004 0.827983
v 0.295780 0.067105 0.812138
v 0.295780 -0.096753 0.849469
v 0.295780 -0.106918 0.840472
v 0.295780 0.089889 0.849775
v 0.295780 0.100054 0.840006
v 0.295780 -0.026944 0.807608
v 0.295780 0.020080 0.807608
v 0.295780 -0.034539 0.853882
v 0.295780 0.027675 0.853882
v 0.301818 0.012171 0.595990
v 0.301818 -0.019035 0.595990
v 0.282393 -0.019035 0.599942
v 0.282393 0.012171 0.599942
v 0.306515 0.012171 0.823720
v 0.306515 -0.019035 0.823720
v 0.287808 -0.019035 0.823720
v 0.287808 0.012171 0.823720
v 0.298034 0.012171 0.583737
v 0.298034 -0.019035 0.583737
v 0.281107 -0.019035 0.593071
v 0.281107 0.012171 0.593071
v 0.286040 0.012171 0.563783
v 0.286040 -0.019035 0.563783
v 0.277051 -0.019035 0.582773
v 0.277051 0.012171 0.582773
v 0.266467 0.012171 0.559464
v 0.266467 -0.019035 0.559464
v 0.263193 -0.019035 0.578137
v 0.263193 0.012171 0.578137
v 0.164546 0.012171 0.552953
v 0.164546 -0.019035 0.552953
v 0.138150 -0.019035 0.570109
v 0.138150 0.012171 0.570109
v 0.307252 0.014584 0.788141
v 0.307252 -0.021448 0.788141
v 0.283052 -0.021470 0.788541
v 0.283052 0.014606 0.788541
v 0.308946 0.016118 0.812113
v 0.308946 -0.022982 0.812113
v 0.283710 -0.023057 0.812166
v 0.283710 0.016193 0.812166
v 0.283777 -0.020859 0.792833
v 0.282880 -0.022695 0.797163
v 0.283458 -0.022382 0.802478
v 0.282687 -0.024132 0.807735
v 0.282687 0.017268 0.807735
v 0.283458 0.015518 0.802478
v 0.282880 0.015831 0.797163
v 0.283777 0.013995 0.792833
v 0.306940 -0.020805 0.792526
v 0.308307 -0.022689 0.796910
v 0.308248 -0.022348 0.802311
v 0.309547 -0.024094 0.807626
v 0.309547 0.017230 0.807626
v 0.308248 0.015484 0.802311
v 0.308307 0.015825 0.796910
v 0.306940 0.013941 0.792526
vn 0.0546 0.0621 0.9966
vn -0.1078 0.3417 -0.9336
vn 0.4845 -0.2087 -0.8495
vn 0.2164 -0.3957 -0.8925
vn 0.9462 0.1838 -0.2662
vn -0.2221 0.3917 -0.8929
vn 0.3075 -0.8975 -0.3162
vn -0.9433 -0.1773 -0.2808
vn -0.6425 0.1349 0.7543
vn 0.2197 -0.5984 0.7705
vn 0.6425 0.1349 0.7543
vn -0.2361 0.6225 0.7462
vn -0.2360 0.6225 0.7462
vn -0.3238 0.9038 -0.2798
vn 0.1743 -0.3616 -0.9159
vn -0.6276 -0.1652 -0.7608
vn 0.6790 0.1433 -0.7200
vn 0.6276 -0.1652 -0.7608
vn 0.7325 -0.0000 -0.6808
vn -0.6790 0.1433 -0.7200
vn -0.7325 -0.0000 -0.6808
vn 0.6318 -0.1255 0.7649
vn 0.6678 -0.0000 0.7444
vn -0.6318 -0.1255 0.7649
vn -0.6678 -0.0000 0.7444
vn -0.9462 0.1838 -0.2663
vn -0.9661 -0.0000 -0.2580
vn 0.9433 -0.1773 -0.2808
vn 0.9661 -0.0000 -0.2580
vn 0.1799 0.3457 -0.9209
vn 0.2414 -0.6009 -0.7620
vn -0.2761 -0.1952 -0.9411
vn 0.2135 0.4713 -0.8558
vn 0.2134 -0.4713 -0.8558
vn -0.0662 0.2659 -0.9617
vn 0.0526 -0.0661 0.9964
vn 0.0630 -0.0000 0.9980
vn -0.0630 -0.0000 0.9980
vn -0.0526 -0.0661 0.9964
vn 0.0361 0.2970 -0.9542
vn -0.4800 -0.2970 -0.8255
vn -0.5101 0.2659 -0.8180
vn -0.6439 -0.1222 -0.7553
vn 0.3031 -0.1403 -0.9426
vn -0.2675 -0.5724 -0.7751
vn -0.1743 -0.3616 -0.9159
vn 0.3238 0.9038 -0.2798
vn 0.2360 0.6225 0.7462
vn -0.2197 -0.5984 0.7705
vn -0.3075 -0.8975 -0.3162
vn 0.2221 0.3917 -0.8929
vn 0.0001 0.4286 -0.9035
vn -0.4567 -0.2343 -0.8582
vn -0.4301 0.3673 -0.8247
vn -0.0546 0.0621 0.9966
vn 0.9829 -0.0000 0.1839
vn -0.0000 1.0000 -0.0000
vn 0.9997 -0.0000 0.0242
vn -0.0000 -1.0000 -0.0000
vn -0.9998 -0.0000 -0.0206
vn -0.9555 -0.0000 -0.2951
vn -0.2155 -0.0000 -0.9765
vn -0.8571 -0.0000 -0.5152
vn 0.9304 -0.0000 0.3665
vn 0.0641 -0.0000 0.9979
vn 0.3172 -0.0000 0.9484
vn 0.5450 -0.0000 -0.8385
vn -0.0637 -0.0000 -0.9980
vn 0.9744 -0.0000 0.2250
vn -0.0028 -0.9712 0.2381
vn -0.0029 0.9712 0.2382
vn -0.9911 -0.0000 0.1330
vn -0.0021 -0.0000 1.0000
vn 0.0166 -0.0000 -0.9999
vn -0.9975 -0.0000 0.0710
vn -0.9547 -0.0000 -0.2976
vn -0.9999 -0.0000 0.0109
vn -0.9714 -0.0000 -0.2375
vn -0.0037 0.9897 0.1428
vn 0.0034 0.9198 -0.3924
vn -0.0013 0.9981 0.0609
vn 0.0003 0.9494 -0.3140
vn -0.0037 -0.9897 0.1428
vn 0.0034 -0.9198 -0.3925
vn -0.0013 -0.9981 0.0609
vn 0.0004 -0.9494 -0.3140
vn 0.9860 -0.0000 0.1666
vn 0.9792 -0.0000 -0.2028
vn 0.9941 -0.0000 0.1080
vn 0.9894 -0.0000 -0.1450
vn 0.1077 0.3417 -0.9336
vn -0.4845 -0.2087 -0.8495
vn -0.5333 0.2307 -0.8138
vn -0.9462 0.1838 -0.2662
vn -0.3075 -0.8975 -0.3161
vn 0.6424 0.1349 0.7544
vn -0.6424 0.1349 0.7544
vn 0.2361 0.6225 0.7462
vn 0.3239 0.9038 -0.2798
vn -0.6791 0.1431 -0.7200
vn 0.6790 0.1433 -0.7201
vn 0.9462 0.1838 -0.2663
vn -0.2414 -0.6009 -0.7620
vn -0.1799 0.3457 -0.9209
vn 0.2760 -0.1953 -0.9411
vn -0.2135 -0.4713 -0.8558
vn -0.2135 0.4713 -0.8558
vn 0.0661 0.2659 -0.9617
vn 0.4800 -0.2969 -0.8255
vn -0.0360 0.2969 -0.9542
vn 0.5101 0.2659 -0.8180
vn 0.6438 -0.1222 -0.7553
vn -0.3032 -0.1402 -0.9426
vn -0.0589 0.1580 -0.9857
vn -0.2360 0.6224 0.7462
vn 0.2196 -0.5984 0.7705
vn 0.4567 -0.2343 -0.8582
vn -0.0001 0.4285 -0.9035
vn 0.4300 0.3672 -0.8247
vn -0.9829 -0.0000 0.1839
vn -0.9997 -0.0000 0.0242
vn 0.9998 -0.0000 -0.0206
vn 0.9555 -0.0000 -0.2951
vn 0.2155 -0.0000 -0.9765
vn 0.8571 -0.0000 -0.5152
vn -0.9304 -0.0000 0.3665
vn -0.0641 -0.0000 0.9979
vn -0.3172 -0.0000 0.9484
vn -0.5450 -0.0000 -0.8385
vn 0.0637 -0.0000 -0.9980
vn -0.9744 -0.0000 0.2250
vn 0.0028 -0.9712 0.2381
vn 0.0028 0.9712 0.2381
vn 0.9911 -0.0000 0.1330
vn 0.0021 -0.0000 1.0000
vn -0.0166 -0.0000 -0.9999
vn 0.9975 -0.0000 0.0710
vn 0.9547 -0.0000 -0.2976
vn 0.9999 -0.0000 0.0109
vn 0.9714 -0.0000 -0.2375
vn 0.0037 0.9897 0.1428
vn -0.0034 0.9198 -0.3925
vn 0.0013 0.9981 0.0609
vn -0.0004 0.9494 -0.3141
vn 0.0037 -0.9898 0.1427
vn -0.0034 -0.9198 -0.3925
vn 0.0013 -0.9981 0.0609
vn -0.0004 -0.9494 -0.3140
vn -0.9860 -0.0000 0.1666
vn -0.9792 -0.0000 -0.2028
vn -0.9941 -0.0000 0.1080
vn -0.9894 -0.0000 -0.1450
vn 0.5334 0.2308 -0.8138
vn 0.3075 -0.8975 -0.3161
vn -0.6424 0.1348 0.7545
vn -0.3239 0.9038 -0.2798
vn 0.1800 0.3457 -0.9209
vn 0.6193 -0.1786 -0.7646
vn 0.2135 0.4713 -0.8557
vn 0.6707 -0.0000 -0.7417
vn 0.2135 -0.4713 -0.8558
vn 0.0360 0.2970 -0.9542
vn 0.2438 -0.0000 -0.9698
vn -0.6438 -0.1222 -0.7553
vn 0.0589 0.1581 -0.9857
vn 0.3032 -0.1402 -0.9426
vn 0.2360 0.6224 0.7462
vn -0.2196 -0.5984 0.7705
vn 0.0001 0.4285 -0.9035
vn 0.0809 -0.2031 -0.9758
vn -0.4567 -0.2344 -0.8582
vn -0.0638 -0.0000 -0.9980
vn -0.0029 -0.9712 0.2382
vn -0.0028 0.9712 0.2381
vn 0.0165 -0.0000 -0.9999
vn 0.0034 0.9198 -0.3925
vn 0.0034 -0.9198 -0.3924
vn 0.0004 -0.9494 -0.3141
vn -0.2164 -0.3957 -0.8925
vn 0.9462 0.1837 -0.2664
vn -0.2413 -0.6009 -0.7620
vn -0.6193 -0.1786 -0.7646
vn -0.6707 -0.0000 -0.7417
vn -0.2438 -0.0000 -0.9698
vn 0.6439 -0.1222 -0.7553
vn 0.2675 -0.5724 -0.7751
vn -0.3031 -0.1402 -0.9426
vn -0.0809 -0.2030 -0.9758
vn 0.0638 -0.0000 -0.9980
vn 0.0029 -0.9712 0.2382
vn 0.0029 0.9712 0.2382
vn 0.9911 -0.0000 0.1329
vn -0.0165 -0.0000 -0.9999
vn 0.0037 0.9898 0.1427
vn -0.0034 0.9198 -0.3924
vn -0.0003 0.9494 -0.3140
vn 0.0037 -0.9897 0.1428
vn -0.0003 -0.9494 -0.3140
vt 0.801529 0.792899
vt 0.806556 0.795280
vt 0.801529 0.795659
vt 0.801529 0.793087
vt 0.809346 0.795792
vt 0.809346 0.793087
vt 0.809346 0.793087
vt 0.809346 0.795792
vt 0.809426 0.795835
vt 0.801529 0.796222
vt 0.793712 0.795792
vt 0.801529 0.796222
vt 0.801529 0.786817
vt 0.809346 0.787243
vt 0.809445 0.787205
vt 0.793712 0.789952
vt 0.793712 0.787243
vt 0.793613 0.787205
vt 0.793712 0.793087
vt 0.796502 0.795280
vt 0.793632 0.795836
vt 0.806556 0.787755
vt 0.801529 0.787381
vt 0.806556 0.792899
vt 0.801529 0.796222
vt 0.801529 0.786817
vt 0.801529 0.786817
vt 0.793712 0.789952
vt 0.793712 0.787243
vt 0.809346 0.793087
vt 0.809346 0.787243
vt 0.809346 0.789952
vt 0.793712 0.795792
vt 0.793712 0.793087
vt 0.793712 0.793087
vt 0.809346 0.789952
vt 0.806556 0.790140
vt 0.796502 0.787755
vt 0.796502 0.792899
vt 0.801529 0.789952
vt 0.809346 0.789952
vt 0.801529 0.790140
vt 0.796502 0.790140
vt 0.793712 0.789952
vt 0.230647 0.887140
vt 0.230647 0.889899
vt 0.225620 0.889899
vt 0.230647 0.889899
vt 0.225620 0.889899
vt 0.230647 0.889899
vt 0.225620 0.887140
vt 0.225620 0.887140
vt 0.230647 0.887140
vt 0.225620 0.887140
vt 0.225620 0.887140
vt 0.230647 0.887140
vt 0.230647 0.887140
vt 0.123810 0.956952
vt 0.123810 0.954192
vt 0.118783 0.954192
vt 0.118783 0.956951
vt 0.118783 0.954192
vt 0.123810 0.956951
vt 0.123810 0.956951
s 0
usemtl Palette
f 44/1/1 9/2/1 39/3/1
f 42/4/2 6/5/3 24/6/4
f 31/7/5 1/8/5 10/9/5
f 36/10/6 3/11/6 34/12/6
f 38/13/7 2/14/7 14/15/7
f 25/16/8 4/17/8 16/18/8
f 26/19/9 11/20/9 12/21/9
f 38/13/10 13/22/10 37/23/10
f 31/7/11 9/2/11 30/24/11
f 40/25/12 11/20/13 39/3/13
f 40/25/14 3/11/14 12/21/14
f 33/26/15 2/14/15 35/27/15
f 17/28/16 8/29/16 4/17/16
f 22/30/17 6/5/17 1/8/17
f 5/31/18 21/32/18 2/14/18
f 21/32/19 24/6/19 22/30/19
f 7/33/20 18/34/20 3/11/20
f 20/35/21 17/28/21 18/34/21
f 13/22/22 32/36/22 29/37/22
f 32/36/23 30/24/23 29/37/23
f 15/38/24 25/16/24 16/18/24
f 25/16/25 27/39/25 26/19/25
f 3/11/26 26/19/26 12/21/26
f 26/19/27 17/28/27 25/16/27
f 2/14/28 32/36/28 14/15/28
f 21/32/29 31/7/29 32/36/29
f 41/40/30 5/31/31 33/26/32
f 42/4/33 23/41/34 41/40/35
f 13/22/36 43/42/36 37/23/36
f 29/37/37 44/1/37 43/42/37
f 43/42/38 27/39/38 28/43/38
f 15/38/39 43/42/39 28/43/39
f 20/35/40 41/40/41 19/44/42
f 8/29/43 41/40/44 33/26/45
f 4/17/46 33/26/46 35/27/46
f 1/8/47 40/25/47 10/9/47
f 9/2/48 40/25/48 39/3/48
f 15/38/49 38/13/49 37/23/49
f 4/17/50 38/13/50 16/18/50
f 1/8/51 36/10/51 34/12/51
f 7/33/52 42/4/53 20/35/54
f 44/1/55 11/20/55 27/39/55
f 47/45/56 56/46/56 48/46/56
f 53/47/57 60/48/57 57/49/57
f 52/50/58 47/45/58 48/46/58
f 47/45/59 50/51/59 46/52/59
f 49/49/57 48/46/57 45/49/57
f 50/51/60 45/49/60 46/52/60
f 46/52/59 55/53/59 47/45/59
f 45/49/57 56/46/57 53/47/57
f 45/49/61 54/52/61 46/52/61
f 57/49/62 62/54/62 58/55/62
f 53/47/63 58/55/63 54/52/63
f 55/53/64 60/48/64 56/46/64
f 54/52/59 59/56/59 55/53/59
f 63/53/65 68/46/65 64/50/65
f 60/48/66 63/53/66 64/50/66
f 59/56/59 62/54/59 63/53/59
f 60/48/57 61/47/57 57/49/57
f 65/47/67 67/57/67 66/51/67
f 63/53/59 66/51/59 67/57/59
f 64/50/57 65/47/57 61/47/57
f 61/47/68 66/51/68 62/54/68
f 81/58/69 75/59/69 80/59/69
f 75/59/70 88/60/70 80/59/70
f 89/61/71 76/58/71 81/58/71
f 74/60/72 89/61/72 88/60/72
f 73/61/73 75/59/73 76/58/73
f 69/61/74 71/59/74 70/62/74
f 85/60/75 69/61/75 70/62/75
f 85/60/76 91/61/76 92/61/76
f 87/60/77 91/61/77 86/60/77
f 87/60/78 89/61/78 90/61/78
f 69/61/79 84/63/79 72/64/79
f 92/61/80 83/63/80 84/63/80
f 91/61/81 82/58/81 83/63/81
f 90/61/82 81/58/82 82/58/82
f 77/59/83 70/62/83 71/59/83
f 78/59/84 85/60/84 77/59/84
f 79/59/85 86/60/85 78/59/85
f 80/59/86 87/60/86 79/59/86
f 84/63/87 71/59/87 72/64/87
f 83/63/88 77/59/88 84/63/88
f 83/63/89 79/59/89 78/59/89
f 82/58/90 80/59/90 79/59/90
f 136/1/55 101/2/55 122/24/55
f 134/4/91 98/5/92 128/10/93
f 123/7/94 93/8/94 114/30/94
f 95/11/51 128/10/51 126/12/51
f 130/13/95 94/14/95 127/27/95
f 117/16/28 96/17/28 109/28/28
f 118/19/96 103/20/96 119/39/96
f 105/22/49 130/13/49 129/23/49
f 101/2/97 123/7/97 122/24/97
f 103/20/48 132/25/48 131/3/98
f 132/25/99 95/11/99 126/12/99
f 94/14/46 125/26/46 127/27/46
f 109/28/18 100/29/18 111/44/18
f 114/30/20 98/5/20 116/6/100
f 113/32/16 97/31/16 94/14/16
f 113/32/21 116/6/21 115/41/21
f 110/34/101 99/33/101 95/11/101
f 109/28/19 112/35/19 110/34/19
f 105/22/24 124/36/24 106/15/24
f 121/37/25 123/7/25 124/36/25
f 117/16/22 107/38/22 108/18/22
f 117/16/23 119/39/23 120/43/23
f 118/19/102 95/11/102 104/21/102
f 118/19/29 109/28/29 110/34/29
f 124/36/8 94/14/8 106/15/8
f 123/7/27 113/32/27 124/36/27
f 97/31/103 133/40/104 125/26/105
f 115/41/106 134/4/107 133/40/108
f 135/42/39 105/22/39 129/23/39
f 136/1/38 121/37/38 135/42/38
f 119/39/37 135/42/37 120/43/37
f 107/38/36 135/42/36 129/23/36
f 133/40/109 112/35/110 111/44/111
f 100/29/112 133/40/113 111/44/114
f 96/17/15 125/26/15 100/29/15
f 132/25/14 93/8/14 102/9/14
f 101/2/115 132/25/115 102/9/13
f 107/38/10 130/13/116 108/18/116
f 130/13/7 96/17/7 108/18/7
f 93/8/6 128/10/6 98/5/6
f 134/4/117 99/33/118 112/35/119
f 103/20/1 136/1/1 119/39/1
f 148/46/120 139/45/120 140/46/120
f 145/47/57 152/48/57 148/46/57
f 139/45/121 144/50/121 140/46/121
f 139/45/59 142/51/59 143/53/59
f 140/46/57 141/49/57 137/49/57
f 137/49/122 142/51/122 138/52/122
f 147/53/59 138/52/59 139/45/59
f 137/49/57 148/46/57 140/46/57
f 146/52/123 137/49/123 138/52/123
f 154/54/124 149/49/124 150/55/124
f 150/55/125 145/47/125 146/52/125
f 152/48/126 147/53/126 148/46/126
f 151/56/59 146/52/59 147/53/59
f 160/46/127 155/53/127 156/50/127
f 152/48/128 155/53/128 151/56/128
f 151/56/59 154/54/59 150/55/59
f 153/47/57 152/48/57 149/49/57
f 159/57/129 157/47/129 158/51/129
f 155/53/59 158/51/59 154/54/59
f 157/47/57 156/50/57 153/47/57
f 158/51/130 153/47/130 154/54/130
f 173/58/131 167/59/131 168/58/131
f 180/60/132 167/59/132 172/59/132
f 181/61/133 168/58/133 165/61/133
f 181/61/134 166/60/134 180/60/134
f 165/61/135 167/59/135 166/60/135
f 163/59/136 161/61/136 162/62/136
f 161/61/137 177/60/137 162/62/137
f 177/60/138 183/61/138 178/60/138
f 183/61/139 179/60/139 178/60/139
f 179/60/140 181/61/140 180/60/140
f 161/61/141 176/63/141 184/61/141
f 184/61/142 175/63/142 183/61/142
f 183/61/143 174/58/143 182/61/143
f 182/61/144 173/58/144 181/61/144
f 162/62/145 169/59/145 163/59/145
f 177/60/146 170/59/146 169/59/146
f 178/60/147 171/59/147 170/59/147
f 179/60/148 172/59/148 171/59/148
f 163/59/149 176/63/149 164/64/149
f 169/59/150 175/63/150 176/63/150
f 175/63/151 171/59/151 174/58/151
f 171/59/152 173/58/152 174/58/152
f 44/1/1 30/24/1 9/2/1
f 42/4/2 36/10/153 6/5/3
f 31/7/102 22/30/102 1/8/102
f 36/10/6 7/33/6 3/11/6
f 38/13/154 35/27/154 2/14/154
f 25/16/8 17/28/8 4/17/8
f 26/19/155 27/39/155 11/20/155
f 38/13/10 14/15/10 13/22/10
f 31/7/96 10/9/96 9/2/96
f 40/25/115 12/21/115 11/20/115
f 40/25/156 34/12/156 3/11/156
f 33/26/15 5/31/15 2/14/15
f 17/28/16 19/44/16 8/29/16
f 22/30/17 24/6/17 6/5/17
f 5/31/18 23/41/18 21/32/18
f 21/32/19 23/41/19 24/6/19
f 7/33/20 20/35/100 18/34/20
f 20/35/21 19/44/21 17/28/21
f 13/22/22 14/15/22 32/36/22
f 32/36/23 31/7/23 30/24/23
f 15/38/24 28/43/24 25/16/24
f 25/16/25 28/43/25 27/39/25
f 3/11/26 18/34/26 26/19/26
f 26/19/27 18/34/27 17/28/27
f 2/14/28 21/32/28 32/36/28
f 21/32/29 22/30/29 31/7/29
f 41/40/157 23/41/158 5/31/31
f 42/4/159 24/6/160 23/41/161
f 13/22/36 29/37/36 43/42/36
f 29/37/37 30/24/37 44/1/37
f 43/42/38 44/1/38 27/39/38
f 15/38/39 37/23/39 43/42/39
f 20/35/162 42/4/163 41/40/41
f 8/29/164 19/44/165 41/40/166
f 4/17/46 8/29/46 33/26/46
f 1/8/99 34/12/99 40/25/99
f 9/2/167 10/9/167 40/25/167
f 15/38/168 16/18/49 38/13/168
f 4/17/95 35/27/95 38/13/95
f 1/8/51 6/5/51 36/10/51
f 7/33/169 36/10/170 42/4/171
f 44/1/55 39/3/55 11/20/55
f 47/45/56 55/53/56 56/46/56
f 53/47/57 56/46/57 60/48/57
f 52/50/58 51/53/58 47/45/58
f 47/45/59 51/53/59 50/51/59
f 49/49/57 52/50/57 48/46/57
f 50/51/60 49/49/60 45/49/60
f 46/52/59 54/52/59 55/53/59
f 45/49/57 48/46/57 56/46/57
f 45/49/61 53/47/61 54/52/61
f 57/49/62 61/47/62 62/54/62
f 53/47/63 57/49/63 58/55/63
f 55/53/64 59/56/64 60/48/64
f 54/52/59 58/55/59 59/56/59
f 63/53/65 67/57/65 68/46/65
f 60/48/66 59/56/66 63/53/66
f 59/56/59 58/55/59 62/54/59
f 60/48/57 64/50/57 61/47/57
f 65/47/67 68/46/67 67/57/67
f 63/53/59 62/54/59 66/51/59
f 64/50/57 68/46/57 65/47/57
f 61/47/172 65/47/172 66/51/172
f 81/58/69 76/58/69 75/59/69
f 75/59/173 74/60/173 88/60/173
f 89/61/174 73/61/174 76/58/174
f 74/60/72 73/61/72 89/61/72
f 73/61/73 74/60/73 75/59/73
f 69/61/175 72/64/175 71/59/175
f 85/60/75 92/61/75 69/61/75
f 85/60/76 86/60/76 91/61/76
f 87/60/77 90/61/77 91/61/77
f 87/60/78 88/60/78 89/61/78
f 69/61/79 92/61/79 84/63/79
f 92/61/176 91/61/176 83/63/176
f 91/61/81 90/61/81 82/58/81
f 90/61/82 89/61/82 81/58/82
f 77/59/83 85/60/83 70/62/83
f 78/59/177 86/60/177 85/60/177
f 79/59/85 87/60/85 86/60/85
f 80/59/178 88/60/178 87/60/178
f 84/63/87 77/59/87 71/59/87
f 83/63/88 78/59/88 77/59/88
f 83/63/89 82/58/89 79/59/89
f 82/58/90 81/58/90 80/59/90
f 136/1/55 131/3/55 101/2/55
f 134/4/91 116/6/179 98/5/92
f 123/7/26 102/9/26 93/8/26
f 95/11/51 99/33/51 128/10/51
f 130/13/50 106/15/50 94/14/50
f 117/16/28 108/18/28 96/17/28
f 118/19/96 104/21/96 103/20/96
f 105/22/49 106/15/49 130/13/49
f 101/2/9 102/9/9 123/7/9
f 103/20/167 104/21/167 132/25/167
f 132/25/47 104/21/47 95/11/47
f 94/14/46 97/31/46 125/26/46
f 109/28/18 96/17/18 100/29/18
f 114/30/20 93/8/20 98/5/20
f 113/32/16 115/41/16 97/31/16
f 113/32/21 114/30/21 116/6/21
f 110/34/17 112/35/17 99/33/17
f 109/28/19 111/44/19 112/35/19
f 105/22/24 121/37/24 124/36/24
f 121/37/25 122/24/25 123/7/25
f 117/16/22 120/43/22 107/38/22
f 117/16/23 118/19/23 119/39/23
f 118/19/180 110/34/180 95/11/180
f 118/19/29 117/16/29 109/28/29
f 124/36/8 113/32/8 94/14/8
f 123/7/27 114/30/27 113/32/27
f 97/31/181 115/41/182 133/40/104
f 115/41/106 116/6/183 134/4/107
f 135/42/39 121/37/39 105/22/39
f 136/1/38 122/24/38 121/37/38
f 119/39/37 136/1/37 135/42/37
f 107/38/36 120/43/36 135/42/36
f 133/40/109 134/4/184 112/35/110
f 100/29/185 125/26/186 133/40/187
f 96/17/15 127/27/15 125/26/15
f 132/25/156 126/12/156 93/8/156
f 101/2/115 131/3/13 132/25/13
f 107/38/10 129/23/10 130/13/10
f 130/13/154 127/27/154 96/17/154
f 93/8/6 126/12/6 128/10/6
f 134/4/117 128/10/188 99/33/118
f 103/20/1 131/3/1 136/1/1
f 148/46/120 147/53/120 139/45/120
f 145/47/57 149/49/57 152/48/57
f 139/45/121 143/53/121 144/50/121
f 139/45/59 138/52/59 142/51/59
f 140/46/57 144/50/57 141/49/57
f 137/49/122 141/49/122 142/51/122
f 147/53/59 146/52/59 138/52/59
f 137/49/57 145/47/57 148/46/57
f 146/52/123 145/47/123 137/49/123
f 154/54/124 153/47/124 149/49/124
f 150/55/125 149/49/125 145/47/125
f 152/48/126 151/56/126 147/53/126
f 151/56/59 150/55/59 146/52/59
f 160/46/127 159/57/127 155/53/127
f 152/48/128 156/50/128 155/53/128
f 151/56/59 155/53/59 154/54/59
f 153/47/57 156/50/57 152/48/57
f 159/57/129 160/46/129 157/47/129
f 155/53/59 159/57/59 158/51/59
f 157/47/57 160/46/57 156/50/57
f 158/51/189 157/47/189 153/47/189
f 173/58/131 172/59/131 167/59/131
f 180/60/190 166/60/190 167/59/190
f 181/61/191 173/58/191 168/58/191
f 181/61/192 165/61/192 166/60/192
f 165/61/135 168/58/135 167/59/135
f 163/59/193 164/64/193 161/61/193
f 161/61/137 184/61/137 177/60/137
f 177/60/138 184/61/138 183/61/138
f 183/61/139 182/61/139 179/60/139
f 179/60/140 182/61/140 181/61/140
f 161/61/194 164/64/194 176/63/194
f 184/61/195 176/63/195 175/63/195
f 183/61/143 175/63/143 174/58/143
f 182/61/196 174/58/196 173/58/196
f 162/62/197 177/60/197 169/59/197
f 177/60/146 178/60/146 170/59/146
f 178/60/147 179/60/147 171/59/147
f 179/60/198 180/60/198 172/59/198
f 163/59/149 169/59/149 176/63/149
f 169/59/150 170/59/150 175/63/150
f 175/63/151 170/59/151 171/59/151
f 171/59/152 172/59/152 173/58/152
