# Blender 5.0.1
# www.blender.org
mtllib Chair_Body.mtl
o Chair_Body
v -0.249612 0.193415 0.631309
v -0.260067 -0.209948 0.624034
v -0.000000 0.225271 0.632090
v -0.066054 -0.239489 0.633542
v -0.218755 0.212673 0.634711
v -0.135351 0.219567 0.633759
v -0.222455 -0.225883 0.632735
v -0.152118 -0.234520 0.635472
v -0.244750 -0.216789 0.586565
v -0.188573 -0.232606 0.577001
v -0.114121 -0.234597 0.575003
v -0.038122 -0.242128 0.571433
v -0.265646 -0.163375 0.629979
v -0.263585 -0.092222 0.634542
v -0.262078 -0.010909 0.633784
v -0.258506 0.071498 0.631786
v -0.257135 0.148697 0.629861
v 0.000966 -0.182731 0.651143
v -0.000000 0.194929 0.552992
v -0.075577 0.192343 0.553067
v -0.150487 0.191357 0.556134
v -0.154441 0.096288 0.553313
v -0.183823 -0.172825 0.563520
v -0.215134 0.183907 0.569728
v -0.214250 0.111733 0.566006
v -0.236976 0.147865 0.577021
v -0.237942 0.071089 0.576141
v -0.241468 -0.011382 0.576557
v -0.243727 -0.092952 0.575833
v -0.246656 -0.165255 0.578925
v -0.003857 0.155245 0.643101
v -0.151438 -0.177207 0.655353
v -0.150202 -0.097484 0.659302
v -0.148588 0.012915 0.657282
v -0.151384 0.152919 0.650466
v -0.224302 -0.170100 0.649929
v -0.220220 -0.088122 0.656111
v -0.217565 0.151989 0.647165
v -0.255320 0.197098 0.602795
v -0.000000 0.233271 0.583851
v -0.262143 -0.214049 0.599948
v -0.221745 -0.238213 0.596048
v -0.151847 -0.248566 0.592405
v -0.076179 -0.251082 0.594964
v -0.038137 -0.251052 0.614520
v -0.075523 0.234240 0.584620
v -0.150660 0.232058 0.587612
v -0.218358 0.221792 0.595001
v -0.261348 0.146151 0.602838
v -0.263683 0.071367 0.602813
v -0.268192 -0.010741 0.603378
v -0.271537 -0.092137 0.602734
v -0.272306 -0.162602 0.602285
v 0.249612 0.193415 0.631309
v 0.260067 -0.209948 0.623991
v 0.218755 0.212674 0.634711
v 0.144729 0.218812 0.634700
v 0.222456 -0.225883 0.632651
v 0.152119 -0.234520 0.635429
v 0.076294 -0.238077 0.634609
v 0.114121 -0.234597 0.574770
v 0.038123 -0.242128 0.571373
v 0.265646 -0.163375 0.629979
v 0.263585 -0.092222 0.634542
v 0.262078 -0.010909 0.633784
v 0.258506 0.071498 0.631786
v 0.257135 0.148697 0.629861
v 0.260549 -0.191148 0.589893
v 0.262334 -0.129661 0.588821
v 0.259998 -0.052038 0.588145
v 0.255796 0.030196 0.589003
v 0.252633 0.110426 0.588764
v 0.252801 0.175306 0.590536
v 0.026968 -0.097821 0.563714
v 0.075577 0.192343 0.553067
v 0.147845 0.101521 0.553110
v 0.133314 -0.167426 0.561794
v 0.150487 0.191357 0.556134
v 0.152017 -0.209659 0.565185
v 0.215134 0.183907 0.569728
v 0.214250 0.111733 0.566006
v 0.216028 0.029332 0.567344
v 0.217701 -0.053301 0.567207
v 0.221226 -0.133359 0.568150
v 0.221574 -0.201177 0.573248
v 0.153726 0.152475 0.650073
v 0.152596 -0.176911 0.655714
v 0.150202 -0.097484 0.659302
v 0.149084 0.013801 0.657277
v 0.224302 -0.170100 0.649929
v 0.220086 -0.087523 0.656223
v 0.217565 0.151989 0.647165
v 0.255320 0.197099 0.602795
v 0.262143 -0.214049 0.599787
v 0.221746 -0.238213 0.595814
v 0.151848 -0.248566 0.592183
v 0.076180 -0.251082 0.594884
v 0.038137 -0.251052 0.614499
v 0.075523 0.234240 0.584620
v 0.150659 0.232058 0.587612
v 0.218358 0.221792 0.595001
v 0.261348 0.146151 0.602846
v 0.263683 0.071367 0.602840
v 0.268192 -0.010741 0.603408
v 0.271537 -0.092137 0.602728
v 0.272306 -0.162602 0.602233
v 0.001609 -0.242128 0.571029
v 0.000549 -0.251052 0.614135
v -0.015840 -0.017351 0.357509
v -0.015840 -0.017351 0.597006
v -0.022124 -0.002179 0.357509
v -0.022124 -0.002179 0.597006
v -0.015840 0.012993 0.357509
v -0.015840 0.012993 0.597006
v 0.000000 -0.023636 0.357509
v 0.000000 -0.023636 0.597006
v 0.015840 -0.017351 0.357509
v 0.015840 -0.017351 0.597006
v 0.022124 -0.002179 0.357509
v 0.022124 -0.002179 0.597006
v 0.015840 0.012993 0.357509
v 0.015840 0.012993 0.597006
v -0.000000 0.019277 0.357509
v -0.000000 0.019277 0.597006
v -0.203298 0.283495 0.813699
v -0.203298 0.304413 1.056106
v 0.203443 0.283530 0.814119
v 0.203166 0.304755 1.060272
v -0.188798 0.256933 0.837846
v -0.188798 0.274998 1.045449
v 0.188923 0.256964 0.838218
v 0.188677 0.275312 1.049279
v 0.101694 0.300702 0.812606
v -0.101549 0.300685 0.812396
v -0.101685 0.321668 1.055741
v 0.101552 0.321839 1.057824
v 0.104027 0.270607 0.837016
v 0.104090 0.288869 1.047304
v -0.103845 0.288725 1.045192
v 0.038611 0.314827 0.833189
v -0.038388 0.314814 0.833058
v -0.038424 0.303086 0.863465
v 0.038576 0.303097 0.863597
v 0.038985 0.295343 0.597381
v -0.038015 0.295314 0.597252
v -0.038015 0.280033 0.600750
v 0.038985 0.280062 0.600879
v 0.039037 0.271722 0.567636
v -0.037962 0.271631 0.567540
v -0.037962 0.260256 0.578326
v 0.039037 0.260347 0.578422
v 0.039088 0.225635 0.547087
v -0.037911 0.225511 0.547040
v -0.037911 0.219949 0.561696
v 0.039088 0.220073 0.561743
v 0.039218 0.119878 0.544404
v -0.037781 0.119754 0.544357
v -0.037781 0.114193 0.559013
v 0.039218 0.114316 0.559060
v -0.038219 0.298503 0.716251
v -0.038219 0.283051 0.718639
v 0.038780 0.283071 0.718769
v 0.038780 0.298523 0.716381
v -0.103915 0.270589 0.836811
v -0.079170 0.271816 1.024506
v -0.079223 0.257309 0.860396
v 0.079328 0.257323 0.860552
v 0.079376 0.271926 1.026117
v -0.152171 0.253979 0.861185
v -0.152171 0.268433 1.024702
v 0.152093 0.268672 1.027623
v 0.152291 0.254003 0.861469
v -0.105836 0.274286 0.821009
v -0.105253 0.282584 0.813878
v -0.210629 0.265599 0.815164
v -0.206247 0.258137 0.822214
v -0.206254 0.278782 1.061281
v -0.210643 0.287056 1.064566
v 0.210495 0.287410 1.068850
v 0.206114 0.279125 1.065468
v 0.206394 0.258170 0.822618
v 0.210779 0.265635 0.815584
v 0.105888 0.295175 1.063132
v 0.105258 0.304289 1.066472
v -0.105406 0.304112 1.064329
v -0.105924 0.295007 1.060980
v 0.105403 0.282602 0.814088
v 0.105976 0.274304 0.821217
vn -0.0320 -0.2175 -0.9755
vn -0.0413 0.0314 -0.9987
vn -0.0709 -0.2591 -0.9632
vn -0.2416 -0.0317 -0.9699
vn -0.1655 -0.9317 0.3234
vn -0.4841 -0.7320 -0.4793
vn 0.0488 0.0498 0.9976
vn 0.0487 0.0499 0.9976
vn 0.0490 0.0495 0.9976
vn 0.0248 -0.0353 0.9991
vn 0.0370 0.0523 0.9979
vn 0.0442 0.0207 0.9988
vn -0.3002 -0.6367 -0.7103
vn -0.2325 -0.1056 -0.9669
vn -0.3795 0.0430 -0.9242
vn -0.0378 -0.7377 -0.6741
vn -0.1086 -0.8580 -0.5021
vn 0.0093 -0.1389 -0.9903
vn -0.0009 -0.0018 -1.0000
vn -0.4678 0.4626 -0.7531
vn -0.4158 0.0157 -0.9093
vn -0.0359 0.0513 0.9980
vn -0.0221 -0.0367 0.9991
vn -0.0546 0.0498 0.9973
vn 0.8114 0.0405 -0.5831
vn 0.1575 -0.9386 0.3068
vn -0.1519 -0.8448 -0.5132
vn 0.0447 0.0212 0.9988
vn 0.0446 0.0207 0.9988
vn 0.0269 -0.0355 0.9990
vn 0.8196 0.0256 -0.5723
vn 0.1655 -0.5627 -0.8099
vn -0.1515 -0.1456 -0.9777
vn 0.8091 0.0192 -0.5873
vn 0.8203 0.0479 -0.5699
vn -0.0668 0.0405 0.9969
vn -0.0527 0.0361 0.9980
vn -0.0464 0.0339 0.9983
vn 0.0033 -0.7765 -0.6301
vn 0.8261 0.0309 -0.5627
vn 0.8353 0.0128 -0.5496
vn 0.7610 -0.0334 -0.6479
vn 0.0754 -0.0084 -0.9971
vn 0.0003 -0.0533 -0.9986
vn -0.0304 -0.0430 0.9986
vn -0.0310 -0.0435 0.9986
vn 0.1075 -0.8587 -0.5010
vn 0.0601 0.0029 -0.9982
vn -0.1046 -0.9739 -0.2015
vn 0.8174 0.0130 -0.5759
vn 0.8328 0.0388 -0.5522
vn 0.8640 -0.1478 -0.4813
vn 0.9182 0.1082 -0.3811
vn 0.1044 -0.9739 -0.2017
vn -0.0455 0.0208 0.9987
vn -0.0575 0.0525 0.9970
vn -0.0275 -0.0351 0.9990
vn -0.0044 -0.7751 -0.6318
vn 0.0603 0.0141 0.9981
vn 0.0341 -0.0386 0.9987
vn 0.0281 -0.0361 0.9990
vn 0.0448 0.2328 0.9715
vn 0.0023 -0.3278 0.9448
vn -0.0430 0.0189 0.9989
vn -0.0043 -0.2916 0.9565
vn -0.2655 0.0065 -0.9641
vn 0.0150 -0.0395 -0.9991
vn 0.0413 0.0324 -0.9986
vn 0.0641 -0.2069 -0.9763
vn -0.0378 -0.0302 -0.9988
vn 0.4475 0.0166 0.8941
vn 0.4132 0.0400 0.9098
vn 0.0414 0.0186 0.9990
vn -0.0058 0.0188 -0.9998
vn -0.7011 0.0301 -0.7125
vn -0.3145 0.1172 0.9420
vn 0.0094 -0.8422 0.5391
vn 0.0033 -0.8640 0.5036
vn 0.0091 -0.8422 0.5391
vn -0.6848 0.0043 -0.7287
vn -0.0110 0.6139 -0.7893
vn 0.2025 0.5676 -0.7980
vn -0.0271 0.2262 0.9737
vn 0.0056 0.1550 0.9879
vn -0.2351 -0.1754 -0.9560
vn -0.9710 0.0110 0.2386
vn -0.3896 -0.2299 0.8918
vn -0.9861 0.0261 0.1641
vn -0.9749 0.1355 0.1769
vn -0.0949 0.9614 0.2584
vn -0.9698 -0.1705 0.1746
vn -0.0882 -0.3111 0.9463
vn -0.0881 -0.3111 0.9463
vn -0.9811 0.0511 0.1866
vn -0.4553 -0.8568 0.2419
vn -0.0629 0.0413 0.9972
vn -0.1256 -0.9424 0.3101
vn -0.0174 0.9636 0.2666
vn -0.5243 0.8286 0.1963
vn -0.0109 0.1559 0.9877
vn -0.0194 0.9763 0.2154
vn 0.0149 -0.3122 0.9499
vn -0.0452 -0.9515 0.3043
vn -0.9749 0.0292 0.2205
vn 0.0110 0.6139 -0.7893
vn -0.7234 0.0199 -0.6901
vn -0.7133 0.0307 -0.7002
vn -0.2039 0.0420 -0.9781
vn -0.2343 -0.0052 -0.9721
vn 0.0019 -0.9793 -0.2026
vn 0.0183 -0.8641 0.5030
vn 0.0306 -0.8583 0.5123
vn -0.0005 -0.8578 0.5140
vn -0.6523 0.1463 -0.7437
vn -0.4408 -0.0452 0.8965
vn -0.4133 0.0364 0.9098
vn -0.4465 0.0166 0.8946
vn -0.4119 0.0399 0.9104
vn 0.4843 0.4319 -0.7609
vn -0.0670 -0.0602 0.9959
vn 0.3145 0.1172 0.9420
vn 0.9711 0.0109 0.2384
vn -0.2025 0.5675 -0.7981
vn -0.2025 0.5676 -0.7980
vn 0.0210 0.9758 0.2177
vn 0.5243 0.8286 0.1963
vn 0.0309 0.2157 0.9760
vn 0.3894 -0.2310 0.8917
vn 0.0981 0.9622 0.2542
vn 0.4551 -0.8572 0.2409
vn 0.0912 -0.3149 0.9448
vn 0.9698 -0.1707 0.1740
vn 0.0171 0.9619 0.2727
vn 0.1258 -0.9427 0.3089
vn -0.0095 -0.3156 0.9488
vn 0.0692 -0.0579 0.9959
vn 0.1426 -0.5410 -0.8289
vn 0.0419 -0.9500 0.3095
vn 0.9748 0.1355 0.1770
vn 0.9749 0.0292 0.2206
vn 0.1066 -0.0581 -0.9926
vn 0.1972 0.0365 -0.9797
vn -0.0003 -0.0018 -1.0000
vn 0.4999 0.0309 -0.8656
vn 0.4941 0.0066 -0.8694
vn 0.4601 0.0217 -0.8876
vn 0.4461 0.0074 -0.8950
vn 0.4286 -0.0478 -0.9022
vn -0.0449 0.6060 -0.7942
vn 0.0614 0.0425 0.9972
vn 0.4409 -0.0453 0.8964
vn 0.4137 0.0366 0.9097
vn 0.9861 0.0261 0.1642
vn 0.0449 0.6060 -0.7942
vn 0.1694 -0.0342 -0.9850
vn 0.9811 0.0511 0.1868
vn -0.6532 -0.1151 -0.7484
vn 0.3956 -0.4284 -0.8124
vn -0.0041 -0.1186 -0.9929
vn -0.0021 -0.9792 -0.2028
vn -0.0000 -1.0000 -0.0000
vn -0.7018 -0.7124 -0.0000
vn -1.0000 -0.0000 -0.0000
vn -0.7018 0.7124 -0.0000
vn -0.0000 1.0000 -0.0000
vn 0.7018 -0.7124 -0.0000
vn 1.0000 -0.0000 -0.0000
vn 0.7018 0.7124 -0.0000
vn -0.0392 0.2205 0.9746
vn 0.1512 -0.9583 -0.2426
vn 0.1670 0.9823 -0.0846
vn 0.0888 -0.8045 0.5873
vn 0.1314 -0.9875 0.0866
vn 0.0541 0.4557 0.8885
vn -0.1670 0.9823 -0.0848
vn 0.1487 -0.9122 0.3819
vn -0.1549 -0.9114 0.3812
vn -0.0731 0.4562 0.8869
vn -0.0000 0.9963 -0.0859
vn 0.0006 -0.8711 -0.4911
vn 0.0011 -0.0818 -0.9966
vn -0.1506 -0.9583 -0.2428
vn -0.0007 0.9330 0.3599
vn -1.0000 -0.0007 -0.0014
vn -1.0000 -0.0003 -0.0017
vn 0.0003 -0.9997 0.0255
vn 1.0000 0.0004 0.0017
vn -0.0002 0.9996 -0.0268
vn 1.0000 0.0010 0.0005
vn -0.0004 -0.7507 0.6606
vn 1.0000 0.0008 0.0014
vn 0.0003 0.7826 -0.6226
vn 0.0006 0.0254 -0.9997
vn 0.0003 0.4067 -0.9136
vn -1.0000 -0.0009 -0.0007
vn -0.0003 -0.3819 0.9242
vn 0.0017 -0.9349 -0.3548
vn -1.0000 -0.0012 -0.0005
vn -0.0006 -0.0254 0.9997
vn 1.0000 0.0012 0.0005
vn -0.0000 0.9904 -0.1383
vn 1.0000 0.0005 0.0013
vn -0.0001 -0.9906 0.1370
vn -1.0000 -0.0005 -0.0013
vn -0.9259 0.3763 -0.0324
vn 0.9259 0.3766 -0.0314
vn -0.0095 0.4408 0.8976
vn 0.0010 -0.0815 -0.9967
vn -0.0031 -0.9291 0.3699
vn -0.1404 -0.9864 0.0855
vn 0.1404 -0.9864 0.0856
vn 0.0011 -0.0814 -0.9967
vn 0.0464 -0.9950 0.0880
vn -0.0464 -0.9951 0.0878
vn -0.0002 -0.9961 0.0879
vn -0.0907 -0.8979 -0.4307
vn -0.0058 -0.7776 0.6287
vn -0.1314 -0.9875 0.0865
vn -0.0990 -0.8051 0.5848
vn 0.0917 -0.8980 -0.4304
vn -0.8769 -0.4789 0.0412
vn 0.8771 -0.4784 0.0422
vn -0.0093 -0.3446 0.9387
vn 0.0008 -0.6518 -0.7584
vn -0.0944 -0.6528 -0.7516
vn 0.0960 -0.6529 -0.7514
vn 0.0583 -0.3447 0.9369
vn -0.0767 -0.3448 0.9355
vn 0.0003 -0.9737 -0.2278
vn -0.3145 0.1173 0.9420
vn 0.0179 -0.8613 0.5077
vn 0.0034 -0.8640 0.5035
vn -0.6848 0.0042 -0.7287
vn 0.2025 0.5675 -0.7981
vn -0.0271 0.2261 0.9737
vn -0.9711 0.0110 0.2386
vn -0.9748 0.1355 0.1770
vn -0.0949 0.9613 0.2585
vn -0.9698 -0.1705 0.1745
vn -0.2343 -0.0051 -0.9722
vn 0.0020 -0.9792 -0.2027
vn -0.4407 -0.0452 0.8965
vn -0.4134 0.0364 0.9098
vn 0.3145 0.1173 0.9420
vn 0.3894 -0.2309 0.8917
vn 0.0912 -0.3148 0.9448
vn -0.0095 -0.3156 0.9489
vn 0.0419 -0.9500 0.3096
vn 0.1973 0.0365 -0.9797
vn 0.4999 0.0308 -0.8655
vn 0.4999 0.0309 -0.8655
vn 0.4942 0.0066 -0.8694
vn 0.4601 0.0218 -0.8876
vn 0.4460 0.0074 -0.8950
vn 0.4410 -0.0453 0.8964
vn -0.6532 -0.1151 -0.7483
vn 0.3956 -0.4283 -0.8124
vn -0.0020 -0.9792 -0.2028
vn 0.1672 0.9823 -0.0845
vn 0.0888 -0.8045 0.5872
vn -0.1671 0.9823 -0.0848
vn 0.1485 -0.9120 0.3824
vn -0.1548 -0.9114 0.3814
vn 0.0011 -0.0820 -0.9966
vn -0.0008 0.9330 0.3599
vn -1.0000 -0.0008 -0.0014
vn -1.0000 -0.0004 -0.0017
vn 0.0002 -0.9997 0.0256
vn 1.0000 0.0003 0.0017
vn -0.0003 0.9996 -0.0267
vn 1.0000 0.0009 0.0007
vn 1.0000 0.0007 0.0014
vn 0.0004 0.7826 -0.6225
vn -1.0000 -0.0008 -0.0008
vn -0.0003 -0.3820 0.9242
vn 0.0001 0.9904 -0.1382
vn -0.0000 -0.9906 0.1370
vn -0.9259 0.3765 -0.0325
vn 0.9260 0.3763 -0.0314
vn -0.0096 0.4410 0.8974
vn 0.0010 -0.0819 -0.9966
vn -0.0031 -0.9291 0.3698
vn 0.0011 -0.0811 -0.9967
vn 0.0464 -0.9950 0.0879
vn -0.0463 -0.9951 0.0878
vn -0.0000 -0.9961 0.0881
vn -0.0907 -0.8979 -0.4306
vn -0.0093 -0.3447 0.9387
vn 0.0008 -0.6516 -0.7586
vn 0.0582 -0.3446 0.9369
vn -0.0767 -0.3449 0.9355
vt 0.793712 0.784264
vt 0.793712 0.786277
vt 0.793712 0.792478
vt 0.793712 0.795226
vt 0.793712 0.786257
vt 0.793712 0.788250
vt 0.793712 0.784264
vt 0.793712 0.784264
vt 0.793712 0.784264
vt 0.793712 0.790899
vt 0.793712 0.794229
vt 0.793712 0.794229
vt 0.793712 0.786257
vt 0.793712 0.792236
vt 0.793712 0.793233
vt 0.793712 0.795226
vt 0.793712 0.784264
vt 0.793712 0.787099
vt 0.793712 0.784264
vt 0.793712 0.796222
vt 0.793712 0.796222
vt 0.793712 0.790920
vt 0.793712 0.790243
vt 0.793712 0.791240
vt 0.793712 0.792236
vt 0.793712 0.788250
vt 0.793712 0.793233
vt 0.793712 0.794229
vt 0.793712 0.785261
vt 0.793712 0.789247
vt 0.793712 0.788250
vt 0.793712 0.787254
vt 0.793712 0.786257
vt 0.793712 0.785261
vt 0.793712 0.787254
vt 0.793712 0.788716
vt 0.793712 0.793233
vt 0.793712 0.788250
vt 0.793712 0.786257
vt 0.793712 0.788402
vt 0.793712 0.790243
vt 0.793712 0.795226
vt 0.793712 0.795226
vt 0.793712 0.788417
vt 0.793712 0.788250
vt 0.793712 0.790243
vt 0.793712 0.788250
vt 0.793712 0.790243
vt 0.793712 0.796222
vt 0.793712 0.794229
vt 0.793712 0.786257
vt 0.793712 0.796222
vt 0.793712 0.795226
vt 0.793712 0.796222
vt 0.793712 0.786257
vt 0.793712 0.792236
vt 0.793712 0.794229
vt 0.793712 0.792236
vt 0.793712 0.796222
vt 0.793712 0.790243
vt 0.793712 0.794229
vt 0.793712 0.794229
vt 0.793712 0.786258
vt 0.793712 0.786257
vt 0.793712 0.784264
vt 0.793712 0.785261
vt 0.793712 0.793233
vt 0.044774 0.892243
vt 0.038524 0.842243
vt 0.044774 0.842243
vt 0.038524 0.892243
vt 0.032274 0.842243
vt 0.026024 0.892243
vt 0.026024 0.842243
vt 0.019774 0.842243
vt 0.032274 0.892243
vt 0.793712 0.800520
vt 0.793712 0.800459
vt 0.793712 0.800520
vt 0.793712 0.796180
vt 0.793712 0.801345
vt 0.793712 0.801344
vt 0.793712 0.801346
vt 0.793712 0.800519
vt 0.793712 0.796211
vt 0.793712 0.796180
vt 0.793712 0.796180
vt 0.793712 0.795226
vt 0.793712 0.801405
vt 0.793712 0.801406
vt 0.793712 0.801345
vt 0.793712 0.796211
vt 0.793712 0.800519
vt 0.793712 0.800459
vt 0.793712 0.800459
vt 0.225434 0.889621
vt 0.225434 0.889621
vt 0.225434 0.889621
vt 0.793712 0.801406
vt 0.212413 0.881834
vt 0.212413 0.882794
vt 0.212413 0.881809
vt 0.212413 0.881834
vt 0.212413 0.882794
vt 0.212413 0.882781
vt 0.212413 0.882794
vt 0.212413 0.882780
vt 0.212413 0.882781
vt 0.212413 0.881809
vt 0.212413 0.881809
vt 0.212413 0.882780
vt 0.019774 0.892243
vt 0.793712 0.796210
vt 0.212413 0.881834
s 0
usemtl Palette
f 10/1/1 23/2/1 11/1/1
f 22/3/2 21/4/2 20/4/2
f 11/1/3 23/2/3 12/1/3
f 23/2/4 30/5/4 29/6/4
f 44/7/5 45/8/5 4/1/5
f 41/1/6 9/9/6 42/1/6
f 34/10/7 31/11/8 35/12/9
f 18/13/10 31/11/11 34/10/12
f 42/1/13 9/9/13 10/1/13
f 27/14/14 25/15/14 22/3/14
f 26/12/15 24/16/15 25/15/15
f 43/17/16 10/1/16 11/1/16
f 44/7/17 11/1/17 12/1/17
f 107/1/18 77/18/18 62/19/18
f 22/3/19 20/4/19 19/4/19
f 39/20/20 48/21/20 24/16/20
f 26/12/21 25/15/21 27/14/21
f 31/11/22 18/13/23 89/22/24
f 104/23/25 71/24/25 103/25/25
f 98/1/26 97/8/26 60/1/26
f 42/1/27 10/1/27 43/17/27
f 34/10/28 33/26/29 18/13/30
f 103/25/31 72/27/31 102/28/31
f 61/1/32 79/29/32 96/1/32
f 77/18/33 79/29/33 61/1/33
f 70/30/34 105/31/34 69/32/34
f 71/24/35 104/23/35 70/30/35
f 89/22/36 86/12/37 31/11/38
f 97/8/39 61/1/39 96/1/39
f 72/27/40 103/25/40 71/24/40
f 73/4/41 102/28/41 72/27/41
f 69/32/42 106/33/42 68/34/42
f 84/35/43 77/18/43 83/30/43
f 74/36/44 22/3/44 76/37/44
f 18/13/45 87/5/46 88/38/45
f 97/8/47 62/19/47 61/1/47
f 83/30/48 77/18/48 82/24/48
f 97/8/49 98/1/49 62/19/49
f 106/33/50 69/32/50 105/31/50
f 105/31/51 70/30/51 104/23/51
f 94/1/52 68/34/52 106/33/52
f 102/28/53 73/4/53 93/21/53
f 44/7/54 12/1/54 45/8/54
f 88/38/55 89/22/56 18/13/57
f 43/17/58 11/1/58 44/7/58
f 33/26/59 32/39/60 18/13/61
f 31/11/62 6/20/62 35/12/62
f 32/39/63 8/17/63 4/1/63
f 34/10/64 37/40/64 33/26/64
f 60/1/65 18/13/65 4/1/65
f 22/3/66 28/41/66 27/14/66
f 22/3/67 74/36/67 23/2/67
f 76/37/68 75/42/68 78/43/68
f 61/1/69 62/19/69 77/18/69
f 77/18/70 74/36/70 76/37/70
f 91/44/71 64/45/71 65/46/71
f 91/44/72 65/46/72 66/14/72
f 91/44/73 89/22/73 88/38/73
f 74/36/74 77/18/74 23/2/74
f 28/41/75 52/47/75 51/48/75
f 38/12/76 1/49/76 17/50/76
f 60/1/77 108/7/78 98/1/79
f 29/6/80 53/51/80 52/47/80
f 19/4/81 46/52/81 40/20/81
f 100/49/82 80/53/82 78/43/82
f 5/54/83 35/12/83 6/20/83
f 31/11/84 3/20/84 6/20/84
f 9/9/85 23/2/85 10/1/85
f 13/33/86 52/47/86 53/51/86
f 2/1/87 36/55/87 13/33/87
f 16/56/88 49/57/88 50/58/88
f 17/50/89 39/20/89 49/57/89
f 5/54/90 47/21/90 48/21/90
f 53/51/91 2/1/91 13/33/91
f 7/1/92 32/39/92 36/55/93
f 51/48/94 16/56/94 50/58/94
f 7/1/95 41/1/95 42/1/95
f 34/10/96 38/12/96 37/40/96
f 8/17/97 42/1/97 43/17/97
f 6/20/98 46/52/98 47/21/98
f 39/20/99 5/54/99 48/21/99
f 57/20/100 3/20/100 31/11/100
f 46/52/101 3/20/101 40/20/101
f 18/13/102 32/39/102 4/1/102
f 8/17/103 44/7/103 4/1/103
f 14/6/104 51/48/104 52/47/104
f 19/4/105 99/59/105 75/42/105
f 27/14/106 49/57/106 26/12/106
f 28/41/107 50/58/107 27/14/107
f 25/15/108 21/4/108 22/3/108
f 23/2/109 28/41/109 22/3/109
f 98/1/110 107/1/110 62/19/110
f 45/8/111 108/7/112 4/1/113
f 39/20/114 26/12/114 49/57/114
f 36/55/115 14/6/115 13/33/115
f 16/56/116 38/12/116 17/50/116
f 37/40/117 15/60/117 14/6/117
f 37/40/118 16/56/118 15/60/118
f 80/53/119 93/21/119 73/4/119
f 36/55/120 33/26/120 37/40/120
f 54/20/121 92/61/121 67/62/121
f 63/63/122 105/31/122 64/45/122
f 47/21/123 24/16/124 48/21/124
f 3/20/125 99/59/125 40/20/125
f 56/20/126 93/21/126 101/21/126
f 56/20/127 86/12/127 92/61/127
f 55/1/128 90/64/128 58/1/128
f 57/20/129 101/21/129 100/49/129
f 94/1/130 58/1/130 95/65/130
f 58/1/131 87/5/131 59/1/131
f 106/33/132 55/1/132 94/1/132
f 100/49/133 99/59/133 57/20/133
f 95/65/134 59/1/134 96/1/134
f 87/5/135 60/1/135 59/1/135
f 88/38/136 90/64/136 91/44/136
f 79/29/137 95/65/137 96/1/137
f 96/1/138 60/1/138 97/8/138
f 93/21/139 67/62/139 102/28/139
f 64/45/140 104/23/140 65/46/140
f 85/66/141 77/18/141 84/35/141
f 78/43/142 81/67/142 76/37/142
f 19/4/143 76/37/143 22/3/143
f 73/4/144 81/67/144 80/53/144
f 72/27/145 82/24/145 81/67/145
f 71/24/146 83/30/146 82/24/146
f 69/32/147 83/30/147 70/30/147
f 68/34/148 84/35/148 69/32/148
f 46/52/149 21/4/149 47/21/149
f 89/22/150 92/61/150 86/12/150
f 64/45/151 90/64/151 63/63/151
f 92/61/152 66/14/152 67/62/152
f 66/14/153 102/28/153 67/62/153
f 99/59/154 78/43/154 75/42/154
f 76/37/155 82/24/155 77/18/155
f 66/14/156 104/23/156 103/25/156
f 30/5/157 41/1/157 53/51/157
f 85/66/158 94/1/158 95/65/158
f 12/1/159 77/18/159 107/1/159
f 108/7/160 12/1/160 107/1/160
s 140
f 116/68/161 109/69/162 115/70/161
f 110/71/162 111/72/163 109/69/162
f 111/72/163 114/73/164 113/74/164
f 114/73/164 123/75/165 113/74/164
f 117/69/166 116/68/161 115/70/161
f 119/72/167 118/71/166 117/69/166
f 121/74/168 120/76/167 119/72/167
f 123/75/165 122/73/168 121/74/168
s 0
f 31/11/169 86/12/169 57/20/169
f 129/77/170 173/78/170 164/79/170
f 136/80/171 127/42/171 133/42/171
f 139/81/172 170/82/172 165/81/172
f 132/83/173 172/84/173 131/84/173
f 184/85/174 128/86/174 136/80/174
f 126/87/175 134/88/175 125/4/175
f 130/82/176 186/89/176 177/89/176
f 132/83/177 183/90/177 138/91/177
f 126/87/178 185/92/178 135/80/178
f 133/42/179 135/80/179 136/80/179
f 137/93/180 166/79/180 164/79/180
f 174/88/181 125/4/181 134/88/181
f 131/84/182 188/94/182 181/95/182
f 140/96/183 142/97/183 143/98/183
f 146/97/184 149/96/184 150/97/184
f 160/96/185 146/97/185 161/97/185
f 162/98/186 146/97/186 147/98/186
f 163/98/187 147/98/187 144/98/187
f 163/98/188 145/96/188 160/96/188
f 151/98/189 152/98/189 148/98/189
f 147/98/190 150/97/190 151/98/190
f 147/98/191 148/98/191 144/98/191
f 145/96/192 148/98/192 149/96/192
f 153/96/193 156/98/193 157/96/193
f 149/96/194 152/98/194 153/96/194
f 150/97/195 153/96/195 154/97/195
f 150/97/196 155/98/196 151/98/196
f 159/98/197 157/96/197 156/98/197
f 154/97/198 157/96/198 158/97/198
f 154/97/199 159/98/199 155/98/199
f 155/98/200 156/98/200 152/98/200
f 141/96/201 163/98/201 160/96/201
f 140/96/202 162/98/202 163/98/202
f 142/97/203 162/98/203 143/98/203
f 141/96/204 161/97/204 142/97/204
f 175/4/205 126/87/205 125/4/205
f 128/86/206 182/42/206 127/42/206
f 136/80/207 185/92/207 184/85/207
f 133/42/208 174/88/208 134/88/208
f 138/91/209 186/89/209 139/81/209
f 130/82/210 176/78/210 129/77/210
f 132/83/211 181/95/211 180/99/211
f 127/42/212 187/42/212 133/42/212
f 169/77/213 165/81/213 170/82/213
f 172/84/214 168/91/214 167/93/214
f 165/81/215 167/93/215 168/91/215
f 137/93/216 172/84/216 167/93/216
f 139/81/217 168/91/217 138/91/217
f 130/82/218 169/77/218 170/82/218
f 138/91/219 171/83/219 132/83/219
f 164/79/220 169/77/220 129/77/220
f 176/100/221 178/101/221 175/102/221
f 181/103/222 179/104/222 180/105/222
f 184/106/223 186/107/223 183/108/223
f 187/109/224 173/100/224 174/110/224
f 181/103/225 187/109/225 182/109/225
f 176/100/226 174/110/226 173/100/226
f 177/111/227 185/106/227 178/101/227
f 180/105/228 184/106/228 183/108/228
f 164/79/229 188/94/229 137/93/229
f 28/41/75 29/6/75 52/47/75
f 38/12/230 5/54/230 1/49/230
f 60/1/77 4/1/231 108/7/232
f 29/6/233 30/5/233 53/51/233
f 19/4/81 20/4/81 46/52/81
f 100/49/234 101/21/234 80/53/82
f 5/54/235 38/12/235 35/12/235
f 9/9/85 30/5/85 23/2/85
f 13/33/236 14/6/236 52/47/236
f 2/1/87 7/1/87 36/55/87
f 16/56/88 17/50/88 49/57/88
f 17/50/237 1/49/237 39/20/237
f 5/54/238 6/20/238 47/21/238
f 53/51/239 41/1/239 2/1/239
f 7/1/93 8/17/93 32/39/93
f 51/48/94 15/60/94 16/56/94
f 7/1/95 2/1/95 41/1/95
f 34/10/96 35/12/96 38/12/96
f 8/17/97 7/1/97 42/1/97
f 39/20/99 1/49/99 5/54/99
f 46/52/101 6/20/101 3/20/101
f 8/17/103 43/17/103 44/7/103
f 14/6/104 15/60/104 51/48/104
f 19/4/105 40/20/105 99/59/105
f 27/14/106 50/58/106 49/57/106
f 28/41/107 51/48/107 50/58/107
f 25/15/108 24/16/108 21/4/108
f 23/2/240 29/6/240 28/41/240
f 98/1/241 108/7/241 107/1/241
f 39/20/114 24/16/114 26/12/114
f 36/55/242 37/40/242 14/6/242
f 16/56/243 37/40/243 38/12/243
f 80/53/119 101/21/119 93/21/119
f 36/55/120 32/39/120 33/26/120
f 54/20/244 56/20/244 92/61/244
f 63/63/122 106/33/122 105/31/122
f 47/21/124 21/4/124 24/16/124
f 3/20/125 57/20/125 99/59/125
f 56/20/126 54/20/126 93/21/126
f 56/20/127 57/20/127 86/12/127
f 55/1/245 63/63/245 90/64/245
f 57/20/129 56/20/129 101/21/129
f 94/1/130 55/1/130 58/1/130
f 58/1/246 90/64/246 87/5/246
f 106/33/132 63/63/132 55/1/132
f 95/65/134 58/1/134 59/1/134
f 87/5/247 18/13/247 60/1/247
f 88/38/136 87/5/136 90/64/136
f 79/29/137 85/66/137 95/65/137
f 96/1/248 59/1/248 60/1/248
f 93/21/139 54/20/139 67/62/139
f 64/45/140 105/31/140 104/23/140
f 85/66/141 79/29/141 77/18/141
f 78/43/249 80/53/249 81/67/249
f 19/4/143 75/42/143 76/37/143
f 73/4/250 72/27/251 81/67/250
f 72/27/252 71/24/252 82/24/252
f 71/24/253 70/30/253 83/30/253
f 69/32/254 84/35/254 83/30/254
f 68/34/148 85/66/148 84/35/148
f 46/52/149 20/4/149 21/4/149
f 89/22/150 91/44/150 92/61/150
f 64/45/255 91/44/255 90/64/255
f 92/61/152 91/44/152 66/14/152
f 66/14/153 103/25/153 102/28/153
f 99/59/154 100/49/154 78/43/154
f 76/37/155 81/67/155 82/24/155
f 66/14/156 65/46/156 104/23/156
f 30/5/256 9/9/256 41/1/256
f 85/66/257 68/34/257 94/1/257
f 12/1/159 23/2/159 77/18/159
f 108/7/258 45/8/258 12/1/258
s 140
f 116/68/161 110/71/162 109/69/162
f 110/71/162 112/76/163 111/72/163
f 111/72/163 112/76/163 114/73/164
f 114/73/164 124/112/165 123/75/165
f 117/69/166 118/71/166 116/68/161
f 119/72/167 120/76/167 118/71/166
f 121/74/168 122/73/168 120/76/167
f 123/75/165 124/112/165 122/73/168
s 0
f 129/77/170 176/78/170 173/78/170
f 136/80/259 128/86/259 127/42/259
f 139/81/260 130/82/260 170/82/260
f 132/83/173 171/83/173 172/84/173
f 184/85/174 179/113/174 128/86/174
f 126/87/261 135/80/261 134/88/261
f 130/82/262 139/81/262 186/89/262
f 132/83/263 180/99/263 183/90/263
f 126/87/178 178/113/178 185/92/178
f 133/42/179 134/88/179 135/80/179
f 137/93/180 167/93/180 166/79/180
f 174/88/264 175/4/264 125/4/264
f 131/84/182 137/93/182 188/94/182
f 140/96/265 141/96/265 142/97/265
f 146/97/266 145/96/266 149/96/266
f 160/96/267 145/96/267 146/97/267
f 162/98/268 161/97/268 146/97/268
f 163/98/269 162/98/269 147/98/269
f 163/98/270 144/98/270 145/96/270
f 151/98/271 155/98/271 152/98/271
f 147/98/190 146/97/190 150/97/190
f 147/98/272 151/98/272 148/98/272
f 145/96/273 144/98/273 148/98/273
f 153/96/193 152/98/193 156/98/193
f 149/96/194 148/98/194 152/98/194
f 150/97/274 149/96/274 153/96/274
f 150/97/275 154/97/275 155/98/275
f 159/98/197 158/97/197 157/96/197
f 154/97/198 153/96/198 157/96/198
f 154/97/199 158/97/199 159/98/199
f 155/98/200 159/98/200 156/98/200
f 141/96/276 140/96/276 163/98/276
f 140/96/202 143/98/202 162/98/202
f 142/97/277 161/97/277 162/98/277
f 141/96/204 160/96/204 161/97/204
f 175/4/278 178/113/278 126/87/278
f 128/86/279 179/113/279 182/42/279
f 136/80/280 135/80/280 185/92/280
f 133/42/281 187/42/281 174/88/281
f 138/91/282 183/90/282 186/89/282
f 130/82/210 177/89/210 176/78/210
f 132/83/211 131/84/211 181/95/211
f 127/42/283 182/42/283 187/42/283
f 169/77/284 166/79/284 165/81/284
f 172/84/285 171/83/285 168/91/285
f 165/81/286 166/79/286 167/93/286
f 137/93/287 131/84/216 172/84/216
f 139/81/217 165/81/217 168/91/217
f 130/82/218 129/77/218 169/77/218
f 138/91/219 168/91/219 171/83/219
f 164/79/220 166/79/220 169/77/220
f 176/100/221 177/111/221 178/101/221
f 181/103/222 182/109/222 179/104/222
f 184/106/288 185/106/288 186/107/288
f 187/109/289 188/114/289 173/100/289
f 181/103/225 188/114/225 187/109/225
f 176/100/226 175/102/226 174/110/226
f 177/111/290 186/107/290 185/106/290
f 180/105/291 179/104/291 184/106/291
f 164/79/229 173/78/229 188/94/229
