# Blender 5.0.1
# www.blender.org
mtllib Coffee_Table.mtl
o Coffee_Table
v -0.855620 -0.330064 0.308358
v -0.855620 0.330064 0.308358
v -0.853771 -0.310881 0.234452
v -0.853771 0.310881 0.234452
v -0.748903 -0.252054 0.000000
v -0.793408 -0.252054 0.000000
v -0.748903 -0.207549 0.000000
v -0.793408 -0.207549 0.000000
v -0.744880 -0.203525 0.337562
v -0.744880 -0.256077 0.337562
v -0.797431 -0.256077 0.337562
v -0.797431 -0.203525 0.337562
v -0.748903 0.207549 0.000000
v -0.793408 0.207549 0.000000
v -0.748903 0.252054 0.000000
v -0.793408 0.252054 0.000000
v -0.744880 0.256077 0.337562
v -0.744880 0.203525 0.337562
v -0.797431 0.203525 0.337562
v -0.797431 0.256077 0.337562
v 0.855620 -0.330064 0.308358
v 0.855620 0.330064 0.308358
v 0.853771 -0.310881 0.234452
v 0.853771 0.310881 0.234452
v 0.748903 -0.252054 0.000000
v 0.793408 -0.252054 0.000000
v 0.748903 -0.207549 0.000000
v 0.793408 -0.207549 0.000000
v 0.744880 -0.203525 0.337562
v 0.744880 -0.256077 0.337562
v 0.797431 -0.256077 0.337562
v 0.797431 -0.203525 0.337562
v 0.748903 0.207549 0.000000
v 0.793408 0.207549 0.000000
v 0.748903 0.252054 0.000000
v 0.793408 0.252054 0.000000
v 0.744880 0.256077 0.337562
v 0.744880 0.203525 0.337562
v 0.797431 0.203525 0.337562
v 0.797431 0.256077 0.337562
v -0.855620 -0.330064 0.337562
v -0.855620 0.330064 0.337562
v 0.855620 -0.330064 0.337562
v 0.855620 0.330064 0.337562
v -0.855620 -0.330064 0.380765
v -0.855620 0.330064 0.380765
v 0.855620 -0.330064 0.380765
v 0.855620 0.330064 0.380765
vn -0.9997 -0.0000 -0.0250
vn -0.0000 0.9679 -0.2512
vn -0.0000 -0.0000 -1.0000
vn -0.0000 -0.9679 -0.2512
vn -0.9999 -0.0000 -0.0119
vn 0.9999 -0.0000 -0.0119
vn -0.0000 0.9999 -0.0119
vn -0.0000 -0.9999 -0.0119
vn 0.9997 -0.0000 -0.0250
vn -0.0000 -0.0000 1.0000
vn -0.0000 -1.0000 -0.0000
vn -1.0000 -0.0000 -0.0000
vn -0.0000 1.0000 -0.0000
vn 1.0000 -0.0000 -0.0000
vt 0.133389 0.948087
vt 0.126771 0.973461
vt 0.133389 0.962306
vt 0.126771 0.957828
vt 0.065711 0.855680
vt 0.015711 0.905680
vt 0.015711 0.855680
vt 0.065711 0.905680
vt 0.133845 0.972314
vt 0.133845 0.956681
vt 0.787470 0.781886
vt 0.787470 0.797519
s 0
usemtl Palette
f 3/1/1 2/2/1 4/3/1
f 22/2/2 4/3/2 2/2/2
f 24/3/3 3/1/3 4/3/3
f 3/1/4 21/4/4 1/4/4
f 6/5/3 7/6/3 5/7/3
f 14/5/3 15/6/3 13/7/3
f 11/5/5 8/8/5 6/5/5
f 9/6/6 5/7/6 7/6/6
f 8/8/7 9/6/7 7/6/7
f 10/7/8 6/5/8 5/7/8
f 19/5/5 16/8/5 14/5/5
f 17/6/6 13/7/6 15/6/6
f 16/8/7 17/6/7 15/6/7
f 18/7/8 14/5/8 13/7/8
f 22/2/9 23/1/9 24/3/9
f 27/6/3 26/5/3 25/7/3
f 35/6/3 34/5/3 33/7/3
f 28/8/6 31/5/6 26/5/6
f 25/7/5 29/6/5 27/6/5
f 27/6/7 32/8/7 28/8/7
f 26/5/8 30/7/8 25/7/8
f 36/8/6 39/5/6 34/5/6
f 33/7/5 37/6/5 35/6/5
f 35/6/7 40/8/7 36/8/7
f 34/5/8 38/7/8 33/7/8
f 22/9/10 1/10/10 21/10/10
f 41/11/3 44/12/3 43/11/3
f 48/12/10 45/11/10 47/11/10
f 43/11/11 45/11/11 41/11/11
f 41/11/12 46/12/12 42/12/12
f 42/12/13 48/12/13 44/12/13
f 44/12/14 47/11/14 43/11/14
f 3/1/1 1/4/1 2/2/1
f 22/2/2 24/3/2 4/3/2
f 24/3/3 23/1/3 3/1/3
f 3/1/4 23/1/4 21/4/4
f 6/5/3 8/8/3 7/6/3
f 14/5/3 16/8/3 15/6/3
f 11/5/5 12/8/5 8/8/5
f 9/6/6 10/7/6 5/7/6
f 8/8/7 12/8/7 9/6/7
f 10/7/8 11/5/8 6/5/8
f 19/5/5 20/8/5 16/8/5
f 17/6/6 18/7/6 13/7/6
f 16/8/7 20/8/7 17/6/7
f 18/7/8 19/5/8 14/5/8
f 22/2/9 21/4/9 23/1/9
f 27/6/3 28/8/3 26/5/3
f 35/6/3 36/8/3 34/5/3
f 28/8/6 32/8/6 31/5/6
f 25/7/5 30/7/5 29/6/5
f 27/6/7 29/6/7 32/8/7
f 26/5/8 31/5/8 30/7/8
f 36/8/6 40/8/6 39/5/6
f 33/7/5 38/7/5 37/6/5
f 35/6/7 37/6/7 40/8/7
f 34/5/8 39/5/8 38/7/8
f 22/9/10 2/9/10 1/10/10
f 41/11/3 42/12/3 44/12/3
f 48/12/10 46/12/10 45/11/10
f 43/11/11 47/11/11 45/11/11
f 41/11/12 45/11/12 46/12/12
f 42/12/13 46/12/13 48/12/13
f 44/12/14 48/12/14 47/11/14
