# Blender 5.0.1
# www.blender.org
mtllib Counter_1_Ac.mtl
o Counter_1_Ac
v 0.500000 -0.004180 0.004931
v 0.500000 -0.004180 0.019037
v -0.500000 -0.004180 0.004931
v -0.500000 -0.004180 0.019037
v 0.500000 -0.344947 0.004931
v -0.500000 -0.344947 0.004931
v -0.500000 -0.344947 0.019037
v 0.500000 -0.344947 0.019037
vn -0.0000 1.0000 -0.0000
vn -0.0000 -1.0000 -0.0000
vn 1.0000 -0.0000 -0.0000
vn -0.0000 -0.0000 -1.0000
vn -1.0000 -0.0000 -0.0000
vn -0.0000 -0.0000 1.0000
vt 0.292520 0.869304
vt 0.292520 0.873052
s 0
usemtl Palette
f 3/1/1 2/2/1 1/2/1
f 8/2/2 6/1/2 5/2/2
f 2/2/3 5/2/3 1/2/3
f 1/2/4 6/1/4 3/1/4
f 3/1/5 7/1/5 4/1/5
f 4/1/6 8/2/6 2/2/6
f 3/1/1 4/1/1 2/2/1
f 8/2/2 7/1/2 6/1/2
f 2/2/3 8/2/3 5/2/3
f 1/2/4 5/2/4 6/1/4
f 3/1/5 6/1/5 7/1/5
f 4/1/6 7/1/6 8/2/6
