# Blender 5.0.1
# www.blender.org
mtllib Counter_3_A.mtl
o Counter_3_A
v 0.500000 0.381159 0.949037
v 0.500000 -0.381159 0.949037
v 0.500000 0.381159 0.918105
v 0.500000 -0.381159 0.918105
v 0.500000 0.028855 0.904672
v 0.500000 -0.028855 0.904672
v 0.500000 -0.039230 0.918104
v 0.500000 0.039230 0.918104
v -0.500000 0.381159 0.949037
v -0.500000 -0.381159 0.949037
v -0.500000 0.381159 0.918105
v -0.500000 -0.381159 0.918105
v -0.500000 0.028855 0.904672
v -0.500000 -0.028855 0.904672
v -0.500000 -0.039230 0.918104
v -0.500000 0.039230 0.918104
vn 1.0000 -0.0000 -0.0000
vn -0.0000 -1.0000 -0.0000
vn -0.0000 -0.0000 1.0000
vn -0.0000 -0.0000 -1.0000
vn -0.0000 -0.7914 -0.6113
vn -0.0000 0.7914 -0.6113
vn -1.0000 -0.0000 -0.0000
vn -0.0000 1.0000 -0.0000
vt 0.302937 0.875656
vt 0.302937 0.874949
vt 0.205213 0.874349
vt 0.205213 0.873642
s 0
usemtl Palette
f 4/1/1 1/2/1 2/1/1
f 10/1/2 4/1/2 2/1/2
f 9/2/3 2/1/3 1/2/3
f 12/1/4 3/2/4 4/1/4
f 14/3/4 5/4/4 6/3/4
f 15/3/5 6/3/5 7/3/5
f 5/4/1 7/3/1 6/3/1
f 16/4/6 5/4/6 13/4/6
f 9/2/7 12/1/7 10/1/7
f 15/3/7 13/4/7 14/3/7
f 1/2/8 11/2/8 9/2/8
f 4/1/1 3/2/1 1/2/1
f 10/1/2 12/1/2 4/1/2
f 9/2/3 10/1/3 2/1/3
f 12/1/4 11/2/4 3/2/4
f 14/3/4 13/4/4 5/4/4
f 15/3/5 14/3/5 6/3/5
f 5/4/1 8/4/1 7/3/1
f 16/4/6 8/4/6 5/4/6
f 9/2/7 11/2/7 12/1/7
f 15/3/7 16/4/7 13/4/7
f 1/2/8 3/2/8 11/2/8
