# Blender 5.0.1
# www.blender.org
mtllib Counter_2_A.mtl
o Counter_2_A
v 0.500001 -0.085265 0.918105
v 0.500001 0.402476 0.918105
v 0.500001 0.402476 0.000000
v 0.500001 -0.085265 0.000000
v 0.500000 -0.359843 0.918105
v 0.500000 0.402476 0.949037
v 0.500000 -0.359843 0.949037
v -0.500001 -0.085265 0.918105
v -0.500001 0.402476 0.918105
v -0.500001 0.402476 0.000000
v -0.500001 -0.085265 0.000000
v -0.500000 -0.359843 0.918105
v -0.500000 0.402476 0.949037
v -0.500000 -0.359843 0.949037
vn -0.0000 -0.0000 -1.0000
vn 1.0000 -0.0000 -0.0000
vn -0.0000 -0.0000 1.0000
vn -0.0000 1.0000 -0.0000
vn -0.0000 -1.0000 -0.0000
vn -1.0000 -0.0000 -0.0000
vt 0.301880 0.866252
vt 0.301880 0.865545
vt 0.304659 0.864993
vt 0.304659 0.883162
vt 0.292520 0.872345
vt 0.292520 0.873052
vt 0.281103 0.886282
vt 0.284380 0.863753
s 0
usemtl Palette
f 11/1/1 3/2/1 4/1/1
f 3/3/2 1/4/2 4/4/2
f 13/5/3 7/6/3 6/5/3
f 13/5/4 2/5/4 9/5/4
f 5/6/5 14/6/5 12/6/5
f 2/5/2 7/6/2 5/6/2
f 9/7/4 3/7/4 10/7/4
f 12/6/1 2/5/1 5/6/1
f 8/4/6 10/3/6 11/4/6
f 14/6/6 9/5/6 12/6/6
f 8/8/5 4/8/5 1/8/5
f 11/1/1 10/2/1 3/2/1
f 3/3/2 2/3/2 1/4/2
f 13/5/3 14/6/3 7/6/3
f 13/5/4 6/5/4 2/5/4
f 5/6/5 7/6/5 14/6/5
f 2/5/2 6/5/2 7/6/2
f 9/7/4 2/7/4 3/7/4
f 12/6/1 9/5/1 2/5/1
f 8/4/6 9/3/6 10/3/6
f 14/6/6 13/5/6 9/5/6
f 8/8/5 11/8/5 4/8/5
