# Blender 5.0.1
# www.blender.org
mtllib Counter_3_B.mtl
o Counter_3_B
v 0.500000 0.381159 0.949037
v 0.500000 -0.381159 0.949037
v 0.500000 0.381159 0.918105
v 0.500000 -0.381159 0.918105
v 0.500000 0.381159 0.918105
v 0.500000 -0.381159 0.918105
v 0.500000 0.381159 0.000000
v 0.500000 -0.381159 -0.000000
v 0.458973 -0.381159 -0.000000
v 0.458973 0.381159 0.000000
v 0.458973 -0.381159 0.918105
v 0.458973 0.381159 0.918105
v 0.445541 -0.028855 0.904672
v 0.445541 0.028855 0.904672
v 0.445541 0.028855 -0.000000
v 0.445541 -0.028855 -0.000000
v 0.458973 -0.039230 -0.000000
v 0.458973 0.039230 -0.000000
v 0.458973 -0.039230 0.904672
v 0.458973 0.039230 0.904672
v 0.445541 -0.028855 0.904672
v 0.445541 0.028855 0.904672
v 0.445541 -0.039230 0.918104
v 0.445541 0.039230 0.918104
v -0.500000 0.381159 0.949037
v -0.500000 -0.381159 0.949037
v -0.500000 0.381159 0.918105
v -0.500000 -0.381159 0.918105
v -0.500000 0.381159 0.918105
v -0.500000 -0.381159 0.918105
v -0.500000 0.381159 0.000000
v -0.500000 -0.381159 -0.000000
v -0.458973 -0.381159 -0.000000
v -0.458973 0.381159 0.000000
v -0.458973 -0.381159 0.918105
v -0.458973 0.381159 0.918105
v -0.445541 -0.028855 0.904672
v -0.445541 0.028855 0.904672
v -0.445541 0.028855 -0.000000
v -0.445541 -0.028855 -0.000000
v -0.458973 -0.039230 -0.000000
v -0.458973 0.039230 -0.000000
v -0.458973 -0.039230 0.904672
v -0.458973 0.039230 0.904672
v -0.445541 -0.028855 0.904672
v -0.445541 0.028855 0.904672
v -0.445541 -0.039230 0.918104
v -0.445541 0.039230 0.918104
vn 1.0000 -0.0000 -0.0000
vn -0.0000 -1.0000 -0.0000
vn -0.0000 -0.0000 1.0000
vn -0.0000 -0.0000 -1.0000
vn -1.0000 -0.0000 -0.0000
vn -0.5216 0.6752 -0.5216
vn -0.0000 1.0000 -0.0000
vn -0.6113 0.7914 -0.0000
vn -0.6113 -0.7914 -0.0000
vn -0.0000 0.7914 -0.6113
vn -0.5216 -0.6752 -0.5216
vn -0.0000 -0.7914 -0.6113
vn 0.7071 -0.0000 0.7071
vn 0.5216 0.6752 -0.5216
vn 0.6113 0.7914 -0.0000
vn 0.6113 -0.7914 -0.0000
vn 0.5216 -0.6752 -0.5216
vn -0.7071 -0.0000 0.7071
vt 0.302937 0.875656
vt 0.302937 0.874949
vt 0.205213 0.874030
vt 0.205213 0.873255
vt 0.213026 0.889933
vt 0.200800 0.863748
vt 0.205213 0.869100
vt 0.205213 0.874349
vt 0.205213 0.870601
vt 0.205213 0.873642
vt 0.213026 0.894863
vt 0.213026 0.894863
vt 0.205213 0.874030
s 0
usemtl Palette
f 4/1/1 1/2/1 2/1/1
f 26/1/2 4/1/2 2/1/2
f 25/2/3 2/1/3 1/2/3
f 28/1/4 3/2/4 4/1/4
f 45/3/4 22/4/4 21/3/4
f 11/1/5 10/2/5 9/1/5
f 20/5/6 14/5/6 24/6/6
f 6/1/1 7/2/1 5/2/1
f 7/2/7 12/2/7 5/2/7
f 6/1/2 9/1/2 8/1/2
f 8/1/4 10/2/4 7/2/4
f 14/7/5 16/8/5 13/9/5
f 14/7/8 18/10/8 15/10/8
f 16/8/9 19/9/9 13/9/9
f 15/10/4 17/8/4 16/8/4
f 48/4/10 22/4/10 46/4/10
f 21/11/11 19/6/11 23/12/11
f 47/13/12 21/3/12 23/13/12
f 23/12/13 20/5/13 24/6/13
f 25/2/5 28/1/5 26/1/5
f 35/1/1 34/2/1 36/2/1
f 44/5/14 48/6/14 38/5/14
f 30/1/5 31/2/5 32/1/5
f 36/2/7 31/2/7 29/2/7
f 33/1/2 30/1/2 32/1/2
f 34/2/4 32/1/4 31/2/4
f 40/8/1 38/7/1 37/9/1
f 42/10/15 38/7/15 39/10/15
f 43/9/16 40/8/16 37/9/16
f 41/8/4 39/10/4 40/8/4
f 45/11/17 47/12/17 43/6/17
f 44/5/18 47/12/18 48/6/18
f 1/2/7 27/2/7 25/2/7
f 4/1/1 3/2/1 1/2/1
f 26/1/2 28/1/2 4/1/2
f 25/2/3 26/1/3 2/1/3
f 28/1/4 27/2/4 3/2/4
f 45/3/4 46/4/4 22/4/4
f 11/1/5 12/2/5 10/2/5
f 6/1/1 8/1/1 7/2/1
f 7/2/7 10/2/7 12/2/7
f 6/1/2 11/1/2 9/1/2
f 8/1/4 9/1/4 10/2/4
f 14/7/5 15/10/5 16/8/5
f 14/7/8 20/7/8 18/10/8
f 16/8/9 17/8/9 19/9/9
f 15/10/4 18/10/4 17/8/4
f 48/4/10 24/4/10 22/4/10
f 47/13/12 45/3/12 21/3/12
f 23/12/13 19/6/13 20/5/13
f 25/2/5 27/2/5 28/1/5
f 35/1/1 33/1/1 34/2/1
f 30/1/5 29/2/5 31/2/5
f 36/2/7 34/2/7 31/2/7
f 33/1/2 35/1/2 30/1/2
f 34/2/4 33/1/4 32/1/4
f 40/8/1 39/10/1 38/7/1
f 42/10/15 44/7/15 38/7/15
f 43/9/16 41/8/16 40/8/16
f 41/8/4 42/10/4 39/10/4
f 44/5/18 43/6/18 47/12/18
f 1/2/7 3/2/7 27/2/7
