# Blender 5.0.1
# www.blender.org
mtllib Counter_2_C.mtl
o Counter_2_C
v 0.458973 -0.359843 0.918105
v 0.458973 -0.085265 0.918105
v 0.500001 0.402476 0.000000
v 0.500001 -0.359843 0.000000
v 0.458973 -0.085265 0.000000
v 0.458973 -0.359843 0.000000
v 0.500000 0.402475 0.949037
v 0.500000 -0.359843 0.949037
v -0.499999 0.402476 0.000000
v -0.499999 -0.085265 0.918105
v -0.499999 -0.085265 0.000000
v -0.499999 0.402475 0.949037
v -0.499999 -0.359843 0.949037
v 0.500001 0.402476 0.918105
v 0.500001 -0.359843 0.918105
v -0.499999 0.402476 0.918105
v 0.500000 -0.359843 0.918105
v -0.499999 -0.359843 0.918105
v -0.499999 0.402475 0.918105
v 0.500000 0.402475 0.918105
vn -1.0000 -0.0000 -0.0000
vn -0.0000 -0.0000 -1.0000
vn -0.0000 -1.0000 -0.0000
vn -0.0000 -0.0000 1.0000
vn 1.0000 -0.0000 -0.0000
vn -0.0000 1.0000 -0.0000
vt 0.301772 0.878721
vt 0.301772 0.895475
vt 0.301880 0.866252
vt 0.301880 0.883714
vt 0.301880 0.883006
vt 0.284380 0.863753
vt 0.292520 0.872345
vt 0.292520 0.873052
vt 0.301880 0.865545
vt 0.294469 0.870179
vt 0.294469 0.888348
vt 0.294469 0.887640
vt 0.298603 0.888782
vt 0.308938 0.890849
vt 0.308938 0.891556
vt 0.291438 0.889056
s 0
usemtl Palette
f 5/1/1 1/2/1 2/1/1
f 5/3/2 4/4/2 6/5/2
f 10/6/3 5/6/3 2/6/3
f 12/7/4 8/8/4 7/7/4
f 5/3/2 9/9/2 3/9/2
f 3/10/5 15/11/5 4/11/5
f 4/11/3 1/12/3 6/12/3
f 9/13/6 14/13/6 3/13/6
f 17/8/2 19/7/2 20/7/2
f 18/8/3 8/8/3 13/8/3
f 20/7/6 12/7/6 7/7/6
f 17/8/5 7/7/5 8/8/5
f 12/7/1 18/8/1 13/8/1
f 16/14/1 11/15/1 10/16/1
f 5/1/1 6/2/1 1/2/1
f 5/3/2 3/9/2 4/4/2
f 10/6/3 11/6/3 5/6/3
f 12/7/4 13/8/4 8/8/4
f 5/3/2 11/3/2 9/9/2
f 3/10/5 14/10/5 15/11/5
f 4/11/3 15/11/3 1/12/3
f 9/13/6 16/13/6 14/13/6
f 17/8/2 18/8/2 19/7/2
f 18/8/3 17/8/3 8/8/3
f 20/7/6 19/7/6 12/7/6
f 17/8/5 20/7/5 7/7/5
f 12/7/1 19/7/1 18/8/1
f 16/14/1 9/14/1 11/15/1
