# Blender 5.0.1
# www.blender.org
mtllib Counter_2_B.mtl
o Counter_2_B
v 0.458973 -0.359843 0.918105
v 0.458973 -0.085265 0.918105
v 0.500001 0.402476 0.918105
v 0.500001 0.402476 0.000000
v 0.500001 -0.359843 0.000000
v 0.458973 -0.085265 0.000000
v 0.458973 -0.359843 0.000000
v 0.500000 -0.359843 0.918105
v 0.500000 0.402476 0.949037
v 0.500000 -0.359843 0.949037
v -0.458973 -0.359843 0.918105
v -0.458973 -0.085265 0.918105
v -0.500001 0.402476 0.918105
v -0.500001 0.402476 0.000000
v -0.500001 -0.359843 0.000000
v -0.458973 -0.085265 0.000000
v -0.458973 -0.359843 0.000000
v -0.500000 -0.359843 0.918105
v -0.500000 0.402476 0.949037
v -0.500000 -0.359843 0.949037
vn -0.0000 -1.0000 -0.0000
vn -1.0000 -0.0000 -0.0000
vn -0.0000 -0.0000 -1.0000
vn 1.0000 -0.0000 -0.0000
vn -0.0000 1.0000 -0.0000
vn -0.0000 -0.0000 1.0000
vt 0.301772 0.896183
vt 0.301772 0.895475
vt 0.301772 0.878721
vt 0.301880 0.866252
vt 0.301880 0.865545
vt 0.301772 0.878014
vt 0.281103 0.886282
vt 0.301880 0.883714
vt 0.301880 0.883006
vt 0.292520 0.872345
vt 0.292520 0.873052
vt 0.284380 0.863753
s 0
usemtl Palette
f 5/1/1 1/2/1 7/2/1
f 6/3/2 1/2/2 2/3/2
f 16/4/3 4/5/3 6/4/3
f 5/1/4 3/6/4 8/1/4
f 13/7/5 4/7/5 14/7/5
f 6/4/3 5/8/3 7/9/3
f 19/10/5 3/10/5 13/10/5
f 8/11/1 20/11/1 18/11/1
f 3/10/4 10/11/4 8/11/4
f 18/11/3 3/10/3 8/11/3
f 11/2/1 15/1/1 17/2/1
f 16/3/4 11/2/4 17/2/4
f 15/1/2 13/6/2 14/6/2
f 16/4/3 15/8/3 14/5/3
f 20/11/2 13/10/2 18/11/2
f 19/10/6 10/11/6 9/10/6
f 12/12/1 6/12/1 2/12/1
f 5/1/1 8/1/1 1/2/1
f 6/3/2 7/2/2 1/2/2
f 16/4/3 14/5/3 4/5/3
f 5/1/4 4/6/4 3/6/4
f 13/7/5 3/7/5 4/7/5
f 6/4/3 4/5/3 5/8/3
f 19/10/5 9/10/5 3/10/5
f 8/11/1 10/11/1 20/11/1
f 3/10/4 9/10/4 10/11/4
f 18/11/3 13/10/3 3/10/3
f 11/2/1 18/1/1 15/1/1
f 16/3/4 12/3/4 11/2/4
f 15/1/2 18/1/2 13/6/2
f 16/4/3 17/9/3 15/8/3
f 20/11/2 19/10/2 13/10/2
f 19/10/6 20/11/6 10/11/6
f 12/12/1 16/12/1 6/12/1
