# Blender 5.0.1
# www.blender.org
mtllib Counter_Door_1.mtl
o Counter_Door_1
v 0.952023 0.016756 0.829172
v 0.952023 0.016756 -0.001741
v 0.006447 0.016756 -0.001741
v 0.006447 0.016756 0.829172
v 0.097597 -0.024792 0.089409
v 0.860873 -0.024792 0.089409
v 0.887044 -0.018197 0.580682
v 0.887044 -0.018197 0.814902
v 0.914449 -0.018197 0.814902
v 0.914449 -0.018197 0.580682
v 0.914449 -0.057260 0.814902
v 0.914449 -0.057260 0.580682
v 0.887044 -0.046171 0.814902
v 0.887044 -0.046171 0.580682
v 0.097597 -0.024792 0.738021
v 0.860873 -0.024792 0.738021
v 0.952023 -0.024792 -0.001741
v 0.006447 -0.024792 -0.001741
v 0.006447 -0.024792 0.829172
v 0.952023 -0.024792 0.829172
v 0.684956 -0.005683 0.158529
v 0.273514 -0.005683 0.158529
v 0.273514 -0.005683 0.668901
v 0.684956 -0.005683 0.668901
v 0.860873 -0.005683 0.089409
v 0.097597 -0.005683 0.089409
v 0.097597 -0.005683 0.738021
v 0.860873 -0.005683 0.738021
v 0.684956 -0.024792 0.158529
v 0.273514 -0.024792 0.158529
v 0.273514 -0.024792 0.668901
v 0.684956 -0.024792 0.668901
vn -0.0000 -0.0000 -1.0000
vn -0.0000 -0.0000 1.0000
vn -0.0000 1.0000 -0.0000
vn 1.0000 -0.0000 -0.0000
vn -1.0000 -0.0000 -0.0000
vn -0.3751 -0.9270 -0.0000
vn -0.0000 -1.0000 -0.0000
vt 0.285500 0.883734
vt 0.285500 0.890173
vt 0.299401 0.890173
vt 0.299401 0.883734
vt 0.189257 0.874892
vt 0.203158 0.874892
vt 0.189257 0.868453
vt 0.203158 0.868453
vt 0.298201 0.889340
vt 0.287350 0.889340
vt 0.287025 0.884355
vt 0.287025 0.889552
vt 0.297876 0.889552
vt 0.297876 0.884355
vt 0.286433 0.866965
vt 0.286433 0.869313
vt 0.298201 0.884143
vt 0.287350 0.884142
vt 0.294659 0.867458
vt 0.291159 0.863685
vt 0.291159 0.868883
vt 0.298509 0.867458
vt 0.302010 0.863686
vt 0.298509 0.865110
vt 0.294659 0.865110
vt 0.302010 0.868883
vt 0.282583 0.866965
vt 0.282583 0.869313
s 0
usemtl Palette
f 18/1/1 2/2/1 17/2/1
f 20/3/2 4/4/2 19/4/2
f 2/2/3 4/4/3 1/3/3
f 12/5/4 9/6/4 11/6/4
f 14/7/1 10/5/1 12/5/1
f 13/8/2 9/6/2 8/8/2
f 13/8/5 7/7/5 14/7/5
f 12/5/6 13/8/6 14/7/6
f 19/4/5 3/1/5 18/1/5
f 1/3/4 17/2/4 2/2/4
f 16/9/5 25/10/5 6/10/5
f 5/11/7 17/2/7 6/12/7
f 16/13/7 19/4/7 15/14/7
f 15/14/7 18/1/7 5/11/7
f 6/12/7 20/3/7 16/13/7
f 23/15/2 32/16/2 24/16/2
f 15/17/1 28/9/1 16/9/1
f 5/18/4 27/17/4 15/17/4
f 6/10/2 26/18/2 5/18/2
f 21/19/7 26/20/7 25/21/7
f 24/22/7 27/23/7 23/24/7
f 23/24/7 26/20/7 22/25/7
f 24/22/7 25/21/7 28/26/7
f 32/22/7 30/25/7 29/19/7
f 22/27/5 31/15/5 23/15/5
f 21/28/1 30/27/1 22/27/1
f 24/16/4 29/28/4 21/28/4
f 18/1/1 3/1/1 2/2/1
f 20/3/2 1/3/2 4/4/2
f 2/2/3 3/1/3 4/4/3
f 12/5/4 10/5/4 9/6/4
f 14/7/1 7/7/1 10/5/1
f 13/8/2 11/6/2 9/6/2
f 13/8/5 8/8/5 7/7/5
f 12/5/6 11/6/6 13/8/6
f 19/4/5 4/4/5 3/1/5
f 1/3/4 20/3/4 17/2/4
f 16/9/5 28/9/5 25/10/5
f 5/11/7 18/1/7 17/2/7
f 16/13/7 20/3/7 19/4/7
f 15/14/7 19/4/7 18/1/7
f 6/12/7 17/2/7 20/3/7
f 23/15/2 31/15/2 32/16/2
f 15/17/1 27/17/1 28/9/1
f 5/18/4 26/18/4 27/17/4
f 6/10/2 25/10/2 26/18/2
f 21/19/7 22/25/7 26/20/7
f 24/22/7 28/26/7 27/23/7
f 23/24/7 27/23/7 26/20/7
f 24/22/7 21/19/7 25/21/7
f 32/22/7 31/24/7 30/25/7
f 22/27/5 30/27/5 31/15/5
f 21/28/1 29/28/1 30/27/1
f 24/16/4 32/16/4 29/28/4
