# Blender 5.0.1
# www.blender.org
mtllib Deco_4.mtl
o Deco_4
v 0.030420 0.030420 0.038676
v 0.030420 -0.030420 0.038676
v -0.030420 -0.030420 0.038676
v -0.030420 0.030420 0.038676
v -0.033169 -0.033169 -0.001170
v 0.033169 -0.033169 -0.001170
v -0.033169 0.033169 -0.001170
v 0.033169 0.033169 -0.001170
v 0.024931 0.024931 0.034708
v -0.024931 0.024931 0.034708
v -0.024931 -0.024931 0.034708
v 0.024931 -0.024931 0.034708
v 0.036544 0.036544 0.038676
v 0.039893 0.039893 0.034639
v -0.039893 0.039893 0.034639
v -0.036544 0.036544 0.038676
v -0.036544 -0.036544 0.038676
v -0.039893 -0.039893 0.034639
v 0.039893 -0.039893 0.034639
v 0.036544 -0.036544 0.038676
v 0.009690 -0.009584 0.079511
v -0.009636 0.009633 0.079516
v 0.009633 0.009636 0.079516
v -0.009884 -0.009888 0.033762
v 0.015024 -0.015024 0.047699
v -0.015024 0.015024 0.047699
v -0.015024 -0.015024 0.047699
v 0.015024 0.015024 0.047699
v 0.015877 -0.015872 0.060160
v -0.015878 0.015872 0.060160
v 0.015872 0.015877 0.060160
v -0.000000 0.009258 0.030644
v -0.000000 -0.009258 0.030644
v 0.009946 -0.009831 0.033767
v -0.000000 -0.009126 0.082506
v -0.009258 0.000000 0.030644
v 0.009126 0.000000 0.082506
v 0.009257 0.000000 0.030644
v -0.009126 0.000000 0.082506
v -0.009888 0.009884 0.033762
v -0.009584 -0.009690 0.079511
v -0.000000 0.009126 0.082506
v 0.009831 0.009946 0.033767
v 0.022167 -0.000002 0.052633
v -0.022167 0.000002 0.052633
v 0.000002 0.022167 0.052633
v -0.000002 -0.022167 0.052633
v -0.015872 -0.015877 0.060160
v 0.017943 -0.000012 0.072331
v -0.017943 0.000012 0.072331
v 0.000012 0.017943 0.072331
v -0.000012 -0.017943 0.072331
v -0.000000 0.000000 0.085074
v 0.016266 -0.000000 0.037991
v -0.016266 -0.000000 0.037991
v -0.000000 0.016266 0.037991
v -0.000000 -0.016266 0.037991
v 0.015766 0.001478 0.083403
v 0.015738 0.008681 0.081087
v 0.015580 0.005433 0.083375
v 0.018917 0.004169 0.079457
v 0.012023 0.005776 0.084450
v 0.014748 -0.000425 0.082332
v 0.014709 0.009526 0.079132
v 0.009576 0.005513 0.083779
v 0.019101 0.003292 0.076880
v 0.011317 0.001391 0.078420
v 0.011300 0.005727 0.077026
v 0.009064 0.003978 0.079051
v 0.013214 0.003011 0.076045
v -0.005514 -0.023629 0.074428
v -0.016380 -0.017202 0.074662
v -0.011953 -0.021739 0.074030
v -0.008487 -0.017988 0.079251
v -0.012816 -0.021982 0.069287
v -0.001962 -0.022736 0.073503
v -0.016975 -0.013856 0.073827
v -0.012050 -0.020460 0.066400
v -0.006069 -0.014942 0.080168
v -0.003314 -0.015577 0.070108
v -0.009855 -0.011708 0.070249
v -0.007709 -0.014585 0.067014
v -0.005104 -0.012181 0.073012
vn 0.5858 -0.0000 0.8104
vn -0.0000 -0.0000 -1.0000
vn -0.0000 -0.0000 1.0000
vn -0.0000 0.9828 -0.1846
vn 0.9828 -0.0000 -0.1846
vn -0.0000 -0.9828 -0.1846
vn -0.9828 -0.0000 -0.1846
vn -0.0000 0.5858 0.8104
vn -0.5858 -0.0000 0.8104
vn -0.0000 -0.5858 0.8104
vn -0.0000 0.7696 0.6385
vn -0.0000 -0.7696 0.6385
vn 0.7696 -0.0000 0.6385
vn -0.7696 -0.0000 0.6385
vn -0.4109 -0.8212 0.3961
vn 0.1643 -0.7456 0.6459
vn -0.2605 -0.2738 0.9258
vn 0.2738 -0.2605 0.9258
vn 0.2736 0.2605 0.9259
vn -0.2605 0.2736 0.9259
vn 0.4116 0.8203 0.3971
vn -0.1612 0.7460 0.6462
vn -0.8203 0.4116 0.3971
vn -0.7456 -0.1643 0.6459
vn 0.8212 -0.4109 0.3961
vn 0.7460 0.1612 0.6462
vn 0.7128 0.1724 -0.6799
vn -0.7132 -0.1693 -0.6802
vn -0.1693 0.7132 -0.6802
vn 0.1724 -0.7128 -0.6799
vn 0.9106 -0.4035 -0.0898
vn 0.9395 0.2769 0.2016
vn -0.9106 0.4035 -0.0898
vn -0.9395 -0.2769 0.2016
vn 0.4035 0.9106 -0.0898
vn -0.2769 0.9395 0.2016
vn -0.4035 -0.9106 -0.0898
vn 0.2769 -0.9395 0.2016
vn 0.4117 -0.8198 0.3980
vn -0.1582 -0.7461 0.6467
vn -0.2739 -0.2605 0.9258
vn 0.2605 -0.2739 0.9258
vn 0.2605 0.2736 0.9259
vn -0.2736 0.2605 0.9259
vn -0.4111 0.8206 0.3970
vn 0.1611 0.7458 0.6464
vn -0.8198 -0.4117 0.3980
vn -0.7458 0.1611 0.6464
vn 0.8206 0.4111 0.3970
vn 0.7461 -0.1582 0.6467
vn 0.7136 -0.1662 -0.6806
vn 0.8622 -0.3233 -0.3901
vn -0.8615 -0.3238 -0.3911
vn -0.8615 -0.3238 -0.3910
vn -0.7132 0.1691 -0.6803
vn 0.8609 0.3244 -0.3919
vn -0.8615 0.3238 -0.3910
vn -0.3238 0.8615 -0.3910
vn 0.1662 0.7136 -0.6806
vn 0.3233 0.8622 -0.3901
vn 0.3244 -0.8609 -0.3919
vn -0.1691 -0.7132 -0.6803
vn -0.3238 -0.8615 -0.3910
vn 0.9106 0.4035 -0.0895
vn 0.9396 -0.2769 0.2014
vn -0.9106 -0.4035 -0.0896
vn -0.9396 0.2769 0.2014
vn -0.4035 0.9106 -0.0896
vn 0.2769 0.9396 0.2014
vn 0.4035 -0.9106 -0.0895
vn -0.2769 -0.9396 0.2014
vn 0.7667 0.3445 0.5418
vn 0.2910 0.0204 0.9565
vn 0.2906 0.5416 0.7888
vn 0.7671 0.0406 0.6402
vn -0.6852 -0.6677 0.2909
vn 0.1094 0.4049 -0.9078
vn -0.6914 0.7058 -0.1541
vn 0.1116 -0.8603 -0.4974
vn 0.7819 0.6051 -0.1500
vn -0.2033 -0.3953 0.8958
vn 0.7895 -0.5617 0.2475
vn -0.2238 0.8462 0.4836
vn -0.4608 -0.5471 0.6988
vn -0.2860 -0.9529 0.1008
vn -0.6948 -0.7007 0.1622
vn -0.2473 -0.7017 0.6682
vn 0.5065 -0.2894 -0.8122
vn -0.1079 0.9323 0.3451
vn -0.5056 0.4504 -0.7358
vn 0.9283 0.2873 0.2361
vn -0.4889 0.1284 0.8628
vn 0.1092 -0.8910 -0.4407
vn 0.3340 -0.5047 0.7961
vn -0.8945 -0.2514 -0.3697
vn -0.8615 -0.3239 -0.3911
vn 0.8609 0.3243 -0.3919
vn -0.3239 0.8615 -0.3911
vn 0.3243 -0.8609 -0.3919
vt 0.861795 0.776035
vt 0.861795 0.813451
vt 0.937586 0.817139
vt 0.987586 0.767139
vt 0.937586 0.767139
vt 0.981294 0.810847
vt 0.985060 0.769665
vt 0.985060 0.814613
vt 0.987586 0.817139
vt 0.987586 0.817139
vt 0.943878 0.773431
vt 0.981294 0.773431
vt 0.987586 0.767139
vt 0.940112 0.814613
vt 0.940112 0.769665
vt 0.978747 0.860422
vt 0.941331 0.897838
vt 0.941331 0.860422
vt 0.899211 0.776035
vt 0.899211 0.813451
vt 0.943878 0.810847
vt 0.788851 0.858686
vt 0.769752 0.857793
vt 0.769752 0.857793
vt 0.800388 0.866410
vt 0.788136 0.864351
vt 0.788348 0.877420
vt 0.769752 0.877420
vt 0.800386 0.888428
vt 0.788136 0.890489
vt 0.769752 0.897046
vt 0.788851 0.896064
vt 0.809005 0.897047
vt 0.769752 0.877420
vt 0.773487 0.893311
vt 0.807585 0.877420
vt 0.805608 0.861190
vt 0.801342 0.877420
vt 0.806907 0.894949
vt 0.807914 0.877420
vt 0.809005 0.877420
vt 0.771845 0.859887
vt 0.770978 0.877284
vt 0.772055 0.894743
vt 0.789514 0.895820
vt 0.789378 0.897046
vt 0.806907 0.859891
vt 0.789378 0.858884
vt 0.789378 0.857793
vt 0.809005 0.857793
vt 0.808699 0.877726
vt 0.776294 0.890504
vt 0.770553 0.876738
vt 0.809005 0.897046
vt 0.790060 0.896245
vt 0.789072 0.858100
vt 0.391173 0.876997
vt 0.383974 0.888005
vt 0.384929 0.876997
vt 0.383976 0.865987
vt 0.371936 0.876997
vt 0.372677 0.877144
vt 0.384269 0.866419
vt 0.390934 0.877093
vt 0.384266 0.887574
vt 0.978747 0.897838
s 0
usemtl Palette
f 3/1/1 10/2/1 4/2/1
f 7/3/2 6/4/2 5/5/2
f 1/6/3 20/7/3 13/8/3
f 7/3/4 14/9/4 8/10/4
f 3/11/3 20/7/3 2/12/3
f 8/10/5 19/13/5 6/4/5
f 6/4/6 18/5/6 5/5/6
f 3/11/3 16/14/3 17/15/3
f 5/5/7 15/3/7 7/3/7
f 12/16/3 10/17/3 11/18/3
f 2/19/8 11/1/8 3/1/8
f 1/20/9 12/19/9 2/19/9
f 4/2/10 9/20/10 1/20/10
f 15/3/11 13/8/11 14/9/11
f 19/13/12 17/15/12 18/5/12
f 14/9/13 20/7/13 19/13/13
f 18/5/14 16/14/14 15/3/14
f 1/6/3 16/14/3 4/21/3
f 52/22/15 41/23/15 48/24/15
f 52/22/16 21/25/16 35/26/16
f 41/23/17 53/27/17 39/28/17
f 21/25/18 53/27/18 35/26/18
f 53/27/19 23/29/19 42/30/19
f 53/27/20 22/31/20 39/28/20
f 51/32/21 23/29/21 31/33/21
f 51/32/22 22/31/22 42/30/22
f 50/34/23 22/31/23 30/35/23
f 50/34/24 41/23/24 39/28/24
f 49/36/25 21/25/25 29/37/25
f 49/36/26 23/29/26 37/38/26
f 43/39/27 54/40/27 38/41/27
f 24/42/28 55/43/28 36/28/28
f 40/44/29 56/45/29 32/46/29
f 34/47/30 57/48/30 33/49/30
f 25/50/31 44/51/31 29/37/31
f 44/51/32 31/33/32 49/36/32
f 26/52/33 45/53/33 30/35/33
f 45/53/34 48/24/34 50/34/34
f 28/54/35 46/55/35 31/33/35
f 46/55/36 30/35/36 51/32/36
f 27/23/37 47/56/37 48/24/37
f 47/56/38 29/37/38 52/22/38
f 52/22/39 29/37/39 21/25/39
f 52/22/40 35/26/40 41/23/40
f 41/23/41 35/26/41 53/27/41
f 21/25/42 37/38/42 53/27/42
f 53/27/43 37/38/43 23/29/43
f 53/27/44 42/30/44 22/31/44
f 51/32/45 30/35/45 22/31/45
f 51/32/46 42/30/46 23/29/46
f 50/34/47 48/24/47 41/23/47
f 50/34/48 39/28/48 22/31/48
f 49/36/49 31/33/49 23/29/49
f 49/36/50 37/38/50 21/25/50
f 34/47/51 38/41/51 54/40/51
f 25/50/52 54/40/52 44/51/52
f 55/43/53 27/23/54 45/53/54
f 40/44/55 36/28/55 55/43/55
f 54/40/56 28/54/56 44/51/56
f 26/52/57 55/43/57 45/53/57
f 56/45/58 26/52/58 46/55/58
f 43/39/59 32/46/59 56/45/59
f 28/54/60 56/45/60 46/55/60
f 57/48/61 25/50/61 47/56/61
f 24/42/62 33/49/62 57/48/62
f 27/23/63 57/48/63 47/56/63
f 28/54/64 31/33/64 44/51/64
f 44/51/65 49/36/65 29/37/65
f 27/23/66 48/24/66 45/53/66
f 45/53/67 50/34/67 30/35/67
f 26/52/68 30/35/68 46/55/68
f 46/55/69 51/32/69 31/33/69
f 25/50/70 29/37/70 47/56/70
f 47/56/71 52/22/71 48/24/71
f 61/57/72 59/58/72 60/59/72
f 58/60/73 60/59/73 62/61/73
f 62/61/74 60/59/74 59/58/74
f 61/57/75 60/59/75 58/60/75
f 65/62/76 67/63/76 63/63/76
f 70/64/77 64/65/77 66/64/77
f 68/65/78 65/62/78 64/65/78
f 63/63/79 70/64/79 66/64/79
f 61/57/80 64/65/80 59/58/80
f 62/61/81 63/63/81 58/60/81
f 63/63/82 61/57/82 58/60/82
f 64/65/83 62/61/83 59/58/83
f 74/57/84 72/58/84 73/59/84
f 71/60/85 73/59/85 75/61/85
f 75/61/86 73/59/86 72/58/86
f 74/57/87 73/59/87 71/60/87
f 78/62/88 80/63/88 76/63/88
f 79/64/89 81/65/89 77/65/89
f 81/65/90 78/62/90 77/65/90
f 80/63/91 79/64/91 76/63/91
f 74/57/92 77/65/92 72/58/92
f 78/62/93 71/60/93 75/61/93
f 76/63/94 74/57/94 71/60/94
f 72/58/95 78/62/95 75/61/95
f 3/1/1 11/1/1 10/2/1
f 7/3/2 8/10/2 6/4/2
f 1/6/3 2/12/3 20/7/3
f 7/3/4 15/3/4 14/9/4
f 3/11/3 17/15/3 20/7/3
f 8/10/5 14/9/5 19/13/5
f 6/4/6 19/13/6 18/5/6
f 3/11/3 4/21/3 16/14/3
f 5/5/7 18/5/7 15/3/7
f 12/16/3 9/66/3 10/17/3
f 2/19/8 12/19/8 11/1/8
f 1/20/9 9/20/9 12/19/9
f 4/2/10 10/2/10 9/20/10
f 15/3/11 16/14/11 13/8/11
f 19/13/12 20/7/12 17/15/12
f 14/9/13 13/8/13 20/7/13
f 18/5/14 17/15/14 16/14/14
f 1/6/3 13/8/3 16/14/3
f 25/50/52 34/47/52 54/40/52
f 55/43/96 24/42/53 27/23/96
f 54/40/56 43/39/97 28/54/56
f 26/52/57 40/44/57 55/43/57
f 56/45/98 40/44/98 26/52/98
f 28/54/60 43/39/60 56/45/60
f 57/48/61 34/47/99 25/50/61
f 27/23/63 24/42/63 57/48/63
f 65/62/76 69/62/76 67/63/76
f 70/64/77 68/65/77 64/65/77
f 68/65/78 69/62/78 65/62/78
f 63/63/79 67/63/79 70/64/79
f 61/57/80 66/64/80 64/65/80
f 62/61/81 65/62/81 63/63/81
f 63/63/82 66/64/82 61/57/82
f 64/65/83 65/62/83 62/61/83
f 78/62/88 82/62/88 80/63/88
f 79/64/89 83/64/89 81/65/89
f 81/65/90 82/62/90 78/62/90
f 80/63/91 83/64/91 79/64/91
f 74/57/92 79/64/92 77/65/92
f 78/62/93 76/63/93 71/60/93
f 76/63/94 79/64/94 74/57/94
f 72/58/95 77/65/95 78/62/95
