# Blender 5.0.1
# www.blender.org
mtllib Deco_2.mtl
o Deco_2
v 0.030420 0.030420 0.038676
v 0.030420 -0.030420 0.038676
v -0.030420 -0.030420 0.038676
v -0.030420 0.030420 0.038676
v -0.033169 -0.033169 -0.001170
v 0.033169 -0.033169 -0.001170
v -0.033169 0.033169 -0.001170
v 0.033169 0.033169 -0.001170
v 0.024931 0.024931 0.034708
v -0.024931 0.024931 0.034708
v -0.024931 -0.024931 0.034708
v 0.024931 -0.024931 0.034708
v 0.036544 0.036544 0.038676
v 0.039893 0.039893 0.034639
v -0.039893 0.039893 0.034639
v -0.036544 0.036544 0.038676
v -0.036544 -0.036544 0.038676
v -0.039893 -0.039893 0.034639
v 0.039893 -0.039893 0.034639
v 0.036544 -0.036544 0.038676
v 0.021857 -0.001782 0.032445
v 0.004578 -0.003448 0.032445
v 0.002912 0.013830 0.032445
v 0.020191 0.015496 0.032445
v 0.004210 -0.003895 0.054331
v 0.022304 -0.002151 0.054331
v 0.002411 0.014243 0.056962
v 0.020603 0.015997 0.056962
v 0.006020 -0.001699 0.052857
v 0.020107 -0.000340 0.052857
v 0.004662 0.012388 0.055103
v 0.018749 0.013747 0.055103
v 0.007358 -0.000075 0.069305
v 0.018764 0.000767 0.065850
v 0.017642 0.012404 0.065850
v 0.006286 0.011050 0.069305
v 0.008546 0.009187 0.088040
v 0.015548 0.009862 0.088040
v 0.016074 0.002983 0.091062
v 0.009344 0.002334 0.091062
v 0.016235 0.010696 0.063686
v 0.007712 0.009874 0.063686
v 0.017057 0.002174 0.063686
v 0.008534 0.001352 0.063686
v -0.006325 -0.015213 0.028228
v -0.000589 0.000391 0.028228
v 0.015015 -0.005344 0.028228
v 0.009279 -0.020948 0.028228
v -0.000822 0.000895 0.046873
v -0.006829 -0.015446 0.046873
v 0.015579 -0.005083 0.049114
v 0.009540 -0.021513 0.049114
v 0.000322 -0.001580 0.045618
v -0.004354 -0.014302 0.045618
v 0.013044 -0.006256 0.047531
v 0.008368 -0.018978 0.047531
v 0.001168 -0.003409 0.068756
v -0.002841 -0.013602 0.065813
v 0.007668 -0.017465 0.065813
v 0.011215 -0.007102 0.068756
v 0.008669 -0.008279 0.075591
v 0.006344 -0.014602 0.075591
v 0.000189 -0.012201 0.078165
v 0.002423 -0.006122 0.078165
v 0.006779 -0.015542 0.061141
v 0.009608 -0.007845 0.061141
v -0.000918 -0.012713 0.061141
v 0.001911 -0.005016 0.061141
v 0.000125 0.009412 0.028228
v -0.011624 -0.002350 0.028228
v -0.023386 0.009399 0.028228
v -0.011636 0.021161 0.028228
v -0.011624 -0.002905 0.050124
v 0.000680 0.009412 0.050124
v -0.024007 0.009399 0.052366
v -0.011637 0.021783 0.052366
v -0.011618 0.001600 0.045618
v -0.003809 0.009418 0.045618
v -0.019436 0.009410 0.047531
v -0.011626 0.017227 0.047531
v -0.011619 0.003243 0.064555
v -0.005167 0.009417 0.061612
v -0.011626 0.015869 0.061612
v -0.017793 0.009410 0.064555
vn 0.5858 -0.0000 0.8104
vn -0.0000 -0.0000 -1.0000
vn -0.0000 -0.0000 1.0000
vn 0.0137 -0.1422 0.9897
vn -0.0000 0.9828 -0.1846
vn 0.9828 -0.0000 -0.1846
vn -0.0000 -0.9828 -0.1846
vn -0.9828 -0.0000 -0.1846
vn -0.0000 0.5858 0.8104
vn -0.5858 -0.0000 0.8104
vn -0.0000 -0.5858 0.8104
vn -0.0000 0.7696 0.6385
vn -0.0000 -0.7696 0.6385
vn 0.7696 -0.0000 0.6385
vn -0.7696 -0.0000 0.6385
vn 0.0960 -0.9952 -0.0187
vn 0.9952 0.0960 -0.0187
vn -0.9952 -0.0960 -0.0187
vn -0.0960 0.9952 -0.0187
vn 0.2879 0.0278 0.9573
vn 0.9909 0.0865 0.1031
vn -0.0908 0.9900 0.1083
vn 0.0979 -0.9909 0.0919
vn -0.9899 -0.1041 0.0966
vn 0.0959 -0.9948 0.0329
vn -0.0385 0.3994 0.9160
vn -0.9946 -0.0984 0.0322
vn -0.0959 0.9949 0.0314
vn 0.9951 0.0934 0.0322
vn -0.1195 0.0439 0.9919
vn -0.9384 0.3449 -0.0210
vn -0.3449 -0.9384 -0.0210
vn 0.3449 0.9384 -0.0210
vn 0.9384 -0.3449 -0.0210
vn -0.0896 -0.2436 0.9657
vn -0.3488 -0.9352 0.0611
vn 0.9373 -0.3422 0.0658
vn -0.9359 0.3470 0.0600
vn 0.3396 0.9384 0.0641
vn -0.9374 0.3446 0.0506
vn 0.3408 -0.1253 0.9318
vn 0.3446 0.9374 0.0506
vn 0.9374 -0.3446 0.0506
vn -0.3446 -0.9374 0.0506
vn 0.0901 -0.0900 0.9919
vn 0.7074 -0.7066 -0.0179
vn 0.7066 0.7074 -0.0179
vn -0.7065 -0.7074 -0.0180
vn -0.7074 0.7066 -0.0182
vn 0.2213 0.2215 0.9497
vn 0.7096 0.7017 0.0637
vn -0.7058 0.7051 0.0681
vn 0.7054 -0.7062 0.0606
vn -0.7008 -0.7104 0.0644
vn 0.9909 0.0866 0.1031
vn -0.0908 0.9900 0.1082
vn 0.0980 -0.9909 0.0919
vn 0.3395 0.9384 0.0641
vn 0.7069 0.7071 -0.0182
vn -0.7064 -0.7076 -0.0181
vn 0.7096 0.7018 0.0638
vn 0.7054 -0.7062 0.0607
vn -0.7008 -0.7104 0.0645
vt 0.861795 0.776035
vt 0.861795 0.813451
vt 0.937586 0.817139
vt 0.987586 0.767139
vt 0.937586 0.767139
vt 0.981294 0.810847
vt 0.985060 0.769665
vt 0.985060 0.814613
vt 0.768066 0.853504
vt 0.805482 0.890920
vt 0.768066 0.890920
vt 0.987586 0.817139
vt 0.987586 0.817139
vt 0.943878 0.773431
vt 0.981294 0.773431
vt 0.987586 0.767139
vt 0.940112 0.814613
vt 0.940112 0.769665
vt 0.978747 0.860422
vt 0.941331 0.897838
vt 0.941331 0.860422
vt 0.899211 0.776035
vt 0.899211 0.813451
vt 0.943878 0.810847
vt 0.805482 0.853504
vt 0.805482 0.890920
vt 0.768066 0.890920
vt 0.978747 0.897838
s 0
usemtl Palette
f 3/1/1 10/2/1 4/2/1
f 7/3/2 6/4/2 5/5/2
f 1/6/3 20/7/3 13/8/3
f 25/9/4 28/10/4 27/11/4
f 7/3/5 14/12/5 8/13/5
f 3/14/3 20/7/3 2/15/3
f 8/13/6 19/16/6 6/4/6
f 6/4/7 18/5/7 5/5/7
f 3/14/3 16/17/3 17/18/3
f 5/5/8 15/3/8 7/3/8
f 12/19/3 10/20/3 11/21/3
f 2/22/9 11/1/9 3/1/9
f 1/23/10 12/22/10 2/22/10
f 4/2/11 9/23/11 1/23/11
f 15/3/12 13/8/12 14/12/12
f 19/16/13 17/18/13 18/5/13
f 14/12/14 20/7/14 19/16/14
f 18/5/15 16/17/15 15/3/15
f 1/6/3 16/17/3 4/24/3
f 21/25/16 25/9/16 22/9/16
f 24/10/17 26/25/17 21/25/17
f 23/11/18 25/9/18 27/11/18
f 24/10/19 27/11/19 28/10/19
f 34/25/20 36/11/20 33/9/20
f 32/10/21 34/25/21 30/25/21
f 31/11/22 35/26/22 32/10/22
f 29/9/23 34/25/23 33/9/23
f 31/11/24 33/9/24 36/11/24
f 43/25/25 40/9/25 44/9/25
f 40/9/26 38/10/26 37/27/26
f 44/9/27 37/27/27 42/11/27
f 42/11/28 38/10/28 41/10/28
f 43/25/29 38/10/29 39/25/29
f 50/25/30 51/11/30 49/9/30
f 46/9/31 50/25/31 49/9/31
f 48/10/32 50/25/32 45/25/32
f 47/11/33 49/9/33 51/11/33
f 47/11/34 52/10/34 48/10/34
f 58/25/35 60/11/35 57/9/35
f 56/10/36 58/25/36 54/25/36
f 55/11/37 59/26/37 56/10/37
f 53/9/38 58/25/38 57/9/38
f 55/11/39 57/9/39 60/11/39
f 67/25/40 64/9/40 68/9/40
f 63/25/41 61/27/41 64/9/41
f 68/9/42 61/27/42 66/11/42
f 66/11/43 62/10/43 65/10/43
f 67/25/44 62/10/44 63/25/44
f 74/25/45 75/11/45 73/9/45
f 69/25/46 73/9/46 70/9/46
f 72/10/47 74/25/47 69/25/47
f 71/11/48 73/9/48 75/11/48
f 71/11/49 76/10/49 72/10/49
f 81/9/50 83/26/50 84/11/50
f 80/10/51 82/25/51 78/25/51
f 79/11/52 83/26/52 80/10/52
f 77/9/53 82/25/53 81/9/53
f 79/11/54 81/9/54 84/11/54
f 3/1/1 11/1/1 10/2/1
f 7/3/2 8/13/2 6/4/2
f 1/6/3 2/15/3 20/7/3
f 25/9/4 26/25/4 28/10/4
f 7/3/5 15/3/5 14/12/5
f 3/14/3 17/18/3 20/7/3
f 8/13/6 14/12/6 19/16/6
f 6/4/7 19/16/7 18/5/7
f 3/14/3 4/24/3 16/17/3
f 5/5/8 18/5/8 15/3/8
f 12/19/3 9/28/3 10/20/3
f 2/22/9 12/22/9 11/1/9
f 1/23/10 9/23/10 12/22/10
f 4/2/11 10/2/11 9/23/11
f 15/3/12 16/17/12 13/8/12
f 19/16/13 20/7/13 17/18/13
f 14/12/14 13/8/14 20/7/14
f 18/5/15 17/18/15 16/17/15
f 1/6/3 13/8/3 16/17/3
f 21/25/16 26/25/16 25/9/16
f 24/10/17 28/10/17 26/25/17
f 23/11/18 22/9/18 25/9/18
f 24/10/19 23/11/19 27/11/19
f 34/25/20 35/26/20 36/11/20
f 32/10/55 35/26/55 34/25/55
f 31/11/56 36/11/56 35/26/56
f 29/9/57 30/25/57 34/25/57
f 31/11/24 29/9/24 33/9/24
f 43/25/25 39/25/25 40/9/25
f 40/9/26 39/25/26 38/10/26
f 44/9/27 40/9/27 37/27/27
f 42/11/28 37/27/28 38/10/28
f 43/25/29 41/10/29 38/10/29
f 50/25/30 52/10/30 51/11/30
f 46/9/31 45/25/31 50/25/31
f 48/10/32 52/10/32 50/25/32
f 47/11/33 46/9/33 49/9/33
f 47/11/34 51/11/34 52/10/34
f 58/25/35 59/26/35 60/11/35
f 56/10/36 59/26/36 58/25/36
f 55/11/37 60/11/37 59/26/37
f 53/9/38 54/25/38 58/25/38
f 55/11/58 53/9/58 57/9/58
f 67/25/40 63/25/40 64/9/40
f 63/25/41 62/10/41 61/27/41
f 68/9/42 64/9/42 61/27/42
f 66/11/43 61/27/43 62/10/43
f 67/25/44 65/10/44 62/10/44
f 74/25/45 76/10/45 75/11/45
f 69/25/46 74/25/46 73/9/46
f 72/10/59 76/10/59 74/25/59
f 71/11/60 70/9/60 73/9/60
f 71/11/49 75/11/49 76/10/49
f 81/9/50 82/25/50 83/26/50
f 80/10/61 83/26/61 82/25/61
f 79/11/52 84/11/52 83/26/52
f 77/9/62 78/25/62 82/25/62
f 79/11/63 77/9/63 81/9/63
