# Blender 5.0.1
# www.blender.org
mtllib Deco_3.mtl
o Deco_3
v 0.030420 0.030420 0.038676
v 0.030420 -0.030420 0.038676
v -0.030420 -0.030420 0.038676
v -0.030420 0.030420 0.038676
v -0.033169 -0.033169 -0.001170
v 0.033169 -0.033169 -0.001170
v -0.033169 0.033169 -0.001170
v 0.033169 0.033169 -0.001170
v -0.006506 0.017772 0.088844
v -0.017530 0.017772 0.088844
v -0.017530 0.006748 0.093963
v -0.006506 0.006748 0.093963
v 0.024931 0.024931 0.034708
v -0.024931 0.024931 0.034708
v -0.024931 -0.024931 0.034708
v 0.024931 -0.024931 0.034708
v 0.036544 0.036544 0.038676
v 0.039893 0.039893 0.034639
v -0.039893 0.039893 0.034639
v -0.036544 0.036544 0.038676
v -0.036544 -0.036544 0.038676
v -0.039893 -0.039893 0.034639
v 0.039893 -0.039893 0.034639
v 0.036544 -0.036544 0.038676
v -0.018522 0.018764 0.032107
v -0.018522 0.005756 0.032107
v -0.005514 0.005756 0.032107
v -0.005514 0.018764 0.032107
v -0.005571 -0.005850 0.032107
v -0.005571 -0.018744 0.032107
v -0.018465 -0.018744 0.032107
v -0.018465 -0.005850 0.032107
v -0.006468 -0.017846 0.078359
v -0.017567 -0.017846 0.083329
v -0.017567 -0.006747 0.083329
v -0.006468 -0.006747 0.078359
v 0.018887 -0.006784 0.073932
v 0.007861 -0.006784 0.069313
v 0.007861 -0.017809 0.069313
v 0.018887 -0.017809 0.073932
v 0.006896 -0.005819 0.032107
v 0.006896 -0.018775 0.032107
v 0.019852 -0.018775 0.032107
v 0.019852 -0.005819 0.032107
v 0.020082 0.018968 0.032107
v 0.020082 0.005551 0.032107
v 0.006666 0.005551 0.032107
v 0.006666 0.018968 0.032107
v 0.018694 0.006940 0.060952
v 0.008054 0.006940 0.060952
v 0.008054 0.017580 0.065409
v 0.018694 0.017580 0.065409
vn 0.5858 -0.0000 0.8104
vn -0.0000 -0.0000 -1.0000
vn -0.0000 -0.0000 1.0000
vn -0.9999 0.0036 0.0167
vn -0.0000 0.9828 -0.1846
vn 0.9828 -0.0000 -0.1846
vn -0.0000 -0.9828 -0.1846
vn -0.9828 -0.0000 -0.1846
vn -0.0000 0.5858 0.8104
vn -0.5858 -0.0000 0.8104
vn -0.0000 -0.5858 0.8104
vn -0.0000 0.7696 0.6385
vn -0.0000 -0.7696 0.6385
vn 0.7696 -0.0000 0.6385
vn -0.7696 -0.0000 0.6385
vn -0.0000 -0.9999 0.0160
vn -0.9998 -0.0000 0.0175
vn 0.9999 0.0036 0.0167
vn -0.0000 0.9998 0.0175
vn -0.0000 0.4212 0.9070
vn 0.0038 0.9998 0.0184
vn 0.9998 -0.0000 0.0194
vn 0.0038 -0.9998 0.0184
vn 0.4087 -0.0000 0.9127
vn -0.9990 -0.0083 0.0446
vn -0.3864 -0.0000 0.9223
vn -0.0047 -0.9997 0.0244
vn 0.9997 -0.0000 0.0231
vn -0.0047 0.9997 0.0244
vn -0.0000 -0.9988 0.0481
vn -0.0000 -0.3864 0.9224
vn -0.0000 0.9991 0.0417
vn 0.9990 -0.0083 0.0446
vn -0.9997 -0.0000 0.0259
vt 0.861795 0.776035
vt 0.861795 0.813451
vt 0.937586 0.817139
vt 0.987586 0.767139
vt 0.937586 0.767139
vt 0.981294 0.810847
vt 0.985060 0.769665
vt 0.985060 0.814613
vt 0.775878 0.901336
vt 0.775878 0.863920
vt 0.987586 0.817139
vt 0.987586 0.817139
vt 0.943878 0.773431
vt 0.981294 0.773431
vt 0.987586 0.767139
vt 0.940112 0.814613
vt 0.940112 0.769665
vt 0.978747 0.860422
vt 0.941331 0.897838
vt 0.941331 0.860422
vt 0.899211 0.776035
vt 0.899211 0.813451
vt 0.943878 0.810847
vt 0.813294 0.863920
vt 0.813294 0.901336
vt 0.978747 0.897838
s 0
usemtl Palette
f 3/1/1 14/2/1 4/2/1
f 7/3/2 6/4/2 5/5/2
f 1/6/3 24/7/3 17/8/3
f 10/9/4 26/10/4 11/10/4
f 7/3/5 18/11/5 8/12/5
f 3/13/3 24/7/3 2/14/3
f 8/12/6 23/15/6 6/4/6
f 6/4/7 22/5/7 5/5/7
f 3/13/3 20/16/3 21/17/3
f 5/5/8 19/3/8 7/3/8
f 16/18/3 14/19/3 15/20/3
f 2/21/9 15/1/9 3/1/9
f 1/22/10 16/21/10 2/21/10
f 4/2/11 13/22/11 1/22/11
f 19/3/12 17/8/12 18/11/12
f 23/15/13 21/17/13 22/5/13
f 18/11/14 24/7/14 23/15/14
f 22/5/15 20/16/15 19/3/15
f 1/6/3 20/16/3 4/23/3
f 26/10/16 12/24/16 11/10/16
f 32/9/17 34/10/17 35/9/17
f 27/24/18 9/25/18 12/24/18
f 28/25/19 10/9/19 9/25/19
f 12/24/20 10/9/20 11/10/20
f 36/25/21 32/9/21 35/9/21
f 30/24/22 36/25/22 33/24/22
f 31/10/23 33/24/23 34/10/23
f 33/24/24 35/9/24 34/10/24
f 48/9/25 50/10/25 51/9/25
f 40/24/26 38/9/26 39/10/26
f 39/10/27 43/24/27 40/24/27
f 43/24/28 37/25/28 40/24/28
f 44/25/29 38/9/29 37/25/29
f 50/10/30 46/24/30 49/24/30
f 49/24/31 51/9/31 50/10/31
f 45/25/32 51/9/32 52/25/32
f 49/24/33 45/25/33 52/25/33
f 41/9/34 39/10/34 38/9/34
f 3/1/1 15/1/1 14/2/1
f 7/3/2 8/12/2 6/4/2
f 1/6/3 2/14/3 24/7/3
f 10/9/4 25/9/4 26/10/4
f 7/3/5 19/3/5 18/11/5
f 3/13/3 21/17/3 24/7/3
f 8/12/6 18/11/6 23/15/6
f 6/4/7 23/15/7 22/5/7
f 3/13/3 4/23/3 20/16/3
f 5/5/8 22/5/8 19/3/8
f 16/18/3 13/26/3 14/19/3
f 2/21/9 16/21/9 15/1/9
f 1/22/10 13/22/10 16/21/10
f 4/2/11 14/2/11 13/22/11
f 19/3/12 20/16/12 17/8/12
f 23/15/13 24/7/13 21/17/13
f 18/11/14 17/8/14 24/7/14
f 22/5/15 21/17/15 20/16/15
f 1/6/3 17/8/3 20/16/3
f 26/10/16 27/24/16 12/24/16
f 32/9/17 31/10/17 34/10/17
f 27/24/18 28/25/18 9/25/18
f 28/25/19 25/9/19 10/9/19
f 12/24/20 9/25/20 10/9/20
f 36/25/21 29/25/21 32/9/21
f 30/24/22 29/25/22 36/25/22
f 31/10/23 30/24/23 33/24/23
f 33/24/24 36/25/24 35/9/24
f 48/9/25 47/10/25 50/10/25
f 40/24/26 37/25/26 38/9/26
f 39/10/27 42/10/27 43/24/27
f 43/24/28 44/25/28 37/25/28
f 44/25/29 41/9/29 38/9/29
f 50/10/30 47/10/30 46/24/30
f 49/24/31 52/25/31 51/9/31
f 45/25/32 48/9/32 51/9/32
f 49/24/33 46/24/33 45/25/33
f 41/9/34 42/10/34 39/10/34
