# Blender 5.0.1
# www.blender.org
mtllib Deco.mtl
o Deco.013
v 0.030420 0.030420 0.038676
v 0.030420 -0.030420 0.038676
v -0.030420 -0.030420 0.038676
v -0.030420 0.030420 0.038676
v -0.033169 -0.033169 -0.001170
v 0.033169 -0.033169 -0.001170
v -0.033169 0.033169 -0.001170
v 0.033169 0.033169 -0.001170
v -0.003358 -0.001670 0.033981
v -0.017063 0.001600 0.033981
v -0.013792 0.015305 0.033981
v -0.000088 0.012034 0.033981
v 0.024931 0.024931 0.034708
v -0.024931 0.024931 0.034708
v -0.024931 -0.024931 0.034708
v 0.024931 -0.024931 0.034708
v 0.036544 0.036544 0.038676
v 0.039893 0.039893 0.034639
v -0.039893 0.039893 0.034639
v -0.036544 0.036544 0.038676
v -0.036544 -0.036544 0.038676
v -0.039893 -0.039893 0.034639
v 0.039893 -0.039893 0.034639
v 0.036544 -0.036544 0.038676
v -0.017063 0.001600 0.082369
v -0.003358 -0.001670 0.082369
v -0.013792 0.015305 0.082369
v -0.000088 0.012034 0.082369
v 0.019039 -0.019207 0.033981
v 0.005015 -0.020559 0.033981
v 0.003662 -0.006535 0.033981
v 0.017686 -0.005182 0.033981
v 0.005015 -0.020559 0.065837
v 0.019039 -0.019207 0.065837
v 0.003662 -0.006535 0.065837
v 0.017686 -0.005182 0.065837
v 0.007460 -0.017592 0.064506
v 0.016072 -0.016762 0.064506
v 0.006629 -0.008980 0.064506
v 0.015241 -0.008150 0.064506
v 0.007460 -0.017592 0.097982
v 0.016072 -0.016762 0.097982
v 0.015241 -0.008150 0.097982
v 0.006629 -0.008980 0.097982
v -0.014218 0.003349 0.088636
v -0.005107 0.001175 0.088636
v -0.012044 0.012460 0.088636
v -0.002933 0.010286 0.088636
v -0.014218 0.003349 0.079501
v -0.005107 0.001175 0.079501
v -0.002933 0.010286 0.079501
v -0.012044 0.012460 0.079501
vn 0.5858 -0.0000 0.8104
vn -0.0000 -0.0000 -1.0000
vn -0.0000 -0.0000 1.0000
vn -0.0000 0.9828 -0.1846
vn 0.9828 -0.0000 -0.1846
vn -0.0000 -0.9828 -0.1846
vn -0.9828 -0.0000 -0.1846
vn -0.0000 0.5858 0.8104
vn -0.5858 -0.0000 0.8104
vn -0.0000 -0.5858 0.8104
vn -0.0000 0.7696 0.6385
vn -0.0000 -0.7696 0.6385
vn 0.7696 -0.0000 0.6385
vn -0.7696 -0.0000 0.6385
vn -0.2321 -0.9727 -0.0000
vn 0.9727 -0.2321 -0.0000
vn -0.9727 0.2321 -0.0000
vn 0.2321 0.9727 -0.0000
vn 0.0960 -0.9954 -0.0000
vn 0.9954 0.0960 -0.0000
vn -0.9954 -0.0960 -0.0000
vn -0.0960 0.9954 -0.0000
vt 0.861795 0.776035
vt 0.861795 0.813451
vt 0.937586 0.817139
vt 0.987586 0.767139
vt 0.937586 0.767139
vt 0.981294 0.810847
vt 0.985060 0.769665
vt 0.985060 0.814613
vt 0.768066 0.853504
vt 0.805482 0.890920
vt 0.768066 0.890920
vt 0.987586 0.817139
vt 0.987586 0.817139
vt 0.943878 0.773431
vt 0.981294 0.773431
vt 0.987586 0.767139
vt 0.940112 0.814613
vt 0.940112 0.769665
vt 0.978747 0.860422
vt 0.941331 0.897838
vt 0.941331 0.860422
vt 0.899211 0.776035
vt 0.899211 0.813451
vt 0.943878 0.810847
vt 0.805482 0.853504
vt 0.978747 0.897838
s 0
usemtl Palette
f 3/1/1 14/2/1 4/2/1
f 7/3/2 6/4/2 5/5/2
f 1/6/3 24/7/3 17/8/3
f 33/9/3 36/10/3 35/11/3
f 7/3/4 18/12/4 8/13/4
f 3/14/3 24/7/3 2/15/3
f 8/13/5 23/16/5 6/4/5
f 6/4/6 22/5/6 5/5/6
f 3/14/3 20/17/3 21/18/3
f 5/5/7 19/3/7 7/3/7
f 16/19/3 14/20/3 15/21/3
f 2/22/8 15/1/8 3/1/8
f 1/23/9 16/22/9 2/22/9
f 4/2/10 13/23/10 1/23/10
f 19/3/11 17/8/11 18/12/11
f 23/16/12 21/18/12 22/5/12
f 18/12/13 24/7/13 23/16/13
f 22/5/14 20/17/14 19/3/14
f 1/6/3 20/17/3 4/24/3
f 26/25/3 27/11/3 25/9/3
f 9/25/15 25/9/15 10/9/15
f 12/10/16 26/25/16 9/25/16
f 10/9/17 27/11/17 11/11/17
f 11/11/18 28/10/18 12/10/18
f 29/25/19 33/9/19 30/9/19
f 32/10/20 34/25/20 29/25/20
f 30/9/21 35/11/21 31/11/21
f 31/11/22 36/10/22 32/10/22
f 42/25/3 44/11/3 41/9/3
f 40/10/20 42/25/20 38/25/20
f 39/11/22 43/10/22 40/10/22
f 38/25/19 41/9/19 37/9/19
f 37/9/21 44/11/21 39/11/21
f 45/9/3 48/10/3 47/11/3
f 51/10/18 47/11/18 48/10/18
f 49/9/15 46/25/15 45/9/15
f 52/11/17 45/9/17 47/11/17
f 50/25/16 48/10/16 46/25/16
f 3/1/1 15/1/1 14/2/1
f 7/3/2 8/13/2 6/4/2
f 1/6/3 2/15/3 24/7/3
f 33/9/3 34/25/3 36/10/3
f 7/3/4 19/3/4 18/12/4
f 3/14/3 21/18/3 24/7/3
f 8/13/5 18/12/5 23/16/5
f 6/4/6 23/16/6 22/5/6
f 3/14/3 4/24/3 20/17/3
f 5/5/7 22/5/7 19/3/7
f 16/19/3 13/26/3 14/20/3
f 2/22/8 16/22/8 15/1/8
f 1/23/9 13/23/9 16/22/9
f 4/2/10 14/2/10 13/23/10
f 19/3/11 20/17/11 17/8/11
f 23/16/12 24/7/12 21/18/12
f 18/12/13 17/8/13 24/7/13
f 22/5/14 21/18/14 20/17/14
f 1/6/3 17/8/3 20/17/3
f 26/25/3 28/10/3 27/11/3
f 9/25/15 26/25/15 25/9/15
f 12/10/16 28/10/16 26/25/16
f 10/9/17 25/9/17 27/11/17
f 11/11/18 27/11/18 28/10/18
f 29/25/19 34/25/19 33/9/19
f 32/10/20 36/10/20 34/25/20
f 30/9/21 33/9/21 35/11/21
f 31/11/22 35/11/22 36/10/22
f 42/25/3 43/10/3 44/11/3
f 40/10/20 43/10/20 42/25/20
f 39/11/22 44/11/22 43/10/22
f 38/25/19 42/25/19 41/9/19
f 37/9/21 41/9/21 44/11/21
f 45/9/3 46/25/3 48/10/3
f 51/10/18 52/11/18 47/11/18
f 49/9/15 50/25/15 46/25/15
f 52/11/17 49/9/17 45/9/17
f 50/25/16 51/10/16 48/10/16
