# Blender 5.0.1
# www.blender.org
mtllib Desk_Separator.mtl
o Desk_Separator
v -0.782021 0.027512 0.949037
v -0.782021 0.027512 0.921748
v -0.351462 -0.012735 0.010887
v -0.351462 -0.012735 0.925507
v -0.766661 -0.012735 0.010887
v -0.766661 -0.012735 0.925507
v -0.351462 0.012735 0.010887
v -0.351462 0.012735 0.925507
v -0.766661 0.012735 0.925507
v -0.766661 0.012735 0.010887
v -0.782021 -0.027512 0.949037
v -0.782021 -0.027512 0.921748
v -0.735308 0.009057 0.984573
v -0.735308 -0.009057 0.984573
v -0.703846 0.017545 1.005881
v -0.703846 0.017545 0.947357
v -0.703846 -0.017545 1.005881
v -0.703846 -0.017545 0.947357
v -0.661212 0.017545 1.005881
v -0.661212 0.017545 0.947357
v -0.661212 -0.017545 1.005881
v -0.661212 -0.017545 0.947357
v -0.342761 -0.017406 0.017412
v -0.775363 -0.017406 0.017412
v -0.342761 0.017406 0.017412
v -0.775363 0.017406 0.017412
v -0.342761 -0.017406 -0.001885
v -0.775363 -0.017406 -0.001885
v -0.342761 0.017406 -0.001885
v -0.775363 0.017406 -0.001885
v -0.735308 0.009057 1.252433
v -0.714411 0.009057 1.273330
v -0.729188 0.009057 1.267210
v -0.714411 -0.009057 1.273330
v -0.735308 -0.009057 1.252433
v -0.729188 -0.009057 1.267210
v 0.782021 0.027512 0.949037
v 0.782021 0.027512 0.921748
v 0.351462 -0.012735 0.010887
v 0.351462 -0.012735 0.925507
v 0.766661 -0.012735 0.010887
v 0.766661 -0.012735 0.925507
v 0.351462 0.012735 0.010887
v 0.351462 0.012735 0.925507
v 0.766661 0.012735 0.925507
v 0.766661 0.012735 0.010887
v 0.782021 -0.027512 0.949037
v 0.782021 -0.027512 0.921748
v 0.735308 0.009057 0.984573
v 0.735308 -0.009057 0.984573
v 0.703846 0.017545 1.005881
v 0.703846 0.017545 0.947357
v 0.703846 -0.017545 1.005881
v 0.703846 -0.017545 0.947357
v 0.661212 0.017545 1.005881
v 0.661212 0.017545 0.947357
v 0.661212 -0.017545 1.005881
v 0.661212 -0.017545 0.947357
v 0.342761 -0.017406 0.017412
v 0.775363 -0.017406 0.017412
v 0.342761 0.017406 0.017412
v 0.775363 0.017406 0.017412
v 0.342761 -0.017406 -0.001885
v 0.775363 -0.017406 -0.001885
v 0.342761 0.017406 -0.001885
v 0.775363 0.017406 -0.001885
v 0.735308 0.009057 1.252433
v 0.714411 0.009057 1.273330
v 0.729188 0.009057 1.267210
v 0.714411 -0.009057 1.273330
v 0.735308 -0.009057 1.252433
v 0.729188 -0.009057 1.267210
vn -0.0000 -0.0000 1.0000
vn -0.0000 -1.0000 -0.0000
vn -0.0000 1.0000 -0.0000
vn 1.0000 -0.0000 -0.0000
vn -0.0000 -0.0000 -1.0000
vn -1.0000 -0.0000 -0.0000
vn -0.1951 -0.0000 0.9808
vn 0.1951 -0.0000 0.9808
vn -0.9808 -0.0000 0.1951
vn -0.7071 -0.0000 0.7071
vn 0.7071 -0.0000 0.7071
vn 0.9808 -0.0000 0.1951
vt 0.475189 0.958674
vt 0.706398 0.985175
vt 0.717475 0.974098
vt 0.706398 0.974098
vt 0.717475 0.985175
vt 0.464112 0.958674
vt 0.049237 0.874013
vt 0.049159 0.874013
vt 0.048435 0.874013
vt 0.038160 0.874013
vt 0.048435 0.874013
vt 0.030223 0.961320
vt 0.041300 0.961320
s 1
usemtl Palette
f 1/1/1 47/1/1 37/1/1
s 2
f 3/2/2 6/3/2 5/4/2
s 3
f 9/3/3 7/2/3 10/4/3
s 4
f 7/2/4 4/5/4 3/2/4
s 5
f 30/4/5 27/2/5 28/4/5
s 6
f 9/3/6 5/4/6 6/3/6
s 7
f 12/6/6 1/1/6 2/6/6
s 8
f 38/6/5 12/6/5 2/6/5
s 9
f 47/1/2 12/6/2 48/6/2
s 10
f 68/7/3 69/8/3 67/9/3
s 11
f 49/10/5 14/10/5 13/10/5
s 12
f 14/10/2 34/7/2 35/11/2
s 13
f 32/7/7 70/7/8 68/7/8
s 14
f 18/12/6 15/13/6 16/12/6
s 15
f 19/13/4 22/12/4 20/12/4
s 16
f 22/12/2 17/13/2 18/12/2
s 17
f 21/13/1 15/13/1 17/13/1
s 18
f 19/13/3 16/12/3 15/13/3
s 19
f 23/2/1 26/4/1 24/4/1
s 20
f 25/2/3 30/4/3 26/4/3
s 21
f 23/2/4 29/2/4 25/2/4
s 22
f 24/4/2 27/2/2 23/2/2
s 23
f 26/4/6 28/4/6 24/4/6
s 13
f 35/11/9 33/8/10 31/9/9
f 36/8/10 32/7/7 33/8/10
f 14/10/6 31/9/9 13/10/6
s 24
f 42/3/2 39/2/2 41/4/2
s 25
f 43/2/3 45/3/3 46/4/3
s 26
f 40/5/6 43/2/6 39/2/6
s 27
f 63/2/5 66/4/5 64/4/5
s 28
f 41/4/4 45/3/4 42/3/4
s 29
f 37/1/4 48/6/4 38/6/4
s 30
f 51/13/4 54/12/4 52/12/4
s 31
f 58/12/6 55/13/6 56/12/6
s 32
f 53/13/2 58/12/2 54/12/2
s 33
f 51/13/1 57/13/1 53/13/1
s 34
f 52/12/3 55/13/3 51/13/3
s 35
f 62/4/1 59/2/1 60/4/1
s 36
f 66/4/3 61/2/3 62/4/3
s 37
f 65/2/6 59/2/6 61/2/6
s 38
f 63/2/2 60/4/2 59/2/2
s 39
f 64/4/4 62/4/4 60/4/4
s 13
f 69/8/11 71/11/12 67/9/12
f 68/7/8 72/8/11 69/8/11
f 67/9/12 50/10/4 49/10/4
s 40
f 2/6/3 37/1/3 38/6/3
s 1
f 1/1/1 11/1/1 47/1/1
s 2
f 3/2/2 4/5/2 6/3/2
s 3
f 9/3/3 8/5/3 7/2/3
s 4
f 7/2/4 8/5/4 4/5/4
s 5
f 30/4/5 29/2/5 27/2/5
s 6
f 9/3/6 10/4/6 5/4/6
s 7
f 12/6/6 11/1/6 1/1/6
s 8
f 38/6/5 48/6/5 12/6/5
s 9
f 47/1/2 11/1/2 12/6/2
s 10
f 67/9/3 49/10/3 68/7/3
f 49/10/3 13/10/3 68/7/3
f 13/10/3 31/9/3 32/7/3
f 31/9/3 33/8/3 32/7/3
f 32/7/3 68/7/3 13/10/3
s 11
f 49/10/5 50/10/5 14/10/5
s 12
f 14/10/2 50/10/2 70/7/2
f 50/10/2 71/11/2 70/7/2
f 71/11/2 72/8/2 70/7/2
f 70/7/2 34/7/2 14/10/2
f 34/7/2 36/8/2 35/11/2
s 13
f 32/7/7 34/7/7 70/7/8
s 14
f 18/12/6 17/13/6 15/13/6
s 15
f 19/13/4 21/13/4 22/12/4
s 16
f 22/12/2 21/13/2 17/13/2
s 17
f 21/13/1 19/13/1 15/13/1
s 18
f 19/13/3 20/12/3 16/12/3
s 19
f 23/2/1 25/2/1 26/4/1
s 20
f 25/2/3 29/2/3 30/4/3
s 21
f 23/2/4 27/2/4 29/2/4
s 22
f 24/4/2 28/4/2 27/2/2
s 23
f 26/4/6 30/4/6 28/4/6
s 13
f 35/11/9 36/8/10 33/8/10
f 36/8/10 34/7/7 32/7/7
f 14/10/6 35/11/9 31/9/9
s 24
f 42/3/2 40/5/2 39/2/2
s 25
f 43/2/3 44/5/3 45/3/3
s 26
f 40/5/6 44/5/6 43/2/6
s 27
f 63/2/5 65/2/5 66/4/5
s 28
f 41/4/4 46/4/4 45/3/4
s 29
f 37/1/4 47/1/4 48/6/4
s 30
f 51/13/4 53/13/4 54/12/4
s 31
f 58/12/6 57/13/6 55/13/6
s 32
f 53/13/2 57/13/2 58/12/2
s 33
f 51/13/1 55/13/1 57/13/1
s 34
f 52/12/3 56/12/3 55/13/3
s 35
f 62/4/1 61/2/1 59/2/1
s 36
f 66/4/3 65/2/3 61/2/3
s 37
f 65/2/6 63/2/6 59/2/6
s 38
f 63/2/2 64/4/2 60/4/2
s 39
f 64/4/4 66/4/4 62/4/4
s 13
f 69/8/11 72/8/11 71/11/12
f 68/7/8 70/7/8 72/8/11
f 67/9/12 71/11/12 50/10/4
s 40
f 2/6/3 1/1/3 37/1/3
