# Blender 5.0.1
# www.blender.org
mtllib Desk_Ac.mtl
o Desk_Ac
v 0.651728 -0.297295 0.009771
v 0.651728 0.206822 0.009771
v 0.651728 -0.297295 -0.009771
v 0.651728 0.206822 -0.009771
v -0.651728 -0.297295 0.009771
v -0.651728 0.206822 0.009771
v -0.651728 -0.297295 -0.009771
v -0.651728 0.206822 -0.009771
vn -0.0000 -0.0000 -1.0000
vn -0.0000 1.0000 -0.0000
vn -0.0000 -1.0000 -0.0000
vn 1.0000 -0.0000 -0.0000
vn -1.0000 -0.0000 -0.0000
vn -0.0000 -0.0000 1.0000
vt 0.391535 0.966597
s 0
usemtl Palette
f 4/1/1 7/1/1 8/1/1
f 8/1/2 2/1/2 4/1/2
f 7/1/3 1/1/3 5/1/3
f 1/1/4 4/1/4 2/1/4
f 8/1/5 5/1/5 6/1/5
f 5/1/6 2/1/6 6/1/6
f 4/1/1 3/1/1 7/1/1
f 8/1/2 6/1/2 2/1/2
f 7/1/3 3/1/3 1/1/3
f 1/1/4 3/1/4 4/1/4
f 8/1/5 7/1/5 5/1/5
f 5/1/6 1/1/6 2/1/6
