# Blender 5.0.1
# www.blender.org
mtllib Desk_2.mtl
o Desk_2
v -0.726937 -0.316241 0.827838
v -0.726937 -0.279049 0.827838
v -0.726937 -0.316241 0.808295
v -0.726937 -0.279049 0.808295
v -0.782021 -0.364393 0.949037
v -0.782021 -0.364393 0.921748
v -0.782021 0.385607 0.949037
v -0.782021 0.385607 0.921748
v -0.720247 -0.331945 -0.001885
v -0.720247 -0.331945 0.925507
v -0.766661 -0.331945 -0.001885
v -0.766661 -0.331945 0.925507
v -0.720247 -0.268055 -0.001885
v -0.720247 -0.268055 0.925507
v -0.766661 -0.268055 0.925507
v -0.766661 -0.268055 -0.001885
v -0.720247 0.268055 -0.001885
v -0.720247 0.268055 0.925507
v -0.766661 0.268055 -0.001885
v -0.766661 0.268055 0.925507
v -0.720247 0.331945 -0.001885
v -0.720247 0.331945 0.925507
v -0.766661 0.331945 0.925507
v -0.766661 0.331945 -0.001885
v -0.734342 -0.268055 0.150432
v -0.734342 -0.268055 0.514576
v -0.752566 -0.268055 0.514576
v -0.752566 -0.268055 0.150432
v -0.734342 0.268055 0.150432
v -0.734342 0.268055 0.514576
v -0.752566 0.268055 0.514576
v -0.752566 0.268055 0.150432
v 0.726937 -0.316241 0.827838
v 0.726937 -0.279049 0.827838
v 0.726937 -0.316241 0.808295
v 0.726937 -0.279049 0.808295
v 0.782021 -0.364393 0.949037
v 0.782021 -0.364393 0.921748
v 0.782021 0.385607 0.949037
v 0.782021 0.385607 0.921748
v 0.720247 -0.331945 -0.001885
v 0.720247 -0.331945 0.925507
v 0.766661 -0.331945 -0.001885
v 0.766661 -0.331945 0.925507
v 0.720247 -0.268055 -0.001885
v 0.720247 -0.268055 0.925507
v 0.766661 -0.268055 0.925507
v 0.766661 -0.268055 -0.001885
v 0.720247 0.268055 -0.001885
v 0.720247 0.268055 0.925507
v 0.766661 0.268055 -0.001885
v 0.766661 0.268055 0.925507
v 0.720247 0.331945 -0.001885
v 0.720247 0.331945 0.925507
v 0.766661 0.331945 0.925507
v 0.766661 0.331945 -0.001885
v 0.734342 -0.268055 0.150432
v 0.734342 -0.268055 0.514576
v 0.752566 -0.268055 0.514576
v 0.752566 -0.268055 0.150432
v 0.734342 0.268055 0.150432
v 0.734342 0.268055 0.514576
v 0.752566 0.268055 0.514576
v 0.752566 0.268055 0.150432
vn -0.0000 -1.0000 -0.0000
vn -0.0000 1.0000 -0.0000
vn -0.0000 -0.0000 1.0000
vn -0.0000 -0.0000 -1.0000
vn -1.0000 -0.0000 -0.0000
vn 1.0000 -0.0000 -0.0000
vt 0.475189 0.958674
vt 0.464112 0.958674
vt 0.203667 0.870263
vt 0.706398 0.985175
vt 0.717475 0.974098
vt 0.706398 0.974098
vt 0.717475 0.985175
vt 0.463686 0.968109
vt 0.463686 0.957031
vt 0.452608 0.968109
vt 0.452608 0.957031
s 0
usemtl Palette
f 37/1/1 6/2/1 38/2/1
f 34/3/2 4/3/2 2/3/2
f 1/3/1 35/3/1 33/3/1
f 39/1/3 5/1/3 37/1/3
f 35/3/4 4/3/4 36/3/4
f 40/2/4 6/2/4 8/2/4
f 7/1/5 6/2/5 5/1/5
f 8/2/2 39/1/2 40/2/2
f 9/4/1 12/5/1 11/6/1
f 15/5/2 13/4/2 16/6/2
f 13/4/6 10/7/6 9/4/6
f 16/6/4 9/4/4 11/6/4
f 15/5/5 11/6/5 12/5/5
f 17/4/1 20/5/1 19/6/1
f 23/5/2 21/4/2 24/6/2
f 21/4/6 18/7/6 17/4/6
f 24/6/4 17/4/4 19/6/4
f 23/5/5 19/6/5 20/5/5
f 26/8/3 31/9/3 27/9/3
f 25/10/6 30/8/6 26/8/6
f 28/11/4 29/10/4 25/10/4
f 27/9/5 32/11/5 28/11/5
f 38/2/6 39/1/6 37/1/6
f 44/5/1 41/4/1 43/6/1
f 45/4/2 47/5/2 48/6/2
f 42/7/5 45/4/5 41/4/5
f 41/4/4 48/6/4 43/6/4
f 43/6/6 47/5/6 44/5/6
f 52/5/1 49/4/1 51/6/1
f 53/4/2 55/5/2 56/6/2
f 50/7/5 53/4/5 49/4/5
f 49/4/4 56/6/4 51/6/4
f 51/6/6 55/5/6 52/5/6
f 63/9/3 58/8/3 59/9/3
f 62/8/5 57/10/5 58/8/5
f 61/10/4 60/11/4 57/10/4
f 64/11/6 59/9/6 60/11/6
f 2/3/3 33/3/3 34/3/3
f 37/1/1 5/1/1 6/2/1
f 34/3/2 36/3/2 4/3/2
f 1/3/1 3/3/1 35/3/1
f 39/1/3 7/1/3 5/1/3
f 35/3/4 3/3/4 4/3/4
f 40/2/4 38/2/4 6/2/4
f 7/1/5 8/2/5 6/2/5
f 8/2/2 7/1/2 39/1/2
f 9/4/1 10/7/1 12/5/1
f 15/5/2 14/7/2 13/4/2
f 13/4/6 14/7/6 10/7/6
f 16/6/4 13/4/4 9/4/4
f 15/5/5 16/6/5 11/6/5
f 17/4/1 18/7/1 20/5/1
f 23/5/2 22/7/2 21/4/2
f 21/4/6 22/7/6 18/7/6
f 24/6/4 21/4/4 17/4/4
f 23/5/5 24/6/5 19/6/5
f 26/8/3 30/8/3 31/9/3
f 25/10/6 29/10/6 30/8/6
f 28/11/4 32/11/4 29/10/4
f 27/9/5 31/9/5 32/11/5
f 38/2/6 40/2/6 39/1/6
f 44/5/1 42/7/1 41/4/1
f 45/4/2 46/7/2 47/5/2
f 42/7/5 46/7/5 45/4/5
f 41/4/4 45/4/4 48/6/4
f 43/6/6 48/6/6 47/5/6
f 52/5/1 50/7/1 49/4/1
f 53/4/2 54/7/2 55/5/2
f 50/7/5 54/7/5 53/4/5
f 49/4/4 53/4/4 56/6/4
f 51/6/6 56/6/6 55/5/6
f 63/9/3 62/8/3 58/8/3
f 62/8/5 61/10/5 57/10/5
f 61/10/4 64/11/4 60/11/4
f 64/11/6 63/9/6 59/9/6
f 2/3/3 1/3/3 33/3/3
