# Blender 5.0.1
# www.blender.org
mtllib Desk.mtl
o Desk.004
v 0.702979 -0.286004 -0.001885
v 0.702979 0.234287 0.925507
v 0.702979 -0.197118 -0.001885
v 0.702979 0.323174 0.925507
v 0.747315 -0.286004 -0.001885
v 0.747315 0.234287 0.925507
v 0.747315 -0.197118 -0.001885
v 0.747315 0.323174 0.925507
v 0.655933 0.323174 -0.001885
v 0.655933 -0.197118 0.925507
v 0.655933 0.234287 -0.001885
v 0.655933 -0.286004 0.925507
v 0.700268 0.323174 -0.001885
v 0.700268 -0.197118 0.925507
v 0.700268 0.234287 -0.001885
v 0.700268 -0.286004 0.925507
v 0.663503 -0.202409 0.827838
v 0.663503 -0.165217 0.827838
v 0.663503 -0.202409 0.808295
v 0.663503 -0.165217 0.808295
v -0.702979 -0.286004 -0.001885
v -0.702979 0.234287 0.925507
v -0.702979 -0.197118 -0.001885
v -0.702979 0.323174 0.925507
v -0.747315 -0.286004 -0.001885
v -0.747315 0.234287 0.925507
v -0.747315 -0.197118 -0.001885
v -0.747315 0.323174 0.925507
v -0.655933 0.323174 -0.001885
v -0.655933 -0.197118 0.925507
v -0.655933 0.234287 -0.001885
v -0.655933 -0.286004 0.925507
v -0.700268 0.323174 -0.001885
v -0.700268 -0.197118 0.925507
v -0.700268 0.234287 -0.001885
v -0.700268 -0.286004 0.925507
v -0.663503 -0.202409 0.827838
v -0.663503 -0.165217 0.827838
v -0.663503 -0.202409 0.808295
v -0.663503 -0.165217 0.808295
v 0.782021 -0.364393 0.949037
v 0.782021 -0.364393 0.921748
v -0.782021 -0.364393 0.949037
v -0.782021 -0.364393 0.921748
v 0.782021 0.385607 0.949037
v 0.782021 0.385607 0.921748
v -0.782021 0.385607 0.949037
v -0.782021 0.385607 0.921748
vn -1.0000 -0.0000 -0.0000
vn -0.0000 0.8721 -0.4893
vn 1.0000 -0.0000 -0.0000
vn -0.0000 -0.8721 0.4893
vn -0.0000 -0.0000 -1.0000
vn -0.0000 -0.8721 -0.4893
vn -0.0000 0.8721 0.4893
vn -0.0000 -0.0000 1.0000
vn -0.0000 1.0000 -0.0000
vn -0.0000 -1.0000 -0.0000
vt 0.717475 0.940867
vt 0.706398 0.951944
vt 0.706398 0.940867
vt 0.717475 0.951944
vt 0.706398 0.963021
vt 0.717475 0.974098
vt 0.706398 0.974098
vt 0.706398 0.985175
vt 0.695321 0.974098
vt 0.695321 0.963021
vt 0.717475 0.963021
vt 0.717475 0.985175
vt 0.203667 0.870263
vt 0.475189 0.958674
vt 0.464112 0.958674
s 0
usemtl Palette
f 2/1/1 3/2/1 1/3/1
f 4/4/2 7/5/2 3/2/2
f 7/5/3 6/6/3 5/7/3
f 6/6/4 1/8/4 5/7/4
f 7/5/5 1/9/5 3/10/5
f 11/2/1 10/1/1 9/3/1
f 15/5/6 12/4/6 11/2/6
f 15/5/3 14/6/3 16/11/3
f 9/8/7 14/6/7 13/7/7
f 9/9/5 15/5/5 11/10/5
f 16/11/8 10/12/8 12/4/8
f 6/6/8 4/4/8 2/12/8
f 20/13/5 39/13/5 40/13/5
f 40/13/9 18/13/9 20/13/9
f 39/13/10 17/13/10 37/13/10
f 23/2/3 22/1/3 21/3/3
f 27/5/2 24/4/2 23/2/2
f 27/5/1 26/6/1 28/11/1
f 21/8/4 26/6/4 25/7/4
f 21/9/5 27/5/5 23/10/5
f 30/1/3 31/2/3 29/3/3
f 32/4/6 35/5/6 31/2/6
f 35/5/1 34/6/1 33/7/1
f 34/6/7 29/8/7 33/7/7
f 35/5/5 29/9/5 31/10/5
f 30/12/8 36/11/8 32/4/8
f 24/4/8 26/6/8 22/12/8
f 41/14/8 47/14/8 43/14/8
f 42/15/10 43/14/10 44/15/10
f 46/15/3 41/14/3 42/15/3
f 47/14/9 46/15/9 48/15/9
f 47/14/1 44/15/1 43/14/1
f 42/15/5 48/15/5 46/15/5
f 37/13/8 18/13/8 38/13/8
f 2/1/1 4/4/1 3/2/1
f 4/4/2 8/11/2 7/5/2
f 7/5/3 8/11/3 6/6/3
f 6/6/4 2/12/4 1/8/4
f 7/5/5 5/7/5 1/9/5
f 11/2/1 12/4/1 10/1/1
f 15/5/6 16/11/6 12/4/6
f 15/5/3 13/7/3 14/6/3
f 9/8/7 10/12/7 14/6/7
f 9/9/5 13/7/5 15/5/5
f 16/11/8 14/6/8 10/12/8
f 6/6/8 8/11/8 4/4/8
f 20/13/5 19/13/5 39/13/5
f 40/13/9 38/13/9 18/13/9
f 39/13/10 19/13/10 17/13/10
f 23/2/3 24/4/3 22/1/3
f 27/5/2 28/11/2 24/4/2
f 27/5/1 25/7/1 26/6/1
f 21/8/4 22/12/4 26/6/4
f 21/9/5 25/7/5 27/5/5
f 30/1/3 32/4/3 31/2/3
f 32/4/6 36/11/6 35/5/6
f 35/5/1 36/11/1 34/6/1
f 34/6/7 30/12/7 29/8/7
f 35/5/5 33/7/5 29/9/5
f 30/12/8 34/6/8 36/11/8
f 24/4/8 28/11/8 26/6/8
f 41/14/8 45/14/8 47/14/8
f 42/15/10 41/14/10 43/14/10
f 46/15/3 45/14/3 41/14/3
f 47/14/9 45/14/9 46/15/9
f 47/14/1 48/15/1 44/15/1
f 42/15/5 44/15/5 48/15/5
f 37/13/8 17/13/8 18/13/8
