# Blender 5.0.1
# www.blender.org
mtllib Door_Ac_B.mtl
o Door_Ac_B
v -0.334434 -0.028988 0.003550
v -0.334434 0.015620 0.007877
v 0.342848 -0.028988 0.003550
v 0.342848 0.015620 0.007877
v -0.334434 -0.027976 -0.003396
v -0.334434 0.016632 0.000931
v 0.342848 -0.027976 -0.003396
v 0.342848 0.016632 0.000931
v -0.334434 -0.028988 -0.007723
v -0.334434 0.015620 -0.003396
v 0.342848 -0.028988 -0.007723
v 0.342848 0.015620 -0.003396
v -0.334434 -0.027976 -0.014669
v -0.334434 0.016632 -0.010342
v 0.342848 -0.027976 -0.014669
v 0.342848 0.016632 -0.010342
v -0.334434 -0.028988 -0.018996
v -0.334434 0.015620 -0.014669
v 0.342848 -0.028988 -0.018996
v 0.342848 0.015620 -0.014669
v -0.334434 -0.027976 -0.025942
v -0.334434 0.016632 -0.021615
v 0.342848 -0.027976 -0.025942
v 0.342848 0.016632 -0.021615
v -0.334434 -0.028988 -0.030269
v -0.334434 0.015620 -0.025942
v 0.342848 -0.028988 -0.030269
v 0.342848 0.015620 -0.025942
v -0.334434 -0.027976 -0.037215
v -0.334434 0.016632 -0.032887
v 0.342848 -0.027976 -0.037215
v 0.342848 0.016632 -0.032887
v -0.334434 -0.028988 -0.041542
v -0.334434 0.015620 -0.037215
v 0.342848 -0.028988 -0.041542
v 0.342848 0.015620 -0.037215
v -0.334434 -0.027976 -0.048487
v -0.334434 0.016632 -0.044160
v 0.342848 -0.027976 -0.048487
v 0.342848 0.016632 -0.044160
v -0.334434 -0.028988 -0.052814
v -0.334434 0.015620 -0.048487
v 0.342848 -0.028988 -0.052814
v 0.342848 0.015620 -0.048487
v -0.334434 -0.027976 -0.059760
v -0.334434 0.016632 -0.055433
v 0.342848 -0.027976 -0.059760
v 0.342848 0.016632 -0.055433
v 0.317324 -0.014539 -0.701567
v 0.317324 -0.014539 -0.008488
v 0.327347 -0.014539 -0.701567
v 0.327347 -0.014539 -0.008488
v 0.313162 -0.022010 -0.712001
v 0.331507 -0.022010 -0.712001
v 0.313162 -0.022010 -0.684036
v 0.331507 -0.022010 -0.684036
v 0.331507 -0.007344 -0.712001
v 0.313162 -0.007344 -0.712001
v 0.331507 -0.007344 -0.684036
v 0.313162 -0.007344 -0.684036
vn -0.0000 -0.0965 0.9953
vn -0.0000 0.0965 -0.9953
vn -1.0000 -0.0000 -0.0000
vn 1.0000 -0.0000 -0.0000
vn -0.0000 -0.9896 -0.1442
vn -0.0000 0.9896 0.1442
vn -0.0000 -1.0000 -0.0000
vn -0.0000 1.0000 -0.0000
vn -0.0000 -0.0000 -1.0000
vn -0.0000 -0.0000 1.0000
vt 0.375390 0.979097
vt 0.387890 0.966597
vt 0.375390 0.966597
vt 0.387890 0.979097
vt 0.019357 0.887972
vt 0.031857 0.875472
vt 0.019357 0.875472
vt 0.128080 0.952941
vt 0.031857 0.887972
s 0
usemtl Palette
f 1/1/1 4/2/1 2/3/1
f 8/2/2 5/1/2 6/3/2
f 2/3/3 5/1/3 1/1/3
f 4/2/4 7/4/4 8/2/4
f 1/1/5 7/4/5 3/4/5
f 4/2/6 6/3/6 2/3/6
f 9/1/1 12/2/1 10/3/1
f 16/2/2 13/1/2 14/3/2
f 10/3/3 13/1/3 9/1/3
f 12/2/4 15/4/4 16/2/4
f 9/1/5 15/4/5 11/4/5
f 12/2/6 14/3/6 10/3/6
f 17/1/1 20/2/1 18/3/1
f 24/2/2 21/1/2 22/3/2
f 18/3/3 21/1/3 17/1/3
f 20/2/4 23/4/4 24/2/4
f 17/1/5 23/4/5 19/4/5
f 20/2/6 22/3/6 18/3/6
f 25/1/1 28/2/1 26/3/1
f 32/2/2 29/1/2 30/3/2
f 26/3/3 29/1/3 25/1/3
f 28/2/4 31/4/4 32/2/4
f 25/1/5 31/4/5 27/4/5
f 28/2/6 30/3/6 26/3/6
f 33/1/1 36/2/1 34/3/1
f 40/2/2 37/1/2 38/3/2
f 34/3/3 37/1/3 33/1/3
f 36/2/4 39/4/4 40/2/4
f 33/1/5 39/4/5 35/4/5
f 36/2/6 38/3/6 34/3/6
f 41/1/1 44/2/1 42/3/1
f 48/2/2 45/1/2 46/3/2
f 42/3/3 45/1/3 41/1/3
f 44/2/4 47/4/4 48/2/4
f 41/1/5 47/4/5 43/4/5
f 44/2/6 46/3/6 42/3/6
f 49/5/7 52/6/7 50/7/7
f 54/8/7 55/8/7 53/8/7
f 60/8/8 57/8/8 58/8/8
f 60/8/3 53/8/3 55/8/3
f 58/8/9 54/8/9 53/8/9
f 57/8/4 56/8/4 54/8/4
f 59/8/10 55/8/10 56/8/10
f 1/1/1 3/4/1 4/2/1
f 8/2/2 7/4/2 5/1/2
f 2/3/3 6/3/3 5/1/3
f 4/2/4 3/4/4 7/4/4
f 1/1/5 5/1/5 7/4/5
f 4/2/6 8/2/6 6/3/6
f 9/1/1 11/4/1 12/2/1
f 16/2/2 15/4/2 13/1/2
f 10/3/3 14/3/3 13/1/3
f 12/2/4 11/4/4 15/4/4
f 9/1/5 13/1/5 15/4/5
f 12/2/6 16/2/6 14/3/6
f 17/1/1 19/4/1 20/2/1
f 24/2/2 23/4/2 21/1/2
f 18/3/3 22/3/3 21/1/3
f 20/2/4 19/4/4 23/4/4
f 17/1/5 21/1/5 23/4/5
f 20/2/6 24/2/6 22/3/6
f 25/1/1 27/4/1 28/2/1
f 32/2/2 31/4/2 29/1/2
f 26/3/3 30/3/3 29/1/3
f 28/2/4 27/4/4 31/4/4
f 25/1/5 29/1/5 31/4/5
f 28/2/6 32/2/6 30/3/6
f 33/1/1 35/4/1 36/2/1
f 40/2/2 39/4/2 37/1/2
f 34/3/3 38/3/3 37/1/3
f 36/2/4 35/4/4 39/4/4
f 33/1/5 37/1/5 39/4/5
f 36/2/6 40/2/6 38/3/6
f 41/1/1 43/4/1 44/2/1
f 48/2/2 47/4/2 45/1/2
f 42/3/3 46/3/3 45/1/3
f 44/2/4 43/4/4 47/4/4
f 41/1/5 45/1/5 47/4/5
f 44/2/6 48/2/6 46/3/6
f 49/5/7 51/9/7 52/6/7
f 54/8/7 56/8/7 55/8/7
f 60/8/8 59/8/8 57/8/8
f 60/8/3 58/8/3 53/8/3
f 58/8/9 57/8/9 54/8/9
f 57/8/4 59/8/4 56/8/4
f 59/8/10 60/8/10 55/8/10
