# Blender 5.0.1
# www.blender.org
mtllib Door_Handle_1.mtl
o Door_Handle_1
v -0.024069 -0.027229 -0.024554
v -0.024069 -0.027229 0.024834
v -0.011797 0.022230 -0.005942
v -0.011797 0.022230 0.024834
v 0.019541 0.022230 -0.005942
v 0.019541 0.022230 0.024834
v -0.201365 -0.027229 -0.024554
v -0.201365 -0.027229 0.024834
v -0.184200 -0.063655 0.024834
v -0.184200 -0.063655 -0.024554
v 0.019541 0.010977 -0.008901
v -0.052576 -0.069044 -0.024554
v 0.014641 -0.034853 -0.024554
v -0.013768 -0.061341 -0.024554
v -0.052576 -0.069044 0.024834
v 0.019541 0.010977 0.024834
v -0.013768 -0.061341 0.024834
v 0.014641 -0.034853 0.024834
vn -0.9706 0.2408 -0.0000
vn -0.0000 -0.0000 -1.0000
vn 1.0000 -0.0000 -0.0000
vn -0.0000 -0.0000 1.0000
vn -0.9046 -0.4263 -0.0000
vn -0.0000 1.0000 -0.0000
vn 0.0292 0.3294 -0.9437
vn 0.0624 0.3166 -0.9465
vn 0.1947 -0.9809 -0.0000
vn 0.6819 -0.7314 -0.0000
vn 0.9943 -0.1063 -0.0000
vn -0.0409 -0.9992 -0.0000
vt 0.047008 0.848965
vt 0.031880 0.864092
vt 0.031880 0.848965
vt 0.031880 0.894348
vt 0.016753 0.894348
vt 0.016764 0.894348
vt 0.031880 0.879220
vt 0.047008 0.882015
vt 0.031880 0.882015
vt 0.062136 0.879220
vt 0.047008 0.879220
vt 0.047008 0.894348
vt 0.062136 0.894348
vt 0.031880 0.894348
vt 0.047008 0.909476
vt 0.031880 0.909476
vt 0.016753 0.879220
vt 0.031880 0.888066
vt 0.031880 0.892264
vt 0.031880 0.893485
vt 0.062124 0.894348
vt 0.047008 0.888066
vt 0.047008 0.864092
s 0
usemtl Palette
f 2/1/1 3/2/1 1/3/1
f 12/4/2 7/5/2 1/6/2
f 5/7/3 16/8/3 11/9/3
f 4/10/4 16/8/4 6/11/4
f 15/12/4 8/13/4 9/12/4
f 10/14/5 8/15/5 7/16/5
f 1/3/6 8/1/6 2/1/6
f 3/17/7 11/9/7 1/5/7
f 11/9/8 13/18/8 1/6/8
f 13/18/2 14/19/2 1/6/2
f 14/19/2 12/20/2 1/6/2
f 15/12/4 17/12/4 2/21/4
f 17/12/4 18/12/4 2/21/4
f 18/12/4 16/12/4 2/21/4
f 15/12/9 14/14/9 17/12/9
f 14/14/10 18/22/10 17/12/10
f 18/22/11 11/9/11 16/8/11
f 15/12/12 10/14/12 12/4/12
f 2/1/1 4/23/1 3/2/1
f 12/4/2 10/14/2 7/5/2
f 5/7/3 6/11/3 16/8/3
f 4/10/4 2/21/4 16/8/4
f 15/12/4 2/13/4 8/13/4
f 10/14/5 9/12/5 8/15/5
f 1/3/6 7/3/6 8/1/6
f 3/17/7 5/7/7 11/9/7
f 15/12/9 12/4/9 14/14/9
f 14/14/10 13/18/10 18/22/10
f 18/22/11 13/18/11 11/9/11
f 15/12/12 9/12/12 10/14/12
