# Blender 5.0.1
# www.blender.org
mtllib Door_Handle_2.mtl
o Door_Handle_2
v -0.023159 -0.040640 -0.023150
v -0.023159 -0.040640 0.023150
v -0.023159 -0.031935 -0.023150
v -0.023159 -0.031935 0.023150
v 0.023140 -0.085194 -0.023150
v 0.023140 -0.085194 0.023150
v 0.023140 -0.031935 -0.023150
v 0.023140 -0.031935 0.023150
v -0.161602 -0.040640 -0.023150
v -0.161602 -0.040640 0.023150
v -0.190315 -0.085194 0.023150
v -0.190315 -0.085194 -0.023150
v -0.014218 -0.043168 -0.014209
v -0.014218 -0.043168 0.014208
v 0.014199 -0.043168 -0.014209
v 0.014199 -0.043168 0.014208
v -0.014218 0.023107 0.014208
v -0.014218 0.023107 -0.014209
v 0.014199 0.023107 -0.014209
v 0.014199 0.023107 0.014208
vn -1.0000 -0.0000 -0.0000
vn 1.0000 -0.0000 -0.0000
vn -0.0000 -1.0000 -0.0000
vn -0.0000 -0.0000 -1.0000
vn -0.0000 -0.0000 1.0000
vn -0.8406 0.5417 -0.0000
vn -0.0000 1.0000 -0.0000
vt 0.884104 0.940341
vt 0.873615 0.950830
vt 0.873615 0.940341
vt 0.884104 0.961319
vt 0.873615 0.971808
vt 0.873615 0.961319
vt 0.884104 0.971808
vt 0.863126 0.971808
vt 0.863126 0.961319
vt 0.894593 0.971808
vt 0.884104 0.982297
vt 0.873615 0.982297
vt 0.894593 0.961319
vt 0.093524 0.879220
vt 0.108651 0.879220
vt 0.138907 0.879220
vt 0.123779 0.879220
vt 0.884104 0.950830
s 0
usemtl Palette
f 2/1/1 3/2/1 1/3/1
f 8/4/2 5/5/2 7/6/2
f 6/7/3 12/5/3 5/5/3
f 7/6/4 1/8/4 3/9/4
f 8/4/5 2/10/5 6/7/5
f 12/5/6 10/11/6 9/12/6
f 1/3/7 10/1/7 2/1/7
f 1/8/4 12/5/4 9/8/4
f 2/10/5 11/7/5 6/7/5
f 8/4/7 3/9/7 4/13/7
f 13/14/4 19/15/4 15/15/4
f 13/14/1 17/16/1 18/14/1
f 16/17/5 17/16/5 14/16/5
f 15/15/2 20/17/2 16/17/2
f 2/1/1 4/18/1 3/2/1
f 8/4/2 6/7/2 5/5/2
f 6/7/3 11/7/3 12/5/3
f 7/6/4 5/5/4 1/8/4
f 8/4/5 4/13/5 2/10/5
f 12/5/6 11/7/6 10/11/6
f 1/3/7 9/3/7 10/1/7
f 1/8/4 5/5/4 12/5/4
f 2/10/5 10/10/5 11/7/5
f 8/4/7 7/6/7 3/9/7
f 13/14/4 18/14/4 19/15/4
f 13/14/1 14/16/1 17/16/1
f 16/17/5 20/17/5 17/16/5
f 15/15/2 19/15/2 20/17/2
