# Blender 5.0.1
# www.blender.org
mtllib Door_Ac_A.mtl
o Door_Ac_A
v -0.334434 -0.022584 -0.013689
v -0.334434 0.003209 0.023091
v 0.342848 -0.022584 -0.013689
v 0.342848 0.003209 0.023091
v -0.334434 -0.015565 -0.018611
v -0.334434 0.010228 0.018170
v 0.342848 -0.015565 -0.018611
v 0.342848 0.010228 0.018170
v -0.334434 -0.022584 -0.055391
v -0.334434 0.003209 -0.018611
v 0.342848 -0.022584 -0.055391
v 0.342848 0.003209 -0.018611
v -0.334434 -0.015565 -0.060313
v -0.334434 0.010228 -0.023532
v 0.342848 -0.015565 -0.060313
v 0.342848 0.010228 -0.023532
v -0.334434 -0.022584 -0.097093
v -0.334434 0.003209 -0.060313
v 0.342848 -0.022584 -0.097093
v 0.342848 0.003209 -0.060313
v -0.334434 -0.015565 -0.102014
v -0.334434 0.010228 -0.065234
v 0.342848 -0.015565 -0.102014
v 0.342848 0.010228 -0.065234
v -0.334434 -0.022584 -0.138795
v -0.334434 0.003209 -0.102014
v 0.342848 -0.022584 -0.138795
v 0.342848 0.003209 -0.102014
v -0.334434 -0.015565 -0.143716
v -0.334434 0.010228 -0.106936
v 0.342848 -0.015565 -0.143716
v 0.342848 0.010228 -0.106936
v -0.334434 -0.022584 -0.180496
v -0.334434 0.003209 -0.143716
v 0.342848 -0.022584 -0.180496
v 0.342848 0.003209 -0.143716
v -0.334434 -0.015565 -0.185418
v -0.334434 0.010228 -0.148638
v 0.342848 -0.015565 -0.185418
v 0.342848 0.010228 -0.148638
v -0.334434 -0.022584 -0.222198
v -0.334434 0.003209 -0.185418
v 0.342848 -0.022584 -0.222198
v 0.342848 0.003209 -0.185418
v -0.334434 -0.015565 -0.227120
v -0.334434 0.010228 -0.190340
v 0.342848 -0.015565 -0.227120
v 0.342848 0.010228 -0.190340
v -0.334434 -0.022584 -0.263900
v -0.334434 0.003209 -0.227120
v 0.342848 -0.022584 -0.263900
v 0.342848 0.003209 -0.227120
v -0.334434 -0.015565 -0.268822
v -0.334434 0.010228 -0.232042
v 0.342848 -0.015565 -0.268822
v 0.342848 0.010228 -0.232042
v -0.334434 -0.022584 -0.305602
v -0.334434 0.003209 -0.268822
v 0.342848 -0.022584 -0.305602
v 0.342848 0.003209 -0.268822
v -0.334434 -0.015565 -0.310524
v -0.334434 0.010228 -0.273744
v 0.342848 -0.015565 -0.310524
v 0.342848 0.010228 -0.273744
v -0.334434 -0.022584 -0.347304
v -0.334434 0.003209 -0.310524
v 0.342848 -0.022584 -0.347304
v 0.342848 0.003209 -0.310524
v -0.334434 -0.015565 -0.352226
v -0.334434 0.010228 -0.315446
v 0.342848 -0.015565 -0.352226
v 0.342848 0.010228 -0.315446
v -0.334434 -0.022584 -0.389006
v -0.334434 0.003209 -0.352226
v 0.342848 -0.022584 -0.389006
v 0.342848 0.003209 -0.352226
v -0.334434 -0.015565 -0.393928
v -0.334434 0.010228 -0.357148
v 0.342848 -0.015565 -0.393928
v 0.342848 0.010228 -0.357148
v -0.334434 -0.022584 -0.430708
v -0.334434 0.003209 -0.393928
v 0.342848 -0.022584 -0.430708
v 0.342848 0.003209 -0.393928
v -0.334434 -0.015565 -0.435630
v -0.334434 0.010228 -0.398849
v 0.342848 -0.015565 -0.435630
v 0.342848 0.010228 -0.398849
v -0.334434 -0.022584 -0.472410
v -0.334434 0.003209 -0.435630
v 0.342848 -0.022584 -0.472410
v 0.342848 0.003209 -0.435630
v -0.334434 -0.015565 -0.477332
v -0.334434 0.010228 -0.440551
v 0.342848 -0.015565 -0.477332
v 0.342848 0.010228 -0.440551
v -0.334434 -0.022584 -0.514112
v -0.334434 0.003209 -0.477332
v 0.342848 -0.022584 -0.514112
v 0.342848 0.003209 -0.477332
v -0.334434 -0.015565 -0.519033
v -0.334434 0.010228 -0.482253
v 0.342848 -0.015565 -0.519033
v 0.342848 0.010228 -0.482253
v -0.334434 -0.022584 -0.555814
v -0.334434 0.003209 -0.519033
v 0.342848 -0.022584 -0.555814
v 0.342848 0.003209 -0.519033
v -0.334434 -0.015565 -0.560735
v -0.334434 0.010228 -0.523955
v 0.342848 -0.015565 -0.560735
v 0.342848 0.010228 -0.523955
v -0.334434 -0.022584 -0.597516
v -0.334434 0.003209 -0.560735
v 0.342848 -0.022584 -0.597516
v 0.342848 0.003209 -0.560735
v -0.334434 -0.015565 -0.602437
v -0.334434 0.010228 -0.565657
v 0.342848 -0.015565 -0.602437
v 0.342848 0.010228 -0.565657
v -0.334434 -0.022584 -0.639217
v -0.334434 0.003209 -0.602437
v 0.342848 -0.022584 -0.639217
v 0.342848 0.003209 -0.602437
v -0.334434 -0.015565 -0.644139
v -0.334434 0.010228 -0.607359
v 0.342848 -0.015565 -0.644139
v 0.342848 0.010228 -0.607359
v -0.334434 -0.022584 -0.680919
v -0.334434 0.003209 -0.644139
v 0.342848 -0.022584 -0.680919
v 0.342848 0.003209 -0.644139
v -0.334434 -0.015565 -0.685841
v -0.334434 0.010228 -0.649061
v 0.342848 -0.015565 -0.685841
v 0.342848 0.010228 -0.649061
v -0.334434 -0.022584 -0.722621
v -0.334434 0.003209 -0.685841
v 0.342848 -0.022584 -0.722621
v 0.342848 0.003209 -0.685841
v -0.334434 -0.015565 -0.727543
v -0.334434 0.010228 -0.690763
v 0.342848 -0.015565 -0.727543
v 0.342848 0.010228 -0.690763
v -0.316587 -0.016302 -0.716797
v -0.316587 -0.003072 -0.008488
v -0.306564 -0.016302 -0.716797
v -0.306564 -0.003072 -0.008488
v 0.317324 -0.016302 -0.716797
v 0.317324 -0.003072 -0.008488
v 0.327347 -0.016302 -0.716797
v 0.327347 -0.003072 -0.008488
vn -0.0000 -0.8187 0.5742
vn -0.0000 0.8187 -0.5742
vn -1.0000 -0.0000 -0.0000
vn 1.0000 -0.0000 -0.0000
vn -0.0000 -0.5742 -0.8187
vn -0.0000 0.5742 0.8187
vn -0.0000 -0.9998 0.0187
vt 0.375390 0.979097
vt 0.387890 0.966597
vt 0.375390 0.966597
vt 0.387890 0.979097
vt 0.019357 0.887972
vt 0.031857 0.875472
vt 0.019357 0.875472
vt 0.031857 0.887972
s 0
usemtl Palette
f 1/1/1 4/2/1 2/3/1
f 8/2/2 5/1/2 6/3/2
f 2/3/3 5/1/3 1/1/3
f 4/2/4 7/4/4 8/2/4
f 1/1/5 7/4/5 3/4/5
f 4/2/6 6/3/6 2/3/6
f 9/1/1 12/2/1 10/3/1
f 16/2/2 13/1/2 14/3/2
f 10/3/3 13/1/3 9/1/3
f 12/2/4 15/4/4 16/2/4
f 9/1/5 15/4/5 11/4/5
f 12/2/6 14/3/6 10/3/6
f 17/1/1 20/2/1 18/3/1
f 24/2/2 21/1/2 22/3/2
f 18/3/3 21/1/3 17/1/3
f 20/2/4 23/4/4 24/2/4
f 17/1/5 23/4/5 19/4/5
f 20/2/6 22/3/6 18/3/6
f 25/1/1 28/2/1 26/3/1
f 32/2/2 29/1/2 30/3/2
f 26/3/3 29/1/3 25/1/3
f 27/4/4 32/2/4 28/2/4
f 25/1/5 31/4/5 27/4/5
f 28/2/6 30/3/6 26/3/6
f 33/1/1 36/2/1 34/3/1
f 40/2/2 37/1/2 38/3/2
f 34/3/3 37/1/3 33/1/3
f 36/2/4 39/4/4 40/2/4
f 33/1/5 39/4/5 35/4/5
f 36/2/6 38/3/6 34/3/6
f 41/1/1 44/2/1 42/3/1
f 48/2/2 45/1/2 46/3/2
f 42/3/3 45/1/3 41/1/3
f 43/4/4 48/2/4 44/2/4
f 41/1/5 47/4/5 43/4/5
f 44/2/6 46/3/6 42/3/6
f 49/1/1 52/2/1 50/3/1
f 56/2/2 53/1/2 54/3/2
f 50/3/3 53/1/3 49/1/3
f 52/2/4 55/4/4 56/2/4
f 49/1/5 55/4/5 51/4/5
f 52/2/6 54/3/6 50/3/6
f 57/1/1 60/2/1 58/3/1
f 64/2/2 61/1/2 62/3/2
f 58/3/3 61/1/3 57/1/3
f 60/2/4 63/4/4 64/2/4
f 57/1/5 63/4/5 59/4/5
f 60/2/6 62/3/6 58/3/6
f 65/1/1 68/2/1 66/3/1
f 72/2/2 69/1/2 70/3/2
f 66/3/3 69/1/3 65/1/3
f 68/2/4 71/4/4 72/2/4
f 65/1/5 71/4/5 67/4/5
f 68/2/6 70/3/6 66/3/6
f 73/1/1 76/2/1 74/3/1
f 80/2/2 77/1/2 78/3/2
f 74/3/3 77/1/3 73/1/3
f 76/2/4 79/4/4 80/2/4
f 73/1/5 79/4/5 75/4/5
f 76/2/6 78/3/6 74/3/6
f 81/1/1 84/2/1 82/3/1
f 88/2/2 85/1/2 86/3/2
f 82/3/3 85/1/3 81/1/3
f 84/2/4 87/4/4 88/2/4
f 81/1/5 87/4/5 83/4/5
f 84/2/6 86/3/6 82/3/6
f 89/1/1 92/2/1 90/3/1
f 96/2/2 93/1/2 94/3/2
f 90/3/3 93/1/3 89/1/3
f 92/2/4 95/4/4 96/2/4
f 89/1/5 95/4/5 91/4/5
f 92/2/6 94/3/6 90/3/6
f 97/1/1 100/2/1 98/3/1
f 104/2/2 101/1/2 102/3/2
f 98/3/3 101/1/3 97/1/3
f 100/2/4 103/4/4 104/2/4
f 97/1/5 103/4/5 99/4/5
f 100/2/6 102/3/6 98/3/6
f 105/1/1 108/2/1 106/3/1
f 112/2/2 109/1/2 110/3/2
f 105/1/3 110/3/3 109/1/3
f 107/4/4 112/2/4 108/2/4
f 105/1/5 111/4/5 107/4/5
f 108/2/6 110/3/6 106/3/6
f 113/1/1 116/2/1 114/3/1
f 120/2/2 117/1/2 118/3/2
f 113/1/3 118/3/3 117/1/3
f 115/4/4 120/2/4 116/2/4
f 113/1/5 119/4/5 115/4/5
f 116/2/6 118/3/6 114/3/6
f 121/1/1 124/2/1 122/3/1
f 128/2/2 125/1/2 126/3/2
f 121/1/3 126/3/3 125/1/3
f 123/4/4 128/2/4 124/2/4
f 121/1/5 127/4/5 123/4/5
f 124/2/6 126/3/6 122/3/6
f 129/1/1 132/2/1 130/3/1
f 136/2/2 133/1/2 134/3/2
f 129/1/3 134/3/3 133/1/3
f 131/4/4 136/2/4 132/2/4
f 129/1/5 135/4/5 131/4/5
f 132/2/6 134/3/6 130/3/6
f 137/1/1 140/2/1 138/3/1
f 144/2/2 141/1/2 142/3/2
f 137/1/3 142/3/3 141/1/3
f 139/4/4 144/2/4 140/2/4
f 137/1/5 143/4/5 139/4/5
f 140/2/6 142/3/6 138/3/6
f 145/5/7 148/6/7 146/7/7
f 149/5/7 152/6/7 150/7/7
f 1/1/1 3/4/1 4/2/1
f 8/2/2 7/4/2 5/1/2
f 2/3/3 6/3/3 5/1/3
f 4/2/4 3/4/4 7/4/4
f 1/1/5 5/1/5 7/4/5
f 4/2/6 8/2/6 6/3/6
f 9/1/1 11/4/1 12/2/1
f 16/2/2 15/4/2 13/1/2
f 10/3/3 14/3/3 13/1/3
f 12/2/4 11/4/4 15/4/4
f 9/1/5 13/1/5 15/4/5
f 12/2/6 16/2/6 14/3/6
f 17/1/1 19/4/1 20/2/1
f 24/2/2 23/4/2 21/1/2
f 18/3/3 22/3/3 21/1/3
f 20/2/4 19/4/4 23/4/4
f 17/1/5 21/1/5 23/4/5
f 20/2/6 24/2/6 22/3/6
f 25/1/1 27/4/1 28/2/1
f 32/2/2 31/4/2 29/1/2
f 26/3/3 30/3/3 29/1/3
f 27/4/4 31/4/4 32/2/4
f 25/1/5 29/1/5 31/4/5
f 28/2/6 32/2/6 30/3/6
f 33/1/1 35/4/1 36/2/1
f 40/2/2 39/4/2 37/1/2
f 34/3/3 38/3/3 37/1/3
f 36/2/4 35/4/4 39/4/4
f 33/1/5 37/1/5 39/4/5
f 36/2/6 40/2/6 38/3/6
f 41/1/1 43/4/1 44/2/1
f 48/2/2 47/4/2 45/1/2
f 42/3/3 46/3/3 45/1/3
f 43/4/4 47/4/4 48/2/4
f 41/1/5 45/1/5 47/4/5
f 44/2/6 48/2/6 46/3/6
f 49/1/1 51/4/1 52/2/1
f 56/2/2 55/4/2 53/1/2
f 50/3/3 54/3/3 53/1/3
f 52/2/4 51/4/4 55/4/4
f 49/1/5 53/1/5 55/4/5
f 52/2/6 56/2/6 54/3/6
f 57/1/1 59/4/1 60/2/1
f 64/2/2 63/4/2 61/1/2
f 58/3/3 62/3/3 61/1/3
f 60/2/4 59/4/4 63/4/4
f 57/1/5 61/1/5 63/4/5
f 60/2/6 64/2/6 62/3/6
f 65/1/1 67/4/1 68/2/1
f 72/2/2 71/4/2 69/1/2
f 66/3/3 70/3/3 69/1/3
f 68/2/4 67/4/4 71/4/4
f 65/1/5 69/1/5 71/4/5
f 68/2/6 72/2/6 70/3/6
f 73/1/1 75/4/1 76/2/1
f 80/2/2 79/4/2 77/1/2
f 74/3/3 78/3/3 77/1/3
f 76/2/4 75/4/4 79/4/4
f 73/1/5 77/1/5 79/4/5
f 76/2/6 80/2/6 78/3/6
f 81/1/1 83/4/1 84/2/1
f 88/2/2 87/4/2 85/1/2
f 82/3/3 86/3/3 85/1/3
f 84/2/4 83/4/4 87/4/4
f 81/1/5 85/1/5 87/4/5
f 84/2/6 88/2/6 86/3/6
f 89/1/1 91/4/1 92/2/1
f 96/2/2 95/4/2 93/1/2
f 90/3/3 94/3/3 93/1/3
f 92/2/4 91/4/4 95/4/4
f 89/1/5 93/1/5 95/4/5
f 92/2/6 96/2/6 94/3/6
f 97/1/1 99/4/1 100/2/1
f 104/2/2 103/4/2 101/1/2
f 98/3/3 102/3/3 101/1/3
f 100/2/4 99/4/4 103/4/4
f 97/1/5 101/1/5 103/4/5
f 100/2/6 104/2/6 102/3/6
f 105/1/1 107/4/1 108/2/1
f 112/2/2 111/4/2 109/1/2
f 105/1/3 106/3/3 110/3/3
f 107/4/4 111/4/4 112/2/4
f 105/1/5 109/1/5 111/4/5
f 108/2/6 112/2/6 110/3/6
f 113/1/1 115/4/1 116/2/1
f 120/2/2 119/4/2 117/1/2
f 113/1/3 114/3/3 118/3/3
f 115/4/4 119/4/4 120/2/4
f 113/1/5 117/1/5 119/4/5
f 116/2/6 120/2/6 118/3/6
f 121/1/1 123/4/1 124/2/1
f 128/2/2 127/4/2 125/1/2
f 121/1/3 122/3/3 126/3/3
f 123/4/4 127/4/4 128/2/4
f 121/1/5 125/1/5 127/4/5
f 124/2/6 128/2/6 126/3/6
f 129/1/1 131/4/1 132/2/1
f 136/2/2 135/4/2 133/1/2
f 129/1/3 130/3/3 134/3/3
f 131/4/4 135/4/4 136/2/4
f 129/1/5 133/1/5 135/4/5
f 132/2/6 136/2/6 134/3/6
f 137/1/1 139/4/1 140/2/1
f 144/2/2 143/4/2 141/1/2
f 137/1/3 138/3/3 142/3/3
f 139/4/4 143/4/4 144/2/4
f 137/1/5 141/1/5 143/4/5
f 140/2/6 144/2/6 142/3/6
f 145/5/7 147/8/7 148/6/7
f 149/5/7 151/8/7 152/6/7
