# Blender 5.0.1
# www.blender.org
mtllib Door_1.mtl
o Door_1
v 0.308811 0.054536 1.717488
v 0.683922 0.054536 1.717488
v 0.308811 0.054536 1.850981
v 0.683922 0.054536 1.850981
v 0.683922 -0.054536 1.717484
v 0.683922 -0.054536 1.850976
v 0.308811 -0.054536 1.850976
v 0.308811 -0.054536 1.717484
v 0.000000 -0.043540 -0.004540
v 0.000000 -0.043541 2.020341
v 0.000000 0.043537 2.020341
v 0.000000 0.043537 -0.004540
v 1.013806 0.043537 2.020341
v 1.013806 0.043537 -0.004540
v 1.013806 -0.043541 2.020341
v 1.013806 -0.043540 -0.004540
vn -1.0000 -0.0000 -0.0000
vn 1.0000 -0.0000 -0.0000
vn -0.0000 -0.0000 -1.0000
vn -0.0000 -0.0000 1.0000
vn -0.0000 -1.0000 -0.0000
vn -0.0000 1.0000 -0.0000
vt 0.174029 0.852748
vt 0.158902 0.867876
vt 0.158902 0.852748
vt 0.174029 0.883003
vt 0.158902 0.898131
vt 0.158902 0.883003
vt 0.148780 0.889986
vt 0.133652 0.905113
vt 0.133652 0.889986
vt 0.189699 0.889986
vt 0.174571 0.905113
vt 0.174571 0.889986
vt 0.046384 0.966957
vt 0.061512 0.966957
vt 0.016129 0.966957
vt 0.189157 0.898131
vt 0.143774 0.898131
vt 0.999938 0.000062
vt 0.000062 0.383515
vt 0.000062 0.000062
vt 0.189157 0.883003
vt 0.143774 0.883003
vt 0.031257 0.966957
vt 0.999938 0.383515
vt 0.000062 0.000062
vt 0.999938 0.000062
vt 0.174029 0.867876
vt 0.174029 0.898131
vt 0.148780 0.905113
vt 0.189699 0.905113
vt 0.999938 0.383515
vt 0.000062 0.383515
s 0
usemtl Palette
f 10/1/1 12/2/1 9/3/1
f 13/4/2 16/5/2 14/6/2
f 14/7/3 9/8/3 12/9/3
f 11/10/4 15/11/4 13/12/4
f 4/13/4 7/14/4 6/13/4
f 7/14/1 1/15/1 8/15/1
f 16/5/5 10/16/5 9/17/5
f 11/21/6 14/6/6 12/22/6
f 1/15/3 5/23/3 8/15/3
f 2/23/2 6/13/2 5/23/2
f 10/1/1 11/27/1 12/2/1
f 13/4/2 15/28/2 16/5/2
f 14/7/3 16/29/3 9/8/3
f 11/10/4 10/30/4 15/11/4
f 4/13/4 3/14/4 7/14/4
f 7/14/1 3/14/1 1/15/1
f 16/5/5 15/28/5 10/16/5
f 11/21/6 13/4/6 14/6/6
f 1/15/3 2/23/3 5/23/3
f 2/23/2 4/13/2 6/13/2
usemtl Door
f 5/18/5 7/19/5 8/20/5
f 3/24/6 2/25/6 1/26/6
f 5/18/5 6/31/5 7/19/5
f 3/24/6 4/32/6 2/25/6
