# Blender 5.0.1
# www.blender.org
mtllib Door_Frame.mtl
o Door_Frame
v -0.068261 -0.112322 0.000000
v -0.068261 -0.112322 2.100655
v -0.068261 0.112322 0.000000
v -0.068261 0.112322 2.100655
v 1.067677 -0.112322 0.000000
v 1.067677 -0.112322 2.100655
v 1.067677 0.112322 0.000000
v 1.067677 0.112322 2.100655
v 0.026820 0.112322 0.000000
v 0.026820 -0.112322 0.000000
v 0.026820 -0.112322 2.020291
v 0.026820 0.112322 2.020291
v 0.972596 0.112322 2.020291
v 0.972596 0.112322 0.000000
v 0.972596 -0.112322 0.000000
v 0.972596 -0.112322 2.020291
vn -1.0000 -0.0000 -0.0000
vn 1.0000 -0.0000 -0.0000
vn -0.0000 -0.0000 1.0000
vn -0.0000 -0.0000 -1.0000
vn -0.0000 1.0000 -0.0000
vn -0.0000 -1.0000 -0.0000
vt 0.103444 0.935220
vt 0.118572 0.950347
vt 0.103444 0.950347
vt 0.118572 0.965475
vt 0.103444 0.980603
vt 0.103444 0.965475
vt 0.133700 0.965475
vt 0.118572 0.980603
vt 0.118572 0.935220
vt 0.133700 0.980603
s 0
usemtl Palette
f 1/1/1 4/2/1 3/3/1
f 8/4/2 5/5/2 7/6/2
f 4/7/3 6/8/3 8/4/3
f 9/3/2 11/9/2 10/1/2
f 15/5/1 13/4/1 14/6/1
f 16/8/4 12/7/4 13/4/4
f 7/6/5 13/4/5 8/4/5
f 12/2/5 3/3/5 4/2/5
f 1/1/6 11/9/6 2/9/6
f 16/8/6 5/5/6 6/8/6
f 13/4/5 4/7/5 8/4/5
f 2/10/6 16/8/6 6/8/6
f 1/1/1 2/9/1 4/2/1
f 8/4/2 6/8/2 5/5/2
f 4/7/3 2/10/3 6/8/3
f 9/3/2 12/2/2 11/9/2
f 15/5/1 16/8/1 13/4/1
f 16/8/4 11/10/4 12/7/4
f 7/6/5 14/6/5 13/4/5
f 12/2/5 9/3/5 3/3/5
f 1/1/6 10/1/6 11/9/6
f 16/8/6 15/5/6 5/5/6
f 13/4/5 12/7/5 4/7/5
f 2/10/6 11/10/6 16/8/6
