# Blender 5.0.1
# www.blender.org
mtllib Door_2.mtl
o Door_2
v 0.000000 -0.043540 -0.004540
v 0.000000 -0.043541 2.020341
v 0.000000 0.043537 -0.004540
v 0.000000 0.043537 2.020341
v 1.013806 -0.043540 -0.004540
v 1.013806 -0.043541 2.020341
v 1.013806 0.043537 -0.004540
v 1.013806 0.043537 2.020341
v 0.825242 0.043537 1.856118
v 0.188562 0.043537 1.856118
v 0.188562 0.043537 1.168048
v 0.825242 0.043537 1.168048
v 0.188562 -0.043541 1.856118
v 0.825242 -0.043541 1.856118
v 0.188562 -0.043540 1.168048
v 0.825242 -0.043540 1.168048
v 0.884087 0.063697 1.125022
v 0.201381 0.063697 1.839757
v 0.201381 0.063697 1.208256
v 0.129718 0.063697 1.125022
v 0.201381 -0.063696 1.839757
v 0.812423 -0.063696 1.839757
v 0.201381 -0.063696 1.208256
v 0.812423 -0.063696 1.208256
v 0.129718 -0.063696 1.925819
v 0.884087 -0.063696 1.125022
v 0.129718 -0.063696 1.125022
v 0.884088 -0.063696 1.925820
v 0.812423 0.063697 1.208256
v 0.812423 0.063697 1.839757
v 0.884088 0.063697 1.925820
v 0.129718 0.063697 1.925819
vn -1.0000 -0.0000 -0.0000
vn -0.0000 1.0000 -0.0000
vn 1.0000 -0.0000 -0.0000
vn -0.0000 -1.0000 -0.0000
vn -0.0000 -0.0000 -1.0000
vn -0.0000 -0.0000 1.0000
vt 0.797848 0.946764
vt 0.789094 0.955518
vt 0.789094 0.946764
vt 0.797848 0.955518
vt 0.796554 0.962562
vt 0.796554 0.957227
vt 0.790388 0.957227
vt 0.797848 0.964272
vt 0.789094 0.973025
vt 0.789094 0.964272
vt 0.789094 0.981779
vt 0.790388 0.974734
vt 0.790388 0.980070
vt 0.797848 0.973025
vt 0.780341 0.973025
vt 0.780341 0.964272
vt 0.806601 0.964272
vt 0.789094 0.949604
vt 0.797848 0.952679
vt 0.797848 0.949604
vt 0.789094 0.970186
vt 0.797848 0.967111
vt 0.789094 0.967111
vt 0.780341 0.970186
vt 0.806601 0.970186
vt 0.806601 0.967111
vt 0.797848 0.981779
vt 0.796554 0.974734
vt 0.876685 0.969332
vt 0.875987 0.979474
vt 0.876685 0.978552
vt 0.790388 0.962562
vt 0.887340 0.978552
vt 0.887340 0.969332
vt 0.888038 0.979474
vt 0.888038 0.968411
vt 0.875987 0.968411
vt 0.806601 0.973025
vt 0.789094 0.952679
vt 0.797848 0.970186
vt 0.780341 0.967111
vt 0.796554 0.980070
s 0
usemtl Palette
f 2/1/1 3/2/1 1/3/1
f 4/4/2 9/5/2 10/6/2
f 4/4/2 11/7/2 3/2/2
f 8/8/3 5/9/3 7/10/3
f 1/11/4 16/12/4 15/13/4
f 6/14/4 16/12/4 5/9/4
f 7/10/5 1/15/5 3/16/5
f 4/17/6 6/14/6 8/8/6
f 15/18/3 10/19/3 13/20/3
f 16/21/1 9/22/1 12/23/1
f 12/23/6 15/24/6 16/21/6
f 9/22/5 13/25/5 10/26/5
f 2/27/4 14/28/4 6/14/4
f 29/29/2 20/30/2 19/31/2
f 8/8/2 12/32/2 9/5/2
f 12/32/2 3/2/2 11/7/2
f 27/30/4 24/29/4 23/31/4
f 18/33/5 22/34/5 21/33/5
f 18/33/2 20/30/2 32/35/2
f 30/34/2 32/35/2 31/36/2
f 30/34/2 17/37/2 29/29/2
f 26/37/4 22/34/4 24/29/4
f 22/34/4 25/35/4 21/33/4
f 27/30/4 21/33/4 25/35/4
f 15/13/4 2/27/4 1/11/4
f 29/29/6 23/31/6 24/29/6
f 23/31/3 18/33/3 21/33/3
f 17/37/3 28/36/3 26/37/3
f 32/35/1 27/30/1 25/35/1
f 30/34/1 24/29/1 22/34/1
f 31/36/6 25/35/6 28/36/6
f 20/30/5 26/37/5 27/30/5
f 2/1/1 4/4/1 3/2/1
f 4/4/2 8/8/2 9/5/2
f 4/4/2 10/6/2 11/7/2
f 8/8/3 6/14/3 5/9/3
f 1/11/4 5/9/4 16/12/4
f 6/14/4 14/28/4 16/12/4
f 7/10/5 5/9/5 1/15/5
f 4/17/6 2/38/6 6/14/6
f 15/18/3 11/39/3 10/19/3
f 16/21/1 14/40/1 9/22/1
f 12/23/6 11/41/6 15/24/6
f 9/22/5 14/40/5 13/25/5
f 2/27/4 13/42/4 14/28/4
f 29/29/2 17/37/2 20/30/2
f 8/8/2 7/10/2 12/32/2
f 12/32/2 7/10/2 3/2/2
f 27/30/4 26/37/4 24/29/4
f 18/33/5 30/34/5 22/34/5
f 18/33/2 19/31/2 20/30/2
f 30/34/2 18/33/2 32/35/2
f 30/34/2 31/36/2 17/37/2
f 26/37/4 28/36/4 22/34/4
f 22/34/4 28/36/4 25/35/4
f 27/30/4 23/31/4 21/33/4
f 15/13/4 13/42/4 2/27/4
f 29/29/6 19/31/6 23/31/6
f 23/31/3 19/31/3 18/33/3
f 17/37/3 31/36/3 28/36/3
f 32/35/1 20/30/1 27/30/1
f 30/34/1 29/29/1 24/29/1
f 31/36/6 32/35/6 25/35/6
f 20/30/5 17/37/5 26/37/5
