# Blender 5.0.1
# www.blender.org
mtllib Drawer_Door.mtl
o Drawer_Door
v -0.487836 -0.020890 0.691835
v -0.487836 -0.020890 0.110478
v -0.016475 -0.020890 0.110478
v -0.016475 -0.020890 0.691835
v -0.016475 0.020890 0.691835
v -0.487836 0.020890 0.691835
v -0.016475 0.020890 0.110478
v -0.487836 0.020890 0.110478
vn -0.0000 -1.0000 -0.0000
vn -0.0000 1.0000 -0.0000
vn -1.0000 -0.0000 -0.0000
vn -0.0000 -0.0000 1.0000
vn 1.0000 -0.0000 -0.0000
vn -0.0000 -0.0000 -1.0000
vt 0.297296 0.868333
vt 0.302704 0.878333
vt 0.297296 0.878333
vt 0.302704 0.868333
s 0
usemtl Palette
f 2/1/1 4/2/1 1/3/1
f 5/2/2 8/1/2 6/3/2
f 1/3/3 8/1/3 2/1/3
f 4/2/4 6/3/4 1/3/4
f 3/4/5 5/2/5 4/2/5
f 2/1/6 7/4/6 3/4/6
f 2/1/1 3/4/1 4/2/1
f 5/2/2 7/4/2 8/1/2
f 1/3/3 6/3/3 8/1/3
f 4/2/4 5/2/4 6/3/4
f 3/4/5 7/4/5 5/2/5
f 2/1/6 8/1/6 7/4/6
