# Blender 5.0.1
# www.blender.org
mtllib Drawer_Acc.mtl
o Drawer_Acc
v -0.235681 -0.020890 0.085483
v -0.235681 -0.020890 -0.085483
v 0.235681 -0.020890 -0.085483
v 0.235681 -0.020890 0.085483
v 0.235681 -0.002414 0.085483
v -0.235681 -0.002414 0.085483
v 0.235681 -0.002414 -0.085483
v -0.235681 -0.002414 -0.085483
v -0.235681 -0.002414 -0.085483
v 0.235681 -0.002414 -0.085483
v -0.223055 -0.002414 0.061042
v -0.223055 0.434072 0.061042
v 0.235681 0.446698 -0.085483
v -0.235681 0.446698 -0.085483
v 0.223055 -0.002414 0.061042
v 0.223055 0.434072 0.061042
v 0.235681 -0.002414 0.061042
v -0.235681 -0.002414 0.061042
v 0.235681 0.446698 0.061042
v -0.235681 0.446698 0.061042
v 0.223055 -0.002414 -0.069877
v -0.223055 -0.002414 -0.069877
v 0.223055 0.434072 -0.069877
v -0.223055 0.434072 -0.069877
vn -0.0000 -1.0000 -0.0000
vn -1.0000 -0.0000 -0.0000
vn -0.0000 -0.0000 1.0000
vn 1.0000 -0.0000 -0.0000
vn -0.0000 -0.0000 -1.0000
vn -0.0000 1.0000 -0.0000
vt 0.297296 0.868333
vt 0.302704 0.878333
vt 0.297296 0.878333
vt 0.302704 0.868333
vt 0.120036 0.873625
vt 0.125444 0.873625
vt 0.122827 0.873625
vt 0.122827 0.873625
vt 0.128090 0.875688
vt 0.122682 0.865688
vt 0.122682 0.875688
vt 0.120181 0.873625
vt 0.125299 0.873625
vt 0.125299 0.873625
vt 0.120181 0.873625
vt 0.212606 0.873625
vt 0.207488 0.873625
vt 0.212606 0.873625
vt 0.127945 0.873625
vt 0.127945 0.873625
vt 0.128090 0.865688
vt 0.207488 0.873625
s 0
usemtl Palette
f 2/1/1 4/2/1 1/3/1
f 1/3/2 8/1/2 2/1/2
f 4/2/3 6/3/3 1/3/3
f 3/4/4 5/2/4 4/2/4
f 2/1/5 7/4/5 3/4/5
f 9/5/5 13/6/5 10/6/5
f 22/7/4 12/8/4 11/7/4
f 5/9/6 8/10/6 6/11/6
f 20/5/6 13/6/6 14/5/6
f 19/6/4 10/6/4 13/6/4
f 18/5/2 14/5/2 9/5/2
f 19/6/3 12/12/3 16/13/3
f 17/6/3 16/13/3 15/14/3
f 12/12/3 18/5/3 11/15/3
f 23/16/3 22/17/3 21/18/3
f 24/8/1 16/19/1 12/8/1
f 23/19/2 15/20/2 16/19/2
f 2/1/1 3/4/1 4/2/1
f 1/3/2 6/3/2 8/1/2
f 4/2/3 5/2/3 6/3/3
f 3/4/4 7/4/4 5/2/4
f 2/1/5 8/1/5 7/4/5
f 9/5/5 14/5/5 13/6/5
f 22/7/4 24/8/4 12/8/4
f 5/9/6 7/21/6 8/10/6
f 20/5/6 19/6/6 13/6/6
f 19/6/4 17/6/4 10/6/4
f 18/5/2 20/5/2 14/5/2
f 19/6/3 20/5/3 12/12/3
f 17/6/3 19/6/3 16/13/3
f 12/12/3 20/5/3 18/5/3
f 23/16/3 24/22/3 22/17/3
f 24/8/1 23/19/1 16/19/1
f 23/19/2 21/20/2 15/20/2
