# Blender 5.0.1
# www.blender.org
mtllib Drawer_1.mtl
o Drawer_1
v 0.279949 0.248762 0.918105
v 0.279949 -0.244114 0.918105
v 0.279949 0.248762 0.069285
v 0.279949 -0.244114 0.069285
v 0.238922 -0.244114 0.069285
v 0.238922 0.248762 0.069285
v 0.238922 -0.244114 0.883573
v 0.238922 0.248762 0.883573
v -0.279949 0.248762 0.918105
v -0.279949 -0.244114 0.918105
v -0.279949 0.248762 0.069285
v -0.279949 -0.244114 0.069285
v -0.238922 -0.244114 0.069285
v -0.238922 0.248762 0.069285
v -0.238922 -0.244114 0.883573
v -0.238922 0.248762 0.883573
v -0.238922 0.203293 0.883573
v -0.238922 0.203293 0.069285
v 0.238922 0.203293 0.069285
v 0.238922 0.203293 0.883573
v 0.238922 0.248762 0.069285
v -0.238922 0.248762 0.069285
v -0.238922 0.248762 0.883573
v 0.238922 0.248762 0.883573
v -0.238922 -0.244114 0.069285
v 0.238922 -0.244114 0.069285
v 0.238922 0.203293 0.069285
v -0.238922 0.203293 0.069285
v 0.238922 -0.244114 0.108858
v 0.238922 0.203293 0.108858
v -0.238922 0.203293 0.108858
v -0.238922 -0.244114 0.108858
v -0.226774 -0.187958 0.063028
v -0.226774 -0.209831 0.053968
v -0.226774 -0.218891 0.032095
v -0.226774 -0.209831 0.010223
v -0.226774 -0.187958 0.001163
v -0.226774 -0.166086 0.010223
v -0.226774 -0.157026 0.032095
v -0.226774 -0.166086 0.053968
v -0.193226 -0.209831 0.053968
v -0.193226 -0.187958 0.063028
v -0.193226 -0.218891 0.032095
v -0.193226 -0.209831 0.010223
v -0.193226 -0.187958 0.001163
v -0.193226 -0.166086 0.010223
v -0.193226 -0.157026 0.032095
v -0.193226 -0.166086 0.053968
v 0.230513 0.240961 0.052733
v 0.230513 -0.236312 0.052733
v 0.189487 -0.236312 0.052733
v 0.189487 0.240961 0.052733
v -0.230513 0.232126 0.052733
v -0.230513 -0.227477 0.052733
v -0.189487 -0.227477 0.052733
v -0.189487 0.232126 0.052733
v 0.193226 -0.187958 0.063028
v 0.193226 -0.209831 0.053968
v 0.193226 -0.218891 0.032095
v 0.193226 -0.209831 0.010223
v 0.193226 -0.187958 0.001163
v 0.193226 -0.166086 0.010223
v 0.193226 -0.157026 0.032095
v 0.193226 -0.166086 0.053968
v 0.226774 -0.209831 0.053968
v 0.226774 -0.187958 0.063028
v 0.226774 -0.218891 0.032095
v 0.226774 -0.209831 0.010223
v 0.226774 -0.187958 0.001163
v 0.226774 -0.166086 0.010223
v 0.226774 -0.157026 0.032095
v 0.226774 -0.166086 0.053968
v 0.189487 -0.244114 0.069285
v 0.189487 0.248762 0.069286
v 0.230513 -0.244114 0.069285
v 0.230513 0.248762 0.069286
v -0.189487 -0.234990 0.069285
v -0.189487 0.239639 0.069286
v -0.230513 -0.234990 0.069285
v -0.230513 0.239639 0.069286
v -0.226774 0.187958 0.063028
v -0.226774 0.166086 0.053968
v -0.226774 0.157026 0.032095
v -0.226774 0.166086 0.010223
v -0.226774 0.187958 0.001163
v -0.226774 0.209831 0.010223
v -0.226774 0.218891 0.032095
v -0.226774 0.209831 0.053968
v -0.193226 0.166086 0.053968
v -0.193226 0.187958 0.063028
v -0.193226 0.157026 0.032095
v -0.193226 0.166086 0.010223
v -0.193226 0.187958 0.001163
v -0.193226 0.209831 0.010223
v -0.193226 0.218891 0.032095
v -0.193226 0.209831 0.053968
v 0.193226 0.187958 0.063028
v 0.193226 0.166086 0.053968
v 0.193226 0.157026 0.032095
v 0.193226 0.166086 0.010223
v 0.193226 0.187958 0.001163
v 0.193226 0.209831 0.010223
v 0.193226 0.218891 0.032095
v 0.193226 0.209831 0.053968
v 0.226774 0.166086 0.053968
v 0.226774 0.187958 0.063028
v 0.226774 0.157026 0.032095
v 0.226774 0.166086 0.010223
v 0.226774 0.187958 0.001163
v 0.226774 0.209831 0.010223
v 0.226774 0.218891 0.032095
v 0.226774 0.209831 0.053968
v -0.238922 -0.244114 0.694323
v 0.238922 -0.244114 0.694323
v 0.238922 0.203293 0.694323
v -0.238922 0.203293 0.694323
v 0.238922 -0.244114 0.706567
v 0.238922 0.203293 0.706567
v -0.238922 0.203293 0.706567
v -0.238922 -0.244114 0.706567
vn -1.0000 -0.0000 -0.0000
vn 1.0000 -0.0000 -0.0000
vn -0.0000 1.0000 -0.0000
vn -0.0000 -1.0000 -0.0000
vn -0.0000 -0.0000 -1.0000
vn -0.0000 -0.0000 1.0000
vn -0.0000 0.3827 -0.9239
vn -0.0000 -0.9239 -0.3827
vn -0.0000 -0.3827 0.9239
vn -0.0000 0.3827 0.9239
vn -0.0000 0.9239 -0.3827
vn -0.0000 -0.3827 -0.9239
vn -0.0000 -0.9239 0.3827
vn -0.0000 0.9239 0.3827
vn -0.0000 -0.9046 0.4263
vn -0.0000 0.9106 0.4133
vn -0.0000 0.9046 0.4263
vn -0.0000 -0.9106 0.4133
vt 0.212984 0.875656
vt 0.212984 0.874949
vt 0.302937 0.875656
vt 0.302937 0.874949
vt 0.300257 0.878333
vt 0.299743 0.868333
vt 0.300257 0.868333
vt 0.299743 0.878333
vt 0.297296 0.872591
vt 0.302704 0.872076
vt 0.302704 0.872591
vt 0.212751 0.878333
vt 0.207343 0.868333
vt 0.207343 0.878333
vt 0.297296 0.868333
vt 0.302704 0.878333
vt 0.297296 0.878333
vt 0.297413 0.872076
vt 0.292005 0.872591
vt 0.297413 0.872591
vt 0.202052 0.872591
vt 0.207460 0.872076
vt 0.207460 0.872591
vt 0.292005 0.872076
vt 0.126961 0.962701
vt 0.131961 0.957701
vt 0.126961 0.952701
vt 0.130496 0.954165
vt 0.123425 0.954165
vt 0.121961 0.957701
vt 0.123425 0.961236
vt 0.130496 0.961236
vt 0.205047 0.874949
vt 0.205047 0.875656
vt 0.128090 0.874722
vt 0.122682 0.875236
vt 0.128090 0.875236
vt 0.297296 0.872076
vt 0.212751 0.868333
vt 0.302704 0.868333
vt 0.202052 0.872076
vt 0.122682 0.874722
s 0
usemtl Palette
f 7/1/1 6/2/1 5/1/1
f 2/3/2 3/4/2 1/4/2
f 3/4/3 8/4/3 1/4/3
f 4/3/4 7/3/4 5/3/4
f 4/3/5 6/4/5 3/4/5
f 23/5/2 18/6/2 22/7/2
f 21/7/1 20/8/1 24/5/1
f 15/1/2 14/2/2 16/2/2
f 22/9/6 19/10/6 21/11/6
f 10/3/1 11/4/1 12/3/1
f 16/4/3 11/4/3 9/4/3
f 12/3/4 15/3/4 10/3/4
f 14/4/5 12/3/5 11/4/5
f 20/12/3 18/13/3 17/14/3
f 22/15/4 24/16/4 23/17/4
f 1/4/3 16/4/3 9/4/3
f 2/3/4 15/3/4 7/3/4
f 9/4/6 2/3/6 1/4/6
f 7/1/5 16/2/5 8/2/5
f 26/18/5 28/19/5 27/20/5
f 31/21/6 29/22/6 30/23/6
f 26/18/4 32/24/4 25/24/4
f 33/25/1 39/26/1 37/27/1
f 45/27/2 47/26/2 42/25/2
f 38/28/7 45/27/7 37/27/7
f 36/29/8 43/30/8 35/30/8
f 34/31/9 42/25/9 33/25/9
f 33/25/10 48/32/10 40/32/10
f 39/26/11 46/28/11 38/28/11
f 37/27/12 44/29/12 36/29/12
f 35/30/13 41/31/13 34/31/13
f 40/32/14 47/26/14 39/26/14
f 52/33/6 50/34/6 49/33/6
f 54/34/6 56/33/6 53/33/6
f 57/25/1 63/26/1 61/27/1
f 69/27/2 71/26/2 66/25/2
f 62/28/7 69/27/7 61/27/7
f 60/29/8 67/30/8 59/30/8
f 58/31/9 66/25/9 57/25/9
f 57/25/10 72/32/10 64/32/10
f 63/26/11 70/28/11 62/28/11
f 61/27/12 68/29/12 60/29/12
f 59/30/13 65/31/13 58/31/13
f 64/32/14 71/26/14 63/26/14
f 49/33/15 74/33/15 52/33/15
f 52/33/2 73/34/2 51/34/2
f 54/34/16 77/34/16 55/34/16
f 53/33/2 79/34/2 54/34/2
f 51/34/17 75/34/17 50/34/17
f 50/34/1 76/33/1 49/33/1
f 56/33/18 80/33/18 53/33/18
f 55/34/1 78/33/1 56/33/1
f 81/25/1 87/26/1 85/27/1
f 93/27/2 95/26/2 90/25/2
f 86/28/7 93/27/7 85/27/7
f 84/29/8 91/30/8 83/30/8
f 82/31/9 90/25/9 81/25/9
f 81/25/10 96/32/10 88/32/10
f 87/26/11 94/28/11 86/28/11
f 85/27/12 92/29/12 84/29/12
f 83/30/13 89/31/13 82/31/13
f 88/32/14 95/26/14 87/26/14
f 97/25/1 103/26/1 101/27/1
f 109/27/2 111/26/2 106/25/2
f 102/28/7 109/27/7 101/27/7
f 100/29/8 107/30/8 99/30/8
f 98/31/9 106/25/9 97/25/9
f 97/25/10 112/32/10 104/32/10
f 103/26/11 110/28/11 102/28/11
f 101/27/12 108/29/12 100/29/12
f 99/30/13 105/31/13 98/31/13
f 104/32/14 111/26/14 103/26/14
f 114/35/5 116/36/5 115/37/5
f 119/36/6 117/35/6 118/37/6
f 114/18/4 120/24/4 113/24/4
f 7/1/1 8/2/1 6/2/1
f 2/3/2 4/3/2 3/4/2
f 3/4/3 6/4/3 8/4/3
f 4/3/4 2/3/4 7/3/4
f 4/3/5 5/3/5 6/4/5
f 23/5/2 17/8/2 18/6/2
f 21/7/1 19/6/1 20/8/1
f 15/1/2 13/1/2 14/2/2
f 22/9/6 18/38/6 19/10/6
f 10/3/1 9/4/1 11/4/1
f 16/4/3 14/4/3 11/4/3
f 12/3/4 13/3/4 15/3/4
f 14/4/5 13/3/5 12/3/5
f 20/12/3 19/39/3 18/13/3
f 22/15/4 21/40/4 24/16/4
f 1/4/3 8/4/3 16/4/3
f 2/3/4 10/3/4 15/3/4
f 9/4/6 10/3/6 2/3/6
f 7/1/5 15/1/5 16/2/5
f 26/18/5 25/24/5 28/19/5
f 31/21/6 32/41/6 29/22/6
f 26/18/4 29/18/4 32/24/4
f 35/30/1 34/31/1 33/25/1
f 33/25/1 40/32/1 39/26/1
f 39/26/1 38/28/1 37/27/1
f 37/27/1 36/29/1 35/30/1
f 35/30/1 33/25/1 37/27/1
f 42/25/2 41/31/2 43/30/2
f 43/30/2 44/29/2 45/27/2
f 45/27/2 46/28/2 47/26/2
f 47/26/2 48/32/2 42/25/2
f 42/25/2 43/30/2 45/27/2
f 38/28/7 46/28/7 45/27/7
f 36/29/8 44/29/8 43/30/8
f 34/31/9 41/31/9 42/25/9
f 33/25/10 42/25/10 48/32/10
f 39/26/11 47/26/11 46/28/11
f 37/27/12 45/27/12 44/29/12
f 35/30/13 43/30/13 41/31/13
f 40/32/14 48/32/14 47/26/14
f 52/33/6 51/34/6 50/34/6
f 54/34/6 55/34/6 56/33/6
f 59/30/1 58/31/1 57/25/1
f 57/25/1 64/32/1 63/26/1
f 63/26/1 62/28/1 61/27/1
f 61/27/1 60/29/1 59/30/1
f 59/30/1 57/25/1 61/27/1
f 66/25/2 65/31/2 67/30/2
f 67/30/2 68/29/2 69/27/2
f 69/27/2 70/28/2 71/26/2
f 71/26/2 72/32/2 66/25/2
f 66/25/2 67/30/2 69/27/2
f 62/28/7 70/28/7 69/27/7
f 60/29/8 68/29/8 67/30/8
f 58/31/9 65/31/9 66/25/9
f 57/25/10 66/25/10 72/32/10
f 63/26/11 71/26/11 70/28/11
f 61/27/12 69/27/12 68/29/12
f 59/30/13 67/30/13 65/31/13
f 64/32/14 72/32/14 71/26/14
f 49/33/15 76/33/15 74/33/15
f 52/33/2 74/33/2 73/34/2
f 54/34/16 79/34/16 77/34/16
f 53/33/2 80/33/2 79/34/2
f 51/34/17 73/34/17 75/34/17
f 50/34/1 75/34/1 76/33/1
f 56/33/18 78/33/18 80/33/18
f 55/34/1 77/34/1 78/33/1
f 83/30/1 82/31/1 81/25/1
f 81/25/1 88/32/1 87/26/1
f 87/26/1 86/28/1 85/27/1
f 85/27/1 84/29/1 83/30/1
f 83/30/1 81/25/1 85/27/1
f 90/25/2 89/31/2 91/30/2
f 91/30/2 92/29/2 93/27/2
f 93/27/2 94/28/2 95/26/2
f 95/26/2 96/32/2 90/25/2
f 90/25/2 91/30/2 93/27/2
f 86/28/7 94/28/7 93/27/7
f 84/29/8 92/29/8 91/30/8
f 82/31/9 89/31/9 90/25/9
f 81/25/10 90/25/10 96/32/10
f 87/26/11 95/26/11 94/28/11
f 85/27/12 93/27/12 92/29/12
f 83/30/13 91/30/13 89/31/13
f 88/32/14 96/32/14 95/26/14
f 99/30/1 98/31/1 97/25/1
f 97/25/1 104/32/1 103/26/1
f 103/26/1 102/28/1 101/27/1
f 101/27/1 100/29/1 99/30/1
f 99/30/1 97/25/1 101/27/1
f 106/25/2 105/31/2 107/30/2
f 107/30/2 108/29/2 109/27/2
f 109/27/2 110/28/2 111/26/2
f 111/26/2 112/32/2 106/25/2
f 106/25/2 107/30/2 109/27/2
f 102/28/7 110/28/7 109/27/7
f 100/29/8 108/29/8 107/30/8
f 98/31/9 105/31/9 106/25/9
f 97/25/10 106/25/10 112/32/10
f 103/26/11 111/26/11 110/28/11
f 101/27/12 109/27/12 108/29/12
f 99/30/13 107/30/13 105/31/13
f 104/32/14 112/32/14 111/26/14
f 114/35/5 113/42/5 116/36/5
f 119/36/6 120/42/6 117/35/6
f 114/18/4 117/18/4 120/24/4
