# Blender 5.0.1
# www.blender.org
mtllib Floor.mtl
o Floor.005
v 0.000001 -2.000000 0.000000
v 1.999999 -2.000000 0.000000
v 0.000001 0.000000 0.000000
v 1.999999 0.000000 0.000000
v 0.000001 0.000000 -0.037500
v 0.000001 -2.000000 -0.037500
v 1.999999 -2.000000 -0.037500
v 1.999999 0.000000 -0.037500
vn -0.0000 -0.0000 1.0000
vn 1.0000 -0.0000 -0.0000
vn -1.0000 -0.0000 -0.0000
vn -0.0000 1.0000 -0.0000
vn -0.0000 -1.0000 -0.0000
vt 0.887317 0.773271
vt 0.853242 0.807346
vt 0.853242 0.773271
vt 0.887317 0.807346
s 0
usemtl Palette
f 2/1/1 3/2/1 1/3/1
f 7/1/2 4/4/2 2/1/2
f 5/2/3 1/3/3 3/2/3
f 8/4/4 3/2/4 4/4/4
f 6/3/5 2/1/5 1/3/5
f 2/1/1 4/4/1 3/2/1
f 7/1/2 8/4/2 4/4/2
f 5/2/3 6/3/3 1/3/3
f 8/4/4 5/2/4 3/2/4
f 6/3/5 7/1/5 2/1/5
