# Blender 5.0.1
# www.blender.org
mtllib Ladder.mtl
o Ladder.001
v -0.303207 0.092318 0.379496
v -0.303207 -0.092318 0.379496
v -0.318838 0.400179 -0.000693
v -0.344838 0.400179 -0.000693
v -0.345977 -0.177012 0.161338
v -0.345977 -0.160172 0.161338
v -0.312409 0.100922 0.320679
v -0.312409 -0.100922 0.320679
v -0.318838 0.107948 0.379496
v -0.318838 0.303472 0.547423
v -0.344838 0.303472 0.547423
v -0.318838 -0.107948 0.379496
v -0.303207 -0.087682 0.199496
v -0.303207 -0.272318 0.199496
v -0.318838 -0.377066 -0.000693
v -0.318838 -0.296968 -0.000693
v -0.344838 -0.377066 -0.000693
v -0.344838 -0.296968 -0.000693
v -0.312409 -0.079078 0.140679
v -0.312409 -0.280922 0.140679
v -0.318838 -0.072052 0.199496
v -0.318838 0.251405 0.547423
v -0.318838 0.209816 0.589013
v -0.318838 -0.287948 0.199496
v -0.303207 0.272318 0.559496
v -0.303207 0.087682 0.559496
v -0.344838 0.209816 0.589013
v -0.312409 0.280922 0.500679
v -0.312409 0.079078 0.500679
v -0.318838 0.287948 0.559496
v -0.344838 0.251405 0.547423
v -0.318838 0.072052 0.559496
v -0.318838 0.348112 -0.000693
v -0.344838 0.348112 -0.000693
v -0.344838 0.333824 0.547423
v -0.318838 0.333824 0.547423
v -0.318838 0.318517 0.589013
v -0.344838 0.318517 0.589013
v -0.325058 0.377621 0.056066
v 0.000000 0.377621 0.056066
v -0.325058 0.373070 0.081857
v 0.000000 0.373070 0.081857
v 0.000000 0.366417 0.054089
v -0.325058 0.366417 0.054089
v 0.000000 0.361867 0.079880
v -0.325058 0.361867 0.079880
v -0.345977 -0.159586 0.177568
v -0.345977 -0.177598 0.177568
v -0.345977 0.003073 0.342523
v -0.345977 0.019913 0.342523
v -0.345977 0.020499 0.358753
v -0.345977 0.002487 0.358753
v -0.345977 0.189394 0.523709
v -0.345977 0.206233 0.523709
v -0.345977 0.206819 0.539939
v -0.345977 0.188807 0.539939
v -0.318839 0.238420 0.589013
v -0.318839 0.318517 0.589013
v -0.344838 0.238420 0.589013
v -0.344838 0.318517 0.589013
v -0.284374 0.436720 0.897147
v -0.318839 0.424184 0.864467
v -0.308744 0.433048 0.887575
v -0.318839 0.364663 0.888272
v -0.284385 0.378270 0.920528
v -0.308747 0.374285 0.911080
v -0.310384 0.389489 0.947121
v -0.344838 0.375887 0.914878
v -0.334747 0.385505 0.937677
v -0.344838 0.433660 0.889170
v -0.310373 0.446202 0.921865
v -0.334744 0.442528 0.912289
v -0.318839 0.316755 0.774706
v -0.318839 0.384084 0.759935
v -0.344838 0.384227 0.760307
v -0.344838 0.316870 0.774978
v -0.318839 0.390507 0.776677
v -0.344838 0.392144 0.780946
v -0.318839 0.324428 0.792895
v -0.344838 0.326322 0.797385
v -0.318838 0.341464 0.036986
v -0.344838 0.341464 0.036986
v -0.344838 0.393531 0.036986
v -0.318838 0.393531 0.036986
v 0.303207 0.092318 0.379496
v 0.303207 -0.092318 0.379496
v 0.318838 0.400179 -0.000693
v 0.344838 0.400179 -0.000693
v 0.345977 -0.177012 0.161338
v 0.345977 -0.160172 0.161338
v 0.312409 0.100922 0.320679
v 0.312409 -0.100922 0.320679
v 0.318838 0.107948 0.379496
v 0.318838 0.303472 0.547423
v 0.344838 0.303472 0.547423
v 0.318838 -0.107948 0.379496
v 0.303207 -0.087682 0.199496
v 0.303207 -0.272318 0.199496
v 0.318838 -0.377066 -0.000693
v 0.318838 -0.296968 -0.000693
v 0.344838 -0.377066 -0.000693
v 0.344838 -0.296968 -0.000693
v 0.312409 -0.079078 0.140679
v 0.312409 -0.280922 0.140679
v 0.318838 -0.072052 0.199496
v 0.318838 0.251405 0.547423
v 0.318838 0.209816 0.589013
v 0.318838 -0.287948 0.199496
v 0.303207 0.272318 0.559496
v 0.303207 0.087682 0.559496
v 0.344838 0.209816 0.589013
v 0.312409 0.280922 0.500679
v 0.312409 0.079078 0.500679
v 0.318838 0.287948 0.559496
v 0.344838 0.251405 0.547423
v 0.318838 0.072052 0.559496
v 0.318838 0.348112 -0.000693
v 0.344838 0.348112 -0.000693
v 0.344838 0.333824 0.547423
v 0.318838 0.333824 0.547423
v 0.318838 0.318517 0.589013
v 0.344838 0.318517 0.589013
v 0.325058 0.377621 0.056066
v 0.325058 0.373070 0.081857
v 0.325058 0.366417 0.054089
v 0.325058 0.361867 0.079880
v 0.345977 -0.159586 0.177568
v 0.345977 -0.177598 0.177568
v 0.345977 0.003073 0.342523
v 0.345977 0.019913 0.342523
v 0.345977 0.020499 0.358753
v 0.345977 0.002487 0.358753
v 0.345977 0.189394 0.523709
v 0.345977 0.206233 0.523709
v 0.345977 0.206819 0.539939
v 0.345977 0.188807 0.539939
v 0.318839 0.238420 0.589013
v 0.318839 0.318517 0.589013
v 0.344838 0.238420 0.589013
v 0.344838 0.318517 0.589013
v 0.284374 0.436720 0.897147
v 0.318839 0.424184 0.864467
v 0.308744 0.433048 0.887575
v 0.318839 0.364663 0.888272
v 0.284385 0.378270 0.920528
v 0.308747 0.374285 0.911080
v 0.310384 0.389489 0.947121
v 0.344838 0.375887 0.914878
v 0.334747 0.385505 0.937677
v 0.344838 0.433660 0.889170
v 0.310373 0.446202 0.921865
v 0.334744 0.442528 0.912289
v 0.318839 0.316755 0.774706
v 0.318839 0.384084 0.759935
v 0.344838 0.384227 0.760307
v 0.344838 0.316870 0.774978
v 0.318839 0.390507 0.776677
v 0.344838 0.392144 0.780946
v 0.318839 0.324428 0.792895
v 0.344838 0.326322 0.797385
v 0.318838 0.341464 0.036986
v 0.344838 0.341464 0.036986
v 0.344838 0.393531 0.036986
v 0.318838 0.393531 0.036986
vn -0.9941 -0.0000 -0.1087
vn -0.0000 0.9385 0.3454
vn -0.0000 -0.9929 -0.1186
vn -0.0000 0.9929 -0.1186
vn -1.0000 -0.0000 -0.0000
vn -0.0000 -0.0000 1.0000
vn -0.0000 -0.0000 -1.0000
vn 1.0000 -0.0000 -0.0000
vn -0.0000 0.7074 -0.7068
vn -0.0000 0.7063 -0.7079
vn -0.0000 -0.9848 -0.1738
vn -0.0000 -0.7122 0.7020
vn -0.0000 -0.7072 0.7070
vn -0.0000 0.9848 0.1738
vn -0.0000 0.9337 -0.3582
vn -0.0000 -0.1738 0.9848
vn -0.0000 0.1738 -0.9848
vn -0.0000 0.4068 0.9135
vn -0.0000 -0.3714 -0.9285
vn -0.0000 -0.9214 0.3887
vn 0.3877 -0.3424 -0.8558
vn 0.9259 -0.1403 -0.3507
vn -0.9258 0.1537 0.3453
vn -0.3879 0.3751 0.8419
vn 0.9941 -0.0000 -0.1087
vn -0.0000 0.7073 -0.7069
vn -0.0000 -0.7073 0.7069
vn -0.3877 -0.3424 -0.8558
vn -0.9259 -0.1403 -0.3507
vn 0.9258 0.1537 0.3453
vn 0.3874 0.3750 0.8422
vn -0.0000 -0.9848 -0.1737
vn -0.0000 0.1737 -0.9848
vn 0.3879 -0.3423 -0.8558
vn 0.9260 -0.1402 -0.3505
vn -0.3873 0.3750 0.8423
vn -0.3879 -0.3423 -0.8558
vn -0.9260 -0.1402 -0.3505
vn 0.9259 0.1537 0.3450
vn 0.3877 0.3751 0.8420
vt 0.125328 0.882659
vt 0.125328 0.883173
vt 0.207476 0.962066
vt 0.207476 0.962506
vt 0.125460 0.883136
vt 0.125460 0.882696
vt 0.135910 0.949315
vt 0.135910 0.949315
vt 0.125328 0.882659
vt 0.133265 0.956737
vt 0.133265 0.957252
vt 0.135910 0.949315
vt 0.141202 0.949090
vt 0.141202 0.949113
vt 0.141202 0.949113
vt 0.141202 0.948980
vt 0.141202 0.949059
vt 0.141202 0.948977
vt 0.125328 0.882821
vt 0.125328 0.882819
vt 0.141202 0.949090
vt 0.125328 0.882821
vt 0.141202 0.949062
vt 0.141202 0.948978
vt 0.141202 0.949108
vt 0.141202 0.949082
vt 0.141202 0.949085
vt 0.141202 0.949109
vt 0.622713 0.874884
vt 0.622713 0.874900
vt 0.622713 0.874903
vt 0.622713 0.874882
vt 0.622713 0.874902
vt 0.125328 0.882819
vt 0.141202 0.948982
vt 0.622713 0.874882
vt 0.622713 0.874884
vt 0.622713 0.874898
vt 0.125328 0.883173
vt 0.125328 0.883173
s 0
usemtl Palette
f 8/1/1 9/2/1 7/2/1
f 38/2/2 36/2/2 35/2/2
f 96/1/3 8/1/3 92/1/3
f 93/2/4 7/2/4 9/2/4
f 11/2/5 38/2/5 35/2/5
f 86/3/6 1/4/6 2/3/6
f 11/2/7 36/2/7 10/2/7
f 93/2/6 1/5/6 85/5/6
f 1/5/6 12/1/6 2/6/6
f 20/1/1 21/2/1 19/2/1
f 37/2/8 10/2/8 36/2/8
f 108/1/3 20/1/3 104/1/3
f 105/2/4 19/2/4 21/2/4
f 22/2/8 37/2/8 23/2/8
f 98/3/6 13/4/6 14/3/6
f 31/2/5 38/2/5 11/2/5
f 84/7/8 33/8/8 3/8/8
f 105/2/6 13/5/6 97/5/6
f 14/6/6 21/2/6 24/1/6
f 29/1/1 30/2/1 28/2/1
f 31/2/9 16/9/10 18/9/10
f 116/1/3 29/1/3 113/1/3
f 114/2/4 28/2/4 30/2/4
f 82/8/11 33/8/11 81/8/11
f 110/3/6 25/4/6 26/3/6
f 16/9/8 23/2/8 15/1/8
f 17/1/12 23/2/13 27/2/13
f 109/5/6 30/2/6 25/5/6
f 25/5/6 32/1/6 26/6/6
f 23/2/6 38/2/6 27/2/6
f 103/2/7 20/1/7 19/2/7
f 34/8/7 3/8/7 33/8/7
f 96/1/6 2/6/6 12/1/6
f 5/10/5 47/11/5 6/11/5
f 91/2/7 8/1/7 7/2/7
f 84/7/14 4/8/14 83/12/14
f 83/12/5 34/8/5 82/8/5
f 116/1/6 26/6/6 32/1/6
f 112/2/7 29/1/7 28/2/7
f 18/9/7 15/1/7 17/1/7
f 61/13/15 151/14/15 141/13/15
f 40/2/14 41/2/14 42/2/14
f 46/2/11 43/2/11 45/2/11
f 41/2/16 45/2/16 42/2/16
f 40/2/17 44/2/17 39/2/17
f 18/9/5 27/2/5 31/2/5
f 49/10/5 51/11/5 50/11/5
f 53/10/5 55/11/5 54/11/5
f 151/14/18 67/15/18 147/15/18
f 78/16/15 62/17/15 77/18/15
f 60/9/5 76/19/5 75/20/5
f 65/21/19 141/13/19 145/21/19
f 59/1/20 73/22/20 76/19/20
f 77/18/8 64/23/8 79/24/8
f 71/14/15 63/13/15 72/25/15
f 63/13/15 70/26/15 72/25/15
f 67/15/20 66/21/20 65/21/20
f 66/21/20 68/27/20 64/23/20
f 65/21/21 63/13/21 61/13/21
f 66/21/22 62/17/22 63/13/22
f 68/27/23 72/25/23 70/26/23
f 69/28/24 71/14/24 72/25/24
f 67/15/20 145/21/20 147/15/20
f 58/9/8 73/22/8 57/1/8
f 76/29/20 79/30/20 80/31/20
f 75/32/5 80/31/5 78/33/5
f 60/9/15 74/34/15 58/9/15
f 78/16/5 68/27/5 70/26/5
f 80/35/20 64/23/20 68/27/20
f 74/36/8 79/30/8 73/37/8
f 75/32/15 77/38/15 74/36/15
f 11/2/5 82/2/5 31/2/5
f 10/2/14 83/39/14 11/2/14
f 31/2/11 81/2/11 22/2/11
f 10/2/8 81/2/8 84/40/8
f 93/2/25 92/1/25 91/2/25
f 120/2/2 122/2/2 119/2/2
f 95/2/8 119/2/8 122/2/8
f 120/2/7 95/2/7 94/2/7
f 86/6/6 93/2/6 85/5/6
f 105/2/25 104/1/25 103/2/25
f 121/2/5 120/2/5 94/2/5
f 121/2/5 106/2/5 107/2/5
f 115/2/8 122/2/8 111/2/8
f 164/7/5 117/8/5 161/8/5
f 98/6/6 105/2/6 97/5/6
f 114/2/25 113/1/25 112/2/25
f 100/9/10 115/2/26 102/9/10
f 117/8/11 162/8/11 161/8/11
f 107/2/5 100/9/5 99/1/5
f 107/2/27 101/1/12 111/2/27
f 116/1/6 109/5/6 110/6/6
f 122/2/6 107/2/6 111/2/6
f 87/8/7 118/8/7 117/8/7
f 127/11/8 89/10/8 90/11/8
f 88/8/14 164/7/14 163/12/14
f 118/8/8 163/12/8 162/8/8
f 99/1/7 102/9/7 101/1/7
f 124/2/14 40/2/14 42/2/14
f 43/2/11 126/2/11 45/2/11
f 45/2/16 124/2/16 42/2/16
f 125/2/17 40/2/17 123/2/17
f 111/2/8 102/9/8 115/2/8
f 131/11/8 129/10/8 130/11/8
f 135/11/8 133/10/8 134/11/8
f 158/16/15 142/17/15 150/26/15
f 156/19/8 140/9/8 155/20/8
f 153/22/20 139/1/20 156/19/20
f 144/23/5 157/18/5 159/24/5
f 151/14/15 143/13/15 141/13/15
f 150/26/15 143/13/15 152/25/15
f 146/21/20 147/15/20 145/21/20
f 146/21/20 148/27/20 149/28/20
f 143/13/28 145/21/28 141/13/28
f 142/17/29 146/21/29 143/13/29
f 152/25/30 148/27/30 150/26/30
f 151/14/31 149/28/31 152/25/31
f 153/22/5 138/9/5 137/1/5
f 159/30/20 156/29/20 160/31/20
f 160/31/8 155/32/8 158/33/8
f 140/9/15 154/34/15 155/20/15
f 148/27/8 158/16/8 150/26/8
f 144/23/20 160/35/20 148/27/20
f 159/30/5 154/36/5 153/37/5
f 155/32/15 157/38/15 158/33/15
f 162/2/8 95/2/8 115/2/8
f 163/39/14 94/2/14 95/2/14
f 161/2/11 115/2/11 106/2/11
f 94/2/5 161/2/5 106/2/5
f 108/1/6 14/6/6 24/1/6
f 8/1/1 12/1/1 9/2/1
f 38/2/2 37/2/2 36/2/2
f 96/1/3 12/1/3 8/1/3
f 93/2/4 91/2/4 7/2/4
f 86/3/6 85/4/6 1/4/6
f 11/2/7 35/2/7 36/2/7
f 93/2/6 9/2/6 1/5/6
f 1/5/6 9/2/6 12/1/6
f 20/1/1 24/1/1 21/2/1
f 108/1/3 24/1/3 20/1/3
f 105/2/4 103/2/4 19/2/4
f 22/2/8 10/2/8 37/2/8
f 98/3/6 97/4/6 13/4/6
f 31/2/5 27/2/5 38/2/5
f 84/7/8 81/8/8 33/8/8
f 105/2/6 21/2/6 13/5/6
f 14/6/6 13/5/6 21/2/6
f 29/1/1 32/1/1 30/2/1
f 31/2/9 22/2/9 16/9/10
f 116/1/3 32/1/3 29/1/3
f 114/2/4 112/2/4 28/2/4
f 82/8/11 34/8/11 33/8/11
f 110/3/6 109/4/6 25/4/6
f 16/9/8 22/2/8 23/2/8
f 17/1/12 15/1/12 23/2/13
f 109/5/6 114/2/6 30/2/6
f 25/5/6 30/2/6 32/1/6
f 23/2/6 37/2/6 38/2/6
f 103/2/7 104/1/7 20/1/7
f 34/8/7 4/8/7 3/8/7
f 96/1/6 86/6/6 2/6/6
f 5/10/5 48/10/5 47/11/5
f 91/2/7 92/1/7 8/1/7
f 84/7/14 3/8/14 4/8/14
f 83/12/5 4/8/5 34/8/5
f 116/1/6 110/6/6 26/6/6
f 112/2/7 113/1/7 29/1/7
f 18/9/7 16/9/7 15/1/7
f 61/13/15 71/14/15 151/14/15
f 40/2/14 39/2/14 41/2/14
f 46/2/32 44/2/32 43/2/32
f 41/2/16 46/2/16 45/2/16
f 40/2/33 43/2/33 44/2/33
f 18/9/5 17/1/5 27/2/5
f 49/10/5 52/10/5 51/11/5
f 53/10/5 56/10/5 55/11/5
f 151/14/18 71/14/18 67/15/18
f 78/16/15 70/26/15 62/17/15
f 60/9/5 59/1/5 76/19/5
f 65/21/19 61/13/19 141/13/19
f 59/1/20 57/1/20 73/22/20
f 77/18/8 62/17/8 64/23/8
f 71/14/15 61/13/15 63/13/15
f 63/13/15 62/17/15 70/26/15
f 67/15/20 69/28/20 66/21/20
f 66/21/20 69/28/20 68/27/20
f 65/21/34 66/21/34 63/13/34
f 66/21/35 64/23/35 62/17/35
f 68/27/23 69/28/23 72/25/23
f 69/28/36 67/15/36 71/14/36
f 67/15/20 65/21/20 145/21/20
f 58/9/8 74/34/8 73/22/8
f 76/29/20 73/37/20 79/30/20
f 75/32/5 76/29/5 80/31/5
f 60/9/15 75/20/15 74/34/15
f 78/16/5 80/35/5 68/27/5
f 80/35/20 79/24/20 64/23/20
f 74/36/8 77/38/8 79/30/8
f 75/32/15 78/33/15 77/38/15
f 11/2/5 83/39/5 82/2/5
f 10/2/14 84/40/14 83/39/14
f 31/2/11 82/2/11 81/2/11
f 10/2/8 22/2/8 81/2/8
f 93/2/25 96/1/25 92/1/25
f 120/2/2 121/2/2 122/2/2
f 120/2/7 119/2/7 95/2/7
f 86/6/6 96/1/6 93/2/6
f 105/2/25 108/1/25 104/1/25
f 121/2/5 94/2/5 106/2/5
f 115/2/8 95/2/8 122/2/8
f 164/7/5 87/8/5 117/8/5
f 98/6/6 108/1/6 105/2/6
f 114/2/25 116/1/25 113/1/25
f 100/9/10 106/2/26 115/2/26
f 117/8/11 118/8/11 162/8/11
f 107/2/5 106/2/5 100/9/5
f 107/2/27 99/1/12 101/1/12
f 116/1/6 114/2/6 109/5/6
f 122/2/6 121/2/6 107/2/6
f 87/8/7 88/8/7 118/8/7
f 127/11/8 128/10/8 89/10/8
f 88/8/14 87/8/14 164/7/14
f 118/8/8 88/8/8 163/12/8
f 99/1/7 100/9/7 102/9/7
f 124/2/14 123/2/14 40/2/14
f 43/2/32 125/2/32 126/2/32
f 45/2/16 126/2/16 124/2/16
f 125/2/33 43/2/33 40/2/33
f 111/2/8 101/1/8 102/9/8
f 131/11/8 132/10/8 129/10/8
f 135/11/8 136/10/8 133/10/8
f 158/16/15 157/18/15 142/17/15
f 156/19/8 139/1/8 140/9/8
f 153/22/20 137/1/20 139/1/20
f 144/23/5 142/17/5 157/18/5
f 151/14/15 152/25/15 143/13/15
f 150/26/15 142/17/15 143/13/15
f 146/21/20 149/28/20 147/15/20
f 146/21/20 144/23/20 148/27/20
f 143/13/37 146/21/37 145/21/37
f 142/17/38 144/23/38 146/21/38
f 152/25/39 149/28/39 148/27/39
f 151/14/40 147/15/40 149/28/40
f 153/22/5 154/34/5 138/9/5
f 159/30/20 153/37/20 156/29/20
f 160/31/8 156/29/8 155/32/8
f 140/9/15 138/9/15 154/34/15
f 148/27/8 160/35/8 158/16/8
f 144/23/20 159/24/20 160/35/20
f 159/30/5 157/38/5 154/36/5
f 155/32/15 154/36/15 157/38/15
f 162/2/8 163/39/8 95/2/8
f 163/39/14 164/40/14 94/2/14
f 161/2/11 162/2/11 115/2/11
f 94/2/5 164/40/5 161/2/5
f 108/1/6 98/6/6 14/6/6
