# Blender 5.0.1
# www.blender.org
mtllib Laptop_Base.mtl
o Laptop_Base
v 0.233502 -0.143915 0.030658
v 0.233502 0.171073 0.030658
v 0.186878 0.163686 0.015344
v 0.127490 0.163686 0.015344
v 0.186878 0.152261 0.024411
v 0.189148 0.159244 0.035782
v 0.127490 0.152261 0.024411
v 0.127490 0.159244 0.035782
v 0.189148 0.170039 0.035700
v 0.188497 0.174817 0.029977
v 0.127490 0.174817 0.029977
v 0.127490 0.170039 0.035700
v -0.233502 -0.143915 0.030658
v -0.233502 0.171073 0.030658
v -0.186878 0.163686 0.015344
v -0.127490 0.163686 0.015344
v -0.186878 0.152261 0.024411
v -0.189148 0.159244 0.035782
v -0.127490 0.152261 0.024411
v -0.127490 0.159244 0.035782
v -0.189148 0.170039 0.035700
v -0.188497 0.174817 0.029977
v -0.127490 0.174817 0.029977
v -0.127490 0.170039 0.035700
v 0.105910 -0.006960 0.034352
v 0.105910 0.107397 0.034352
v 0.105910 0.127776 0.034352
v 0.105910 0.112946 0.034352
v 0.114025 0.127776 0.034352
v 0.114025 0.112946 0.034352
v 0.203812 0.127776 0.034352
v 0.203812 0.112946 0.034352
v 0.203812 -0.006960 0.034352
v 0.203812 0.107397 0.034352
v 0.114025 -0.006960 0.034352
v 0.114025 0.107397 0.034352
v 0.046081 -0.039931 0.033019
v 0.046081 -0.093117 0.033019
v 0.054382 -0.023830 0.034352
v 0.105910 -0.023830 0.034352
v 0.054382 -0.006960 0.034352
v 0.054382 0.107397 0.034352
v -0.046082 -0.093117 0.033019
v -0.046082 -0.039931 0.033019
v -0.001873 -0.095355 0.033019
v -0.001873 -0.110283 0.033019
v -0.046082 -0.110283 0.033019
v -0.046082 -0.095355 0.033019
v 0.046081 -0.095355 0.033019
v 0.046081 -0.110283 0.033019
v 0.001873 -0.110283 0.033019
v 0.001873 -0.095355 0.033019
v 0.114025 0.127776 0.025409
v 0.114025 0.112946 0.025409
v 0.105910 -0.006960 0.025409
v 0.105910 0.107397 0.025409
v 0.203812 0.112946 0.025409
v 0.054382 -0.006960 0.025409
v 0.054382 0.107397 0.025409
v 0.203812 0.127776 0.025409
v 0.105910 0.112946 0.025409
v 0.105910 0.127776 0.025409
v 0.203812 -0.006960 0.025409
v 0.203812 0.107397 0.025409
v 0.114025 -0.006960 0.025409
v 0.114025 0.107397 0.025409
v 0.046081 -0.093117 0.025409
v 0.046081 -0.039931 0.025409
v 0.105910 -0.023830 0.025409
v 0.054382 -0.023830 0.025409
v -0.046082 -0.093117 0.025409
v -0.046082 -0.039931 0.025409
v -0.001873 -0.110283 0.025409
v -0.001873 -0.095355 0.025409
v -0.046082 -0.110283 0.025409
v -0.046082 -0.095355 0.025409
v 0.046081 -0.110283 0.025409
v 0.046081 -0.095355 0.025409
v 0.001873 -0.110283 0.025409
v 0.001873 -0.095355 0.025409
v -0.170972 0.107397 0.025409
v -0.170972 -0.006960 0.025409
v -0.170972 0.107397 0.034352
v -0.170972 -0.006960 0.034352
v -0.170972 0.112946 0.025409
v -0.170972 0.127776 0.025409
v -0.170972 0.112946 0.034352
v -0.170972 0.127776 0.034352
v -0.201115 -0.006960 0.034352
v -0.201115 0.107397 0.034352
v -0.201115 0.127776 0.034352
v -0.201115 0.112946 0.034352
v -0.201115 0.127776 0.025409
v -0.201115 0.112946 0.025409
v -0.201115 -0.006960 0.025409
v -0.201115 0.107397 0.025409
v -0.179488 0.107397 0.025409
v -0.179488 -0.006960 0.025409
v -0.179488 0.107397 0.034352
v -0.179488 -0.006960 0.034352
v -0.179488 0.112946 0.025409
v -0.179488 0.127776 0.025409
v -0.179488 0.112946 0.034352
v -0.179488 0.127776 0.034352
v -0.214672 -0.128668 -0.000339
v -0.214672 -0.122225 -0.000339
v -0.202402 -0.128874 -0.000339
v -0.202402 -0.122225 -0.000339
v 0.204565 -0.128668 -0.000339
v 0.204565 -0.122225 -0.000339
v 0.216835 -0.128874 -0.000339
v 0.216835 -0.122225 -0.000339
v -0.202402 -0.117154 0.007928
v -0.202402 -0.134104 0.007928
v -0.214672 -0.133578 0.007928
v -0.214672 -0.117154 0.007928
v 0.216835 -0.134104 0.007928
v 0.216835 -0.117154 0.007928
v 0.204565 -0.133578 0.007928
v 0.204565 -0.117154 0.007928
v -0.214672 0.146251 -0.000339
v -0.214672 0.152694 -0.000339
v -0.202402 0.146045 -0.000339
v -0.202402 0.152694 -0.000339
v 0.204565 0.146251 -0.000339
v 0.204565 0.152694 -0.000339
v 0.216835 0.146045 -0.000339
v 0.216835 0.152694 -0.000339
v -0.202402 0.157765 0.007928
v -0.202402 0.140815 0.007928
v -0.214672 0.141341 0.007928
v -0.214672 0.157765 0.007928
v 0.216835 0.140815 0.007928
v 0.216835 0.157765 0.007928
v 0.204565 0.141341 0.007928
v 0.204565 0.157765 0.007928
v 0.226266 -0.133394 0.005384
v 0.230984 -0.138650 0.009529
v 0.226266 0.160552 0.005384
v 0.230984 0.165808 0.009529
v -0.230984 -0.138650 0.009529
v -0.226266 -0.133394 0.005384
v -0.226266 0.160552 0.005384
v -0.230984 0.165808 0.009529
vn -0.0000 0.9703 -0.2418
vn -0.9930 -0.0000 -0.1184
vn -0.0000 -0.9703 -0.2418
vn -0.0000 -0.0000 1.0000
vn -0.0000 0.0077 1.0000
vn -0.0000 -0.8522 0.5233
vn -1.0000 -0.0000 -0.0000
vn -0.0000 0.7959 -0.6054
vn -0.0000 0.7676 0.6409
vn 0.9922 -0.0372 -0.1186
vn 1.0000 -0.0000 -0.0000
vn -0.9922 -0.0372 -0.1187
vn -0.9922 -0.0372 -0.1186
vn -0.0000 -1.0000 -0.0000
vn -0.0000 1.0000 -0.0000
vn -0.0000 -0.0000 -1.0000
vn -0.0254 -0.8521 -0.5227
vn -0.0000 0.8524 -0.5229
vn 0.6600 -0.0000 -0.7512
vn -0.0000 -0.6192 -0.7852
vn -0.6600 -0.0000 -0.7512
vn -0.0000 0.6192 -0.7852
vn 0.9930 -0.0000 -0.1184
vn 0.9922 -0.0372 -0.1187
vt 0.874774 0.802034
vt 0.874774 0.777034
vt 0.122691 0.885368
vt 0.135191 0.885368
vt 0.135191 0.885368
vt 0.122691 0.885368
vt 0.229187 0.890576
vt 0.229187 0.865576
vt 0.119566 0.895784
vt 0.119566 0.870785
vt 0.195333 0.890576
vt 0.195333 0.865576
vt 0.137795 0.865576
vt 0.125295 0.890576
vt 0.125295 0.865576
vt 0.137795 0.890576
vt 0.874774 0.777407
vt 0.874774 0.801662
s 0
usemtl Palette
f 14/1/1 140/1/1 144/1/1
f 13/2/2 144/1/2 141/2/2
f 13/2/3 138/2/3 1/2/3
f 14/1/4 1/2/4 2/1/4
f 8/3/5 9/4/5 12/3/5
f 5/5/6 8/3/6 7/3/6
f 11/3/7 8/3/7 12/6/7
f 3/5/8 11/3/8 10/5/8
f 10/5/9 12/3/9 9/4/9
f 6/5/10 3/5/10 10/5/10
f 21/4/5 20/3/5 24/3/5
f 17/5/6 20/3/6 18/5/6
f 23/3/11 24/6/11 20/3/11
f 15/5/8 23/3/8 16/3/8
f 24/3/9 22/5/9 21/4/9
f 15/5/12 17/5/12 18/5/13
f 36/7/4 33/8/4 34/7/4
f 29/7/4 32/8/4 31/7/4
f 39/8/4 25/8/4 41/8/4
f 42/7/4 25/8/4 26/7/4
f 44/9/4 38/10/4 37/9/4
f 48/11/4 46/12/4 45/11/4
f 52/11/4 50/12/4 49/11/4
f 29/7/7 54/8/7 30/8/7
f 47/12/14 73/12/14 46/12/14
f 36/7/7 65/8/7 35/8/7
f 25/8/11 56/7/11 26/7/11
f 48/11/7 75/12/7 47/12/7
f 34/7/15 66/7/15 36/7/15
f 30/8/14 57/8/14 32/8/14
f 45/11/15 76/11/15 48/11/15
f 38/12/11 68/11/11 37/11/11
f 50/12/11 78/11/11 49/11/11
f 40/8/11 55/8/11 25/8/11
f 51/12/14 77/12/14 50/12/14
f 39/8/14 69/8/14 40/8/14
f 102/7/11 103/8/11 101/8/11
f 52/11/7 79/12/7 51/12/7
f 41/8/7 70/8/7 39/8/7
f 26/7/15 59/7/15 42/7/15
f 49/11/15 80/11/15 52/11/15
f 31/7/15 53/7/15 29/7/15
f 42/7/15 81/7/15 83/7/15
f 28/8/11 62/7/11 27/7/11
f 32/8/11 60/7/11 31/7/11
f 43/12/14 67/12/14 38/12/14
f 27/7/15 86/7/15 88/7/15
f 44/11/7 71/12/7 43/12/7
f 97/7/11 100/8/11 98/8/11
f 37/11/15 72/11/15 44/11/15
f 33/8/11 64/7/11 34/7/11
f 46/12/11 74/11/11 45/11/11
f 35/8/14 63/8/14 33/8/14
f 87/8/14 61/8/14 28/8/14
f 85/8/7 88/7/7 86/7/7
f 88/7/4 28/8/4 27/7/4
f 84/8/7 81/7/7 82/8/7
f 84/8/14 58/8/14 41/8/14
f 83/7/4 41/8/4 42/7/4
f 90/7/4 100/8/4 99/7/4
f 91/7/4 103/8/4 104/7/4
f 91/7/7 94/8/7 92/8/7
f 89/8/14 98/8/14 100/8/14
f 90/7/7 95/8/7 89/8/7
f 92/8/14 101/8/14 103/8/14
f 104/7/15 93/7/15 91/7/15
f 99/7/15 96/7/15 90/7/15
f 105/13/16 108/14/16 107/15/16
f 109/13/16 112/14/16 111/15/16
f 125/13/16 128/14/16 127/15/16
f 121/13/16 124/14/16 123/15/16
f 107/15/17 115/13/17 105/13/17
f 119/13/7 110/16/7 109/13/7
f 118/14/11 111/15/11 112/14/11
f 115/13/7 106/16/7 105/13/7
f 113/14/11 107/15/11 108/14/11
f 120/16/18 112/14/18 110/16/18
f 111/15/17 119/13/17 109/13/17
f 116/16/18 108/14/18 106/16/18
f 123/15/17 131/13/17 121/13/17
f 135/13/7 126/16/7 125/13/7
f 134/14/11 127/15/11 128/14/11
f 131/13/7 122/16/7 121/13/7
f 129/14/11 123/15/11 124/14/11
f 136/16/18 128/14/18 126/16/18
f 127/15/17 135/13/17 125/13/17
f 132/16/18 124/14/18 122/16/18
f 142/17/16 139/18/16 137/17/16
f 139/18/19 138/2/19 137/17/19
f 141/2/20 137/17/20 138/2/20
f 144/1/21 142/17/21 141/2/21
f 140/1/22 143/18/22 144/1/22
f 138/2/23 2/1/23 1/2/23
f 14/1/1 2/1/1 140/1/1
f 13/2/2 14/1/2 144/1/2
f 13/2/3 141/2/3 138/2/3
f 14/1/4 13/2/4 1/2/4
f 8/3/5 6/5/5 9/4/5
f 5/5/6 6/5/6 8/3/6
f 11/3/7 4/3/7 8/3/7
f 4/3/7 7/3/7 8/3/7
f 3/5/8 4/3/8 11/3/8
f 10/5/9 11/3/9 12/3/9
f 10/5/10 9/4/10 6/5/10
f 6/5/24 5/5/10 3/5/10
f 21/4/5 18/5/5 20/3/5
f 17/5/6 19/3/6 20/3/6
f 19/3/11 16/3/11 20/3/11
f 16/3/11 23/3/11 20/3/11
f 15/5/8 22/5/8 23/3/8
f 24/3/9 23/3/9 22/5/9
f 18/5/13 21/4/13 22/5/13
f 22/5/13 15/5/13 18/5/13
f 36/7/4 35/8/4 33/8/4
f 29/7/4 30/8/4 32/8/4
f 39/8/4 40/8/4 25/8/4
f 42/7/4 41/8/4 25/8/4
f 44/9/4 43/10/4 38/10/4
f 48/11/4 47/12/4 46/12/4
f 52/11/4 51/12/4 50/12/4
f 29/7/7 53/7/7 54/8/7
f 47/12/14 75/12/14 73/12/14
f 36/7/7 66/7/7 65/8/7
f 25/8/11 55/8/11 56/7/11
f 48/11/7 76/11/7 75/12/7
f 34/7/15 64/7/15 66/7/15
f 30/8/14 54/8/14 57/8/14
f 45/11/15 74/11/15 76/11/15
f 38/12/11 67/12/11 68/11/11
f 50/12/11 77/12/11 78/11/11
f 40/8/11 69/8/11 55/8/11
f 51/12/14 79/12/14 77/12/14
f 39/8/14 70/8/14 69/8/14
f 102/7/11 104/7/11 103/8/11
f 52/11/7 80/11/7 79/12/7
f 41/8/7 58/8/7 70/8/7
f 26/7/15 56/7/15 59/7/15
f 49/11/15 78/11/15 80/11/15
f 31/7/15 60/7/15 53/7/15
f 42/7/15 59/7/15 81/7/15
f 28/8/11 61/8/11 62/7/11
f 32/8/11 57/8/11 60/7/11
f 43/12/14 71/12/14 67/12/14
f 27/7/15 62/7/15 86/7/15
f 44/11/7 72/11/7 71/12/7
f 97/7/11 99/7/11 100/8/11
f 37/11/15 68/11/15 72/11/15
f 33/8/11 63/8/11 64/7/11
f 46/12/11 73/12/11 74/11/11
f 35/8/14 65/8/14 63/8/14
f 87/8/14 85/8/14 61/8/14
f 85/8/7 87/8/7 88/7/7
f 88/7/4 87/8/4 28/8/4
f 84/8/7 83/7/7 81/7/7
f 84/8/14 82/8/14 58/8/14
f 83/7/4 84/8/4 41/8/4
f 90/7/4 89/8/4 100/8/4
f 91/7/4 92/8/4 103/8/4
f 91/7/7 93/7/7 94/8/7
f 89/8/14 95/8/14 98/8/14
f 90/7/7 96/7/7 95/8/7
f 92/8/14 94/8/14 101/8/14
f 104/7/15 102/7/15 93/7/15
f 99/7/15 97/7/15 96/7/15
f 105/13/16 106/16/16 108/14/16
f 109/13/16 110/16/16 112/14/16
f 125/13/16 126/16/16 128/14/16
f 121/13/16 122/16/16 124/14/16
f 107/15/17 114/15/17 115/13/17
f 119/13/7 120/16/7 110/16/7
f 118/14/11 117/15/11 111/15/11
f 115/13/7 116/16/7 106/16/7
f 113/14/11 114/15/11 107/15/11
f 120/16/18 118/14/18 112/14/18
f 111/15/17 117/15/17 119/13/17
f 116/16/18 113/14/18 108/14/18
f 123/15/17 130/15/17 131/13/17
f 135/13/7 136/16/7 126/16/7
f 134/14/11 133/15/11 127/15/11
f 131/13/7 132/16/7 122/16/7
f 129/14/11 130/15/11 123/15/11
f 136/16/18 134/14/18 128/14/18
f 127/15/17 133/15/17 135/13/17
f 132/16/18 129/14/18 124/14/18
f 142/17/16 143/18/16 139/18/16
f 139/18/19 140/1/19 138/2/19
f 141/2/20 142/17/20 137/17/20
f 144/1/21 143/18/21 142/17/21
f 140/1/22 139/18/22 143/18/22
f 138/2/23 140/1/23 2/1/23
