# Blender 5.0.1
# www.blender.org
mtllib Laptop_Screen.mtl
o Laptop_Screen
v 0.227359 0.000718 0.295259
v 0.227359 0.000718 0.039115
v -0.227359 0.000718 0.295259
v -0.227359 0.000718 0.039115
v 0.233502 0.000718 0.309140
v 0.233502 0.000718 -0.003384
v -0.233502 0.000718 0.309140
v -0.233502 0.000718 -0.003384
v 0.227359 0.003395 0.295259
v 0.227359 0.003395 0.039115
v -0.227359 0.003395 0.295259
v -0.227359 0.003395 0.039115
v 0.228539 0.017200 0.300741
v 0.232353 0.013828 0.305258
v 0.228539 0.017199 0.008402
v 0.232353 0.013833 0.003195
v -0.228539 0.017200 0.300741
v -0.232353 0.013828 0.305258
v -0.228539 0.017199 0.008402
v -0.232353 0.013833 0.003195
vn 1.0000 -0.0000 -0.0000
vn -0.0000 -1.0000 -0.0000
vn -0.9962 0.0873 -0.0000
vn -0.0000 0.2839 0.9588
vn 0.9962 0.0873 -0.0000
vn -1.0000 -0.0000 -0.0000
vn -0.0000 -0.0000 1.0000
vn -0.0000 -0.0000 -1.0000
vn -0.0000 0.4484 -0.8939
vn 0.6621 0.7495 -0.0000
vn -0.6619 0.7496 -0.0000
vn -0.0000 0.8014 0.5982
vn -0.0000 0.8398 -0.5429
vn -0.0000 1.0000 -0.0000
vn 0.6621 0.7494 -0.0000
vn -0.6620 0.7495 -0.0000
vt 0.874150 0.803756
vt 0.874150 0.780522
vt 0.874774 0.779639
vt 0.874774 0.804639
vt 0.879359 0.798548
vt 0.879982 0.799430
vt 0.000318 0.000821
vt 0.562433 0.998711
vt 0.000318 0.998711
vt 0.874774 0.804325
vt 0.874774 0.779952
vt 0.562433 0.000821
s 0
usemtl Palette
f 4/1/1 11/2/1 3/2/1
f 1/2/2 7/3/2 3/2/2
f 7/3/3 20/4/3 8/4/3
f 18/3/4 5/3/4 14/3/4
f 5/3/5 16/4/5 14/3/5
f 2/1/6 9/2/6 10/1/6
f 4/5/2 6/6/2 2/5/2
f 2/1/2 5/3/2 1/2/2
f 4/1/2 7/3/2 8/4/2
f 2/1/7 12/1/7 4/1/7
f 3/2/8 9/2/8 1/2/8
f 20/4/9 6/4/9 8/4/9
f 14/3/10 15/10/10 13/11/10
f 19/10/11 18/3/11 17/11/11
f 17/11/12 14/3/12 13/11/12
f 19/10/13 16/4/13 20/4/13
f 19/10/14 13/11/14 15/10/14
f 4/1/1 12/1/1 11/2/1
f 1/2/2 5/3/2 7/3/2
f 7/3/3 18/3/3 20/4/3
f 18/3/4 7/3/4 5/3/4
f 5/3/5 6/4/5 16/4/5
f 2/1/6 1/2/6 9/2/6
f 4/5/2 8/6/2 6/6/2
f 2/1/2 6/4/2 5/3/2
f 4/1/2 3/2/2 7/3/2
f 2/1/7 10/1/7 12/1/7
f 3/2/8 11/2/8 9/2/8
f 20/4/9 16/4/9 6/4/9
f 14/3/15 16/4/15 15/10/15
f 19/10/16 20/4/16 18/3/16
f 17/11/12 18/3/12 14/3/12
f 19/10/13 15/10/13 16/4/13
f 19/10/14 17/11/14 13/11/14
usemtl Screens
f 11/7/2 10/8/2 9/9/2
f 11/7/2 12/12/2 10/8/2
