# Blender 5.0.1
# www.blender.org
mtllib Modern_Shelves_2.mtl
o Modern_Shelves_2
v 0.622485 0.137835 0.098445
v 0.622485 -0.137835 0.098445
v 0.622485 0.137835 0.032063
v 0.622485 -0.137835 0.032063
v -0.622485 0.137835 0.098445
v -0.622485 -0.137835 0.098445
v -0.622485 0.137835 0.032063
v -0.622485 -0.137835 0.032063
v 0.622485 0.137835 0.463549
v 0.622485 -0.137835 0.463549
v 0.622485 0.137835 0.419601
v 0.622485 -0.137835 0.419601
v -0.622485 0.137835 0.463549
v -0.622485 -0.137835 0.463549
v -0.622485 0.137835 0.419601
v -0.622485 -0.137835 0.419601
v 0.622485 0.137835 0.828653
v 0.622485 -0.137835 0.828653
v 0.622485 0.137835 0.784705
v 0.622485 -0.137835 0.784705
v -0.622485 0.137835 0.828653
v -0.622485 -0.137835 0.828653
v -0.622485 0.137835 0.784705
v -0.622485 -0.137835 0.784705
v -0.586282 0.111066 0.789957
v -0.605633 0.111066 0.789957
v -0.605633 0.111066 0.063240
v -0.586282 0.111066 0.063240
v -0.605633 0.082175 0.789957
v -0.586282 0.082175 0.789957
v -0.586282 0.082175 0.063240
v -0.605633 0.082175 0.063240
v -0.590695 0.108644 0.002076
v -0.590695 -0.108644 0.002076
v -0.591526 0.108644 0.038340
v -0.591526 -0.108644 0.038340
v -0.586282 -0.085023 0.789957
v -0.605633 -0.085023 0.789957
v -0.605633 -0.085023 0.063240
v -0.586282 -0.085023 0.063240
v -0.605633 -0.113914 0.789957
v -0.586282 -0.113914 0.789957
v -0.586282 -0.113914 0.063240
v -0.605633 -0.113914 0.063240
v 0.586282 0.111066 0.789957
v 0.605633 0.111066 0.789957
v 0.605633 0.111066 0.063240
v 0.586282 0.111066 0.063240
v 0.605633 0.082175 0.789957
v 0.586282 0.082175 0.789957
v 0.586282 0.082175 0.063240
v 0.605633 0.082175 0.063240
v -0.509305 0.108644 0.002076
v -0.509305 -0.108644 0.002076
v -0.508474 0.108644 0.038340
v -0.508474 -0.108644 0.038340
v 0.586282 -0.085023 0.789957
v 0.605633 -0.085023 0.789957
v 0.605633 -0.085023 0.063240
v 0.586282 -0.085023 0.063240
v 0.605633 -0.113914 0.789957
v 0.586282 -0.113914 0.789957
v 0.586282 -0.113914 0.063240
v 0.605633 -0.113914 0.063240
v 0.509305 0.108644 0.002076
v 0.509305 -0.108644 0.002076
v 0.508474 0.108644 0.038340
v 0.508474 -0.108644 0.038340
v 0.590695 0.108644 0.002076
v 0.590695 -0.108644 0.002076
v 0.591526 0.108644 0.038340
v 0.591526 -0.108644 0.038340
vn -0.0000 -1.0000 -0.0000
vn -0.0000 -0.0000 1.0000
vn 1.0000 -0.0000 -0.0000
vn -0.0000 -0.0000 -1.0000
vn -1.0000 -0.0000 -0.0000
vn -0.0000 1.0000 -0.0000
vn -0.9997 -0.0000 -0.0229
vn 0.9997 -0.0000 -0.0229
vt 0.373763 0.967363
vt 0.373763 0.950975
vt 0.033268 0.970189
vt 0.207870 0.871124
vt 0.207870 0.887512
s 0
usemtl Palette
f 6/1/1 4/1/1 2/1/1
f 1/2/2 6/1/2 2/1/2
f 3/2/3 2/1/3 4/1/3
f 4/1/4 7/2/4 3/2/4
f 6/1/5 7/2/5 8/1/5
f 5/2/6 3/2/6 7/2/6
f 14/1/1 12/1/1 10/1/1
f 9/2/2 14/1/2 10/1/2
f 11/2/3 10/1/3 12/1/3
f 12/1/4 15/2/4 11/2/4
f 14/1/5 15/2/5 16/1/5
f 13/2/6 11/2/6 15/2/6
f 22/1/1 20/1/1 18/1/1
f 17/2/2 22/1/2 18/1/2
f 19/2/3 18/1/3 20/1/3
f 20/1/4 23/2/4 19/2/4
f 22/1/5 23/2/5 24/1/5
f 21/2/6 19/2/6 23/2/6
f 26/3/5 32/3/5 29/3/5
f 31/3/1 29/3/1 32/3/1
f 28/3/3 30/3/3 31/3/3
f 26/3/6 28/3/6 27/3/6
f 33/4/6 55/4/6 53/4/6
f 36/5/7 33/4/7 34/5/7
f 53/4/4 34/5/4 33/4/4
f 38/3/5 44/3/5 41/3/5
f 43/3/1 41/3/1 44/3/1
f 40/3/3 42/3/3 43/3/3
f 38/3/6 40/3/6 39/3/6
f 52/3/3 46/3/3 49/3/3
f 49/3/1 51/3/1 52/3/1
f 50/3/5 48/3/5 51/3/5
f 48/3/6 46/3/6 47/3/6
f 53/4/8 56/5/8 54/5/8
f 64/3/3 58/3/3 61/3/3
f 61/3/1 63/3/1 64/3/1
f 62/3/5 60/3/5 63/3/5
f 60/3/6 58/3/6 59/3/6
f 54/5/1 36/5/1 34/5/1
f 65/4/6 71/4/6 69/4/6
f 68/5/7 65/4/7 66/5/7
f 69/4/4 66/5/4 65/4/4
f 69/4/8 72/5/8 70/5/8
f 70/5/1 68/5/1 66/5/1
f 6/1/1 8/1/1 4/1/1
f 1/2/2 5/2/2 6/1/2
f 3/2/3 1/2/3 2/1/3
f 4/1/4 8/1/4 7/2/4
f 6/1/5 5/2/5 7/2/5
f 5/2/6 1/2/6 3/2/6
f 14/1/1 16/1/1 12/1/1
f 9/2/2 13/2/2 14/1/2
f 11/2/3 9/2/3 10/1/3
f 12/1/4 16/1/4 15/2/4
f 14/1/5 13/2/5 15/2/5
f 13/2/6 9/2/6 11/2/6
f 22/1/1 24/1/1 20/1/1
f 17/2/2 21/2/2 22/1/2
f 19/2/3 17/2/3 18/1/3
f 20/1/4 24/1/4 23/2/4
f 22/1/5 21/2/5 23/2/5
f 21/2/6 17/2/6 19/2/6
f 26/3/5 27/3/5 32/3/5
f 31/3/1 30/3/1 29/3/1
f 28/3/3 25/3/3 30/3/3
f 26/3/6 25/3/6 28/3/6
f 33/4/6 35/4/6 55/4/6
f 36/5/7 35/4/7 33/4/7
f 53/4/4 54/5/4 34/5/4
f 38/3/5 39/3/5 44/3/5
f 43/3/1 42/3/1 41/3/1
f 40/3/3 37/3/3 42/3/3
f 38/3/6 37/3/6 40/3/6
f 52/3/3 47/3/3 46/3/3
f 49/3/1 50/3/1 51/3/1
f 50/3/5 45/3/5 48/3/5
f 48/3/6 45/3/6 46/3/6
f 53/4/8 55/4/8 56/5/8
f 64/3/3 59/3/3 58/3/3
f 61/3/1 62/3/1 63/3/1
f 62/3/5 57/3/5 60/3/5
f 60/3/6 57/3/6 58/3/6
f 54/5/1 56/5/1 36/5/1
f 65/4/6 67/4/6 71/4/6
f 68/5/7 67/4/7 65/4/7
f 69/4/4 70/5/4 66/5/4
f 69/4/8 71/4/8 72/5/8
f 70/5/1 72/5/1 68/5/1
