# Blender 5.0.1
# www.blender.org
mtllib Modern_Shelves_3.mtl
o Modern_Shelves_3
v 0.622485 0.137835 0.098445
v 0.622485 -0.137835 0.098445
v 0.622485 0.137835 0.032063
v 0.622485 -0.137835 0.032063
v -0.622485 0.137835 0.098445
v -0.622485 -0.137835 0.098445
v -0.622485 0.137835 0.032063
v -0.622485 -0.137835 0.032063
v 0.622485 0.137835 0.463549
v 0.622485 -0.137835 0.463549
v 0.622485 0.137835 0.397167
v 0.622485 -0.137835 0.397167
v -0.622485 0.137835 0.463549
v -0.622485 -0.137835 0.463549
v -0.622485 0.137835 0.397167
v -0.622485 -0.137835 0.397167
v 0.622485 0.137835 0.828653
v 0.622485 -0.137835 0.828653
v 0.622485 0.137835 0.762271
v 0.622485 -0.137835 0.762271
v -0.622485 0.137835 0.828653
v -0.622485 -0.137835 0.828653
v -0.622485 0.137835 0.762271
v -0.622485 -0.137835 0.762271
v 0.622485 0.137835 1.193757
v 0.622485 -0.137835 1.193757
v 0.622485 0.137835 1.127375
v 0.622485 -0.137835 1.127375
v -0.622485 0.137835 1.193757
v -0.622485 -0.137835 1.193757
v -0.622485 0.137835 1.127375
v -0.622485 -0.137835 1.127375
v 0.622485 0.137835 1.558861
v 0.622485 -0.137835 1.558861
v 0.622485 0.137835 1.492479
v 0.622485 -0.137835 1.492479
v -0.622485 0.137835 1.558861
v -0.622485 -0.137835 1.558861
v -0.622485 0.137835 1.492479
v -0.622485 -0.137835 1.492479
v -0.582160 0.101985 2.232713
v -0.609755 0.101985 2.232713
v -0.609755 0.101985 0.063240
v -0.582160 0.101985 0.063240
v -0.609755 0.057196 2.232713
v -0.582160 0.057196 2.232713
v -0.582160 0.057196 0.063240
v -0.609755 0.057196 0.063240
v -0.580316 0.108644 0.002076
v -0.580316 -0.108644 0.002076
v -0.592174 0.108644 0.038340
v -0.592174 -0.108644 0.038340
v -0.582160 -0.063287 2.232713
v -0.609755 -0.063287 2.232713
v -0.609755 -0.063287 0.063240
v -0.582160 -0.063287 0.063240
v -0.609755 -0.108076 2.232713
v -0.582160 -0.108076 2.232713
v -0.582160 -0.108076 0.063240
v -0.609755 -0.108076 0.063240
v 0.582160 0.101985 2.232713
v 0.609755 0.101985 2.232713
v 0.609755 0.101985 0.063240
v 0.582160 0.101985 0.063240
v 0.609755 0.057196 2.232713
v 0.582160 0.057196 2.232713
v 0.582160 0.057196 0.063240
v 0.609755 0.057196 0.063240
v 0.580316 0.108644 0.002076
v 0.580316 -0.108644 0.002076
v 0.592174 0.108644 0.038340
v 0.592174 -0.108644 0.038340
v 0.582160 -0.063287 2.232713
v 0.609755 -0.063287 2.232713
v 0.609755 -0.063287 0.063240
v 0.582160 -0.063287 0.063240
v 0.609755 -0.108076 2.232713
v 0.582160 -0.108076 2.232713
v 0.582160 -0.108076 0.063240
v 0.609755 -0.108076 0.063240
v 0.622485 0.137835 1.923965
v 0.622485 -0.137835 1.923965
v 0.622485 0.137835 1.857583
v 0.622485 -0.137835 1.857583
v -0.622485 0.137835 1.923965
v -0.622485 -0.137835 1.923965
v -0.622485 0.137835 1.857583
v -0.622485 -0.137835 1.857583
v 0.622485 0.137835 2.289069
v 0.622485 -0.137835 2.289069
v 0.622485 0.137835 2.222687
v 0.622485 -0.137835 2.222687
v -0.622485 0.137835 2.289069
v -0.622485 -0.137835 2.289069
v -0.622485 0.137835 2.222687
v -0.622485 -0.137835 2.222687
vn -0.0000 -1.0000 -0.0000
vn -0.0000 -0.0000 1.0000
vn 1.0000 -0.0000 -0.0000
vn -0.0000 -0.0000 -1.0000
vn -1.0000 -0.0000 -0.0000
vn -0.0000 1.0000 -0.0000
vn -0.9505 -0.0000 -0.3108
vn 0.9505 -0.0000 -0.3108
vt 0.373763 0.967363
vt 0.373763 0.950975
vt 0.033268 0.970189
vt 0.207870 0.871124
vt 0.207870 0.887512
s 0
usemtl Palette
f 6/1/1 4/1/1 2/1/1
f 1/2/2 6/1/2 2/1/2
f 3/2/3 2/1/3 4/1/3
f 4/1/4 7/2/4 3/2/4
f 6/1/5 7/2/5 8/1/5
f 5/2/6 3/2/6 7/2/6
f 14/1/1 12/1/1 10/1/1
f 9/2/2 14/1/2 10/1/2
f 11/2/3 10/1/3 12/1/3
f 12/1/4 15/2/4 11/2/4
f 14/1/5 15/2/5 16/1/5
f 13/2/6 11/2/6 15/2/6
f 22/1/1 20/1/1 18/1/1
f 17/2/2 22/1/2 18/1/2
f 19/2/3 18/1/3 20/1/3
f 20/1/4 23/2/4 19/2/4
f 22/1/5 23/2/5 24/1/5
f 21/2/6 19/2/6 23/2/6
f 30/1/1 28/1/1 26/1/1
f 25/2/2 30/1/2 26/1/2
f 27/2/3 26/1/3 28/1/3
f 28/1/4 31/2/4 27/2/4
f 30/1/5 31/2/5 32/1/5
f 29/2/6 27/2/6 31/2/6
f 38/1/1 36/1/1 34/1/1
f 33/2/2 38/1/2 34/1/2
f 35/2/3 34/1/3 36/1/3
f 36/1/4 39/2/4 35/2/4
f 38/1/5 39/2/5 40/1/5
f 37/2/6 35/2/6 39/2/6
f 42/3/5 48/3/5 45/3/5
f 47/3/1 45/3/1 48/3/1
f 44/3/3 46/3/3 47/3/3
f 42/3/6 44/3/6 43/3/6
f 69/4/6 51/4/6 71/4/6
f 52/5/7 49/4/7 50/5/7
f 69/4/4 50/5/4 49/4/4
f 54/3/5 60/3/5 57/3/5
f 59/3/1 57/3/1 60/3/1
f 56/3/3 58/3/3 59/3/3
f 54/3/6 56/3/6 55/3/6
f 68/3/3 62/3/3 65/3/3
f 65/3/1 67/3/1 68/3/1
f 66/3/5 64/3/5 67/3/5
f 64/3/6 62/3/6 63/3/6
f 69/4/8 72/5/8 70/5/8
f 80/3/3 74/3/3 77/3/3
f 77/3/1 79/3/1 80/3/1
f 78/3/5 76/3/5 79/3/5
f 76/3/6 74/3/6 75/3/6
f 50/5/1 72/5/1 52/5/1
f 86/1/1 84/1/1 82/1/1
f 81/2/2 86/1/2 82/1/2
f 83/2/3 82/1/3 84/1/3
f 84/1/4 87/2/4 83/2/4
f 86/1/5 87/2/5 88/1/5
f 85/2/6 83/2/6 87/2/6
f 94/1/1 92/1/1 90/1/1
f 89/2/2 94/1/2 90/1/2
f 91/2/3 90/1/3 92/1/3
f 92/1/4 95/2/4 91/2/4
f 94/1/5 95/2/5 96/1/5
f 93/2/6 91/2/6 95/2/6
f 6/1/1 8/1/1 4/1/1
f 1/2/2 5/2/2 6/1/2
f 3/2/3 1/2/3 2/1/3
f 4/1/4 8/1/4 7/2/4
f 6/1/5 5/2/5 7/2/5
f 5/2/6 1/2/6 3/2/6
f 14/1/1 16/1/1 12/1/1
f 9/2/2 13/2/2 14/1/2
f 11/2/3 9/2/3 10/1/3
f 12/1/4 16/1/4 15/2/4
f 14/1/5 13/2/5 15/2/5
f 13/2/6 9/2/6 11/2/6
f 22/1/1 24/1/1 20/1/1
f 17/2/2 21/2/2 22/1/2
f 19/2/3 17/2/3 18/1/3
f 20/1/4 24/1/4 23/2/4
f 22/1/5 21/2/5 23/2/5
f 21/2/6 17/2/6 19/2/6
f 30/1/1 32/1/1 28/1/1
f 25/2/2 29/2/2 30/1/2
f 27/2/3 25/2/3 26/1/3
f 28/1/4 32/1/4 31/2/4
f 30/1/5 29/2/5 31/2/5
f 29/2/6 25/2/6 27/2/6
f 38/1/1 40/1/1 36/1/1
f 33/2/2 37/2/2 38/1/2
f 35/2/3 33/2/3 34/1/3
f 36/1/4 40/1/4 39/2/4
f 38/1/5 37/2/5 39/2/5
f 37/2/6 33/2/6 35/2/6
f 42/3/5 43/3/5 48/3/5
f 47/3/1 46/3/1 45/3/1
f 44/3/3 41/3/3 46/3/3
f 42/3/6 41/3/6 44/3/6
f 69/4/6 49/4/6 51/4/6
f 52/5/7 51/4/7 49/4/7
f 69/4/4 70/5/4 50/5/4
f 54/3/5 55/3/5 60/3/5
f 59/3/1 58/3/1 57/3/1
f 56/3/3 53/3/3 58/3/3
f 54/3/6 53/3/6 56/3/6
f 68/3/3 63/3/3 62/3/3
f 65/3/1 66/3/1 67/3/1
f 66/3/5 61/3/5 64/3/5
f 64/3/6 61/3/6 62/3/6
f 69/4/8 71/4/8 72/5/8
f 80/3/3 75/3/3 74/3/3
f 77/3/1 78/3/1 79/3/1
f 78/3/5 73/3/5 76/3/5
f 76/3/6 73/3/6 74/3/6
f 50/5/1 70/5/1 72/5/1
f 86/1/1 88/1/1 84/1/1
f 81/2/2 85/2/2 86/1/2
f 83/2/3 81/2/3 82/1/3
f 84/1/4 88/1/4 87/2/4
f 86/1/5 85/2/5 87/2/5
f 85/2/6 81/2/6 83/2/6
f 94/1/1 96/1/1 92/1/1
f 89/2/2 93/2/2 94/1/2
f 91/2/3 89/2/3 90/1/3
f 92/1/4 96/1/4 95/2/4
f 94/1/5 93/2/5 95/2/5
f 93/2/6 89/2/6 91/2/6
