# Blender 5.0.1
# www.blender.org
mtllib Notepad.mtl
o Notepad.007
v -0.028423 0.133620 0.013147
v 0.082825 -0.132194 0.014404
v -0.082825 -0.132194 0.014404
v 0.028424 0.133620 0.013147
v -0.082825 -0.141130 0.002684
v 0.082825 -0.141130 0.002684
v 0.028424 0.113073 0.005474
v -0.028423 0.113073 0.005474
v 0.104892 0.143825 0.006872
v 0.104892 -0.165960 0.006872
v -0.104892 -0.165960 0.006872
v -0.104892 0.143825 0.006872
v -0.104892 -0.165960 -0.000000
v 0.104892 -0.165960 -0.000000
v -0.104892 0.143825 0.000000
v 0.104892 0.143825 0.000000
v 0.082825 0.123417 0.011400
v -0.082825 0.123417 0.011400
v -0.082825 0.123417 0.002684
v 0.082825 0.123417 0.002684
v -0.028423 0.113073 0.013986
v 0.028424 0.113073 0.013986
v -0.028423 0.133620 0.005474
v 0.028424 0.133620 0.005474
v 0.082825 -0.114847 0.011400
v -0.082825 -0.114847 0.011400
vn 1.0000 -0.0000 -0.0000
vn -0.0000 0.0408 0.9992
vn -0.0000 -0.7952 0.6063
vn -0.0000 1.0000 -0.0000
vn -0.0000 -0.0000 1.0000
vn -1.0000 -0.0000 -0.0000
vn -0.0000 -1.0000 -0.0000
vn -0.0000 -0.0000 -1.0000
vn -0.0000 0.1706 0.9853
vt 0.231002 0.780756
vt 0.231002 0.777937
vt 0.224133 0.871031
vt 0.190755 0.900630
vt 0.190755 0.871031
vt 0.197624 0.777937
vt 0.441486 0.973226
vt 0.474864 0.973226
vt 0.474864 0.939847
vt 0.441486 0.939847
vt 0.197624 0.779652
vt 0.197624 0.807537
vt 0.224133 0.900630
vt 0.231002 0.807537
s 0
usemtl Palette
f 25/1/1 2/2/1 6/2/1
f 22/3/2 1/4/2 21/5/2
f 2/2/3 5/6/3 6/2/3
f 12/7/4 16/8/4 15/7/4
f 10/9/5 12/7/5 11/10/5
f 9/8/1 14/9/1 16/8/1
f 11/10/6 15/7/6 13/10/6
f 10/9/7 13/10/7 14/9/7
f 15/7/8 14/9/8 13/10/8
f 5/6/6 26/11/6 19/12/6
f 4/13/1 7/3/1 24/13/1
f 2/2/9 26/11/9 3/6/9
f 23/4/4 4/13/4 24/13/4
f 19/12/4 17/14/4 20/14/4
f 22/3/7 8/5/7 7/3/7
f 8/5/6 1/4/6 23/4/6
f 25/1/5 18/12/5 26/11/5
f 6/2/1 20/14/1 25/1/1
f 20/14/1 17/14/1 25/1/1
f 22/3/2 4/13/2 1/4/2
f 2/2/3 3/6/3 5/6/3
f 12/7/4 9/8/4 16/8/4
f 10/9/5 9/8/5 12/7/5
f 9/8/1 10/9/1 14/9/1
f 11/10/6 12/7/6 15/7/6
f 10/9/7 11/10/7 13/10/7
f 15/7/8 16/8/8 14/9/8
f 5/6/6 3/6/6 26/11/6
f 26/11/6 18/12/6 19/12/6
f 4/13/1 22/3/1 7/3/1
f 2/2/9 25/1/9 26/11/9
f 23/4/4 1/4/4 4/13/4
f 19/12/4 18/12/4 17/14/4
f 22/3/7 21/5/7 8/5/7
f 8/5/6 21/5/6 1/4/6
f 25/1/5 17/14/5 18/12/5
