# Blender 5.0.1
# www.blender.org
mtllib Painting.mtl
o Painting.007
v -0.465350 0.010483 0.236850
v -0.465350 0.010483 -0.236850
v 0.465350 0.010483 -0.236850
v 0.465350 0.010483 0.236850
v -0.439660 -0.010399 -0.211493
v -0.439660 -0.010399 0.211493
v 0.439660 -0.010399 0.211493
v 0.439660 -0.010399 -0.211493
v -0.358834 -0.010399 -0.142395
v -0.358834 -0.010399 0.142395
v 0.358834 -0.010399 0.142395
v 0.358834 -0.010399 -0.142395
v -0.465350 -0.026226 0.236850
v -0.465350 -0.026226 -0.236850
v 0.465350 -0.026226 -0.236850
v 0.465350 -0.026226 0.236850
v -0.439660 -0.026227 -0.211493
v -0.439660 -0.026227 0.211493
v 0.439660 -0.026227 0.211493
v 0.439660 -0.026227 -0.211493
v -0.358834 -0.024819 -0.142395
v -0.358834 -0.024819 0.142395
v 0.358834 -0.024819 0.142395
v 0.358834 -0.024819 -0.142395
vn -0.0000 -0.0000 1.0000
vn 1.0000 -0.0000 -0.0000
vn -0.0000 1.0000 -0.0000
vn -0.0000 -0.0000 -1.0000
vn -0.0000 -1.0000 -0.0000
vn -1.0000 -0.0000 -0.0000
vt 0.192614 0.888928
vt 0.234710 0.888928
vt 0.963697 0.799389
vt 0.953064 0.799389
vt 0.210408 0.879874
vt 0.196236 0.894046
vt 0.196236 0.879874
vt 0.942430 0.799389
vt 0.974331 0.799389
vt 0.189944 0.966397
vt 0.187515 0.947264
vt 0.189944 0.949693
vt 0.232040 0.949693
vt 0.234468 0.968826
vt 0.232040 0.966397
vt 0.234468 0.947264
vt 0.187515 0.968826
vt 0.190185 0.891357
vt 0.190185 0.869795
vt 0.237138 0.869795
vt 0.957433 0.801441
vt 0.944944 0.801444
vt 0.955671 0.801441
vt 0.957433 0.800632
vt 0.944413 0.801444
vt 0.955671 0.800632
vt 0.943881 0.801444
vt 0.943881 0.800913
vt 0.237138 0.891357
vt 0.953064 0.788756
vt 0.963697 0.788756
vt 0.923139 0.919547
vt 0.081226 0.585453
vt 0.923139 0.585453
vt 0.234710 0.872224
vt 0.192614 0.872224
vt 0.210408 0.894046
vt 0.943349 0.801444
vt 0.944413 0.800913
vt 0.081226 0.919547
s 0
usemtl Palette
f 10/1/1 23/2/1 11/2/1
f 16/3/2 3/4/2 4/3/2
f 1/5/3 3/6/3 2/7/3
f 15/4/4 2/8/4 3/4/4
f 13/9/1 4/3/1 1/9/1
f 10/10/5 5/11/5 9/12/5
f 12/13/5 7/14/5 11/15/5
f 9/12/5 8/16/5 12/13/5
f 11/15/5 6/17/5 10/10/5
f 6/18/2 17/19/2 5/19/2
f 5/19/1 20/20/1 8/20/1
f 19/21/5 13/22/5 18/23/5
f 20/24/5 16/25/5 19/21/5
f 17/26/5 15/27/5 20/24/5
f 18/23/5 14/28/5 17/26/5
f 7/29/4 18/18/4 6/18/4
f 8/20/6 19/29/6 7/29/6
f 14/30/6 1/31/6 2/30/6
f 11/2/2 24/35/2 12/35/2
f 12/35/4 21/36/4 9/36/4
f 9/36/6 22/1/6 10/1/6
f 10/1/1 22/1/1 23/2/1
f 16/3/2 15/4/2 3/4/2
f 1/5/3 4/37/3 3/6/3
f 15/4/4 14/8/4 2/8/4
f 13/9/1 16/3/1 4/3/1
f 10/10/5 6/17/5 5/11/5
f 12/13/5 8/16/5 7/14/5
f 9/12/5 5/11/5 8/16/5
f 11/15/5 7/14/5 6/17/5
f 6/18/2 18/18/2 17/19/2
f 5/19/1 17/19/1 20/20/1
f 19/21/5 16/25/5 13/22/5
f 20/24/5 15/27/5 16/25/5
f 17/26/5 14/38/5 15/27/5
f 18/23/5 13/39/5 14/28/5
f 7/29/4 19/29/4 18/18/4
f 8/20/6 20/20/6 19/29/6
f 14/30/6 13/31/6 1/31/6
f 11/2/2 23/2/2 24/35/2
f 12/35/4 24/35/4 21/36/4
f 9/36/6 21/36/6 22/1/6
usemtl Paintings
f 23/32/5 21/33/5 24/34/5
f 23/32/5 22/40/5 21/33/5
