# Blender 5.0.1
# www.blender.org
mtllib Painting_Small.mtl
o Painting_Small.001
v -0.124809 -0.010399 -0.124809
v -0.124809 -0.010399 0.124809
v 0.124809 -0.010399 0.124809
v 0.124809 -0.010399 -0.124809
v -0.206245 -0.010399 -0.206615
v -0.206245 -0.010399 0.206613
v 0.206245 -0.010399 0.206613
v 0.206245 -0.010399 -0.206615
v 0.229192 0.010483 -0.229603
v 0.229192 0.010483 0.229601
v -0.229192 0.010483 0.229601
v -0.229192 0.010483 -0.229603
v -0.206245 -0.026226 -0.206615
v -0.206245 -0.026226 0.206613
v 0.206245 -0.026226 -0.206615
v 0.229192 -0.026226 -0.229603
v 0.206245 -0.026226 0.206613
v 0.229192 -0.026226 0.229601
v -0.229192 -0.026226 -0.229603
v -0.229192 -0.026226 0.229601
v -0.124809 -0.024819 -0.124809
v -0.124809 -0.024819 0.124809
v 0.124809 -0.024819 0.124809
v 0.124809 -0.024819 -0.124809
vn -0.0000 -0.0000 -1.0000
vn -0.0000 -1.0000 -0.0000
vn -0.0000 -0.0000 1.0000
vn 1.0000 -0.0000 -0.0000
vn -1.0000 -0.0000 -0.0000
vn -0.0000 1.0000 -0.0000
vt 0.970443 0.781315
vt 0.970443 0.795282
vt 0.202092 0.952618
vt 0.215350 0.952880
vt 0.201579 0.952880
vt 0.201579 0.938914
vt 0.202092 0.939176
vt 0.214837 0.939176
vt 0.214837 0.952618
vt 0.967325 0.787207
vt 0.967325 0.773765
vt 0.956672 0.795282
vt 0.215350 0.938913
vt 0.959276 0.803094
vt 0.973047 0.803094
vt 0.973047 0.789128
vt 0.959276 0.789128
vt 0.214666 0.866653
vt 0.228436 0.880620
vt 0.228436 0.866653
vt 0.956672 0.781315
vt 0.353654 0.493654
vt 0.011346 0.151346
vt 0.353654 0.151347
vt 0.954581 0.773765
vt 0.954581 0.787207
vt 0.214666 0.880620
vt 0.011346 0.493654
s 0
usemtl Palette
f 7/1/1 14/2/1 6/2/1
f 1/3/2 6/4/2 5/5/2
f 1/3/2 8/6/2 4/7/2
f 3/8/2 6/4/2 2/9/2
f 2/10/3 23/11/3 3/11/3
f 6/2/4 13/12/4 5/12/4
f 4/7/2 7/13/2 3/8/2
f 19/14/5 11/15/5 12/14/5
f 18/16/4 9/17/4 10/16/4
f 20/15/3 10/16/3 11/15/3
f 9/18/6 11/19/6 10/20/6
f 13/14/2 16/17/2 15/17/2
f 14/15/2 19/14/2 13/14/2
f 15/17/2 18/16/2 17/16/2
f 17/16/2 20/15/2 14/15/2
f 8/21/5 17/1/5 7/1/5
f 5/12/3 15/21/3 8/21/3
f 16/17/1 12/14/1 9/17/1
f 3/11/4 24/25/4 4/25/4
f 4/25/1 21/26/1 1/26/1
f 1/26/5 22/10/5 2/10/5
f 7/1/1 17/1/1 14/2/1
f 1/3/2 2/9/2 6/4/2
f 1/3/2 5/5/2 8/6/2
f 3/8/2 7/13/2 6/4/2
f 2/10/3 22/10/3 23/11/3
f 6/2/4 14/2/4 13/12/4
f 4/7/2 8/6/2 7/13/2
f 19/14/5 20/15/5 11/15/5
f 18/16/4 16/17/4 9/17/4
f 20/15/3 18/16/3 10/16/3
f 9/18/6 12/27/6 11/19/6
f 13/14/2 19/14/2 16/17/2
f 14/15/2 20/15/2 19/14/2
f 15/17/2 16/17/2 18/16/2
f 17/16/2 18/16/2 20/15/2
f 8/21/5 15/21/5 17/1/5
f 5/12/3 13/12/3 15/21/3
f 16/17/1 19/14/1 12/14/1
f 3/11/4 23/11/4 24/25/4
f 4/25/1 24/25/1 21/26/1
f 1/26/5 21/26/5 22/10/5
usemtl Paintings
f 23/22/2 21/23/2 24/24/2
f 23/22/2 22/28/2 21/23/2
