# Blender 5.0.1
# www.blender.org
mtllib Painting_Photo.mtl
o Painting_Photo
v -0.087936 -0.010399 -0.059476
v -0.087936 -0.010399 0.148168
v 0.087936 -0.010399 0.148168
v 0.087936 -0.010399 -0.059476
v -0.125475 -0.010399 -0.181634
v -0.125475 -0.010399 0.183689
v 0.125475 -0.010399 0.183689
v 0.125475 -0.010399 -0.181634
v 0.148784 0.010483 -0.204622
v 0.148784 0.010483 0.206677
v -0.148784 0.010483 0.206677
v -0.148784 0.010483 -0.204622
v -0.125475 -0.026226 -0.181634
v -0.125475 -0.026226 0.183689
v 0.125475 -0.026226 -0.181634
v 0.148784 -0.026226 -0.204622
v 0.125475 -0.026226 0.183689
v 0.148784 -0.026226 0.206677
v -0.148784 -0.026226 -0.204622
v -0.148784 -0.026226 0.206677
v -0.087936 -0.024819 -0.059476
v -0.087936 -0.024819 0.148168
v 0.087936 -0.024819 0.148168
v 0.087936 -0.024819 -0.059476
v -0.040937 -0.022854 -0.124763
v 0.040937 -0.022854 -0.124763
v 0.048542 -0.022854 -0.106977
v -0.048542 -0.022854 -0.106977
v 0.040937 -0.010399 -0.124763
v 0.048542 -0.010399 -0.106977
v -0.048542 -0.010399 -0.106977
v -0.040937 -0.010399 -0.124763
vn -0.0000 -0.0000 -1.0000
vn -0.0000 -1.0000 -0.0000
vn -0.0000 -0.0000 1.0000
vn 1.0000 -0.0000 -0.0000
vn -1.0000 -0.0000 -0.0000
vn -0.0000 1.0000 -0.0000
vn -0.9195 -0.0000 -0.3931
vn 0.9195 -0.0000 -0.3931
vt 0.627903 0.957741
vt 0.627903 0.971708
vt 0.201824 0.952556
vt 0.215350 0.952880
vt 0.201579 0.952880
vt 0.202092 0.951590
vt 0.201579 0.938914
vt 0.202092 0.940204
vt 0.214837 0.951590
vt 0.215350 0.938913
vt 0.127260 0.884537
vt 0.127260 0.873152
vt 0.614132 0.971708
vt 0.201824 0.939237
vt 0.215105 0.939237
vt 0.616736 0.971303
vt 0.630507 0.971303
vt 0.630507 0.957336
vt 0.616736 0.957336
vt 0.124725 0.954459
vt 0.138495 0.968425
vt 0.138495 0.954459
vt 0.614132 0.957741
vt 0.843153 0.493654
vt 0.553221 0.151346
vt 0.843153 0.151347
vt 0.127260 0.872123
vt 0.114516 0.872123
vt 0.114516 0.873152
vt 0.114516 0.884537
vt 0.114516 0.884537
vt 0.114516 0.885566
vt 0.127260 0.885566
vt 0.115461 0.887486
vt 0.115461 0.901453
vt 0.215105 0.952557
vt 0.214837 0.940204
vt 0.124725 0.968425
vt 0.553221 0.493654
vt 0.114516 0.873152
s 0
usemtl Palette
f 7/1/1 14/2/1 6/2/1
f 1/3/2 6/4/2 5/5/2
f 1/6/2 8/7/2 4/8/2
f 2/9/2 7/10/2 6/4/2
f 2/11/3 23/12/3 3/12/3
f 6/2/4 13/13/4 5/13/4
f 4/14/2 7/10/2 3/15/2
f 19/16/5 11/17/5 12/16/5
f 18/18/4 9/19/4 10/18/4
f 20/17/3 10/18/3 11/17/3
f 9/20/6 11/21/6 10/22/6
f 13/16/2 16/19/2 15/19/2
f 14/17/2 19/16/2 13/16/2
f 15/19/2 18/18/2 17/18/2
f 17/18/2 20/17/2 14/17/2
f 8/23/5 17/1/5 7/1/5
f 5/13/3 15/23/3 8/23/3
f 16/19/1 12/16/1 9/19/1
f 3/27/4 24/28/4 4/28/4
f 4/29/1 21/30/1 1/31/1
f 1/32/5 22/33/5 2/33/5
f 27/34/2 25/35/2 26/34/2
f 25/35/1 29/34/1 26/34/1
f 28/35/7 32/35/7 25/35/7
f 27/34/3 31/35/3 28/35/3
f 26/34/8 30/34/8 27/34/8
f 7/1/1 17/1/1 14/2/1
f 1/3/2 2/36/2 6/4/2
f 1/6/2 5/5/2 8/7/2
f 2/9/2 3/37/2 7/10/2
f 2/11/3 22/11/3 23/12/3
f 6/2/4 14/2/4 13/13/4
f 4/14/2 8/7/2 7/10/2
f 19/16/5 20/17/5 11/17/5
f 18/18/4 16/19/4 9/19/4
f 20/17/3 18/18/3 10/18/3
f 9/20/6 12/38/6 11/21/6
f 13/16/2 19/16/2 16/19/2
f 14/17/2 20/17/2 19/16/2
f 15/19/2 16/19/2 18/18/2
f 17/18/2 18/18/2 20/17/2
f 8/23/5 15/23/5 17/1/5
f 5/13/3 13/13/3 15/23/3
f 16/19/1 19/16/1 12/16/1
f 3/27/4 23/27/4 24/28/4
f 4/29/1 24/40/1 21/30/1
f 1/32/5 21/32/5 22/33/5
f 27/34/2 28/35/2 25/35/2
f 25/35/1 32/35/1 29/34/1
f 28/35/7 31/35/7 32/35/7
f 27/34/3 30/34/3 31/35/3
f 26/34/8 29/34/8 30/34/8
usemtl Paintings
f 23/24/2 21/25/2 24/26/2
f 23/24/2 22/39/2 21/25/2
