# Blender 5.0.1
# www.blender.org
mtllib Pc_Case.mtl
o Pc_Case
v -0.073149 -0.181106 0.001267
v -0.056847 0.183242 0.222711
v -0.056847 0.183242 0.058385
v -0.073149 -0.181106 0.398030
v 0.058801 0.183242 0.222711
v 0.058801 0.183242 0.058385
v 0.075103 -0.181106 0.001267
v 0.075103 -0.181106 0.398030
v -0.067820 -0.184184 0.333384
v -0.067820 -0.184184 0.372308
v 0.069774 -0.184184 0.333384
v 0.069774 -0.184184 0.372308
v 0.069774 -0.178134 0.333384
v -0.067820 -0.178134 0.333384
v 0.069774 -0.178134 0.372308
v -0.067820 -0.178134 0.372308
v -0.067820 -0.184184 0.291070
v -0.067820 -0.184184 0.329994
v 0.069774 -0.184184 0.291070
v 0.069774 -0.184184 0.329994
v 0.069774 -0.178134 0.291070
v -0.067820 -0.178134 0.291070
v 0.069774 -0.178134 0.329994
v -0.067820 -0.178134 0.329994
v -0.067820 -0.184184 0.248586
v -0.067820 -0.184184 0.287510
v 0.069774 -0.184184 0.248586
v 0.069774 -0.184184 0.287510
v 0.069774 -0.178134 0.248586
v -0.067820 -0.178134 0.248586
v 0.069774 -0.178134 0.287510
v -0.067820 -0.178134 0.287510
v -0.067820 -0.184224 0.217632
v -0.067820 -0.184224 0.232374
v 0.069774 -0.184224 0.217632
v 0.069774 -0.184224 0.232374
v 0.069774 -0.178173 0.217632
v -0.067820 -0.178173 0.217632
v 0.069774 -0.178173 0.232374
v -0.067820 -0.178173 0.232374
v -0.000000 -0.174570 0.203008
v -0.000000 -0.183531 0.197074
v 0.010501 -0.174570 0.199186
v 0.006687 -0.183531 0.194640
v 0.016089 -0.174570 0.189508
v 0.010245 -0.183531 0.188477
v 0.014149 -0.174570 0.178502
v 0.009009 -0.183531 0.181469
v 0.005588 -0.174570 0.171318
v 0.003558 -0.183531 0.176895
v -0.005588 -0.174570 0.171318
v -0.003558 -0.183531 0.176895
v -0.014149 -0.174570 0.178502
v -0.009010 -0.183531 0.181469
v -0.016089 -0.174570 0.189508
v -0.010245 -0.183531 0.188477
v -0.010502 -0.174570 0.199186
v -0.006687 -0.183531 0.194640
v -0.000000 -0.184570 0.200688
v 0.009010 -0.184570 0.197408
v 0.013804 -0.184570 0.189105
v 0.012139 -0.184570 0.179662
v 0.004794 -0.184570 0.173499
v -0.004794 -0.184570 0.173499
v -0.012139 -0.184570 0.179662
v -0.013804 -0.184570 0.189105
v -0.009010 -0.184570 0.197408
v 0.081473 0.183242 0.411443
v -0.079519 0.183242 0.411443
v -0.079519 0.183242 -0.002436
v 0.081473 0.183242 -0.002436
v 0.058801 0.177198 0.222711
v -0.056847 0.177198 0.222711
v -0.056847 0.177198 0.058385
v 0.058801 0.177198 0.058385
v -0.079519 -0.153379 -0.002436
v -0.079519 -0.153379 0.411443
v 0.081473 -0.153379 -0.002436
v 0.081473 -0.153379 0.411443
v -0.000000 -0.173985 0.165709
v 0.006256 -0.173985 0.163432
v 0.009585 -0.173985 0.157666
v 0.008429 -0.173985 0.151110
v 0.003329 -0.173985 0.146830
v -0.003329 -0.173985 0.146830
v -0.008429 -0.173985 0.151110
v -0.009585 -0.173985 0.157666
v -0.006256 -0.173985 0.163432
v 0.000000 -0.183985 0.164327
v 0.005368 -0.183985 0.162373
v 0.008224 -0.183985 0.157426
v 0.007232 -0.183985 0.151801
v 0.002856 -0.183985 0.148129
v -0.002856 -0.183985 0.148129
v -0.007232 -0.183985 0.151801
v -0.008224 -0.183985 0.157426
v -0.005368 -0.183985 0.162373
v 0.019763 0.068211 0.441544
v -0.017809 0.068211 0.441544
v -0.017809 -0.050471 0.441544
v 0.019763 -0.050471 0.441544
v 0.019763 0.081757 0.406706
v -0.017809 0.081757 0.406706
v -0.017809 -0.071973 0.406706
v 0.019763 -0.071973 0.406706
v 0.019763 0.058473 0.431050
v -0.017809 0.058473 0.431050
v -0.017809 -0.042349 0.431050
v 0.019763 -0.042349 0.431050
v 0.019763 0.072644 0.396211
v -0.017809 0.072644 0.396211
v -0.017809 -0.062978 0.396211
v 0.019763 -0.062978 0.396211
vn -0.0000 -0.4355 0.9002
vn -0.0000 -0.0000 1.0000
vn -0.9746 -0.2239 -0.0000
vn -0.0000 -0.0000 -1.0000
vn -0.0000 -1.0000 -0.0000
vn 0.9746 -0.2239 -0.0000
vn -1.0000 -0.0000 -0.0000
vn 1.0000 -0.0000 -0.0000
vn 0.3342 -0.2130 0.9181
vn 0.8461 -0.2130 0.4885
vn 0.9622 -0.2130 -0.1697
vn 0.6280 -0.2130 -0.7485
vn -0.0000 -0.2130 -0.9770
vn -0.6280 -0.2130 -0.7485
vn -0.9622 -0.2130 -0.1697
vn -0.8461 -0.2130 0.4885
vn -0.3342 -0.2130 0.9181
vn -0.1001 -0.9562 -0.2750
vn -0.2534 -0.9562 -0.1463
vn -0.2881 -0.9562 0.0508
vn -0.1881 -0.9562 0.2241
vn -0.0000 -0.9562 0.2926
vn 0.1881 -0.9562 0.2241
vn 0.2882 -0.9562 0.0508
vn 0.2534 -0.9562 -0.1463
vn 0.1001 -0.9562 -0.2750
vn -0.0000 1.0000 -0.0000
vn -0.0000 -0.1324 -0.9912
vn 0.3392 -0.1288 0.9319
vn 0.8588 -0.1288 0.4958
vn 0.9766 -0.1288 -0.1722
vn 0.6374 -0.1288 -0.7597
vn -0.0000 -0.1288 -0.9917
vn -0.6374 -0.1288 -0.7597
vn -0.9766 -0.1288 -0.1722
vn -0.8588 -0.1288 0.4958
vn -0.3392 -0.1288 0.9319
vn -0.0000 -0.8510 0.5252
vn -0.0000 0.9320 0.3624
vn -0.0000 0.8605 -0.5095
vn -0.0000 -0.9263 -0.3768
vn 0.1881 -0.9562 0.2242
vt 0.233253 0.893756
vt 0.229946 0.893985
vt 0.209571 0.884242
vt 0.209362 0.895389
vt 0.219321 0.895389
vt 0.219412 0.895389
vt 0.126268 0.865039
vt 0.209558 0.872475
vt 0.219517 0.872475
vt 0.205165 0.887137
vt 0.199923 0.883150
vt 0.209882 0.883150
vt 0.050980 0.957233
vt 0.041021 0.957233
vt 0.050980 0.957233
vt 0.229227 0.893697
vt 0.225177 0.857247
vt 0.229227 0.857247
vt 0.225177 0.893697
vt 0.221127 0.857247
vt 0.217077 0.893697
vt 0.217077 0.857247
vt 0.213027 0.893697
vt 0.213027 0.857247
vt 0.208977 0.893697
vt 0.208977 0.857247
vt 0.204927 0.893697
vt 0.204927 0.857247
vt 0.200877 0.893697
vt 0.200877 0.857247
vt 0.196827 0.857247
vt 0.196827 0.893697
vt 0.192777 0.857247
vt 0.117762 0.877035
vt 0.124749 0.877035
vt 0.131164 0.877035
vt 0.047292 0.891093
vt 0.022009 0.891093
vt 0.029126 0.891093
vt 0.048118 0.891093
vt 0.054409 0.891093
vt 0.045094 0.891093
vt 0.050359 0.891093
vt 0.042259 0.891093
vt 0.046309 0.891093
vt 0.041702 0.891093
vt 0.038209 0.891093
vt 0.038209 0.891092
vt 0.034159 0.891093
vt 0.034716 0.891093
vt 0.030109 0.891093
vt 0.028301 0.891093
vt 0.031324 0.891093
vt 0.026059 0.891093
vt 0.110195 0.881638
vt 0.110648 0.881638
vt 0.099496 0.881638
vt 0.099949 0.881638
vt 0.219817 0.884242
vt 0.219817 0.884242
vt 0.141158 0.883568
vt 0.101015 0.886347
vt 0.215057 0.875456
vt 0.120573 0.884973
vt 0.130623 0.884973
vt 0.131725 0.884973
vt 0.108039 0.875468
vt 0.124239 0.875468
vt 0.132339 0.875468
vt 0.224738 0.880964
vt 0.184595 0.883743
vt 0.204350 0.888100
vt 0.221127 0.893697
vt 0.192777 0.893697
vt 0.130339 0.877035
vt 0.112172 0.877035
vt 0.111347 0.877035
vt 0.114370 0.877035
vt 0.121256 0.877035
vt 0.128141 0.877035
vt 0.116376 0.876721
vt 0.120573 0.884973
vt 0.136389 0.875468
vt 0.103989 0.875468
vt 0.112089 0.875468
vt 0.116139 0.875468
vt 0.120189 0.875468
vt 0.128289 0.875468
s 0
usemtl Palette
f 4/1/1 79/2/1 77/2/1
f 3/3/2 75/3/2 6/3/2
f 76/4/3 4/5/3 77/6/3
f 70/7/4 78/7/4 76/7/4
f 7/8/5 4/9/5 1/8/5
f 8/1/6 78/10/6 79/2/6
f 11/11/5 10/12/5 9/11/5
f 19/11/5 18/12/5 17/11/5
f 16/13/7 9/14/7 10/13/7
f 15/15/2 10/13/2 12/15/2
f 13/14/8 12/15/8 11/14/8
f 14/14/4 11/14/4 9/14/4
f 24/13/7 17/14/7 18/13/7
f 23/15/2 18/13/2 20/15/2
f 21/14/8 20/15/8 19/14/8
f 22/14/4 19/14/4 17/14/4
f 27/11/5 26/12/5 25/11/5
f 32/13/7 25/14/7 26/13/7
f 31/15/2 26/13/2 28/15/2
f 29/14/8 28/15/8 27/14/8
f 30/14/4 27/14/4 25/14/4
f 35/11/5 34/12/5 33/11/5
f 40/13/7 33/14/7 34/13/7
f 39/15/2 34/13/2 36/15/2
f 37/14/8 36/15/8 35/14/8
f 38/14/4 35/14/4 33/14/4
f 59/16/9 43/17/9 41/18/9
f 60/19/10 45/20/10 43/17/10
f 45/20/11 62/21/11 47/22/11
f 47/22/12 63/23/12 49/24/12
f 49/24/13 64/25/13 51/26/13
f 51/26/14 65/27/14 53/28/14
f 53/28/15 66/29/15 55/30/15
f 66/29/16 57/31/16 55/30/16
f 67/32/17 41/33/17 57/31/17
f 54/34/5 50/35/5 46/36/5
f 44/37/18 59/38/18 42/39/18
f 46/40/19 60/41/19 44/37/19
f 48/42/20 61/43/20 46/40/20
f 48/42/21 63/44/21 62/45/21
f 50/46/22 64/47/22 63/44/22
f 52/48/23 65/49/23 64/47/23
f 54/50/24 66/51/24 65/49/24
f 58/52/25 66/51/25 56/53/25
f 42/39/26 67/54/26 58/52/26
f 2/55/27 68/56/27 5/55/27
f 2/55/27 70/57/27 69/56/27
f 5/55/27 71/57/27 6/58/27
f 6/58/27 70/57/27 3/58/27
f 73/59/27 75/3/27 74/3/27
f 2/59/8 74/3/8 3/3/8
f 6/3/7 72/60/7 5/60/7
f 5/60/4 73/59/4 2/59/4
f 79/61/8 71/7/8 68/62/8
f 76/63/28 7/63/28 1/63/28
f 70/64/7 77/65/7 69/66/7
f 77/61/2 68/62/2 69/62/2
f 89/16/29 81/17/29 80/18/29
f 90/19/30 82/20/30 81/17/30
f 82/20/31 92/21/31 83/22/31
f 83/22/32 93/23/32 84/24/32
f 84/24/33 94/25/33 85/26/33
f 85/26/34 95/27/34 86/28/34
f 95/27/35 87/30/35 86/28/35
f 96/29/36 88/31/36 87/30/36
f 97/32/37 80/33/37 88/31/37
f 97/67/5 93/68/5 91/69/5
f 100/70/2 98/71/2 99/71/2
f 100/70/38 105/70/38 101/70/38
f 98/71/39 103/71/39 99/71/39
f 106/71/4 108/70/4 107/71/4
f 113/70/40 108/70/40 109/70/40
f 111/71/41 106/71/41 107/71/41
f 107/71/7 100/70/7 99/71/7
f 103/71/7 107/71/7 99/71/7
f 105/70/8 109/70/8 101/70/8
f 101/70/8 106/71/8 98/71/8
f 106/71/8 102/71/8 98/71/8
f 108/70/7 104/70/7 100/70/7
f 4/1/1 8/1/1 79/2/1
f 3/3/2 74/3/2 75/3/2
f 76/4/3 1/4/3 4/5/3
f 70/7/4 71/7/4 78/7/4
f 7/8/5 8/9/5 4/9/5
f 8/1/6 7/72/6 78/10/6
f 11/11/5 12/12/5 10/12/5
f 19/11/5 20/12/5 18/12/5
f 16/13/7 14/14/7 9/14/7
f 15/15/2 16/13/2 10/13/2
f 13/14/8 15/15/8 12/15/8
f 14/14/4 13/14/4 11/14/4
f 24/13/7 22/14/7 17/14/7
f 23/15/2 24/13/2 18/13/2
f 21/14/8 23/15/8 20/15/8
f 22/14/4 21/14/4 19/14/4
f 27/11/5 28/12/5 26/12/5
f 32/13/7 30/14/7 25/14/7
f 31/15/2 32/13/2 26/13/2
f 29/14/8 31/15/8 28/15/8
f 30/14/4 29/14/4 27/14/4
f 35/11/5 36/12/5 34/12/5
f 40/13/7 38/14/7 33/14/7
f 39/15/2 40/13/2 34/13/2
f 37/14/8 39/15/8 36/15/8
f 38/14/4 37/14/4 35/14/4
f 59/16/9 60/19/9 43/17/9
f 60/19/10 61/73/10 45/20/10
f 45/20/11 61/73/11 62/21/11
f 47/22/12 62/21/12 63/23/12
f 49/24/13 63/23/13 64/25/13
f 51/26/14 64/25/14 65/27/14
f 53/28/15 65/27/15 66/29/15
f 66/29/16 67/32/16 57/31/16
f 67/32/17 59/74/17 41/33/17
f 44/75/5 42/76/5 58/77/5
f 58/77/5 56/78/5 54/34/5
f 54/34/5 52/79/5 50/35/5
f 50/35/5 48/80/5 46/36/5
f 46/36/5 44/75/5 58/77/5
f 58/77/5 54/34/5 46/36/5
f 44/37/18 60/41/18 59/38/18
f 46/40/19 61/43/19 60/41/19
f 48/42/20 62/45/20 61/43/20
f 48/42/21 50/46/21 63/44/21
f 50/46/22 52/48/22 64/47/22
f 52/48/42 54/50/42 65/49/42
f 54/50/24 56/53/24 66/51/24
f 58/52/25 67/54/25 66/51/25
f 42/39/26 59/38/26 67/54/26
f 2/55/27 69/56/27 68/56/27
f 2/55/27 3/58/27 70/57/27
f 5/55/27 68/56/27 71/57/27
f 6/58/27 71/57/27 70/57/27
f 73/59/27 72/60/27 75/3/27
f 2/59/8 73/59/8 74/3/8
f 6/3/7 75/3/7 72/60/7
f 5/60/4 72/60/4 73/59/4
f 79/61/8 78/81/8 71/7/8
f 76/63/28 78/63/28 7/63/28
f 70/64/7 76/82/7 77/65/7
f 77/61/2 79/61/2 68/62/2
f 89/16/29 90/19/29 81/17/29
f 90/19/30 91/73/30 82/20/30
f 82/20/31 91/73/31 92/21/31
f 83/22/32 92/21/32 93/23/32
f 84/24/33 93/23/33 94/25/33
f 85/26/34 94/25/34 95/27/34
f 95/27/35 96/29/35 87/30/35
f 96/29/36 97/32/36 88/31/36
f 97/32/37 89/74/37 80/33/37
f 90/83/5 89/84/5 97/67/5
f 97/67/5 96/85/5 93/68/5
f 96/85/5 95/86/5 93/68/5
f 95/86/5 94/87/5 93/68/5
f 93/68/5 92/88/5 91/69/5
f 91/69/5 90/83/5 97/67/5
f 100/70/2 101/70/2 98/71/2
f 100/70/38 104/70/38 105/70/38
f 98/71/39 102/71/39 103/71/39
f 106/71/4 109/70/4 108/70/4
f 113/70/40 112/70/40 108/70/40
f 111/71/41 110/71/41 106/71/41
f 107/71/7 108/70/7 100/70/7
f 103/71/7 111/71/7 107/71/7
f 105/70/8 113/70/8 109/70/8
f 101/70/8 109/70/8 106/71/8
f 106/71/8 110/71/8 102/71/8
f 108/70/7 112/70/7 104/70/7
