# Blender 5.0.1
# www.blender.org
mtllib Pc_Keyboard.mtl
o Pc_Keyboard
v -0.210100 -0.095505 -0.002436
v -0.210100 0.074507 -0.002436
v 0.210100 -0.095505 -0.002436
v 0.210100 0.074507 -0.002436
v -0.210100 0.070436 0.026804
v 0.210100 0.070436 0.026804
v 0.091447 0.045522 0.032730
v 0.194262 0.045524 0.032730
v -0.193495 0.060130 0.034008
v 0.061984 0.060129 0.034008
v 0.061984 0.041315 0.032362
v -0.193495 0.041314 0.032362
v -0.193495 0.019881 0.030021
v 0.123393 0.019879 0.030021
v 0.123394 -0.032128 0.025471
v 0.060628 -0.032131 0.025471
v 0.060628 -0.068020 0.022331
v -0.193495 -0.068024 0.022331
v 0.068009 -0.068021 0.022331
v 0.118246 -0.068023 0.022331
v 0.118246 -0.050826 0.023835
v 0.102333 -0.050826 0.023835
v 0.102333 -0.035165 0.025206
v 0.083541 -0.035167 0.025205
v 0.083549 -0.050826 0.023835
v 0.068009 -0.050828 0.023835
v 0.194262 0.060129 0.034008
v 0.091446 0.060130 0.034008
v 0.194262 0.020821 0.030104
v 0.194262 -0.050821 0.023836
v 0.141391 0.020822 0.030104
v 0.141391 -0.050824 0.023836
v 0.091447 0.046518 0.021344
v 0.091446 0.061127 0.022622
v 0.194262 0.046520 0.021344
v -0.193495 0.061127 0.022622
v 0.061984 0.061125 0.022622
v 0.061984 0.042312 0.020976
v -0.193495 0.042310 0.020976
v -0.193495 0.020877 0.018635
v 0.123393 0.020875 0.018635
v 0.123394 -0.031132 0.014085
v 0.060628 -0.031135 0.014085
v 0.060628 -0.067024 0.010945
v -0.193495 -0.067028 0.010945
v 0.068009 -0.067025 0.010945
v 0.118246 -0.067027 0.010945
v 0.118246 -0.049830 0.012449
v 0.102333 -0.049830 0.012449
v 0.102333 -0.034169 0.013819
v 0.083541 -0.034170 0.013819
v 0.083549 -0.049830 0.012449
v 0.068009 -0.049831 0.012449
v 0.194262 0.021817 0.018717
v 0.194262 -0.049825 0.012450
v 0.194262 0.061125 0.022622
v 0.141391 -0.049828 0.012449
v 0.141391 0.021818 0.018718
v -0.210100 -0.086716 0.011994
v 0.210100 -0.086716 0.011993
vn -0.0000 0.9904 0.1379
vn -0.0000 -0.8540 0.5202
vn -0.0000 -0.0000 -1.0000
vn 1.0000 -0.0000 -0.0000
vn -0.0000 -0.0872 0.9962
vn 0.0001 -0.9962 -0.0872
vn -0.0000 -0.9962 -0.0872
vn -0.0001 0.9962 0.0872
vn -1.0000 -0.0000 -0.0000
vn -0.0000 0.9962 0.0872
vn -1.0000 -0.0005 -0.0000
vn -0.0000 -0.0938 0.9956
vt 0.210264 0.869236
vt 0.206459 0.880651
vt 0.206459 0.869236
vt 0.207657 0.891203
vt 0.206459 0.903482
vt 0.206459 0.892066
vt 0.012302 0.867105
vt 0.012302 0.855865
vt 0.012302 0.867364
vt 0.012302 0.847358
vt 0.012302 0.871255
vt 0.012302 0.870810
vt 0.012302 0.877486
vt 0.012302 0.876247
vt 0.012302 0.875576
vt 0.012302 0.876108
vt 0.012302 0.885673
vt 0.012302 0.878940
vt 0.153240 0.881798
vt 0.153240 0.885673
vt 0.153240 0.855865
vt 0.153240 0.867364
vt 0.153240 0.876398
vt 0.153240 0.875162
vt 0.153240 0.871255
vt 0.153240 0.870810
vt 0.153240 0.876108
vt 0.153240 0.867105
vt 0.153240 0.857394
vt 0.153240 0.876247
vt 0.153240 0.847358
vt 0.153240 0.878940
vt 0.153240 0.874905
vt 0.153240 0.854322
vt 0.153240 0.875576
vt 0.153240 0.879569
vt 0.153240 0.878473
vt 0.153240 0.870311
vt 0.153240 0.877486
vt 0.153240 0.872955
vt 0.207657 0.858685
vt 0.210264 0.880651
vt 0.206459 0.857821
vt 0.207510 0.903482
vt 0.012302 0.857394
vt 0.012302 0.872955
vt 0.012302 0.870311
vt 0.012302 0.854322
vt 0.012302 0.879569
vt 0.012302 0.878473
vt 0.012302 0.876398
vt 0.012302 0.875162
vt 0.012302 0.874905
vt 0.012302 0.881798
s 1
usemtl Palette
f 5/1/1 4/2/1 2/3/1
s 2
f 60/4/2 1/5/2 3/6/2
s 3
f 4/2/3 1/5/3 2/3/3
s 4
f 4/2/4 60/4/4 3/6/4
s 5
f 27/7/5 7/8/5 8/9/5
s 6
f 10/7/5 12/8/5 11/9/5
s 7
f 18/10/5 17/11/5 16/12/5
s 8
f 22/13/5 25/14/5 19/15/5
s 9
f 31/16/5 30/17/5 29/18/5
s 10
f 57/19/6 30/20/6 32/19/6
s 11
f 7/21/7 35/22/7 8/22/7
s 12
f 50/23/8 24/24/8 23/23/8
s 13
f 44/25/4 16/26/4 17/25/4
s 14
f 58/27/9 32/19/9 31/27/9
s 15
f 10/28/10 36/29/10 9/29/10
s 16
f 51/24/11 25/30/11 24/24/11
s 17
f 45/31/7 17/25/7 18/31/7
s 18
f 29/32/10 58/27/10 31/27/10
s 19
f 38/22/4 10/28/4 11/22/4
s 20
f 52/30/8 26/33/8 25/30/8
s 21
f 13/34/9 45/31/9 18/31/9
s 22
f 12/21/7 38/22/7 11/22/7
s 23
f 26/33/9 46/35/9 19/35/9
s 24
f 46/35/7 20/36/7 19/35/7
s 25
f 36/29/9 12/21/9 9/29/9
s 26
f 55/20/4 29/32/4 30/20/4
s 27
f 47/36/4 21/37/4 20/36/4
s 28
f 41/38/10 13/34/10 14/38/10
s 29
f 56/28/10 28/29/10 27/28/10
s 30
f 21/37/10 49/39/10 22/39/10
s 31
f 42/40/4 14/38/4 15/40/4
s 32
f 8/22/4 56/28/4 27/28/4
s 33
f 34/29/9 7/21/9 28/29/9
s 34
f 22/39/4 50/23/4 23/23/4
s 35
f 43/26/6 15/40/6 16/26/6
s 36
f 59/41/12 6/42/12 5/1/12
s 37
f 59/41/9 2/3/9 1/43/9
s 1
f 5/1/1 6/42/1 4/2/1
s 2
f 60/4/2 59/44/2 1/5/2
s 3
f 4/2/3 3/6/3 1/5/3
s 4
f 4/2/4 6/42/4 60/4/4
s 5
f 27/7/5 28/45/5 7/8/5
s 6
f 10/7/5 9/45/5 12/8/5
s 7
f 16/12/5 15/46/5 14/47/5
f 14/47/5 13/48/5 16/12/5
f 13/48/5 18/10/5 16/12/5
s 8
f 20/49/5 21/50/5 22/13/5
f 22/13/5 23/51/5 25/14/5
f 23/51/5 24/52/5 25/14/5
f 25/14/5 26/53/5 19/15/5
f 19/15/5 20/49/5 22/13/5
s 9
f 31/16/5 32/54/5 30/17/5
s 10
f 57/19/6 55/20/6 30/20/6
s 11
f 7/21/7 33/21/7 35/22/7
s 12
f 50/23/8 51/24/8 24/24/8
s 13
f 44/25/4 43/26/4 16/26/4
s 14
f 58/27/9 57/19/9 32/19/9
s 15
f 10/28/10 37/28/10 36/29/10
s 16
f 51/24/11 52/30/11 25/30/11
s 17
f 45/31/7 44/25/7 17/25/7
s 18
f 29/32/10 54/32/10 58/27/10
s 19
f 38/22/4 37/28/4 10/28/4
s 20
f 52/30/8 53/33/8 26/33/8
s 21
f 13/34/9 40/34/9 45/31/9
s 22
f 12/21/7 39/21/7 38/22/7
s 23
f 26/33/9 53/33/9 46/35/9
s 24
f 46/35/7 47/36/7 20/36/7
s 25
f 36/29/9 39/21/9 12/21/9
s 26
f 55/20/4 54/32/4 29/32/4
s 27
f 47/36/4 48/37/4 21/37/4
s 28
f 41/38/10 40/34/10 13/34/10
s 29
f 56/28/10 34/29/10 28/29/10
s 30
f 21/37/10 48/37/10 49/39/10
s 31
f 42/40/4 41/38/4 14/38/4
s 32
f 8/22/4 35/22/4 56/28/4
s 33
f 34/29/9 33/21/9 7/21/9
s 34
f 22/39/4 49/39/4 50/23/4
s 35
f 43/26/6 42/40/6 15/40/6
s 36
f 59/41/12 60/4/12 6/42/12
s 37
f 59/41/9 5/1/9 2/3/9
