# Blender 5.0.1
# www.blender.org
mtllib Pc_Mouse_Pad.mtl
o Pc_Mouse_Pad
v 0.000000 0.147545 0.000000
v 0.000000 -0.144270 0.000000
v 0.053627 -0.134712 0.000000
v 0.076490 -0.112602 0.000000
v 0.130111 0.004970 0.000000
v 0.125773 0.056839 0.000000
v 0.097843 0.106446 0.000000
v 0.049005 0.139079 0.000000
v 0.000000 0.147545 0.006057
v 0.000000 -0.144270 0.006057
v 0.053627 -0.134712 0.006057
v 0.076490 -0.112602 0.006057
v 0.130111 0.004970 0.006057
v 0.125773 0.056839 0.006057
v 0.097843 0.106446 0.006057
v 0.049005 0.139079 0.006057
v 0.040092 -0.052670 0.006853
v 0.070953 -0.078102 0.006853
v 0.000000 -0.047643 0.006853
v 0.047862 -0.086420 0.021599
v 0.067095 -0.078928 0.013783
v 0.059989 -0.081238 0.019599
v 0.028806 -0.071186 0.022269
v 0.037994 -0.055142 0.013782
v 0.033775 -0.060186 0.019827
v 0.051090 -0.132512 0.013038
v 0.039841 -0.117560 0.021669
v 0.046281 -0.127966 0.019115
v 0.000000 -0.141830 0.013192
v 0.000000 -0.126219 0.021735
v 0.000000 -0.137335 0.019183
v 0.072125 -0.111013 0.013034
v 0.048005 -0.101254 0.021878
v 0.063568 -0.107775 0.019185
v 0.000000 -0.065186 0.022204
v 0.000000 -0.049991 0.013887
v 0.000000 -0.054428 0.019836
v 0.117745 -0.037179 0.000000
v 0.088363 -0.073727 0.000000
v 0.088363 -0.073727 0.006057
v 0.117745 -0.037179 0.006057
v -0.053627 -0.134712 0.000000
v -0.076490 -0.112602 0.000000
v -0.130111 0.004970 0.000000
v -0.125773 0.056839 0.000000
v -0.097843 0.106446 0.000000
v -0.049005 0.139079 0.000000
v -0.053627 -0.134712 0.006057
v -0.076490 -0.112602 0.006057
v -0.130111 0.004970 0.006057
v -0.125773 0.056839 0.006057
v -0.097843 0.106446 0.006057
v -0.049005 0.139079 0.006057
v -0.040092 -0.052670 0.006853
v -0.070953 -0.078102 0.006853
v -0.047862 -0.086420 0.021599
v -0.067095 -0.078928 0.013783
v -0.059989 -0.081238 0.019599
v -0.028806 -0.071186 0.022269
v -0.037994 -0.055142 0.013782
v -0.033775 -0.060186 0.019827
v -0.051090 -0.132512 0.013038
v -0.039841 -0.117560 0.021669
v -0.046281 -0.127966 0.019115
v -0.072125 -0.111013 0.013034
v -0.048005 -0.101254 0.021878
v -0.063568 -0.107775 0.019185
v -0.117745 -0.037179 0.000000
v -0.088363 -0.073727 0.000000
v -0.088363 -0.073727 0.006057
v -0.117745 -0.037179 0.006057
vn 0.4570 -0.8638 0.2123
vn 0.7155 -0.2403 0.6560
vn 0.3758 -0.7299 0.5710
vn 0.7336 0.6796 -0.0000
vn 0.9559 0.2937 -0.0000
vn 0.3710 0.9286 -0.0000
vn -0.0000 1.0000 -0.0000
vn 0.4551 -0.8904 -0.0000
vn -0.0000 -0.9855 0.1694
vn -0.0000 -1.0000 -0.0000
vn 0.8529 -0.5221 -0.0000
vn 0.0050 0.0026 1.0000
vn 0.8838 -0.4678 -0.0000
vn 0.8673 -0.4338 0.2441
vn 0.9949 -0.1008 -0.0000
vn 0.8864 -0.4629 -0.0000
vn 0.7736 0.4039 0.4883
vn -0.0000 0.9394 0.3428
vn 0.3318 0.7709 0.5437
vn 0.3811 0.8363 0.3941
vn 0.0495 0.0950 0.9943
vn -0.0000 0.1142 0.9935
vn -0.0000 -0.1277 0.9918
vn -0.0000 -0.8728 0.4881
vn 0.3886 0.2320 0.8917
vn 0.6727 0.3922 0.6274
vn 0.1917 0.4739 0.8594
vn 0.0960 0.0452 0.9944
vn 0.0660 -0.1072 0.9920
vn -0.0000 -0.5505 0.8349
vn 0.2237 -0.4562 0.8613
vn 0.4141 -0.1318 0.9006
vn 0.0933 -0.0290 0.9952
vn -0.0000 0.8684 0.4958
vn -0.0000 0.5378 0.8431
vn -0.0000 -0.0000 -1.0000
vn -0.4570 -0.8638 0.2123
vn -0.7155 -0.2403 0.6560
vn -0.8673 -0.4338 0.2441
vn -0.9559 0.2937 -0.0000
vn -0.7336 0.6796 -0.0000
vn -0.3710 0.9286 -0.0000
vn -0.4551 -0.8904 -0.0000
vn -0.8529 -0.5221 -0.0000
vn -0.0051 0.0026 1.0000
vn -0.8838 -0.4678 -0.0000
vn -0.9949 -0.1008 -0.0000
vn -0.8864 -0.4629 -0.0000
vn -0.7736 0.4039 0.4883
vn -0.3318 0.7709 0.5437
vn -0.3811 0.8363 0.3941
vn -0.0495 0.0950 0.9943
vn -0.0960 0.0452 0.9944
vn -0.0933 -0.0290 0.9952
vn -0.3758 -0.7299 0.5710
vn -0.3886 0.2320 0.8917
vn -0.6727 0.3922 0.6274
vn -0.1917 0.4739 0.8594
vn -0.0661 -0.1072 0.9920
vn -0.2237 -0.4562 0.8613
vn -0.4141 -0.1318 0.9006
vn 0.0051 0.0026 1.0000
vn 0.0051 0.0025 1.0000
vn 0.0050 0.0025 1.0000
vn -0.0050 0.0026 1.0000
vn -0.0050 0.0025 1.0000
vt 0.049105 0.935052
vt 0.057216 0.940471
vt 0.057216 0.975827
vt 0.062635 0.967716
vt 0.049105 0.981246
vt 0.039538 0.983149
vt 0.039538 0.933149
vt 0.057216 0.940471
vt 0.063292 0.951885
vt 0.064538 0.958149
vt 0.044909 0.946979
vt 0.061270 0.946539
vt 0.052603 0.944704
vt 0.039538 0.946979
vt 0.044909 0.946979
vt 0.045678 0.945552
vt 0.039538 0.945464
vt 0.039538 0.934671
vt 0.052644 0.944660
vt 0.044935 0.946962
vt 0.051525 0.943250
vt 0.048848 0.936629
vt 0.039568 0.933155
vt 0.049113 0.935075
vt 0.056913 0.940497
vt 0.054256 0.940718
vt 0.039550 0.946979
vt 0.061270 0.946539
s 1
usemtl Palette
f 11/1/1 32/2/2 26/1/3
f 7/3/4 14/4/5 6/4/5
f 8/5/6 15/3/4 7/3/4
f 1/6/7 16/5/6 8/5/6
f 3/1/8 10/7/9 2/7/10
f 4/8/11 11/1/1 3/1/8
s 0
f 41/9/12 13/10/12 17/11/12
s 1
f 4/8/11 40/12/13 12/8/14
f 6/4/5 13/10/15 5/10/15
f 5/10/15 41/9/16 38/9/16
f 18/13/17 32/8/2 12/8/14
f 19/14/18 24/15/19 17/11/20
f 23/16/21 35/17/22 30/18/23
f 10/7/9 26/1/3 29/7/24
f 24/15/19 22/19/25 21/13/26
f 25/20/27 20/21/28 22/19/25
f 27/22/29 31/23/30 28/24/31
f 28/24/31 29/7/24 26/1/3
f 27/22/29 34/25/32 33/26/33
f 34/25/32 26/1/3 32/2/2
f 36/14/34 25/20/27 24/15/19
f 37/27/35 23/16/21 25/20/27
f 21/13/26 34/25/32 32/8/2
f 22/19/25 33/26/33 34/25/32
f 17/11/20 21/13/26 18/13/17
f 41/9/16 39/12/13 38/9/16
s 0
f 8/5/36 6/4/36 39/28/36
s 1
f 48/1/37 65/2/38 49/8/39
f 51/4/40 46/3/41 45/4/40
f 52/3/41 47/5/42 46/3/41
f 53/5/42 1/6/7 47/5/42
f 10/7/9 42/1/43 2/7/10
f 48/1/37 43/8/44 42/1/43
s 0
f 55/13/45 54/11/45 70/12/45
s 1
f 43/8/44 70/12/46 69/12/46
f 50/10/47 45/4/40 44/10/47
f 71/9/48 44/10/47 68/9/48
f 65/8/38 55/13/49 49/8/39
f 60/15/50 19/14/18 54/11/51
f 59/16/52 56/21/53 66/26/54
f 10/7/9 62/1/55 48/1/37
f 58/19/56 60/15/50 57/13/57
f 56/21/53 61/20/58 58/19/56
f 63/22/59 31/23/30 30/18/23
f 64/24/60 29/7/24 31/23/30
f 67/25/61 63/22/59 66/26/54
f 67/25/61 62/1/55 64/24/60
f 61/20/58 36/14/34 60/15/50
f 59/16/52 37/27/35 61/20/58
f 67/25/61 57/13/57 65/8/38
f 66/26/54 58/19/56 67/25/61
f 57/13/57 54/11/51 55/13/49
f 69/12/46 71/9/48 68/9/48
s 0
f 69/28/36 45/4/36 47/5/36
s 1
f 11/1/1 12/8/14 32/2/2
f 7/3/4 15/3/4 14/4/5
f 8/5/6 16/5/6 15/3/4
f 1/6/7 9/6/7 16/5/6
f 3/1/8 11/1/1 10/7/9
f 4/8/11 12/8/14 11/1/1
s 0
f 9/6/12 19/14/12 16/5/12
f 19/14/62 17/11/62 15/3/63
f 16/5/12 19/14/12 15/3/12
f 18/13/12 12/8/12 40/12/12
f 17/11/12 18/13/62 40/12/62
f 13/10/12 14/4/12 17/11/12
f 14/4/64 15/3/64 17/11/64
f 40/12/12 41/9/12 17/11/12
s 1
f 4/8/11 39/12/13 40/12/13
f 6/4/5 14/4/5 13/10/15
f 5/10/15 13/10/15 41/9/16
f 18/13/17 21/13/26 32/8/2
f 19/14/18 36/14/34 24/15/19
f 30/18/23 27/22/29 23/16/21
f 27/22/29 33/26/33 23/16/21
f 33/26/33 20/21/28 23/16/21
f 10/7/9 11/1/1 26/1/3
f 24/15/19 25/20/27 22/19/25
f 25/20/27 23/16/21 20/21/28
f 27/22/29 30/18/23 31/23/30
f 28/24/31 31/23/30 29/7/24
f 27/22/29 28/24/31 34/25/32
f 34/25/32 28/24/31 26/1/3
f 36/14/34 37/27/35 25/20/27
f 37/27/35 35/17/22 23/16/21
f 21/13/26 22/19/25 34/25/32
f 22/19/25 20/21/28 33/26/33
f 17/11/20 24/15/19 21/13/26
f 41/9/16 40/12/13 39/12/13
s 0
f 4/8/36 3/1/36 39/28/36
f 3/1/36 2/7/36 39/28/36
f 2/7/36 1/6/36 39/28/36
f 1/6/36 8/5/36 39/28/36
f 8/5/36 7/3/36 6/4/36
f 6/4/36 5/10/36 39/28/36
f 5/10/36 38/9/36 39/28/36
s 1
f 48/1/37 62/1/55 65/2/38
f 51/4/40 52/3/41 46/3/41
f 52/3/41 53/5/42 47/5/42
f 53/5/42 9/6/7 1/6/7
f 10/7/9 48/1/37 42/1/43
f 48/1/37 49/8/39 43/8/44
s 0
f 54/11/45 19/14/45 52/3/45
f 19/14/65 9/6/65 53/5/65
f 53/5/65 52/3/65 19/14/65
f 52/3/66 51/4/66 54/11/66
f 51/4/65 50/10/65 54/11/65
f 50/10/65 71/9/65 54/11/65
f 71/9/65 70/12/65 54/11/65
f 70/12/65 49/8/65 55/13/65
s 1
f 43/8/44 49/8/39 70/12/46
f 50/10/47 51/4/40 45/4/40
f 71/9/48 50/10/47 44/10/47
f 65/8/38 57/13/57 55/13/49
f 60/15/50 36/14/34 19/14/18
f 66/26/54 63/22/59 59/16/52
f 63/22/59 30/18/23 59/16/52
f 30/18/23 35/17/22 59/16/52
f 10/7/9 29/7/24 62/1/55
f 58/19/56 61/20/58 60/15/50
f 56/21/53 59/16/52 61/20/58
f 63/22/59 64/24/60 31/23/30
f 64/24/60 62/1/55 29/7/24
f 67/25/61 64/24/60 63/22/59
f 67/25/61 65/2/38 62/1/55
f 61/20/58 37/27/35 36/14/34
f 59/16/52 35/17/22 37/27/35
f 67/25/61 58/19/56 57/13/57
f 66/26/54 56/21/53 58/19/56
f 57/13/57 60/15/50 54/11/51
f 69/12/46 70/12/46 71/9/48
s 0
f 2/7/36 42/1/36 69/28/36
f 42/1/36 43/8/36 69/28/36
f 69/28/36 68/9/36 44/10/36
f 47/5/36 1/6/36 69/28/36
f 1/6/36 2/7/36 69/28/36
f 45/4/36 46/3/36 47/5/36
f 69/28/36 44/10/36 45/4/36
