# Blender 5.0.1
# www.blender.org
mtllib Pc_Mouse.mtl
o Pc_Mouse
v -0.041325 0.034018 0.000392
v 0.041325 0.034018 0.000392
v -0.041325 0.034018 0.031311
v 0.041325 0.034018 0.031311
v -0.038507 0.064572 0.023516
v -0.038507 0.080170 0.000392
v 0.038507 0.080170 0.000392
v 0.038507 0.064572 0.023516
v -0.017322 -0.049678 0.000392
v -0.031117 -0.036998 0.000392
v 0.031117 -0.036998 0.000392
v 0.017322 -0.049678 0.000392
v -0.017322 -0.049678 0.012617
v -0.031117 -0.037000 0.023325
v 0.031117 -0.037000 0.023325
v 0.017322 -0.049678 0.012617
v 0.000000 0.034018 0.000392
v 0.000000 0.034018 0.039178
v 0.000000 0.091789 0.000392
v 0.000000 0.076190 0.026671
v 0.000000 -0.037000 0.026455
v 0.000000 -0.055108 0.009445
v 0.000000 -0.055108 0.000392
v -0.005588 0.038935 0.030955
v 0.005587 0.038935 0.030955
v -0.005588 0.013676 0.030955
v 0.005587 0.013676 0.030955
v -0.005588 0.017375 0.038519
v 0.005587 0.017375 0.038519
v -0.005588 0.026305 0.041652
v 0.005587 0.026305 0.041652
v -0.005588 0.035236 0.038519
v 0.005587 0.035236 0.038519
v -0.000000 0.041050 0.030955
v -0.000000 0.011559 0.030955
v -0.000000 0.015878 0.039786
v -0.000000 0.026305 0.043445
v -0.000000 0.036731 0.039786
vn -0.9198 -0.3923 -0.0000
vn -0.9994 -0.0336 0.0110
vn -0.8846 -0.4663 -0.0000
vn -0.0000 0.0597 0.9982
vn -0.1278 -0.3581 0.9249
vn -0.0000 -0.4346 0.9006
vn -0.9969 0.0755 0.0218
vn -0.9969 0.0754 0.0218
vn 0.9994 -0.0336 0.0110
vn 0.9198 -0.3923 -0.0000
vn 0.8846 -0.4663 -0.0000
vn -0.0000 -1.0000 -0.0000
vn -0.5000 -0.8660 -0.0000
vn -0.0000 0.6305 0.7762
vn 0.2670 0.8148 0.5146
vn -0.0000 0.8455 0.5340
vn 0.2264 0.5409 0.8100
vn -0.0000 -0.0000 -1.0000
vn 0.9969 0.0755 0.0217
vn 0.9992 -0.0390 0.0104
vn 0.5378 -0.8431 -0.0000
vn -0.5378 -0.8431 -0.0000
vn -0.0763 -0.6858 0.7238
vn -0.0000 -0.6878 0.7259
vn 0.0763 -0.6858 0.7238
vn 0.1278 -0.3581 0.9249
vn -0.2264 0.5409 0.8100
vn -0.1633 0.0660 0.9844
vn -0.2670 0.8148 0.5146
vn 0.5000 -0.8661 -0.0000
vn 1.0000 -0.0000 -0.0000
vn 0.3221 -0.8504 0.4159
vn -0.0000 -0.6719 0.7406
vn -0.0000 -0.8983 0.4393
vn 0.3277 -0.6187 0.7141
vn -0.0000 -0.0000 1.0000
vn 0.3276 0.6187 0.7141
vn -0.0000 0.6719 0.7406
vn 0.3221 0.8505 0.4159
vn -0.0000 0.8983 0.4393
vn -0.3220 0.8505 0.4159
vn -0.3276 0.6187 0.7141
vn -0.3055 -0.0000 0.9522
vn -0.3277 -0.6187 0.7141
vn -0.3221 -0.8505 0.4159
vn -1.0000 -0.0000 -0.0000
vn -0.9992 -0.0390 0.0104
vn 0.1633 0.0660 0.9844
vn 0.9969 0.0754 0.0218
vn 0.3055 -0.0000 0.9522
vt 0.113920 0.853219
vt 0.108102 0.867565
vt 0.108102 0.853219
vt 0.124000 0.880755
vt 0.124000 0.857681
vt 0.126123 0.870899
vt 0.131941 0.870899
vt 0.108102 0.885020
vt 0.113920 0.899367
vt 0.108102 0.899366
vt 0.120570 0.870265
vt 0.118310 0.875569
vt 0.118310 0.870265
vt 0.039545 0.858793
vt 0.033727 0.867520
vt 0.033727 0.858793
vt 0.043451 0.882230
vt 0.043451 0.890958
vt 0.124380 0.874510
vt 0.124380 0.868644
vt 0.126123 0.888353
vt 0.131941 0.888353
vt 0.120570 0.864960
vt 0.118310 0.858429
vt 0.124129 0.858429
vt 0.120570 0.875569
vt 0.118310 0.878992
vt 0.113920 0.866202
vt 0.110362 0.871507
vt 0.110362 0.866202
vt 0.124380 0.897975
vt 0.124380 0.890019
vt 0.124380 0.894409
vt 0.124380 0.901540
vt 0.124380 0.897572
vt 0.110362 0.860898
vt 0.113920 0.857475
vt 0.124380 0.880376
vt 0.043451 0.873503
vt 0.033727 0.850065
vt 0.118310 0.864960
vt 0.124000 0.903829
vt 0.199083 0.889389
vt 0.205333 0.889389
vt 0.211583 0.889389
vt 0.224083 0.889389
vt 0.217833 0.876889
vt 0.224083 0.876889
vt 0.217833 0.889389
vt 0.211583 0.876889
vt 0.205333 0.876889
vt 0.199083 0.876889
vt 0.199083 0.864389
vt 0.205333 0.864389
vt 0.211583 0.864389
vt 0.217833 0.864389
vt 0.224083 0.864389
vt 0.113920 0.867565
vt 0.124000 0.872028
vt 0.113920 0.885020
vt 0.039545 0.867520
vt 0.124129 0.878992
vt 0.113920 0.874930
vt 0.039545 0.850065
vt 0.124000 0.889482
s 1
usemtl Palette
f 14/1/1 1/2/2 10/3/3
s 2
f 18/4/4 14/5/5 21/4/6
s 1
f 1/6/2 5/7/7 6/6/8
f 2/8/9 15/9/10 11/10/11
f 22/11/12 9/12/13 23/13/12
s 2
f 20/14/14 7/15/15 19/16/16
f 18/17/4 8/18/17 20/17/14
s 3
f 17/19/18 6/20/18 19/19/18
s 1
f 2/21/9 8/22/19 4/22/20
f 16/23/21 11/24/11 15/25/10
f 13/26/22 10/27/3 9/12/13
s 2
f 21/28/6 13/29/23 22/30/24
s 3
f 23/31/18 11/32/18 12/33/18
f 23/31/18 9/34/18 10/35/18
s 2
f 21/28/6 16/36/25 15/37/26
s 3
f 17/19/18 7/38/18 2/38/18
s 2
f 18/17/4 5/39/27 3/39/28
f 6/40/29 20/14/14 19/16/16
s 1
f 12/41/30 22/11/12 23/13/12
s 2
f 15/42/26 18/4/4 21/4/6
s 4
f 25/43/31 33/44/31 31/45/31
s 5
f 27/46/32 36/47/33 35/48/34
f 29/49/35 37/50/36 36/47/33
f 37/50/36 33/44/37 38/51/38
f 38/51/38 25/43/39 34/52/40
f 38/51/38 24/53/41 32/54/42
f 37/50/36 32/54/42 30/55/43
f 28/56/44 37/50/36 30/55/43
f 26/57/45 36/47/33 28/56/44
s 6
f 30/55/46 32/54/46 24/53/46
s 1
f 14/1/1 3/58/47 1/2/2
s 2
f 18/4/4 3/59/28 14/5/5
s 1
f 1/6/2 3/7/47 5/7/7
f 2/8/9 4/60/20 15/9/10
f 22/11/12 13/26/22 9/12/13
s 2
f 20/14/14 8/61/17 7/15/15
f 18/17/4 4/18/48 8/18/17
s 3
f 17/19/18 1/20/18 6/20/18
s 1
f 2/21/9 7/21/49 8/22/19
f 16/23/21 12/41/30 11/24/11
f 13/26/22 14/62/1 10/27/3
s 2
f 21/28/6 14/63/5 13/29/23
s 3
f 23/31/18 17/19/18 11/32/18
f 17/19/18 2/38/18 11/32/18
f 10/35/18 1/20/18 17/19/18
f 17/19/18 23/31/18 10/35/18
s 2
f 21/28/6 22/30/24 16/36/25
s 3
f 17/19/18 19/19/18 7/38/18
s 2
f 18/17/4 20/17/14 5/39/27
f 6/40/29 5/64/27 20/14/14
s 1
f 12/41/30 16/23/21 22/11/12
s 2
f 15/42/26 4/65/48 18/4/4
s 4
f 31/45/31 29/49/31 27/46/31
f 27/46/31 25/43/31 31/45/31
s 5
f 27/46/32 29/49/35 36/47/33
f 29/49/35 31/45/50 37/50/36
f 37/50/36 31/45/50 33/44/37
f 38/51/38 33/44/37 25/43/39
f 38/51/38 34/52/40 24/53/41
f 37/50/36 38/51/38 32/54/42
f 28/56/44 36/47/33 37/50/36
f 26/57/45 35/48/34 36/47/33
s 6
f 24/53/46 26/57/46 30/55/46
f 26/57/46 28/56/46 30/55/46
