# Blender 5.0.1
# www.blender.org
mtllib Pc_Monitor.mtl
o Pc_Monitor
v -0.176152 -0.118408 0.083226
v -0.176152 -0.082870 0.433733
v -0.199981 -0.022824 0.049583
v -0.199981 0.017521 0.447505
v 0.176152 -0.118408 0.083226
v 0.176152 -0.082870 0.433733
v 0.199981 -0.022824 0.049583
v 0.199981 0.017521 0.447505
v -0.132485 0.173267 0.098816
v -0.132485 0.179317 0.301408
v 0.132485 0.173267 0.098816
v 0.132485 0.179317 0.301408
v -0.199981 -0.120811 0.059518
v -0.199981 -0.080466 0.457440
v 0.199981 -0.080466 0.457440
v 0.199981 -0.120811 0.059518
v -0.162462 -0.104564 0.095583
v -0.162462 -0.071788 0.418849
v 0.162462 -0.104564 0.095583
v 0.162462 -0.071788 0.418849
v -0.122088 -0.109929 0.136707
v -0.075346 -0.111965 0.183896
v -0.122088 -0.085298 0.379638
v -0.075346 -0.096765 0.333818
v 0.122088 -0.109929 0.136707
v 0.075346 -0.111965 0.183896
v 0.122088 -0.085298 0.379638
v 0.075346 -0.096765 0.333818
v 0.000000 0.089319 -0.003598
v -0.045205 0.077207 -0.003598
v -0.078297 0.044114 -0.003598
v -0.090409 -0.001090 -0.003598
v -0.078297 -0.046295 -0.003598
v -0.045205 -0.079387 -0.003598
v 0.000000 -0.091500 -0.003598
v 0.045205 -0.079387 -0.003598
v 0.078297 -0.046295 -0.003598
v 0.090410 -0.001090 -0.003598
v 0.078297 0.044114 -0.003598
v 0.045205 0.077207 -0.003598
v -0.040690 0.069387 0.017714
v 0.000000 0.080289 0.017714
v -0.070477 0.039600 0.017714
v -0.081380 -0.001090 0.017714
v -0.070477 -0.041780 0.017714
v -0.040690 -0.071567 0.017714
v 0.000000 -0.082470 0.017714
v 0.040690 -0.071567 0.017714
v 0.070477 -0.041780 0.017714
v 0.081380 -0.001090 0.017714
v 0.070477 0.039600 0.017714
v 0.040690 0.069387 0.017714
v -0.027292 0.046181 0.010337
v -0.000000 0.053493 0.010337
v -0.047271 0.026201 0.010337
v -0.054584 -0.001091 0.010337
v -0.047271 -0.028382 0.010337
v -0.027292 -0.048362 0.010337
v -0.000000 -0.055674 0.010337
v 0.027292 -0.048362 0.010337
v 0.047271 -0.028382 0.010337
v 0.054584 -0.001091 0.010337
v 0.047271 0.026201 0.010337
v 0.027292 0.046181 0.010337
v -0.019413 0.032533 0.053540
v -0.000000 0.037735 0.053540
v -0.033624 0.018322 0.053540
v -0.038825 -0.001091 0.053540
v -0.033624 -0.020503 0.053540
v -0.019413 -0.034714 0.053540
v -0.000000 -0.039916 0.053540
v 0.019413 -0.034714 0.053540
v 0.033624 -0.020503 0.053540
v 0.038825 -0.001091 0.053540
v 0.033624 0.018322 0.053540
v 0.019413 0.032533 0.053540
vn -1.0000 -0.0000 -0.0000
vn -0.0000 0.6702 0.7422
vn 1.0000 -0.0000 -0.0000
vn -0.0000 -0.6659 0.7460
vn -0.0210 -0.8309 0.5561
vn -0.0000 0.1009 0.9949
vn -0.0000 0.9996 -0.0299
vn -0.9377 0.3464 -0.0267
vn 0.9377 0.3464 -0.0268
vn -0.0000 0.2435 -0.9699
vn -0.0000 -0.9949 0.1009
vn -0.1287 -0.9851 0.1145
vn 0.1048 -0.9945 -0.0045
vn 0.0145 -0.9735 0.2281
vn 0.6750 -0.7340 0.0744
vn 0.4694 -0.8761 0.1100
vn -0.0000 -0.8021 -0.5972
vn 0.0210 -0.9256 -0.3780
vn -0.6750 -0.7340 0.0744
vn -0.5567 -0.8203 -0.1312
vn -0.4694 -0.8803 0.0681
vn -0.1048 -0.9945 -0.0045
vn 0.1287 -0.9880 0.0856
vn -0.0145 -0.9995 -0.0280
vn 0.1048 -0.9733 0.2041
vn -0.0000 -0.1009 -0.9949
vn -0.0541 -0.9974 0.0467
vn -0.1048 -0.9733 0.2041
vn -0.0541 -0.9865 0.1544
vn 0.0541 -0.9974 0.0467
vn 0.0541 -0.9865 0.1544
vn -0.0000 -0.0000 -1.0000
vn -0.0000 -0.0000 1.0000
vn 0.4604 0.7974 0.3901
vn 0.7974 0.4604 0.3901
vn -0.4604 0.7974 0.3901
vn -0.0000 0.9208 0.3901
vn 0.7974 -0.4604 0.3901
vn 0.4604 -0.7974 0.3901
vn -0.4604 -0.7974 0.3901
vn -0.7974 -0.4604 0.3901
vn -0.7974 0.4604 0.3901
vn 0.9208 -0.0000 0.3901
vn -0.0000 -0.9208 0.3901
vn -0.9208 -0.0000 0.3901
vn 0.9395 -0.0000 0.3427
vn 0.8136 -0.4697 0.3427
vn -0.0000 -0.9395 0.3427
vn -0.4697 -0.8136 0.3427
vn -0.9395 -0.0000 0.3427
vn -0.8136 0.4697 0.3427
vn 0.8136 0.4697 0.3427
vn 0.4697 -0.8136 0.3427
vn -0.8136 -0.4697 0.3427
vn 0.4697 0.8136 0.3427
vn -0.4697 0.8136 0.3427
vn -0.0000 0.9395 0.3427
vn -0.2133 -0.7426 0.6349
vn -0.9377 0.3464 -0.0268
vn 0.9377 0.3464 -0.0267
vn 0.5567 -0.7772 0.2932
vn 0.2133 -0.8549 -0.4729
vt 0.115793 0.856236
vt 0.104873 0.867156
vt 0.104873 0.856236
vt 0.115793 0.878076
vt 0.126720 0.878076
vt 0.126713 0.878076
vt 0.104873 0.888996
vt 0.104873 0.878076
vt 0.206396 0.866623
vt 0.206396 0.881998
vt 0.115793 0.888996
vt 0.114184 0.867156
vt 0.105792 0.878076
vt 0.105792 0.867156
vt 0.114184 0.878076
vt 0.019737 0.876774
vt 0.037196 0.876774
vt 0.037192 0.876774
vt 0.115143 0.899266
vt 0.104873 0.899917
vt 0.105524 0.899266
vt 0.105524 0.889647
vt 0.115143 0.889647
vt 0.115793 0.899917
vt 0.995848 0.998778
vt 0.942411 0.622155
vt 0.995848 0.568717
vt 0.221771 0.881998
vt 0.221771 0.866623
vt 0.619225 0.622155
vt 0.565787 0.568717
vt 0.565787 0.998778
vt 0.942411 0.945340
vt 0.126053 0.898442
vt 0.116278 0.888512
vt 0.115133 0.898442
vt 0.681092 0.684022
vt 0.619225 0.945340
vt 0.681092 0.883473
vt 0.880544 0.684022
vt 0.880544 0.883473
vt 0.125295 0.865055
vt 0.115793 0.867156
vt 0.126713 0.888996
vt 0.019734 0.876774
vt 0.116278 0.877592
s 0
usemtl Palette
f 14/1/1 3/2/1 13/3/1
f 8/4/2 10/5/2 4/6/2
f 8/4/3 16/7/3 7/8/3
f 5/9/4 17/10/5 1/10/4
f 4/6/6 15/11/6 8/4/6
f 10/12/7 11/13/7 9/14/7
f 3/2/8 10/12/8 9/14/8
f 7/8/9 12/15/9 8/4/9
f 3/16/10 11/17/10 7/18/10
f 2/19/11 13/20/11 1/21/11
f 5/22/11 15/11/11 6/23/11
f 1/21/11 16/7/11 5/22/11
f 6/23/11 14/24/11 2/19/11
f 1/10/15 18/28/16 2/28/15
f 2/28/17 20/29/18 6/29/17
f 5/9/19 20/29/20 19/9/21
f 7/34/26 13/35/26 3/36/26
f 39/42/32 35/42/32 31/42/32
f 45/42/33 49/42/33 42/42/33
s 21
f 52/42/34 39/42/35 40/42/34
f 41/42/36 29/42/37 30/42/36
f 37/42/38 48/42/39 36/42/39
f 34/42/40 45/42/41 33/42/41
f 42/42/37 40/42/34 29/42/37
f 43/42/42 30/42/36 31/42/42
f 50/42/43 37/42/38 38/42/43
f 35/42/44 46/42/40 34/42/40
f 44/42/45 31/42/42 32/42/45
f 51/42/35 38/42/43 39/42/35
f 36/42/39 47/42/44 35/42/44
f 33/42/41 44/42/45 32/42/45
s 22
f 74/42/46 61/42/47 62/42/46
f 71/42/48 58/42/49 59/42/48
f 56/42/50 67/42/51 55/42/51
f 75/42/52 62/42/46 63/42/52
f 72/42/53 59/42/48 60/42/53
f 57/42/54 68/42/50 56/42/50
f 76/42/55 63/42/52 64/42/55
f 65/42/56 54/42/57 53/42/56
f 61/42/47 72/42/53 60/42/53
f 58/42/49 69/42/54 57/42/54
f 66/42/57 64/42/55 54/42/57
f 67/42/51 53/42/56 55/42/51
s 0
f 14/1/1 4/43/1 3/2/1
f 8/4/2 12/15/2 10/5/2
f 8/4/3 15/11/3 16/7/3
f 5/9/4 19/9/58 17/10/5
f 4/6/6 14/44/6 15/11/6
f 10/12/7 12/15/7 11/13/7
f 3/2/59 4/43/59 10/12/59
f 7/8/60 11/13/60 12/15/60
f 3/16/10 9/45/10 11/17/10
f 2/19/11 14/24/11 13/20/11
f 5/22/11 16/7/11 15/11/11
f 1/21/11 13/20/11 16/7/11
f 6/23/11 15/11/11 14/24/11
f 1/10/15 17/10/61 18/28/16
f 2/28/17 18/28/62 20/29/18
f 5/9/19 6/29/19 20/29/20
f 7/34/26 16/46/26 13/35/26
f 31/42/32 30/42/32 39/42/32
f 30/42/32 29/42/32 39/42/32
f 29/42/32 40/42/32 39/42/32
f 39/42/32 38/42/32 37/42/32
f 37/42/32 36/42/32 39/42/32
f 36/42/32 35/42/32 39/42/32
f 35/42/32 34/42/32 33/42/32
f 33/42/32 32/42/32 31/42/32
f 35/42/32 33/42/32 31/42/32
f 42/42/33 41/42/33 45/42/33
f 41/42/33 43/42/33 45/42/33
f 43/42/33 44/42/33 45/42/33
f 45/42/33 46/42/33 47/42/33
f 47/42/33 48/42/33 45/42/33
f 48/42/33 49/42/33 45/42/33
f 49/42/33 50/42/33 51/42/33
f 51/42/33 52/42/33 42/42/33
f 49/42/33 51/42/33 42/42/33
s 21
f 52/42/34 51/42/35 39/42/35
f 41/42/36 42/42/37 29/42/37
f 37/42/38 49/42/38 48/42/39
f 34/42/40 46/42/40 45/42/41
f 42/42/37 52/42/34 40/42/34
f 43/42/42 41/42/36 30/42/36
f 50/42/43 49/42/38 37/42/38
f 35/42/44 47/42/44 46/42/40
f 44/42/45 43/42/42 31/42/42
f 51/42/35 50/42/43 38/42/43
f 36/42/39 48/42/39 47/42/44
f 33/42/41 45/42/41 44/42/45
s 22
f 74/42/46 73/42/47 61/42/47
f 71/42/48 70/42/49 58/42/49
f 56/42/50 68/42/50 67/42/51
f 75/42/52 74/42/46 62/42/46
f 72/42/53 71/42/48 59/42/48
f 57/42/54 69/42/54 68/42/50
f 76/42/55 75/42/52 63/42/52
f 65/42/56 66/42/57 54/42/57
f 61/42/47 73/42/47 72/42/53
f 58/42/49 70/42/49 69/42/54
f 66/42/57 76/42/55 64/42/55
f 67/42/51 65/42/56 53/42/56
s 14
usemtl Screens
f 20/25/12 25/26/13 19/27/14
f 19/27/14 21/30/22 17/31/23
f 18/32/24 27/33/25 20/25/12
f 22/37/27 23/38/28 21/30/22
f 24/39/29 26/40/30 28/41/31
f 26/40/30 27/33/25 28/41/31
f 21/30/22 26/40/30 22/37/27
f 23/38/28 28/41/31 27/33/25
f 18/32/24 21/30/22 23/38/28
f 20/25/12 27/33/25 25/26/13
f 19/27/14 25/26/13 21/30/22
f 18/32/24 23/38/28 27/33/25
f 22/37/27 24/39/29 23/38/28
f 24/39/29 22/37/27 26/40/30
f 26/40/30 25/26/13 27/33/25
f 21/30/22 25/26/13 26/40/30
f 23/38/28 24/39/29 28/41/31
f 18/32/24 17/31/23 21/30/22
