# Blender 5.0.1
# www.blender.org
mtllib Plate.mtl
o Plate.003
v -0.076193 0.132054 0.052309
v -0.001008 0.081998 0.004639
v -0.041270 0.071210 0.004639
v -0.070744 0.041736 0.004639
v -0.081532 0.001475 0.004639
v -0.070744 -0.038787 0.004639
v -0.041270 -0.068261 0.004639
v -0.001008 -0.079049 0.004639
v 0.039254 -0.068261 0.004639
v 0.068728 -0.038787 0.004639
v 0.079516 0.001475 0.004639
v 0.068728 0.041736 0.004639
v 0.039254 0.071210 0.004639
v 0.000313 0.152554 0.052309
v -0.132199 0.076048 0.052309
v -0.152699 -0.000458 0.052309
v -0.132199 -0.076964 0.052309
v -0.076193 -0.132970 0.052309
v 0.000313 -0.153470 0.052309
v 0.076819 -0.132970 0.052309
v 0.132825 -0.076964 0.052309
v 0.153325 -0.000458 0.052309
v 0.132825 0.076048 0.052309
v 0.076819 0.132054 0.052309
v 0.000313 0.174117 0.043496
v 0.087600 0.150728 0.043496
v 0.151499 0.086829 0.043496
v 0.174888 -0.000458 0.043496
v 0.151499 -0.087745 0.043496
v 0.087600 -0.151644 0.043496
v 0.000313 -0.175032 0.043496
v -0.086974 -0.151644 0.043496
v -0.150873 -0.087745 0.043496
v -0.174261 -0.000458 0.043496
v -0.150873 0.086829 0.043496
v -0.086974 0.150728 0.043496
v 0.000314 0.079047 0.023210
v 0.040069 0.068395 0.023210
v 0.069171 0.039292 0.023210
v 0.079823 -0.000463 0.023210
v 0.069171 -0.040217 0.023210
v 0.040069 -0.069320 0.023210
v 0.000314 -0.079972 0.023210
v -0.039441 -0.069320 0.023210
v -0.068543 -0.040217 0.023210
v -0.079196 -0.000463 0.023210
v -0.068543 0.039292 0.023210
v -0.039441 0.068395 0.023210
v 0.077659 0.135300 0.027595
v 0.134689 0.078269 0.027595
v -0.000247 -0.155447 0.027595
v -0.078152 -0.134572 0.027595
v 0.134689 -0.077541 0.027595
v 0.077658 -0.134572 0.027595
v -0.156058 0.000364 0.027595
v -0.135183 0.078269 0.027595
v 0.155564 0.000364 0.027595
v -0.135183 -0.077541 0.027595
v -0.000247 0.156175 0.027595
v -0.078152 0.135300 0.027595
v 0.062751 -0.108605 0.032508
v 0.000314 -0.125335 0.032508
v 0.108458 0.061977 0.032508
v 0.125188 -0.000460 0.032508
v -0.124561 -0.000460 0.032508
v -0.107831 0.061977 0.032508
v -0.062124 -0.108605 0.032508
v 0.108458 -0.062898 0.032508
v -0.062124 0.107685 0.032508
v 0.000314 0.124415 0.032508
v 0.062751 0.107685 0.032508
v -0.107831 -0.062898 0.032508
vn -0.0016 0.5162 -0.8564
vn 0.2591 0.9564 0.1351
vn -0.0265 0.8067 -0.5903
vn 0.4261 -0.2447 -0.8710
vn 0.6897 -0.7145 0.1175
vn 0.6903 -0.3748 -0.6189
vn 0.2448 -0.4244 -0.8717
vn -0.0266 -0.7861 -0.6175
vn -0.0015 -0.4924 -0.8704
vn 0.2530 0.4434 -0.8599
vn 0.3642 0.7155 -0.5962
vn -0.2511 -0.4300 -0.8672
vn -0.7139 -0.3580 -0.6019
vn -0.4389 -0.2502 -0.8630
vn 0.4961 0.0022 -0.8683
vn 0.9548 -0.2708 0.1226
vn -0.5124 0.0024 -0.8588
vn -0.6893 0.4215 -0.5892
vn -0.4474 0.2598 -0.8558
vn -0.2743 -0.9549 0.1133
vn -0.9617 -0.2468 0.1194
vn 0.4343 0.2539 -0.8642
vn -0.0000 0.4244 0.9055
vn -0.0587 0.1018 0.9931
vn -0.0000 0.1175 0.9931
vn -0.2596 0.4492 -0.8549
vn 0.1697 0.0005 -0.9855
vn 0.0842 -0.1460 -0.9857
vn -0.0855 -0.1470 -0.9854
vn -0.6990 0.7031 0.1304
vn 0.0981 0.1698 0.9806
vn 0.2200 -0.0905 0.9713
vn 0.1698 0.0980 0.9806
vn 0.1960 -0.0000 0.9806
vn 0.1698 -0.0980 0.9806
vn 0.0980 -0.1698 0.9806
vn -0.0980 -0.1698 0.9806
vn -0.0000 -0.1960 0.9806
vn -0.1698 -0.0980 0.9806
vn -0.1698 0.0980 0.9806
vn -0.1961 -0.0000 0.9806
vn -0.0980 0.1698 0.9806
vn -0.1175 -0.0000 0.9931
vn -0.0587 -0.1017 0.9931
vn 0.1175 -0.0000 0.9931
vn -0.4243 -0.0000 0.9055
vn -0.1017 -0.0587 0.9931
vn 0.4243 -0.0000 0.9055
vn 0.1017 -0.0587 0.9931
vn 0.3675 -0.2122 0.9055
vn 0.0587 0.1018 0.9931
vn 0.2122 0.3675 0.9055
vn -0.3675 0.2122 0.9055
vn -0.1018 0.0587 0.9931
vn 0.0587 -0.1017 0.9931
vn 0.2122 -0.3675 0.9055
vn -0.2122 -0.3675 0.9055
vn -0.0000 -0.1175 0.9931
vn 0.1018 0.0587 0.9931
vn 0.3675 0.2122 0.9055
vn -0.2122 0.3675 0.9055
vn -0.0000 -0.4243 0.9055
vn -0.3675 -0.2122 0.9055
vn -0.1489 -0.0852 -0.9852
vn -0.1729 0.0005 -0.9849
vn -0.1505 0.0872 -0.9848
vn -0.0871 0.1508 -0.9847
vn 0.1478 0.0861 -0.9853
vn -0.0003 -0.1690 -0.9856
vn 0.0858 0.1497 -0.9850
vn 0.1463 -0.0842 -0.9857
vn -0.0004 0.1737 -0.9848
vt 0.213609 0.822287
vt 0.201109 0.818938
vt 0.235260 0.784787
vt 0.238609 0.797287
vt 0.226109 0.775637
vt 0.213609 0.772287
vt 0.226109 0.818938
vt 0.226109 0.818938
vt 0.201109 0.775637
vt 0.191958 0.784787
vt 0.238609 0.797287
vt 0.235260 0.809787
vt 0.188609 0.797287
vt 0.191958 0.809787
vt 0.191958 0.809787
vt 0.235260 0.809787
vt 0.213609 0.775927
vt 0.224289 0.778789
vt 0.201109 0.818938
vt 0.224289 0.815786
vt 0.213609 0.818647
vt 0.232107 0.807967
vt 0.234969 0.797287
vt 0.232107 0.786607
vt 0.202929 0.778789
vt 0.195111 0.786607
vt 0.195111 0.807967
vt 0.192249 0.797287
vt 0.202929 0.815786
s 1
usemtl Palette
f 59/1/1 36/2/2 25/1/3
f 53/3/4 28/4/5 29/3/6
f 54/5/7 31/6/8 51/6/9
f 49/7/10 25/1/3 26/8/11
f 52/9/12 33/10/13 58/10/14
f 57/11/15 27/12/16 28/4/5
f 55/13/17 35/14/18 56/15/19
f 54/5/7 29/3/6 30/5/20
f 51/6/9 32/9/21 52/9/12
f 50/16/22 26/8/11 27/12/16
f 62/17/23 42/18/24 43/17/25
f 56/15/19 36/2/2 60/19/26
f 11/4/27 9/5/28 7/9/29
f 58/10/14 34/13/30 55/13/17
f 24/20/31 25/1/3 14/21/32
f 23/22/33 26/8/11 24/20/31
f 22/23/34 27/12/16 23/22/33
f 22/23/34 29/3/6 28/4/5
f 21/24/35 30/5/20 29/3/6
f 20/18/36 31/6/8 30/5/20
f 18/25/37 31/6/8 19/17/38
f 18/25/37 33/10/13 32/9/21
f 17/26/39 34/13/30 33/10/13
f 15/27/40 34/13/30 16/28/41
f 1/29/42 35/14/18 15/27/40
f 14/21/32 36/2/2 1/29/42
f 40/23/43 38/20/44 46/28/45
f 64/23/46 39/22/47 40/23/43
f 65/28/48 47/27/49 66/27/50
f 62/17/23 44/25/51 67/25/52
f 68/24/53 40/23/43 41/24/54
f 66/27/50 48/29/55 69/29/56
f 71/20/57 37/21/58 38/20/44
f 67/25/52 45/26/59 72/26/60
f 61/18/61 41/24/54 42/18/24
f 69/29/56 37/21/58 70/21/62
f 63/22/63 38/20/44 39/22/47
f 72/26/60 46/28/45 65/28/48
f 6/10/64 55/13/17 5/13/65
f 4/14/66 60/19/26 3/2/67
f 12/12/68 49/7/10 50/16/22
f 8/6/69 52/9/12 7/9/29
f 9/5/28 53/3/4 54/5/7
f 5/13/65 56/15/19 4/14/66
f 11/4/27 50/16/22 57/11/15
f 7/9/29 58/10/14 6/10/64
f 13/8/70 59/1/1 49/7/10
f 9/5/28 51/6/9 8/6/69
f 10/3/71 57/11/15 53/3/4
f 2/1/72 60/19/26 59/1/1
f 17/26/39 65/28/48 16/28/41
f 23/22/33 71/20/57 63/22/63
f 1/29/42 70/21/62 14/21/32
f 20/18/36 68/24/53 61/18/61
f 18/25/37 72/26/60 17/26/39
f 24/20/31 70/21/62 71/20/57
f 15/27/40 69/29/56 1/29/42
f 21/24/35 64/23/46 68/24/53
f 19/17/38 67/25/52 18/25/37
f 16/28/41 66/27/50 15/27/40
f 22/23/34 63/22/63 64/23/46
f 19/17/38 61/18/61 62/17/23
f 59/1/1 60/19/26 36/2/2
f 53/3/4 57/11/15 28/4/5
f 54/5/7 30/5/20 31/6/8
f 49/7/10 59/1/1 25/1/3
f 52/9/12 32/9/21 33/10/13
f 57/11/15 50/16/22 27/12/16
f 55/13/17 34/13/30 35/14/18
f 54/5/7 53/3/4 29/3/6
f 51/6/9 31/6/8 32/9/21
f 50/16/22 49/7/10 26/8/11
f 62/17/23 61/18/61 42/18/24
f 56/15/19 35/14/18 36/2/2
f 3/2/67 2/1/72 13/8/70
f 13/8/70 12/12/68 11/4/27
f 11/4/27 10/3/71 9/5/28
f 9/5/28 8/6/69 7/9/29
f 7/9/29 6/10/64 3/2/67
f 6/10/64 5/13/65 3/2/67
f 5/13/65 4/14/66 3/2/67
f 3/2/67 13/8/70 7/9/29
f 13/8/70 11/4/27 7/9/29
f 58/10/14 33/10/13 34/13/30
f 24/20/31 26/8/11 25/1/3
f 23/22/33 27/12/16 26/8/11
f 22/23/34 28/4/5 27/12/16
f 22/23/34 21/24/35 29/3/6
f 21/24/35 20/18/36 30/5/20
f 20/18/36 19/17/38 31/6/8
f 18/25/37 32/9/21 31/6/8
f 18/25/37 17/26/39 33/10/13
f 17/26/39 16/28/41 34/13/30
f 15/27/40 35/14/18 34/13/30
f 1/29/42 36/2/2 35/14/18
f 14/21/32 25/1/3 36/2/2
f 38/20/44 37/21/58 48/29/55
f 48/29/55 47/27/49 46/28/45
f 46/28/45 45/26/59 44/25/51
f 44/25/51 43/17/25 46/28/45
f 43/17/25 42/18/24 46/28/45
f 42/18/24 41/24/54 40/23/43
f 40/23/43 39/22/47 38/20/44
f 38/20/44 48/29/55 46/28/45
f 42/18/24 40/23/43 46/28/45
f 64/23/46 63/22/63 39/22/47
f 65/28/48 46/28/45 47/27/49
f 62/17/23 43/17/25 44/25/51
f 68/24/53 64/23/46 40/23/43
f 66/27/50 47/27/49 48/29/55
f 71/20/57 70/21/62 37/21/58
f 67/25/52 44/25/51 45/26/59
f 61/18/61 68/24/53 41/24/54
f 69/29/56 48/29/55 37/21/58
f 63/22/63 71/20/57 38/20/44
f 72/26/60 45/26/59 46/28/45
f 6/10/64 58/10/14 55/13/17
f 4/14/66 56/15/19 60/19/26
f 12/12/68 13/8/70 49/7/10
f 8/6/69 51/6/9 52/9/12
f 9/5/28 10/3/71 53/3/4
f 5/13/65 55/13/17 56/15/19
f 11/4/27 12/12/68 50/16/22
f 7/9/29 52/9/12 58/10/14
f 13/8/70 2/1/72 59/1/1
f 9/5/28 54/5/7 51/6/9
f 10/3/71 11/4/27 57/11/15
f 2/1/72 3/2/67 60/19/26
f 17/26/39 72/26/60 65/28/48
f 23/22/33 24/20/31 71/20/57
f 1/29/42 69/29/56 70/21/62
f 20/18/36 21/24/35 68/24/53
f 18/25/37 67/25/52 72/26/60
f 24/20/31 14/21/32 70/21/62
f 15/27/40 66/27/50 69/29/56
f 21/24/35 22/23/34 64/23/46
f 19/17/38 62/17/23 67/25/52
f 16/28/41 65/28/48 66/27/50
f 22/23/34 23/22/33 63/22/63
f 19/17/38 20/18/36 61/18/61
