# Blender 5.0.1
# www.blender.org
mtllib Shelves.mtl
o Shelves.003
v 0.470830 -0.103974 0.308194
v 0.470830 -0.099787 0.312382
v 0.475018 -0.108078 0.316649
v 0.470830 -0.103974 0.020878
v 0.475018 -0.108081 0.020878
v 0.475018 -0.126729 0.020878
v 0.470830 -0.130836 0.020878
v 0.470830 -0.130836 0.340315
v 0.447432 -0.108081 0.020878
v 0.451619 -0.103974 0.020878
v 0.451619 -0.130836 0.020878
v 0.447432 -0.126729 0.020878
v 0.451619 -0.130836 0.340315
v 0.451619 -0.103974 0.308194
v 0.447432 -0.108078 0.316649
v 0.451619 -0.099787 0.312382
v 0.475018 -0.126732 0.340234
v 0.475018 -0.108078 0.336047
v 0.447432 -0.126732 0.340234
v 0.447432 -0.108078 0.336047
v 0.447432 -0.108078 0.340235
v 0.475018 -0.108078 0.340235
v 0.451619 -0.103974 0.340315
v 0.470830 -0.103974 0.340315
v -0.470830 -0.103974 0.308194
v -0.470830 -0.099787 0.312382
v -0.475018 -0.108078 0.316649
v -0.470830 -0.103974 0.020878
v -0.475018 -0.108081 0.020878
v -0.475018 -0.126729 0.020878
v -0.470830 -0.130836 0.020878
v -0.470830 -0.130836 0.340315
v -0.447432 -0.108081 0.020878
v -0.451619 -0.103974 0.020878
v -0.451619 -0.130836 0.020878
v -0.447432 -0.126729 0.020878
v -0.451619 -0.130836 0.340315
v -0.451619 -0.103974 0.308194
v -0.447432 -0.108078 0.316649
v -0.451619 -0.099787 0.312382
v -0.475018 -0.126732 0.340234
v -0.475018 -0.108078 0.336047
v -0.447432 -0.126732 0.340234
v -0.447432 -0.108078 0.336047
v -0.447432 -0.108078 0.340235
v -0.475018 -0.108078 0.340235
v -0.451619 -0.103974 0.340315
v -0.470830 -0.103974 0.340315
v 0.470830 0.103974 0.308194
v 0.470830 0.099787 0.312382
v 0.475018 0.108078 0.316649
v 0.470830 0.103974 0.020878
v 0.475018 0.108081 0.020878
v 0.475018 0.126729 0.020878
v 0.470830 0.130836 0.020878
v 0.470830 0.130836 0.340315
v 0.447432 0.108081 0.020878
v 0.451619 0.103974 0.020878
v 0.451619 0.130836 0.020878
v 0.447432 0.126729 0.020878
v 0.451619 0.130836 0.340315
v 0.451619 0.103974 0.308194
v 0.447432 0.108078 0.316649
v 0.451619 0.099787 0.312382
v 0.475018 0.126732 0.340234
v 0.475018 0.108078 0.336047
v 0.447432 0.126732 0.340234
v 0.447432 0.108078 0.336047
v 0.447432 0.108078 0.340235
v 0.475018 0.108078 0.340235
v 0.451619 0.103974 0.340315
v 0.470830 0.103974 0.340315
v -0.470830 0.103974 0.308194
v -0.470830 0.099787 0.312382
v -0.475018 0.108078 0.316649
v -0.470830 0.103974 0.020878
v -0.475018 0.108081 0.020878
v -0.475018 0.126729 0.020878
v -0.470830 0.130836 0.020878
v -0.470830 0.130836 0.340315
v -0.447432 0.108081 0.020878
v -0.451619 0.103974 0.020878
v -0.451619 0.130836 0.020878
v -0.447432 0.126729 0.020878
v -0.451619 0.130836 0.340315
v -0.451619 0.103974 0.308194
v -0.447432 0.108078 0.316649
v -0.451619 0.099787 0.312382
v -0.475018 0.126732 0.340234
v -0.475018 0.108078 0.336047
v -0.447432 0.126732 0.340234
v -0.447432 0.108078 0.336047
v -0.447432 0.108078 0.340235
v -0.475018 0.108078 0.340235
v -0.451619 0.103974 0.340315
v -0.470830 0.103974 0.340315
v 0.486601 -0.105637 0.364810
v 0.486601 -0.105637 0.341556
v 0.470830 -0.103974 0.627630
v 0.470830 -0.099787 0.631818
v 0.475018 -0.108078 0.636085
v -0.451619 0.130833 1.883441
v -0.470830 0.130833 1.883441
v -0.447432 0.126728 1.883441
v -0.475018 0.126728 1.883441
v 0.470830 -0.130836 0.659751
v -0.447432 0.108076 1.883441
v -0.475018 0.108076 1.883441
v -0.451619 0.103971 1.883441
v -0.470830 0.103971 1.883441
v 0.451619 -0.130836 0.659751
v 0.451619 -0.103974 0.627630
v 0.447432 -0.108078 0.636085
v 0.451619 -0.099787 0.631818
v 0.475018 -0.126732 0.659670
v 0.475018 -0.108078 0.655483
v 0.447432 -0.126732 0.659670
v 0.447432 -0.108078 0.655483
v 0.447432 -0.108078 0.659671
v 0.475018 -0.108078 0.659671
v 0.451619 -0.103974 0.659751
v 0.470830 -0.103974 0.659751
v -0.486601 -0.105637 0.364810
v -0.486601 -0.105637 0.341556
v -0.470830 -0.103974 0.627630
v -0.470830 -0.099787 0.631818
v -0.475018 -0.108078 0.636085
v -0.470830 -0.130836 0.659751
v -0.451619 -0.130836 0.659751
v -0.451619 -0.103974 0.627630
v -0.447432 -0.108078 0.636085
v -0.451619 -0.099787 0.631818
v -0.475018 -0.126732 0.659670
v -0.475018 -0.108078 0.655483
v -0.447432 -0.126732 0.659670
v -0.447432 -0.108078 0.655483
v -0.447432 -0.108078 0.659671
v -0.475018 -0.108078 0.659671
v -0.451619 -0.103974 0.659751
v -0.470830 -0.103974 0.659751
v 0.486601 0.105637 0.364810
v 0.486601 0.105637 0.341556
v 0.470830 0.103974 0.627630
v 0.470830 0.099787 0.631818
v 0.475018 0.108078 0.636085
v -0.475018 -0.126734 1.883441
v -0.470830 -0.130839 1.883441
v -0.451619 -0.130839 1.883441
v -0.447432 -0.126734 1.883441
v 0.470830 0.130836 0.659751
v -0.447432 -0.108081 1.883441
v -0.475018 -0.108081 1.883441
v -0.451619 -0.103977 1.883441
v -0.470830 -0.103977 1.883441
v 0.451619 0.130836 0.659751
v 0.451619 0.103974 0.627630
v 0.447432 0.108078 0.636085
v 0.451619 0.099787 0.631818
v 0.475018 0.126732 0.659670
v 0.475018 0.108078 0.655483
v 0.447432 0.126732 0.659670
v 0.447432 0.108078 0.655483
v 0.447432 0.108078 0.659671
v 0.475018 0.108078 0.659671
v 0.451619 0.103974 0.659751
v 0.470830 0.103974 0.659751
v -0.486601 0.105637 0.364810
v -0.486601 0.105637 0.341556
v -0.470830 0.103974 0.627630
v -0.470830 0.099787 0.631818
v -0.475018 0.108078 0.636085
v -0.470830 0.130836 0.659751
v -0.451619 0.130836 0.659751
v -0.451619 0.103974 0.627630
v -0.447432 0.108078 0.636085
v -0.451619 0.099787 0.631818
v -0.475018 0.126732 0.659670
v -0.475018 0.108078 0.655483
v -0.447432 0.126732 0.659670
v -0.447432 0.108078 0.655483
v -0.447432 0.108078 0.659671
v -0.475018 0.108078 0.659671
v -0.451619 0.103974 0.659751
v -0.470830 0.103974 0.659751
v 0.486601 -0.105637 0.684246
v 0.486601 -0.105637 0.660992
v 0.470830 -0.103974 0.947067
v 0.470830 -0.099787 0.951254
v 0.475018 -0.108078 0.955521
v -0.446661 -0.126735 1.934491
v -0.474246 -0.126735 1.934491
v -0.450848 -0.130839 1.934491
v -0.470059 -0.130839 1.934491
v 0.470830 -0.130836 0.979187
v -0.446661 0.126728 1.934491
v -0.474246 0.126728 1.934491
v -0.470059 0.130833 1.934491
v -0.450848 0.130833 1.934491
v 0.451619 -0.130836 0.979187
v 0.451619 -0.103974 0.947067
v 0.447432 -0.108078 0.955521
v 0.451619 -0.099787 0.951254
v 0.475018 -0.126732 0.979107
v 0.475018 -0.108078 0.974919
v 0.447432 -0.126732 0.979107
v 0.447432 -0.108078 0.974919
v 0.447432 -0.108078 0.979107
v 0.475018 -0.108078 0.979107
v 0.451619 -0.103974 0.979187
v 0.470830 -0.103974 0.979187
v -0.486601 -0.105637 0.684246
v -0.486601 -0.105637 0.660992
v -0.470830 -0.103974 0.947067
v -0.470830 -0.099787 0.951254
v -0.475018 -0.108078 0.955521
v -0.470830 -0.130836 0.979187
v -0.451619 -0.130836 0.979187
v -0.451619 -0.103974 0.947067
v -0.447432 -0.108078 0.955521
v -0.451619 -0.099787 0.951254
v -0.475018 -0.126732 0.979107
v -0.475018 -0.108078 0.974919
v -0.447432 -0.126732 0.979107
v -0.447432 -0.108078 0.974919
v -0.447432 -0.108078 0.979107
v -0.475018 -0.108078 0.979107
v -0.451619 -0.103974 0.979187
v -0.470830 -0.103974 0.979187
v 0.486601 0.105637 0.684246
v 0.486601 0.105637 0.660992
v 0.470830 0.103974 0.947067
v 0.470830 0.099787 0.951254
v 0.475018 0.108078 0.955521
v -0.474246 0.108075 1.934491
v -0.446661 0.108075 1.934491
v -0.446661 -0.126735 1.913749
v -0.474246 -0.126735 1.913749
v 0.470830 0.130836 0.979187
v -0.450848 -0.130839 1.913749
v -0.470059 -0.130839 1.913749
v -0.446661 -0.108081 1.934491
v -0.474246 -0.108081 1.934491
v 0.451619 0.130836 0.979187
v 0.451619 0.103974 0.947067
v 0.447432 0.108078 0.955521
v 0.451619 0.099787 0.951254
v 0.475018 0.126732 0.979107
v 0.475018 0.108078 0.974919
v 0.447432 0.126732 0.979107
v 0.447432 0.108078 0.974919
v 0.447432 0.108078 0.979107
v 0.475018 0.108078 0.979107
v 0.451619 0.103974 0.979187
v 0.470830 0.103974 0.979187
v -0.486601 0.105637 0.684246
v -0.486601 0.105637 0.660992
v -0.470830 0.103974 0.947067
v -0.470830 0.099787 0.951254
v -0.475018 0.108078 0.955521
v -0.470830 0.130836 0.979187
v -0.451619 0.130836 0.979187
v -0.451619 0.103974 0.947067
v -0.447432 0.108078 0.955521
v -0.451619 0.099787 0.951254
v -0.475018 0.126732 0.979107
v -0.475018 0.108078 0.974919
v -0.447432 0.126732 0.979107
v -0.447432 0.108078 0.974919
v -0.447432 0.108078 0.979107
v -0.475018 0.108078 0.979107
v -0.451619 0.103974 0.979187
v -0.470830 0.103974 0.979187
v 0.486601 -0.105637 1.003682
v 0.486601 -0.105637 0.980428
v 0.470830 -0.103974 1.266503
v 0.470830 -0.099787 1.270690
v 0.475018 -0.108078 1.274957
v 0.470830 -0.130836 1.298623
v -0.450612 -0.123001 1.941553
v -0.470295 -0.123001 1.941553
v -0.453599 -0.126985 1.941553
v -0.467307 -0.126985 1.941553
v 0.451619 -0.130836 1.298623
v 0.451619 -0.103974 1.266503
v 0.447432 -0.108078 1.274957
v 0.451619 -0.099787 1.270690
v 0.475018 -0.126732 1.298543
v 0.475018 -0.108078 1.294356
v 0.447432 -0.126732 1.298543
v 0.447432 -0.108078 1.294356
v 0.447432 -0.108078 1.298543
v 0.475018 -0.108078 1.298543
v 0.451619 -0.103974 1.298623
v 0.470830 -0.103974 1.298623
v -0.486601 -0.105637 1.003682
v -0.486601 -0.105637 0.980428
v -0.470830 -0.103977 1.266423
v -0.470830 -0.099790 1.270610
v -0.475018 -0.108081 1.274877
v -0.470830 -0.130839 1.298543
v -0.451619 -0.130839 1.298543
v -0.451619 -0.103977 1.266423
v -0.447432 -0.108081 1.274877
v -0.451619 -0.099790 1.270610
v -0.475018 -0.126735 1.298462
v -0.475018 -0.108081 1.294275
v -0.447432 -0.126735 1.298462
v -0.447432 -0.108081 1.294275
v -0.447432 -0.108081 1.298463
v -0.475018 -0.108081 1.298463
v -0.451619 -0.103977 1.298543
v -0.470830 -0.103977 1.298543
v 0.486601 0.105637 1.003682
v 0.486601 0.105637 0.980428
v 0.470830 0.103974 1.266503
v 0.470830 0.099787 1.270690
v 0.475018 0.108078 1.274957
v -0.450612 0.122995 1.941553
v -0.470295 0.122995 1.941553
v -0.467307 0.126978 1.941553
v -0.453599 0.126978 1.941553
v 0.470830 0.130836 1.298623
v -0.470295 0.104891 1.941553
v -0.450612 0.104891 1.941553
v -0.450612 -0.104897 1.941553
v -0.470295 -0.104897 1.941553
v 0.451619 0.130836 1.298623
v 0.451619 0.103974 1.266503
v 0.447432 0.108078 1.274957
v 0.451619 0.099787 1.270690
v 0.475018 0.126732 1.298543
v 0.475018 0.108078 1.294356
v 0.447432 0.126732 1.298543
v 0.447432 0.108078 1.294356
v 0.447432 0.108078 1.298543
v 0.475018 0.108078 1.298543
v 0.451619 0.103974 1.298623
v 0.470830 0.103974 1.298623
v -0.486601 0.105637 1.003682
v -0.486601 0.105637 0.980428
v -0.470830 0.103971 1.266423
v -0.470830 0.099784 1.270610
v -0.475018 0.108075 1.274877
v -0.470830 0.130833 1.298543
v -0.451619 0.130833 1.298543
v -0.451619 0.103971 1.266423
v -0.447432 0.108075 1.274877
v -0.451619 0.099784 1.270610
v -0.475018 0.126729 1.298462
v -0.475018 0.108075 1.294275
v -0.447432 0.126729 1.298462
v -0.447432 0.108075 1.294275
v -0.447432 0.108075 1.298463
v -0.475018 0.108075 1.298463
v -0.451619 0.103971 1.298543
v -0.470830 0.103971 1.298543
v 0.486601 -0.105637 1.323118
v 0.486601 -0.105637 1.299865
v 0.470830 -0.103974 1.585939
v 0.470830 -0.099787 1.590126
v 0.475018 -0.108078 1.594393
v 0.470830 -0.130836 1.618059
v 0.451619 -0.130836 1.618059
v 0.451619 -0.103974 1.585939
v 0.447432 -0.108078 1.594393
v 0.451619 -0.099787 1.590126
v 0.475018 -0.126732 1.617979
v 0.475018 -0.108078 1.613792
v 0.447432 -0.126732 1.617979
v 0.447432 -0.108078 1.613792
v 0.447432 -0.108078 1.617979
v 0.475018 -0.108078 1.617979
v 0.451619 -0.103974 1.618059
v 0.470830 -0.103974 1.618059
v -0.486601 -0.105637 1.323118
v -0.486601 -0.105637 1.299865
v -0.470830 -0.103977 1.585859
v -0.470830 -0.099790 1.590046
v -0.475018 -0.108081 1.594313
v -0.470830 -0.130839 1.617979
v -0.451619 -0.130839 1.617979
v -0.451619 -0.103977 1.585859
v -0.447432 -0.108081 1.594313
v -0.451619 -0.099790 1.590046
v -0.475018 -0.126735 1.617898
v -0.475018 -0.108081 1.613711
v -0.447432 -0.126735 1.617898
v -0.447432 -0.108081 1.613711
v -0.447432 -0.108081 1.617899
v -0.475018 -0.108081 1.617899
v -0.451619 -0.103977 1.617979
v -0.470830 -0.103977 1.617979
v 0.486601 0.105637 1.323118
v 0.486601 0.105637 1.299865
v 0.470830 0.103974 1.585939
v 0.470830 0.099787 1.590126
v 0.475018 0.108078 1.594393
v 0.470830 0.130836 1.618059
v 0.451619 0.130836 1.618059
v 0.451619 0.103974 1.585939
v 0.447432 0.108078 1.594393
v 0.451619 0.099787 1.590126
v 0.475018 0.126732 1.617979
v 0.475018 0.108078 1.613792
v 0.447432 0.126732 1.617979
v 0.447432 0.108078 1.613792
v 0.447432 0.108078 1.617979
v 0.475018 0.108078 1.617979
v 0.451619 0.103974 1.618059
v 0.470830 0.103974 1.618059
v -0.486601 0.105637 1.323118
v -0.486601 0.105637 1.299865
v -0.470830 0.103971 1.585859
v -0.470830 0.099784 1.590046
v -0.475018 0.108075 1.594313
v -0.470830 0.130833 1.617979
v -0.451619 0.130833 1.617979
v -0.451619 0.103971 1.585859
v -0.447432 0.108075 1.594313
v -0.451619 0.099784 1.590046
v -0.475018 0.126729 1.617898
v -0.475018 0.108075 1.613711
v -0.447432 0.126729 1.617898
v -0.447432 0.108075 1.613711
v -0.447432 0.108075 1.617899
v -0.475018 0.108075 1.617899
v -0.451619 0.103971 1.617979
v -0.470830 0.103971 1.617979
v 0.486601 -0.105637 1.642554
v 0.486601 -0.105637 1.619301
v 0.470830 -0.103974 1.905375
v 0.470830 -0.099787 1.909562
v 0.475018 -0.108078 1.913830
v 0.451619 0.103974 1.883521
v 0.470830 0.103974 1.883521
v 0.451619 -0.103974 1.905375
v 0.447432 -0.108078 1.913830
v 0.451619 -0.099787 1.909562
v 0.475018 0.126731 1.883521
v 0.447432 0.126731 1.883521
v -0.486601 -0.105637 1.642554
v -0.486601 -0.105637 1.619301
v -0.446661 0.126728 1.913749
v -0.474246 0.126728 1.913749
v -0.470059 0.130833 1.913749
v -0.450848 0.130833 1.913749
v 0.486601 0.105637 1.642554
v 0.486601 0.105637 1.619301
v 0.470830 0.103974 1.905375
v 0.470830 0.099787 1.909562
v 0.475018 0.108078 1.913830
v 0.451619 0.103974 1.905375
v 0.447432 0.108078 1.913830
v 0.451619 0.099787 1.909562
v 0.470830 0.130836 1.913830
v 0.451619 0.130836 1.913830
v 0.447432 0.126731 1.913830
v 0.475018 0.126731 1.913830
v -0.486601 0.105637 1.642554
v -0.486601 0.105637 1.619301
v -0.470059 0.099784 1.909482
v -0.474246 0.108075 1.913749
v -0.470059 0.103971 1.905294
v -0.446661 0.108075 1.913749
v -0.450848 0.099784 1.909482
v -0.450848 0.103971 1.905294
v -0.470059 -0.099790 1.909482
v -0.474246 -0.108081 1.913749
v -0.470059 -0.103977 1.905294
v -0.446661 -0.108081 1.913749
v -0.450848 -0.099790 1.909482
v -0.450848 -0.103977 1.905294
v 0.470830 -0.103974 1.883521
v 0.451619 -0.103974 1.883521
v 0.475018 -0.108078 1.883521
v 0.447432 -0.108078 1.883521
v 0.451619 -0.130836 1.883521
v 0.470830 -0.130836 1.883521
v 0.447432 -0.126732 1.883521
v 0.475018 -0.126732 1.883521
v 0.475018 0.108079 1.883521
v 0.447432 0.108079 1.883521
v 0.451619 0.130836 1.883521
v 0.470830 0.130836 1.883521
v 0.447432 -0.108078 1.934572
v 0.475018 -0.108078 1.934572
v 0.451619 -0.130836 1.913830
v 0.470830 -0.130836 1.913830
v 0.447432 -0.126732 1.913830
v 0.475018 -0.126732 1.913830
v 0.475018 0.108078 1.934572
v 0.447432 0.108078 1.934572
v 0.470830 0.130836 1.934572
v 0.451619 0.130836 1.934572
v 0.447432 0.126731 1.934572
v 0.475018 0.126731 1.934572
v 0.451619 -0.130836 1.934572
v 0.470830 -0.130836 1.934572
v 0.447432 -0.126732 1.934572
v 0.475018 -0.126732 1.934572
v 0.451383 -0.104894 1.941634
v 0.471067 -0.104894 1.941634
v 0.471067 0.104894 1.941634
v 0.451383 0.104894 1.941634
v 0.468079 0.126981 1.941634
v 0.454371 0.126981 1.941634
v 0.451383 0.122997 1.941634
v 0.471067 0.122997 1.941634
v 0.454371 -0.126982 1.941634
v 0.468079 -0.126982 1.941634
v 0.451383 -0.122998 1.941634
v 0.471067 -0.122998 1.941634
vn -1.0000 -0.0000 -0.0000
vn -0.0000 1.0000 -0.0000
vn 1.0000 -0.0000 -0.0000
vn -0.0000 -1.0000 -0.0000
vn 0.9045 0.3016 -0.3016
vn -0.9045 0.3016 -0.3016
vn -0.7000 0.7142 -0.0000
vn -0.7000 -0.7142 -0.0000
vn 0.7000 -0.7142 -0.0000
vn 0.7000 0.7142 -0.0000
vn -0.0000 0.7071 -0.7071
vn -0.7138 -0.0000 0.7004
vn -0.0000 -0.0000 1.0000
vn -0.7138 -0.0000 -0.7004
vn -0.0000 -0.0000 -1.0000
vn 0.7138 -0.0000 0.7004
vn 0.7138 -0.0000 -0.7004
vn 0.7002 0.7139 -0.0000
vn 0.7002 -0.7139 -0.0000
vn 0.9045 -0.3016 -0.3016
vn -0.9045 -0.3016 -0.3016
vn -0.7002 -0.7139 -0.0000
vn -0.7002 0.7139 -0.0000
vn -0.0000 -0.7071 -0.7071
vn -0.6999 0.7142 -0.0000
vn -0.7000 -0.7141 -0.0000
vn 0.7000 -0.7141 -0.0000
vn -0.9997 -0.0000 0.0254
vn -0.8727 -0.0000 0.4883
vn 0.7000 0.7141 -0.0000
vn -0.6095 -0.5407 0.5798
vn -0.6893 0.7242 0.0204
vn -0.6999 -0.7140 0.0178
vn 0.6999 -0.7140 -0.0178
vn 0.8727 -0.0000 0.4883
vn 0.9997 -0.0000 -0.0254
vn -0.7000 0.7141 -0.0000
vn 0.6999 0.7140 -0.0178
vn 0.7106 0.7033 -0.0210
vn 0.7106 -0.7033 -0.0210
vn -0.6893 -0.7242 0.0204
vn -0.6095 0.5407 0.5797
vn -0.0000 0.8778 0.4791
vn -0.0000 -0.8778 0.4791
vn 0.6095 0.5407 0.5797
vn 0.6096 0.5407 0.5797
vn 0.6095 -0.5408 0.5797
vn -0.6999 0.7140 0.0178
vn 0.6096 0.5407 0.5798
vn 0.7138 -0.0000 -0.7003
vn -0.6095 -0.5408 0.5797
vn 0.8727 -0.0000 0.4882
vn -0.6095 -0.5407 0.5797
vn 0.6095 -0.5407 0.5797
vn -0.6096 0.5407 0.5797
vn -0.6096 0.5407 0.5798
vt 0.040352 0.968938
vt 0.039315 0.968938
vt 0.049389 0.965922
vt 0.048498 0.968838
vt 0.049389 0.968838
vt 0.039316 0.965922
vt 0.039316 0.968938
vt 0.040352 0.965922
vt 0.049389 0.968856
vt 0.048498 0.965922
vt 0.049389 0.968938
vt 0.049584 0.968938
vt 0.048304 0.968938
vt 0.048498 0.968938
vt 0.048304 0.965922
vt 0.039088 0.965922
vt 0.039088 0.968856
vt 0.049584 0.965922
vt 0.048498 0.968938
vt 0.039316 0.968939
vt 0.377855 0.942428
vt 0.377855 0.939412
vt 0.388351 0.941658
vt 0.388351 0.939412
vt 0.388351 0.942428
vt 0.049389 0.968670
vt 0.048498 0.968670
vt 0.048498 0.968653
vt 0.049389 0.968653
vt 0.048304 0.968311
vt 0.048498 0.968232
vt 0.049584 0.968311
vt 0.048304 0.968747
vt 0.039316 0.968747
vt 0.039088 0.968670
vt 0.049584 0.968747
vt 0.049389 0.968246
vt 0.039316 0.968311
vt 0.048498 0.968226
vt 0.049389 0.968226
vt 0.040352 0.968747
vt 0.040352 0.968747
vt 0.040352 0.968311
vt 0.048304 0.968305
vt 0.039316 0.968305
vt 0.039088 0.968241
vt 0.049584 0.968305
vt 0.049389 0.968232
vt 0.039088 0.968246
vt 0.048498 0.968246
vt 0.048498 0.968072
vt 0.049389 0.968071
vt 0.048304 0.968145
vt 0.039316 0.968146
vt 0.039088 0.968085
vt 0.049584 0.968145
vt 0.049389 0.968241
vt 0.049389 0.968085
vt 0.048498 0.968856
vt 0.048498 0.968241
vt 0.040352 0.968305
vt 0.048498 0.968085
vt 0.040352 0.968145
s 0
usemtl Palette
f 75/1/1 42/2/1 90/2/1
f 4/3/2 14/4/2 1/5/2
f 6/6/3 3/1/3 17/7/3
f 12/6/1 15/1/1 9/8/1
f 8/9/4 11/10/4 7/3/4
f 1/5/5 2/11/5 3/12/5
f 14/4/6 15/13/6 16/14/6
f 14/4/7 9/15/7 15/13/7
f 19/7/8 11/16/8 13/17/8
f 7/16/9 17/7/9 8/17/9
f 5/18/10 1/5/10 3/12/10
f 2/11/11 14/4/11 16/19/11
f 17/7/3 3/1/3 18/7/3
f 71/20/12 20/7/12 23/20/12
f 23/19/13 72/11/13 71/19/13
f 17/7/3 18/7/3 22/7/3
f 64/19/14 15/13/14 63/13/14
f 20/7/1 15/1/1 19/7/1
f 22/7/10 18/2/10 24/20/10
f 21/7/1 20/7/1 19/7/1
f 63/1/1 20/7/1 68/7/1
f 2/11/15 64/19/15 50/11/15
f 24/20/16 66/2/16 72/20/16
f 51/12/17 2/11/17 50/11/17
f 23/20/7 20/7/7 21/7/7
f 38/4/2 28/3/2 25/5/2
f 30/6/1 27/1/1 29/8/1
f 36/6/3 39/1/3 43/7/3
f 35/10/4 32/9/4 31/3/4
f 25/5/6 27/12/6 26/11/6
f 38/4/5 40/14/5 39/13/5
f 38/4/18 33/15/18 34/10/18
f 43/7/19 35/16/19 36/6/19
f 41/7/8 31/16/8 32/17/8
f 25/5/7 29/18/7 27/12/7
f 38/4/11 26/11/11 40/19/11
f 41/7/1 42/7/1 27/1/1
f 92/7/16 47/20/16 44/7/16
f 96/11/13 47/19/13 95/19/13
f 41/7/1 46/7/1 42/7/1
f 39/13/17 88/19/17 87/13/17
f 44/7/3 43/7/3 39/1/3
f 46/7/7 48/20/7 42/7/7
f 45/7/3 43/7/3 44/7/3
f 44/7/3 87/1/3 92/7/3
f 88/19/15 26/11/15 74/11/15
f 90/2/12 48/20/12 96/20/12
f 26/11/14 75/12/14 74/11/14
f 47/20/10 45/7/10 44/7/10
f 62/4/4 52/3/4 49/5/4
f 54/6/3 51/1/3 53/8/3
f 60/6/1 63/1/1 67/7/1
f 59/10/2 56/9/2 55/3/2
f 49/5/20 51/12/20 50/11/20
f 62/4/21 64/14/21 63/13/21
f 62/4/22 57/15/22 58/10/22
f 67/7/23 59/16/23 60/6/23
f 65/7/10 55/16/10 56/17/10
f 49/5/9 53/18/9 51/12/9
f 62/4/24 50/11/24 64/19/24
f 65/7/3 66/7/3 51/1/3
f 65/7/3 70/7/3 66/7/3
f 68/7/1 67/7/1 63/1/1
f 70/7/9 72/20/9 66/7/9
f 69/7/1 67/7/1 68/7/1
f 71/20/8 69/7/8 68/7/8
f 76/3/4 86/4/4 73/5/4
f 78/6/1 75/1/1 89/7/1
f 84/6/3 87/1/3 81/8/3
f 80/9/2 83/10/2 79/3/2
f 73/5/21 74/11/21 75/12/21
f 86/4/20 87/13/20 88/14/20
f 86/4/9 81/15/9 87/13/9
f 91/7/10 83/16/10 85/17/10
f 79/16/7 89/7/7 80/17/7
f 77/18/8 73/5/8 75/12/8
f 74/11/24 86/4/24 88/19/24
f 89/7/1 75/1/1 90/7/1
f 89/7/1 90/7/1 94/7/1
f 92/7/3 87/1/3 91/7/3
f 94/7/8 90/2/8 96/20/8
f 93/7/3 92/7/3 91/7/3
f 95/20/9 92/7/9 93/7/9
f 18/2/3 51/1/3 66/2/3
f 171/1/1 134/2/1 178/2/1
f 24/3/2 112/4/2 99/5/2
f 17/6/3 101/1/3 115/7/3
f 19/6/1 113/1/1 21/8/1
f 106/9/4 13/10/4 8/3/4
f 167/21/1 124/22/1 123/21/1
f 168/23/15 98/23/15 124/23/15
f 99/5/5 100/11/5 101/12/5
f 112/4/6 113/13/6 114/14/6
f 112/4/7 21/15/7 113/13/7
f 117/7/8 13/16/8 111/17/8
f 8/16/9 115/7/9 106/17/9
f 22/18/10 99/5/10 101/12/10
f 100/11/11 112/4/11 114/19/11
f 168/24/2 141/25/2 142/24/2
f 115/7/3 101/1/3 116/7/3
f 165/20/12 118/7/12 121/20/12
f 121/19/13 166/11/13 165/19/13
f 115/7/3 116/7/3 120/7/3
f 157/13/14 114/19/14 113/13/14
f 118/7/1 113/1/1 117/7/1
f 120/7/10 116/2/10 122/20/10
f 119/7/1 118/7/1 117/7/1
f 157/1/1 118/7/1 162/7/1
f 100/11/15 158/19/15 144/11/15
f 122/20/16 160/2/16 166/20/16
f 145/12/17 100/11/17 144/11/17
f 121/20/7 118/7/7 119/7/7
f 130/4/2 48/3/2 125/5/2
f 41/6/1 127/1/1 46/8/1
f 43/6/3 131/1/3 135/7/3
f 37/10/4 128/9/4 32/3/4
f 141/23/13 123/23/13 97/23/13
f 125/5/6 127/12/6 126/11/6
f 130/4/5 132/14/5 131/13/5
f 130/4/10 45/15/10 47/10/10
f 135/7/9 37/16/9 43/6/9
f 133/7/8 32/16/8 128/17/8
f 125/5/7 46/18/7 127/12/7
f 130/4/11 126/11/11 132/19/11
f 133/7/1 134/7/1 127/1/1
f 180/7/16 139/20/16 136/7/16
f 184/11/13 139/19/13 183/19/13
f 133/7/1 138/7/1 134/7/1
f 131/13/17 176/19/17 175/13/17
f 136/7/3 135/7/3 131/1/3
f 138/7/7 140/20/7 134/7/7
f 137/7/3 135/7/3 136/7/3
f 136/7/3 175/1/3 180/7/3
f 176/19/15 126/11/15 170/11/15
f 178/2/12 140/20/12 184/20/12
f 126/11/14 171/12/14 170/11/14
f 139/20/10 137/7/10 136/7/10
f 156/4/4 72/3/4 143/5/4
f 65/6/3 145/1/3 70/8/3
f 67/6/1 157/1/1 161/7/1
f 61/10/2 150/9/2 56/3/2
f 143/5/20 145/12/20 144/11/20
f 156/4/21 158/14/21 157/13/21
f 156/4/8 69/15/8 71/10/8
f 161/7/7 61/16/7 67/6/7
f 159/7/10 56/16/10 150/17/10
f 143/5/9 70/18/9 145/12/9
f 156/4/24 144/11/24 158/19/24
f 142/22/3 97/21/3 98/22/3
f 159/7/3 160/7/3 145/1/3
f 159/7/3 164/7/3 160/7/3
f 162/7/1 161/7/1 157/1/1
f 164/7/9 166/20/9 160/7/9
f 163/7/1 161/7/1 162/7/1
f 165/20/8 163/7/8 162/7/8
f 96/3/4 174/4/4 169/5/4
f 89/6/1 171/1/1 177/7/1
f 91/6/3 175/1/3 93/8/3
f 172/9/2 85/10/2 80/3/2
f 169/5/21 170/11/21 171/12/21
f 174/4/20 175/13/20 176/14/20
f 174/4/9 93/15/9 175/13/9
f 179/7/10 85/16/10 173/17/10
f 80/16/7 177/7/7 172/17/7
f 94/18/8 169/5/8 171/12/8
f 170/11/24 174/4/24 176/19/24
f 177/7/1 171/1/1 178/7/1
f 177/7/1 178/7/1 182/7/1
f 180/7/3 175/1/3 179/7/3
f 182/7/8 178/2/8 184/20/8
f 181/7/3 180/7/3 179/7/3
f 183/20/9 180/7/9 181/7/9
f 123/25/4 98/24/4 97/25/4
f 116/2/3 145/1/3 160/2/3
f 259/1/1 222/2/1 266/2/1
f 122/3/2 200/4/2 187/5/2
f 115/6/3 189/1/3 203/7/3
f 117/6/1 201/1/1 119/8/1
f 194/9/4 111/10/4 106/3/4
f 255/21/1 212/22/1 211/21/1
f 256/23/15 186/23/15 212/23/15
f 187/5/5 188/11/5 189/12/5
f 200/4/6 201/13/6 202/14/6
f 200/4/7 119/15/7 201/13/7
f 205/7/8 111/16/8 199/17/8
f 106/16/9 203/7/9 194/17/9
f 120/18/10 187/5/10 189/12/10
f 188/11/11 200/4/11 202/19/11
f 256/24/2 229/25/2 230/24/2
f 203/7/3 189/1/3 204/7/3
f 253/20/12 206/7/12 209/20/12
f 209/19/13 254/11/13 253/19/13
f 203/7/3 204/7/3 208/7/3
f 246/19/14 201/13/14 245/13/14
f 206/7/1 201/1/1 205/7/1
f 208/7/10 204/2/10 210/20/10
f 207/7/1 206/7/1 205/7/1
f 245/1/1 206/7/1 250/7/1
f 188/11/15 246/19/15 232/11/15
f 210/20/16 248/2/16 254/20/16
f 233/12/17 188/11/17 232/11/17
f 209/20/7 206/7/7 207/7/7
f 218/4/2 140/3/2 213/5/2
f 133/6/1 215/1/1 138/8/1
f 135/6/3 219/1/3 223/7/3
f 129/10/4 216/9/4 128/3/4
f 229/23/13 211/23/13 185/23/13
f 213/5/6 215/12/6 214/11/6
f 218/4/5 220/14/5 219/13/5
f 218/4/10 137/15/10 139/10/10
f 223/7/9 129/16/9 135/6/9
f 221/7/8 128/16/8 216/17/8
f 213/5/7 138/18/7 215/12/7
f 218/4/11 214/11/11 220/19/11
f 221/7/1 222/7/1 215/1/1
f 268/7/16 227/20/16 224/7/16
f 272/11/13 227/19/13 271/19/13
f 221/7/1 226/7/1 222/7/1
f 219/13/17 264/19/17 263/13/17
f 224/7/3 223/7/3 219/1/3
f 226/7/7 228/20/7 222/7/7
f 225/7/3 223/7/3 224/7/3
f 224/7/3 263/1/3 268/7/3
f 264/19/15 214/11/15 258/11/15
f 266/2/12 228/20/12 272/20/12
f 214/11/14 259/12/14 258/11/14
f 227/20/10 225/7/10 224/7/10
f 244/4/4 166/3/4 231/5/4
f 159/6/3 233/1/3 164/8/3
f 161/6/1 245/1/1 249/7/1
f 155/10/2 238/9/2 150/3/2
f 231/5/20 233/12/20 232/11/20
f 244/4/21 246/14/21 245/13/21
f 244/4/8 163/15/8 165/10/8
f 249/7/7 155/16/7 161/6/7
f 247/7/10 150/16/10 238/17/10
f 231/5/9 164/18/9 233/12/9
f 244/4/24 232/11/24 246/19/24
f 230/22/3 185/21/3 186/22/3
f 247/7/3 248/7/3 233/1/3
f 247/7/3 252/7/3 248/7/3
f 250/7/1 249/7/1 245/1/1
f 252/7/9 254/20/9 248/7/9
f 251/7/1 249/7/1 250/7/1
f 253/20/8 251/7/8 250/7/8
f 184/3/4 262/4/4 257/5/4
f 177/6/1 259/1/1 265/7/1
f 179/6/3 263/1/3 181/8/3
f 260/9/2 173/10/2 172/3/2
f 257/5/21 258/11/21 259/12/21
f 262/4/20 263/13/20 264/14/20
f 262/4/9 181/15/9 263/13/9
f 267/7/10 173/16/10 261/17/10
f 172/16/7 265/7/7 260/17/7
f 182/18/8 257/5/8 259/12/8
f 258/11/24 262/4/24 264/19/24
f 265/7/1 259/1/1 266/7/1
f 265/7/1 266/7/1 270/7/1
f 268/7/3 263/1/3 267/7/3
f 270/7/8 266/2/8 272/20/8
f 269/7/3 268/7/3 267/7/3
f 271/20/9 268/7/9 269/7/9
f 211/25/4 186/24/4 185/25/4
f 204/2/3 233/1/3 248/2/3
f 343/1/1 306/2/1 350/2/1
f 210/3/2 284/4/2 275/5/2
f 203/6/3 277/1/3 287/7/3
f 205/6/1 285/1/1 207/8/1
f 278/9/4 199/10/4 194/3/4
f 339/21/1 296/22/1 295/21/1
f 340/23/15 274/23/15 296/23/15
f 275/5/5 276/11/5 277/12/5
f 284/4/6 285/13/6 286/14/6
f 284/4/7 207/15/7 285/13/7
f 289/7/8 199/16/8 283/17/8
f 194/16/9 287/7/9 278/17/9
f 208/18/10 275/5/10 277/12/10
f 276/11/11 284/4/11 286/19/11
f 340/24/2 313/25/2 314/24/2
f 287/7/3 277/1/3 288/7/3
f 337/20/12 290/7/12 293/20/12
f 293/19/13 338/11/13 337/19/13
f 287/7/3 288/7/3 292/7/3
f 330/19/14 285/13/14 329/13/14
f 290/7/1 285/1/1 289/7/1
f 292/7/10 288/2/10 294/20/10
f 291/7/1 290/7/1 289/7/1
f 329/1/1 290/7/1 334/7/1
f 276/11/15 330/19/15 316/11/15
f 338/20/16 288/2/16 332/2/16
f 317/12/17 276/11/17 316/11/17
f 293/20/7 290/7/7 291/7/7
f 302/4/2 228/3/2 297/5/2
f 221/6/1 299/1/1 226/8/1
f 223/6/3 303/1/3 307/7/3
f 217/10/4 300/9/4 216/3/4
f 313/23/13 295/23/13 273/23/13
f 297/5/6 299/12/6 298/11/6
f 302/4/5 304/14/5 303/13/5
f 302/4/10 225/15/10 227/10/10
f 307/7/9 217/16/9 223/6/9
f 305/7/8 216/16/8 300/17/8
f 297/5/25 226/18/25 299/12/25
f 302/4/11 298/11/11 304/19/11
f 305/7/1 306/7/1 299/1/1
f 352/7/16 311/20/16 308/7/16
f 356/11/13 311/19/13 355/19/13
f 305/7/1 310/7/1 306/7/1
f 347/13/17 304/19/17 348/19/17
f 308/7/3 307/7/3 303/1/3
f 310/7/7 312/20/7 306/7/7
f 309/7/3 307/7/3 308/7/3
f 308/7/3 347/1/3 352/7/3
f 348/19/15 298/11/15 342/11/15
f 350/2/12 312/20/12 356/20/12
f 342/11/14 299/12/14 343/12/14
f 311/20/10 309/7/10 308/7/10
f 328/4/4 254/3/4 315/5/4
f 247/6/3 317/1/3 252/8/3
f 249/6/1 329/1/1 333/7/1
f 243/10/2 322/9/2 238/3/2
f 315/5/20 317/12/20 316/11/20
f 328/4/21 330/14/21 329/13/21
f 328/4/8 251/15/8 253/10/8
f 333/7/7 243/16/7 249/6/7
f 331/7/10 238/16/10 322/17/10
f 315/5/9 252/18/9 317/12/9
f 328/4/24 316/11/24 330/19/24
f 314/22/3 273/21/3 274/22/3
f 331/7/3 332/7/3 317/1/3
f 331/7/3 336/7/3 332/7/3
f 334/7/1 333/7/1 329/1/1
f 336/7/9 338/20/9 332/7/9
f 335/7/1 333/7/1 334/7/1
f 337/20/8 335/7/8 334/7/8
f 272/3/4 346/4/4 341/5/4
f 265/6/1 343/1/1 349/7/1
f 267/6/3 347/1/3 269/8/3
f 344/9/2 261/10/2 260/3/2
f 341/5/21 342/11/21 343/12/21
f 346/4/20 347/13/20 348/14/20
f 346/4/9 269/15/9 347/13/9
f 351/7/10 261/16/10 345/17/10
f 260/16/7 349/7/7 344/17/7
f 270/18/8 341/5/8 343/12/8
f 342/11/24 346/4/24 348/19/24
f 349/7/1 343/1/1 350/7/1
f 349/7/1 350/7/1 354/7/1
f 352/7/3 347/1/3 351/7/3
f 354/7/8 350/2/8 356/20/8
f 353/7/3 352/7/3 351/7/3
f 355/20/9 352/7/9 353/7/9
f 295/25/4 274/24/4 273/25/4
f 288/2/3 317/1/3 332/2/3
f 415/1/1 386/2/1 422/2/1
f 294/3/2 364/4/2 359/5/2
f 287/6/3 361/1/3 367/7/3
f 289/6/1 365/1/1 291/8/1
f 362/9/4 283/10/4 278/3/4
f 411/21/1 376/22/1 375/21/1
f 412/23/15 358/23/15 376/23/15
f 359/5/5 360/11/5 361/12/5
f 364/4/6 365/13/6 366/14/6
f 364/4/7 291/15/7 365/13/7
f 369/7/8 283/16/8 363/17/8
f 278/16/9 367/7/9 362/17/9
f 292/18/10 359/5/10 361/12/10
f 360/11/11 364/4/11 366/19/11
f 412/24/2 393/25/2 394/24/2
f 367/7/3 361/1/3 368/7/3
f 409/20/12 370/7/12 373/20/12
f 373/19/13 410/11/13 409/19/13
f 367/7/3 368/7/3 372/7/3
f 401/13/14 366/19/14 365/13/14
f 370/7/1 365/1/1 369/7/1
f 372/7/10 368/2/10 374/20/10
f 371/7/1 370/7/1 369/7/1
f 401/1/1 370/7/1 406/7/1
f 360/11/15 402/19/15 396/11/15
f 374/20/16 404/2/16 410/20/16
f 397/12/17 360/11/17 396/11/17
f 373/20/7 370/7/7 371/7/7
f 382/4/2 312/3/2 377/5/2
f 305/6/1 379/1/1 310/8/1
f 307/6/3 383/1/3 387/7/3
f 301/10/4 380/9/4 300/3/4
f 393/23/13 375/23/13 357/23/13
f 377/5/6 379/12/6 378/11/6
f 382/4/5 384/14/5 383/13/5
f 382/4/10 309/15/10 311/10/10
f 387/7/9 301/16/9 307/6/9
f 385/7/8 300/16/8 380/17/8
f 377/5/7 310/18/7 379/12/7
f 382/4/11 378/11/11 384/19/11
f 385/7/1 386/7/1 379/1/1
f 424/7/16 391/20/16 388/7/16
f 428/11/13 391/19/13 427/19/13
f 385/7/1 390/7/1 386/7/1
f 383/13/17 420/19/17 419/13/17
f 388/7/3 387/7/3 383/1/3
f 390/7/7 392/20/7 386/7/7
f 389/7/3 387/7/3 388/7/3
f 388/7/3 419/1/3 424/7/3
f 420/19/15 378/11/15 414/11/15
f 422/2/12 392/20/12 428/20/12
f 378/11/14 415/12/14 414/11/14
f 391/20/10 389/7/10 388/7/10
f 400/4/4 338/3/4 395/5/4
f 331/6/3 397/1/3 336/8/3
f 333/6/1 401/1/1 405/7/1
f 327/10/2 398/9/2 322/3/2
f 395/5/20 397/12/20 396/11/20
f 400/4/21 402/14/21 401/13/21
f 400/4/8 335/15/8 337/10/8
f 405/7/7 327/16/7 333/6/7
f 403/7/10 322/16/10 398/17/10
f 395/5/9 336/18/9 397/12/9
f 400/4/24 396/11/24 402/19/24
f 394/22/3 357/21/3 358/22/3
f 403/7/3 404/7/3 397/1/3
f 403/7/3 408/7/3 404/7/3
f 406/7/1 405/7/1 401/1/1
f 408/7/9 410/20/9 404/7/9
f 407/7/1 405/7/1 406/7/1
f 409/20/8 407/7/8 406/7/8
f 356/3/4 418/4/4 413/5/4
f 349/6/1 415/1/1 421/7/1
f 351/6/3 419/1/3 353/8/3
f 416/9/2 345/10/2 344/3/2
f 413/5/21 414/11/21 415/12/21
f 418/4/20 419/13/20 420/14/20
f 418/4/9 353/15/9 419/13/9
f 423/7/10 345/16/10 417/17/10
f 344/16/7 421/7/7 416/17/7
f 354/18/8 413/5/8 415/12/8
f 414/11/24 418/4/24 420/19/24
f 421/7/1 415/1/1 422/7/1
f 421/7/1 422/7/1 426/7/1
f 424/7/3 419/1/3 423/7/3
f 426/7/8 422/2/8 428/20/8
f 425/7/3 424/7/3 423/7/3
f 427/20/9 424/7/9 425/7/9
f 375/25/4 358/24/4 357/25/4
f 368/2/3 397/1/3 404/2/3
f 239/26/4 193/27/4 240/27/4
f 374/3/2 474/28/2 473/29/2
f 452/4/26 482/30/26 434/31/26
f 449/5/9 481/32/9 451/12/9
f 459/21/1 442/22/1 441/21/1
f 460/23/15 430/23/15 442/23/15
f 431/5/5 432/11/5 433/12/5
f 436/4/6 437/13/6 438/14/6
f 373/10/7 476/33/7 474/28/7
f 479/34/26 363/16/26 477/35/26
f 362/16/27 480/34/27 478/35/27
f 475/36/10 374/3/10 473/29/10
f 432/11/11 436/4/11 438/19/11
f 460/24/2 447/25/2 448/24/2
f 399/10/2 484/37/2 398/3/2
f 407/8/1 440/38/1 405/6/1
f 454/19/14 437/13/14 453/13/14
f 432/11/15 454/19/15 450/11/15
f 451/12/17 432/11/17 450/11/17
f 153/39/2 392/3/2 154/40/2
f 468/13/1 234/13/1 462/13/1
f 152/41/28 237/34/28 468/41/28
f 470/42/3 190/34/3 236/34/3
f 447/23/13 441/23/13 429/23/13
f 234/43/29 319/38/29 196/38/29
f 443/38/3 235/43/3 464/43/3
f 151/44/30 391/10/30 153/39/30
f 149/45/9 381/16/9 387/6/9
f 146/45/26 380/16/26 147/46/26
f 152/47/7 392/3/7 390/18/7
f 191/34/31 282/35/31 280/34/31
f 462/43/1 196/38/1 444/38/1
f 469/4/32 152/33/32 468/13/32
f 463/4/4 109/48/4 466/5/4
f 147/35/33 237/34/33 146/34/33
f 236/34/27 192/35/27 239/35/27
f 446/49/30 195/38/30 443/38/30
f 148/26/4 240/27/4 147/27/4
f 149/34/34 239/35/34 148/35/34
f 464/12/3 241/12/3 470/12/3
f 235/43/35 318/38/35 324/43/35
f 151/42/36 236/34/36 149/34/36
f 444/38/37 197/49/37 445/49/37
f 153/29/2 469/4/2 472/5/2
f 434/31/4 410/3/4 435/48/4
f 482/43/1 457/38/1 440/38/1
f 449/5/20 451/12/20 450/11/20
f 452/4/21 454/14/21 453/13/21
f 482/30/26 409/10/26 434/31/26
f 440/38/7 399/16/7 405/6/7
f 439/38/30 398/16/30 484/49/30
f 481/32/9 410/3/9 408/18/9
f 452/4/24 450/11/24 454/19/24
f 448/22/3 429/21/3 430/22/3
f 439/38/30 455/49/30 458/38/30
f 440/38/37 456/49/37 483/49/37
f 483/50/2 455/37/2 484/37/2
f 481/43/3 458/38/3 451/43/3
f 428/3/4 109/51/4 110/52/4
f 104/38/38 446/49/38 443/38/38
f 471/11/11 469/4/11 467/19/11
f 463/4/21 461/14/21 462/13/21
f 102/37/2 445/50/2 446/37/2
f 471/11/15 461/19/15 465/11/15
f 427/10/27 107/53/27 109/51/27
f 104/54/30 417/16/30 102/55/30
f 416/16/37 105/54/37 103/55/37
f 108/56/26 428/3/26 110/52/26
f 151/36/39 472/5/39 470/12/39
f 463/4/24 465/11/24 461/19/24
f 469/4/6 468/13/6 467/14/6
f 461/19/14 468/13/14 462/13/14
f 472/5/5 471/11/5 470/12/5
f 466/5/40 107/32/40 464/12/40
f 463/4/41 108/30/41 110/31/41
f 441/25/4 430/24/4 429/25/4
f 475/36/10 431/5/10 433/12/10
f 452/4/4 435/48/4 449/5/4
f 439/38/3 408/8/3 403/6/3
f 436/4/7 476/33/7 437/13/7
f 478/26/4 363/10/4 362/3/4
f 479/34/1 371/8/1 369/6/1
f 372/8/3 480/34/3 367/6/3
f 473/29/2 436/4/2 431/5/2
f 480/34/27 488/35/27 478/35/27
f 475/42/3 490/34/3 480/34/3
f 478/26/4 487/27/4 477/27/4
f 477/35/26 489/34/26 479/34/26
f 476/41/1 489/34/1 437/41/1
f 455/49/30 496/38/30 458/38/30
f 451/12/3 486/12/3 433/12/3
f 490/34/27 498/35/27 488/35/27
f 458/38/3 491/43/3 451/43/3
f 489/34/1 485/41/1 437/41/1
f 487/35/8 499/34/8 489/34/8
f 456/50/2 493/37/2 455/37/2
f 433/42/3 500/34/3 490/34/3
f 488/26/4 497/27/4 487/27/4
f 453/43/1 495/38/1 457/38/1
f 437/13/1 492/13/1 453/13/1
f 457/38/37 494/49/37 456/49/37
f 491/43/35 508/38/35 503/43/35
f 486/42/35 512/34/35 500/34/35
f 492/43/29 507/38/29 495/38/29
f 495/38/42 506/49/42 494/49/42
f 499/34/31 509/35/31 511/34/31
f 485/13/29 504/13/29 492/13/29
f 493/37/43 506/50/43 505/37/43
f 491/12/35 502/12/35 486/12/35
f 498/26/44 509/27/44 497/27/44
f 496/38/45 505/49/45 508/38/46
f 485/41/29 511/34/29 501/41/29
f 500/34/47 510/35/47 498/35/47
f 503/12/13 508/38/13 507/38/13
f 12/6/15 9/8/15 10/10/15
f 55/16/15 54/6/15 53/18/15
f 84/6/15 81/8/15 82/10/15
f 31/16/15 30/6/15 29/18/15
f 241/42/35 279/34/35 190/34/35
f 445/50/2 198/37/2 446/37/2
f 240/35/8 191/34/8 237/34/8
f 237/34/1 242/41/1 468/41/1
f 381/10/4 147/57/4 380/3/4
f 389/8/3 149/45/3 387/6/3
f 146/45/1 390/8/1 385/6/1
f 196/38/42 320/49/42 197/49/42
f 103/49/48 444/38/48 445/49/48
f 466/5/20 464/12/20 465/11/20
f 108/43/28 444/38/28 105/38/28
f 464/12/17 471/11/17 465/11/17
f 103/58/2 417/10/2 416/3/2
f 104/54/3 425/8/3 423/6/3
f 426/8/1 105/54/1 421/6/1
f 107/43/36 443/38/36 464/43/36
f 242/13/29 323/13/29 234/13/29
f 198/37/43 320/50/43 321/37/43
f 235/12/35 325/12/35 241/12/35
f 192/26/44 282/27/44 193/27/44
f 195/38/46 321/49/49 318/38/46
f 242/41/29 280/34/29 326/41/29
f 190/34/47 281/35/47 192/35/47
f 324/12/13 318/38/13 319/38/13
f 75/1/1 27/1/1 42/2/1
f 4/3/2 10/10/2 14/4/2
f 6/6/3 5/8/3 3/1/3
f 12/6/1 19/7/1 15/1/1
f 8/9/4 13/59/4 11/10/4
f 14/4/23 10/10/23 9/15/23
f 19/7/22 12/6/22 11/16/22
f 7/16/19 6/6/19 17/7/19
f 5/18/18 4/3/18 1/5/18
f 2/11/11 1/5/11 14/4/11
f 71/20/12 68/7/12 20/7/12
f 23/19/13 24/11/13 72/11/13
f 64/19/14 16/19/14 15/13/14
f 63/1/1 15/1/1 20/7/1
f 2/11/15 16/19/15 64/19/15
f 24/20/16 18/2/16 66/2/16
f 51/12/17 3/12/17 2/11/17
f 38/4/2 34/10/2 28/3/2
f 30/6/1 41/7/1 27/1/1
f 36/6/3 33/8/3 39/1/3
f 35/10/4 37/59/4 32/9/4
f 38/4/10 39/13/10 33/15/10
f 43/7/9 37/17/9 35/16/9
f 41/7/22 30/6/22 31/16/22
f 25/5/23 28/3/23 29/18/23
f 38/4/11 25/5/11 26/11/11
f 92/7/16 95/20/16 47/20/16
f 96/11/13 48/11/13 47/19/13
f 39/13/17 40/19/17 88/19/17
f 44/7/3 39/1/3 87/1/3
f 88/19/15 40/19/15 26/11/15
f 90/2/12 42/2/12 48/20/12
f 26/11/14 27/12/14 75/12/14
f 62/4/4 58/10/4 52/3/4
f 54/6/3 65/7/3 51/1/3
f 60/6/1 57/8/1 63/1/1
f 59/10/2 61/59/2 56/9/2
f 62/4/8 63/13/8 57/15/8
f 67/7/7 61/17/7 59/16/7
f 65/7/18 54/6/18 55/16/18
f 49/5/19 52/3/19 53/18/19
f 62/4/24 49/5/24 50/11/24
f 76/3/4 82/10/4 86/4/4
f 78/6/1 77/8/1 75/1/1
f 84/6/3 91/7/3 87/1/3
f 80/9/2 85/59/2 83/10/2
f 86/4/19 82/10/19 81/15/19
f 91/7/18 84/6/18 83/16/18
f 79/16/23 78/6/23 89/7/23
f 77/18/22 76/3/22 73/5/22
f 74/11/24 73/5/24 86/4/24
f 18/2/3 3/1/3 51/1/3
f 171/1/1 127/1/1 134/2/1
f 24/3/2 23/10/2 112/4/2
f 17/6/3 22/8/3 101/1/3
f 19/6/1 117/7/1 113/1/1
f 106/9/4 111/59/4 13/10/4
f 167/21/1 168/22/1 124/22/1
f 168/23/15 142/23/15 98/23/15
f 112/4/7 23/10/7 21/15/7
f 117/7/8 19/6/8 13/16/8
f 8/16/9 17/6/9 115/7/9
f 22/18/10 24/3/10 99/5/10
f 100/11/11 99/5/11 112/4/11
f 168/24/2 167/25/2 141/25/2
f 165/20/12 162/7/12 118/7/12
f 121/19/13 122/11/13 166/11/13
f 157/13/14 158/19/14 114/19/14
f 157/1/1 113/1/1 118/7/1
f 100/11/15 114/19/15 158/19/15
f 122/20/16 116/2/16 160/2/16
f 145/12/17 101/12/17 100/11/17
f 130/4/2 47/10/2 48/3/2
f 41/6/1 133/7/1 127/1/1
f 43/6/3 45/8/3 131/1/3
f 37/10/4 129/59/4 128/9/4
f 141/23/13 167/23/13 123/23/13
f 130/4/10 131/13/10 45/15/10
f 135/7/9 129/17/9 37/16/9
f 133/7/8 41/6/8 32/16/8
f 125/5/7 48/3/7 46/18/7
f 130/4/11 125/5/11 126/11/11
f 180/7/16 183/20/16 139/20/16
f 184/11/13 140/11/13 139/19/13
f 131/13/17 132/19/17 176/19/17
f 136/7/3 131/1/3 175/1/3
f 176/19/15 132/19/15 126/11/15
f 178/2/12 134/2/12 140/20/12
f 126/11/14 127/12/14 171/12/14
f 156/4/4 71/10/4 72/3/4
f 65/6/3 159/7/3 145/1/3
f 67/6/1 69/8/1 157/1/1
f 61/10/2 155/59/2 150/9/2
f 156/4/8 157/13/8 69/15/8
f 161/7/7 155/17/7 61/16/7
f 159/7/10 65/6/10 56/16/10
f 143/5/9 72/3/9 70/18/9
f 156/4/24 143/5/24 144/11/24
f 142/22/3 141/21/3 97/21/3
f 96/3/4 95/10/4 174/4/4
f 89/6/1 94/8/1 171/1/1
f 91/6/3 179/7/3 175/1/3
f 172/9/2 173/59/2 85/10/2
f 174/4/9 95/10/9 93/15/9
f 179/7/10 91/6/10 85/16/10
f 80/16/7 89/6/7 177/7/7
f 94/18/8 96/3/8 169/5/8
f 170/11/24 169/5/24 174/4/24
f 123/25/4 124/24/4 98/24/4
f 116/2/3 101/1/3 145/1/3
f 259/1/1 215/1/1 222/2/1
f 122/3/2 121/10/2 200/4/2
f 115/6/3 120/8/3 189/1/3
f 117/6/1 205/7/1 201/1/1
f 194/9/4 199/59/4 111/10/4
f 255/21/1 256/22/1 212/22/1
f 256/23/15 230/23/15 186/23/15
f 200/4/7 121/10/7 119/15/7
f 205/7/8 117/6/8 111/16/8
f 106/16/9 115/6/9 203/7/9
f 120/18/10 122/3/10 187/5/10
f 188/11/11 187/5/11 200/4/11
f 256/24/2 255/25/2 229/25/2
f 253/20/12 250/7/12 206/7/12
f 209/19/13 210/11/13 254/11/13
f 246/19/14 202/19/14 201/13/14
f 245/1/1 201/1/1 206/7/1
f 188/11/15 202/19/15 246/19/15
f 210/20/16 204/2/16 248/2/16
f 233/12/17 189/12/17 188/11/17
f 218/4/2 139/10/2 140/3/2
f 133/6/1 221/7/1 215/1/1
f 135/6/3 137/8/3 219/1/3
f 129/10/4 217/59/4 216/9/4
f 229/23/13 255/23/13 211/23/13
f 218/4/10 219/13/10 137/15/10
f 223/7/9 217/17/9 129/16/9
f 221/7/8 133/6/8 128/16/8
f 213/5/7 140/3/7 138/18/7
f 218/4/11 213/5/11 214/11/11
f 268/7/16 271/20/16 227/20/16
f 272/11/13 228/11/13 227/19/13
f 219/13/17 220/19/17 264/19/17
f 224/7/3 219/1/3 263/1/3
f 264/19/15 220/19/15 214/11/15
f 266/2/12 222/2/12 228/20/12
f 214/11/14 215/12/14 259/12/14
f 244/4/4 165/10/4 166/3/4
f 159/6/3 247/7/3 233/1/3
f 161/6/1 163/8/1 245/1/1
f 155/10/2 243/59/2 238/9/2
f 244/4/8 245/13/8 163/15/8
f 249/7/7 243/17/7 155/16/7
f 247/7/10 159/6/10 150/16/10
f 231/5/9 166/3/9 164/18/9
f 244/4/24 231/5/24 232/11/24
f 230/22/3 229/21/3 185/21/3
f 184/3/4 183/10/4 262/4/4
f 177/6/1 182/8/1 259/1/1
f 179/6/3 267/7/3 263/1/3
f 260/9/2 261/59/2 173/10/2
f 262/4/9 183/10/9 181/15/9
f 267/7/10 179/6/10 173/16/10
f 172/16/7 177/6/7 265/7/7
f 182/18/8 184/3/8 257/5/8
f 258/11/24 257/5/24 262/4/24
f 211/25/4 212/24/4 186/24/4
f 204/2/3 189/1/3 233/1/3
f 343/1/1 299/1/1 306/2/1
f 210/3/2 209/10/2 284/4/2
f 203/6/3 208/8/3 277/1/3
f 205/6/1 289/7/1 285/1/1
f 278/9/4 283/59/4 199/10/4
f 339/21/1 340/22/1 296/22/1
f 340/23/15 314/23/15 274/23/15
f 284/4/7 209/10/7 207/15/7
f 289/7/8 205/6/8 199/16/8
f 194/16/9 203/6/9 287/7/9
f 208/18/10 210/3/10 275/5/10
f 276/11/11 275/5/11 284/4/11
f 340/24/2 339/25/2 313/25/2
f 337/20/12 334/7/12 290/7/12
f 293/19/13 294/11/13 338/11/13
f 330/19/14 286/19/14 285/13/14
f 329/1/1 285/1/1 290/7/1
f 276/11/15 286/19/15 330/19/15
f 338/20/16 294/20/16 288/2/16
f 317/12/17 277/12/17 276/11/17
f 302/4/2 227/10/2 228/3/2
f 221/6/1 305/7/1 299/1/1
f 223/6/3 225/8/3 303/1/3
f 217/10/4 301/59/4 300/9/4
f 313/23/13 339/23/13 295/23/13
f 302/4/10 303/13/10 225/15/10
f 307/7/9 301/17/9 217/16/9
f 305/7/8 221/6/8 216/16/8
f 297/5/7 228/3/7 226/18/7
f 302/4/11 297/5/11 298/11/11
f 352/7/16 355/20/16 311/20/16
f 356/11/13 312/11/13 311/19/13
f 347/13/50 303/13/50 304/19/50
f 308/7/3 303/1/3 347/1/3
f 348/19/15 304/19/15 298/11/15
f 350/2/12 306/2/12 312/20/12
f 342/11/14 298/11/14 299/12/14
f 328/4/4 253/10/4 254/3/4
f 247/6/3 331/7/3 317/1/3
f 249/6/1 251/8/1 329/1/1
f 243/10/2 327/59/2 322/9/2
f 328/4/8 329/13/8 251/15/8
f 333/7/7 327/17/7 243/16/7
f 331/7/10 247/6/10 238/16/10
f 315/5/9 254/3/9 252/18/9
f 328/4/24 315/5/24 316/11/24
f 314/22/3 313/21/3 273/21/3
f 272/3/4 271/10/4 346/4/4
f 265/6/1 270/8/1 343/1/1
f 267/6/3 351/7/3 347/1/3
f 344/9/2 345/59/2 261/10/2
f 346/4/9 271/10/9 269/15/9
f 351/7/10 267/6/10 261/16/10
f 260/16/7 265/6/7 349/7/7
f 270/18/8 272/3/8 341/5/8
f 342/11/24 341/5/24 346/4/24
f 295/25/4 296/24/4 274/24/4
f 288/2/3 277/1/3 317/1/3
f 415/1/1 379/1/1 386/2/1
f 294/3/2 293/10/2 364/4/2
f 287/6/3 292/8/3 361/1/3
f 289/6/1 369/7/1 365/1/1
f 362/9/4 363/59/4 283/10/4
f 411/21/1 412/22/1 376/22/1
f 412/23/15 394/23/15 358/23/15
f 364/4/7 293/10/7 291/15/7
f 369/7/8 289/6/8 283/16/8
f 278/16/9 287/6/9 367/7/9
f 292/18/10 294/3/10 359/5/10
f 360/11/11 359/5/11 364/4/11
f 412/24/2 411/25/2 393/25/2
f 409/20/12 406/7/12 370/7/12
f 373/19/13 374/11/13 410/11/13
f 401/13/14 402/19/14 366/19/14
f 401/1/1 365/1/1 370/7/1
f 360/11/15 366/19/15 402/19/15
f 374/20/16 368/2/16 404/2/16
f 397/12/17 361/12/17 360/11/17
f 382/4/2 311/10/2 312/3/2
f 305/6/1 385/7/1 379/1/1
f 307/6/3 309/8/3 383/1/3
f 301/10/4 381/59/4 380/9/4
f 393/23/13 411/23/13 375/23/13
f 382/4/10 383/13/10 309/15/10
f 387/7/9 381/17/9 301/16/9
f 385/7/8 305/6/8 300/16/8
f 377/5/7 312/3/7 310/18/7
f 382/4/11 377/5/11 378/11/11
f 424/7/16 427/20/16 391/20/16
f 428/11/13 392/11/13 391/19/13
f 383/13/17 384/19/17 420/19/17
f 388/7/3 383/1/3 419/1/3
f 420/19/15 384/19/15 378/11/15
f 422/2/12 386/2/12 392/20/12
f 378/11/14 379/12/14 415/12/14
f 400/4/4 337/10/4 338/3/4
f 331/6/3 403/7/3 397/1/3
f 333/6/1 335/8/1 401/1/1
f 327/10/2 399/59/2 398/9/2
f 400/4/8 401/13/8 335/15/8
f 405/7/7 399/17/7 327/16/7
f 403/7/10 331/6/10 322/16/10
f 395/5/9 338/3/9 336/18/9
f 400/4/24 395/5/24 396/11/24
f 394/22/3 393/21/3 357/21/3
f 356/3/4 355/10/4 418/4/4
f 349/6/1 354/8/1 415/1/1
f 351/6/3 423/7/3 419/1/3
f 416/9/2 417/59/2 345/10/2
f 418/4/9 355/10/9 353/15/9
f 423/7/10 351/6/10 345/16/10
f 344/16/7 349/6/7 421/7/7
f 354/18/8 356/3/8 413/5/8
f 414/11/24 413/5/24 418/4/24
f 375/25/4 376/24/4 358/24/4
f 368/2/3 361/1/3 397/1/3
f 239/26/4 192/26/4 193/27/4
f 374/3/2 373/10/2 474/28/2
f 452/4/8 453/13/8 482/30/8
f 449/5/27 435/48/27 481/32/27
f 459/21/1 460/22/1 442/22/1
f 460/23/15 448/23/15 430/23/15
f 373/10/7 371/15/7 476/33/7
f 479/34/8 369/6/8 363/16/8
f 362/16/9 367/6/9 480/34/9
f 475/36/10 372/18/10 374/3/10
f 432/11/11 431/5/11 436/4/11
f 460/24/2 459/25/2 447/25/2
f 399/10/2 483/50/2 484/37/2
f 407/8/1 482/43/1 440/38/1
f 454/19/14 438/19/14 437/13/14
f 432/11/15 438/19/15 454/19/15
f 451/12/17 433/12/17 432/11/17
f 153/39/2 391/10/2 392/3/2
f 468/13/1 242/13/1 234/13/1
f 152/41/28 146/34/28 237/34/28
f 470/42/3 241/42/3 190/34/3
f 447/23/13 459/23/13 441/23/13
f 234/43/29 323/43/29 319/38/29
f 443/38/3 195/38/3 235/43/3
f 151/44/10 389/15/10 391/10/10
f 149/45/27 148/46/27 381/16/27
f 146/45/8 385/6/8 380/16/8
f 152/47/37 154/40/37 392/3/37
f 191/34/51 193/35/51 282/35/51
f 462/43/1 234/43/1 196/38/1
f 469/4/32 154/28/32 152/33/32
f 463/4/4 110/31/4 109/48/4
f 147/35/33 240/35/33 237/34/33
f 236/34/27 190/34/27 192/35/27
f 446/49/30 198/49/30 195/38/30
f 148/26/4 239/26/4 240/27/4
f 149/34/34 236/34/34 239/35/34
f 464/12/3 235/12/3 241/12/3
f 235/43/35 195/38/35 318/38/35
f 151/42/36 470/42/36 236/34/36
f 444/38/37 196/38/37 197/49/37
f 153/29/2 154/28/2 469/4/2
f 434/31/4 409/10/4 410/3/4
f 482/43/1 453/43/1 457/38/1
f 482/30/8 407/15/8 409/10/8
f 440/38/37 483/49/37 399/16/37
f 439/38/10 403/6/10 398/16/10
f 481/32/27 435/48/27 410/3/27
f 452/4/24 449/5/24 450/11/24
f 448/22/3 447/21/3 429/21/3
f 439/38/30 484/49/30 455/49/30
f 440/38/37 457/38/37 456/49/37
f 483/50/2 456/50/2 455/37/2
f 481/43/3 439/38/3 458/38/3
f 428/3/4 427/10/4 109/51/4
f 104/38/38 102/49/38 446/49/38
f 471/11/11 472/5/11 469/4/11
f 102/37/2 103/50/2 445/50/2
f 471/11/15 467/19/15 461/19/15
f 427/10/9 425/15/9 107/53/9
f 104/54/10 423/6/10 417/16/10
f 416/16/7 421/6/7 105/54/7
f 108/56/8 426/18/8 428/3/8
f 151/36/39 153/29/39 472/5/39
f 463/4/24 466/5/24 465/11/24
f 461/19/14 467/19/14 468/13/14
f 466/5/40 109/48/40 107/32/40
f 463/4/41 462/13/41 108/30/41
f 441/25/4 442/24/4 430/24/4
f 475/36/10 473/29/10 431/5/10
f 452/4/4 434/31/4 435/48/4
f 439/38/3 481/43/3 408/8/3
f 436/4/7 474/28/7 476/33/7
f 478/26/4 477/27/4 363/10/4
f 479/34/1 476/41/1 371/8/1
f 372/8/3 475/42/3 480/34/3
f 473/29/2 474/28/2 436/4/2
f 480/34/27 490/34/27 488/35/27
f 475/42/3 433/42/3 490/34/3
f 478/26/4 488/26/4 487/27/4
f 477/35/26 487/35/26 489/34/26
f 476/41/1 479/34/1 489/34/1
f 455/49/30 493/49/30 496/38/30
f 451/12/3 491/12/3 486/12/3
f 490/34/27 500/34/27 498/35/27
f 458/38/3 496/38/3 491/43/3
f 489/34/1 499/34/1 485/41/1
f 487/35/26 497/35/26 499/34/26
f 456/50/2 494/50/2 493/37/2
f 433/42/3 486/42/3 500/34/3
f 488/26/4 498/26/4 497/27/4
f 453/43/1 492/43/1 495/38/1
f 437/13/1 485/13/1 492/13/1
f 457/38/37 495/38/37 494/49/37
f 491/43/52 496/38/52 508/38/52
f 486/42/52 502/42/52 512/34/52
f 492/43/29 504/43/29 507/38/29
f 495/38/42 507/38/42 506/49/42
f 499/34/53 497/35/53 509/35/53
f 485/13/29 501/13/29 504/13/29
f 493/37/43 494/50/43 506/50/43
f 491/12/35 503/12/35 502/12/35
f 498/26/44 510/26/44 509/27/44
f 496/38/45 493/49/45 505/49/45
f 485/41/29 499/34/29 511/34/29
f 500/34/54 512/34/54 510/35/54
f 501/13/13 511/34/13 502/42/13
f 511/34/13 509/35/13 512/34/13
f 502/42/13 511/34/13 512/34/13
f 509/35/13 510/26/13 512/34/13
f 504/13/13 501/13/13 503/12/13
f 503/12/13 501/13/13 502/42/13
f 506/50/13 507/38/13 508/38/13
f 507/38/13 504/13/13 503/12/13
f 508/38/13 505/49/13 506/50/13
f 10/10/15 4/3/15 7/16/15
f 4/3/15 5/18/15 7/16/15
f 5/18/15 6/6/15 7/16/15
f 7/16/15 11/10/15 10/10/15
f 11/10/15 12/6/15 10/10/15
f 53/18/15 52/3/15 55/16/15
f 52/3/15 58/10/15 55/16/15
f 58/10/15 57/8/15 60/6/15
f 60/6/15 59/10/15 58/10/15
f 59/10/15 55/16/15 58/10/15
f 82/10/15 76/3/15 79/16/15
f 76/3/15 77/18/15 79/16/15
f 77/18/15 78/6/15 79/16/15
f 79/16/15 83/10/15 82/10/15
f 83/10/15 84/6/15 82/10/15
f 29/18/15 28/3/15 31/16/15
f 28/3/15 34/10/15 31/16/15
f 34/10/15 33/8/15 36/6/15
f 36/6/15 35/10/15 34/10/15
f 35/10/15 31/16/15 34/10/15
f 241/42/35 325/42/35 279/34/35
f 445/50/2 197/50/2 198/37/2
f 240/35/26 193/35/26 191/34/26
f 237/34/1 191/34/1 242/41/1
f 381/10/4 148/60/4 147/57/4
f 389/8/3 151/61/3 149/45/3
f 146/45/1 152/61/1 390/8/1
f 196/38/55 319/38/56 320/49/55
f 103/49/48 105/38/48 444/38/48
f 108/43/28 462/43/28 444/38/28
f 464/12/17 470/12/17 471/11/17
f 103/58/2 102/62/2 417/10/2
f 104/54/3 107/63/3 425/8/3
f 426/8/1 108/63/1 105/54/1
f 107/43/36 104/38/36 443/38/36
f 242/13/29 326/13/29 323/13/29
f 198/37/43 197/50/43 320/50/43
f 235/12/35 324/12/35 325/12/35
f 192/26/44 281/26/44 282/27/44
f 195/38/45 198/49/45 321/49/45
f 242/41/29 191/34/29 280/34/29
f 190/34/54 279/34/54 281/35/54
f 326/13/13 280/34/13 325/42/13
f 280/34/13 282/35/13 279/34/13
f 325/42/13 280/34/13 279/34/13
f 282/35/13 281/26/13 279/34/13
f 323/13/13 326/13/13 324/12/13
f 324/12/13 326/13/13 325/42/13
f 320/50/13 319/38/13 318/38/13
f 319/38/13 323/13/13 324/12/13
f 318/38/13 321/49/13 320/50/13
