# Blender 5.0.1
# www.blender.org
mtllib Simple_Donut_(alt).mtl
o Simple_Donut_(alt)
v 0.049850 -0.042773 -0.002601
v 0.048954 -0.039245 -0.008842
v 0.034361 -0.026928 -0.009886
v 0.026330 -0.023881 -0.005182
v 0.013063 -0.074085 -0.000000
v 0.011658 -0.066115 -0.016804
v 0.007143 -0.040511 -0.020955
v 0.004424 -0.025092 -0.009326
v -0.037614 -0.065149 -0.000000
v -0.033568 -0.058141 -0.016804
v -0.020568 -0.035625 -0.020955
v -0.012740 -0.022065 -0.009326
v -0.070691 -0.025729 -0.000000
v -0.063086 -0.022962 -0.016804
v -0.038655 -0.014069 -0.020955
v -0.023943 -0.008714 -0.009326
v -0.070691 0.025729 0.000000
v -0.063086 0.022962 -0.016804
v -0.038655 0.014069 -0.020955
v -0.023943 0.008714 -0.009326
v -0.037614 0.065149 0.000000
v -0.033568 0.058141 -0.016804
v -0.020568 0.035625 -0.020955
v -0.012740 0.022065 -0.009326
v 0.013063 0.074085 0.000000
v 0.011658 0.066115 -0.016804
v 0.007143 0.040511 -0.020955
v 0.004424 0.025092 -0.009326
v 0.048378 0.045391 -0.002486
v 0.046829 0.040734 -0.010018
v 0.034748 0.025819 -0.012166
v 0.027550 0.019938 -0.005991
v 0.050608 -0.044353 0.007306
v 0.029147 -0.024457 0.008730
v 0.037599 -0.027982 0.017659
v 0.013541 -0.076793 0.002420
v 0.005198 -0.029483 0.012087
v 0.007566 -0.042911 0.026434
v -0.038989 -0.067530 0.002420
v -0.014969 -0.025927 0.012087
v -0.021787 -0.037736 0.026434
v -0.073275 -0.026670 0.002420
v -0.028132 -0.010239 0.012087
v -0.040946 -0.014903 0.026434
v -0.073275 0.026670 0.002420
v -0.040946 0.014903 0.026434
v -0.014969 0.025927 0.012087
v -0.021787 0.037736 0.026434
v 0.005198 0.029483 0.012087
v 0.007566 0.042911 0.026434
v 0.013541 0.076793 0.002420
v 0.049892 0.046011 0.003467
v 0.028777 0.024147 0.008937
v 0.036924 0.027803 0.018136
v -0.038989 0.067530 0.002420
v -0.028132 0.010239 0.012087
v 0.043434 -0.032256 0.016771
v 0.047287 -0.040134 0.013847
v 0.012459 -0.070657 0.017062
v 0.010517 -0.059645 0.023921
v -0.056913 -0.020715 0.023921
v -0.067420 -0.024539 0.017062
v -0.030283 -0.052451 0.023921
v -0.035873 -0.062134 0.017062
v -0.067420 0.024539 0.017062
v -0.056913 0.020715 0.023921
v 0.010517 0.059645 0.023921
v 0.012459 0.070657 0.017062
v -0.030283 0.052451 0.023921
v -0.035873 0.062134 0.017062
v 0.050433 0.042318 0.012304
v 0.045789 0.035716 0.015890
v 0.056397 0.049484 -0.000744
v 0.051428 0.043154 -0.016804
v 0.031512 0.026442 -0.020955
v 0.017041 0.018540 -0.008786
v 0.058885 0.052728 0.002593
v 0.020670 0.021219 0.012580
v 0.033379 0.028008 0.026434
v 0.054961 0.046118 0.017062
v 0.043968 0.041156 0.024435
v 0.055597 -0.049528 -0.000000
v 0.046217 -0.046162 -0.016804
v 0.031512 -0.026442 -0.020955
v 0.019518 -0.016378 -0.009326
v 0.022933 -0.019243 0.012087
v 0.057395 -0.051473 0.002420
v 0.030886 -0.029448 0.026434
v 0.045612 -0.040090 0.022895
v 0.052738 -0.049448 0.017027
vn 0.7316 0.2641 0.6285
vn 0.5013 0.8366 0.2209
vn 0.9152 0.3331 0.2269
vn 0.4555 -0.7890 -0.4123
vn 0.0837 -0.1450 -0.9859
vn -0.3100 0.5370 -0.7845
vn -0.3049 0.5154 -0.8009
vn 0.9152 -0.3331 0.2269
vn -0.1582 -0.8972 -0.4123
vn -0.0291 -0.1649 -0.9859
vn 0.1077 0.6107 -0.7845
vn 0.0977 0.5908 -0.8009
vn -0.1496 -0.9627 0.2253
vn 0.3888 -0.6737 0.6285
vn 0.4739 -0.8524 0.2209
vn -0.6979 -0.5856 -0.4123
vn -0.1283 -0.1077 -0.9859
vn 0.4750 0.3986 -0.7845
vn 0.4513 0.4101 -0.7926
vn 0.3888 0.6737 0.6285
vn -0.1849 0.9576 0.2209
vn -0.1187 0.6732 -0.7298
vn -0.5237 -0.4394 -0.7298
vn -0.6836 -0.0000 -0.7298
vn -0.9111 -0.0000 -0.4123
vn -0.1675 -0.0000 -0.9859
vn 0.6201 -0.0000 -0.7845
vn 0.6026 -0.0166 -0.7979
vn 0.6026 0.0166 -0.7979
vn -0.5326 -0.8040 0.2644
vn -0.1297 -0.7704 0.6243
vn -0.6979 0.5856 -0.4123
vn -0.1283 0.1077 -0.9859
vn 0.4750 -0.3986 -0.7845
vn 0.4546 -0.3898 -0.8009
vn 0.4723 -0.3746 -0.7979
vn -0.1349 0.7660 0.6285
vn -0.4731 0.8547 0.2135
vn 0.3113 0.5761 -0.7558
vn -0.1582 0.8972 -0.4123
vn -0.0291 0.1649 -0.9859
vn 0.1077 -0.6107 -0.7845
vn 0.0883 -0.5963 -0.7979
vn 0.1295 -0.5959 -0.7926
vn 0.7302 -0.2680 0.6285
vn -0.5237 0.4394 -0.7298
vn 0.4459 0.7859 -0.4284
vn 0.0837 0.1450 -0.9859
vn -0.3024 -0.5625 -0.7696
vn -0.3063 -0.5400 -0.7840
vn -0.2789 -0.5554 -0.7834
vn 0.3418 -0.5920 -0.7298
vn -0.1187 -0.6732 -0.7298
vn 0.1970 0.4400 0.8761
vn 0.3828 0.8019 0.4586
vn 0.5996 -0.4459 0.6646
vn 0.1565 -0.9179 0.3647
vn 0.9818 0.1317 0.1370
vn -0.0315 0.2207 0.9748
vn -0.1898 -0.3287 0.9252
vn 0.0616 -0.3619 0.9302
vn 0.1145 0.1984 0.9734
vn -0.3916 -0.6783 0.6217
vn 0.1287 -0.7736 0.6205
vn 0.2152 -0.0783 0.9734
vn -0.3566 -0.1298 0.9252
vn 0.2152 0.0783 0.9734
vn -0.7360 -0.2679 0.6217
vn -0.8647 0.3147 0.3916
vn -0.8647 -0.3147 0.3916
vn -0.4601 -0.7969 0.3916
vn 0.1145 -0.1984 0.9734
vn -0.3566 0.1298 0.9252
vn -0.7360 0.2679 0.6217
vn -0.4601 0.7969 0.3916
vn -0.0453 -0.2299 0.9722
vn 0.4033 0.0139 0.9150
vn 0.0641 0.3805 0.9225
vn 0.1281 0.7680 0.6276
vn -0.3916 0.6783 0.6217
vn 0.9651 0.0323 0.2600
vn 0.1466 0.8969 0.4172
vn 0.0337 -0.9989 0.0327
vn -0.1898 0.3287 0.9252
vn 0.5145 0.2438 0.8221
vn 0.6769 -0.5191 -0.5219
vn 0.6170 -0.7289 -0.2968
vn 0.6699 -0.7197 -0.1824
vn 0.6037 0.7882 -0.1200
vn 0.5659 0.7886 -0.2407
vn 0.6528 0.5949 -0.4691
vn 0.5190 -0.8207 0.2388
vn 0.4858 -0.6842 -0.5440
vn 0.3107 -0.8991 -0.3085
vn 0.5952 -0.8013 -0.0598
vn 0.5278 -0.8405 0.1223
vn 0.7084 -0.7018 -0.0751
vn 0.7084 -0.7018 -0.0750
vn -0.1336 -0.9844 0.1148
vn 0.5185 -0.7802 0.3499
vn 0.1212 -0.9165 0.3812
vn 0.5405 -0.8325 -0.1217
vn 0.7078 -0.6653 0.2375
vn 0.1570 -0.6327 0.7584
vn 0.9687 0.1296 0.2116
vn 0.8978 0.3174 -0.3054
vn 0.8978 0.3174 -0.3053
vn 0.7068 0.5809 -0.4037
vn 0.7535 0.6421 -0.1413
vn 0.5799 0.8126 0.0585
vn 0.8247 0.5371 0.1772
vn 0.4213 0.8979 -0.1276
vn 0.4238 0.8397 0.3396
vn 0.7850 0.6113 0.1003
vn 0.7446 0.6666 0.0363
vn 0.4856 0.7362 0.4713
vn 0.7812 0.6222 -0.0501
vn 0.7005 0.6405 0.3147
vn 0.9192 -0.3402 -0.1984
vn 0.9852 -0.1673 -0.0364
vn 0.8528 -0.5188 -0.0599
vn 0.7676 -0.6307 -0.1143
vn 0.7305 -0.6413 -0.2347
vn 0.6610 -0.7397 -0.1264
vn 0.6163 -0.7260 -0.3051
vn 0.6922 -0.5506 -0.4666
vn 0.8157 -0.5671 -0.1143
vn 0.7208 -0.5371 0.4381
vn 0.6962 -0.7038 0.1412
vn 0.7375 -0.6317 0.2389
vn 0.8757 -0.4746 -0.0887
vn 0.7679 -0.6180 0.1683
vn 0.5952 0.7331 0.3289
vn 0.3394 0.9402 -0.0297
vn 0.4306 0.8501 0.3031
vn 0.5013 0.8224 -0.2689
vn 0.6772 0.6054 -0.4183
vn 0.5660 0.7778 -0.2733
vn 0.5971 0.7971 -0.0902
vn 0.8984 0.3918 0.1985
vn 0.9280 0.2617 0.2653
vn 0.9065 0.4156 0.0746
vn 0.8603 0.4540 0.2319
vn 0.8087 0.5874 0.0318
vn 0.6889 0.7183 0.0976
vn 0.8061 0.5720 -0.1516
vn -0.2838 0.5397 -0.7926
vn 0.1102 0.5886 -0.8009
vn 0.4723 0.3746 -0.7979
vn 0.5191 -0.8207 0.2388
vn 0.4857 -0.6842 -0.5440
vn 0.5961 -0.7710 -0.2240
vn 0.3106 -0.8991 -0.3085
vn 0.5278 -0.8405 0.1222
vn 0.7085 -0.7017 -0.0751
vn 0.7085 -0.7018 -0.0751
vn 0.8978 0.3175 -0.3054
vn 0.7068 0.5809 -0.4038
vn 0.7536 0.6420 -0.1413
vn 0.5798 0.8126 0.0585
vt 0.317577 0.939626
vt 0.312022 0.932483
vt 0.317577 0.932483
vt 0.306466 0.961054
vt 0.301459 0.968319
vt 0.301111 0.961142
vt 0.306466 0.975340
vt 0.300910 0.975340
vt 0.300910 0.982483
vt 0.273133 0.932483
vt 0.267577 0.939626
vt 0.267577 0.932483
vt 0.312022 0.961054
vt 0.306466 0.968197
vt 0.312022 0.968197
vt 0.312022 0.975340
vt 0.306466 0.982483
vt 0.284244 0.932483
vt 0.278688 0.939626
vt 0.278688 0.932483
vt 0.317577 0.961054
vt 0.317577 0.968197
vt 0.317577 0.975340
vt 0.312022 0.982483
vt 0.312022 0.939626
vt 0.306466 0.932483
vt 0.278688 0.961054
vt 0.284244 0.961054
vt 0.267577 0.961054
vt 0.273133 0.961054
vt 0.273133 0.968197
vt 0.267577 0.968197
vt 0.267577 0.975340
vt 0.273133 0.982483
vt 0.267577 0.982483
vt 0.289799 0.932483
vt 0.284244 0.939626
vt 0.278688 0.968197
vt 0.278688 0.975340
vt 0.273133 0.975340
vt 0.278688 0.982483
vt 0.306466 0.939626
vt 0.300910 0.932483
vt 0.289799 0.961054
vt 0.284244 0.975340
vt 0.284244 0.982483
vt 0.273133 0.939626
vt 0.284244 0.968197
vt 0.289799 0.975340
vt 0.289799 0.982483
vt 0.301192 0.961054
vt 0.301447 0.946768
vt 0.300910 0.939626
vt 0.300910 0.955748
vt 0.306466 0.946768
vt 0.312022 0.950942
vt 0.306466 0.950942
vt 0.312022 0.946768
vt 0.312022 0.955748
vt 0.306466 0.955748
vt 0.273133 0.946768
vt 0.267577 0.950942
vt 0.267577 0.946768
vt 0.317577 0.946768
vt 0.267577 0.955748
vt 0.317577 0.955748
vt 0.278688 0.946768
vt 0.273133 0.950942
vt 0.273133 0.955748
vt 0.284244 0.946768
vt 0.289799 0.950942
vt 0.284244 0.950942
vt 0.284244 0.955748
vt 0.278688 0.955748
vt 0.289799 0.939626
vt 0.278688 0.950942
vt 0.301447 0.950942
vt 0.317577 0.950942
vt 0.950105 0.946575
vt 0.950105 0.966693
vt 0.950105 0.956580
vt 0.961216 0.956620
vt 0.961216 0.966760
vt 0.961216 0.946715
vt 0.289799 0.961685
vt 0.289799 0.968197
vt 0.289799 0.938753
vt 0.289799 0.969013
vt 0.621127 0.964521
vt 0.621127 0.965606
vt 0.289799 0.966652
vt 0.613315 0.953722
vt 0.613315 0.954594
vt 0.613315 0.947451
vt 0.613315 0.962263
vt 0.613315 0.956536
vt 0.613315 0.970668
vt 0.613315 0.965911
vt 0.613315 0.966541
vt 0.613315 0.961737
vt 0.613315 0.974938
vt 0.613315 0.970717
vt 0.300910 0.961753
vt 0.300910 0.966539
vt 0.300910 0.968627
vt 0.300910 0.939141
vt 0.624426 0.954110
vt 0.624426 0.954594
vt 0.624426 0.956677
vt 0.632238 0.964456
vt 0.632238 0.965576
vt 0.632238 0.966305
vt 0.624426 0.961181
vt 0.624426 0.962306
vt 0.624426 0.970666
vt 0.624426 0.965560
vt 0.624426 0.970717
vt 0.624426 0.974873
vt 0.624426 0.975908
vt 0.624426 0.966581
vt 0.950105 0.964976
vt 0.950105 0.960706
vt 0.950105 0.952302
vt 0.950105 0.943760
vt 0.950105 0.974020
vt 0.950105 0.971659
vt 0.961216 0.971546
vt 0.961216 0.973634
vt 0.961216 0.944149
vt 0.961216 0.952345
vt 0.961216 0.960705
vt 0.961216 0.964911
vt 0.317577 0.982483
vt 0.289799 0.946768
vt 0.289799 0.955748
vt 0.621127 0.966237
vt 0.613315 0.976023
vt 0.624426 0.947451
vt 0.632238 0.965633
s 0
usemtl Palette
f 5/4/4 83/5/4 82/6/4
f 83/5/5 7/7/5 84/8/5
f 7/7/6 85/9/7 84/8/6
f 9/13/9 6/14/9 5/4/9
f 10/15/10 7/7/10 6/14/10
f 11/16/11 8/17/12 7/7/11
f 13/21/16 10/15/16 9/13/16
f 14/22/17 11/16/17 10/15/17
f 15/23/18 12/24/19 11/16/18
f 13/29/25 18/31/25 14/32/25
f 18/31/26 15/33/26 14/32/26
f 15/33/27 20/34/28 16/35/29
f 17/30/32 22/38/32 18/31/32
f 18/31/33 23/39/33 19/40/33
f 19/40/34 24/41/35 20/34/36
f 25/28/40 22/38/40 21/27/40
f 22/38/41 27/45/41 23/39/41
f 23/39/42 28/46/43 24/41/44
f 73/44/47 26/48/47 25/28/47
f 26/48/48 75/49/48 27/45/48
f 27/45/49 76/50/50 28/46/51
f 53/79/86 29/80/87 72/81/88
f 57/82/89 1/83/90 34/84/91
f 29/85/92 74/86/92 73/44/92
f 32/87/93 75/49/94 31/88/94
f 30/91/97 75/49/97 74/86/98
f 1/103/106 83/5/106 2/104/107
f 3/105/108 83/5/108 84/8/108
f 4/106/109 84/8/110 85/43/111
f 29/80/119 52/121/119 71/122/120
f 71/122/121 72/81/122 29/80/123
f 72/81/124 54/123/125 53/79/126
f 53/79/127 32/124/128 31/125/129
f 31/125/130 30/126/130 29/80/130
f 53/79/131 31/125/132 29/80/132
f 1/83/133 2/127/133 3/128/133
f 3/128/134 4/129/135 34/84/136
f 34/84/137 35/130/138 57/82/139
f 57/82/140 58/131/141 1/83/142
f 58/131/143 33/132/144 1/83/144
f 1/83/145 3/128/145 34/84/146
f 5/4/4 6/14/4 83/5/4
f 83/5/5 6/14/5 7/7/5
f 7/7/6 8/17/147 85/9/7
f 9/13/9 10/15/9 6/14/9
f 10/15/10 11/16/10 7/7/10
f 11/16/11 12/24/148 8/17/12
f 13/21/16 14/22/16 10/15/16
f 14/22/17 15/23/17 11/16/17
f 15/23/18 16/133/149 12/24/19
f 13/29/25 17/30/25 18/31/25
f 18/31/26 19/40/26 15/33/26
f 15/33/27 19/40/27 20/34/28
f 17/30/32 21/27/32 22/38/32
f 18/31/33 22/38/33 23/39/33
f 19/40/34 23/39/34 24/41/35
f 25/28/40 26/48/40 22/38/40
f 22/38/41 26/48/41 27/45/41
f 23/39/42 27/45/42 28/46/43
f 73/44/47 74/86/47 26/48/47
f 26/48/48 74/86/48 75/49/48
f 27/45/49 75/49/49 76/50/50
f 29/85/150 30/91/150 74/86/150
f 32/87/151 76/36/152 75/49/153
f 30/91/155 31/88/97 75/49/156
f 1/103/157 82/6/157 83/5/157
f 3/105/158 2/104/158 83/5/158
f 4/106/159 3/105/160 84/8/160
s 1
usemtl Color_1
f 43/1/1 12/2/2 16/3/3
f 20/10/8 43/11/1 16/12/3
f 28/18/13 47/19/14 24/20/15
f 40/25/20 8/26/21 12/2/2
s 0
f 21/27/22 51/28/22 25/28/22
f 9/13/23 42/21/23 13/21/23
f 13/29/24 45/30/24 17/30/24
s 1
f 76/36/30 49/37/31 28/18/13
f 37/42/37 85/43/38 8/26/21
s 0
f 25/28/39 77/44/39 73/44/39
s 1
f 24/20/15 56/47/45 20/10/8
s 0
f 17/30/46 55/27/46 21/27/46
f 5/4/52 87/51/52 36/4/52
f 5/4/53 39/13/53 9/13/53
s 1
f 37/42/37 88/52/54 86/53/55
f 90/54/56 36/4/57 87/51/58
f 38/55/59 63/56/60 60/57/61
f 37/42/37 41/58/62 38/55/59
f 64/59/63 36/4/57 59/60/64
f 46/61/65 61/62/66 44/63/67
f 40/25/20 44/64/67 41/58/62
f 62/65/68 45/30/69 42/29/70
f 44/64/67 63/56/60 41/58/62
f 56/47/45 44/63/67 43/11/1
f 62/66/68 39/13/71 64/59/63
f 48/67/72 66/68/73 46/61/65
f 47/19/14 46/61/65 56/47/45
f 65/69/74 55/27/75 45/30/69
f 50/70/76 81/71/77 67/72/78
f 49/37/31 48/67/72 47/19/14
f 68/73/79 55/27/75 70/74/80
f 68/73/79 77/44/81 51/28/82
f 78/75/83 50/70/76 49/37/31
f 50/70/76 69/76/84 48/67/72
f 88/52/54 60/57/61 89/77/85
f 63/56/60 59/60/64 60/57/61
f 66/68/73 70/74/80 65/69/74
f 61/78/66 64/59/63 63/56/60
f 67/72/78 70/74/80 69/76/84
f 60/57/61 90/54/56 89/77/85
f 66/68/73 62/65/68 61/62/66
f 81/71/77 68/73/79 67/72/78
f 52/89/95 73/90/96 77/90/81
f 32/92/99 78/93/83 76/94/30
f 54/95/100 78/93/83 53/96/101
f 71/97/102 81/98/77 72/99/103
f 54/95/100 81/98/77 79/100/104
f 52/101/95 80/102/105 71/97/102
f 4/107/112 86/108/55 34/109/113
f 33/110/114 82/111/115 1/112/115
f 34/109/113 88/113/54 35/114/116
f 58/115/117 89/116/85 90/117/56
f 33/118/114 90/117/56 87/119/58
f 35/114/116 89/116/85 57/120/118
f 43/1/1 40/25/20 12/2/2
f 20/10/8 56/47/45 43/11/1
f 28/18/13 49/37/31 47/19/14
f 40/25/20 37/42/37 8/26/21
s 0
f 21/27/22 55/27/22 51/28/22
f 9/13/23 39/13/23 42/21/23
f 13/29/24 42/29/24 45/30/24
s 1
f 76/36/30 78/75/83 49/37/31
f 37/42/37 86/53/55 85/43/38
s 0
f 25/28/39 51/28/39 77/44/39
s 1
f 24/20/15 47/19/14 56/47/45
s 0
f 17/30/46 45/30/46 55/27/46
f 5/4/52 82/6/52 87/51/52
f 5/4/53 36/4/53 39/13/53
s 1
f 37/42/37 38/55/59 88/52/54
f 90/54/56 59/60/64 36/4/57
f 38/55/59 41/58/62 63/56/60
f 37/42/37 40/25/20 41/58/62
f 64/59/63 39/13/71 36/4/57
f 46/61/65 66/68/73 61/62/66
f 40/25/20 43/1/1 44/64/67
f 62/65/68 65/69/74 45/30/69
f 44/64/67 61/78/66 63/56/60
f 56/47/45 46/61/65 44/63/67
f 62/66/68 42/21/70 39/13/71
f 48/67/72 69/76/84 66/68/73
f 47/19/14 48/67/72 46/61/65
f 65/69/74 70/74/80 55/27/75
f 50/70/76 79/134/104 81/71/77
f 49/37/31 50/70/76 48/67/72
f 68/73/79 51/28/82 55/27/75
f 68/73/79 80/135/105 77/44/81
f 78/75/83 79/134/104 50/70/76
f 50/70/76 67/72/78 69/76/84
f 88/52/54 38/55/59 60/57/61
f 63/56/60 64/59/63 59/60/64
f 66/68/73 69/76/84 70/74/80
f 61/78/66 62/66/68 64/59/63
f 67/72/78 68/73/79 70/74/80
f 60/57/61 59/60/64 90/54/56
f 66/68/73 65/69/74 62/65/68
f 81/71/77 80/135/105 68/73/79
f 52/89/95 29/136/154 73/90/96
f 32/92/99 53/96/101 78/93/83
f 54/95/100 79/100/104 78/93/83
f 71/97/102 80/102/105 81/98/77
f 54/95/100 72/99/103 81/98/77
f 52/101/95 77/137/81 80/102/105
f 4/107/112 85/138/38 86/108/55
f 33/110/114 87/139/58 82/111/115
f 34/109/113 86/108/55 88/113/54
f 58/115/117 57/120/118 89/116/85
f 33/118/114 58/115/117 90/117/56
f 35/114/116 88/113/54 89/116/85
