# Blender 5.0.1
# www.blender.org
mtllib Simple_Donut.mtl
o Simple_Donut
v 0.075228 0.000000 0.000000
v 0.067135 0.000000 -0.016804
v 0.041136 0.000000 -0.020955
v 0.025479 -0.000000 -0.009326
v 0.057628 -0.048355 -0.000000
v 0.051428 -0.043154 -0.016804
v 0.031512 -0.026442 -0.020955
v 0.019518 -0.016378 -0.009326
v 0.013063 -0.074085 -0.000000
v 0.011658 -0.066115 -0.016804
v 0.007143 -0.040511 -0.020955
v 0.004424 -0.025092 -0.009326
v -0.037614 -0.065149 -0.000000
v -0.033568 -0.058141 -0.016804
v -0.020568 -0.035625 -0.020955
v -0.012740 -0.022065 -0.009326
v -0.070691 -0.025729 -0.000000
v -0.063086 -0.022962 -0.016804
v -0.038655 -0.014069 -0.020955
v -0.023943 -0.008714 -0.009326
v -0.070691 0.025729 0.000000
v -0.063086 0.022962 -0.016804
v -0.038655 0.014069 -0.020955
v -0.023943 0.008714 -0.009326
v -0.037614 0.065149 0.000000
v -0.033568 0.058141 -0.016804
v -0.020568 0.035625 -0.020955
v -0.012740 0.022065 -0.009326
v 0.013063 0.074085 0.000000
v 0.011658 0.066115 -0.016804
v 0.007143 0.040511 -0.020955
v 0.004424 0.025092 -0.009326
v 0.057628 0.048355 0.000000
v 0.051428 0.043154 -0.016804
v 0.031512 0.026442 -0.020955
v 0.019518 0.016378 -0.009326
v 0.029937 -0.000000 0.012087
v 0.043573 -0.000000 0.026434
v 0.077977 0.000000 0.002420
v 0.059734 -0.050123 0.002420
v 0.022933 -0.019243 0.012087
v 0.033379 -0.028008 0.026434
v 0.013541 -0.076793 0.002420
v 0.005198 -0.029483 0.012087
v 0.007566 -0.042911 0.026434
v -0.038989 -0.067530 0.002420
v -0.014969 -0.025927 0.012087
v -0.021787 -0.037736 0.026434
v -0.073275 -0.026670 0.002420
v -0.028132 -0.010239 0.012087
v -0.040946 -0.014903 0.026434
v -0.073275 0.026670 0.002420
v -0.040946 0.014903 0.026434
v -0.014969 0.025927 0.012087
v -0.021787 0.037736 0.026434
v 0.005198 0.029483 0.012087
v 0.007566 0.042911 0.026434
v 0.013541 0.076793 0.002420
v 0.059734 0.050123 0.002420
v 0.022933 0.019243 0.012087
v 0.033379 0.028008 0.026434
v -0.038989 0.067530 0.002420
v -0.028132 0.010239 0.012087
v 0.060565 -0.000000 0.023921
v 0.071747 -0.000000 0.017062
v 0.046396 -0.038931 0.023921
v 0.054961 -0.046118 0.017062
v 0.012459 -0.070657 0.017062
v 0.010517 -0.059645 0.023921
v -0.056913 -0.020715 0.023921
v -0.067420 -0.024539 0.017062
v -0.030283 -0.052451 0.023921
v -0.035873 -0.062134 0.017062
v -0.067420 0.024539 0.017062
v -0.056913 0.020715 0.023921
v 0.010517 0.059645 0.023921
v 0.012459 0.070657 0.017062
v -0.030283 0.052451 0.023921
v -0.035873 0.062134 0.017062
v 0.054961 0.046118 0.017062
v 0.046396 0.038931 0.023921
vn 0.8561 -0.3116 -0.4123
vn 0.1574 -0.0573 -0.9859
vn -0.5827 0.2121 -0.7845
vn -0.5603 0.2120 -0.8007
vn 0.7316 0.2641 0.6285
vn 0.5013 0.8366 0.2209
vn 0.9152 0.3331 0.2269
vn 0.4555 -0.7890 -0.4123
vn 0.0837 -0.1450 -0.9859
vn -0.3100 0.5370 -0.7845
vn -0.3049 0.5154 -0.8009
vn 0.9152 -0.3331 0.2269
vn -0.1582 -0.8972 -0.4123
vn -0.0291 -0.1649 -0.9859
vn 0.1077 0.6107 -0.7845
vn 0.0977 0.5908 -0.8009
vn -0.1691 -0.9591 0.2269
vn 0.3889 -0.6736 0.6285
vn 0.4739 -0.8524 0.2209
vn -0.6979 -0.5856 -0.4123
vn -0.1283 -0.1077 -0.9859
vn 0.4750 0.3986 -0.7845
vn 0.4513 0.4101 -0.7926
vn 0.3889 0.6736 0.6285
vn -0.1849 0.9576 0.2209
vn -0.1187 0.6732 -0.7298
vn -0.5237 -0.4394 -0.7298
vn -0.6836 -0.0000 -0.7298
vn -0.9111 -0.0000 -0.4123
vn -0.1675 -0.0000 -0.9859
vn 0.6201 -0.0000 -0.7845
vn 0.6026 -0.0166 -0.7979
vn 0.6026 0.0166 -0.7979
vn -0.7461 -0.6260 0.2269
vn -0.1371 -0.7656 0.6285
vn -0.6979 0.5856 -0.4123
vn -0.1283 0.1077 -0.9859
vn 0.4750 -0.3986 -0.7845
vn 0.4546 -0.3898 -0.8009
vn 0.4723 -0.3746 -0.7979
vn -0.1350 0.7660 0.6285
vn -0.7572 0.6147 0.2209
vn 0.3418 0.5920 -0.7298
vn -0.1582 0.8972 -0.4123
vn -0.0291 0.1649 -0.9859
vn 0.1077 -0.6107 -0.7845
vn 0.0883 -0.5963 -0.7979
vn 0.1295 -0.5959 -0.7926
vn 0.7302 -0.2680 0.6285
vn 0.6424 0.2338 -0.7298
vn -0.5237 0.4394 -0.7298
vn 0.4555 0.7890 -0.4123
vn 0.0837 0.1450 -0.9859
vn -0.3100 -0.5370 -0.7845
vn -0.3157 -0.5136 -0.7979
vn -0.2869 -0.5302 -0.7979
vn -0.5958 0.5000 0.6285
vn -0.9791 -0.0235 0.2021
vn 0.8561 0.3116 -0.4123
vn 0.1574 0.0573 -0.9859
vn -0.5827 -0.2121 -0.7845
vn -0.5919 -0.1861 -0.7842
vn -0.5606 -0.2217 -0.7979
vn 0.6424 -0.2338 -0.7298
vn 0.3418 -0.5920 -0.7298
vn -0.1187 -0.6732 -0.7298
vn -0.7778 -0.0000 0.6285
vn -0.1755 0.1472 0.9734
vn -0.2290 -0.0000 0.9734
vn 0.7832 -0.0000 0.6217
vn 0.7049 0.5915 0.3916
vn 0.6000 0.5035 0.6217
vn 0.3795 -0.0000 0.9252
vn -0.0398 0.2256 0.9734
vn 0.1360 -0.7713 0.6217
vn 0.7049 -0.5914 0.3916
vn 0.6000 -0.5035 0.6217
vn -0.1898 -0.3287 0.9252
vn 0.0659 -0.3738 0.9252
vn 0.1145 0.1984 0.9734
vn -0.3916 -0.6783 0.6217
vn 0.1598 -0.9062 0.3916
vn 0.2152 -0.0783 0.9734
vn -0.3566 -0.1298 0.9252
vn 0.2152 0.0783 0.9734
vn -0.7360 -0.2679 0.6217
vn -0.8647 0.3147 0.3916
vn -0.8647 -0.3147 0.3916
vn -0.4601 -0.7969 0.3916
vn 0.1145 -0.1984 0.9734
vn -0.3566 0.1298 0.9252
vn -0.7360 0.2679 0.6217
vn -0.4601 0.7969 0.3916
vn -0.0398 -0.2256 0.9734
vn 0.2907 0.2440 0.9252
vn 0.0659 0.3738 0.9252
vn 0.1360 0.7713 0.6217
vn -0.3916 0.6783 0.6217
vn 0.1598 0.9062 0.3916
vn -0.5972 -0.4984 0.6285
vn -0.1898 0.3287 0.9252
vn -0.1755 -0.1472 0.9734
vn 0.9201 -0.0000 0.3916
vn 0.2907 -0.2440 0.9252
vn -0.5643 0.2310 -0.7926
vn -0.2838 0.5397 -0.7926
vn 0.1102 0.5886 -0.8009
vn 0.4723 0.3746 -0.7979
vt 0.300910 0.961054
vt 0.295355 0.968197
vt 0.295355 0.961054
vt 0.300910 0.968197
vt 0.295355 0.975340
vt 0.300910 0.975340
vt 0.295355 0.982483
vt 0.317577 0.939626
vt 0.312022 0.932483
vt 0.317577 0.932483
vt 0.306466 0.961054
vt 0.306466 0.968197
vt 0.306466 0.975340
vt 0.300910 0.982483
vt 0.273133 0.932483
vt 0.267577 0.939626
vt 0.267577 0.932483
vt 0.312022 0.961054
vt 0.312022 0.968197
vt 0.312022 0.975340
vt 0.306466 0.982483
vt 0.284244 0.932483
vt 0.278688 0.939626
vt 0.278688 0.932483
vt 0.317577 0.961054
vt 0.317577 0.968197
vt 0.317577 0.975340
vt 0.312022 0.982483
vt 0.312022 0.939626
vt 0.306466 0.932483
vt 0.278688 0.961054
vt 0.284244 0.961054
vt 0.267577 0.961054
vt 0.273133 0.961054
vt 0.273133 0.968197
vt 0.267577 0.968197
vt 0.267577 0.975340
vt 0.273133 0.982483
vt 0.267577 0.982483
vt 0.289799 0.932483
vt 0.284244 0.939626
vt 0.278688 0.968197
vt 0.278688 0.975340
vt 0.273133 0.975340
vt 0.278688 0.982483
vt 0.306466 0.939626
vt 0.300910 0.932483
vt 0.289799 0.961054
vt 0.284244 0.975340
vt 0.284244 0.982483
vt 0.273133 0.939626
vt 0.289799 0.968197
vt 0.284244 0.968197
vt 0.289799 0.975340
vt 0.289799 0.982483
vt 0.300910 0.939626
vt 0.295355 0.932483
vt 0.295355 0.939626
vt 0.300910 0.946768
vt 0.295355 0.946768
vt 0.295355 0.955748
vt 0.289799 0.955748
vt 0.295355 0.950942
vt 0.306466 0.946768
vt 0.306466 0.955748
vt 0.300910 0.955748
vt 0.312022 0.950942
vt 0.306466 0.950942
vt 0.312022 0.946768
vt 0.312022 0.955748
vt 0.273133 0.946768
vt 0.267577 0.950942
vt 0.267577 0.946768
vt 0.317577 0.946768
vt 0.267577 0.955748
vt 0.317577 0.955748
vt 0.278688 0.946768
vt 0.273133 0.950942
vt 0.273133 0.955748
vt 0.284244 0.946768
vt 0.289799 0.950942
vt 0.284244 0.950942
vt 0.284244 0.955748
vt 0.278688 0.955748
vt 0.289799 0.939626
vt 0.278688 0.950942
vt 0.289799 0.946768
vt 0.300910 0.950942
vt 0.317577 0.950942
vt 0.317577 0.982483
s 0
usemtl Palette
f 5/1/1 2/2/1 1/3/1
f 6/4/2 3/5/2 2/2/2
f 7/6/3 4/7/4 3/5/3
f 9/11/8 6/4/8 5/1/8
f 10/12/9 7/6/9 6/4/9
f 11/13/10 8/14/11 7/6/10
f 13/18/13 10/12/13 9/11/13
f 14/19/14 11/13/14 10/12/14
f 15/20/15 12/21/16 11/13/15
f 17/25/20 14/19/20 13/18/20
f 18/26/21 15/20/21 14/19/21
f 19/27/22 16/28/23 15/20/22
f 17/33/29 22/35/29 18/36/29
f 22/35/30 19/37/30 18/36/30
f 19/37/31 24/38/32 20/39/33
f 21/34/36 26/42/36 22/35/36
f 22/35/37 27/43/37 23/44/37
f 23/44/38 28/45/39 24/38/40
f 29/32/44 26/42/44 25/31/44
f 26/42/45 31/49/45 27/43/45
f 27/43/46 32/50/47 28/45/48
f 29/32/52 34/52/52 30/53/52
f 30/53/53 35/54/53 31/49/53
f 31/49/54 36/55/55 32/50/56
f 1/3/59 34/52/59 33/48/59
f 34/52/60 3/5/60 35/54/60
f 35/54/61 4/7/62 36/55/63
f 5/1/1 6/4/1 2/2/1
f 6/4/2 7/6/2 3/5/2
f 7/6/3 8/14/105 4/7/4
f 9/11/8 10/12/8 6/4/8
f 10/12/9 11/13/9 7/6/9
f 11/13/10 12/21/106 8/14/11
f 13/18/13 14/19/13 10/12/13
f 14/19/14 15/20/14 11/13/14
f 15/20/15 16/28/107 12/21/16
f 17/25/20 18/26/20 14/19/20
f 18/26/21 19/27/21 15/20/21
f 19/27/22 20/90/108 16/28/23
f 17/33/29 21/34/29 22/35/29
f 22/35/30 23/44/30 19/37/30
f 19/37/31 23/44/31 24/38/32
f 21/34/36 25/31/36 26/42/36
f 22/35/37 26/42/37 27/43/37
f 23/44/38 27/43/38 28/45/39
f 29/32/44 30/53/44 26/42/44
f 26/42/45 30/53/45 31/49/45
f 27/43/46 31/49/46 32/50/47
f 29/32/52 33/48/52 34/52/52
f 30/53/53 34/52/53 35/54/53
f 31/49/54 35/54/54 36/55/55
f 1/3/59 2/2/59 34/52/59
f 34/52/60 2/2/60 3/5/60
f 35/54/61 3/5/61 4/7/62
s 4
usemtl Color_1
f 50/8/5 16/9/6 20/10/7
f 24/15/12 50/16/5 20/17/7
f 32/22/17 54/23/18 28/24/19
f 47/29/24 12/30/25 16/9/6
s 0
f 25/31/26 58/32/26 29/32/26
f 13/18/27 49/25/27 17/25/27
f 17/33/28 52/34/28 21/34/28
s 4
f 36/40/34 56/41/35 32/22/17
f 44/46/41 8/47/42 12/30/25
s 0
f 29/32/43 59/48/43 33/48/43
s 4
f 28/24/19 63/51/49 24/15/12
s 0
f 33/48/50 39/3/50 1/3/50
f 21/34/51 62/31/51 25/31/51
s 4
f 41/56/57 4/57/58 8/47/42
s 0
f 5/1/64 39/3/64 40/1/64
f 5/1/65 43/11/65 9/11/65
f 9/11/66 46/18/66 13/18/66
s 4
f 37/58/67 42/59/68 38/60/69
f 65/61/70 59/48/71 80/62/72
f 42/59/68 64/63/73 38/60/69
f 41/56/57 45/64/74 42/59/68
f 68/65/75 40/1/76 67/66/77
f 45/64/74 72/67/78 69/68/79
f 44/46/41 48/69/80 45/64/74
f 73/70/81 43/11/82 68/65/75
f 53/71/83 70/72/84 51/73/85
f 47/29/24 51/74/85 48/69/80
f 71/75/86 52/34/87 49/33/88
f 51/74/85 72/67/78 48/69/80
f 63/51/49 51/73/85 50/16/5
f 71/76/86 46/18/89 73/70/81
f 55/77/90 75/78/91 53/71/83
f 54/23/18 53/71/83 63/51/49
f 74/79/92 62/31/93 52/34/87
f 57/80/94 81/81/95 76/82/96
f 56/41/35 55/77/90 54/23/18
f 77/83/97 62/31/93 79/84/98
f 80/62/72 58/32/99 77/83/97
f 60/85/100 57/80/94 56/41/35
f 57/80/94 78/86/101 55/77/90
f 37/58/67 61/87/102 60/85/100
f 67/66/77 39/3/103 65/61/70
f 45/64/74 66/88/104 42/59/68
f 72/67/78 68/65/75 69/68/79
f 75/78/91 79/84/98 74/79/92
f 80/62/72 64/63/73 65/61/70
f 66/88/104 65/61/70 64/63/73
f 70/89/84 73/70/81 72/67/78
f 76/82/96 79/84/98 78/86/101
f 69/68/79 67/66/77 66/88/104
f 75/78/91 71/75/86 70/72/84
f 81/81/95 77/83/97 76/82/96
f 38/60/69 81/81/95 61/87/102
f 4/57/58 60/85/100 36/40/34
f 50/8/5 47/29/24 16/9/6
f 24/15/12 63/51/49 50/16/5
f 32/22/17 56/41/35 54/23/18
f 47/29/24 44/46/41 12/30/25
s 0
f 25/31/26 62/31/26 58/32/26
f 13/18/27 46/18/27 49/25/27
f 17/33/28 49/33/28 52/34/28
s 4
f 36/40/34 60/85/100 56/41/35
f 44/46/41 41/56/57 8/47/42
s 0
f 29/32/43 58/32/43 59/48/43
s 4
f 28/24/19 54/23/18 63/51/49
s 0
f 33/48/50 59/48/50 39/3/50
f 21/34/51 52/34/51 62/31/51
s 4
f 41/56/57 37/58/67 4/57/58
s 0
f 5/1/64 1/3/64 39/3/64
f 5/1/65 40/1/65 43/11/65
f 9/11/66 43/11/66 46/18/66
s 4
f 37/58/67 41/56/57 42/59/68
f 65/61/70 39/3/103 59/48/71
f 42/59/68 66/88/104 64/63/73
f 41/56/57 44/46/41 45/64/74
f 68/65/75 43/11/82 40/1/76
f 45/64/74 48/69/80 72/67/78
f 44/46/41 47/29/24 48/69/80
f 73/70/81 46/18/89 43/11/82
f 53/71/83 75/78/91 70/72/84
f 47/29/24 50/8/5 51/74/85
f 71/75/86 74/79/92 52/34/87
f 51/74/85 70/89/84 72/67/78
f 63/51/49 53/71/83 51/73/85
f 71/76/86 49/25/88 46/18/89
f 55/77/90 78/86/101 75/78/91
f 54/23/18 55/77/90 53/71/83
f 74/79/92 79/84/98 62/31/93
f 57/80/94 61/87/102 81/81/95
f 56/41/35 57/80/94 55/77/90
f 77/83/97 58/32/99 62/31/93
f 80/62/72 59/48/71 58/32/99
f 60/85/100 61/87/102 57/80/94
f 57/80/94 76/82/96 78/86/101
f 37/58/67 38/60/69 61/87/102
f 67/66/77 40/1/76 39/3/103
f 45/64/74 69/68/79 66/88/104
f 72/67/78 73/70/81 68/65/75
f 75/78/91 78/86/101 79/84/98
f 80/62/72 81/81/95 64/63/73
f 66/88/104 67/66/77 65/61/70
f 70/89/84 71/76/86 73/70/81
f 76/82/96 77/83/97 79/84/98
f 69/68/79 68/65/75 67/66/77
f 75/78/91 74/79/92 71/75/86
f 81/81/95 80/62/72 77/83/97
f 38/60/69 64/63/73 81/81/95
f 4/57/58 37/58/67 60/85/100
