# Blender 5.0.1
# www.blender.org
mtllib Sofa_1.mtl
o Sofa_1
v -0.816062 -0.375000 0.323333
v -0.816062 0.375000 0.323333
v -0.782142 -0.341080 0.083526
v -0.782142 0.341080 0.083526
v -0.732269 -0.357263 0.291873
v -0.700522 0.496217 0.688579
v -0.700522 0.428031 0.250375
v -0.896382 0.428020 0.252277
v -0.896382 0.496348 0.689692
v -0.700522 0.193708 0.250375
v -0.700522 0.261894 0.688579
v -0.896382 0.262025 0.689692
v -0.896382 0.193697 0.252277
v -0.732270 0.289664 0.479320
v -0.732270 0.289664 0.291873
v -0.896382 -0.409840 0.252277
v -0.700522 -0.409829 0.250375
v -0.732269 -0.286164 0.479320
v -0.732269 -0.357263 0.408221
v -0.732269 -0.336439 0.458496
v -0.672119 -0.288052 0.000000
v -0.726934 -0.288052 0.000000
v -0.672119 -0.233236 0.000000
v -0.726934 -0.233236 0.000000
v -0.667164 -0.228281 0.119791
v -0.667164 -0.293007 0.119791
v -0.731890 -0.293007 0.119791
v -0.731890 -0.228281 0.119791
v -0.672119 0.230731 0.000000
v -0.726934 0.230731 0.000000
v -0.672119 0.285547 0.000000
v -0.726934 0.285547 0.000000
v -0.667164 0.290502 0.119791
v -0.667164 0.225776 0.119791
v -0.731890 0.225776 0.119791
v -0.731890 0.290502 0.119791
v -0.896382 -0.168078 0.689692
v -0.896382 -0.370025 0.491115
v -0.896382 -0.236619 0.676673
v -0.896382 -0.299066 0.639596
v -0.896382 -0.345912 0.584107
v -0.700522 -0.370052 0.489945
v -0.700522 -0.168210 0.688579
v -0.700522 -0.345979 0.582959
v -0.700522 -0.299167 0.638466
v -0.700522 -0.236743 0.675555
v -0.889522 0.278603 0.781629
v -0.889522 0.512926 0.781629
v -0.564745 0.526782 0.866466
v -0.820947 0.518755 0.817566
v -0.700441 0.506098 0.746493
v -0.695914 0.525356 0.858087
v -0.820947 0.284432 0.817566
v -0.564745 0.292459 0.866466
v -0.700441 0.271775 0.746493
v -0.695914 0.291033 0.858087
v 0.816062 -0.375000 0.323333
v 0.816062 0.375000 0.323333
v 0.782142 -0.341080 0.083526
v 0.782142 0.341080 0.083526
v 0.732269 -0.357263 0.291873
v 0.700522 0.496217 0.688579
v 0.700522 0.428031 0.250375
v 0.896382 0.428020 0.252277
v 0.896382 0.496348 0.689692
v 0.000000 0.261894 0.688579
v 0.000000 0.496217 0.688579
v 0.000000 0.428031 0.250375
v 0.000000 0.193708 0.250375
v 0.700522 0.193708 0.250375
v 0.700522 0.261894 0.688579
v 0.896382 0.262025 0.689692
v 0.896382 0.193697 0.252277
v 0.732270 0.289664 0.479320
v 0.732270 0.289664 0.291873
v 0.896382 -0.409840 0.252277
v 0.700522 -0.409829 0.250375
v 0.732269 -0.286164 0.479320
v 0.732269 -0.357263 0.408221
v 0.732269 -0.336439 0.458496
v 0.672119 -0.288052 0.000000
v 0.726934 -0.288052 0.000000
v 0.672119 -0.233236 0.000000
v 0.726934 -0.233236 0.000000
v 0.667164 -0.228281 0.119791
v 0.667164 -0.293007 0.119791
v 0.731890 -0.293007 0.119791
v 0.731890 -0.228281 0.119791
v 0.672119 0.230731 0.000000
v 0.726934 0.230731 0.000000
v 0.672119 0.285547 0.000000
v 0.726934 0.285547 0.000000
v 0.667164 0.290502 0.119791
v 0.667164 0.225776 0.119791
v 0.731890 0.225776 0.119791
v 0.731890 0.290502 0.119791
v 0.896382 -0.168078 0.689692
v 0.896382 -0.370025 0.491115
v 0.896382 -0.236619 0.676673
v 0.896382 -0.299066 0.639596
v 0.896382 -0.345912 0.584107
v 0.700522 -0.370052 0.489945
v 0.700522 -0.168210 0.688579
v 0.700522 -0.345979 0.582959
v 0.700522 -0.299167 0.638466
v 0.700522 -0.236743 0.675555
v 0.889522 0.278603 0.781629
v 0.889522 0.512926 0.781629
v 0.000000 0.517474 0.806660
v 0.000000 0.283151 0.806660
v 0.564745 0.526782 0.866466
v 0.820947 0.518755 0.817566
v 0.700441 0.506098 0.746493
v 0.695914 0.525356 0.858087
v 0.820947 0.284432 0.817566
v 0.564745 0.292459 0.866466
v 0.700441 0.271775 0.746493
v 0.695914 0.291033 0.858087
vn -0.9901 -0.0000 -0.1401
vn -0.0000 0.9901 -0.1401
vn -0.0000 -0.0000 -1.0000
vn -0.0000 -0.9901 -0.1401
vn -0.7071 -0.7071 -0.0000
vn -0.6657 -0.7319 0.1456
vn -0.6657 -0.1456 0.7319
vn -0.0009 0.9881 -0.1540
vn -0.9972 -0.0000 0.0744
vn -1.0000 -0.0000 -0.0000
vn -0.0097 -0.0000 -1.0000
vn 0.1053 -0.0000 0.9944
vn -0.0000 0.9881 -0.1538
vn 1.0000 -0.0000 -0.0000
vn 0.0012 -0.9864 0.1642
vn -0.0000 -0.9881 0.1538
vn 0.0057 -0.0000 1.0000
vn -0.6303 -0.5490 0.5490
vn 0.6657 -0.7319 0.1456
vn 0.6303 -0.5490 0.5490
vn 0.6657 -0.1456 0.7319
vn -0.7071 -0.0000 0.7071
vn 0.7071 -0.7071 -0.0000
vn -0.9991 -0.0000 -0.0413
vn 0.9991 -0.0000 -0.0413
vn -0.0000 0.9991 -0.0413
vn -0.0000 -0.9991 -0.0413
vn 0.0014 -0.9681 0.2506
vn 0.0034 -0.7641 0.6450
vn 0.0047 -0.5108 0.8597
vn 0.0055 -0.1867 0.9824
vn 0.0009 -0.9851 0.1720
vn -0.4642 -0.0000 0.8857
vn 0.0021 0.9850 -0.1726
vn -0.0021 -0.9850 0.1725
vn 0.0002 0.9854 -0.1701
vn 0.0031 0.9854 -0.1702
vn -0.0031 -0.9854 0.1702
vn -0.0002 -0.9854 0.1701
vn -0.0637 -0.0000 0.9980
vn -0.3083 -0.0000 0.9513
vn -0.0009 0.9851 -0.1719
vn 0.9901 -0.0000 -0.1401
vn 0.0008 0.9881 -0.1541
vn 0.9972 -0.0000 0.0744
vn 0.0097 -0.0000 -1.0000
vn -0.1053 -0.0000 0.9944
vn -0.0014 -0.9865 0.1640
vn -0.0057 -0.0000 1.0000
vn -0.0012 -0.9680 0.2508
vn -0.0033 -0.7641 0.6451
vn -0.0047 -0.5108 0.8597
vn -0.0055 -0.1867 0.9824
vn -0.0009 -0.9851 0.1719
vn 0.4642 -0.0000 0.8857
vn -0.0021 0.9850 -0.1726
vn 0.0021 -0.9850 0.1726
vn -0.0002 0.9854 -0.1701
vn -0.0031 0.9854 -0.1702
vn 0.0031 -0.9854 0.1702
vn 0.0002 -0.9854 0.1701
vn 0.0637 -0.0000 0.9980
vn 0.3083 -0.0000 0.9513
vn 0.0009 0.9851 -0.1719
vn -0.0000 -0.0000 1.0000
vn 0.0012 -0.9864 0.1641
vn 0.7071 -0.0000 0.7071
vn 0.0011 -0.9680 0.2510
vn 0.0035 -0.7644 0.6447
vn 0.0046 -0.5105 0.8599
vn 0.0055 -0.1866 0.9824
vn 0.0009 -0.9851 0.1719
vn 0.0021 0.9850 -0.1725
vn -0.0021 -0.9850 0.1726
vn 0.0009 0.9881 -0.1540
vn -0.0011 -0.9864 0.1643
vn -0.0011 -0.9680 0.2510
vn -0.0035 -0.7644 0.6447
vn -0.0046 -0.5105 0.8599
vn -0.0055 -0.1866 0.9824
vn -0.0021 0.9850 -0.1725
vn 0.0021 -0.9850 0.1725
vt 0.133389 0.948087
vt 0.126771 0.973461
vt 0.133389 0.962306
vt 0.126771 0.957828
vt 0.036846 0.868927
vt 0.711659 0.875717
vt 0.707493 0.878368
vt 0.711659 0.878323
vt 0.707493 0.875672
vt 0.711490 0.875715
vt 0.709923 0.875698
vt 0.036846 0.868927
vt 0.065711 0.855680
vt 0.015711 0.905680
vt 0.015711 0.855680
vt 0.065711 0.905680
vt 0.710602 0.875705
vt 0.709921 0.878341
vt 0.710600 0.878335
vt 0.711615 0.875715
vt 0.711490 0.878324
vt 0.711615 0.878327
vt 0.711659 0.877378
vt 0.711659 0.875798
vt 0.711659 0.874334
vt 0.133845 0.972314
vt 0.133845 0.956681
s 0
usemtl Palette
f 3/1/1 2/2/1 4/3/1
f 58/2/2 4/3/2 2/2/2
f 60/3/3 3/1/3 4/3/3
f 59/1/4 1/4/4 3/1/4
s 5
f 5/5/5 19/5/6 18/5/7
s 0
f 6/6/8 8/7/8 9/8/8
f 47/8/9 9/8/9 12/8/9
f 12/8/10 8/7/10 13/7/10
f 8/7/11 10/9/11 13/7/11
f 54/6/12 109/6/12 49/6/12
f 68/9/3 10/9/3 7/9/3
f 6/6/13 68/9/13 7/9/13
f 43/6/14 45/10/14 42/11/14
f 13/7/11 17/9/11 16/7/11
f 42/11/15 16/7/15 17/9/15
f 69/9/16 11/6/16 10/9/16
f 11/6/17 37/8/17 43/6/17
s 5
f 20/5/18 79/5/19 80/5/20
f 78/12/21 14/5/22 18/5/7
f 79/5/19 5/5/5 61/5/23
f 18/5/7 80/5/20 78/12/21
s 0
f 22/13/3 23/14/3 21/15/3
f 30/13/3 31/14/3 29/15/3
f 27/13/24 24/16/24 22/13/24
f 25/14/25 21/15/25 23/14/25
f 24/16/26 25/14/26 23/14/26
f 26/15/27 22/13/27 21/15/27
f 35/13/24 32/16/24 30/13/24
f 33/14/25 29/15/25 31/14/25
f 32/16/26 33/14/26 31/14/26
f 34/15/27 30/13/27 29/15/27
f 44/17/28 38/18/28 42/11/28
f 45/10/29 41/19/29 44/17/29
f 46/20/30 40/21/30 45/10/30
f 43/6/31 39/22/31 46/20/31
f 37/8/10 13/7/10 38/18/10
f 54/6/32 55/6/32 11/6/32
f 53/23/33 48/8/33 47/8/33
f 51/6/34 9/8/34 50/23/34
f 53/23/35 47/8/35 12/8/35
f 49/6/36 51/6/36 52/6/36
f 52/6/37 51/6/37 50/6/37
f 53/23/38 55/6/38 56/24/38
f 56/24/39 55/6/39 54/25/39
f 52/6/40 54/6/40 49/6/40
f 50/23/41 56/6/41 52/6/41
f 49/6/42 109/6/42 67/6/42
f 58/2/43 59/1/43 60/3/43
s 5
f 61/5/23 75/5/14 78/12/21
s 0
f 62/6/44 64/7/44 63/9/44
f 65/8/45 107/8/45 72/8/45
f 72/8/14 64/7/14 65/8/14
f 70/9/46 64/7/46 73/7/46
f 116/6/47 109/6/47 110/6/47
f 70/9/3 68/9/3 63/9/3
f 62/6/13 68/9/13 67/6/13
f 102/11/10 105/10/10 103/6/10
f 77/9/46 73/7/46 76/7/46
f 102/11/48 76/7/48 98/18/48
f 71/6/16 69/9/16 70/9/16
f 97/8/49 71/6/49 103/6/49
f 83/14/3 82/13/3 81/15/3
f 91/14/3 90/13/3 89/15/3
f 84/16/25 87/13/25 82/13/25
f 81/15/24 85/14/24 83/14/24
f 84/16/26 85/14/26 88/16/26
f 82/13/27 86/15/27 81/15/27
f 92/16/25 95/13/25 90/13/25
f 89/15/24 93/14/24 91/14/24
f 92/16/26 93/14/26 96/16/26
f 90/13/27 94/15/27 89/15/27
f 98/18/50 104/17/50 102/11/50
f 101/19/51 105/10/51 104/17/51
f 100/21/52 106/20/52 105/10/52
f 99/22/53 103/6/53 106/20/53
f 98/18/14 76/7/14 73/7/14
f 71/6/54 117/6/54 116/6/54
f 115/23/55 108/8/55 112/23/55
f 112/23/56 65/8/56 113/6/56
f 72/8/57 115/23/57 117/6/57
f 111/6/58 114/6/58 113/6/58
f 114/6/59 112/6/59 113/6/59
f 115/23/60 118/24/60 117/6/60
f 118/24/61 116/25/61 117/6/61
f 116/6/62 114/6/62 111/6/62
f 118/6/63 112/23/63 114/6/63
f 67/6/64 109/6/64 111/6/64
f 58/26/65 1/27/65 57/27/65
f 3/1/1 1/4/1 2/2/1
f 58/2/2 60/3/2 4/3/2
f 60/3/3 59/1/3 3/1/3
f 59/1/4 57/4/4 1/4/4
s 5
f 20/5/18 18/5/7 19/5/6
f 18/5/7 14/5/22 15/5/10
f 5/5/5 18/5/7 15/5/10
s 0
f 6/6/8 7/9/8 8/7/8
f 47/8/9 48/8/9 9/8/9
f 12/8/10 9/8/10 8/7/10
f 8/7/11 7/9/11 10/9/11
f 54/6/12 110/6/12 109/6/12
f 68/9/3 69/9/3 10/9/3
f 6/6/13 67/6/13 68/9/13
f 42/11/14 17/9/14 10/9/14
f 10/9/14 11/6/14 43/6/14
f 43/6/14 46/20/14 45/10/14
f 45/10/14 44/17/14 42/11/14
f 42/11/14 10/9/14 43/6/14
f 13/7/11 10/9/11 17/9/11
f 42/11/66 38/18/66 16/7/66
f 69/9/16 66/6/16 11/6/16
f 11/6/17 12/8/17 37/8/17
s 5
f 20/5/18 19/5/6 79/5/19
f 78/12/21 74/5/67 14/5/22
f 79/5/19 19/5/6 5/5/5
f 18/5/7 20/5/18 80/5/20
s 0
f 22/13/3 24/16/3 23/14/3
f 30/13/3 32/16/3 31/14/3
f 27/13/24 28/16/24 24/16/24
f 25/14/25 26/15/25 21/15/25
f 24/16/26 28/16/26 25/14/26
f 26/15/27 27/13/27 22/13/27
f 35/13/24 36/16/24 32/16/24
f 33/14/25 34/15/25 29/15/25
f 32/16/26 36/16/26 33/14/26
f 34/15/27 35/13/27 30/13/27
f 44/17/68 41/19/68 38/18/68
f 45/10/69 40/21/69 41/19/69
f 46/20/70 39/22/70 40/21/70
f 43/6/71 37/8/71 39/22/71
f 39/22/10 37/8/10 38/18/10
f 37/8/10 12/8/10 13/7/10
f 13/7/10 16/7/10 38/18/10
f 38/18/10 41/19/10 40/21/10
f 39/22/10 38/18/10 40/21/10
f 11/6/72 66/6/72 54/6/72
f 66/6/72 110/6/72 54/6/72
f 53/23/33 50/23/33 48/8/33
f 6/6/73 9/8/73 51/6/73
f 9/8/73 48/8/73 50/23/73
f 12/8/35 11/6/35 55/6/35
f 55/6/74 53/23/74 12/8/74
f 52/6/40 56/6/40 54/6/40
f 50/23/41 53/23/41 56/6/41
f 67/6/42 6/6/42 49/6/42
f 6/6/42 51/6/42 49/6/42
f 58/2/43 57/4/43 59/1/43
s 5
f 74/5/67 78/12/21 75/5/14
f 78/12/21 80/5/20 79/5/19
f 61/5/23 78/12/21 79/5/19
s 0
f 62/6/75 65/8/75 64/7/75
f 65/8/45 108/8/45 107/8/45
f 72/8/14 73/7/14 64/7/14
f 70/9/46 63/9/46 64/7/46
f 116/6/47 111/6/47 109/6/47
f 70/9/3 69/9/3 68/9/3
f 62/6/13 63/9/13 68/9/13
f 70/9/10 77/9/10 102/11/10
f 102/11/10 104/17/10 105/10/10
f 105/10/10 106/20/10 103/6/10
f 103/6/10 71/6/10 70/9/10
f 70/9/10 102/11/10 103/6/10
f 77/9/46 70/9/46 73/7/46
f 102/11/76 77/9/76 76/7/76
f 71/6/16 66/6/16 69/9/16
f 97/8/49 72/8/49 71/6/49
f 83/14/3 84/16/3 82/13/3
f 91/14/3 92/16/3 90/13/3
f 84/16/25 88/16/25 87/13/25
f 81/15/24 86/15/24 85/14/24
f 84/16/26 83/14/26 85/14/26
f 82/13/27 87/13/27 86/15/27
f 92/16/25 96/16/25 95/13/25
f 89/15/24 94/15/24 93/14/24
f 92/16/26 91/14/26 93/14/26
f 90/13/27 95/13/27 94/15/27
f 98/18/77 101/19/77 104/17/77
f 101/19/78 100/21/78 105/10/78
f 100/21/79 99/22/79 106/20/79
f 99/22/80 97/8/80 103/6/80
f 72/8/14 97/8/14 73/7/14
f 97/8/14 99/22/14 98/18/14
f 73/7/14 97/8/14 98/18/14
f 99/22/14 100/21/14 98/18/14
f 100/21/14 101/19/14 98/18/14
f 110/6/54 66/6/54 116/6/54
f 66/6/54 71/6/54 116/6/54
f 115/23/55 107/8/55 108/8/55
f 108/8/81 65/8/81 112/23/81
f 65/8/81 62/6/81 113/6/81
f 117/6/57 71/6/57 72/8/57
f 72/8/82 107/8/82 115/23/82
f 116/6/62 118/6/62 114/6/62
f 118/6/63 115/23/63 112/23/63
f 113/6/64 62/6/64 111/6/64
f 62/6/64 67/6/64 111/6/64
f 58/26/65 2/26/65 1/27/65
