# Blender 5.0.1
# www.blender.org
mtllib Sofa_1_Alt.mtl
o Sofa_1_Alt
v -0.493474 -0.375000 0.323333
v -0.493474 0.375000 0.323333
v -0.459554 -0.341080 0.083526
v -0.459554 0.341080 0.083526
v -0.409681 -0.357263 0.291873
v -0.377934 0.496217 0.688579
v -0.377934 0.428031 0.250375
v -0.573794 0.428020 0.252277
v -0.573794 0.496348 0.689692
v -0.377934 0.193708 0.250375
v -0.377934 0.261894 0.688579
v -0.573794 0.262025 0.689692
v -0.573794 0.193697 0.252277
v -0.409682 0.289664 0.479320
v -0.409682 0.289664 0.291873
v -0.573794 -0.409840 0.252277
v -0.377934 -0.409829 0.250375
v -0.409681 -0.286164 0.479320
v -0.409681 -0.357263 0.408221
v -0.409681 -0.336439 0.458496
v -0.349531 -0.288052 0.000000
v -0.404346 -0.288052 0.000000
v -0.349531 -0.233236 0.000000
v -0.404346 -0.233236 0.000000
v -0.344576 -0.228281 0.119791
v -0.344576 -0.293007 0.119791
v -0.409302 -0.293007 0.119791
v -0.409302 -0.228281 0.119791
v -0.349531 0.230731 0.000000
v -0.404346 0.230731 0.000000
v -0.349531 0.285547 0.000000
v -0.404346 0.285547 0.000000
v -0.344576 0.290502 0.119791
v -0.344576 0.225776 0.119791
v -0.409302 0.225776 0.119791
v -0.409302 0.290502 0.119791
v -0.573794 -0.168078 0.689692
v -0.573794 -0.370025 0.491115
v -0.573794 -0.236619 0.676673
v -0.573794 -0.299066 0.639596
v -0.573794 -0.345912 0.584107
v -0.377934 -0.370052 0.489945
v -0.377934 -0.168210 0.688579
v -0.377934 -0.345979 0.582959
v -0.377934 -0.299167 0.638466
v -0.377934 -0.236743 0.675555
v -0.566934 0.278603 0.781629
v -0.566934 0.512926 0.781629
v -0.441720 0.520844 0.830329
v -0.262956 0.529579 0.882828
v -0.441720 0.286520 0.830329
v -0.262956 0.295255 0.882828
v 0.493474 -0.375000 0.323333
v 0.493474 0.375000 0.323333
v 0.459554 -0.341080 0.083526
v 0.459554 0.341080 0.083526
v 0.409681 -0.357263 0.291873
v 0.377934 0.496217 0.688579
v 0.377934 0.428031 0.250375
v 0.573794 0.428020 0.252277
v 0.573794 0.496348 0.689692
v 0.000000 0.261894 0.688579
v 0.000000 0.496217 0.688579
v 0.000000 0.428031 0.250375
v 0.000000 0.193708 0.250375
v 0.377934 0.193708 0.250375
v 0.377934 0.261894 0.688579
v 0.573794 0.262025 0.689692
v 0.573794 0.193697 0.252277
v 0.409682 0.289664 0.479320
v 0.409682 0.289664 0.291873
v 0.573794 -0.409840 0.252277
v 0.377934 -0.409829 0.250375
v 0.409681 -0.286164 0.479320
v 0.409681 -0.357263 0.408221
v 0.409681 -0.336439 0.458496
v 0.349531 -0.288052 0.000000
v 0.404346 -0.288052 0.000000
v 0.349531 -0.233236 0.000000
v 0.404346 -0.233236 0.000000
v 0.344576 -0.228281 0.119791
v 0.344576 -0.293007 0.119791
v 0.409302 -0.293007 0.119791
v 0.409302 -0.228281 0.119791
v 0.349531 0.230731 0.000000
v 0.404346 0.230731 0.000000
v 0.349531 0.285547 0.000000
v 0.404346 0.285547 0.000000
v 0.344576 0.290502 0.119791
v 0.344576 0.225776 0.119791
v 0.409302 0.225776 0.119791
v 0.409302 0.290502 0.119791
v 0.573794 -0.168078 0.689692
v 0.573794 -0.370025 0.491115
v 0.573794 -0.236619 0.676673
v 0.573794 -0.299066 0.639596
v 0.573794 -0.345912 0.584107
v 0.377934 -0.370052 0.489945
v 0.377934 -0.168210 0.688579
v 0.377934 -0.345979 0.582959
v 0.377934 -0.299167 0.638466
v 0.377934 -0.236743 0.675555
v 0.566934 0.278603 0.781629
v 0.566934 0.512926 0.781629
v 0.000000 0.532389 0.900459
v 0.000000 0.298066 0.900459
v 0.441720 0.520844 0.830329
v 0.262956 0.529579 0.882828
v 0.441720 0.286520 0.830329
v 0.262956 0.295255 0.882828
vn -0.9901 -0.0000 -0.1401
vn -0.0000 0.9901 -0.1401
vn -0.0000 -0.0000 -1.0000
vn -0.0000 -0.9901 -0.1401
vn -0.7071 -0.7071 -0.0000
vn -0.6657 -0.7319 0.1456
vn -0.6657 -0.1456 0.7319
vn -0.0008 0.9881 -0.1541
vn -0.9972 -0.0000 0.0744
vn -1.0000 -0.0000 -0.0000
vn -0.0097 -0.0000 -1.0000
vn -0.0000 0.9881 -0.1538
vn 1.0000 -0.0000 -0.0000
vn 0.0013 -0.9864 0.1641
vn -0.0000 -0.9881 0.1538
vn 0.0057 -0.0000 1.0000
vn -0.6303 -0.5490 0.5490
vn 0.6657 -0.7319 0.1456
vn 0.6303 -0.5490 0.5490
vn 0.6657 -0.1456 0.7319
vn -0.7071 -0.0000 0.7071
vn 0.7071 -0.7071 -0.0000
vn -0.9991 -0.0000 -0.0413
vn 0.9991 -0.0000 -0.0413
vn -0.0000 0.9991 -0.0413
vn -0.0000 -0.9991 -0.0413
vn 0.0012 -0.9680 0.2508
vn 0.0034 -0.7641 0.6450
vn 0.0047 -0.5108 0.8597
vn 0.0055 -0.1867 0.9824
vn -0.3625 -0.0000 0.9320
vn 0.0018 0.9849 -0.1732
vn -0.0018 -0.9849 0.1732
vn 0.0019 0.9854 -0.1703
vn -0.0019 -0.9854 0.1703
vn -0.2818 -0.0000 0.9595
vn -0.0669 -0.0000 0.9978
vn 0.0002 0.9856 -0.1690
vn -0.0002 -0.9856 0.1690
vn 0.9901 -0.0000 -0.1401
vn 0.0009 0.9881 -0.1540
vn 0.9972 -0.0000 0.0744
vn 0.0097 -0.0000 -1.0000
vn -0.0013 -0.9864 0.1641
vn -0.0057 -0.0000 1.0000
vn -0.0012 -0.9680 0.2510
vn -0.0034 -0.7642 0.6449
vn -0.0047 -0.5108 0.8597
vn -0.0055 -0.1867 0.9824
vn 0.3625 -0.0000 0.9320
vn -0.0018 0.9849 -0.1732
vn 0.0018 -0.9849 0.1732
vn -0.0019 0.9854 -0.1703
vn 0.0019 -0.9854 0.1703
vn 0.2818 -0.0000 0.9595
vn 0.0669 -0.0000 0.9978
vn -0.0004 0.9857 -0.1687
vn 0.0002 -0.9856 0.1690
vn -0.0000 -0.0000 1.0000
vn 0.7071 -0.0000 0.7071
vn 0.0013 -0.9681 0.2507
vn 0.0035 -0.7644 0.6447
vn 0.0046 -0.5105 0.8599
vn 0.0055 -0.1866 0.9824
vn 0.0004 0.9857 -0.1687
vn -0.0004 -0.9857 0.1687
vn 0.0007 0.9881 -0.1541
vn -0.0013 -0.9681 0.2507
vn -0.0035 -0.7644 0.6447
vn -0.0046 -0.5105 0.8599
vn -0.0055 -0.1866 0.9824
vn -0.0002 0.9856 -0.1690
vn 0.0004 -0.9857 0.1687
vt 0.133389 0.948087
vt 0.126771 0.973461
vt 0.133389 0.962306
vt 0.126771 0.957828
vt 0.036846 0.868927
vt 0.711659 0.875717
vt 0.707493 0.878368
vt 0.711659 0.878323
vt 0.707493 0.875672
vt 0.711490 0.875715
vt 0.709923 0.875698
vt 0.036846 0.868927
vt 0.065711 0.855680
vt 0.015711 0.905680
vt 0.015711 0.855680
vt 0.065711 0.905680
vt 0.710602 0.875705
vt 0.709921 0.878341
vt 0.710600 0.878335
vt 0.711615 0.875715
vt 0.711490 0.878324
vt 0.711615 0.878327
vt 0.711659 0.876989
vt 0.711659 0.876479
vt 0.711659 0.875759
vt 0.133845 0.972314
vt 0.133845 0.956681
vt 0.711659 0.875798
s 0
usemtl Palette
f 3/1/1 2/2/1 4/3/1
f 54/2/2 4/3/2 2/2/2
f 4/3/3 55/1/3 3/1/3
f 55/1/4 1/4/4 3/1/4
s 5
f 5/5/5 19/5/6 18/5/7
s 0
f 6/6/8 8/7/8 9/8/8
f 47/8/9 9/8/9 12/8/9
f 12/8/10 8/7/10 13/7/10
f 8/7/11 10/9/11 13/7/11
f 64/9/3 10/9/3 7/9/3
f 6/6/12 64/9/12 7/9/12
f 43/6/13 45/10/13 42/11/13
f 13/7/11 17/9/11 16/7/11
f 42/11/14 16/7/14 17/9/14
f 65/9/15 11/6/15 10/9/15
f 11/6/16 37/8/16 43/6/16
s 5
f 20/5/17 75/5/18 76/5/19
f 74/12/20 14/5/21 18/5/7
f 75/5/18 5/5/5 57/5/22
f 18/5/7 76/5/19 74/12/20
s 0
f 22/13/3 23/14/3 21/15/3
f 30/13/3 31/14/3 29/15/3
f 27/13/23 24/16/23 22/13/23
f 25/14/24 21/15/24 23/14/24
f 24/16/25 25/14/25 23/14/25
f 26/15/26 22/13/26 21/15/26
f 35/13/23 32/16/23 30/13/23
f 33/14/24 29/15/24 31/14/24
f 32/16/25 33/14/25 31/14/25
f 34/15/26 30/13/26 29/15/26
f 44/17/27 38/18/27 42/11/27
f 45/10/28 41/19/28 44/17/28
f 46/20/29 40/21/29 45/10/29
f 43/6/30 39/22/30 46/20/30
f 37/8/10 13/7/10 38/18/10
f 51/23/31 48/8/31 47/8/31
f 48/8/32 6/6/32 9/8/32
f 11/6/33 47/8/33 12/8/33
f 50/6/34 6/6/34 49/24/34
f 51/23/35 11/6/35 52/25/35
f 49/24/36 52/25/36 50/6/36
f 106/6/37 50/6/37 52/25/37
f 50/6/38 63/6/38 6/6/38
f 62/6/39 52/25/39 11/6/39
f 54/2/40 55/1/40 56/3/40
s 5
f 57/5/22 71/5/13 74/12/20
s 0
f 58/6/41 60/7/41 59/9/41
f 61/8/42 103/8/42 68/8/42
f 68/8/13 60/7/13 61/8/13
f 66/9/43 60/7/43 69/7/43
f 66/9/3 64/9/3 59/9/3
f 58/6/12 64/9/12 63/6/12
f 98/11/10 101/10/10 99/6/10
f 73/9/43 69/7/43 72/7/43
f 98/11/44 72/7/44 94/18/44
f 67/6/15 65/9/15 66/9/15
f 93/8/45 67/6/45 99/6/45
f 79/14/3 78/13/3 77/15/3
f 87/14/3 86/13/3 85/15/3
f 80/16/24 83/13/24 78/13/24
f 77/15/23 81/14/23 79/14/23
f 80/16/25 81/14/25 84/16/25
f 78/13/26 82/15/26 77/15/26
f 88/16/24 91/13/24 86/13/24
f 85/15/23 89/14/23 87/14/23
f 88/16/25 89/14/25 92/16/25
f 86/13/26 90/15/26 85/15/26
f 94/18/46 100/17/46 98/11/46
f 97/19/47 101/10/47 100/17/47
f 96/21/48 102/20/48 101/10/48
f 95/22/49 99/6/49 102/20/49
f 94/18/13 72/7/13 69/7/13
f 109/23/50 104/8/50 107/24/50
f 58/6/51 104/8/51 61/8/51
f 67/6/52 103/8/52 109/23/52
f 108/6/53 107/24/53 58/6/53
f 109/23/54 110/25/54 67/6/54
f 110/25/55 107/24/55 108/6/55
f 108/6/56 106/6/56 110/25/56
f 108/6/57 63/6/57 105/6/57
f 110/25/58 62/6/58 67/6/58
f 54/26/59 1/27/59 53/27/59
f 3/1/1 1/4/1 2/2/1
f 54/2/2 56/3/2 4/3/2
f 4/3/3 56/3/3 55/1/3
f 55/1/4 53/4/4 1/4/4
s 5
f 20/5/17 18/5/7 19/5/6
f 18/5/7 14/5/21 15/5/10
f 5/5/5 18/5/7 15/5/10
s 0
f 6/6/8 7/9/8 8/7/8
f 47/8/9 48/8/9 9/8/9
f 12/8/10 9/8/10 8/7/10
f 8/7/11 7/9/11 10/9/11
f 64/9/3 65/9/3 10/9/3
f 6/6/12 63/6/12 64/9/12
f 42/11/13 17/9/13 10/9/13
f 10/9/13 11/6/13 43/6/13
f 43/6/13 46/20/13 45/10/13
f 45/10/13 44/17/13 42/11/13
f 42/11/13 10/9/13 43/6/13
f 13/7/11 10/9/11 17/9/11
f 42/11/14 38/18/14 16/7/14
f 65/9/15 62/6/15 11/6/15
f 11/6/16 12/8/16 37/8/16
s 5
f 20/5/17 19/5/6 75/5/18
f 74/12/20 70/5/60 14/5/21
f 75/5/18 19/5/6 5/5/5
f 18/5/7 20/5/17 76/5/19
s 0
f 22/13/3 24/16/3 23/14/3
f 30/13/3 32/16/3 31/14/3
f 27/13/23 28/16/23 24/16/23
f 25/14/24 26/15/24 21/15/24
f 24/16/25 28/16/25 25/14/25
f 26/15/26 27/13/26 22/13/26
f 35/13/23 36/16/23 32/16/23
f 33/14/24 34/15/24 29/15/24
f 32/16/25 36/16/25 33/14/25
f 34/15/26 35/13/26 30/13/26
f 44/17/61 41/19/61 38/18/61
f 45/10/62 40/21/62 41/19/62
f 46/20/63 39/22/63 40/21/63
f 43/6/64 37/8/64 39/22/64
f 39/22/10 37/8/10 38/18/10
f 37/8/10 12/8/10 13/7/10
f 13/7/10 16/7/10 38/18/10
f 38/18/10 41/19/10 40/21/10
f 39/22/10 38/18/10 40/21/10
f 51/23/31 49/24/31 48/8/31
f 48/8/32 49/24/32 6/6/32
f 11/6/33 51/23/33 47/8/33
f 49/24/36 51/23/36 52/25/36
f 106/6/37 105/6/37 50/6/37
f 50/6/65 105/6/65 63/6/65
f 62/6/66 106/28/66 52/25/66
f 54/2/40 53/4/40 55/1/40
s 5
f 70/5/60 74/12/20 71/5/13
f 74/12/20 76/5/19 75/5/18
f 57/5/22 74/12/20 75/5/18
s 0
f 58/6/67 61/8/67 60/7/67
f 61/8/42 104/8/42 103/8/42
f 68/8/13 69/7/13 60/7/13
f 66/9/43 59/9/43 60/7/43
f 66/9/3 65/9/3 64/9/3
f 58/6/12 59/9/12 64/9/12
f 66/9/10 73/9/10 98/11/10
f 98/11/10 100/17/10 101/10/10
f 101/10/10 102/20/10 99/6/10
f 99/6/10 67/6/10 66/9/10
f 66/9/10 98/11/10 99/6/10
f 73/9/43 66/9/43 69/7/43
f 98/11/44 73/9/44 72/7/44
f 67/6/15 62/6/15 65/9/15
f 93/8/45 68/8/45 67/6/45
f 79/14/3 80/16/3 78/13/3
f 87/14/3 88/16/3 86/13/3
f 80/16/24 84/16/24 83/13/24
f 77/15/23 82/15/23 81/14/23
f 80/16/25 79/14/25 81/14/25
f 78/13/26 83/13/26 82/15/26
f 88/16/24 92/16/24 91/13/24
f 85/15/23 90/15/23 89/14/23
f 88/16/25 87/14/25 89/14/25
f 86/13/26 91/13/26 90/15/26
f 94/18/68 97/19/68 100/17/68
f 97/19/69 96/21/69 101/10/69
f 96/21/70 95/22/70 102/20/70
f 95/22/71 93/8/71 99/6/71
f 68/8/13 93/8/13 69/7/13
f 93/8/13 95/22/13 94/18/13
f 69/7/13 93/8/13 94/18/13
f 95/22/13 96/21/13 94/18/13
f 96/21/13 97/19/13 94/18/13
f 109/23/50 103/8/50 104/8/50
f 58/6/51 107/24/51 104/8/51
f 67/6/52 68/8/52 103/8/52
f 110/25/55 109/23/55 107/24/55
f 108/6/56 105/6/56 106/6/56
f 108/6/72 58/6/72 63/6/72
f 110/25/73 106/28/73 62/6/73
f 54/26/59 2/26/59 1/27/59
