# Blender 5.0.1
# www.blender.org
mtllib Sofa_2.mtl
o Sofa_2
v -0.816062 -0.375000 0.323333
v -0.816062 0.375000 0.323333
v -0.782142 -0.341080 0.083526
v -0.782142 0.341080 0.083526
v -0.732269 -0.357263 0.291873
v -0.700522 0.493942 0.701344
v -0.700522 0.428031 0.250375
v -0.898242 0.428020 0.252277
v -0.898242 0.494052 0.702577
v -0.700522 0.193708 0.250375
v -0.700522 0.269976 0.763718
v -0.898242 0.270107 0.764831
v -0.898242 0.193697 0.252277
v -0.732270 0.289664 0.479320
v -0.732270 0.289664 0.291873
v -0.898242 -0.441456 0.597005
v -0.898242 -0.409841 0.252277
v -0.700522 -0.441555 0.595713
v -0.700522 -0.409829 0.250375
v -0.732269 -0.286164 0.479320
v -0.732269 -0.357263 0.408221
v -0.732269 -0.336439 0.458496
v -0.672119 -0.288052 0.000000
v -0.726934 -0.288052 0.000000
v -0.672119 -0.233236 0.000000
v -0.726934 -0.233236 0.000000
v -0.667164 -0.228281 0.119791
v -0.667164 -0.293007 0.119791
v -0.731890 -0.293007 0.119791
v -0.731890 -0.228281 0.119791
v -0.672119 0.230731 0.000000
v -0.726934 0.230731 0.000000
v -0.672119 0.285547 0.000000
v -0.726934 0.285547 0.000000
v -0.667164 0.290502 0.119791
v -0.667164 0.225776 0.119791
v -0.731890 0.225776 0.119791
v -0.731890 0.290502 0.119791
v 0.816062 -0.375000 0.323333
v 0.816062 0.375000 0.323333
v 0.782142 -0.341080 0.083526
v 0.782142 0.341080 0.083526
v 0.732269 -0.357263 0.291873
v 0.700522 0.493942 0.701344
v 0.700522 0.428031 0.250375
v 0.898242 0.428020 0.252277
v 0.898242 0.494052 0.702577
v 0.700522 0.193708 0.250375
v 0.700522 0.269976 0.763718
v 0.898242 0.270107 0.764831
v 0.898242 0.193697 0.252277
v 0.732270 0.289664 0.479320
v 0.732270 0.289664 0.291873
v 0.898242 -0.441456 0.597005
v 0.898242 -0.409841 0.252277
v 0.700522 -0.441555 0.595713
v 0.700522 -0.409829 0.250375
v 0.732269 -0.286164 0.479320
v 0.732269 -0.357263 0.408221
v 0.732269 -0.336439 0.458496
v 0.672119 -0.288052 0.000000
v 0.726934 -0.288052 0.000000
v 0.672119 -0.233236 0.000000
v 0.726934 -0.233236 0.000000
v 0.667164 -0.228281 0.119791
v 0.667164 -0.293007 0.119791
v 0.731890 -0.293007 0.119791
v 0.731890 -0.228281 0.119791
v 0.672119 0.230731 0.000000
v 0.726934 0.230731 0.000000
v 0.672119 0.285547 0.000000
v 0.726934 0.285547 0.000000
v 0.667164 0.290502 0.119791
v 0.667164 0.225776 0.119791
v 0.731890 0.225776 0.119791
v 0.731890 0.290502 0.119791
vn -0.9901 -0.0000 -0.1401
vn -0.0000 0.9901 -0.1401
vn -0.0000 -0.0000 -1.0000
vn -0.0000 -0.9901 -0.1401
vn -0.7071 -0.7071 -0.0000
vn -0.6657 -0.7319 0.1456
vn -0.6657 -0.1456 0.7319
vn -0.0009 0.9895 -0.1449
vn 0.0059 0.2680 0.9634
vn -1.0000 -0.0000 -0.0000
vn -0.0096 -0.0000 -1.0000
vn 0.6303 -0.5490 0.5490
vn 0.6657 -0.1456 0.7319
vn -0.0000 0.2683 0.9633
vn -0.0000 -0.9891 0.1470
vn 0.0057 -0.2296 0.9733
vn 1.0000 -0.0000 -0.0000
vn -0.0008 -0.9958 -0.0915
vn -0.6303 -0.5490 0.5490
vn 0.6657 -0.7319 0.1456
vn -0.7071 -0.0000 0.7071
vn 0.7071 -0.7071 -0.0000
vn -0.0000 0.9895 -0.1446
vn -0.9991 -0.0000 -0.0413
vn 0.9991 -0.0000 -0.0413
vn -0.0000 0.9991 -0.0413
vn -0.0000 -0.9991 -0.0413
vn 0.9901 -0.0000 -0.1401
vn 0.0010 0.9895 -0.1448
vn -0.0059 0.2681 0.9634
vn 0.0096 -0.0000 -1.0000
vn -0.0057 -0.2296 0.9733
vn 0.0011 -0.9958 -0.0913
vn -0.0000 -0.0000 1.0000
vn -0.0010 0.9895 -0.1448
vn 0.0059 0.2681 0.9634
vn -0.0011 -0.9958 -0.0913
vn 0.7071 -0.0000 0.7071
vn 0.0009 0.9895 -0.1449
vn -0.0059 0.2680 0.9634
vn -0.0059 -0.2297 0.9732
vn 0.0008 -0.9958 -0.0915
vt 0.133389 0.948087
vt 0.126771 0.973461
vt 0.133389 0.962306
vt 0.126771 0.957828
vt 0.036846 0.868927
vt 0.711026 0.875710
vt 0.707493 0.878368
vt 0.711026 0.878329
vt 0.711659 0.875717
vt 0.711659 0.878323
vt 0.707493 0.875672
vt 0.036846 0.868927
vt 0.710717 0.878333
vt 0.710717 0.875706
vt 0.065711 0.855680
vt 0.015711 0.905680
vt 0.015711 0.855680
vt 0.065711 0.905680
vt 0.133845 0.972314
vt 0.133845 0.956681
s 0
usemtl Palette
f 3/1/1 2/2/1 4/3/1
f 40/2/2 4/3/2 2/2/2
f 42/3/3 3/1/3 4/3/3
f 41/1/4 1/4/4 3/1/4
s 5
f 5/5/5 21/5/6 20/5/7
s 0
f 6/6/8 8/7/8 9/8/8
f 11/9/9 9/8/9 12/10/9
f 12/10/10 8/7/10 13/7/10
f 8/7/11 10/11/11 13/7/11
s 5
f 20/5/7 60/5/12 58/12/13
s 0
f 49/9/14 6/6/14 11/9/14
f 49/9/15 10/11/15 48/11/15
f 11/9/16 16/13/16 18/14/16
f 13/7/11 19/11/11 17/7/11
f 16/13/10 13/7/10 17/7/10
f 48/11/3 7/11/3 45/11/3
f 10/11/17 18/14/17 19/11/17
f 18/14/18 17/7/18 19/11/18
s 5
f 22/5/19 59/5/20 60/5/12
f 58/12/13 14/5/21 20/5/7
f 59/5/20 5/5/5 43/5/22
s 0
f 45/11/23 6/6/23 44/6/23
f 24/15/3 25/16/3 23/17/3
f 32/15/3 33/16/3 31/17/3
f 29/15/24 26/18/24 24/15/24
f 27/16/25 23/17/25 25/16/25
f 26/18/26 27/16/26 25/16/26
f 28/17/27 24/15/27 23/17/27
f 37/15/24 34/18/24 32/15/24
f 35/16/25 31/17/25 33/16/25
f 34/18/26 35/16/26 33/16/26
f 36/17/27 32/15/27 31/17/27
f 40/2/28 41/1/28 42/3/28
s 5
f 43/5/22 53/5/17 58/12/13
s 0
f 44/6/29 46/7/29 45/11/29
f 49/9/30 47/8/30 44/6/30
f 50/10/17 46/7/17 47/8/17
f 48/11/31 46/7/31 51/7/31
f 54/13/32 49/9/32 56/14/32
f 57/11/31 51/7/31 55/7/31
f 54/13/17 51/7/17 50/10/17
f 56/14/10 48/11/10 57/11/10
f 56/14/33 55/7/33 54/13/33
f 63/16/3 62/15/3 61/17/3
f 71/16/3 70/15/3 69/17/3
f 64/18/25 67/15/25 62/15/25
f 61/17/24 65/16/24 63/16/24
f 64/18/26 65/16/26 68/18/26
f 62/15/27 66/17/27 61/17/27
f 72/18/25 75/15/25 70/15/25
f 69/17/24 73/16/24 71/16/24
f 72/18/26 73/16/26 76/18/26
f 70/15/27 74/17/27 69/17/27
f 40/19/34 1/20/34 39/20/34
f 3/1/1 1/4/1 2/2/1
f 40/2/2 42/3/2 4/3/2
f 42/3/3 41/1/3 3/1/3
f 41/1/4 39/4/4 1/4/4
s 5
f 22/5/19 20/5/7 21/5/6
f 20/5/7 14/5/21 15/5/10
f 5/5/5 20/5/7 15/5/10
s 0
f 6/6/35 7/11/35 8/7/35
f 11/9/36 6/6/36 9/8/36
f 12/10/10 9/8/10 8/7/10
f 8/7/11 7/11/11 10/11/11
s 5
f 20/5/7 22/5/19 60/5/12
s 0
f 49/9/14 44/6/14 6/6/14
f 49/9/15 11/9/15 10/11/15
f 11/9/16 12/10/16 16/13/16
f 13/7/11 10/11/11 19/11/11
f 16/13/10 12/10/10 13/7/10
f 48/11/3 10/11/3 7/11/3
f 10/11/17 11/9/17 18/14/17
f 18/14/37 16/13/37 17/7/37
s 5
f 22/5/19 21/5/6 59/5/20
f 58/12/13 52/5/38 14/5/21
f 59/5/20 21/5/6 5/5/5
s 0
f 45/11/23 7/11/23 6/6/23
f 24/15/3 26/18/3 25/16/3
f 32/15/3 34/18/3 33/16/3
f 29/15/24 30/18/24 26/18/24
f 27/16/25 28/17/25 23/17/25
f 26/18/26 30/18/26 27/16/26
f 28/17/27 29/15/27 24/15/27
f 37/15/24 38/18/24 34/18/24
f 35/16/25 36/17/25 31/17/25
f 34/18/26 38/18/26 35/16/26
f 36/17/27 37/15/27 32/15/27
f 40/2/28 39/4/28 41/1/28
s 5
f 52/5/38 58/12/13 53/5/17
f 58/12/13 60/5/12 59/5/20
f 43/5/22 58/12/13 59/5/20
s 0
f 44/6/39 47/8/39 46/7/39
f 49/9/40 50/10/40 47/8/40
f 50/10/17 51/7/17 46/7/17
f 48/11/31 45/11/31 46/7/31
f 54/13/41 50/10/41 49/9/41
f 57/11/31 48/11/31 51/7/31
f 54/13/17 55/7/17 51/7/17
f 56/14/10 49/9/10 48/11/10
f 56/14/42 57/11/42 55/7/42
f 63/16/3 64/18/3 62/15/3
f 71/16/3 72/18/3 70/15/3
f 64/18/25 68/18/25 67/15/25
f 61/17/24 66/17/24 65/16/24
f 64/18/26 63/16/26 65/16/26
f 62/15/27 67/15/27 66/17/27
f 72/18/25 76/18/25 75/15/25
f 69/17/24 74/17/24 73/16/24
f 72/18/26 71/16/26 73/16/26
f 70/15/27 75/15/27 74/17/27
f 40/19/34 2/19/34 1/20/34
