# Blender 5.0.1
# www.blender.org
mtllib Sofa_3.mtl
o Sofa_3
v -0.816062 -0.375000 0.323333
v -0.816062 0.375000 0.323333
v -0.782142 -0.341080 0.083526
v -0.782142 0.341080 0.083526
v -0.732269 -0.357263 0.291873
v -0.700522 0.428031 0.250375
v -0.898242 0.428020 0.252277
v -0.700522 0.193708 0.250375
v -0.700522 0.269976 0.822684
v -0.898242 0.270107 0.823797
v -0.898242 0.193697 0.252277
v -0.732270 0.289664 0.479320
v -0.732270 0.289664 0.291873
v -0.898242 -0.441456 0.655971
v -0.898242 -0.409841 0.252277
v -0.700522 -0.441555 0.654679
v -0.700522 -0.409829 0.250375
v -0.732269 -0.286164 0.479320
v -0.732269 -0.357263 0.408221
v -0.732269 -0.336439 0.458496
v -0.672119 -0.288052 0.000000
v -0.726934 -0.288052 0.000000
v -0.672119 -0.233236 0.000000
v -0.726934 -0.233236 0.000000
v -0.667164 -0.228281 0.119791
v -0.667164 -0.293007 0.119791
v -0.731890 -0.293007 0.119791
v -0.731890 -0.228281 0.119791
v -0.672119 0.230731 0.000000
v -0.726934 0.230731 0.000000
v -0.672119 0.285547 0.000000
v -0.726934 0.285547 0.000000
v -0.667164 0.290502 0.119791
v -0.667164 0.225776 0.119791
v -0.731890 0.225776 0.119791
v -0.731890 0.290502 0.119791
v 0.816062 -0.375000 0.323333
v 0.816062 0.375000 0.323333
v 0.782142 -0.341080 0.083526
v 0.782142 0.341080 0.083526
v 0.732269 -0.357263 0.291873
v 0.700522 0.428031 0.250375
v 0.898242 0.428020 0.252277
v 0.700522 0.193708 0.250375
v 0.700522 0.269976 0.822684
v 0.898242 0.270107 0.823797
v 0.898242 0.193697 0.252277
v 0.732270 0.289664 0.479320
v 0.732270 0.289664 0.291873
v 0.898242 -0.441456 0.655971
v 0.898242 -0.409841 0.252277
v 0.700522 -0.441555 0.654679
v 0.700522 -0.409829 0.250375
v 0.732269 -0.286164 0.479320
v 0.732269 -0.357263 0.408221
v 0.732269 -0.336439 0.458496
v 0.672119 -0.288052 0.000000
v 0.726934 -0.288052 0.000000
v 0.672119 -0.233236 0.000000
v 0.726934 -0.233236 0.000000
v 0.667164 -0.228281 0.119791
v 0.667164 -0.293007 0.119791
v 0.731890 -0.293007 0.119791
v 0.731890 -0.228281 0.119791
v 0.672119 0.230731 0.000000
v 0.726934 0.230731 0.000000
v 0.672119 0.285547 0.000000
v 0.726934 0.285547 0.000000
v 0.667164 0.290502 0.119791
v 0.667164 0.225776 0.119791
v 0.731890 0.225776 0.119791
v 0.731890 0.290502 0.119791
v 0.898242 -0.108072 0.252277
v 0.700522 -0.108061 0.250375
v -0.898242 -0.108072 0.252277
v -0.700522 -0.108061 0.250375
v 0.700522 -0.209215 0.772544
v 0.700522 0.051552 0.830604
v 0.898242 0.051667 0.831772
v 0.898242 -0.209113 0.773774
v -0.700522 0.051552 0.830604
v -0.700522 -0.209215 0.772544
v -0.898242 -0.209113 0.773774
v -0.898242 0.051667 0.831772
v -0.700522 0.445854 0.773702
v -0.700522 0.486723 0.651949
v -0.898242 0.445957 0.774913
v -0.898242 0.486809 0.653186
v 0.700522 0.486723 0.651949
v 0.700522 0.445854 0.773702
v 0.898242 0.486809 0.653186
v 0.898242 0.445957 0.774913
v -0.678222 0.279745 0.777276
v -0.678222 0.244000 0.465324
v -0.030973 0.244000 0.465324
v -0.030973 0.279745 0.777276
v 0.030973 0.279745 0.777276
v 0.030973 0.244000 0.465324
v 0.678222 0.244000 0.465324
v 0.678222 0.279745 0.777276
v -0.657591 0.182492 0.483205
v -0.632706 0.171425 0.506885
v -0.632707 0.217463 0.705014
v -0.660805 0.240762 0.741485
v -0.051603 0.182492 0.483205
v -0.076488 0.171425 0.506885
v -0.076488 0.217463 0.705014
v -0.048389 0.240762 0.741485
v 0.051603 0.182492 0.483205
v 0.076488 0.171425 0.506885
v 0.076488 0.217463 0.705014
v 0.048389 0.240762 0.741485
v 0.657591 0.182492 0.483205
v 0.632706 0.171425 0.506885
v 0.632707 0.217463 0.705014
v 0.660805 0.240762 0.741485
vn -0.9901 -0.0000 -0.1401
vn -0.0000 0.9901 -0.1401
vn -0.0000 -0.0000 -1.0000
vn -0.0000 -0.9901 -0.1401
vn -0.7071 -0.7071 -0.0000
vn -0.6657 -0.7319 0.1456
vn -0.6657 -0.1456 0.7319
vn -0.0000 0.2683 0.9633
vn -0.0009 0.9894 -0.1449
vn -0.0058 0.2680 0.9634
vn -0.0096 -0.0000 -1.0000
vn 0.6303 -0.5490 0.5490
vn 0.6657 -0.1456 0.7319
vn -0.0000 0.9895 -0.1446
vn -0.0000 -0.9912 0.1321
vn 1.0000 -0.0000 -0.0000
vn -1.0000 -0.0000 -0.0000
vn -0.0011 -0.9970 -0.0780
vn -0.6303 -0.5490 0.5490
vn 0.6657 -0.7319 0.1456
vn -0.7071 -0.0000 0.7071
vn 0.7071 -0.7071 -0.0000
vn -0.9991 -0.0000 -0.0413
vn 0.9991 -0.0000 -0.0413
vn -0.0000 0.9991 -0.0413
vn -0.0000 -0.9991 -0.0413
vn 0.9901 -0.0000 -0.1401
vn 0.0008 0.9894 -0.1449
vn 0.0096 -0.0000 -1.0000
vn 0.0007 -0.9969 -0.0782
vn -0.0000 -0.0000 1.0000
vn -0.0059 0.0362 0.9993
vn 0.0053 -0.4522 0.8919
vn 0.0059 0.0362 0.9993
vn -0.0056 -0.2171 0.9761
vn 0.0060 -0.2173 0.9761
vn -0.0052 -0.4521 0.8919
vn 0.0024 0.9480 0.3182
vn -0.0024 0.9480 0.3182
vn -0.0000 0.9480 0.3182
vn 0.0059 0.2682 0.9634
vn -0.0000 -0.2791 -0.9602
vn -0.9306 -0.3620 0.0544
vn -0.9306 -0.3620 0.0545
vn -0.0000 -0.6763 0.7366
vn 0.9306 -0.3620 0.0544
vn -0.0000 -0.9741 0.2263
vn -0.5017 -0.8440 0.1894
vn -0.0000 -0.9060 -0.4234
vn -0.0000 -0.8427 0.5384
vn 0.5017 -0.8440 0.1894
vn -0.0008 0.9894 -0.1449
vn -0.0059 0.2682 0.9634
vn -0.0007 -0.9969 -0.0782
vn 0.7071 -0.0000 0.7071
vn 0.0010 0.9895 -0.1448
vn 0.0011 -0.9970 -0.0780
vn -0.0057 0.0365 0.9993
vn 0.0057 0.0365 0.9993
vn -0.0060 -0.2173 0.9761
vn 0.0056 -0.2171 0.9761
vn -0.0053 -0.4522 0.8919
vn 0.0058 0.2680 0.9634
vn -0.5018 -0.8440 0.1894
vn 0.5018 -0.8440 0.1894
vt 0.133389 0.948087
vt 0.126771 0.973461
vt 0.133389 0.962306
vt 0.126771 0.957828
vt 0.036846 0.868927
vt 0.711162 0.875711
vt 0.711659 0.875717
vt 0.710639 0.875706
vt 0.707493 0.878368
vt 0.710639 0.878334
vt 0.711162 0.878328
vt 0.707493 0.875672
vt 0.036846 0.868927
vt 0.710211 0.875701
vt 0.711025 0.878329
vt 0.710210 0.878338
vt 0.711370 0.878326
vt 0.710717 0.875706
vt 0.065711 0.855680
vt 0.015711 0.905680
vt 0.015711 0.855680
vt 0.065711 0.905680
vt 0.711659 0.878323
vt 0.711025 0.878329
vt 0.711025 0.875710
vt 0.710211 0.875701
vt 0.710717 0.878333
vt 0.133845 0.972314
vt 0.133845 0.956681
vt 0.711370 0.875713
vt 0.711162 0.875711
vt 0.707493 0.875672
vt 0.707493 0.875672
vt 0.711659 0.875717
vt 0.711322 0.875713
vt 0.707830 0.875675
vt 0.707830 0.875675
vt 0.711321 0.875713
vt 0.707830 0.875675
vt 0.707830 0.875675
vt 0.711321 0.875713
s 0
usemtl Palette
f 3/1/1 2/2/1 4/3/1
f 38/2/2 4/3/2 2/2/2
f 40/3/3 3/1/3 4/3/3
f 39/1/4 1/4/4 3/1/4
s 5
f 5/5/5 19/5/6 18/5/7
s 0
f 90/6/8 9/7/8 45/7/8
f 86/8/9 7/9/9 88/10/9
f 45/7/10 92/11/10 90/6/10
f 7/9/11 8/12/11 11/9/11
s 5
f 18/5/7 56/5/12 54/13/13
s 0
f 42/12/14 86/8/14 89/8/14
f 45/7/15 8/12/15 44/12/15
f 8/12/16 81/14/16 76/12/16
f 11/9/11 76/12/11 75/9/11
f 83/15/17 84/16/17 75/9/17
f 44/12/3 6/12/3 42/12/3
f 84/17/17 11/9/17 75/9/17
f 16/18/18 15/9/18 17/12/18
s 5
f 20/5/19 55/5/20 56/5/12
f 54/13/13 12/5/21 18/5/7
f 55/5/20 5/5/5 41/5/22
s 0
f 88/10/17 7/9/17 11/9/17
f 22/19/3 23/20/3 21/21/3
f 30/19/3 31/20/3 29/21/3
f 27/19/23 24/22/23 22/19/23
f 25/20/24 21/21/24 23/20/24
f 24/22/25 25/20/25 23/20/25
f 26/21/26 22/19/26 21/21/26
f 35/19/23 32/22/23 30/19/23
f 33/20/24 29/21/24 31/20/24
f 32/22/25 33/20/25 31/20/25
f 34/21/26 30/19/26 29/21/26
f 38/2/27 39/1/27 40/3/27
s 5
f 41/5/22 49/5/16 54/13/13
s 0
f 47/9/16 43/9/16 91/10/16
f 89/8/28 43/9/28 42/12/28
f 44/12/29 43/9/29 47/9/29
f 79/16/16 47/9/16 46/23/16
f 74/12/29 47/9/29 73/9/29
f 73/9/16 79/16/16 80/24/16
f 77/25/17 78/26/17 74/12/17
f 52/18/30 51/9/30 50/27/30
f 59/20/3 58/19/3 57/21/3
f 67/20/3 66/19/3 65/21/3
f 60/22/24 63/19/24 58/19/24
f 57/21/23 61/20/23 59/20/23
f 60/22/25 61/20/25 64/22/25
f 58/19/26 62/21/26 57/21/26
f 68/22/24 71/19/24 66/19/24
f 65/21/23 69/20/23 67/20/23
f 68/22/25 69/20/25 72/22/25
f 66/19/26 70/21/26 65/21/26
f 38/28/31 1/29/31 37/29/31
f 79/17/32 45/7/32 78/30/32
f 82/25/33 14/27/33 16/18/33
f 53/12/29 73/9/29 51/9/29
f 78/30/17 44/12/17 74/12/17
f 9/7/34 84/17/34 81/30/34
f 75/9/11 17/12/11 15/9/11
f 76/12/16 82/25/16 16/18/16
f 78/30/35 80/24/35 79/17/35
f 81/30/36 83/15/36 82/25/36
f 50/27/37 77/25/37 52/18/37
f 88/10/38 85/31/38 86/8/38
f 90/6/39 91/10/39 89/8/39
f 86/8/40 90/6/40 89/8/40
f 9/7/41 87/11/41 10/23/41
f 101/32/42 95/12/42 105/12/42
f 112/7/43 98/12/44 109/33/43
f 96/7/45 104/7/45 108/34/45
f 95/12/46 108/34/46 105/12/46
f 107/35/47 102/36/47 106/37/47
f 98/12/42 113/12/42 109/33/42
f 100/7/45 112/7/45 116/7/45
f 99/12/46 116/7/46 113/12/46
f 115/38/47 110/39/47 114/40/47
f 101/32/48 103/38/48 104/7/48
f 105/12/49 102/36/49 101/32/49
f 107/35/50 104/7/50 103/38/50
f 107/35/51 105/12/51 108/34/51
f 109/33/48 111/41/48 112/7/48
f 109/33/49 114/40/49 110/39/49
f 115/38/50 112/7/50 111/41/50
f 115/38/51 113/12/51 116/7/51
f 104/7/43 94/12/44 101/32/43
f 3/1/1 1/4/1 2/2/1
f 38/2/2 40/3/2 4/3/2
f 40/3/3 39/1/3 3/1/3
f 39/1/4 37/4/4 1/4/4
s 5
f 20/5/19 18/5/7 19/5/6
f 18/5/7 12/5/21 13/5/17
f 5/5/5 18/5/7 13/5/17
s 0
f 90/6/8 85/31/8 9/7/8
f 86/8/52 6/12/52 7/9/52
f 45/7/53 46/23/53 92/11/53
f 7/9/11 6/12/11 8/12/11
s 5
f 18/5/7 20/5/19 56/5/12
s 0
f 42/12/14 6/12/14 86/8/14
f 45/7/15 9/7/15 8/12/15
f 8/12/16 9/7/16 81/14/16
f 11/9/11 8/12/11 76/12/11
f 15/9/17 14/27/17 75/9/17
f 14/27/17 83/15/17 75/9/17
f 44/12/3 8/12/3 6/12/3
f 84/17/17 10/23/17 11/9/17
f 16/18/54 14/27/54 15/9/54
s 5
f 20/5/19 19/5/6 55/5/20
f 54/13/13 48/5/55 12/5/21
f 55/5/20 19/5/6 5/5/5
s 0
f 11/9/17 10/23/17 88/10/17
f 10/23/17 87/11/17 88/10/17
f 22/19/3 24/22/3 23/20/3
f 30/19/3 32/22/3 31/20/3
f 27/19/23 28/22/23 24/22/23
f 25/20/24 26/21/24 21/21/24
f 24/22/25 28/22/25 25/20/25
f 26/21/26 27/19/26 22/19/26
f 35/19/23 36/22/23 32/22/23
f 33/20/24 34/21/24 29/21/24
f 32/22/25 36/22/25 33/20/25
f 34/21/26 35/19/26 30/19/26
f 38/2/27 37/4/27 39/1/27
s 5
f 48/5/55 54/13/13 49/5/16
f 54/13/13 56/5/12 55/5/20
f 41/5/22 54/13/13 55/5/20
s 0
f 92/11/16 46/23/16 91/10/16
f 46/23/16 47/9/16 91/10/16
f 89/8/56 91/10/56 43/9/56
f 44/12/29 42/12/29 43/9/29
f 79/16/16 73/9/16 47/9/16
f 74/12/29 44/12/29 47/9/29
f 80/24/16 50/27/16 73/9/16
f 50/27/16 51/9/16 73/9/16
f 74/12/17 53/12/17 52/18/17
f 52/18/17 77/25/17 74/12/17
f 52/18/57 53/12/57 51/9/57
f 59/20/3 60/22/3 58/19/3
f 67/20/3 68/22/3 66/19/3
f 60/22/24 64/22/24 63/19/24
f 57/21/23 62/21/23 61/20/23
f 60/22/25 59/20/25 61/20/25
f 58/19/26 63/19/26 62/21/26
f 68/22/24 72/22/24 71/19/24
f 65/21/23 70/21/23 69/20/23
f 68/22/25 67/20/25 69/20/25
f 66/19/26 71/19/26 70/21/26
f 38/28/31 2/28/31 1/29/31
f 79/17/58 46/23/58 45/7/58
f 82/25/33 83/15/33 14/27/33
f 53/12/29 74/12/29 73/9/29
f 78/30/17 45/7/17 44/12/17
f 9/7/59 10/23/59 84/17/59
f 75/9/11 76/12/11 17/12/11
f 16/18/16 17/12/16 76/12/16
f 76/12/16 81/14/16 82/25/16
f 78/30/60 77/25/60 80/24/60
f 81/30/61 84/17/61 83/15/61
f 50/27/62 80/24/62 77/25/62
f 88/10/38 87/11/38 85/31/38
f 90/6/39 92/11/39 91/10/39
f 86/8/40 85/31/40 90/6/40
f 9/7/63 85/31/63 87/11/63
f 101/32/42 94/12/42 95/12/42
f 112/7/43 97/7/43 98/12/43
f 96/7/45 93/7/45 104/7/45
f 95/12/46 96/7/46 108/34/46
f 107/35/47 103/38/47 102/36/47
f 98/12/42 99/12/42 113/12/42
f 100/7/45 97/7/45 112/7/45
f 99/12/46 100/7/46 116/7/46
f 115/38/47 111/41/47 110/39/47
f 101/32/64 102/36/64 103/38/64
f 105/12/49 106/37/49 102/36/49
f 107/35/50 108/34/50 104/7/50
f 107/35/65 106/37/65 105/12/65
f 109/33/64 110/39/64 111/41/64
f 109/33/49 113/12/49 114/40/49
f 115/38/50 116/7/50 112/7/50
f 115/38/65 114/40/65 113/12/65
f 104/7/43 93/7/43 94/12/43
