# Blender 5.0.1
# www.blender.org
mtllib Sofa_4.mtl
o Sofa_4
v -0.672119 -0.288052 0.000000
v -0.726934 -0.288052 0.000000
v -0.672119 -0.233236 0.000000
v -0.726934 -0.233236 0.000000
v -0.667164 -0.228281 0.119791
v -0.667164 -0.293007 0.119791
v -0.731890 -0.293007 0.119791
v -0.731890 -0.228281 0.119791
v -0.672119 0.230731 0.000000
v -0.726934 0.230731 0.000000
v -0.672119 0.285547 0.000000
v -0.726934 0.285547 0.000000
v -0.667164 0.290502 0.119791
v -0.667164 0.225776 0.119791
v -0.731890 0.225776 0.119791
v -0.731890 0.290502 0.119791
v 0.672119 -0.288052 0.000000
v 0.726934 -0.288052 0.000000
v 0.672119 -0.233236 0.000000
v 0.726934 -0.233236 0.000000
v 0.667164 -0.228281 0.119791
v 0.667164 -0.293007 0.119791
v 0.731890 -0.293007 0.119791
v 0.731890 -0.228281 0.119791
v 0.672119 0.230731 0.000000
v 0.726934 0.230731 0.000000
v 0.672119 0.285547 0.000000
v 0.726934 0.285547 0.000000
v 0.667164 0.290502 0.119791
v 0.667164 0.225776 0.119791
v 0.731890 0.225776 0.119791
v 0.731890 0.290502 0.119791
v -0.717238 -0.347022 0.267872
v -0.775597 -0.288664 0.267872
v -0.758504 -0.329930 0.267872
v -0.775597 0.288664 0.267872
v -0.717238 0.347022 0.267872
v -0.758504 0.329930 0.267872
v 0.775597 -0.288664 0.267872
v 0.717238 -0.347022 0.267872
v 0.758504 -0.329930 0.267872
v 0.717238 0.347022 0.267872
v 0.775597 0.288664 0.267872
v 0.758504 0.329930 0.267872
v -0.775597 0.227933 0.420961
v -0.661220 0.183523 0.479320
v -0.758504 0.236141 0.462227
v -0.775597 0.288664 0.360231
v -0.717238 0.347022 0.371839
v -0.758504 0.329930 0.368439
v -0.775597 0.270876 0.403174
v -0.717238 0.315542 0.447840
v -0.758504 0.302460 0.434757
v -0.775597 -0.288664 0.360231
v -0.717238 -0.347022 0.371839
v -0.758504 -0.329930 0.368439
v -0.775597 -0.227933 0.420961
v -0.661220 -0.183523 0.479320
v -0.758504 -0.236141 0.462227
v -0.775597 -0.270876 0.403174
v -0.717238 -0.315542 0.447840
v -0.758504 -0.302460 0.434757
v 0.775597 0.288664 0.360231
v 0.717238 0.347022 0.371839
v 0.758504 0.329930 0.368439
v 0.775597 0.227933 0.420961
v 0.661220 0.183523 0.479320
v 0.758504 0.236141 0.462227
v 0.775597 0.270876 0.403174
v 0.717238 0.315542 0.447840
v 0.758504 0.302460 0.434757
v 0.775597 -0.227933 0.420961
v 0.661220 -0.183523 0.479320
v 0.758504 -0.236141 0.462227
v 0.775597 -0.288664 0.360231
v 0.717238 -0.347022 0.371839
v 0.758504 -0.329930 0.368439
v 0.775597 -0.270876 0.403174
v 0.717238 -0.315542 0.447840
v 0.758504 -0.302460 0.434757
v -0.816062 -0.334783 0.267872
v -0.775844 -0.375000 0.267872
v -0.775844 0.375000 0.267872
v -0.816062 0.334782 0.267872
v -0.741925 -0.341080 0.083526
v -0.782142 -0.300863 0.083526
v -0.782142 0.300863 0.083526
v -0.741925 0.341080 0.083526
v 0.775844 -0.375000 0.267872
v 0.816062 -0.334783 0.267872
v 0.816062 0.334782 0.267872
v 0.775844 0.375000 0.267872
v 0.782142 -0.300863 0.083526
v 0.741925 -0.341080 0.083526
v 0.741925 0.341080 0.083526
v 0.782142 0.300863 0.083526
v -0.717238 -0.239541 0.479320
v -0.717238 0.239541 0.479320
v 0.717238 0.239541 0.479320
v 0.717238 -0.239541 0.479320
v -0.661220 0.000000 0.479320
v 0.661220 0.000000 0.479320
v 0.638653 0.000000 0.473362
v -0.638653 0.156102 0.473362
v -0.638653 0.000000 0.473362
v 0.638653 -0.156102 0.473362
v -0.638653 -0.156102 0.473362
v 0.638653 0.156102 0.473362
v 0.313995 0.183523 0.479320
v 0.386005 0.183523 0.479320
v 0.386005 -0.183523 0.479320
v 0.313995 -0.183523 0.479320
v 0.313995 0.000000 0.479320
v 0.386005 0.000000 0.479320
v 0.408571 0.000000 0.473362
v 0.408571 0.156102 0.473362
v 0.291429 0.156102 0.473362
v 0.291429 0.000000 0.473362
v 0.408571 -0.156102 0.473362
v 0.291429 -0.156102 0.473362
v -0.386005 0.183523 0.479320
v -0.313995 0.183523 0.479320
v -0.313995 -0.183523 0.479320
v -0.386005 -0.183523 0.479320
v -0.386005 0.000000 0.479320
v -0.313995 0.000000 0.479320
v -0.291429 0.000000 0.473362
v -0.291429 0.156102 0.473362
v -0.408571 0.156102 0.473362
v -0.408571 0.000000 0.473362
v -0.291429 -0.156102 0.473362
v -0.408571 -0.156102 0.473362
v -0.058571 -0.156102 0.473362
v 0.058571 -0.156102 0.473362
v -0.058571 0.000000 0.473362
v -0.058571 0.156102 0.473362
v 0.058571 0.156102 0.473362
v 0.058571 0.000000 0.473362
v 0.036005 0.000000 0.479320
v -0.036005 0.000000 0.479320
v -0.036005 -0.183523 0.479320
v 0.036005 -0.183523 0.479320
v 0.036005 0.183523 0.479320
v -0.036005 0.183523 0.479320
vn -0.0000 -0.9835 -0.1810
vn -0.0000 -0.0000 -1.0000
vn 0.9835 -0.0000 -0.1810
vn -0.0000 0.9835 -0.1810
vn -0.1938 0.9622 0.1914
vn 0.1994 0.6929 0.6929
vn 0.1938 0.9622 0.1914
vn -0.1951 0.9808 -0.0000
vn -0.1994 0.6929 0.6929
vn 0.1938 0.1914 0.9622
vn -0.9991 -0.0000 -0.0413
vn 0.9991 -0.0000 -0.0413
vn -0.0000 0.9991 -0.0413
vn -0.0000 -0.9991 -0.0413
vn 0.1938 -0.9622 0.1914
vn -0.1951 -0.9808 -0.0000
vn 0.1951 -0.9808 -0.0000
vn -0.9835 -0.0000 -0.1810
vn -0.1994 -0.6929 0.6929
vn 0.1994 -0.6929 0.6929
vn -0.1938 -0.1914 0.9622
vn 0.1938 -0.1914 0.9622
vn 0.9767 0.2105 0.0419
vn 0.9744 0.1590 0.1590
vn 0.9767 0.0419 0.2105
vn 0.6889 0.7109 0.1414
vn 0.6824 0.5169 0.5169
vn -0.9744 0.1590 0.1590
vn -0.6889 0.7109 0.1414
vn -0.9767 0.2105 0.0419
vn -0.6824 0.5169 0.5169
vn 0.6889 0.1414 0.7109
vn -0.6889 0.1414 0.7109
vn -0.1938 0.1914 0.9622
vn 0.9744 -0.1590 0.1590
vn 0.6889 -0.1414 0.7110
vn 0.6824 -0.5169 0.5169
vn -0.9744 -0.1590 0.1590
vn -0.6889 -0.1414 0.7109
vn -0.9767 -0.0419 0.2105
vn -0.6824 -0.5169 0.5169
vn 0.6889 -0.7109 0.1414
vn 0.9767 -0.2105 0.0419
vn -0.6889 -0.7109 0.1414
vn -0.1938 -0.9622 0.1914
vn -0.7071 0.7071 -0.0000
vn -0.9808 0.1951 -0.0000
vn 0.7071 0.7071 -0.0000
vn 0.1951 0.9808 -0.0000
vn -0.7071 -0.7071 -0.0000
vn -0.9767 -0.2105 0.0419
vn -0.9808 -0.1951 -0.0000
vn 0.9767 -0.0419 0.2105
vn 0.7071 -0.7071 -0.0000
vn 0.9808 -0.1951 -0.0000
vn -0.9767 0.0419 0.2105
vn -0.6843 -0.6843 -0.2518
vn -0.6843 0.6843 -0.2518
vn 0.6843 -0.6843 -0.2518
vn 0.6843 0.6843 -0.2518
vn -0.0000 -0.0000 1.0000
vn 0.1287 -0.0000 0.9917
vn -0.1287 -0.0000 0.9917
vn 0.1007 -0.0773 0.9919
vn 0.0287 -0.0302 0.9991
vn -0.1007 -0.0773 0.9919
vn -0.0287 -0.0302 0.9991
vn -0.0287 0.0302 0.9991
vn 0.1007 0.0773 0.9919
vn 0.0287 0.0302 0.9991
vn -0.1007 0.0773 0.9919
vn 0.2553 -0.0000 0.9669
vn 0.0797 -0.0000 0.9968
vn -0.0797 -0.0000 0.9968
vn -0.2553 -0.0000 0.9669
vn 0.9808 0.1951 -0.0000
vt 0.133389 0.948087
vt 0.126771 0.957828
vt 0.133389 0.948087
vt 0.133389 0.948925
vt 0.133389 0.962306
vt 0.133389 0.961468
vt 0.126771 0.958666
vt 0.126771 0.973461
vt 0.126771 0.973461
vt 0.041243 0.871838
vt 0.041243 0.871838
vt 0.056601 0.864791
vt 0.029998 0.891393
vt 0.029998 0.864791
vt 0.056601 0.891393
vt 0.126771 0.972623
vt 0.133845 0.971476
vt 0.133845 0.957519
vt 0.133845 0.956681
vt 0.133389 0.962306
vt 0.133845 0.972314
s 0
usemtl Palette
f 94/1/1 82/2/1 85/3/1
f 85/3/2 86/4/2 88/5/2
f 96/6/3 90/7/3 93/4/3
f 92/8/4 88/5/4 83/9/4
s 5
f 49/10/5 70/10/6 64/11/7
f 64/11/7 37/10/8 49/10/5
f 52/10/9 99/10/10 70/10/6
s 0
f 2/12/2 3/13/2 1/14/2
f 10/12/2 11/13/2 9/14/2
f 7/12/11 4/15/11 2/12/11
f 5/13/12 1/14/12 3/13/12
f 4/15/13 5/13/13 3/13/13
f 6/14/14 2/12/14 1/14/14
f 15/12/11 12/15/11 10/12/11
f 13/13/12 9/14/12 11/13/12
f 12/15/13 13/13/13 11/13/13
f 14/14/14 10/12/14 9/14/14
f 19/13/2 18/12/2 17/14/2
f 27/13/2 26/12/2 25/14/2
f 20/15/12 23/12/12 18/12/12
f 17/14/11 21/13/11 19/13/11
f 20/15/13 21/13/13 24/15/13
f 18/12/14 22/14/14 17/14/14
f 28/15/12 31/12/12 26/12/12
f 25/14/11 29/13/11 27/13/11
f 28/15/13 29/13/13 32/15/13
f 26/12/14 30/14/14 25/14/14
s 5
f 76/11/15 33/11/16 40/10/17
s 0
f 86/4/18 84/16/18 87/6/18
s 5
f 61/10/19 76/11/15 79/11/20
f 97/10/21 79/11/20 100/11/22
f 63/10/23 69/11/24 66/10/25
f 69/11/24 65/10/26 71/10/27
f 71/10/27 64/11/7 70/10/6
f 51/10/28 50/10/29 48/11/30
f 53/10/31 49/10/5 50/10/29
f 69/11/24 68/10/32 66/10/25
f 71/10/27 99/10/10 68/10/32
f 51/10/28 47/10/33 53/10/31
f 53/10/31 98/11/34 52/10/9
f 78/11/35 74/10/36 80/10/37
f 80/10/37 100/11/22 79/11/20
f 60/11/38 59/10/39 57/11/40
f 62/10/41 97/10/21 59/10/39
f 78/11/35 77/10/42 75/10/43
f 80/10/37 76/11/15 77/10/42
f 60/11/38 56/10/44 62/10/41
f 62/10/41 55/11/45 61/10/19
f 48/11/30 38/10/46 36/10/47
f 50/10/29 37/10/8 38/10/46
f 63/10/23 44/10/48 65/10/26
f 65/10/26 42/11/49 64/11/7
f 33/11/16 56/10/44 35/10/50
f 35/10/50 54/11/51 34/10/52
f 98/11/34 59/10/39 97/10/21
f 47/10/33 57/11/40 59/10/39
f 66/10/25 74/10/36 72/11/53
f 74/10/36 99/10/10 100/11/22
f 75/10/43 41/10/54 39/10/55
f 77/10/42 40/10/17 41/10/54
f 36/10/47 34/10/52 45/11/56
s 0
f 86/4/57 82/2/57 81/7/57
f 83/9/58 87/6/58 84/16/58
f 94/1/59 90/7/59 89/2/59
f 96/6/60 92/8/60 91/16/60
f 84/17/61 81/18/61 82/19/61
s 5
f 101/10/62 98/11/34 97/10/21
f 102/10/63 100/11/22 99/10/10
f 101/10/62 104/10/64 46/10/65
f 46/10/65 108/10/66 67/10/67
f 73/10/68 107/10/69 58/10/70
f 58/10/70 100/11/22 73/10/68
f 67/10/67 98/11/34 46/10/65
f 106/10/71 105/10/62 107/10/69
f 102/10/63 106/10/71 73/10/68
f 101/10/62 107/10/69 105/10/62
f 103/10/63 104/10/64 105/10/62
f 102/10/63 108/10/66 103/10/63
s 32
f 114/10/62 116/10/72 110/10/73
f 110/10/73 113/10/63 114/10/62
f 114/10/62 112/10/74 111/10/73
f 114/10/62 119/10/72 115/10/72
f 113/10/63 120/10/75 112/10/74
f 113/10/63 117/10/75 118/10/75
s 33
f 126/10/62 128/10/72 122/10/73
f 122/10/73 125/10/63 126/10/62
f 126/10/62 124/10/74 123/10/73
f 126/10/62 131/10/72 127/10/72
f 125/10/63 132/10/75 124/10/74
f 125/10/63 129/10/75 130/10/75
s 34
f 139/10/62 134/10/72 138/10/72
f 140/10/63 136/10/75 135/10/75
f 139/10/62 141/10/74 142/10/73
f 143/10/73 140/10/63 139/10/62
f 139/10/62 137/10/72 143/10/73
f 140/10/63 133/10/75 141/10/74
s 0
f 94/1/1 89/2/1 82/2/1
f 86/4/2 87/6/2 88/5/2
f 88/5/2 95/20/2 94/1/2
f 95/20/2 96/6/2 94/1/2
f 96/6/2 93/4/2 94/1/2
f 94/1/2 85/3/2 88/5/2
f 96/6/3 91/16/3 90/7/3
f 92/8/4 95/20/4 88/5/4
s 5
f 49/10/5 52/10/9 70/10/6
f 64/11/7 42/11/49 37/10/8
f 52/10/9 98/11/34 99/10/10
s 0
f 2/12/2 4/15/2 3/13/2
f 10/12/2 12/15/2 11/13/2
f 7/12/11 8/15/11 4/15/11
f 5/13/12 6/14/12 1/14/12
f 4/15/13 8/15/13 5/13/13
f 6/14/14 7/12/14 2/12/14
f 15/12/11 16/15/11 12/15/11
f 13/13/12 14/14/12 9/14/12
f 12/15/13 16/15/13 13/13/13
f 14/14/14 15/12/14 10/12/14
f 19/13/2 20/15/2 18/12/2
f 27/13/2 28/15/2 26/12/2
f 20/15/12 24/15/12 23/12/12
f 17/14/11 22/14/11 21/13/11
f 20/15/13 19/13/13 21/13/13
f 18/12/14 23/12/14 22/14/14
f 28/15/12 32/15/12 31/12/12
f 25/14/11 30/14/11 29/13/11
f 28/15/13 27/13/13 29/13/13
f 26/12/14 31/12/14 30/14/14
s 5
f 76/11/15 55/11/45 33/11/16
s 0
f 86/4/18 81/7/18 84/16/18
s 5
f 61/10/19 55/11/45 76/11/15
f 97/10/21 61/10/19 79/11/20
f 66/10/25 72/11/53 39/10/55
f 72/11/53 78/11/35 75/10/43
f 39/10/55 72/11/53 75/10/43
f 39/10/55 43/10/76 66/10/25
f 43/10/76 63/10/23 66/10/25
f 69/11/24 63/10/23 65/10/26
f 71/10/27 65/10/26 64/11/7
f 51/10/28 53/10/31 50/10/29
f 53/10/31 52/10/9 49/10/5
f 69/11/24 71/10/27 68/10/32
f 71/10/27 70/10/6 99/10/10
f 51/10/28 45/11/56 47/10/33
f 53/10/31 47/10/33 98/11/34
f 78/11/35 72/11/53 74/10/36
f 80/10/37 74/10/36 100/11/22
f 60/11/38 62/10/41 59/10/39
f 62/10/41 61/10/19 97/10/21
f 78/11/35 80/10/37 77/10/42
f 80/10/37 79/11/20 76/11/15
f 60/11/38 54/11/51 56/10/44
f 62/10/41 56/10/44 55/11/45
f 48/11/30 50/10/29 38/10/46
f 50/10/29 49/10/5 37/10/8
f 63/10/23 43/10/76 44/10/48
f 65/10/26 44/10/48 42/11/49
f 33/11/16 55/11/45 56/10/44
f 35/10/50 56/10/44 54/11/51
f 98/11/34 47/10/33 59/10/39
f 47/10/33 45/11/56 57/11/40
f 66/10/25 68/10/32 74/10/36
f 74/10/36 68/10/32 99/10/10
f 75/10/43 77/10/42 41/10/54
f 77/10/42 76/11/15 40/10/17
f 34/10/52 54/11/51 57/11/40
f 54/11/51 60/11/38 57/11/40
f 57/11/40 45/11/56 34/10/52
f 45/11/56 51/10/28 48/11/30
f 48/11/30 36/10/47 45/11/56
s 0
f 86/4/57 85/3/57 82/2/57
f 83/9/58 88/5/58 87/6/58
f 94/1/59 93/4/59 90/7/59
f 96/6/60 95/20/60 92/8/60
f 82/19/61 89/19/61 92/21/61
f 89/19/61 90/18/61 92/21/61
f 90/18/61 91/17/61 92/21/61
f 92/21/61 83/21/61 82/19/61
f 83/21/61 84/17/61 82/19/61
s 5
f 97/10/21 58/10/70 101/10/62
f 101/10/62 46/10/65 98/11/34
f 99/10/10 67/10/67 102/10/63
f 102/10/63 73/10/68 100/11/22
f 101/10/62 105/10/62 104/10/64
f 46/10/65 104/10/64 108/10/66
f 73/10/68 106/10/71 107/10/69
f 58/10/70 97/10/21 100/11/22
f 67/10/67 99/10/10 98/11/34
f 106/10/71 103/10/63 105/10/62
f 102/10/63 103/10/63 106/10/71
f 101/10/62 58/10/70 107/10/69
f 103/10/63 108/10/66 104/10/64
f 102/10/63 67/10/67 108/10/66
s 32
f 114/10/62 115/10/72 116/10/72
f 110/10/73 109/10/74 113/10/63
f 114/10/62 113/10/63 112/10/74
f 114/10/62 111/10/73 119/10/72
f 113/10/63 118/10/75 120/10/75
f 113/10/63 109/10/74 117/10/75
s 33
f 126/10/62 127/10/72 128/10/72
f 122/10/73 121/10/74 125/10/63
f 126/10/62 125/10/63 124/10/74
f 126/10/62 123/10/73 131/10/72
f 125/10/63 130/10/75 132/10/75
f 125/10/63 121/10/74 129/10/75
s 34
f 139/10/62 142/10/73 134/10/72
f 140/10/63 144/10/74 136/10/75
f 139/10/62 140/10/63 141/10/74
f 143/10/73 144/10/74 140/10/63
f 139/10/62 138/10/72 137/10/72
f 140/10/63 135/10/75 133/10/75
