# Blender 5.0.1
# www.blender.org
mtllib Sticky_Note.mtl
o Sticky_Note
v -0.029934 -0.012734 -0.049486
v -0.058224 0.011875 -0.049486
v 0.051637 0.011875 -0.049486
v 0.028692 -0.012734 -0.049486
v 0.051637 -0.012734 -0.018249
v -0.058224 0.011875 0.065931
v 0.051637 0.011875 0.065931
v -0.058224 -0.014587 0.065931
v -0.058224 -0.016620 -0.049486
v 0.051637 -0.012734 0.065931
v 0.051637 -0.020111 -0.042060
v -0.047761 -0.012734 0.065931
v -0.058224 -0.012734 0.048184
v 0.051924 -0.003795 -0.046205
v 0.039221 -0.002635 -0.045811
v 0.036108 -0.002633 -0.049486
v 0.051924 -0.007533 -0.044042
v 0.051637 -0.005045 -0.028009
v -0.058224 -0.012734 -0.023714
v -0.058224 0.001181 -0.049486
v 0.042030 -0.000079 -0.049486
v 0.049285 -0.005258 -0.042798
vn -0.0000 -1.0000 -0.0000
vn -0.0000 -0.0000 1.0000
vn -0.0000 1.0000 -0.0000
vn 1.0000 -0.0000 -0.0000
vn 0.2421 -0.1945 -0.9506
vn -0.3737 -0.8860 0.2745
vn -1.0000 -0.0000 -0.0000
vn 0.1346 -0.9798 0.1477
vn -0.0000 -0.0000 -1.0000
vn 0.9999 -0.0087 0.0094
vn 0.1735 -0.9795 -0.1023
vn 0.2610 -0.1717 -0.9499
vn 0.9996 0.0219 0.0173
vn 0.0404 0.9986 -0.0337
vn 0.3769 0.8264 -0.4183
vn 0.6566 0.7537 0.0298
vn 0.4983 0.8563 -0.1361
vn 0.5977 0.7606 -0.2535
vn -0.0930 -0.8335 -0.5446
vn -0.0103 -0.8171 -0.5764
vn 0.5873 -0.8031 0.1010
vn 0.2751 -0.9305 -0.2420
vn 0.1975 -0.9783 -0.0625
vn 0.3769 0.8265 -0.4183
vn -0.0931 -0.8335 -0.5446
vt 0.438431 0.877152
vt 0.438431 0.858713
vt 0.471810 0.860115
vt 0.441610 0.881704
vt 0.471810 0.881704
vt 0.438431 0.852104
vt 0.471810 0.852104
vt 0.471810 0.857612
vt 0.468891 0.852104
vt 0.464838 0.852104
vt 0.438431 0.881704
vt 0.447026 0.852104
vt 0.438431 0.852104
vt 0.467092 0.852104
vt 0.467281 0.852104
vt 0.471810 0.852036
vt 0.471810 0.851907
vt 0.468717 0.852104
vt 0.438415 0.852104
s 0
usemtl Palette
f 13/1/1 19/2/1 5/3/1
f 12/4/2 10/5/2 7/5/2
f 2/6/3 7/5/3 3/7/3
f 18/8/4 7/5/4 5/3/4
f 3/7/5 14/7/5 21/9/5
f 11/7/6 5/3/6 4/10/6
f 13/1/7 8/11/7 6/11/7
f 19/2/8 9/6/8 1/12/8
f 1/12/9 20/13/9 16/14/9
f 11/7/10 18/8/10 5/3/10
f 12/4/11 8/11/11 13/1/11
f 17/7/12 4/10/12 16/14/12
f 20/13/7 9/6/7 19/2/7
f 2/6/9 21/9/9 20/13/9
f 14/7/13 3/7/13 18/8/13
f 15/15/14 16/14/14 20/13/14
f 17/7/15 15/15/15 22/16/15
f 22/16/16 18/8/17 17/7/18
f 21/9/19 22/17/19 15/18/19
f 20/19/20 21/9/20 15/18/20
f 22/17/21 14/7/22 18/8/23
f 4/10/1 5/3/1 1/12/1
f 5/3/1 10/5/1 13/1/1
f 1/12/1 5/3/1 19/2/1
f 10/5/1 12/4/1 13/1/1
f 7/5/2 6/11/2 12/4/2
f 6/11/2 8/11/2 12/4/2
f 2/6/3 6/11/3 7/5/3
f 3/7/4 7/5/4 18/8/4
f 7/5/4 10/5/4 5/3/4
f 6/11/7 2/6/7 19/2/7
f 2/6/7 20/13/7 19/2/7
f 19/2/7 13/1/7 6/11/7
f 16/14/9 4/10/9 1/12/9
f 1/12/9 9/6/9 20/13/9
f 11/7/10 17/7/10 18/8/10
f 17/7/12 11/7/12 4/10/12
f 2/6/9 3/7/9 21/9/9
f 17/7/24 16/14/24 15/15/24
f 21/9/19 14/7/25 22/17/25
