# Blender 5.0.1
# www.blender.org
mtllib Stool.mtl
o Stool.003
v -0.073622 0.177740 0.718177
v -0.000000 0.192385 0.718177
v -0.136037 0.136037 0.718177
v -0.177740 0.073622 0.718177
v -0.192385 -0.000000 0.718177
v -0.177740 -0.073622 0.718177
v -0.136037 -0.136037 0.718177
v -0.073622 -0.177740 0.718177
v 0.000000 -0.192385 0.718177
v 0.073622 -0.177740 0.718177
v 0.136037 -0.136037 0.718177
v 0.177740 -0.073622 0.718177
v 0.192385 0.000000 0.718177
v 0.177740 0.073622 0.718177
v 0.136037 0.136037 0.718177
v 0.073622 0.177740 0.718177
v -0.000000 0.185308 0.757014
v -0.000000 0.194683 0.747697
v -0.074502 0.179864 0.747697
v -0.070914 0.171202 0.757014
v -0.137662 0.137662 0.747697
v -0.131032 0.131032 0.757014
v -0.179864 0.074502 0.747697
v -0.171202 0.070914 0.757014
v -0.194683 -0.000000 0.747697
v -0.185308 -0.000000 0.757014
v -0.179864 -0.074502 0.747697
v -0.171202 -0.070914 0.757014
v -0.137662 -0.137662 0.747697
v -0.131032 -0.131032 0.757014
v -0.074502 -0.179864 0.747697
v -0.070914 -0.171202 0.757014
v 0.000000 -0.194683 0.747697
v 0.000000 -0.185308 0.757014
v 0.074502 -0.179864 0.747697
v 0.070914 -0.171202 0.757014
v 0.137662 -0.137662 0.747697
v 0.131032 -0.131032 0.757014
v 0.179864 -0.074502 0.747697
v 0.171202 -0.070914 0.757014
v 0.194683 0.000000 0.747697
v 0.185308 -0.000000 0.757014
v 0.179864 0.074502 0.747697
v 0.171202 0.070914 0.757014
v 0.137662 0.137662 0.747697
v 0.131032 0.131032 0.757014
v 0.074502 0.179864 0.747697
v 0.070914 0.171202 0.757014
v 0.066494 -0.102065 0.728937
v 0.107600 -0.102065 0.728937
v 0.066494 -0.060959 0.728937
v 0.107600 -0.060959 0.728937
v 0.138144 -0.088064 0.000000
v 0.097038 -0.088064 0.000000
v 0.138144 -0.129170 0.000000
v 0.097038 -0.129170 0.000000
v -0.066494 -0.102065 0.728937
v -0.107600 -0.102065 0.728937
v -0.066494 -0.060959 0.728937
v -0.107600 -0.060959 0.728937
v -0.138144 -0.088064 0.000000
v -0.097038 -0.088064 0.000000
v -0.138144 -0.129170 0.000000
v -0.097038 -0.129170 0.000000
v 0.066494 0.102065 0.728937
v 0.107600 0.102065 0.728937
v 0.066494 0.060959 0.728937
v 0.107600 0.060959 0.728937
v 0.138144 0.088064 0.000000
v 0.097038 0.088064 0.000000
v 0.138144 0.129170 0.000000
v 0.097038 0.129170 0.000000
v -0.066494 0.102065 0.728937
v -0.107600 0.102065 0.728937
v -0.066494 0.060959 0.728937
v -0.107600 0.060959 0.728937
v -0.138144 0.088064 0.000000
v -0.097038 0.088064 0.000000
v -0.138144 0.129170 0.000000
v -0.097038 0.129170 0.000000
vn 0.2755 0.6651 -0.6941
vn -0.0000 0.9433 0.3321
vn 0.3610 0.8715 0.3320
vn 0.2755 -0.6651 -0.6940
vn -0.6651 -0.2755 -0.6940
vn -0.2755 0.6651 -0.6941
vn -0.6670 -0.6670 0.3320
vn -0.8715 -0.3610 0.3321
vn 0.6651 0.2755 -0.6940
vn 0.6670 0.6670 0.3321
vn 0.8715 0.3610 0.3320
vn -0.5091 -0.5091 -0.6941
vn -0.3610 -0.8715 0.3320
vn 0.5091 0.5091 -0.6941
vn -0.2755 -0.6651 -0.6940
vn -0.0000 -0.9433 0.3320
vn -0.0000 -0.7199 -0.6941
vn 0.3610 -0.8715 0.3320
vn 0.3884 0.1609 0.9073
vn 0.1609 0.3885 0.9073
vn -0.1609 -0.3885 0.9073
vn -0.6670 0.6670 0.3321
vn -0.3610 0.8715 0.3320
vn 0.6670 -0.6670 0.3321
vn -0.5091 0.5091 -0.6941
vn -0.8715 0.3610 0.3321
vn 0.5091 -0.5091 -0.6941
vn 0.8715 -0.3610 0.3320
vn -0.7199 -0.0000 -0.6941
vn -0.9433 -0.0000 0.3320
vn 0.6651 -0.2755 -0.6941
vn 0.9433 -0.0000 0.3320
vn 0.7199 -0.0000 -0.6941
vn -0.0000 0.4204 0.9073
vn -0.1609 0.3884 0.9073
vn -0.2973 0.2973 0.9073
vn -0.3884 0.1609 0.9073
vn -0.4204 -0.0000 0.9073
vn -0.3884 -0.1609 0.9073
vn -0.2973 -0.2973 0.9073
vn -0.0000 -0.4204 0.9073
vn 0.1609 -0.3885 0.9073
vn 0.2973 -0.2973 0.9073
vn 0.3885 -0.1609 0.9073
vn 0.4204 -0.0000 0.9073
vn 0.2973 0.2973 0.9073
vn -0.0000 -0.0000 -1.0000
vn -0.0000 0.9993 -0.0372
vn -0.0000 -0.9993 0.0372
vn 0.9991 -0.0000 0.0419
vn -0.9991 -0.0000 -0.0419
vn -0.9991 -0.0000 0.0419
vn 0.9991 -0.0000 -0.0419
vn -0.0000 -0.9993 -0.0372
vn -0.0000 0.9993 0.0372
vn -0.0000 0.7199 -0.6940
vn -0.6651 0.2755 -0.6940
vt 0.304412 0.981344
vt 0.294845 0.983247
vt 0.304412 0.935150
vt 0.271748 0.948680
vt 0.285278 0.981344
vt 0.277167 0.940570
vt 0.317942 0.967815
vt 0.312523 0.975925
vt 0.317942 0.967815
vt 0.277167 0.940570
vt 0.285278 0.935151
vt 0.285278 0.935150
vt 0.294845 0.933247
vt 0.304412 0.935151
vt 0.316748 0.967320
vt 0.303917 0.980150
vt 0.285773 0.936345
vt 0.277167 0.975925
vt 0.285278 0.981344
vt 0.312523 0.940570
vt 0.271748 0.967814
vt 0.317942 0.948680
vt 0.269845 0.958247
vt 0.319845 0.958247
vt 0.294845 0.981955
vt 0.285773 0.980151
vt 0.278081 0.975012
vt 0.272942 0.967320
vt 0.271138 0.958248
vt 0.272942 0.949175
vt 0.278081 0.941484
vt 0.294845 0.934540
vt 0.303918 0.936344
vt 0.311609 0.941483
vt 0.316748 0.949175
vt 0.318553 0.958247
vt 0.311609 0.975011
vt 0.529672 0.974294
vt 0.555482 0.948484
vt 0.529672 0.948484
vt 0.555482 0.974294
vt 0.271748 0.967815
s 1
usemtl Palette
f 16/1/1 18/2/2 47/1/3
f 10/3/4 6/4/5 1/5/6
f 6/4/5 29/6/7 27/4/8
f 14/7/9 45/8/10 43/9/11
f 7/10/12 31/11/13 29/6/7
f 15/8/14 47/1/3 45/8/10
f 8/12/15 33/13/16 31/11/13
f 9/13/17 35/14/18 33/13/16
f 44/15/19 48/16/20 32/17/21
f 1/5/6 21/18/22 19/19/23
f 10/3/4 37/20/24 35/14/18
f 3/18/25 23/21/26 21/18/22
f 11/20/27 39/22/28 37/20/24
f 23/21/26 5/23/29 25/23/30
f 12/22/31 41/24/32 39/22/28
f 5/23/29 27/4/8 25/23/30
f 13/24/33 43/9/11 41/24/32
f 17/25/34 19/19/23 20/26/35
f 22/27/36 19/19/23 21/18/22
f 22/27/36 23/21/26 24/28/37
f 24/28/37 25/23/30 26/29/38
f 28/30/39 25/23/30 27/4/8
f 28/30/39 29/6/7 30/31/40
f 30/31/40 31/11/13 32/17/21
f 32/17/21 33/13/16 34/32/41
f 36/33/42 33/13/16 35/14/18
f 38/34/43 35/14/18 37/20/24
f 38/34/43 39/22/28 40/35/44
f 40/35/44 41/24/32 42/36/45
f 44/15/19 41/24/32 43/9/11
f 46/37/46 43/9/11 45/8/10
f 46/37/46 47/1/3 48/16/20
f 48/16/20 18/2/2 17/25/34
f 18/2/2 1/5/6 19/19/23
s 0
f 54/38/47 55/39/47 56/40/47
f 54/38/48 52/41/48 53/41/48
f 56/40/49 50/39/49 49/40/49
f 53/41/50 50/39/50 55/39/50
f 54/38/51 49/40/51 51/38/51
f 63/39/47 62/38/47 64/40/47
f 60/41/48 62/38/48 61/41/48
f 64/40/49 58/39/49 63/39/49
f 58/39/52 61/41/52 63/39/52
f 62/38/53 57/40/53 64/40/53
f 71/39/47 70/38/47 72/40/47
f 68/41/54 70/38/54 69/41/54
f 72/40/55 66/39/55 71/39/55
f 66/39/50 69/41/50 71/39/50
f 70/38/51 65/40/51 72/40/51
f 78/38/47 79/39/47 80/40/47
f 78/38/54 76/41/54 77/41/54
f 80/40/55 74/39/55 73/40/55
f 77/41/52 74/39/52 79/39/52
f 78/38/53 73/40/53 75/38/53
s 1
f 16/1/1 2/2/56 18/2/2
f 1/5/6 2/2/56 14/7/9
f 2/2/56 16/1/1 14/7/9
f 16/1/1 15/8/14 14/7/9
f 14/7/9 13/24/33 12/22/31
f 12/22/31 11/20/27 10/3/4
f 10/3/4 9/13/17 8/12/15
f 8/12/15 7/10/12 6/4/5
f 6/4/5 5/23/29 4/42/57
f 4/42/57 3/18/25 1/5/6
f 14/7/9 12/22/31 1/5/6
f 12/22/31 10/3/4 1/5/6
f 10/3/4 8/12/15 6/4/5
f 6/4/5 4/42/57 1/5/6
f 6/4/5 7/10/12 29/6/7
f 14/7/9 15/8/14 45/8/10
f 7/10/12 8/12/15 31/11/13
f 15/8/14 16/1/1 47/1/3
f 8/12/15 9/13/17 33/13/16
f 9/13/17 10/3/4 35/14/18
f 48/16/20 17/25/34 20/26/35
f 20/26/35 22/27/36 48/16/20
f 22/27/36 24/28/37 48/16/20
f 24/28/37 26/29/38 28/30/39
f 28/30/39 30/31/40 32/17/21
f 32/17/21 34/32/41 36/33/42
f 36/33/42 38/34/43 40/35/44
f 40/35/44 42/36/45 44/15/19
f 44/15/19 46/37/46 48/16/20
f 24/28/37 28/30/39 48/16/20
f 28/30/39 32/17/21 48/16/20
f 32/17/21 36/33/42 40/35/44
f 40/35/44 44/15/19 32/17/21
f 1/5/6 3/18/25 21/18/22
f 10/3/4 11/20/27 37/20/24
f 3/18/25 4/42/57 23/21/26
f 11/20/27 12/22/31 39/22/28
f 23/21/26 4/42/57 5/23/29
f 12/22/31 13/24/33 41/24/32
f 5/23/29 6/4/5 27/4/8
f 13/24/33 14/7/9 43/9/11
f 17/25/34 18/2/2 19/19/23
f 22/27/36 20/26/35 19/19/23
f 22/27/36 21/18/22 23/21/26
f 24/28/37 23/21/26 25/23/30
f 28/30/39 26/29/38 25/23/30
f 28/30/39 27/4/8 29/6/7
f 30/31/40 29/6/7 31/11/13
f 32/17/21 31/11/13 33/13/16
f 36/33/42 34/32/41 33/13/16
f 38/34/43 36/33/42 35/14/18
f 38/34/43 37/20/24 39/22/28
f 40/35/44 39/22/28 41/24/32
f 44/15/19 42/36/45 41/24/32
f 46/37/46 44/15/19 43/9/11
f 46/37/46 45/8/10 47/1/3
f 48/16/20 47/1/3 18/2/2
f 18/2/2 2/2/56 1/5/6
s 0
f 54/38/47 53/41/47 55/39/47
f 54/38/48 51/38/48 52/41/48
f 56/40/49 55/39/49 50/39/49
f 53/41/50 52/41/50 50/39/50
f 54/38/51 56/40/51 49/40/51
f 63/39/47 61/41/47 62/38/47
f 60/41/48 59/38/48 62/38/48
f 64/40/49 57/40/49 58/39/49
f 58/39/52 60/41/52 61/41/52
f 62/38/53 59/38/53 57/40/53
f 71/39/47 69/41/47 70/38/47
f 68/41/54 67/38/54 70/38/54
f 72/40/55 65/40/55 66/39/55
f 66/39/50 68/41/50 69/41/50
f 70/38/51 67/38/51 65/40/51
f 78/38/47 77/41/47 79/39/47
f 78/38/54 75/38/54 76/41/54
f 80/40/55 79/39/55 74/39/55
f 77/41/52 76/41/52 74/39/52
f 78/38/53 80/40/53 73/40/53
