# Blender 5.0.1
# www.blender.org
mtllib Table.mtl
o Table.002
v 0.924025 -0.375000 0.983732
v 0.901065 -0.349636 0.946654
v -0.924026 -0.375000 0.983732
v -0.901067 -0.349636 0.946654
v 0.924025 0.375000 0.983732
v 0.901065 0.349635 0.946654
v 0.103181 0.107584 0.026168
v 0.103181 -0.107584 0.026168
v -0.103181 0.107584 0.026168
v -0.103181 -0.107584 0.026168
v 0.124692 -0.130013 -0.000000
v -0.124693 -0.130013 -0.000000
v 0.124692 0.130013 0.000000
v -0.124693 0.130013 0.000000
v -0.924026 0.375000 0.983732
v -0.901067 0.349635 0.946654
v -0.069384 -0.072345 0.960746
v 0.069385 -0.072345 0.960746
v 0.069385 0.072345 0.960746
v -0.069384 0.072345 0.960746
v -0.047451 0.049477 0.008198
v 0.047453 0.049477 0.008198
v -0.047451 -0.049477 0.008198
v 0.047453 -0.049477 0.008198
vn -0.0000 -0.0000 -1.0000
vn -0.0000 -0.8254 -0.5646
vn -0.0000 -0.0000 1.0000
vn -0.0000 0.8254 -0.5646
vn 0.8502 -0.0000 -0.5265
vn -0.9997 -0.0000 -0.0230
vn -0.0000 -0.9997 -0.0240
vn -0.0000 0.7593 0.6508
vn 0.7725 -0.0000 0.6350
vn -0.0000 0.9997 -0.0240
vn 0.9997 -0.0000 -0.0230
vn -0.7725 -0.0000 0.6350
vn -0.0000 -0.7593 0.6508
vn -0.8502 -0.0000 -0.5265
vt 0.289661 0.870805
vt 0.304827 0.870805
s 0
usemtl Palette
f 16/1/1 2/1/1 4/1/1
f 2/1/2 3/2/2 4/1/2
f 5/2/3 3/2/3 1/2/3
f 16/1/4 5/2/4 6/1/4
f 2/1/5 5/2/5 1/2/5
f 8/1/3 9/1/3 10/1/3
f 17/1/6 21/1/6 23/1/6
f 18/1/7 23/1/7 24/1/7
f 13/1/8 9/1/8 7/1/8
f 13/1/9 8/1/9 11/1/9
f 20/1/10 22/1/10 21/1/10
f 22/1/11 18/1/11 24/1/11
f 14/1/1 11/1/1 12/1/1
f 12/1/12 9/1/12 14/1/12
f 11/1/13 10/1/13 12/1/13
f 15/2/14 4/1/14 3/2/14
f 16/1/1 6/1/1 2/1/1
f 2/1/2 1/2/2 3/2/2
f 5/2/3 15/2/3 3/2/3
f 16/1/4 15/2/4 5/2/4
f 2/1/5 6/1/5 5/2/5
f 8/1/3 7/1/3 9/1/3
f 17/1/6 20/1/6 21/1/6
f 18/1/7 17/1/7 23/1/7
f 13/1/8 14/1/8 9/1/8
f 13/1/9 7/1/9 8/1/9
f 20/1/10 19/1/10 22/1/10
f 22/1/11 19/1/11 18/1/11
f 14/1/1 13/1/1 11/1/1
f 12/1/12 10/1/12 9/1/12
f 11/1/13 8/1/13 10/1/13
f 15/2/14 16/1/14 4/1/14
