# Blender 5.0.1
# www.blender.org
mtllib Table_Lamp_1.mtl
o Table_Lamp_1
v 0.000000 0.066964 -0.002285
v 0.025626 0.061866 -0.002285
v 0.047351 0.047350 -0.002285
v 0.061866 0.025626 -0.002285
v 0.066964 0.000000 -0.002285
v 0.061866 -0.025626 -0.002285
v 0.047351 -0.047350 -0.002285
v 0.025626 -0.061866 -0.002285
v 0.000000 -0.066964 -0.002285
v -0.025626 -0.061866 -0.002285
v -0.047350 -0.047350 -0.002285
v -0.061866 -0.025626 -0.002285
v -0.066963 0.000000 -0.002285
v -0.061866 0.025626 -0.002285
v -0.047350 0.047350 -0.002285
v -0.025626 0.061866 -0.002285
v -0.025270 0.061009 0.008972
v -0.046694 0.046694 0.008972
v -0.061008 0.025271 0.008972
v -0.066035 0.000000 0.008972
v -0.061008 -0.025271 0.008972
v -0.046694 -0.046694 0.008972
v -0.025270 -0.061009 0.008972
v 0.000000 -0.066035 0.008972
v 0.025271 -0.061008 0.008972
v 0.046694 -0.046694 0.008972
v 0.061009 -0.025271 0.008972
v 0.066035 0.000000 0.008972
v 0.061009 0.025271 0.008972
v 0.046694 0.046694 0.008972
v 0.025271 0.061009 0.008972
v 0.000000 0.066035 0.008972
v -0.004346 -0.004347 0.253855
v 0.004347 -0.004347 0.253855
v -0.004346 0.004347 0.244788
v 0.004347 0.004347 0.244788
v -0.004346 0.004347 0.006819
v -0.004346 -0.004347 0.006819
v 0.004347 -0.004347 0.006819
v 0.004347 0.004347 0.006819
vn -0.5538 0.8288 0.0806
vn -0.5538 -0.8288 0.0806
vn -0.9776 -0.1945 0.0806
vn 0.5538 -0.8288 0.0806
vn 0.5538 0.8288 0.0806
vn -0.8288 0.5538 0.0806
vn -0.1945 -0.9776 0.0806
vn 0.9776 0.1945 0.0806
vn -0.1945 0.9776 0.0806
vn -0.8288 -0.5538 0.0806
vn 0.8288 -0.5538 0.0806
vn 0.1945 0.9776 0.0806
vn -0.9776 0.1945 0.0806
vn 0.1945 -0.9776 0.0806
vn 0.8288 0.5538 0.0806
vn 0.9776 -0.1945 0.0806
vn -0.0000 -0.0000 -1.0000
vn -0.0000 -0.0000 1.0000
vn -0.0000 0.7218 0.6921
vn -0.0000 1.0000 -0.0000
vn -0.0000 -1.0000 -0.0000
vn 1.0000 -0.0000 -0.0000
vn -1.0000 -0.0000 -0.0000
vt 0.034105 0.979048
vt 0.039706 0.982791
vt 0.034105 0.979048
vt 0.039706 0.950887
vt 0.034105 0.954630
vt 0.030362 0.960232
vt 0.029047 0.966839
vt 0.058522 0.954630
vt 0.052921 0.950888
vt 0.052921 0.982791
vt 0.058522 0.979048
vt 0.058522 0.979048
vt 0.030362 0.973446
vt 0.030362 0.973446
vt 0.046313 0.949573
vt 0.046313 0.949573
vt 0.062265 0.973446
vt 0.063579 0.966839
vt 0.046313 0.984105
vt 0.062265 0.960232
vt 0.046313 0.984105
vt 0.067143 0.935753
vt 0.017143 0.985753
vt 0.017143 0.935753
vt 0.067143 0.985753
s 0
usemtl Palette
f 18/1/1 16/2/1 15/3/1
f 23/4/2 11/5/2 10/4/2
f 21/6/3 13/7/3 12/6/3
f 7/8/4 25/9/4 8/9/4
f 2/10/5 30/11/5 3/12/5
f 19/13/6 15/3/6 14/14/6
f 24/15/7 10/4/7 9/16/7
f 4/17/8 28/18/8 5/18/8
f 17/2/9 1/19/9 16/2/9
f 22/5/10 12/6/10 11/5/10
f 6/20/11 26/8/11 7/8/11
f 1/19/12 31/10/12 2/10/12
f 20/7/13 14/14/13 13/7/13
f 8/9/14 24/15/14 9/16/14
f 3/12/15 29/17/15 4/17/15
f 5/18/16 27/20/16 6/20/16
f 4/17/17 8/9/17 12/6/17
f 30/11/18 32/21/18 24/15/18
f 34/22/19 35/23/19 33/24/19
f 40/25/20 35/23/20 36/25/20
f 38/24/21 34/22/21 33/24/21
f 39/22/22 36/25/22 34/22/22
f 35/23/23 38/24/23 33/24/23
f 18/1/1 17/2/1 16/2/1
f 23/4/2 22/5/2 11/5/2
f 21/6/3 20/7/3 13/7/3
f 7/8/4 26/8/4 25/9/4
f 2/10/5 31/10/5 30/11/5
f 19/13/6 18/1/6 15/3/6
f 24/15/7 23/4/7 10/4/7
f 4/17/8 29/17/8 28/18/8
f 17/2/9 32/21/9 1/19/9
f 22/5/10 21/6/10 12/6/10
f 6/20/11 27/20/11 26/8/11
f 1/19/12 32/21/12 31/10/12
f 20/7/13 19/13/13 14/14/13
f 8/9/14 25/9/14 24/15/14
f 3/12/15 30/11/15 29/17/15
f 5/18/16 28/18/16 27/20/16
f 16/2/17 1/19/17 2/10/17
f 2/10/17 3/12/17 4/17/17
f 4/17/17 5/18/17 8/9/17
f 5/18/17 6/20/17 8/9/17
f 6/20/17 7/8/17 8/9/17
f 8/9/17 9/16/17 10/4/17
f 10/4/17 11/5/17 12/6/17
f 12/6/17 13/7/17 14/14/17
f 14/14/17 15/3/17 16/2/17
f 16/2/17 2/10/17 4/17/17
f 8/9/17 10/4/17 12/6/17
f 12/6/17 14/14/17 16/2/17
f 16/2/17 4/17/17 12/6/17
f 32/21/18 17/2/18 18/1/18
f 18/1/18 19/13/18 20/7/18
f 20/7/18 21/6/18 22/5/18
f 22/5/18 23/4/18 24/15/18
f 24/15/18 25/9/18 26/8/18
f 26/8/18 27/20/18 28/18/18
f 28/18/18 29/17/18 30/11/18
f 30/11/18 31/10/18 32/21/18
f 32/21/18 18/1/18 20/7/18
f 20/7/18 22/5/18 32/21/18
f 22/5/18 24/15/18 32/21/18
f 24/15/18 26/8/18 28/18/18
f 28/18/18 30/11/18 24/15/18
f 34/22/19 36/25/19 35/23/19
f 40/25/20 37/23/20 35/23/20
f 38/24/21 39/22/21 34/22/21
f 39/22/22 40/25/22 36/25/22
f 35/23/23 37/23/23 38/24/23
