# Blender 5.0.1
# www.blender.org
mtllib Table_Lamp_1_Ac.mtl
o Table_Lamp_1_Ac
v 0.004347 0.037281 -0.030613
v 0.004347 0.036848 -0.042474
v -0.004346 0.036848 -0.042474
v -0.004346 0.037281 -0.030613
v -0.069807 -0.118860 0.105190
v 0.069807 -0.118860 0.105190
v -0.074693 -0.101214 0.115926
v 0.074693 -0.101214 0.115926
v 0.004347 -0.105236 0.111904
v -0.004346 -0.105236 0.111904
v 0.004347 -0.111383 0.105757
v -0.004346 -0.111383 0.105757
v 0.069807 -0.137485 0.123816
v -0.069807 -0.137485 0.123816
v 0.074693 -0.131263 0.136948
v -0.074693 -0.131263 0.136948
v -0.074693 -0.115405 0.101735
v -0.074693 -0.140940 0.127271
v 0.074693 -0.140940 0.127271
v 0.074693 -0.115405 0.101735
v -0.069807 -0.121241 0.102809
v -0.069807 -0.139867 0.121434
v 0.069807 -0.139867 0.121434
v 0.069807 -0.121241 0.102809
v -0.009748 0.009048 0.009192
v -0.004426 0.012764 0.000221
v -0.004426 0.009048 0.009192
v -0.004426 0.000078 0.012908
v -0.004426 -0.008893 0.009192
v -0.004426 -0.012609 0.000221
v -0.004426 -0.008893 -0.008750
v -0.004426 0.000078 -0.012465
v -0.004426 0.009048 -0.008750
v -0.009748 0.012764 0.000221
v -0.009748 0.000078 0.012908
v -0.009748 -0.008893 0.009192
v -0.009748 -0.012609 0.000221
v -0.009748 -0.008893 -0.008750
v -0.009748 0.000078 -0.012465
v -0.009748 0.009048 -0.008750
vn -0.0000 0.9993 -0.0364
vn -0.0000 -0.7071 0.7071
vn -0.0000 0.7071 0.7071
vn 1.0000 -0.0000 -0.0000
vn -0.0000 -0.7071 -0.7071
vn -1.0000 -0.0000 -0.0000
vn -0.0000 0.7071 -0.7071
vn -0.0000 0.5732 0.8194
vn -0.0000 -0.3827 0.9239
vn -0.0000 0.3827 0.9239
vn -0.0000 -0.9239 -0.3827
vn -0.0000 0.9239 0.3827
vn -0.0000 -0.3827 -0.9239
vn -0.0000 0.3827 -0.9239
vn -0.0000 -0.9239 0.3827
vn -0.0000 0.9239 -0.3827
vt 0.017143 0.985753
vt 0.067143 0.935753
vt 0.017143 0.935753
vt 0.017143 0.969849
vt 0.067143 0.969849
vt 0.067143 0.985753
vt 0.067143 0.985753
vt 0.150567 0.801649
vt 0.103838 0.801649
vt 0.018778 0.935753
vt 0.065507 0.935753
vt 0.103838 0.801649
vt 0.150567 0.801649
vt 0.097872 0.958149
vt 0.105194 0.940471
vt 0.105194 0.975827
vt 0.122872 0.933149
vt 0.140549 0.940471
vt 0.122872 0.983149
vt 0.147872 0.958149
vt 0.140549 0.975827
s 0
usemtl Palette
f 4/1/1 2/2/1 3/3/1
f 16/4/2 19/2/2 15/5/2
f 1/6/3 10/1/3 9/7/3
f 11/2/4 1/6/4 9/7/4
f 3/3/5 11/2/5 12/3/5
f 11/2/2 10/1/2 12/3/2
f 17/3/6 16/4/6 7/1/6
f 4/1/6 12/3/6 10/1/6
f 20/2/4 15/5/4 19/2/4
f 7/1/7 20/2/7 17/3/7
f 7/1/8 15/5/8 8/7/8
f 5/10/5 18/3/5 17/3/5
f 6/11/5 19/2/5 13/11/5
f 5/10/5 20/2/5 6/11/5
f 13/11/5 18/3/5 14/10/5
f 35/14/9 29/15/9 28/14/9
f 25/16/10 28/14/10 27/16/10
f 37/17/11 31/18/11 30/17/11
f 34/19/12 27/16/12 26/19/12
f 38/18/13 32/20/13 31/18/13
f 39/20/14 33/21/14 32/20/14
f 25/16/6 40/21/6 38/18/6
f 36/15/15 30/17/15 29/15/15
f 29/15/4 31/18/4 33/21/4
f 33/21/16 34/19/16 26/19/16
f 4/1/1 1/6/1 2/2/1
f 16/4/2 18/3/2 19/2/2
f 1/6/3 4/1/3 10/1/3
f 11/2/4 2/2/4 1/6/4
f 3/3/5 2/2/5 11/2/5
f 11/2/2 9/7/2 10/1/2
f 17/3/6 18/3/6 16/4/6
f 4/1/6 3/3/6 12/3/6
f 20/2/4 8/7/4 15/5/4
f 7/1/7 8/7/7 20/2/7
f 7/1/8 16/4/8 15/5/8
f 5/10/5 14/10/5 18/3/5
f 6/11/5 20/2/5 19/2/5
f 5/10/5 17/3/5 20/2/5
f 13/11/5 19/2/5 18/3/5
f 35/14/9 36/15/9 29/15/9
f 25/16/10 35/14/10 28/14/10
f 37/17/11 38/18/11 31/18/11
f 34/19/12 25/16/12 27/16/12
f 38/18/13 39/20/13 32/20/13
f 39/20/14 40/21/14 33/21/14
f 25/16/6 34/19/6 40/21/6
f 40/21/6 39/20/6 38/18/6
f 38/18/6 37/17/6 36/15/6
f 36/15/6 35/14/6 38/18/6
f 35/14/6 25/16/6 38/18/6
f 36/15/15 37/17/15 30/17/15
f 33/21/4 26/19/4 27/16/4
f 27/16/4 28/14/4 29/15/4
f 29/15/4 30/17/4 31/18/4
f 31/18/4 32/20/4 33/21/4
f 33/21/4 27/16/4 29/15/4
f 33/21/16 40/21/16 34/19/16
usemtl Light
f 6/8/7 21/9/7 5/9/7
f 24/8/5 22/12/5 21/9/5
f 5/9/6 22/12/6 14/12/6
f 14/12/2 23/13/2 13/13/2
f 13/13/4 24/8/4 6/8/4
f 6/8/7 24/8/7 21/9/7
f 24/8/5 23/13/5 22/12/5
f 5/9/6 21/9/6 22/12/6
f 14/12/2 22/12/2 23/13/2
f 13/13/4 23/13/4 24/8/4
