# Blender 5.0.1
# www.blender.org
mtllib Tv.mtl
o Tv
v 0.305265 0.039669 0.108366
v 0.305265 0.039669 0.467976
v 0.466898 -0.047229 0.127002
v 0.466898 -0.047229 0.616761
v 0.485535 -0.008380 0.108366
v 0.485535 -0.008380 0.635397
v 0.044275 -0.031505 0.008112
v 0.030874 -0.021386 0.152232
v 0.044275 0.039283 0.010738
v 0.030874 0.003758 0.152232
v 0.485535 -0.047229 0.635397
v 0.485535 -0.047229 0.108366
v 0.466898 -0.037961 0.616761
v 0.466898 -0.037961 0.127002
v 0.089154 0.039669 0.141977
v 0.089154 0.039669 0.237636
v 0.089154 0.026917 0.141977
v 0.089154 0.026917 0.237636
v -0.305265 0.039669 0.108366
v -0.305265 0.039669 0.467976
v -0.466899 -0.047229 0.127002
v -0.466899 -0.047229 0.616761
v -0.485535 -0.008380 0.108366
v -0.485535 -0.008380 0.635397
v -0.044275 -0.031505 0.008112
v -0.030874 -0.021386 0.152232
v -0.044275 0.039283 0.010738
v -0.030874 0.003758 0.152232
v -0.485535 -0.047229 0.635397
v -0.485535 -0.047229 0.108366
v -0.466899 -0.037961 0.616761
v -0.466899 -0.037961 0.127002
v -0.089154 0.039669 0.141977
v -0.089154 0.039669 0.237636
v -0.089154 0.026917 0.141977
v -0.089154 0.026917 0.237636
v 0.000000 0.094589 -0.002697
v 0.000000 -0.086106 0.008796
v 0.000000 0.094589 0.013638
v 0.000000 -0.086106 -0.002697
v 0.169837 -0.008722 -0.002697
v 0.105886 -0.067205 -0.002697
v 0.145525 -0.046343 -0.002697
v 0.105886 -0.067205 0.008796
v 0.169837 -0.008722 0.010714
v 0.145525 -0.046343 0.009358
v -0.105886 -0.067205 -0.002697
v -0.169837 -0.008722 -0.002697
v -0.145525 -0.046343 -0.002697
v -0.169837 -0.008722 0.010714
v -0.105886 -0.067205 0.008796
v -0.145525 -0.046343 0.009358
v 0.104653 0.079245 -0.002697
v 0.104653 0.079245 0.013638
v -0.172512 0.052931 -0.002697
v -0.104653 0.079245 -0.002697
v -0.104653 0.079245 0.013638
v -0.172512 0.052931 0.013028
v 0.494936 -0.027805 0.099960
v 0.494936 -0.027805 0.643803
v -0.494937 -0.027805 0.099960
v -0.494937 -0.027805 0.643803
v 0.151597 0.063324 -0.002697
v 0.171500 0.029598 -0.002697
v 0.171500 0.029598 0.012152
v 0.151597 0.063324 0.013301
vn 0.9001 -0.4357 -0.0000
vn -0.0000 -0.9975 0.0700
vn -0.0000 -0.0000 -1.0000
vn 0.2575 0.9663 -0.0000
vn -0.0000 0.3972 -0.9178
vn -0.0000 1.0000 -0.0000
vn 0.9956 -0.0024 0.0932
vn 0.0001 -0.0311 0.9995
vn 0.1757 -0.9844 -0.0000
vn -0.0000 -1.0000 -0.0000
vn -1.0000 -0.0000 -0.0000
vn -0.0000 0.9612 0.2759
vn -0.0000 -0.3972 0.9178
vn -0.0000 -0.0000 1.0000
vn 0.1451 0.9894 -0.0000
vn -0.9001 -0.4357 -0.0000
vn -0.2575 0.9663 -0.0000
vn -0.9956 -0.0024 0.0932
vn -0.1757 -0.9844 -0.0000
vn 1.0000 -0.0000 -0.0000
vn -0.0000 0.9699 0.2435
vn -0.1451 0.9894 -0.0000
vn -0.0000 -0.0311 0.9995
vn -0.9991 -0.0433 -0.0000
vn 0.4657 -0.8849 -0.0000
vn 0.8399 -0.5428 -0.0000
vn -0.8399 -0.5428 -0.0000
vn -0.4657 -0.8849 -0.0000
vn -0.3615 0.9324 -0.0000
vn 0.3212 0.9470 -0.0000
vn -0.9001 0.4357 -0.0000
vn -0.0000 0.3972 0.9178
vn -0.0000 -0.3972 -0.9178
vn 0.9001 0.4357 -0.0000
vn 0.8612 0.5082 -0.0000
vn 0.9991 -0.0433 -0.0000
vn 0.9956 -0.0025 0.0932
vn -0.9956 -0.0025 0.0932
vn -0.0001 -0.0311 0.9995
vt 0.136819 0.974573
vt 0.126039 0.979963
vt 0.126039 0.974573
vt 0.126252 0.947947
vt 0.109873 0.974649
vt 0.126039 0.969184
vt 0.136819 0.969184
vt 0.198187 0.956806
vt 0.202314 0.956806
vt 0.114374 0.947628
vt 0.112682 0.975461
vt 0.135968 0.953799
vt 0.135968 0.953429
vt 0.135968 0.943020
vt 0.125189 0.953799
vt 0.126464 0.979963
vt 0.136819 0.979963
vt 0.136394 0.979963
vt 0.000128 0.000017
vt 0.562433 0.999872
vt 0.000128 0.999872
vt 0.125189 0.943020
vt 0.129659 0.969184
vt 0.126981 0.969184
vt 0.125189 0.944378
vt 0.135968 0.949528
vt 0.135968 0.944378
vt 0.125189 0.949528
vt 0.125189 0.953430
vt 0.135968 0.943770
vt 0.135968 0.946327
vt 0.125189 0.943770
vt 0.125189 0.946327
vt 0.562433 0.000017
s 0
usemtl Palette
f 60/1/1 12/2/1 59/3/1
f 26/4/2 7/5/2 8/4/2
f 5/6/3 19/6/3 1/6/3
f 5/6/4 2/7/4 6/7/4
f 23/6/5 59/3/5 61/3/5
f 35/8/6 18/9/6 17/8/6
f 10/10/7 7/5/7 9/11/7
f 44/12/8 46/13/8 54/14/8
f 38/12/9 42/15/9 44/12/9
f 3/16/10 11/17/10 4/18/10
f 30/2/10 3/16/10 21/16/10
f 29/17/10 4/18/10 11/17/10
f 4/18/11 14/16/11 3/16/11
f 24/7/12 2/7/12 20/7/12
f 62/1/13 11/17/13 60/1/13
f 32/16/14 3/16/14 14/16/14
f 39/14/15 53/22/15 37/22/15
f 36/23/3 16/23/3 18/23/3
f 35/24/14 15/24/14 33/24/14
f 15/24/11 18/23/11 16/23/11
f 61/3/16 29/17/16 62/1/16
f 20/7/17 23/6/17 24/7/17
f 25/5/18 28/10/18 27/11/18
f 51/12/19 40/15/19 38/12/19
f 22/18/10 30/2/10 21/16/10
f 32/16/20 22/18/20 21/16/20
f 36/23/20 33/24/20 34/23/20
f 31/18/3 4/18/3 22/18/3
f 28/10/21 9/11/21 27/11/21
f 16/23/6 20/7/6 2/7/6
f 19/6/6 15/24/6 1/6/6
f 19/6/6 34/23/6 33/24/6
f 16/23/6 1/6/6 15/24/6
f 57/14/22 37/22/22 56/22/22
f 52/13/23 51/12/23 57/14/23
f 55/25/24 50/26/24 58/27/24
f 48/28/3 55/25/3 56/22/3
f 44/12/25 43/29/25 46/13/25
f 46/13/26 41/28/26 45/26/26
f 48/28/27 52/13/27 50/26/27
f 49/29/28 51/12/28 52/13/28
f 41/28/3 43/29/3 53/22/3
f 56/22/29 58/27/29 57/14/29
f 66/30/30 53/22/30 54/14/30
f 61/3/31 24/7/31 23/6/31
f 24/7/32 60/1/32 6/7/32
f 61/3/33 12/2/33 30/2/33
f 6/7/34 59/3/34 5/6/34
f 65/31/35 63/32/35 66/30/35
f 64/33/36 45/26/36 41/28/36
f 60/1/1 11/17/1 12/2/1
f 26/4/2 25/5/2 7/5/2
f 5/6/3 23/6/3 19/6/3
f 5/6/4 1/6/4 2/7/4
f 23/6/5 5/6/5 59/3/5
f 35/8/6 36/9/6 18/9/6
f 10/10/37 8/4/37 7/5/37
f 45/26/8 65/31/8 54/14/8
f 65/31/8 66/30/8 54/14/8
f 54/14/8 39/14/8 44/12/8
f 45/26/8 54/14/8 46/13/8
f 39/14/8 38/12/8 44/12/8
f 38/12/9 40/15/9 42/15/9
f 3/16/10 12/2/10 11/17/10
f 30/2/10 12/2/10 3/16/10
f 29/17/10 22/18/10 4/18/10
f 4/18/11 13/18/11 14/16/11
f 24/7/12 6/7/12 2/7/12
f 62/1/13 29/17/13 11/17/13
f 32/16/14 21/16/14 3/16/14
f 39/14/15 54/14/15 53/22/15
f 36/23/3 34/23/3 16/23/3
f 35/24/14 17/24/14 15/24/14
f 15/24/11 17/24/11 18/23/11
f 61/3/16 30/2/16 29/17/16
f 20/7/17 19/6/17 23/6/17
f 25/5/38 26/4/38 28/10/38
f 51/12/19 47/15/19 40/15/19
f 22/18/10 29/17/10 30/2/10
f 32/16/20 31/18/20 22/18/20
f 36/23/20 35/24/20 33/24/20
f 31/18/3 13/18/3 4/18/3
f 28/10/21 10/10/21 9/11/21
f 16/23/6 34/23/6 20/7/6
f 19/6/6 33/24/6 15/24/6
f 19/6/6 20/7/6 34/23/6
f 16/23/6 2/7/6 1/6/6
f 57/14/22 39/14/22 37/22/22
f 38/12/39 39/14/39 51/12/39
f 39/14/39 57/14/39 51/12/39
f 57/14/39 58/27/39 50/26/39
f 50/26/39 52/13/39 57/14/39
f 55/25/24 48/28/24 50/26/24
f 40/15/3 47/15/3 37/22/3
f 47/15/3 49/29/3 56/22/3
f 37/22/3 47/15/3 56/22/3
f 49/29/3 48/28/3 56/22/3
f 44/12/25 42/15/25 43/29/25
f 46/13/26 43/29/26 41/28/26
f 48/28/27 49/29/27 52/13/27
f 49/29/28 47/15/28 51/12/28
f 42/15/3 40/15/3 37/22/3
f 37/22/3 53/22/3 42/15/3
f 53/22/3 63/32/3 64/33/3
f 42/15/3 53/22/3 43/29/3
f 64/33/3 41/28/3 53/22/3
f 56/22/29 55/25/29 58/27/29
f 66/30/30 63/32/30 53/22/30
f 61/3/31 62/1/31 24/7/31
f 24/7/32 62/1/32 60/1/32
f 61/3/33 59/3/33 12/2/33
f 6/7/34 60/1/34 59/3/34
f 65/31/35 64/33/35 63/32/35
f 64/33/36 65/31/36 45/26/36
s 14
usemtl Screens
f 31/19/10 14/20/10 13/21/10
f 31/19/10 32/34/10 14/20/10
