# Blender 5.0.1
# www.blender.org
mtllib Vent.mtl
o Vent.004
v -0.292972 -0.025091 -0.246138
v -0.292972 0.006674 -0.214373
v 0.292972 -0.025091 -0.246138
v 0.292972 0.006674 -0.214373
v -0.292972 -0.019030 -0.252200
v -0.292972 0.012735 -0.220434
v 0.292972 -0.019030 -0.252200
v 0.292972 0.012735 -0.220434
v -0.292972 -0.025091 -0.187507
v -0.292972 0.006674 -0.155742
v 0.292972 -0.025091 -0.187507
v 0.292972 0.006674 -0.155742
v -0.292972 -0.019030 -0.193568
v -0.292972 0.012735 -0.161803
v 0.292972 -0.019030 -0.193568
v 0.292972 0.012735 -0.161803
v -0.292972 -0.025091 -0.128876
v -0.292972 0.006674 -0.097111
v 0.292972 -0.025091 -0.128876
v 0.292972 0.006674 -0.097111
v -0.292972 -0.019030 -0.134937
v -0.292972 0.012735 -0.103172
v 0.292972 -0.019030 -0.134937
v 0.292972 0.012735 -0.103172
v -0.292972 -0.025091 -0.070245
v -0.292972 0.006674 -0.038480
v 0.292972 -0.025091 -0.070245
v 0.292972 0.006674 -0.038480
v -0.292972 -0.019030 -0.076306
v -0.292972 0.012735 -0.044541
v 0.292972 -0.019030 -0.076306
v 0.292972 0.012735 -0.044541
v -0.292972 -0.025091 -0.011614
v -0.292972 0.006674 0.020152
v 0.292972 -0.025091 -0.011614
v 0.292972 0.006674 0.020152
v -0.292972 -0.019030 -0.017675
v -0.292972 0.012735 0.014090
v 0.292972 -0.019030 -0.017675
v 0.292972 0.012735 0.014090
v -0.292972 -0.025091 0.047017
v -0.292972 0.006674 0.078783
v 0.292972 -0.025091 0.047017
v 0.292972 0.006674 0.078783
v -0.292972 -0.019030 0.040956
v -0.292972 0.012735 0.072721
v 0.292972 -0.019030 0.040956
v 0.292972 0.012735 0.072721
v -0.292972 -0.025091 0.105649
v -0.292972 0.006674 0.137414
v 0.292972 -0.025091 0.105649
v 0.292972 0.006674 0.137414
v -0.292972 -0.019030 0.099587
v -0.292972 0.012735 0.131352
v 0.292972 -0.019030 0.099587
v 0.292972 0.012735 0.131352
v -0.292972 -0.025091 0.164280
v -0.292972 0.006674 0.196045
v 0.292972 -0.025091 0.164280
v 0.292972 0.006674 0.196045
v -0.292972 -0.019030 0.158218
v -0.292972 0.012735 0.189984
v 0.292972 -0.019030 0.158218
v 0.292972 0.012735 0.189984
v -0.292972 -0.025091 0.222911
v -0.292972 0.006674 0.254676
v 0.292972 -0.025091 0.222911
v 0.292972 0.006674 0.254676
v -0.292972 -0.019030 0.216850
v -0.292972 0.012735 0.248615
v 0.292972 -0.019030 0.216850
v 0.292972 0.012735 0.248615
v -0.302508 -0.030445 -0.302431
v -0.302508 -0.030445 0.291287
v 0.302509 -0.030445 -0.302431
v 0.302509 -0.030445 0.291287
v -0.302508 0.024152 -0.302431
v -0.302508 0.024152 0.291287
v 0.302509 0.024152 -0.302431
v 0.302509 0.024152 0.291287
v -0.282364 -0.030445 -0.282287
v -0.282364 -0.030445 0.271142
v 0.282365 -0.030445 -0.282287
v 0.282365 -0.030445 0.271142
v -0.282364 0.024152 -0.282287
v -0.282364 0.024152 0.271142
v 0.282365 0.024152 -0.282287
v 0.282365 0.024152 0.271142
vn -0.0000 -0.7071 0.7071
vn -0.0000 0.7071 -0.7071
vn -1.0000 -0.0000 -0.0000
vn 1.0000 -0.0000 -0.0000
vn -0.0000 -0.7071 -0.7071
vn -0.0000 -0.0000 -1.0000
vn -0.0000 -0.0000 1.0000
vn -0.0000 -1.0000 -0.0000
vt 0.208354 0.885368
vt 0.220854 0.872868
vt 0.208354 0.872868
vt 0.220854 0.885368
vt 0.029122 0.971170
s 0
usemtl Palette
f 1/1/1 4/2/1 2/3/1
f 8/2/2 5/1/2 6/3/2
f 2/3/3 5/1/3 1/1/3
f 4/2/4 7/4/4 8/2/4
f 1/1/5 7/4/5 3/4/5
f 9/1/1 12/2/1 10/3/1
f 16/2/2 13/1/2 14/3/2
f 9/1/3 14/3/3 13/1/3
f 11/4/4 16/2/4 12/2/4
f 9/1/5 15/4/5 11/4/5
f 17/1/1 20/2/1 18/3/1
f 24/2/2 21/1/2 22/3/2
f 17/1/3 22/3/3 21/1/3
f 19/4/4 24/2/4 20/2/4
f 17/1/5 23/4/5 19/4/5
f 25/1/1 28/2/1 26/3/1
f 32/2/2 29/1/2 30/3/2
f 26/3/3 29/1/3 25/1/3
f 27/4/4 32/2/4 28/2/4
f 25/1/5 31/4/5 27/4/5
f 33/1/1 36/2/1 34/3/1
f 40/2/2 37/1/2 38/3/2
f 34/3/3 37/1/3 33/1/3
f 36/2/4 39/4/4 40/2/4
f 33/1/5 39/4/5 35/4/5
f 41/1/1 44/2/1 42/3/1
f 48/2/2 45/1/2 46/3/2
f 41/1/3 46/3/3 45/1/3
f 43/4/4 48/2/4 44/2/4
f 41/1/5 47/4/5 43/4/5
f 49/1/1 52/2/1 50/3/1
f 56/2/2 53/1/2 54/3/2
f 50/3/3 53/1/3 49/1/3
f 52/2/4 55/4/4 56/2/4
f 49/1/5 55/4/5 51/4/5
f 57/1/1 60/2/1 58/3/1
f 64/2/2 61/1/2 62/3/2
f 57/1/3 62/3/3 61/1/3
f 59/4/4 64/2/4 60/2/4
f 57/1/5 63/4/5 59/4/5
f 65/1/1 68/2/1 66/3/1
f 72/2/2 69/1/2 70/3/2
f 65/1/3 70/3/3 69/1/3
f 67/4/4 72/2/4 68/2/4
f 65/1/5 71/4/5 67/4/5
f 75/5/4 80/5/4 76/5/4
f 74/5/3 77/5/3 73/5/3
f 73/5/6 79/5/6 75/5/6
f 76/5/7 78/5/7 74/5/7
f 88/5/3 83/5/3 84/5/3
f 85/5/4 82/5/4 81/5/4
f 87/5/7 81/5/7 83/5/7
f 86/5/6 84/5/6 82/5/6
f 73/5/8 82/5/8 74/5/8
f 74/5/8 84/5/8 76/5/8
f 76/5/8 83/5/8 75/5/8
f 75/5/8 81/5/8 73/5/8
f 1/1/1 3/4/1 4/2/1
f 8/2/2 7/4/2 5/1/2
f 2/3/3 6/3/3 5/1/3
f 4/2/4 3/4/4 7/4/4
f 1/1/5 5/1/5 7/4/5
f 9/1/1 11/4/1 12/2/1
f 16/2/2 15/4/2 13/1/2
f 9/1/3 10/3/3 14/3/3
f 11/4/4 15/4/4 16/2/4
f 9/1/5 13/1/5 15/4/5
f 17/1/1 19/4/1 20/2/1
f 24/2/2 23/4/2 21/1/2
f 17/1/3 18/3/3 22/3/3
f 19/4/4 23/4/4 24/2/4
f 17/1/5 21/1/5 23/4/5
f 25/1/1 27/4/1 28/2/1
f 32/2/2 31/4/2 29/1/2
f 26/3/3 30/3/3 29/1/3
f 27/4/4 31/4/4 32/2/4
f 25/1/5 29/1/5 31/4/5
f 33/1/1 35/4/1 36/2/1
f 40/2/2 39/4/2 37/1/2
f 34/3/3 38/3/3 37/1/3
f 36/2/4 35/4/4 39/4/4
f 33/1/5 37/1/5 39/4/5
f 41/1/1 43/4/1 44/2/1
f 48/2/2 47/4/2 45/1/2
f 41/1/3 42/3/3 46/3/3
f 43/4/4 47/4/4 48/2/4
f 41/1/5 45/1/5 47/4/5
f 49/1/1 51/4/1 52/2/1
f 56/2/2 55/4/2 53/1/2
f 50/3/3 54/3/3 53/1/3
f 52/2/4 51/4/4 55/4/4
f 49/1/5 53/1/5 55/4/5
f 57/1/1 59/4/1 60/2/1
f 64/2/2 63/4/2 61/1/2
f 57/1/3 58/3/3 62/3/3
f 59/4/4 63/4/4 64/2/4
f 57/1/5 61/1/5 63/4/5
f 65/1/1 67/4/1 68/2/1
f 72/2/2 71/4/2 69/1/2
f 65/1/3 66/3/3 70/3/3
f 67/4/4 71/4/4 72/2/4
f 65/1/5 69/1/5 71/4/5
f 75/5/4 79/5/4 80/5/4
f 74/5/3 78/5/3 77/5/3
f 73/5/6 77/5/6 79/5/6
f 76/5/7 80/5/7 78/5/7
f 88/5/3 87/5/3 83/5/3
f 85/5/4 86/5/4 82/5/4
f 87/5/7 85/5/7 81/5/7
f 86/5/6 88/5/6 84/5/6
f 73/5/8 81/5/8 82/5/8
f 74/5/8 82/5/8 84/5/8
f 76/5/8 84/5/8 83/5/8
f 75/5/8 83/5/8 81/5/8
