# Blender 5.0.1
# www.blender.org
mtllib Wall_Standard_Door.mtl
o Wall_Standard_Door.004
v 2.000000 0.100000 0.000000
v 0.000000 0.100000 0.000000
v 2.000000 -0.100000 0.000000
v 0.000000 -0.100000 0.000000
v 0.000000 -0.100000 3.000000
v 2.000000 -0.100000 3.000000
v 2.000000 0.100000 3.000000
v 0.000000 0.100000 3.000000
v 1.531345 0.100000 0.000000
v 0.468655 0.100000 0.000000
v 0.468655 -0.100000 0.000000
v 1.531345 -0.100000 0.000000
v 1.531345 -0.100000 2.062690
v 0.468655 -0.100000 2.062690
v 0.468655 0.100000 2.062690
v 1.531345 0.100000 2.062690
vn -0.0000 -0.0000 1.0000
vn -0.0000 -1.0000 -0.0000
vn -0.0000 1.0000 -0.0000
vn 1.0000 -0.0000 -0.0000
vn -1.0000 -0.0000 -0.0000
vn -0.0000 -0.0000 -1.0000
vt 0.306725 0.861824
vt 0.308207 0.876638
vt 0.306725 0.876638
vt 0.288947 0.884046
vt 0.274132 0.884046
vt 0.285476 0.877103
vt 0.303762 0.884046
vt 0.300291 0.877103
vt 0.305244 0.861824
vt 0.303762 0.861824
vt 0.305244 0.884046
vt 0.307252 0.876638
vt 0.307680 0.861824
vt 0.307252 0.861824
vt 0.304289 0.862479
vt 0.304717 0.884046
vt 0.304717 0.862479
vt 0.306199 0.862479
vt 0.305770 0.884046
vt 0.306199 0.884046
vt 0.308207 0.861824
vt 0.285476 0.861824
vt 0.288947 0.861824
vt 0.274132 0.861824
vt 0.277604 0.877103
vt 0.277604 0.861824
vt 0.300291 0.861824
vt 0.292419 0.877103
vt 0.292419 0.861824
vt 0.306725 0.884046
vt 0.307680 0.876638
vt 0.304289 0.884046
vt 0.305770 0.862479
s 0
usemtl Palette
f 6/1/1 8/2/1 5/3/1
f 6/4/2 5/5/2 13/6/2
f 8/7/3 7/4/3 15/8/3
f 1/9/4 6/7/4 3/10/4
f 4/1/5 8/11/5 2/9/5
f 14/12/6 16/13/6 13/14/6
f 12/15/5 16/16/5 9/17/5
f 11/18/4 15/19/4 14/20/4
f 6/1/1 7/21/1 8/2/1
f 13/6/2 12/22/2 3/23/2
f 5/5/2 4/24/2 14/25/2
f 4/24/2 11/26/2 14/25/2
f 13/6/2 3/23/2 6/4/2
f 5/5/2 14/25/2 13/6/2
f 15/8/3 10/27/3 2/10/3
f 7/4/3 1/23/3 16/28/3
f 1/23/3 9/29/3 16/28/3
f 15/8/3 2/10/3 8/7/3
f 7/4/3 16/28/3 15/8/3
f 1/9/4 7/11/4 6/7/4
f 4/1/5 5/30/5 8/11/5
f 14/12/6 15/31/6 16/13/6
f 12/15/5 13/32/5 16/16/5
f 11/18/4 10/33/4 15/19/4
