# Blender 5.0.1
# www.blender.org
mtllib Wall_Standard_Column.mtl
o Wall_Standard_Column.001
v 0.087262 0.134858 0.000000
v -0.087262 0.134858 0.000000
v 0.087262 -0.134858 0.000000
v -0.087262 -0.134858 0.000000
v -0.087262 -0.134858 3.023983
v 0.087262 -0.134858 3.023983
v 0.087262 0.134858 3.023983
v -0.087262 0.134858 3.023983
vn -0.0000 -0.0000 1.0000
vn -0.0000 -1.0000 -0.0000
vn -0.0000 1.0000 -0.0000
vn 1.0000 -0.0000 -0.0000
vn -1.0000 -0.0000 -0.0000
vt 0.808711 0.785458
vt 0.810111 0.799453
vt 0.808711 0.799453
vt 0.791917 0.785458
vt 0.777922 0.806450
vt 0.777922 0.785458
vt 0.805912 0.785458
vt 0.791917 0.806450
vt 0.807312 0.785458
vt 0.805912 0.806450
vt 0.807312 0.806450
vt 0.810111 0.785458
vt 0.808711 0.806450
s 0
usemtl Palette
f 6/1/1 8/2/1 5/3/1
f 3/4/2 5/5/2 4/6/2
f 2/7/3 7/8/3 1/4/3
f 1/9/4 6/10/4 3/7/4
f 4/1/5 8/11/5 2/9/5
f 6/1/1 7/12/1 8/2/1
f 3/4/2 6/8/2 5/5/2
f 2/7/3 8/10/3 7/8/3
f 1/9/4 7/11/4 6/10/4
f 4/1/5 5/13/5 8/11/5
