# Blender 5.0.1
# www.blender.org
mtllib Wall_Standard.mtl
o Wall_Standard.009
v 2.000000 0.100000 0.000000
v 0.000000 0.100000 0.000000
v 2.000000 -0.100000 0.000000
v 0.000000 -0.100000 0.000000
v 0.000000 -0.100000 3.000000
v 2.000000 -0.100000 3.000000
v 2.000000 0.100000 3.000000
v 0.000000 0.100000 3.000000
vn -0.0000 -0.0000 1.0000
vn -0.0000 -1.0000 -0.0000
vn -0.0000 1.0000 -0.0000
vn 1.0000 -0.0000 -0.0000
vn -1.0000 -0.0000 -0.0000
vt 0.306725 0.861824
vt 0.308207 0.876638
vt 0.306725 0.876638
vt 0.288947 0.861824
vt 0.274132 0.884046
vt 0.274132 0.861824
vt 0.303762 0.861824
vt 0.288947 0.884046
vt 0.305244 0.861824
vt 0.303762 0.884046
vt 0.305244 0.884046
vt 0.308207 0.861824
vt 0.306725 0.884046
s 0
usemtl Palette
f 6/1/1 8/2/1 5/3/1
f 3/4/2 5/5/2 4/6/2
f 2/7/3 7/8/3 1/4/3
f 1/9/4 6/10/4 3/7/4
f 4/1/5 8/11/5 2/9/5
f 6/1/1 7/12/1 8/2/1
f 3/4/2 6/8/2 5/5/2
f 2/7/3 8/10/3 7/8/3
f 1/9/4 7/11/4 6/10/4
f 4/1/5 5/13/5 8/11/5
